<svg xmlns="http://www.w3.org/2000/svg" viewBox="0 0 930.74 320.38"><defs><style>.cls-1{fill:#1d1d1b;stroke:#1d1d1b;stroke-miterlimit:10;stroke-width:4px;}.cls-2{fill:#fff;}.cls-3{fill:#9d9d9c;}.cls-4{fill:none;}</style></defs><title>logo_kud_new</title><g id="Layer_2" data-name="Layer 2"><g id="Layer_1-2" data-name="Layer 1"><path class="cls-1" d="M49.31,258.45H23V61.93H49.31Zm60.49,0H83.52L50.68,162.38v-1.64L78.05,61.93h24.09L74.49,159.64Z"/><path class="cls-1" d="M159.75,258.45H133.48V95.59q0-33.66,31.47-33.66h19.71q31.47,0,31.48,33.66V258.45H189.86v-72H159.75Zm30.11-95.8V97.24q0-11.51-11.49-11.5h-7.12q-11.49,0-11.5,11.5v65.41Z"/><path class="cls-1" d="M244.76,258.45V61.93H271V258.45Z"/><path class="cls-1" d="M421,61.93v159.3q0,37.23-31.75,37.22H367.07q-31.47,0-31.47-37.49v-159h26.27V221.78q0,12.87,11.5,12.86h10.68q10.67,0,10.67-12.86V61.93Z"/><path class="cls-1" d="M500.52,114.75V97.51q0-11.76-11.5-11.77h-4.1q-11.24,0-11.22,11.77v32.57c0,3.65.72,6.12,2.18,7.39A55.87,55.87,0,0,0,483,142.4l24.91,13.41a117,117,0,0,1,11.63,7.25,18.74,18.74,0,0,1,5.34,6.3c1.27,2.46,1.92,7.16,1.92,14.1v41.87q0,33.13-31.75,33.12H478.9q-31.48,0-31.48-36.13v-9.85H473.7v10.68q0,11.49,11.77,11.49h4.65q10.39,0,10.4-11.49v-33.4q0-5.48-2.19-7.39a57.24,57.24,0,0,0-7.12-4.93l-24.91-14a78.19,78.19,0,0,1-11.9-7.4,16.81,16.81,0,0,1-5.34-7.8,39.3,39.3,0,0,1-1.64-12.45V95.59q0-33.66,31.48-33.66h16.42q31.47,0,31.48,33.66v19.16Z"/><path class="cls-1" d="M611.79,258.45V169.22h-32.3v89.23H553.22V61.93h26.27v83.48h32.3V61.93h26.28V258.45Z"/><path class="cls-1" d="M667.23,258.45V61.93h65.14V85.74H693.5v59.67H728v23.81H693.5v65.42h38.87v23.81Z"/><path class="cls-1" d="M755.78,61.93h51.46q30.1,0,30.11,33.66V144q0,25.74-15.6,32.57l18.34,81.84H815.18l-17.25-79.37H782.06v79.37H755.78Zm26.28,94.7H799.3q11.78,0,11.77-14.23V100q0-14.22-11.77-14.23H782.06Z"/><path class="cls-2" d="M607.58,288.87a11.74,11.74,0,0,1-8-3.26,20.66,20.66,0,0,1-4.26-5.6A27.25,27.25,0,0,1,593,274a14.49,14.49,0,0,1,.3-9.31l.31-.8.45-.72q1.56-2.53,3.25-5.09c-1.22-.48-2.33-1-3.33-1.48a21.79,21.79,0,0,1-7-5.39,19.76,19.76,0,0,1-4.12-8.44,48.63,48.63,0,0,1-1-8.07c-.42-6.61,1.81-13.27,6.62-19.83a65.71,65.71,0,0,1,17.08-15.57,112.62,112.62,0,0,1,24.73-11.85,132.06,132.06,0,0,1,31.13-6.59c2.17-.2,4.29-.31,6.3-.31a53.15,53.15,0,0,1,8.46.66,47.24,47.24,0,0,1,12.22,3.66,38.17,38.17,0,0,1,9.92,6.66,48.28,48.28,0,0,1,7,8.2,29.31,29.31,0,0,1,5.14,19.88,51.15,51.15,0,0,1-5.79,18.79,85.74,85.74,0,0,1-12,17.22,113.78,113.78,0,0,1-15.92,14.82,106.81,106.81,0,0,1-17.9,11.13,61.38,61.38,0,0,1-18.83,5.94,39.56,39.56,0,0,1-4.92.32,31.61,31.61,0,0,1-13.89-3.08,23.92,23.92,0,0,1-3.5-2l-1.35,2.28-1.17,1A11.33,11.33,0,0,1,607.58,288.87ZM646.79,254c-1.28.55-2.58,1.08-3.89,1.59-.75.29-1.49.57-2.24.84.39-.11.77-.23,1.16-.36A41,41,0,0,0,646.79,254ZM609.4,235.34c.51,0,1,0,1.5,0s.74,0,1.1,0l1.78-.1q3-4.09,6.17-8.17a72.16,72.16,0,0,0-8.94,6.7C610.38,234.36,609.84,234.88,609.4,235.34Z"/><path class="cls-2" d="M704.75,283.24a25,25,0,0,1-7.48-1.16,30.32,30.32,0,0,1-8.73-4.33,29.11,29.11,0,0,1-6.75-6.77,21.1,21.1,0,0,1-3.88-9.61v-.13a20.68,20.68,0,0,1,1.36-9.32A50.25,50.25,0,0,1,683,244a74.82,74.82,0,0,1,5.25-7.88c1.93-2.55,4-5,6.09-7.31a67.88,67.88,0,0,1,6.87-6.56,36.81,36.81,0,0,1,7.8-5.06,17,17,0,0,1,7.51-1.7,19.31,19.31,0,0,1,3.35.3,28.6,28.6,0,0,1,7.72,2.5,23.68,23.68,0,0,1,6.7,4.77,16,16,0,0,1,2.91,4c.86-.93,1.72-1.85,2.58-2.75l.15-.15a12.05,12.05,0,0,1,8.5-3.67,11.77,11.77,0,0,1,7.79,2.94,12.09,12.09,0,0,1,3.7,6.11,11.48,11.48,0,0,1-1.63,9.23l-.44.66-.53.57c-2.27,2.48-4.61,5.14-6.94,7.91s-4.86,5.74-7.42,8.7-5.12,5.81-7.65,8.52a107.75,107.75,0,0,1-8,7.81,57.35,57.35,0,0,1-8.65,6.26A28.34,28.34,0,0,1,707.86,283,24,24,0,0,1,704.75,283.24Z"/><path class="cls-2" d="M730.94,284.87c-.41,0-.83,0-1.24,0a28.11,28.11,0,0,1-10.48-2.36,17.69,17.69,0,0,1-8.6-7.65,16.27,16.27,0,0,1-1.76-10.15,24.24,24.24,0,0,1,2.48-7.79,25.53,25.53,0,0,1,4.89-6.64,19.5,19.5,0,0,1,8-4.77l.18-.06.19-.05a19.7,19.7,0,0,1,4.89-.65,16.31,16.31,0,0,1,3.23.32c.19-1.71.37-3.4.53-5.08a36.75,36.75,0,0,1,3.29-12.31l.15-.3a65.8,65.8,0,0,1,5.35-8.49,49.48,49.48,0,0,1,10.67-10.27l.49-.35.52-.3a11.14,11.14,0,0,1,5.52-1.46,11.84,11.84,0,0,1,7.09,2.41,18.85,18.85,0,0,1,4,4.06,19.06,19.06,0,0,1,2.67,5.16,11.74,11.74,0,0,1-1.91,11.47l-1,1.15-1.27.83a6.33,6.33,0,0,0-2.36,2.2,13.25,13.25,0,0,0-1.24,4.28,42.76,42.76,0,0,0-.25,6.67,67.09,67.09,0,0,1-.37,9.94,40,40,0,0,1-2.89,10.93,28.89,28.89,0,0,1-8.88,11.32,34.26,34.26,0,0,1-11.67,6.35A35.38,35.38,0,0,1,730.94,284.87Z"/><path class="cls-2" d="M776.23,283.32c-7.42-.29-12.72-1.56-16.7-4-5.84-3.61-8.7-9.4-7.66-15.48l0-.18a50.16,50.16,0,0,1,3.93-11.76,106.81,106.81,0,0,1,6-11c2.2-3.54,4.56-7,7-10.4,2.33-3.18,4.6-6.17,6.74-8.89a10.69,10.69,0,0,1,5.49-3.85,12.63,12.63,0,0,1,.94-2.22q.5-1,1.26-2.55c.66-1.37,1.45-2.89,2.33-4.5s2-3.47,3.19-5.31a54.22,54.22,0,0,1,4.4-5.82l1-1.21,1.37-.83a12.44,12.44,0,0,1,6.39-1.73,15.62,15.62,0,0,1,5,.87,30,30,0,0,1,6.07,2.83,28.78,28.78,0,0,1,5.14,3.88c6.2,6,3.92,12,3.07,13.64l-1,2-1.79,1.4c-.52.4-1,.79-1.49,1.17a12.6,12.6,0,0,1,4.16,1A11,11,0,0,1,826,237l-.41.62-.51.56c-3.26,3.59-6.61,7.59-10,11.89-3.61,4.62-7.27,9.08-10.87,13.25a131.81,131.81,0,0,1-11.2,11.6,34.53,34.53,0,0,1-13.79,8.1l-1.49.4Z"/><path class="cls-2" d="M789.7,320.38a19.59,19.59,0,0,1-9.05-2.4,20.78,20.78,0,0,1-7.57-6.66,18.93,18.93,0,0,1-3.35-10.56c-.08-4.43,1.63-8.7,5.09-12.71a65,65,0,0,1,5.75-5.83c2.16-2,4.52-4,7-6.09a16.58,16.58,0,0,1-3.16-3c-1.86-2.28-3.77-6.25-2.88-12.47a42.23,42.23,0,0,1,2.85-10,69.39,69.39,0,0,1,5.36-10.37,85.29,85.29,0,0,1,7.13-9.83,56.34,56.34,0,0,1,8.8-8.46,29.65,29.65,0,0,1,11.5-5.57,20.4,20.4,0,0,1,4.19-.45,19.75,19.75,0,0,1,7.71,1.59c.48.21,1,.43,1.49.67a13.69,13.69,0,0,1,5.93-1.22l1.06,0a38.33,38.33,0,0,1,6.3.85,35.3,35.3,0,0,1,6,1.86,13,13,0,0,1,6.08,4.75l.6-.63.77-.55a12.6,12.6,0,0,1,7.34-2.38,12.23,12.23,0,0,1,7,2.16,11.54,11.54,0,0,1,4.75,7.35,11.29,11.29,0,0,1-3.13,9.92q-2.83,3-6.13,6.55c-2.39,2.54-5.34,5.38-8.76,8.43s-7.54,6.38-12.3,10c-4.28,3.23-9.46,6.81-15.41,10.66q-2.34,3.92-4.6,7.73c-1.91,3.23-3.9,6.5-5.91,9.73s-3.53,5.77-4.7,7.66a62.12,62.12,0,0,1-4.11,5.87,58.49,58.49,0,0,1-8,8.14A21.44,21.44,0,0,1,789.7,320.38Z"/><path class="cls-2" d="M878.32,284.28a20.31,20.31,0,0,1-6.79-1.11l-.29-.11-.28-.12a15.28,15.28,0,0,1-6.82-5.73,21.68,21.68,0,0,1-1.86-3.54c-1.15,1.65-2.23,3.26-3.23,4.81a10.57,10.57,0,0,1-9,4.9,13,13,0,0,1-4.69-.93,25.89,25.89,0,0,1-4.67-2.4,25,25,0,0,1-4.25-3.4c-4-4-4.26-8-3.75-10.63l.05-.24.06-.23a120.89,120.89,0,0,1,4.5-14.64,97.5,97.5,0,0,1,5.25-11.41,86,86,0,0,1,5.79-9.25c1.78-2.45,3.64-5,5.54-7.44l.12-.16.13-.16c1.61-1.93,4.65-4.24,10-4.24a27,27,0,0,1,5.55.58,19.81,19.81,0,0,1,6.09,2.26c.38.22.74.46,1.08.7l.67-.44a19.23,19.23,0,0,1,7.5-3.17,17.55,17.55,0,0,1,3.45-.34,23.2,23.2,0,0,1,4.25.43,30.05,30.05,0,0,1,7.23,2.38,24.76,24.76,0,0,1,6.6,4.53c.27.26.53.53.78.8l1.39-2,.26-.39.3-.35a12,12,0,0,1,7.69-4.27,14.29,14.29,0,0,1,1.83-.12,12.94,12.94,0,0,1,4.07.65,11.73,11.73,0,0,1,6.36,5.08,11,11,0,0,1-.34,11.83l-.18.27c-1.94,2.74-4.3,6-7.21,9.86s-5.87,7.75-9,11.77-6.38,8-9.49,11.71c-3.24,3.84-6.25,7.11-8.94,9.72a13.41,13.41,0,0,1-5.72,3.14,31.32,31.32,0,0,1-4.75,1A36.38,36.38,0,0,1,878.32,284.28Z"/><path class="cls-3" d="M834.57,227.62c.21-.42,1-.6,2.53-.53a28.4,28.4,0,0,1,4.65.63,25.8,25.8,0,0,1,4.33,1.32c1.26.53,1.79,1,1.58,1.43q-2.64,3.17-5.17,6.81c-1.69,2.42-3.35,4.91-5,7.44s-3.16,5.05-4.64,7.55-2.89,4.84-4.22,7a108.54,108.54,0,0,0,19-13q8.49-7.33,15.57-14.73a2.59,2.59,0,0,1,1.53-.52,2.23,2.23,0,0,1,1.32.37,1.43,1.43,0,0,1,.63.95,1.38,1.38,0,0,1-.53,1.21l-6.17,6.6q-3.33,3.54-8.13,7.81t-11.67,9.45q-6.85,5.17-16.78,11.5-3,5-5.81,9.77t-5.8,9.55q-3,4.86-4.7,7.66a51.53,51.53,0,0,1-3.43,4.9,46.87,46.87,0,0,1-6.55,6.71,11.38,11.38,0,0,1-7.39,2.9,9.68,9.68,0,0,1-4.43-1.27,10.73,10.73,0,0,1-4-3.48,9,9,0,0,1-1.58-5.07q-.06-2.85,2.69-6a56.68,56.68,0,0,1,4.91-5q3.23-3,7-6t7.33-5.91c2.39-1.9,4.44-3.42,6.13-4.54L816.31,259q-1.59,1.48-3.33,3.43c-1.16,1.3-2.29,2.61-3.38,3.91s-2.06,2.53-2.9,3.69a29.63,29.63,0,0,0-1.79,2.69q-.64.54-2.43,0a21.87,21.87,0,0,1-3.86-1.58q-2.05-1-3.9-2.22a9.56,9.56,0,0,1-2.48-2q-1.28-1.49-.79-4.81a32.66,32.66,0,0,1,2.21-7.6,59.23,59.23,0,0,1,4.59-8.86,73.36,73.36,0,0,1,6.29-8.66,45.86,45.86,0,0,1,7.23-7,19.57,19.57,0,0,1,7.6-3.74,9.36,9.36,0,0,1,5.8.58,62,62,0,0,1,7,3.64l.42.32ZM804.8,279.87q-4.75,3.69-10,7.6a67.12,67.12,0,0,0-9.29,8.24,21.6,21.6,0,0,0-2,2.43,3.4,3.4,0,0,0-.58,2.53,2.58,2.58,0,0,0,2,2.06,4.09,4.09,0,0,0,2.85-.06q2.64-.94,6.6-6.7T804.8,279.87Zm20.8-47a31,31,0,0,0-7,4.75,51.7,51.7,0,0,0-6.49,6.86,55,55,0,0,0-5.23,7.86,33.61,33.61,0,0,0-3.17,7.87,16.81,16.81,0,0,0-.63,4.38c.07.81.35,1.14.85,1a5.13,5.13,0,0,0,2.16-1.79q1.32-1.59,3.11-3.49c1.13-1.19,2.34-2.48,3.65-3.85s2.62-2.74,4-4.12l3.91-4c1.27-1.3,2.46-2.44,3.59-3.43l4.75-8.23a12.68,12.68,0,0,0,.11-1.75,4,4,0,0,0-.32-1.68,1.6,1.6,0,0,0-1.11-.9A3.11,3.11,0,0,0,825.6,232.9Z"/><path class="cls-3" d="M697,205.34a19.45,19.45,0,0,1,3.43,13.3,40.84,40.84,0,0,1-4.7,15.1,75.43,75.43,0,0,1-10.66,15.2,102.88,102.88,0,0,1-14.51,13.51,95.45,95.45,0,0,1-16.21,10.09,51.18,51.18,0,0,1-15.73,5,23,23,0,0,1-13.19-1.85q-5.81-2.79-8.45-10.4-2.22,3.39-4.38,6.6t-4.17,6.6c-.63.56-1.36.48-2.16-.26a10.73,10.73,0,0,1-2.17-2.91,18,18,0,0,1-1.48-3.85,5.28,5.28,0,0,1-.1-3.11q2.54-4.12,5.44-8.29t6.07-8.6a27.36,27.36,0,0,1-9.29-1.38,46,46,0,0,1-6.34-2.48,11.85,11.85,0,0,1-3.85-2.9,9.88,9.88,0,0,1-2-4.22,39.86,39.86,0,0,1-.79-6.44q-.42-6.34,4.7-13.3A55.6,55.6,0,0,1,611,207.61a103,103,0,0,1,22.54-10.76,121,121,0,0,1,28.77-6.07,47.33,47.33,0,0,1,12.19.26,36.79,36.79,0,0,1,9.61,2.85,28.3,28.3,0,0,1,7.34,4.91A38.35,38.35,0,0,1,697,205.34Zm-77.8,39.38q7.92-10.77,16.36-21.43T651,202a153.4,153.4,0,0,0-34,15.2,85.1,85.1,0,0,0-12.62,9.18q-5.18,4.65-6.54,8.55a7.69,7.69,0,0,0-.42,4.59,5.86,5.86,0,0,0,2,3.07,10.61,10.61,0,0,0,3.75,1.84,24,24,0,0,0,4.59.85,35.27,35.27,0,0,0,4.7.1c1.55-.07,2.89-.17,4-.31Zm53-28.29a9.48,9.48,0,0,1-.63,6.12,22.69,22.69,0,0,1-4.43,6.55,49.4,49.4,0,0,1-7.45,6.38,85.41,85.41,0,0,1-9.55,5.86,100.72,100.72,0,0,1-10.87,5,80.3,80.3,0,0,1-11.3,3.49q-2.12,3.06-4.27,6.07c-1.45,2-2.87,4-4.28,5.86a20.87,20.87,0,0,0,12,5.54A31.9,31.9,0,0,0,645,265.57a55.64,55.64,0,0,0,13.88-7.13,86.17,86.17,0,0,0,12.77-10.82,89.34,89.34,0,0,0,10.46-12.88,57,57,0,0,0,6.7-13.19,27.68,27.68,0,0,0,1.58-11.83,12.22,12.22,0,0,0-4.8-8.7q-3.58-2.75-9.87-3.07a56.84,56.84,0,0,0-14.09,1.27,7.6,7.6,0,0,1,.42,1.69,2.56,2.56,0,0,1-.21,1.48q-5.8,9.08-12.72,18.63T635,240.39a105.2,105.2,0,0,0,20.11-10.24A108.73,108.73,0,0,0,672.21,216.43Z"/><path class="cls-3" d="M728.37,232.68a20.26,20.26,0,0,1-3.74,8,40.23,40.23,0,0,1-7,7.23,52.18,52.18,0,0,1-8.92,5.81,48.32,48.32,0,0,1-9.44,3.74c-.5,1.62-.87,3-1.11,4.12a5.11,5.11,0,0,0,0,2.85q.74,5.28,9.08,2.53a35.58,35.58,0,0,0,11.14-5.86,92.22,92.22,0,0,0,9.87-8.86q4.74-4.91,9.29-10.4T747,231.31a2.1,2.1,0,0,1,1.43-.74,1.72,1.72,0,0,1,1.16.43,2,2,0,0,1,.63,1.05,1.54,1.54,0,0,1-.26,1.27q-3.6,3.9-7.23,8.23t-7.34,8.61q-3.69,4.28-7.39,8.23a95.28,95.28,0,0,1-7.28,7.07,47.73,47.73,0,0,1-7.13,5.18,18.31,18.31,0,0,1-6.91,2.48,14.87,14.87,0,0,1-6.39-.58,20.21,20.21,0,0,1-5.86-2.91A18.63,18.63,0,0,1,690,265.2a9.33,9.33,0,0,1-1.27-9.92,38.86,38.86,0,0,1,3-6.28,63.24,63.24,0,0,1,4.53-6.81q2.64-3.49,5.49-6.6a58.8,58.8,0,0,1,5.86-5.6,27,27,0,0,1,5.76-3.74,7.54,7.54,0,0,1,4.8-.59,19.42,19.42,0,0,1,5.07,1.64,13.84,13.84,0,0,1,3.9,2.75C728.07,231.1,728.51,232,728.37,232.68Zm-5.49-.73a19.19,19.19,0,0,0-4.33,2.69q-2.85,2.16-6.07,5.06a76.26,76.26,0,0,0-6.22,6.34,37.21,37.21,0,0,0-4.7,6.49c1.62-.7,2.94-1.3,4-1.79a28,28,0,0,0,2.64-1.43,18.64,18.64,0,0,0,2.06-1.48c.63-.52,1.4-1.14,2.32-1.84a22.57,22.57,0,0,0,1.84-1.85c.81-.88,1.66-1.86,2.54-3s1.77-2.2,2.69-3.32a34.17,34.17,0,0,0,2.27-3.12,23.66,23.66,0,0,0,1.27-2.21C723.39,232,723.31,231.81,722.88,232Z"/><path class="cls-3" d="M758.67,216.64a1.54,1.54,0,0,1,1.74.32,8.6,8.6,0,0,1,1.85,1.9,8.89,8.89,0,0,1,1.26,2.42,1.93,1.93,0,0,1-.1,1.9,15.87,15.87,0,0,0-5.91,6.23,23.4,23.4,0,0,0-2.17,7.44,53.07,53.07,0,0,0-.31,8.24,56.38,56.38,0,0,1-.32,8.44,30,30,0,0,1-2.16,8.19,19.2,19.2,0,0,1-5.92,7.39,24.68,24.68,0,0,1-16.52,5.75,18,18,0,0,1-6.75-1.48,7.91,7.91,0,0,1-4-3.33,6.21,6.21,0,0,1-.64-4,14.73,14.73,0,0,1,1.48-4.59,15.27,15.27,0,0,1,3-4,9.69,9.69,0,0,1,3.9-2.38,7.18,7.18,0,0,1,4.81.16,27.9,27.9,0,0,1,4,2.27,10.82,10.82,0,0,0-4.75,2,10.5,10.5,0,0,0-2.85,3.22,7.61,7.61,0,0,0-1,3.43,4.25,4.25,0,0,0,.69,2.69,2.63,2.63,0,0,0,2.27,1,6.74,6.74,0,0,0,3.75-1.68,16.61,16.61,0,0,0,5.85-7.71,43.89,43.89,0,0,0,2.27-9.56q.64-5,1.11-10a26.7,26.7,0,0,1,2.38-9,55.15,55.15,0,0,1,4.54-7.18A39.7,39.7,0,0,1,758.67,216.64Z"/><path class="cls-3" d="M783.58,227.62c.28-.42,1.16-.6,2.64-.53a23.86,23.86,0,0,1,4.59.69A27.43,27.43,0,0,1,795,229.1c1.2.49,1.65,1,1.37,1.37a169.15,169.15,0,0,0-12.82,16.62,103,103,0,0,0-9.77,18.43c-.77,1.68-.72,2.51.16,2.48a8.67,8.67,0,0,0,3.54-1.32,43.89,43.89,0,0,0,4.64-3.12q2.43-1.85,3.7-2.9,3.59-3.27,7.33-7.13t7.45-7.91q3.69-4.06,7.18-8.08t6.65-7.71a3,3,0,0,1,2.79-.26c.88.39,1,1,.48,1.85q-5.17,5.7-10.45,12.45t-10.56,12.88a121.69,121.69,0,0,1-10.34,10.72,24.69,24.69,0,0,1-9.72,5.86q-8.24-.31-11.82-2.54t-3.06-5.27a39.76,39.76,0,0,1,3.17-9.4,96.43,96.43,0,0,1,5.43-10q3.12-5,6.6-9.76T783.58,227.62Zm17.21-23.75a3.74,3.74,0,0,1,3.11,0,20.44,20.44,0,0,1,4.07,1.9,19.22,19.22,0,0,1,3.37,2.53c.92.88,1.27,1.53,1.06,2q-2.85,2.22-4.75,3.86l-3.54,3.06q-1.64,1.42-3.37,2.9l-4.28,3.59a2.75,2.75,0,0,1-2,.32,6.31,6.31,0,0,1-2.11-.79,4.81,4.81,0,0,1-1.48-1.38,1.4,1.4,0,0,1,0-1.63c.36-.7.83-1.67,1.43-2.9s1.3-2.59,2.11-4.07,1.74-3,2.8-4.64A42.31,42.31,0,0,1,800.79,203.87Z"/><path class="cls-3" d="M882.28,242.71a32.57,32.57,0,0,0,3.28-5.8c.42-1.2.37-1.81-.16-1.85a6,6,0,0,0-2.8,1.32,48.89,48.89,0,0,0-4.64,3.69c-1.76,1.55-3.65,3.33-5.65,5.34s-3.93,4-5.76,6.07q-4.42,5.37-8.55,11t-7.39,10.67c-.21.35-.77.35-1.69,0a16.25,16.25,0,0,1-2.85-1.48,16,16,0,0,1-2.58-2.06c-.74-.74-1.07-1.28-1-1.64a108.74,108.74,0,0,1,4.11-13.4,88.11,88.11,0,0,1,4.7-10.24,74.45,74.45,0,0,1,5.12-8.18q2.64-3.65,5.38-7.24a3,3,0,0,1,2.27-.63,17.31,17.31,0,0,1,3.54.37,10.17,10.17,0,0,1,3.06,1.11c.85.49,1.13,1,.85,1.48-1.34,1.9-2.79,4-4.33,6.38s-3,4.65-4.28,6.86-2.39,4.19-3.27,5.92a10.31,10.31,0,0,0-1.32,3.43,24.63,24.63,0,0,1,2.8-3.8q2.05-2.43,4.75-5.28t5.75-5.75q3.06-2.91,6-5.28a60.89,60.89,0,0,1,5.33-4,9.09,9.09,0,0,1,3.8-1.69,9.43,9.43,0,0,1,4.06.05,20,20,0,0,1,4.81,1.59,14.56,14.56,0,0,1,3.95,2.69,4.2,4.2,0,0,1,1.53,3.27q-2.64,3.38-4.8,6.18t-4.22,5.64q-2.06,2.85-4.17,5.92t-4.54,6.75a15.42,15.42,0,0,0-1.64,3.7,10.19,10.19,0,0,0-.58,3.64c.07.95.53,1.41,1.37,1.37s2.26-1,4.23-3q3.69-3.48,7.86-8.07t8.24-9.5q4-4.92,7.7-9.77t6.39-8.87a2,2,0,0,1,1.32-.74,3.28,3.28,0,0,1,1.42.11,1.66,1.66,0,0,1,1,.74,1,1,0,0,1-.1,1.16q-2.85,4-7.07,9.66t-8.87,11.61q-4.65,6-9.24,11.4t-8.29,9a4.81,4.81,0,0,1-1.68.74,21,21,0,0,1-3.22.68,26.39,26.39,0,0,1-3.81.27,10.25,10.25,0,0,1-3.43-.53,5.25,5.25,0,0,1-2.37-2,11,11,0,0,1-1.37-2.95,14.12,14.12,0,0,1-.58-3.17,10.4,10.4,0,0,1,.1-2.64,21.48,21.48,0,0,1,1.43-5.12,30.88,30.88,0,0,1,2.53-4.75q1.53-2.37,3.48-4.85C879.42,246.6,880.81,244.76,882.28,242.71Z"/><rect class="cls-4" width="930.74" height="320.38"/></g></g></svg>