<svg xmlns="http://www.w3.org/2000/svg" viewBox="0 0 909.7 260.45"><defs><style>.cls-1{fill:#1d1d1b;stroke:#1d1d1b;stroke-miterlimit:10;stroke-width:4px;}.cls-2{fill:#fff;}.cls-3{fill:#9d9d9c;}</style></defs><title>logo_kud</title><g id="Layer_2" data-name="Layer 2"><g id="Layer_1-2" data-name="Layer 1"><path class="cls-1" d="M28.28,198.53H2V2H28.28Zm60.49,0H62.49L29.65,102.45v-1.64L57,2H81.1L53.46,99.72Z"/><path class="cls-1" d="M138.72,198.53H112.44V35.67Q112.44,2,143.92,2h19.71q31.47,0,31.48,33.67V198.53H168.83v-72H138.72Zm30.11-95.8V37.31q0-11.49-11.5-11.5h-7.11q-11.5,0-11.5,11.5v65.42Z"/><path class="cls-1" d="M223.73,198.53V2H250V198.53Z"/><path class="cls-1" d="M400,2V161.3q0,37.23-31.75,37.23H346q-31.47,0-31.48-37.5V2h26.28V161.85q0,12.87,11.5,12.87H363q10.68,0,10.68-12.87V2Z"/><path class="cls-1" d="M479.49,54.83V37.58q0-11.76-11.5-11.77h-4.1q-11.24,0-11.23,11.77V70.16q0,5.48,2.19,7.39A54.28,54.28,0,0,0,462,82.47l24.91,13.42a115.16,115.16,0,0,1,11.63,7.25,18.7,18.7,0,0,1,5.34,6.29q1.9,3.7,1.91,14.1v41.88q0,33.12-31.75,33.12H457.86q-31.47,0-31.47-36.13v-9.86h26.27v10.68q0,11.49,11.77,11.5h4.66q10.4,0,10.4-11.5V129.83c0-3.65-.73-6.12-2.19-7.39a55.87,55.87,0,0,0-7.12-4.93l-24.91-14a78.3,78.3,0,0,1-11.9-7.39,16.83,16.83,0,0,1-5.34-7.8,39.08,39.08,0,0,1-1.64-12.46V35.67Q426.39,2,457.86,2h16.43q31.47,0,31.47,33.67V54.83Z"/><path class="cls-1" d="M590.76,198.53V109.3h-32.3v89.23H532.18V2h26.28V85.48h32.3V2H617V198.53Z"/><path class="cls-1" d="M646.19,198.53V2h65.15V25.81H672.47V85.48H707V109.3H672.47v65.42h38.87v23.81Z"/><path class="cls-1" d="M734.75,2h51.46q30.1,0,30.11,33.67V84.12q0,25.72-15.61,32.57l18.34,81.84H794.14L776.9,119.15H761v79.38H734.75ZM761,96.71h17.24Q790,96.71,790,82.47V40.05q0-14.23-11.77-14.24H761Z"/><path class="cls-2" d="M586.55,228.94a11.76,11.76,0,0,1-8-3.25,20.63,20.63,0,0,1-4.25-5.6,27.63,27.63,0,0,1-2.32-6.05,14.6,14.6,0,0,1,.29-9.32l.32-.79.45-.73c1-1.68,2.12-3.38,3.25-5.08-1.22-.49-2.33-1-3.33-1.48a22,22,0,0,1-7-5.4,19.86,19.86,0,0,1-4.11-8.44,48.63,48.63,0,0,1-1-8.07c-.42-6.6,1.8-13.27,6.62-19.82a65.56,65.56,0,0,1,17.08-15.58,113.31,113.31,0,0,1,24.73-11.85,132.58,132.58,0,0,1,31.12-6.59c2.18-.2,4.29-.3,6.31-.3a51.8,51.8,0,0,1,8.45.66,46.25,46.25,0,0,1,12.22,3.66,38.22,38.22,0,0,1,9.92,6.65,47.77,47.77,0,0,1,7,8.2,29.29,29.29,0,0,1,5.15,19.88,51,51,0,0,1-5.79,18.79,85.86,85.86,0,0,1-12.05,17.22,113.74,113.74,0,0,1-15.92,14.82,106.17,106.17,0,0,1-17.9,11.13,61.38,61.38,0,0,1-18.83,5.94,37.76,37.76,0,0,1-4.92.33,31.75,31.75,0,0,1-13.89-3.08,25.26,25.26,0,0,1-3.5-2L595.22,225l-1.16,1A11.35,11.35,0,0,1,586.55,228.94Zm39.21-34.84c-1.28.56-2.58,1.09-3.89,1.6-.75.29-1.49.57-2.24.84l1.16-.37A41,41,0,0,0,625.76,194.1Zm-37.39-18.68c.5,0,1,0,1.5,0l1.1,0c.65,0,1.24-.07,1.78-.11q3-4.08,6.16-8.17a71.76,71.76,0,0,0-8.93,6.71C589.34,174.44,588.81,175,588.37,175.42Z"/><path class="cls-2" d="M683.71,223.32a25.14,25.14,0,0,1-7.48-1.16,30,30,0,0,1-8.72-4.34,29.07,29.07,0,0,1-6.75-6.76,21.14,21.14,0,0,1-3.88-9.61l0-.14a20.83,20.83,0,0,1,1.37-9.32,48.89,48.89,0,0,1,3.69-7.88,73.89,73.89,0,0,1,5.25-7.89c1.93-2.54,4-5,6.08-7.31a68,68,0,0,1,6.88-6.56,36.75,36.75,0,0,1,7.8-5,16.9,16.9,0,0,1,7.5-1.71,19.14,19.14,0,0,1,3.35.3,29.08,29.08,0,0,1,7.72,2.5,23.76,23.76,0,0,1,6.71,4.78,16,16,0,0,1,2.91,4c.85-.92,1.72-1.84,2.58-2.74l.15-.15a12,12,0,0,1,8.49-3.67,11.76,11.76,0,0,1,7.8,2.93,12.12,12.12,0,0,1,3.7,6.12,11.48,11.48,0,0,1-1.64,9.23l-.43.65-.53.58c-2.27,2.47-4.61,5.13-7,7.91s-4.85,5.73-7.41,8.7-5.12,5.81-7.65,8.52a107.53,107.53,0,0,1-8,7.8,57.35,57.35,0,0,1-8.65,6.26,28.23,28.23,0,0,1-10.71,3.76A24,24,0,0,1,683.71,223.32Z"/><path class="cls-2" d="M709.91,225c-.42,0-.83,0-1.24,0a27.87,27.87,0,0,1-10.48-2.36,17.71,17.71,0,0,1-8.61-7.65,16.3,16.3,0,0,1-1.76-10.14A24.58,24.58,0,0,1,690.3,197a25.24,25.24,0,0,1,4.9-6.64,19.55,19.55,0,0,1,8-4.78l.19-.05.19,0a19.7,19.7,0,0,1,4.89-.65,16.38,16.38,0,0,1,3.23.31c.19-1.7.36-3.4.53-5.08a36.63,36.63,0,0,1,3.29-12.3l.15-.3A64.47,64.47,0,0,1,721,159a49,49,0,0,1,10.67-10.27l.48-.36.52-.29a11.16,11.16,0,0,1,5.53-1.47A11.91,11.91,0,0,1,745.3,149a18.63,18.63,0,0,1,4,4.07,19.19,19.19,0,0,1,2.68,5.15,11.74,11.74,0,0,1-1.91,11.47l-1,1.16-1.26.82a6.4,6.4,0,0,0-2.37,2.21,13.25,13.25,0,0,0-1.23,4.27,42.81,42.81,0,0,0-.25,6.67,67.22,67.22,0,0,1-.38,10,39.71,39.71,0,0,1-2.88,10.93A29.06,29.06,0,0,1,731.85,217a34.62,34.62,0,0,1-11.67,6.35A35.38,35.38,0,0,1,709.91,225Z"/><path class="cls-2" d="M755.2,223.39c-7.42-.28-12.72-1.56-16.7-4-5.84-3.62-8.71-9.4-7.66-15.49l0-.17A50.47,50.47,0,0,1,734.8,192a107.69,107.69,0,0,1,6-11c2.2-3.55,4.57-7,7-10.41,2.34-3.18,4.6-6.17,6.75-8.89a10.81,10.81,0,0,1,5.49-3.85,11.92,11.92,0,0,1,.94-2.22c.33-.65.74-1.5,1.25-2.55.67-1.37,1.45-2.88,2.34-4.5s2-3.46,3.19-5.3a55.33,55.33,0,0,1,4.4-5.83l1-1.21,1.38-.82a12.3,12.3,0,0,1,6.39-1.73,15.77,15.77,0,0,1,5,.86,31,31,0,0,1,6.08,2.83,29.18,29.18,0,0,1,5.14,3.89c6.19,6,3.92,11.94,3.07,13.63l-1,2-1.79,1.39L796,159.44a12.85,12.85,0,0,1,4.16,1,11.09,11.09,0,0,1,6.36,7.09A11.22,11.22,0,0,1,805,177l-.42.62-.5.55c-3.26,3.6-6.62,7.6-10,11.9-3.61,4.62-7.26,9.07-10.86,13.25A133,133,0,0,1,772,215a34.38,34.38,0,0,1-13.8,8.1l-1.48.4Z"/><path class="cls-2" d="M768.67,260.45a19.51,19.51,0,0,1-9.06-2.4,20.75,20.75,0,0,1-7.56-6.66,18.88,18.88,0,0,1-3.35-10.56c-.08-4.43,1.63-8.7,5.08-12.71a69.35,69.35,0,0,1,5.75-5.83c2.17-2,4.53-4,7-6.08a16.6,16.6,0,0,1-3.16-3c-1.86-2.29-3.77-6.26-2.89-12.47a42.15,42.15,0,0,1,2.86-10,68.92,68.92,0,0,1,5.36-10.37,83.08,83.08,0,0,1,7.13-9.84,56.8,56.8,0,0,1,8.8-8.46,29.7,29.7,0,0,1,11.5-5.56,19.35,19.35,0,0,1,11.9,1.14c.48.2,1,.43,1.49.67a13.66,13.66,0,0,1,5.93-1.22l1.06,0a38.51,38.51,0,0,1,6.3.86,34.7,34.7,0,0,1,6,1.86,12.85,12.85,0,0,1,6.08,4.74l.6-.63.77-.55a12.65,12.65,0,0,1,7.34-2.38,12.18,12.18,0,0,1,7,2.17,11.44,11.44,0,0,1,4.75,7.34,11.25,11.25,0,0,1-3.12,9.92q-2.83,3-6.13,6.55c-2.39,2.55-5.34,5.38-8.76,8.43s-7.54,6.38-12.3,10c-4.28,3.22-9.46,6.81-15.42,10.66l-4.59,7.72c-1.92,3.23-3.91,6.51-5.91,9.74s-3.53,5.77-4.7,7.65a64,64,0,0,1-4.11,5.87,57.94,57.94,0,0,1-7.95,8.14A21.46,21.46,0,0,1,768.67,260.45Z"/><path class="cls-2" d="M857.29,224.35a20.07,20.07,0,0,1-6.79-1.11l-.29-.1-.28-.12a15.3,15.3,0,0,1-6.82-5.74,20.93,20.93,0,0,1-1.86-3.54q-1.72,2.49-3.23,4.82a10.57,10.57,0,0,1-9,4.89,12.88,12.88,0,0,1-4.7-.93,26.63,26.63,0,0,1-8.92-5.8c-4-4-4.26-8-3.74-10.63l.05-.23,0-.24A120.6,120.6,0,0,1,816.25,191a98.58,98.58,0,0,1,5.24-11.42,87.05,87.05,0,0,1,5.8-9.25c1.78-2.45,3.64-4.95,5.54-7.44l.12-.16.13-.15c1.61-1.94,4.64-4.24,10-4.24a27.74,27.74,0,0,1,5.55.57,20.27,20.27,0,0,1,6.08,2.26,12.81,12.81,0,0,1,1.09.71l.66-.44a19,19,0,0,1,7.51-3.17,16.82,16.82,0,0,1,3.45-.34,23.15,23.15,0,0,1,4.25.42,29.79,29.79,0,0,1,7.23,2.39,24.73,24.73,0,0,1,6.6,4.52c.27.26.53.53.77.8.49-.68.95-1.35,1.4-2l.26-.38.29-.36a12,12,0,0,1,7.7-4.26,12.9,12.9,0,0,1,5.9.53,11.75,11.75,0,0,1,6.36,5.07,11,11,0,0,1-.34,11.84l-.18.27c-2,2.73-4.31,6-7.22,9.85s-5.86,7.76-9,11.77-6.38,8-9.49,11.71c-3.25,3.84-6.25,7.11-8.94,9.73a13.6,13.6,0,0,1-5.73,3.14,32.3,32.3,0,0,1-4.75,1A37.62,37.62,0,0,1,857.29,224.35Z"/><path class="cls-3" d="M813.54,167.69c.21-.42,1.05-.6,2.53-.53a29.59,29.59,0,0,1,4.65.64,24.78,24.78,0,0,1,4.32,1.32c1.27.52,1.8,1,1.59,1.42q-2.64,3.17-5.18,6.81t-5,7.44q-2.43,3.81-4.64,7.55t-4.23,7a107.26,107.26,0,0,0,19-13q8.5-7.33,15.57-14.72a2.66,2.66,0,0,1,1.54-.53,2.2,2.2,0,0,1,1.31.37,1.43,1.43,0,0,1,.64.95,1.39,1.39,0,0,1-.53,1.21c-1.9,2.05-4,4.24-6.17,6.6s-4.93,5-8.13,7.81-7.09,6-11.67,9.45S809,204.75,802.35,209l-5.81,9.76q-2.85,4.8-5.81,9.56T786,235.94a53.08,53.08,0,0,1-3.43,4.91,47.88,47.88,0,0,1-6.55,6.7,11.34,11.34,0,0,1-7.39,2.91,9.8,9.8,0,0,1-4.43-1.27,10.91,10.91,0,0,1-4-3.48,9,9,0,0,1-1.58-5.07q-.06-2.85,2.69-6a55.39,55.39,0,0,1,4.91-5c2.14-2,4.47-4,7-6s5-4,7.34-5.91,4.43-3.41,6.12-4.54L795.27,199c-1,1-2.16,2.13-3.32,3.44s-2.29,2.6-3.38,3.9-2.06,2.54-2.9,3.7a26.91,26.91,0,0,0-1.8,2.69q-.63.53-2.43,0a21.89,21.89,0,0,1-3.85-1.59q-2.05-1.05-3.9-2.21a9.64,9.64,0,0,1-2.49-2q-1.26-1.47-.79-4.8a33.1,33.1,0,0,1,2.22-7.6,59.31,59.31,0,0,1,4.59-8.87A75.3,75.3,0,0,1,783.5,177a46.65,46.65,0,0,1,7.23-7,19.56,19.56,0,0,1,7.61-3.75,9.44,9.44,0,0,1,5.8.58,62.84,62.84,0,0,1,7,3.64l.42.32ZM783.77,220q-4.75,3.69-10,7.6a66.5,66.5,0,0,0-9.29,8.23,21.38,21.38,0,0,0-2,2.43,3.42,3.42,0,0,0-.59,2.53,2.58,2.58,0,0,0,2,2.06,4.1,4.1,0,0,0,2.85-.05q2.64-.94,6.6-6.7T783.77,220Zm20.79-47a31.56,31.56,0,0,0-7,4.75,52.39,52.39,0,0,0-6.5,6.86,56.47,56.47,0,0,0-5.22,7.87,33.71,33.71,0,0,0-3.17,7.86,16.81,16.81,0,0,0-.63,4.38c.07.81.35,1.15.84,1a5,5,0,0,0,2.17-1.8c.88-1.05,1.91-2.22,3.11-3.48l3.64-3.86q1.95-2.06,4-4.11l3.91-4c1.26-1.31,2.46-2.45,3.59-3.44l4.75-8.23a12.57,12.57,0,0,0,.1-1.74,4.05,4.05,0,0,0-.31-1.69,1.62,1.62,0,0,0-1.11-.9A3.2,3.2,0,0,0,804.56,173Z"/><path class="cls-3" d="M676,145.42a19.42,19.42,0,0,1,3.43,13.3,40.93,40.93,0,0,1-4.7,15.09A75.76,75.76,0,0,1,664.06,189a103.54,103.54,0,0,1-14.52,13.51,95.55,95.55,0,0,1-16.2,10.08,50.91,50.91,0,0,1-15.73,5,23,23,0,0,1-13.2-1.84q-5.8-2.81-8.44-10.4-2.22,3.38-4.38,6.6t-4.17,6.59c-.64.57-1.36.48-2.17-.26a10.6,10.6,0,0,1-2.16-2.9,17.54,17.54,0,0,1-1.48-3.86,5.2,5.2,0,0,1-.1-3.11q2.54-4.11,5.43-8.29t6.07-8.6a27.67,27.67,0,0,1-9.29-1.37,47.67,47.67,0,0,1-6.33-2.48,11.87,11.87,0,0,1-3.85-2.91,9.82,9.82,0,0,1-2-4.22,38.63,38.63,0,0,1-.79-6.44q-.42-6.33,4.7-13.3A55.58,55.58,0,0,1,590,147.69a102.34,102.34,0,0,1,22.54-10.77,122,122,0,0,1,28.77-6.07,48.25,48.25,0,0,1,12.19.26,37,37,0,0,1,9.61,2.85,28.33,28.33,0,0,1,7.33,4.91A38.48,38.48,0,0,1,676,145.42Zm-77.8,39.37q7.9-10.75,16.36-21.43T630,142a146.4,146.4,0,0,0-17.68,6.65,149.49,149.49,0,0,0-16.36,8.55,86,86,0,0,0-12.62,9.18q-5.17,4.65-6.54,8.56a7.7,7.7,0,0,0-.43,4.59,6,6,0,0,0,2.06,3.06,10.79,10.79,0,0,0,3.75,1.85,24.79,24.79,0,0,0,4.59.84,35.29,35.29,0,0,0,4.7.11c1.55-.07,2.88-.18,4-.32Zm53-28.29a9.48,9.48,0,0,1-.63,6.12,22.48,22.48,0,0,1-4.44,6.55,49.4,49.4,0,0,1-7.44,6.39,87.87,87.87,0,0,1-9.55,5.86,102.86,102.86,0,0,1-10.88,5A78.81,78.81,0,0,1,607,189.86q-2.12,3.06-4.28,6.07c-1.44,2-2.87,4-4.27,5.86a20.74,20.74,0,0,0,12,5.54A31.74,31.74,0,0,0,624,205.64a56.11,56.11,0,0,0,13.88-7.12,87.39,87.39,0,0,0,12.77-10.82,89.81,89.81,0,0,0,10.45-12.88,57.13,57.13,0,0,0,6.71-13.2,27.64,27.64,0,0,0,1.58-11.82,12.22,12.22,0,0,0-4.8-8.71q-3.6-2.75-9.87-3.06a57.39,57.39,0,0,0-14.1,1.26,8.23,8.23,0,0,1,.43,1.69,2.54,2.54,0,0,1-.22,1.48q-5.8,9.09-12.72,18.63t-14.19,19.38A105.78,105.78,0,0,0,634,170.23,110.29,110.29,0,0,0,651.18,156.5Z"/><path class="cls-3" d="M707.34,172.76a20.17,20.17,0,0,1-3.75,8,39.19,39.19,0,0,1-7,7.23,52,52,0,0,1-8.92,5.81,48.85,48.85,0,0,1-9.45,3.75c-.49,1.62-.86,3-1.1,4.11a5.11,5.11,0,0,0,0,2.85q.74,5.28,9.08,2.54a35.63,35.63,0,0,0,11.13-5.86,91.48,91.48,0,0,0,9.87-8.87q4.75-4.91,9.29-10.4c3-3.65,6.16-7.18,9.4-10.55a2.1,2.1,0,0,1,1.42-.74,1.71,1.71,0,0,1,1.17.42,2.09,2.09,0,0,1,.63,1.06,1.55,1.55,0,0,1-.26,1.26q-3.6,3.92-7.24,8.24t-7.33,8.6q-3.7,4.28-7.39,8.23a97.49,97.49,0,0,1-7.29,7.08,47.06,47.06,0,0,1-7.12,5.17,18.3,18.3,0,0,1-6.92,2.48,14.68,14.68,0,0,1-6.38-.58,20.44,20.44,0,0,1-5.86-2.9,19.09,19.09,0,0,1-4.44-4.44,9.29,9.29,0,0,1-1.26-9.92,40,40,0,0,1,3-6.28,63.39,63.39,0,0,1,4.54-6.81q2.64-3.48,5.49-6.6a58.67,58.67,0,0,1,5.86-5.59,26.69,26.69,0,0,1,5.75-3.75,7.57,7.57,0,0,1,4.81-.58,18.87,18.87,0,0,1,5.06,1.64,13.53,13.53,0,0,1,3.91,2.74Q707.55,171.71,707.34,172.76Zm-5.49-.74a18.76,18.76,0,0,0-4.33,2.69c-1.9,1.45-3.92,3.13-6.07,5.07a77.78,77.78,0,0,0-6.23,6.33,37.68,37.68,0,0,0-4.69,6.5q2.41-1.06,4-1.8c1-.49,1.9-1,2.63-1.42a17.74,17.74,0,0,0,2.06-1.48c.64-.53,1.41-1.15,2.33-1.85a22.54,22.54,0,0,0,1.84-1.85c.81-.88,1.66-1.86,2.54-3l2.69-3.33a32.81,32.81,0,0,0,2.27-3.11,21.83,21.83,0,0,0,1.26-2.22C702.36,172.07,702.27,171.88,701.85,172Z"/><path class="cls-3" d="M737.64,156.71a1.55,1.55,0,0,1,1.74.32,8.56,8.56,0,0,1,1.84,1.9,8.71,8.71,0,0,1,1.27,2.43,1.94,1.94,0,0,1-.1,1.9,15.91,15.91,0,0,0-5.92,6.23,23.49,23.49,0,0,0-2.16,7.44,52.91,52.91,0,0,0-.32,8.23,56.52,56.52,0,0,1-.31,8.45,29.58,29.58,0,0,1-2.17,8.18,19,19,0,0,1-5.91,7.39,24.68,24.68,0,0,1-16.52,5.75,18.12,18.12,0,0,1-6.76-1.47,7.92,7.92,0,0,1-4-3.33,6.22,6.22,0,0,1-.64-4,14.31,14.31,0,0,1,1.48-4.59,15.32,15.32,0,0,1,3-4,9.43,9.43,0,0,1,3.9-2.37,7.09,7.09,0,0,1,4.8.16,26,26,0,0,1,4,2.27,10.65,10.65,0,0,0-7.6,5.22,7.75,7.75,0,0,0-1,3.43,4.22,4.22,0,0,0,.69,2.7,2.65,2.65,0,0,0,2.27,1,6.65,6.65,0,0,0,3.74-1.69,16.52,16.52,0,0,0,5.86-7.71,44.38,44.38,0,0,0,2.27-9.55q.63-5,1.11-10a26.83,26.83,0,0,1,2.38-9,55.66,55.66,0,0,1,4.53-7.18A40.52,40.52,0,0,1,737.64,156.71Z"/><path class="cls-3" d="M762.55,167.69c.28-.42,1.16-.6,2.64-.53a24.66,24.66,0,0,1,4.59.69,30.31,30.31,0,0,1,4.17,1.32c1.2.49,1.65,1,1.37,1.37a166.56,166.56,0,0,0-12.82,16.63,102.88,102.88,0,0,0-9.77,18.42c-.77,1.69-.72,2.52.16,2.48a8.39,8.39,0,0,0,3.54-1.32,43.21,43.21,0,0,0,4.64-3.11q2.43-1.84,3.7-2.91,3.59-3.27,7.33-7.12t7.44-7.92q3.71-4.06,7.18-8.07t6.65-7.71a3,3,0,0,1,2.8-.27c.88.39,1,1,.48,1.85q-5.17,5.7-10.45,12.46t-10.56,12.88a121.49,121.49,0,0,1-10.35,10.71,24.48,24.48,0,0,1-9.71,5.86q-8.24-.32-11.82-2.53t-3.06-5.28a40.16,40.16,0,0,1,3.16-9.4,96.44,96.44,0,0,1,5.44-10q3.12-5,6.6-9.77T762.55,167.69Zm17.21-23.75a3.82,3.82,0,0,1,3.11.05,20.11,20.11,0,0,1,4.06,1.9,19,19,0,0,1,3.38,2.54c.92.88,1.27,1.53,1.06,1.95-1.9,1.48-3.49,2.76-4.75,3.85l-3.54,3.06q-1.64,1.43-3.38,2.91t-4.27,3.59a2.71,2.71,0,0,1-2,.31,6,6,0,0,1-2.11-.79,4.68,4.68,0,0,1-1.48-1.37,1.41,1.41,0,0,1,0-1.64c.35-.7.83-1.67,1.43-2.9s1.3-2.59,2.11-4.07,1.74-3,2.8-4.64A43.24,43.24,0,0,1,779.76,143.94Z"/><path class="cls-3" d="M861.25,182.79a32,32,0,0,0,3.27-5.81c.43-1.19.37-1.81-.15-1.85a5.92,5.92,0,0,0-2.8,1.32,50.48,50.48,0,0,0-4.65,3.7c-1.76,1.55-3.64,3.32-5.64,5.33s-3.93,4-5.76,6.07q-4.42,5.38-8.55,11t-7.39,10.66c-.21.35-.77.35-1.69,0a15.6,15.6,0,0,1-2.85-1.48,15,15,0,0,1-2.58-2.06c-.74-.73-1.08-1.28-1-1.63a110,110,0,0,1,4.12-13.41,87.23,87.23,0,0,1,4.7-10.24,76.39,76.39,0,0,1,5.12-8.18q2.64-3.65,5.38-7.23a3,3,0,0,1,2.27-.63,17.31,17.31,0,0,1,3.54.37,10.1,10.1,0,0,1,3.06,1.1c.84.5,1.12,1,.84,1.48-1.33,1.9-2.78,4-4.32,6.39s-3,4.64-4.28,6.86-2.39,4.19-3.27,5.91a10.39,10.39,0,0,0-1.32,3.43,24.44,24.44,0,0,1,2.8-3.8q2.05-2.43,4.75-5.28c1.79-1.9,3.71-3.81,5.75-5.75s4-3.69,6-5.28a64.65,64.65,0,0,1,5.33-4,9.57,9.57,0,0,1,7.87-1.63,19.44,19.44,0,0,1,4.8,1.58,14.92,14.92,0,0,1,4,2.69,4.21,4.21,0,0,1,1.53,3.27l-4.8,6.18q-2.16,2.81-4.22,5.65t-4.17,5.91q-2.11,3.06-4.54,6.76a14.78,14.78,0,0,0-1.64,3.69,10.22,10.22,0,0,0-.58,3.64c.07,1,.53,1.41,1.37,1.38s2.25-1,4.22-3q3.71-3.49,7.87-8.08t8.23-9.5q4.07-4.91,7.71-9.76t6.39-8.87a2,2,0,0,1,1.32-.74,3.15,3.15,0,0,1,1.42.1,1.74,1.74,0,0,1,1,.74,1,1,0,0,1-.1,1.16q-2.85,4-7.08,9.66t-8.86,11.62q-4.65,6-9.24,11.4t-8.29,9a4.8,4.8,0,0,1-1.69.74,21.86,21.86,0,0,1-3.22.69,27.76,27.76,0,0,1-3.8.26,10,10,0,0,1-3.43-.53,5.24,5.24,0,0,1-2.37-2,11.42,11.42,0,0,1-1.38-3,14.62,14.62,0,0,1-.58-3.16,10.29,10.29,0,0,1,.11-2.64,21.34,21.34,0,0,1,1.42-5.12,30.91,30.91,0,0,1,2.54-4.75q1.53-2.38,3.48-4.86T861.25,182.79Z"/></g></g></svg>