<?xml version="1.0" encoding="utf-8"?>
<!-- Generator: Adobe Illustrator 24.1.0, SVG Export Plug-In . SVG Version: 6.00 Build 0)  -->
<svg version="1.1" id="Layer_1" xmlns="http://www.w3.org/2000/svg" xmlns:xlink="http://www.w3.org/1999/xlink" x="0px" y="0px"
	 viewBox="0 0 930.7 320.4" style="enable-background:new 0 0 930.7 320.4;" xml:space="preserve">
<style type="text/css">
	.st0{fill:#1D1D1B;stroke:#1D1D1B;stroke-width:4;stroke-miterlimit:10;}
	.st1{fill:none;}
</style>
<g id="Layer_2_1_">
	<g id="Layer_1-2">
		<path class="st0" d="M49.3,258.5H23V61.9h26.3V258.5z M109.8,258.5H83.5l-32.8-96.1v-1.6l27.4-98.8h24.1l-27.7,97.7L109.8,258.5z"
			/>
		<path class="st0" d="M159.8,258.5h-26.3V95.6c0-22.4,10.5-33.7,31.5-33.7h19.7c21,0,31.5,11.2,31.5,33.7v162.9h-26.3v-72h-30.1
			V258.5z M189.9,162.7V97.2c0-7.7-3.8-11.5-11.5-11.5h-7.1c-7.7,0-11.5,3.8-11.5,11.5v65.4L189.9,162.7z"/>
		<path class="st0" d="M244.8,258.5V61.9H271v196.5H244.8z"/>
		<path class="st0" d="M421,61.9v159.3c0,24.8-10.6,37.2-31.8,37.2h-22.2c-21,0-31.5-12.5-31.5-37.5V62h26.3v159.8
			c0,8.6,3.8,12.9,11.5,12.9H384c7.1,0,10.7-4.3,10.7-12.9V61.9H421z"/>
		<path class="st0" d="M500.5,114.8V97.5c0-7.8-3.8-11.8-11.5-11.8h-4.1c-7.5,0-11.2,3.9-11.2,11.8v32.6c0,3.6,0.7,6.1,2.2,7.4
			c2.2,1.8,4.6,3.5,7.1,4.9l24.9,13.4c4,2.2,7.9,4.6,11.6,7.2c2.2,1.7,4.1,3.8,5.3,6.3c1.3,2.5,1.9,7.2,1.9,14.1v41.9
			c0,22.1-10.6,33.1-31.8,33.1h-16.1c-21,0-31.5-12-31.5-36.1v-9.9h26.3v10.7c0,7.7,3.9,11.5,11.8,11.5h4.6
			c6.9,0,10.4-3.8,10.4-11.5v-33.4c0-3.7-0.7-6.1-2.2-7.4c-2.2-1.8-4.6-3.5-7.1-4.9l-24.9-14c-4.2-2.1-8.2-4.6-11.9-7.4
			c-2.5-2-4.3-4.7-5.3-7.8c-1.2-4-1.8-8.2-1.6-12.4V95.6c0-22.4,10.5-33.7,31.5-33.7h16.4c21,0,31.5,11.2,31.5,33.7v19.2H500.5z"/>
		<path class="st0" d="M611.8,258.5v-89.2h-32.3v89.2h-26.3V61.9h26.3v83.5h32.3V61.9h26.3v196.5H611.8z"/>
		<path class="st0" d="M667.2,258.5V61.9h65.1v23.8h-38.9v59.7H728v23.8h-34.5v65.4h38.9v23.8H667.2z"/>
		<path class="st0" d="M755.8,61.9h51.5c20.1,0,30.1,11.2,30.1,33.7V144c0,17.2-5.2,28-15.6,32.6l18.3,81.8h-24.9L797.9,179h-15.9
			v79.4h-26.3V61.9z M782.1,156.6h17.2c7.9,0,11.8-4.7,11.8-14.2V100c0-9.5-3.9-14.2-11.8-14.2h-17.2L782.1,156.6z"/>
		<rect class="st1" width="930.7" height="320.4"/>
	</g>
</g>
</svg>
