<svg xmlns="http://www.w3.org/2000/svg" xmlns:xlink="http://www.w3.org/1999/xlink" viewBox="0 0 346.49 185.2"><defs><style>.cls-1,.cls-10{fill:none;}.cls-2{clip-path:url(#clip-path);}.cls-3{font-size:12px;}.cls-3,.cls-6{fill:#1d1d1b;}.cls-11,.cls-3,.cls-6{font-family:Courier;}.cls-4{letter-spacing:-0.01em;}.cls-5{letter-spacing:-0.01em;}.cls-11,.cls-6{font-size:10px;}.cls-7{fill:red;}.cls-8{fill:#b4c709;}.cls-9{fill:#b5c708;}.cls-10{stroke:#575757;stroke-miterlimit:10;}.cls-11{fill:#1c1c1c;}</style><clipPath id="clip-path"><rect class="cls-1" x="0.43" width="345.07" height="185.2"/></clipPath></defs><title>avg_com_time</title><g id="Layer_2" data-name="Layer 2"><g id="Layer_1-2" data-name="Layer 1"><g class="cls-2"><text class="cls-3" transform="translate(9.47 174.27) rotate(-90)">Avg.<tspan class="cls-4" x="28.8" y="0"> </tspan><tspan x="35.93" y="0">completion</tspan><tspan class="cls-5" x="107.95" y="0"> </tspan><tspan x="115.07" y="0">time(s)</tspan></text></g><text class="cls-6" transform="translate(28.26 84.97) rotate(-90)"><tspan xml:space="preserve">Original [  ]</tspan></text><rect class="cls-7" x="20.72" y="13.36" width="11.41" height="11.41"/><text class="cls-6" transform="translate(28.26 175.9) rotate(-90)"><tspan xml:space="preserve">Redesign [  ]</tspan></text><rect class="cls-8" x="20.72" y="103.79" width="11.41" height="11.41"/><rect class="cls-9" x="61.64" y="155.62" width="13.67" height="21.94"/><rect class="cls-7" x="61.64" y="133.68" width="98.64" height="21.94"/><rect class="cls-9" x="61.64" y="92.6" width="28.32" height="22.38"/><rect class="cls-7" x="61.64" y="70.66" width="147.47" height="21.94"/><rect class="cls-9" x="61.64" y="30.46" width="16.6" height="21.94"/><rect class="cls-7" x="61.64" y="8.51" width="263.69" height="21.94"/><g class="cls-2"><line class="cls-10" x1="61.79" y1="185.2" x2="61.79"/></g><text class="cls-11" transform="translate(57.95 47.53) rotate(-90)">TASK </text><text class="cls-11" transform="translate(57.95 17.55) rotate(-90)">1</text><text class="cls-11" transform="translate(81.01 44.43)">9</text><text class="cls-11" transform="translate(211.91 84.73)">76</text><g class="cls-2"><text class="cls-11" transform="translate(328.49 22.79)">135</text></g><text class="cls-11" transform="translate(92.74 107.21)">14</text><text class="cls-11" transform="translate(162.89 147.74)">50</text><text class="cls-11" transform="translate(78.02 170.12)">7</text><text class="cls-11" transform="translate(57.95 110.64) rotate(-90)">TASK </text><text class="cls-11" transform="translate(57.95 80.66) rotate(-90)">2</text><text class="cls-11" transform="translate(57.95 173.77) rotate(-90)">TASK </text><text class="cls-11" transform="translate(57.95 143.79) rotate(-90)">3</text><text class="cls-6" transform="translate(90.32 43.78)">(15x faster than original)</text><text class="cls-6" transform="translate(108.04 106.57)">(5.4x faster than original)</text><text class="cls-6" transform="translate(86.78 169.72)">(7.1x faster than original)</text></g></g></svg>