<svg xmlns="http://www.w3.org/2000/svg" viewBox="0 0 327.12 214.82"><defs><style>.cls-1{font-size:12px;fill:#1d1d1b;}.cls-1,.cls-2,.cls-7{font-family:Courier;}.cls-2,.cls-7{font-size:10px;}.cls-2{fill:#1c1c1c;}.cls-3,.cls-5{fill:none;stroke-linejoin:round;stroke-width:0.56px;}.cls-3{stroke:#d9d9d9;}.cls-4{fill:#b5c708;}.cls-5{stroke:#3d3d3b;}.cls-6{fill:#ed7d30;}.cls-7{fill:#fff;}</style></defs><title>task2_graph</title><g id="Layer_2" data-name="Layer 2"><g id="Layer_1-2" data-name="Layer 1"><text class="cls-1" transform="translate(152.58 209.91)">TASK 2</text><text class="cls-2" transform="translate(29.76 193.75)">P1</text><text class="cls-2" transform="translate(6 165.6)">20</text><text class="cls-2" transform="translate(6 123.96)">60</text><text class="cls-2" transform="translate(6 144.78)">40</text><text class="cls-2" transform="translate(6 103.14)">80</text><text class="cls-2" transform="translate(0 61.5)">120</text><text class="cls-2" transform="translate(0 82.32)">100</text><text class="cls-2" transform="translate(0 40.68)">140</text><text class="cls-2" transform="translate(0 19.87)">160</text><text class="cls-2" transform="translate(54.91 193.74)">P2</text><text class="cls-2" transform="translate(80.06 193.74)">P3</text><text class="cls-2" transform="translate(105.23 193.74)">P4</text><text class="cls-2" transform="translate(130.64 193.74)">P5</text><text class="cls-2" transform="translate(155.79 193.74)">P6</text><text class="cls-2" transform="translate(180.94 193.74)">P7</text><line class="cls-3" x1="20.98" y1="163.05" x2="327.12" y2="163.05"/><line class="cls-3" x1="20.98" y1="79.47" x2="327.12" y2="79.47"/><line class="cls-3" x1="20.98" y1="121.26" x2="327.12" y2="121.26"/><line class="cls-3" x1="20.98" y1="142.15" x2="327.12" y2="142.15"/><line class="cls-3" x1="20.98" y1="100.37" x2="327.12" y2="100.37"/><line class="cls-3" x1="20.98" y1="58.58" x2="327.12" y2="58.58"/><line class="cls-3" x1="20.98" y1="37.68" x2="327.12" y2="37.68"/><line class="cls-3" x1="20.98" y1="16.79" x2="327.12" y2="16.79"/><rect class="cls-4" x="27.28" y="73.3" width="16.95" height="110.64"/><rect class="cls-4" x="52.43" y="135.08" width="16.95" height="48.86"/><rect class="cls-4" x="77.59" y="144.78" width="16.95" height="39.16"/><rect class="cls-4" x="102.74" y="85.29" width="16.95" height="98.65"/><rect class="cls-4" x="128.43" y="24.23" width="16.4" height="159.71"/><rect class="cls-4" x="153.58" y="157.43" width="16.4" height="26.51"/><rect class="cls-4" x="178.74" y="130.86" width="16.4" height="53.08"/><text class="cls-2" transform="translate(206.09 193.74)">P8</text><rect class="cls-4" x="203.89" y="142.15" width="16.4" height="41.79"/><text class="cls-2" transform="translate(231.24 193.74)">P9</text><rect class="cls-4" x="229.04" y="125.72" width="16.4" height="58.22"/><text class="cls-2" transform="translate(254.19 193.74)">P10</text><rect class="cls-4" x="254.19" y="37.68" width="16.4" height="146.26"/><text class="cls-2" transform="translate(279.72 193.74)">P11</text><rect class="cls-4" x="279.34" y="58.89" width="16.4" height="125.06"/><text class="cls-2" transform="translate(304.49 193.74)">P12</text><rect class="cls-4" x="304.49" y="142.15" width="16.4" height="41.79"/><line class="cls-5" x1="20.98" y1="183.94" x2="327.12" y2="183.94"/><rect class="cls-6" x="203.89" y="119" width="16.4" height="23.15"/><text class="cls-7" transform="translate(208.89 134.15)">7</text><rect class="cls-6" x="178.74" y="112.23" width="16.4" height="18.64"/><text class="cls-7" transform="translate(184.11 124.33)">5</text><rect class="cls-6" x="102.74" y="69.12" width="16.95" height="16.18"/><text class="cls-7" transform="translate(108.35 80.24)">4</text><rect class="cls-6" x="153.58" y="144.66" width="16.4" height="12.77"/><text class="cls-7" transform="translate(158.96 154.39)">2</text><rect class="cls-6" x="229.04" y="115.02" width="16.4" height="10.7"/><text class="cls-7" transform="translate(234.54 123.45)">1</text><rect class="cls-6" x="27.28" y="50.15" width="16.95" height="23.15"/><text class="cls-7" transform="translate(32.69 65.3)">7</text><rect class="cls-6" x="52.43" y="116.45" width="16.95" height="18.64"/><text class="cls-7" transform="translate(58.14 128.55)">5</text><rect class="cls-6" x="279.34" y="48.18" width="16.4" height="10.7"/><text class="cls-7" transform="translate(284.85 56.61)">1</text><rect class="cls-6" x="128.43" width="16.4" height="24.23"/><text class="cls-7" transform="translate(133.77 14.79)">8</text><rect class="cls-6" x="254.19" y="11.71" width="16.4" height="25.97"/><text class="cls-7" transform="translate(259.52 26.97)">9</text></g></g></svg>