<svg xmlns="http://www.w3.org/2000/svg" viewBox="0 0 195.65 182.02"><defs><style>.cls-1{font-size:12px;fill:#1d1d1b;}.cls-1,.cls-2{font-family:Courier;}.cls-2{font-size:10px;fill:#1c1c1c;}.cls-3,.cls-5{fill:none;stroke-linejoin:round;stroke-width:0.43px;}.cls-3{stroke:#d9d9d9;}.cls-4{fill:#b5c708;}.cls-5{stroke:#3d3d3b;}</style></defs><title>task1_results</title><g id="Layer_2" data-name="Layer 2"><g id="Layer_1-2" data-name="Layer 1"><text class="cls-1" transform="translate(82.55 177.11)">TASK 1</text><text class="cls-2" transform="translate(22.06 160.95)">P1</text><text class="cls-2" transform="translate(6 135.47)">2</text><text class="cls-2" transform="translate(6 99.02)">6</text><text class="cls-2" transform="translate(6 117.25)">4</text><text class="cls-2" transform="translate(6 80.8)">8</text><text class="cls-2" transform="translate(0 44.35)">12</text><text class="cls-2" transform="translate(0 62.57)">10</text><text class="cls-2" transform="translate(0 26.12)">14</text><text class="cls-2" transform="translate(0 7.89)">16</text><text class="cls-2" transform="translate(47.21 160.95)">P2</text><text class="cls-2" transform="translate(72.36 160.95)">P3</text><text class="cls-2" transform="translate(97.53 160.95)">P4</text><text class="cls-2" transform="translate(122.94 160.95)">P5</text><text class="cls-2" transform="translate(148.09 160.95)">P6</text><text class="cls-2" transform="translate(173.24 160.95)">P7</text><path class="cls-3" d="M13.28,132.86H195.65M13.28,23.17H195.65M13.28,59.73H195.65M13.28,96.3H195.65M13.28,114.58H195.65M13.28,78H195.65M13.28,41.45H195.65M13.28,4.88H195.65"/><rect class="cls-4" x="19.59" y="47.32" width="16.95" height="103.83"/><rect class="cls-4" x="44.74" y="80.79" width="16.95" height="70.35"/><rect class="cls-4" x="69.89" y="13.08" width="16.95" height="138.07"/><rect class="cls-4" x="95.04" y="72.34" width="16.95" height="78.81"/><rect class="cls-4" x="120.74" y="102.95" width="16.4" height="48.19"/><rect class="cls-4" x="145.89" y="104.93" width="16.4" height="46.21"/><rect class="cls-4" x="171.04" y="91.27" width="16.4" height="59.87"/><line class="cls-5" x1="13.28" y1="151.14" x2="195.65" y2="151.14"/></g></g></svg>