<svg xmlns="http://www.w3.org/2000/svg" viewBox="0 0 327.12 182.03"><defs><style>.cls-1{font-size:12px;fill:#1d1d1b;}.cls-1,.cls-2,.cls-7{font-family:Courier;}.cls-2,.cls-7{font-size:10px;}.cls-2{fill:#1c1c1c;}.cls-3,.cls-5{fill:none;stroke-linejoin:round;stroke-width:0.56px;}.cls-3{stroke:#d9d9d9;}.cls-4{fill:#b5c708;}.cls-5{stroke:#3d3d3b;}.cls-6{fill:#ed7d30;}.cls-7{fill:#fff;}</style></defs><title>task1_graph</title><g id="Layer_2" data-name="Layer 2"><g id="Layer_1-2" data-name="Layer 1"><text class="cls-1" transform="translate(152.58 177.12)">TASK 1</text><text class="cls-2" transform="translate(29.76 160.96)">P1</text><text class="cls-2" transform="translate(6 132.81)">50</text><text class="cls-2" transform="translate(0 91.17)">150</text><text class="cls-2" transform="translate(0 111.99)">100</text><text class="cls-2" transform="translate(0 70.35)">200</text><text class="cls-2" transform="translate(0 28.71)">300</text><text class="cls-2" transform="translate(0 49.53)">250</text><text class="cls-2" transform="translate(0 7.89)">350</text><text class="cls-2" transform="translate(54.91 160.95)">P2</text><text class="cls-2" transform="translate(80.06 160.95)">P3</text><text class="cls-2" transform="translate(105.23 160.95)">P4</text><text class="cls-2" transform="translate(130.64 160.95)">P5</text><text class="cls-2" transform="translate(155.79 160.95)">P6</text><text class="cls-2" transform="translate(180.94 160.95)">P7</text><path class="cls-3" d="M21,130.26H327.12M21,46.68H327.12M21,88.47H327.12M21,109.36H327.12M21,67.58H327.12M21,25.79H327.12M21,4.89H327.12"/><rect class="cls-4" x="27.28" y="77.31" width="16.95" height="73.84"/><rect class="cls-4" x="52.43" y="106.1" width="16.95" height="45.05"/><rect class="cls-4" x="77.59" y="88.47" width="16.95" height="62.68"/><rect class="cls-4" x="102.74" y="119.81" width="16.95" height="31.34"/><rect class="cls-4" x="128.43" y="114.23" width="16.4" height="36.92"/><rect class="cls-4" x="153.58" y="40.85" width="16.4" height="110.3"/><rect class="cls-4" x="178.74" y="136.62" width="16.4" height="14.53"/><text class="cls-2" transform="translate(206.09 160.95)">P8</text><rect class="cls-4" x="203.89" y="98.14" width="16.4" height="53.01"/><text class="cls-2" transform="translate(231.24 160.95)">P9</text><rect class="cls-4" x="229.04" y="62.41" width="16.4" height="88.74"/><text class="cls-2" transform="translate(254.19 160.95)">P10</text><rect class="cls-4" x="254.19" y="96" width="16.4" height="55.15"/><text class="cls-2" transform="translate(279.72 160.95)">P11</text><rect class="cls-4" x="279.34" y="91.17" width="16.4" height="59.98"/><text class="cls-2" transform="translate(304.49 160.95)">P12</text><rect class="cls-4" x="304.49" y="80.64" width="16.4" height="70.52"/><line class="cls-5" x1="20.98" y1="151.15" x2="327.12" y2="151.15"/><rect class="cls-6" x="153.58" y="11.58" width="16.4" height="29.27"/><text class="cls-7" transform="translate(155.79 28.83)">10</text><rect class="cls-6" x="52.43" y="82.95" width="16.95" height="23.15"/><text class="cls-7" transform="translate(57.84 98.1)">7</text><rect class="cls-6" x="254.19" y="74.86" width="16.4" height="21.14"/><text class="cls-7" transform="translate(259.34 88.47)">6</text><rect class="cls-6" x="304.49" y="59.5" width="16.4" height="21.14"/><text class="cls-7" transform="translate(309.64 73.1)">6</text><rect class="cls-6" x="27.28" y="58.68" width="16.95" height="18.64"/><text class="cls-7" transform="translate(32.79 70.35)">5</text><rect class="cls-6" x="203.89" y="79.5" width="16.4" height="18.64"/><text class="cls-7" transform="translate(209.39 91.44)">5</text><rect class="cls-6" x="229.04" y="43.78" width="16.4" height="18.64"/><text class="cls-7" transform="translate(234.54 55.72)">5</text><rect class="cls-6" x="102.74" y="105.15" width="16.95" height="14.66"/><text class="cls-7" transform="translate(108.35 115.44)">3</text><rect class="cls-6" x="178.74" y="121.97" width="16.4" height="14.66"/><text class="cls-7" transform="translate(184.11 132.31)">3</text><rect class="cls-6" x="279.34" y="76.52" width="16.4" height="14.66"/><text class="cls-7" transform="translate(284.72 86.99)">3</text><rect class="cls-6" x="77.59" y="77.77" width="16.95" height="10.7"/><text class="cls-7" transform="translate(83.2 86.19)">1</text><rect class="cls-6" x="128.43" y="103.53" width="16.4" height="10.7"/><text class="cls-7" transform="translate(133.77 111.96)">1</text></g></g></svg>