<svg xmlns="http://www.w3.org/2000/svg" viewBox="0 0 327.12 182.03"><defs><style>.cls-1{font-size:12px;fill:#1d1d1b;}.cls-1,.cls-2,.cls-7{font-family:Courier;}.cls-2,.cls-7{font-size:10px;}.cls-2{fill:#1c1c1c;}.cls-3,.cls-5{fill:none;stroke-linejoin:round;stroke-width:0.56px;}.cls-3{stroke:#d9d9d9;}.cls-4{fill:#b5c708;}.cls-5{stroke:#3d3d3b;}.cls-6{fill:#ed7d30;}.cls-7{fill:#fff;}</style></defs><title>task3_graph</title><g id="Layer_2" data-name="Layer 2"><g id="Layer_1-2" data-name="Layer 1"><text class="cls-1" transform="translate(152.58 177.12)">TASK 3</text><text class="cls-2" transform="translate(29.76 160.96)">P1</text><text class="cls-2" transform="translate(6 125.11)">50</text><text class="cls-2" transform="translate(0 66.5)">150</text><text class="cls-2" transform="translate(0 95.81)">100</text><text class="cls-2" transform="translate(0 37.2)">200</text><text class="cls-2" transform="translate(0 7.89)">250</text><text class="cls-2" transform="translate(54.91 160.95)">P2</text><text class="cls-2" transform="translate(80.06 160.95)">P3</text><text class="cls-2" transform="translate(105.23 160.95)">P4</text><text class="cls-2" transform="translate(130.64 160.95)">P5</text><text class="cls-2" transform="translate(155.79 160.95)">P6</text><text class="cls-2" transform="translate(180.94 160.95)">P7</text><line class="cls-3" x1="20.98" y1="122.03" x2="327.12" y2="122.03"/><line class="cls-3" x1="20.98" y1="92.75" x2="327.12" y2="92.75"/><line class="cls-3" x1="20.98" y1="63.46" x2="327.12" y2="63.46"/><line class="cls-3" x1="20.98" y1="34.18" x2="327.12" y2="34.18"/><line class="cls-3" x1="20.98" y1="4.89" x2="327.12" y2="4.89"/><rect class="cls-4" x="27.28" y="132.69" width="16.95" height="18.46"/><rect class="cls-4" x="52.43" y="130.74" width="16.95" height="20.41"/><rect class="cls-4" x="77.59" y="139.85" width="16.95" height="11.3"/><rect class="cls-4" x="102.74" y="140.95" width="16.95" height="10.2"/><rect class="cls-4" x="128.43" y="37.2" width="16.4" height="113.95"/><rect class="cls-4" x="153.58" y="129.98" width="16.4" height="21.18"/><rect class="cls-4" x="178.74" y="80.64" width="16.4" height="70.52"/><text class="cls-2" transform="translate(206.09 160.95)">P8</text><rect class="cls-4" x="203.89" y="139.85" width="16.4" height="11.3"/><text class="cls-2" transform="translate(231.24 160.95)">P9</text><text class="cls-2" transform="translate(254.19 160.95)">P10</text><rect class="cls-4" x="254.19" y="141.29" width="16.4" height="9.86"/><text class="cls-2" transform="translate(279.72 160.95)">P11</text><rect class="cls-4" x="279.34" y="135.02" width="16.4" height="16.14"/><text class="cls-2" transform="translate(304.49 160.95)">P12</text><rect class="cls-4" x="304.49" y="125.11" width="16.4" height="26.04"/><line class="cls-5" x1="20.98" y1="151.15" x2="327.12" y2="151.15"/><rect class="cls-6" x="128.43" y="2.99" width="16.4" height="34.21"/><text class="cls-7" transform="translate(130.64 22.53)">13</text><rect class="cls-6" x="178.74" y="57.48" width="16.4" height="23.15"/><text class="cls-7" transform="translate(184.11 72.29)">7</text></g></g></svg>