<svg xmlns="http://www.w3.org/2000/svg" viewBox="0 0 195.65 182.03"><defs><style>.cls-1{font-size:12px;fill:#1d1d1b;}.cls-1,.cls-2{font-family:Courier;}.cls-2{font-size:10px;fill:#1c1c1c;}.cls-3,.cls-5{fill:none;stroke-linejoin:round;stroke-width:0.43px;}.cls-3{stroke:#d9d9d9;}.cls-4{fill:#b5c708;}.cls-5{stroke:#3d3d3b;}</style></defs><title>task3_results</title><g id="Layer_2" data-name="Layer 2"><g id="Layer_1-2" data-name="Layer 1"><text class="cls-1" transform="translate(82.55 177.12)">TASK 3</text><text class="cls-2" transform="translate(22.06 160.96)">P1</text><text class="cls-2" transform="translate(6 132.81)">2</text><text class="cls-2" transform="translate(6 91.17)">6</text><text class="cls-2" transform="translate(6 111.99)">4</text><text class="cls-2" transform="translate(6 70.35)">8</text><text class="cls-2" transform="translate(0 28.71)">12</text><text class="cls-2" transform="translate(0 49.53)">10</text><text class="cls-2" transform="translate(0 7.89)">14</text><text class="cls-2" transform="translate(47.21 160.95)">P2</text><text class="cls-2" transform="translate(72.36 160.95)">P3</text><text class="cls-2" transform="translate(97.53 160.95)">P4</text><text class="cls-2" transform="translate(122.94 160.95)">P5</text><text class="cls-2" transform="translate(148.09 160.95)">P6</text><text class="cls-2" transform="translate(173.24 160.95)">P7</text><path class="cls-3" d="M13.28,130.26H195.65M13.28,46.68H195.65M13.28,88.47H195.65M13.28,109.36H195.65M13.28,67.58H195.65M13.28,25.79H195.65M13.28,4.89H195.65"/><rect class="cls-4" x="19.59" y="106.48" width="16.95" height="44.67"/><rect class="cls-4" x="44.74" y="18.43" width="16.95" height="132.73"/><rect class="cls-4" x="69.89" y="77.31" width="16.95" height="73.84"/><rect class="cls-4" x="95.04" y="82.31" width="16.95" height="68.84"/><rect class="cls-4" x="120.74" y="95.7" width="16.4" height="55.45"/><rect class="cls-4" x="145.89" y="52.87" width="16.4" height="98.28"/><rect class="cls-4" x="171.04" y="82.94" width="16.4" height="68.21"/><line class="cls-5" x1="13.28" y1="151.15" x2="195.65" y2="151.15"/></g></g></svg>