<svg xmlns="http://www.w3.org/2000/svg" viewBox="0 0 195.65 182.03"><defs><style>.cls-1{font-size:12px;fill:#1d1d1b;}.cls-1,.cls-2,.cls-7{font-family:Courier;}.cls-2,.cls-7{font-size:10px;}.cls-2{fill:#1c1c1c;}.cls-3,.cls-6{fill:none;stroke-linejoin:round;stroke-width:0.43px;}.cls-3{stroke:#d9d9d9;}.cls-4{fill:#b5c708;}.cls-5{fill:#ed7d30;}.cls-6{stroke:#3d3d3b;}.cls-7{fill:#fff;}</style></defs><title>task2_results</title><g id="Layer_2" data-name="Layer 2"><g id="Layer_1-2" data-name="Layer 1"><text class="cls-1" transform="translate(82.55 177.12)">TASK 2</text><text class="cls-2" transform="translate(22.06 160.96)">P1</text><text class="cls-2" transform="translate(6 124.97)">5</text><text class="cls-2" transform="translate(0 95.7)">10</text><text class="cls-2" transform="translate(0 66.43)">15</text><text class="cls-2" transform="translate(0 37.16)">20</text><text class="cls-2" transform="translate(0 7.89)">25</text><text class="cls-2" transform="translate(47.21 160.95)">P2</text><text class="cls-2" transform="translate(72.36 160.95)">P3</text><text class="cls-2" transform="translate(97.53 160.95)">P4</text><text class="cls-2" transform="translate(122.94 160.95)">P5</text><text class="cls-2" transform="translate(148.09 160.95)">P6</text><text class="cls-2" transform="translate(173.24 160.95)">P7</text><path class="cls-3" d="M13.29,121.9H195.65m-182.36-29H195.65M13.29,63.4H195.65m-182.36-29H195.65M13.29,4.89H195.65"/><rect class="cls-4" x="19.59" y="107.96" width="16.95" height="43.19"/><rect class="cls-4" x="44.74" y="42.89" width="16.95" height="108.26"/><rect class="cls-5" x="44.74" y="31.41" width="16.95" height="11.48"/><rect class="cls-4" x="69.89" y="31.41" width="16.95" height="119.74"/><rect class="cls-5" x="69.89" y="7.9" width="16.95" height="23.51"/><rect class="cls-4" x="95.04" y="94.29" width="16.95" height="56.86"/><rect class="cls-4" x="120.74" y="86.63" width="16.4" height="64.52"/><rect class="cls-5" x="120.74" y="74.61" width="16.4" height="12.03"/><rect class="cls-4" x="145.89" y="37.43" width="16.4" height="113.73"/><rect class="cls-5" x="145.89" y="19.93" width="16.4" height="17.5"/><rect class="cls-4" x="171.04" y="68.04" width="16.4" height="83.11"/><rect class="cls-5" x="171.04" y="44.53" width="16.4" height="23.51"/><line class="cls-6" x1="13.29" y1="151.15" x2="195.65" y2="151.15"/><text class="cls-7" transform="translate(50.21 40.56)">2</text><text class="cls-7" transform="translate(75.36 22.23)">4</text><text class="cls-7" transform="translate(125.94 83.68)">2</text><text class="cls-7" transform="translate(151.09 31.56)">3</text><text class="cls-7" transform="translate(176.24 59.74)">4</text></g></g></svg>