<svg xmlns="http://www.w3.org/2000/svg" viewBox="0 0 1606.34 1060.79"><defs><style>.cls-1{fill:none;}.cls-2{fill:#fff;fill-rule:evenodd;}</style></defs><title>logo_white</title><g id="Layer_2" data-name="Layer 2"><g id="Layer_1-2" data-name="Layer 1"><path class="cls-1" d="M1519.3,309.57a1346.39,1346.39,0,0,1-277.8,3.58,1417.44,1417.44,0,0,1-275.87-52.82,1417.19,1417.19,0,0,1-260.12-106A1345.92,1345.92,0,0,1,474.5,0L0,570.65A2088.59,2088.59,0,0,0,358.35,810.28,2159.16,2159.16,0,0,0,754.79,971.9a2160,2160,0,0,0,420.5,80.44,2088.92,2088.92,0,0,0,431.05-5.74Z"/><path class="cls-2" d="M225.82,332.81c-2.56,5.13-1.77,6.26,1.67,4.19C226.49,336.13,230,329.8,225.82,332.81Z"/><path class="cls-2" d="M237.91,323.76c2-.34-2.42,7,1.67,4.14C239.88,325.48,243.61,318.94,237.91,323.76Z"/><path class="cls-2" d="M227.51,353c-1.3,3.87,1.9,0,4.32.32,1.94-3.54.91-3.43,1.42-5.22C231.06,349.38,229.76,351.69,227.51,353Z"/><path class="cls-2" d="M174.61,486.62l-2.42,6.18c4.1-3.68,2.44,0,5.77-2.69Q181.64,481.52,174.61,486.62Z"/><path class="cls-2" d="M241.91,330.56c-3.31,3-4.45,9-.86,5.87,3.67-4.48.48-2.23,3.4-7.58C242.9,330.55,241.35,332.21,241.91,330.56Z"/><path class="cls-2" d="M177.42,493.91c1.38,1.23-1.81,5.43-3.6,9.32a39.37,39.37,0,0,0,8.69-12.74Z"/><path class="cls-2" d="M235,381.26c-3.8,3.88-2.87,7.86,2.47,2.65C241,377.54,232.35,386.5,235,381.26Z"/><path class="cls-2" d="M182.85,516.8c.19,1,2.68-.07.11,2.25-1.46,3.51,4.25-2.38,5.78-2.8a21.58,21.58,0,0,0-3.33,11.58c7.4-9.86,9.15-6.72,13.34-8-.8-1.34-3.05-.77-.34-6.72-5,6.74-3.59,3.39-7.59,5.24a25.34,25.34,0,0,0,3-5.56c-3.15,2-4.08,1.12-2.76-2.73C188,512,185,514,182.85,516.8Z"/><path class="cls-2" d="M236.18,389.14l-2.54,6.11c1.45-1.74,4.44-4.75,3.77-2.59C240.6,389.73,240.79,384.62,236.18,389.14Z"/><path class="cls-2" d="M266.34,359.57c-.2,2.39,1.74,2.06,5.56-.68C271.64,357,271.14,353.57,266.34,359.57Z"/><path class="cls-2" d="M192.2,572.74c-1.71,4.77,1,5.41,4.67.3C195.61,572.53,195.36,570.65,192.2,572.74Z"/><path class="cls-2" d="M273.58,371.74c.52,1.71-3.18,8.91,3,3.27C276.81,372.35,277.06,369.64,273.58,371.74Z"/><path class="cls-2" d="M247.53,485.23c-.15,3.64,3.76-2.13,7.52-3.14-.2-.78-.36-1.62.49-3.81C249.06,486,252.2,477.68,247.53,485.23Z"/><path class="cls-2" d="M297,365.7c3.38-3.56,1.24-5.85,5-12.22C296.87,358,297.78,362.53,297,365.7Z"/><path class="cls-2" d="M301.37,385.29c1.4.56.83,3.77,4.93.72.15-3.14-1.21-4.24-.07-8.68C303.34,378.67,304.26,383.92,301.37,385.29Z"/><path class="cls-2" d="M238.86,560.59c-5.89,7.31,1.17,3.3,1.09,5.17C244.8,559.88,238.94,562.23,238.86,560.59Z"/><path class="cls-2" d="M259.8,536.75c2.56-5.56-3.59,1.24.2-6a29.45,29.45,0,0,0-7,10C258.32,535.37,255.46,543,259.8,536.75Z"/><path class="cls-2" d="M230.26,628.77c-.66,4.2-.85,7.74,3.31,4.9C232.73,631.65,232.92,628.13,230.26,628.77Z"/><path class="cls-2" d="M346.06,308c-2.76,5.05.1,2.64-1.91,6.7,3.5-2.17,5.19-6.18,6.77-10.37Z"/><path class="cls-2" d="M331.18,346.79c-3.06,6-1.22,5.45-1.22,7.37C333.1,350.78,336.05,341.75,331.18,346.79Z"/><path class="cls-2" d="M349.47,318c-.75,1.48-.12,1.09.59.62-2.26,8.63,4.64,5,3.44,12.23,4.33-2.74,6.5-7.71,10.22-11.07,1.36-5-4.14,3.14-4.76,1.55,1.25-4.33,4.14-6.46,3.06-7.64-5,6.66-5.34,3.11-9,5.83,2.74-5.34,1-4.62,2.5-8.25C352.4,312.4,352.61,317,349.47,318Z"/><path class="cls-2" d="M269.77,562.56c.31-2.21,4.52-3.36,4.4-2.18,5.24-5.89-2.1-.16.78-5.35-3.47,1.63-4.57,5.37-7.14,7.84a27.09,27.09,0,0,0-.57,7.62C271,567.31,270.8,563.31,269.77,562.56Z"/><path class="cls-2" d="M413.05,188c-1.21,3.65-4.64,10.23.74,5.32C413.92,191,416.13,186.07,413.05,188Z"/><path class="cls-2" d="M419.34,179.21c-3.67,3.81-2,5.89.85,3.24C424.7,175.14,418.51,181.74,419.34,179.21Z"/><path class="cls-2" d="M415.49,193c2.85-2.06,4.71-5.2,7.26-7.61.45-1.65-1-.73-.35-2.67A41.25,41.25,0,0,0,415.49,193Z"/><path class="cls-2" d="M275.8,563.93c-5.42,7.71,1.24,5-.32,9.85C282.13,566.27,277.58,564.27,275.8,563.93Z"/><path class="cls-2" d="M466.93,104c-.38,2.24,3.37,0,9.61-4.87C473.54,100.49,473.05,98.63,466.93,104Z"/><path class="cls-2" d="M284.41,583.78c2.77-4.15,4.52-11.14.51-7.67C282.3,580,279.4,588.7,284.41,583.78Z"/><path class="cls-2" d="M405.3,245.83c-2.63,5.73,3.46,5,7-3.52C406.58,248.09,408.15,244,405.3,245.83Z"/><path class="cls-2" d="M367.87,345.43c-4.57,6.88-1.74,9.67,4.24,4.2.58-2.29,2.05-3.66,3.56-5C378.46,337.38,366.61,350.58,367.87,345.43Z"/><path class="cls-2" d="M450.41,157.68c-3.46,7-2.25,7.91,1.22,5.76C449.57,163.7,454.84,154.28,450.41,157.68Z"/><path class="cls-2" d="M288.77,593.76c.33.82.61,1.71-.95,3.19,6.13-3.73,3.16,6.35,9.46,2.35C293.32,597.05,301.39,580.81,288.77,593.76Z"/><path class="cls-2" d="M413.86,263.61c-3.3,6.13,2.69-.55,4.65-1.69-.14-.7-.24-1.47.67-3.61A27.25,27.25,0,0,1,413.86,263.61Z"/><path class="cls-2" d="M298,600c-3.9,3.88.15,2.49-1.87,6.4,4.39-8.45,1.65.55,6.75-4.18,3.54-7.47-5.28,4-1.73-3.51C299.4,600.18,297.66,601.64,298,600Z"/><path class="cls-2" d="M300.77,606.33c1.07,4.07-4.89,14.57.71,10.51.44-6.24,6.15-8,6.78-14.08C302.39,611.73,305,602.6,300.77,606.33Z"/><path class="cls-2" d="M453.17,211.36c.27,2.67,4.79.66,8.14-6.73C457.48,207.49,457.84,206,453.17,211.36Z"/><path class="cls-2" d="M313.44,617.07c-2.24,7.09,2.42,3.41,2.84,6.37-1.14,3.64-3.95,5.89-6.84,8,.44,5.7,8.43-7.32,10.91-2.67,2.71-6.15,1.08-3.71,2.62-9.62-4.71,3.5-.4,2-2.94,7.39C316.93,624.81,319.38,614.33,313.44,617.07Z"/><path class="cls-2" d="M393.34,409.55c-1,4.95,4.26.87,7.76-3.11C400.16,404.48,398.52,403.12,393.34,409.55Z"/><path class="cls-2" d="M434.33,301.14c.77,1.46-.84,2-2.3,6.16,2.52-2.43,4.23-5.67,6.33-8.49C438.8,297,436,299.94,434.33,301.14Z"/><path class="cls-2" d="M451.52,342.38c.57,2.35,1.4,4.34,6.44-.14C455.16,343.43,456.14,336.08,451.52,342.38Z"/><path class="cls-2" d="M532.77,176.75c-1.64,3.95-.08,3.14-.72,5.61,2.62-1.64,2-6.46,4.58-8.08C537.1,172.5,534.35,175.51,532.77,176.75Z"/><path class="cls-2" d="M566.27,95.43c-1.2,4.13,1.76,2.25,6.33-2C570.82,93.72,570.18,90.23,566.27,95.43Z"/><path class="cls-2" d="M459.39,410.23l-1.93,6.29c1.29-1.85,2.59-3.7,2.23-2C462.74,411.06,462.74,406,459.39,410.23Z"/><path class="cls-2" d="M557.73,155.05c-1.66,5.27,2.72,1.47-.88,9.68,2.42-2.5,3.75-6.09,5.64-9.15,2.3-1.69.36,4,4.32-2,.68-2.52-3.8,2.75-.95-3.07C559.44,159,562.79,150.37,557.73,155.05Z"/><path class="cls-2" d="M483.9,385.73c.56.39-.68,3.73.75,2.72,3.24-2.77,5.65-9.23,4.67-10C486.32,379.85,486.9,384.38,483.9,385.73Z"/><path class="cls-2" d="M576,164.76c-4,6.51-1.69,11.54,3.68,3.49C577.82,168.06,574.2,170.61,576,164.76Z"/><path class="cls-2" d="M602.72,117.7c-1.73,4.76-.12,4.39,4.15-.13C605.28,117.93,605.91,114.86,602.72,117.7Z"/><path class="cls-2" d="M576.18,197.82c.26,1.85-1,6.2,2.68,2.54C579,197.85,579.21,195.27,576.18,197.82Z"/><path class="cls-2" d="M579.48,217.31c-.77,2.87,1.88.21,1.11,3.08,1.61-1.88,2.2-4.74,3.18-7.26Z"/><path class="cls-2" d="M586,217.25c-2.15,5.37,1.51,1.25.62,4.58C588.69,219.22,590.4,211.44,586,217.25Z"/><path class="cls-2" d="M523.24,436.26a4.77,4.77,0,0,0,1.52-2.66c1.21-1,.13,2-.18,3.72,1.68-.94,5.72-9.05,5.42-5.31,3.86-3.93-.92-3,2.34-5.84C530.91,426.07,524.94,428.68,523.24,436.26Z"/><path class="cls-2" d="M532.15,429.89c-1.1,3.1.06,2.16,1.33,1.06-.51,2.17-1,4.33-2.34,5.84-.23,1.83,2.36-1.34,3.9-2.67q1.05-4,2.09-8C533.73,430.49,534.93,426.68,532.15,429.89Z"/><path class="cls-2" d="M525.63,461.28c0,2.42,1.8,1.44,4.19-.52C531.57,455.27,528.81,457.92,525.63,461.28Z"/><path class="cls-2" d="M591.15,247.87c.29,2.65,5.69-6.77,6.79-10C596.54,236.6,593.64,244.21,591.15,247.87Z"/><path class="cls-2" d="M598.26,230.15c.18,3.44,0,9.08,6.54-.25C601.78,231.39,605.29,221.92,598.26,230.15Z"/><path class="cls-2" d="M593.92,248.29c1.63-.34,1.21,2.81,4.38-.13-.13-2.21-1.9-1.64-1.28-5.12C595.75,244.58,595.33,246.86,593.92,248.29Z"/><path class="cls-2" d="M585.6,274.93c4.06-.38,2.09,4.55,8.39-10.59C590.49,267.21,588.3,271.31,585.6,274.93Z"/><path class="cls-2" d="M537.22,466.67c-1,4.83.09,5.74,3.4,2.64C540,467.42,540.9,462.91,537.22,466.67Z"/><path class="cls-2" d="M547.54,491.54c7.33-5.21,6.91,3.13,14.39-6.15-2.75-1.49-5.67-2.63-10.45-.32.61-2.07,2.25-3.33,3.56-4.87C555.23,473.68,549.41,484.42,547.54,491.54Z"/><path class="cls-2" d="M610.72,276.6c-.5,4.91,6.35-9.82,5.23-5.42C620.92,262.59,611.94,273.18,610.72,276.6Z"/><path class="cls-2" d="M614.45,273.83c-.1,2.46.95,2.89,4.87-1.79C619.33,269.74,617.64,270.46,614.45,273.83Z"/><path class="cls-2" d="M569.14,492.76c-.46,2.14-.94,4.31-1.41,6.43,1.84-1.74,2.64-4.25,4.54-6C570.89,493.71,571.84,489.73,569.14,492.76Z"/><path class="cls-2" d="M615.85,323.73c2.16-2.79,3.09-6.52,6-8.69C621.26,312.42,614.08,321.1,615.85,323.73Z"/><path class="cls-2" d="M720.25,234c-2.64,9.21,3.21.46,6-4.83C725.35,228.57,722.62,231.69,720.25,234Z"/><path class="cls-2" d="M747.53,260.24c-1.15,6.1,4.43-6.27,3.3.53-1.82,5.68-2.82,2.81-4.7,5.83-.29,4.06,2.6.74,5.88-5-.56-1-.19-2.71,1.41-6.38,4.53-6.1.87,5.44,5.74-1.39-.64-.59-2,.45-.11-5.65-4.89,5.76-5.09,1.76-4.09-3C752.56,250.32,751.54,256.37,747.53,260.24Z"/><path class="cls-2" d="M760,265.61c-.46,2.14-.91,4.26-1.37,6.42,3.45-4.24,2.28-1.54,5.59-7,1.12-5.56-6,5.34-.51-4.05C764.45,257.12,760.7,264.43,760,265.61Z"/><path class="cls-2" d="M761.3,275.78c1.65-3.71,4.35-6.67,6.82-9.82l1-4.79c-1.12,1.6-1.57,1.72-1.51.72-2.41,5.26-1.35,3.88-4,6.3C763.07,270.93,761.72,273,761.3,275.78Z"/><path class="cls-2" d="M763.56,284.79c3.41-4.66,2.42.48,5.52-3.47.14-4.13-4.13,1.54-2-6.89C763.72,280.19,765.88,278.36,763.56,284.79Z"/><path class="cls-2" d="M774.62,274.2a18.16,18.16,0,0,0-4.65,9.55c.57-.11,1.16-.26,2.46-2A35.19,35.19,0,0,0,774.62,274.2Z"/><path class="cls-2" d="M773.65,279c-.44,2.7-1.79,4.83-2.18,7.58,1.52-1.71,2.93-5.8,2.76-3.54,1.35-2.12,1.56-5,2.19-7.61Z"/><path class="cls-2" d="M780.41,269.08c-1.46,2.78-2.92,13.06.53,7.65C781.08,273.44,782.08,268.24,780.41,269.08Z"/><path class="cls-2" d="M791.81,295.12c3-4.82,3-2.71,5.12-5.58,1.57-5.85-1.91.2-.33-5.67C794.42,287.2,792.18,290.54,791.81,295.12Z"/><path class="cls-2" d="M803.06,297.28c-.6,3.94.24,4.45,2.46,1.6l1.12-6.45Z"/><path class="cls-2" d="M808.34,302.47c.54,2.49,1.74,3.37,2.54,5.25,2.36-2.67.78-7.85,3.12-10.49-.16-2-1.57,2-2.65,3.63C810.06,302.09,811.43,296.85,808.34,302.47Z"/><path class="cls-2" d="M818.7,289.56c-.31,3,3-3,2.71,0,2-5.39,1.48-6.64.75-8.46C820.46,283.56,820.65,287.24,818.7,289.56Z"/><path class="cls-2" d="M817.19,315.38c5.13-6.93,3.82,2.19,5.59,3.64,4.7-8,1.58-11.24,3.7-19-3.49,7.86-3.29,8.84-6.4,10.11,1.11-6.95,3.08-11.27,1.23-11.73C817.8,306.29,817.89,308.35,817.19,315.38Z"/><path class="cls-2" d="M824.89,297.2c.55,2.81,3.32.08,3.43,4C829.77,297.17,829.37,289.61,824.89,297.2Z"/><path class="cls-2" d="M834.15,294.3c-.57,3.08.52,1.94-.16,5.28,2.52-3.71,2.59-9,5.35-12.59-.22-1.37-1.37-.41-2.94,1.63C835.88,294,837.24,290.6,834.15,294.3Z"/><path class="cls-2" d="M843.63,298.56c-.87,3.9,0,3.45-.11,5.25,1-3.49,3.09-6.33,3.56-10.2C845,298.78,846,295.05,843.63,298.56Z"/><path class="cls-2" d="M945.41,391c.3,5.55,3.11,2.64,6.34-1.78-.78-3.08-1-8.06-2.2-9.56C947.9,383.28,946.85,387.25,945.41,391Z"/><path class="cls-2" d="M985.9,379.41c-.84,6.38,1.78,0,2,2.6C989.5,378.06,988.21,373.4,985.9,379.41Z"/><path class="cls-2" d="M1018.94,401.6c-1.44,5.89,1.52,7.22,4.11,1.87C1022.2,400.67,1020.29,402.26,1018.94,401.6Z"/><path class="cls-2" d="M1035.4,410.7c2.61-3.47,5.69-2.41,7.57-8.09C1041.41,401.66,1038,402.19,1035.4,410.7Z"/><path class="cls-2" d="M1072.6,410.26c.57,3.95,2.56,1,3.51,3.1C1077.16,408.7,1075.08,403.93,1072.6,410.26Z"/><path class="cls-2" d="M1105.63,442.75c.75-3.45,2.24-6.59,3-10.07-.52-1.29-1.49-.14-2.68,2.17C1106.16,437.62,1105.34,440,1105.63,442.75Z"/><path class="cls-2" d="M1183.68,983.39c3.55,4.83,8.92-8.22,12.45-3.4C1195.28,968.19,1187.85,979.17,1183.68,983.39Z"/><path class="cls-2" d="M1197.07,975.54c1.18,5,3,4,5.2-1.9C1200.74,972.2,1199,972.73,1197.07,975.54Z"/><path class="cls-2" d="M1177.8,431.92a21.38,21.38,0,0,0,.68-7.68c2.39.77,2.91,1.64,6.07-1.09-1.86-4.57-4.2-5.36-7.07-2.41C1178.33,424.74,1177.44,428.12,1177.8,431.92Z"/><path class="cls-2" d="M1186.49,457c.54-4.56,2.76-8.54,2.12-13.5C1187.13,443.15,1186,451.84,1186.49,457Z"/><path class="cls-2" d="M1187,427.1c-.71,2.41-.07,5.29.07,8a30.65,30.65,0,0,0,2.61-8.61C1189.21,423.47,1187.2,432.24,1187,427.1Z"/><path class="cls-2" d="M1275.67,413c1.14,3.06,2.18-3.71,3-7-.63-1.24-1.44.05-2.34,2.5C1276.58,410.09,1276,411.49,1275.67,413Z"/><path class="cls-2" d="M1282.35,394.58c.75,3,2.6-6.35,2.72-8.6C1283.58,385.38,1282.7,389,1282.35,394.58Z"/><path class="cls-2" d="M1288.1,405.35c2.84,4.5,6.23.39,9.4-.64-.28-7.35,1.57-5.52,3.07-10C1296.3,394.41,1293,403,1288.1,405.35Z"/><path class="cls-2" d="M1299.09,402c1.08,4.37,2.75-2.05,4.14-3.58C1302.09,395.15,1300.78,395.28,1299.09,402Z"/><path class="cls-2" d="M1304.64,398.85c1.41.36,2.67,4,4.25,1.09C1308.88,394.76,1306.41,391.4,1304.64,398.85Z"/><path class="cls-2" d="M1308,410.54c1.76.72,2.32,4,3.27,6.92,1.28-6.26,2-6.49,1.43-15.09C1312,412.62,1309.64,405.35,1308,410.54Z"/><path class="cls-2" d="M1314.22,325.68c-.74,6.83,1.82,3.83,2.68.67-.39-4-1-3.27-1.47-5C1314.69,323.49,1314.83,327.84,1314.22,325.68Z"/><path class="cls-2" d="M1328,386a5.39,5.39,0,0,0-.1,3c.19,1.09.39,2.16.58,3.22,1.2-7,4.66-.06,7-9.08a11.32,11.32,0,0,1-.21-4.68c-1.76,3.69-3.38,2.77-5.21,8-1.51-7.89,1-5.28,1.12-12-.63-5.11-2,9.11-2.6,4C1328,380.11,1329.81,389.61,1328,386Z"/><path class="cls-2" d="M1320.39,324.12c2.1,1,4.29.33,6.67-6.06C1324.94,317.55,1322.69,320.36,1320.39,324.12Z"/><path class="cls-2" d="M1337.32,382c1.15-.38.86,10.06,2.54,9.85-.46-6.21,0-9.78,1.75-11.89C1340.3,376.19,1338.8,379.67,1337.32,382Z"/><path class="cls-2" d="M1340.07,372c1.53,3.8,3.32-1.42,5-4.92C1342.77,364.1,1342.24,369.14,1340.07,372Z"/><path class="cls-2" d="M1355.79,373.91c.47-2.48-.83-5.31-.22-7.73-2.3-.89-4.93,14-7.07,4.65C1348.21,387.68,1353.63,367.93,1355.79,373.91Z"/><path class="cls-2" d="M1347.94,364.56c2.33,5,5-4.34,7.47-9.12C1353.09,349.73,1350.48,360.58,1347.94,364.56Z"/><path class="cls-2" d="M1353.93,341.32c-.34,8.14,2.5-.3,3.46-2.31C1356.32,334.59,1355,344.5,1353.93,341.32Z"/><path class="cls-2" d="M1355.14,350.77c1.91,2.41,3.81,7.57,5.9-3.33C1359,354.19,1357.2,343.7,1355.14,350.77Z"/><path class="cls-2" d="M1365,363.63c-2-7.57.51-13.86,1.83-10.32.89,6.12-.87,7.76-1.83,10.32.85,7.49,1.88-2.94,2.75,3.63.74-13.54,5.36-27.86,7.42-33.54-.09-10.84-4.62,7.74-4.85,14.2-.2-9-2.59-2.26-1.64-11-2.62,9.14-4.85,20.41-8.66,34.83C1361.59,376.61,1363.3,371,1365,363.63Z"/><path class="cls-2" d="M1374.44,348.86c-.37,2.46.56,5.18,1,7.83.92-1.06,1.85-6.69,2.77-5.48.13-2.55-.43-5.21.35-7.6-.68-1.58-1.37-1.85-2-3.48C1375.58,344.06,1376.32,353.65,1374.44,348.86Z"/><path class="cls-2" d="M1378.56,362c1.06-.56,3.47-4.12,1.73-10.3C1379,354.91,1379.39,358.56,1378.56,362Z"/><path class="cls-2" d="M1380.63,344.09c-.61,7.19,1.54.88,2.07,6.51.29-5.79-.1-6.09,1.34-8.89C1382.89,336.79,1381.77,344.74,1380.63,344.09Z"/><path class="cls-2" d="M226.74,301.89c1.87-3.2,5.5-4.4,6.65-8.45-2.37,1.67-1.83-.07-4.42,1.85,1.79,3.3-18.69,19.68-3.51,7.44,1.69,3.82,6,4.51,3.61,13.24,5.44-3.84,4.29-1.58,1.07,3.48,1.53-1.26,2.21-3.53,3.91-4.67,3.14-1.18-3.38,4.86-3.43,7.49,4.92-5.32,5-4,14-11.41.69-3.29-4.82.83-8.07,2.23,4.63-7.55.08-4.14-1.63-4.13,7-12.75-.88-10,2.11-15.87-5.53,3.53-5.88,10.33-4.91,10.44C226.43,307.62,232.91,297.31,226.74,301.89Z"/><path class="cls-2" d="M216.35,374.35c-.81,4.78,1.74,5.46,4.86,5.43.78-3.58,3.47-5.13,4.52-8.43C217.08,380.74,220.85,372.05,216.35,374.35Z"/><path class="cls-2" d="M223.05,384c.93.93,3.52-1.55,5.09-5.6,1.38-.76-.11,2-.68,3.72,3.41-1.54,5.28-4.71,8.25-6.7,1.7,2.14,1.89,6.23,7.43,3.57-7.33,14.53,3.44,6.23,3,12-7.68,9.49-6.22-.22-13.17,8,6.47-.14,1.94,10.6,13.15,5.17-3.17,6.29-6,11.48,1.25,5.76-3.23,6.16-8.27,11.71-11.21,12.25-2.07,3.91,1.51.54.64,2.89,2.51-4.7,7.63-6.57,9.34-12.06-1.32,4.29.31,4.78,2.4,4.67s4.66-.87,5.19,1c-6.9,2.23-12.77,5.5-13.79,5.28-2.91,4.9-1.05,5.24,2,4.27s7.4-3.24,9.33-3.4c-4.64,6.46-1,6.92.78,7.24,1.51-1.36,2-3.67,3.69-4.87.9-.41.65.66,1.9-.24-1.42,2.15-3.48,3.64-4.28,6.4,2.59,2.88,9.08.56,12.65,2.1-.69,1.4-1.81,2.42-2.38,4-4.82-.32-9,3-13.85,3.21-1.86,7.82,4.1,5.24,4.12,10.57,4.1-3.68.06-2.45,2.33-6.19,2.86-2.53,2.89-1.32,4.39-2-1.16,5.1-6.87,10.26-5.34,11.78,2.15-1.42,3.33-3.79,5.52-5.13.55-1.49-1-.14-1.87.23,1.34-3.59,8.74-13.13,2.33-6.22,3-8.57,7.49-9.2,8-6.91-4.43,2.14-1.35,6.21-6.61,10.43-.8,3.12,6.51-4.7,6.22-2.27-2.49,5.65-7.25,6.59-8.65,6.29-3.22,2.44-4,7.32-7.26,9.78-1.1,4.33,4.3-.1,2.72,4.87-4.05,5.35-4.13,2.49-9.25,7.81-4,8.25,4.26,0,.95,7.35,3.89-3.86.06-3.63,3.44-9.36.89,1.14,2.56,1.21,2.08,4.23,2.18-6.5,5.09-8.57,9.61-13.84.89-.45.66.65,1.89-.25-.33,3.94-4.42,4.09-4.77,8.05,3.68-3.3,6.36-1.56,7.19,2.14s-.1,9.27-3.87,13.79c4.17-3.67,3.62-.19,7.41-5.5-.9,5.43-4.76,8-6.34,12.76-.8-2.88-6.17.56-6-3.62-2.92,6.42.65,10.81,4.5,10.54-1.1,3.1-4.06,4.48-4.65,8.08,4.21-2.45,8.76-5.32,6.06,3.66,4.73-6.21,5.58-4,9.53-11.78-2.79,6.34,4.24-.56,2.34,6.39,5.39-10,5.46-1.11,9.77-7.39-.15,6.09-6.7,6.13-7.56,11.56,4.61-4.12,5.82-3.42,5.72-.83-1.92,3-4.32,5.63-6.46,8.42-5.87-.06-6-8-13.19-4.16-2.57,5.52,3.57-1.23-.22,6,7.29-5,8.13-.91,8.77,3.53s1.06,9.21,7.36,5.51c-1.08,4.19-.79,7,.13,9a13.45,13.45,0,0,0,4,4.55c3,2.49,5.58,4.82,2.08,12.55.78,2.24,2.17,3.58,2.6,6.36,7.25-9,5,.16,8.42-.58-1.29,2.25-3.29,3.83-3.89,6.67,4.57-6.53,7.29-4.5,3.36,1,9.06-4.17,5.65,10.48,12.72,9.33,1.22-4.64,4.73-5.16,6.45-6.38-1.29,3.56-5.38,4.63-6.93,8-.37,4.65,1.67,5.62,4.26,5.72s5.73-.64,7.62.52c-6.3,9.6-2.46,13.61,2.32,7.91-2.28,5.32.49,2.76-1.08,7,5.44-6.32,6.86-2.87,8.44,1.09s3.34,8.43,9.3,4.06c-2.85,8.57.93,8.21,4.6,7.78,1.83-.22,3.63-.45,4.59.42s1.07,2.78-.51,6.95c-.23-2.36-2.65-1.2-4.18-1.46-3.57,7.89,6.47.71,7.53,6.14.45,2.18,0,13.61,4.89,5.86,2.6-2.44-.91,5.23-.88,7,5.79-3.05,5.7,3.67,11.9-.11.15,7.54,7.86,11.35,12.51,15.86,7,8.2,14.33,16,21.75,23.72q5.58,5.77,11.28,11.38c1.9,1.87,3.8,3.75,5.74,5.57l5.86,5.35q11.77,10.63,24,20.71l6.13,5,3.08,2.47,3.14,2.38q6.27,4.74,12.64,9.36,12.75,9.23,25.83,17.93,13.2,8.43,26.71,16.34c17.93,10.77,36.57,20.06,55.34,29.14l7.06,3.36c2.35,1.11,4.75,2.12,7.13,3.18q7.15,3.14,14.35,6.17c9.6,4,19.22,8,28.94,11.78s19.57,7.15,29.41,10.58l14.78,5.08c4.94,1.64,9.93,3.13,14.91,4.67q14.94,4.58,30,8.94c2.5.71,5,1.48,7.51,2.14l7.56,2,15.13,3.93,15.14,3.85c5.05,1.26,10.08,2.59,15.17,3.69l30.48,6.82c.34,4-1.78,6.93-3.48,10.06-4.45-7-11-7.06-17.55-6.9s-13.29.52-17.84-5.87c-2.71,5.67-3.09,4.66-5.45,5.75.41-3,1.16-.91,2.74-3.73-.72-4.26-6,5.88-5.41-2.59-2.58,3.23-2.17,7.9-4.62,11.21-.59-16.08-9.88-14.44-19-9.13-4.53-4.25-8.29-10.61-16.29-4.53a8.1,8.1,0,0,1,1-4.55c-5.52,2.69-10.24.1-14.75-1.87s-8.75-3.48-13.39,1.15c.09-4.44,1.73-5.39.26-6.67-1.14,1.69-.93,4.06-1.15,6.2-3.58-6.81-9-6.46-14.44-6.43s-10.82-.19-14.05-8.33c-4.39,9-6.39-2.06-8.91-3.12-4.23-1.78-10.81,6.51-9.89-1.94-6,4.55-9.83,3.32-10.57-5.73-3.07,1.77-1.12,6.26-4.2,8-1.7,3.11-1.08-5.91.47-6.64-5.35,6.35-5.14-1.45-9.3,1.85-.15-2.41,1-4.05,2.25-5.68-6.16,6.09-7.24-.61-12,1.9,3.89-10.85.2-1.25-.34-7.17-1.49,3.67-3.89,6.44-5,5.83A26.82,26.82,0,0,0,620,835c-6.41,9.68-5-7-13.9,2.45a15.58,15.58,0,0,1,2.45-7.28c-6.6.78-17.66-8.16-21.77-2.08-1.67.1-2.19-2.49-3.14-4.05s-2.36-2.09-5.85,2.24c.37-8-2.37-14.1-6.52-7.52C564,812,555.7,808.57,547.36,805.1c-2.08-.86-4.17-1.73-6.25-2.65-1-.47-2.08-.94-3.11-1.44s-2-1.06-3-1.63a55.11,55.11,0,0,1-11.65-8.56c-1.66,1.32-2,3.46-3.42,5,.53-4.8-.62-3.57-.56-9.35-6.58,1.94-11.17-2.92-16.16-7.3a25.73,25.73,0,0,0-8.14-5.32,13.91,13.91,0,0,0-10.68.62c.32-2.81,1.87-4.81,2.11-7.67-4.66-1-10.52.38-12.92-5.16-1.79,4-6.63,16.43-12.08,17.43,1.59-6.18,4.16-8.81,3-12.6,1.51-4.65,7.08-8.31,5-2.15,4.82-5.63,1.91-11.27-1.11-4.4-.12-13.66-13.06-2-12.88-16.12-3,4.33-5,5.19-6,3.76s-1.08-5.19-.18-10c-1.77,1.2-2.33,3.3-2.81,5.41-2.33-7.64-8.86-7.25-10.93-15.27-1.58,2-2.31,4.56-4,6.46-4.27-9.07-18.68-5.67-16.94-21.52-1.11,1-1.28,2.79-1.79,4.28-3-3.68-6.94-5.77-10.48-8.53a20.08,20.08,0,0,1-8-12.89c-8.49,2.31-13.82-9.42-19.68-15-3.28,1.93-3.23,6.4-6.52,8.34-.88.18-1.76.4-1.58-1.21,9.94-13.43-1-10.44-.82-16.1-4.9,6.6,1,2.7-.79,7.15-2.57,6.15-4.14,2.66-5.41,3.39,7.36-19.06-4.08-12.49-3.81-22.39-3.29,1.87-3.34,6.37-6.63,8.22-1.18.7,0-2.51-1.55-1.21.89-2.51,3.26-3.87,5.08-5.63.91-4.37-.33-5.14-4.25-1.47-1.62,2.58-1.84,6.28-4.71,7.83-.8,3.23,2.69-.66.74,4.49-4.52,4.32-1.45-3.94-7,2.13,3.34-8.7-.2-6-.71-8.33,3.57-6.74,1.71,3.41,5.83-1.11,2.75-10.71,3.09-2.53,5.88-5,1.89-12.31-4.2-1.31-3.75-10.75-2.24,2.09-2.09,6-4,8.43-1.13.91-.41-1.2-.36-2.23-2.67,3-3.14,4.63-2.39,5.82-6.41,5.82-6.65,1.49-13,7.08.41-3.59-.14-4.33,3.23-9-1.73-1.24-10.07,8.2-9,2.4.71-3.34,4.4-4.21,6.33-6.5.94-4.62-4.18,1.09-5.91,4.88-3.62,3,1-7.2-2.62-4.17,1.17-2.95,4.09-4.45,4.07-8.42-7.88,8.5-15.28,6-9.17-3.79-2.16-.58-.91-6.52-7.39-.25,4.49-12.1-6.31-2.44-1.12-12.84-11.85,13.75-1.78-14-12.65-4.75-.46-3-2.15-4.15-3.72-5.48a7.54,7.54,0,0,1-3.07-6.45c1.32-4.49,2.15,1.25,3.34-5.07-12.84,7.62-6.82-13.18-16.37-10.54-1,3,.47,2.23-.71,5.44-.83,2-2.77,3-3.42,5.09-1.45-3.12.45-11.17-1.49-13.5-2.53,2.82-1.07,3-1.47,4.77-2.43,5.17-1-2.49-5.63,3.09,2.15-3.45,2.65-5.08,2-6.35-11.68,12.69-2.51-10.07-12.26-2.83a14.83,14.83,0,0,1,6.91-10.06c2.17-5.41-2-1.65-1.18-5.12-1.8,1.72-2.28,4.76-3.24,7.28-4.65,4.44-4.63,2.11-6.36,2.33a14.19,14.19,0,0,1,5.93-6.87c-5.85,2.49-5.39-4.16-8.4-5.79,1.34-2.88,4.32-4.24,4.53-8.16-10.51,11.67-11.93-4.35-18.49-.75,3.54-6.88-.46-7.9,5.68-11.3-.59-2.75-3.14.53-6.23,4.56-2.11-.54,6.61-13.63.53-9.87-2.35,4.92,1.41,1.35.37,4.44a7.66,7.66,0,0,0-3,3.41c-3.26-3.81-1.67-14.18-12.46-7.6,5.08-6.76,4.16-6.18,7.59-13.68-3.76,2.64-5,7.73-7.05,12.1-9.23,8.24.65-9.64-7.4-3,1.18-6.61,7.51-8.17,9.58-13.83-4.55,3.22-7.18,8.41-11,12.44-4.61,3.14,2.11-6.08-.27-4.52,1.15-2.42,3.6-3.5,5.58-5.11,0-2.9-4.5-1.18-7,3.74,3.66-10.66-1.82-3.14,3.12-13.91-5.89,2.63-4.71.53-4.85-4.78-2.73,2.94-3.91,7.46-8,9.06l-2.85,7.84c1.15,1.42,5.39-5.81,2.09,2.06,2-.91,2.84-2.88,3.66-4.88,1.88,2.5,10.68,6.33.42,17.37-1.42,3.55,4.21-2.42,5.71-2.83-2.46,6.18-6.44,9.34-9.19,10-.39,2.26,3.74,5.09,6.43-2.11,2.94-.44.48,6.5,7.28.8-1.45,3.5-5.65,4.31-7.36,7.58-1.19,3.07.86,3.12,2.12,3.59s1.73,1.41-2.69,6.36c-1.18,3.75,4.06-2.63,4.32-4.27,1.53,1,2.55,2.6,1.28,7.44,1.84-1.75,2.92-4.2,4.83-5.85,2.4-1.36,1,2.48,3.41,1.14a42.79,42.79,0,0,1-4.81,5.84c6.82-2.18,9.56,1.26,11.2,6.32-1.65,4.3-1.43-.62-5,3.63-1.42,4.55,3.6,0,.63,6.78-3.44,1.45-5.08.31-2.62-6.56-8.55,9.45-3.81-6.32-10.82-1.85,2.54,7.71,8.92,8.81,11.37,14.76,4.08-3.76-.1-2.52,2.07-6.35,7.26-4.81-5.17,13,2.11,8.16.11-1.88-.56-2.65-.45-4.52,5.61-5.66.86,3.35,6.45-2.28-.53,3-2.76,4.34-4.76,5.89.28,1,2.34-.44,1,3,6.6-8,9.42,2.81,10.77,8-3.5,6.63.22-4.25-3.93.46a30,30,0,0,1,4.62,2.27,21,21,0,0,1,9.79,12.7c-1,2.45-3.48,3.65-5.4,5.31-2.68,7.76,4.47,0,6.91-4,3.26.48-5,7.46-4.57,12.09,4.07-1.07,2.48-7.22,5.61-9.19,2.87,3.19,11.2-1.83,8.54,9.61,7.09-8,5.75-2.59,9.59-3.63-.3,3.74-2.93,5.48-3.55,9,6-3.37,7.48.11,9.7,2.49-2.58,5.31-4.09,1.49-5.15,1.48-1.83,6.61,3.43,5.47,9,1.77-.47,4.23-4.2,5.72-4.66,9.93-3.83,3.36-3.31-1.42-6.88,4.11,4.6,4.55,10.11,3.78,19,.17-.29,5.65-6.31,6.55-7,11.86,4.63,2.75,9.81,4.56,9.23,15.58,7.39-6.74,4.43,1.5,4.68,3.95,2.4-2,2.68-5.65,5.65-7.13-2.29,11.11,13.51,2.88,6.57,15.23,5.85,2.41,8.12,15.75,16.34,11.07-1.91,9.38,5.42,3.4,2.11,15.2,6.2-6.1,4,1.91,10.69-5.06-.1,3.78-2.65,5.64-3.07,9.17,9.25,7.71,20.72,11.46,25.5,27.1,2.21-3.26,5-5.64,3.36-6.93,5.24,10.65,11.23,20.3,22.38,20.55,3.8-2,.37,9.24,2.92,9.55,1.33-1.53,1.4-4,2.93-5.36,1,4.52,2.42,10.11,9.2,6.59-.6,3.28-1.21,6.58-1.81,9.84,12.48-1.22,18.37,9.83,25.09,19.64,1-1.17,1.4-2.7,2.53-3.77,6.06,8,13.75,13,21.58,17.64s15.83,9,22.66,15.78c6.53-7.16,13.46,7.24,20.36,11.23,3.73,2.16,9.07-1.42,8.56,7.26,1.44-1.48,2.89-2.95,4.35-4.43-2.9,11.31,7.48-.27,6.22,11.13a9.9,9.9,0,0,1,7.95-.29,26.87,26.87,0,0,1,6.87,4.24c4.49,3.44,9.09,7.2,15.41,5.63q-.34,3.34-.67,6.64c8-1.66,13.56,2.1,19.22,5.76s11.42,7.09,19.54,4.85c1.55,11.5,12.55.27,14.22,11.57,6.46-6.67,5.43,5,11.37-.52a21.13,21.13,0,0,0,11.78,9.54c4.6,1.49,9.7,1.72,14.88,1.69,9.12,6,19.61,8.55,30.06,11,5.22,1.29,10.51,2.35,15.6,3.92a63.39,63.39,0,0,1,14.71,6.38l3.9-4.82c1.34-1.08,0,2.85-1.06,4.55a73.13,73.13,0,0,1,15.83,1.45c2.45.41,4.9.8,7.52,1a47.34,47.34,0,0,0,8.54-.11q0,3.35-.08,6.66c2.28-.09,4.26-10.31,5.68-4-.43,3-1.2.9-2.85,3.65.71,2.35,3.27,1.74,4.72-2.76,9.85,3.5,19.82,6.52,29.87,9.14,2.52.64,5,1.31,7.56,1.87s5.08,1.09,7.62,1.6q7.63,1.53,15.32,2.82c10.24,1.7,20.51,3.19,30.83,4.31s20.74,1.82,31.12,2.52c20.71,1.57,41.61,1.87,62.3,2.81l7.76.35,3.88.18,3.89.13q7.78.25,15.53.63c10.33.5,20.63,1.19,30.89,2.17l2.38-4c5,3.38,11,1.81,16.87.81s11.61-1.51,16.24,3.91c2.26-1.45,5.74-11.19,4.43-1.7,2.31-4,7.33-6.24,9.28-.09l3-5.37c3.66,1.39,7.07,4.3,11.94-1,8.5,5.29,18.25,3.75,27.77,3.15,4.76-.3,9.47-.37,14,.78a25.77,25.77,0,0,1,3.35,1.11,23,23,0,0,1,3.29,1.58,26.64,26.64,0,0,1,6.27,5.18l2.86-5.48c2,7.79,7.73,6.36,10.2-.28.57,2.8-.29,5.15.38,8,2.86-11.13,3.58-3.8,4.62-.28,6-8.72,11.48-5.41,17.88-4.43a15.68,15.68,0,0,1-.53,7.72c1.34,1.71,3-10.49,5-3.3.66-1.4.18-3.1.11-4.69,1.84-2.44,2.59,3.41,5-3.37.75,2.26,0,4.17-.79,6,2.21-3.78,6-7.83,9-7.07.46,8-2.14,3.81-4.09,8.33,6.9-6.41,13.27-9,19.86-13.7.53,2.76,1,5.46,1.56,8.22-1.23,6.81,1.8-3.51-.27-6.31,3.57-7.26,5.87-5,10.17-9.89,0,6.65,3.77,4.62.93,9.6,1.44,2.62,2.57-8.69,4.9,1.22,2.93-5.89-.73-5-1.29-6.54,4.32-7.45,7,.48,11.36-8,.27,2.14-.91,4-1.61,5.83.79,2,2.32-3,2.61,3.72-.09-8.57,2.07-3.13,4.51-9.84,3.74,6.27,8.77,1.73,13.54-2.14s9.33-7.08,12.39,1.89c2.7-13.56,7.76-10.5,11-13-.86,9.71-4.44,2.1-6.61,7.8.56,3.08,1.5,1.7,2,5.11-3.13,3.75-6.73,12.32-9.8,14.8,1.57-15.81-7.39-.91-9.12,1,5.1,8.27,15,4,21.34-9.09.29,2.67-1.25,4.88-2.12,7.27,3.22-1.6,9.59-1,10.69-14.61,2.1-2.74.81,6.13,1.84,8.17,6.34-9.24,9.92-8.92,16.87-19.75,7.5.78,15.12,1.11,23.53-13.71,4.26,2.51,11.65-4,14.93-14,4.59,3.4,11.34-4.38,18.27-10.19s14.07-9.63,19.91,1.71c-2.54-19.56,7.43-10.49,7.12-27.87,2.51,1.62,5.53-16.2,7.76-4.81,10.41-16.86,20.16-17.92,30-3,1.29-4.87,2.69-9.75,2-15,1.58-1.76,3.12.83,4.66,6.84,1.47-7,2.85-3.59,4.27-3.91.6-8.35,1.92-7.13,2.87-14.82-.93-4.13-1.88,2.44-2.81-.41,3.06-5.21,7.1-7.92,11.33-7.33s8.68,4.42,12.58,12.1c.72-11.19,3.34-13.69,6.43-11.33,5.34-22.73,12.44-35,19.52-43.07,1,3.16,2,6.31,3,9.49-1.11-9.85,3.8-7.51,5.58-13.06a19.83,19.83,0,0,1,.17,6.09c6.41-4.47,12.49-6.94,17-20.89,6.68-3.48,15.6-8.61,19.91-26.6,4.7,1.32,11.94-17.19,15-24.44,5.27-12.2,10-21.84,13.18-38.13-1.65,0-2.08-5.27-3.24-9.37.81-4.76,2.22-1,3-5.77-2.33-2.9-2.79,2.88-4.52-3.46-1.28,10.65-6-4.11-5.94,7-.79,3.06-2.38-6-3.49-7.91a13.65,13.65,0,0,1-7.87,3.78c2-7.6,3.09-8,5.53-20.67-4.85,2.24-10.64,4.19-16.52,8.18-1.47,1-2.95,2.11-4.43,3.35a43.77,43.77,0,0,0-4.4,4.27,59,59,0,0,0-8.42,12.38c-1.06,1.82-2.29-.29-3.55-3.45a50.35,50.35,0,0,0,.73,7.66c-1.29,0-2.48,2.42-3.71,4.11-2.49-13.92-6.42,8.7-8.42,18.71-1.45-5.22.22-10.09,1.25-15-1.13,1.85-3.14-2.44-3.26-8,1.85-6.62,2.49-.83,3.5-10.2-1.15-4.65-1.67,9.73-2.94,1.17-1.47,2.85-.32,6-1.42,8.94-.56.61-1.11,1.26-1.73-.21-.17-5.09,1.49-10,1.25-15,.39-.91.85.11,1.23-1.36-.62,9.32,2.73,2.12,4.25.51.92,2.64.57,5.14,1.56,7.77,3.55-4.68,3.53-20.41,6.73-23.45.61,5.67-2.34,10.85-3.17,16.29,1.55.26,4.62-3,3.42-10.18,4.3,5.27,7.84-7.79,11.52-15.27-2.73-4.83-4.69,7.15-7,11.25.79-14.68,5.54-19.2,8.74-11,1.4-4,2.81-7.83,4.3-9.89s3.06-2.48,4.81.33c4.35-10.45,9-14.21,13.67-17.49s9.37-6.07,13.59-14.59c-2.71-7.36-4.51-2-7.43-12.83-2.08,3-4.43,2.62-7.25-5.3-.64,1.95,0,4-.41,6-2.41-10.27-3.56-.59-5.58-5.13-1.06-3.67-.29-7.09.55-10.54-2.52-6.21-4.21,1.18-6.46-.68-1.86-3.74.36-7-1-10.71-3.38-4.55-4.34,7.07-7.85,9.74-1.51-8.41,2.22-14.84,3.34-19.29-.68-.27-1.43-2-2.25-4.8-.29,1.47.35,3,.66,4.61-1.37,3.84-2.65-2.65-2.87,5.75-.9-2.63-.62-5.14-1.59-7.77-2.37,5.2-5.11,3.55-7.82,2a26.18,26.18,0,0,0,.57,12.17c-.62,3.93-1.35,5.4-2.13,5.8-1.15-6.22-1.76-12.37-2.42-18.51,3.11-1.78,7.22-13.6,7.4-26.23,1.15-.85,2.31-1.75,3.46-2.57a16.64,16.64,0,0,1,3.48-2.06c2.34-.94,4.73-.8,7.28,1.77-2-12.19,1.81-8.2,3.83-7.14,1,6.46-2.05-.39-2.45,4.26,2.48,6.72,3.73-6.52,5.65-8.44,1.75,4.12-.37,7.48,1.67,7.74-.27-10.39,5-10.73,8-8.16,1.54-9.59,4.56-5.23,7.36-9.72-.57-10.36-2.95-2.22-4.09-3.49,1.07-3.06,3-7.5,5.29-9.89s5-2.88,7.85,2.18c2-12.76,14.12-.78,12.29-27.53,3.11,3.48,2.75-10.06,5.45-5.52.6,5.24-1.1,3.61-.09,10.54,4.92-10.81,9-26.69,7-47.41-1.9-4.66-4.84-9.32-5-17-3.85-6.89-8.45-4.51-11.33-23.71-.53,8.49-3.49,5.15-2.84,14.74.63,1.58.82-1.38,1.15-2.89,1.3,5.83.25,4-.35,7.5-1.51-5.88-2.6-7.39-3.46-6.38a18.47,18.47,0,0,1-.64-10.59c-1-1.05-1.72.36-1.36,4.36-3.28-10.88-7.27-.93-10.22,5-2.59-6.89-4.45-5.39-6.1-.78s-3.08,12.19-4.71,17.64c-.32-1.05-.64-2.09-1-3.16.35-16.29,4.24-17,5.3-27.94-1.06-4.35-1.47-.66-2.62-6.33-4.6,17-8.83,11-13.89,22.29-.33-1.57-.21-3.06-.67-4.63,2-1.93,4.65-9.47,5.12-17.42-1.27-4.67-1.81.77-3-3.4.91,6.45.08,8-1.45,4.31a77.5,77.5,0,0,1,.85,12.2c-2.33-3.57-6.52,2.12-4.73,14.46-.53,4.85-1-9.54-2.08-4.78-.44-3.11,1.19-3.13.13-9.07-1.5-1-2,10.72-1.19,15-.81,2.17-1.33-8-2.45-10.89-1.61,4.34-.08,9.05-1,13.47-.71,3.45-1.54-4.84-1.09-6.2-1.68-2.92-.71,6.78-.89,9a25.12,25.12,0,0,1-2.69-9.41c.51-5.65,1.44-3.78,2.07-7.31-2.44-5.44-2.69,5.57-2.17,11.83-2.43,1.5-4.66,2.1-5.68,14.34-2.11-4.34-.24-8.08-1.36-12.29,1.32-2.41,2.69-3.41,4-5.48a41.08,41.08,0,0,1-1-18.26c-1.09-3.23-1.72.34-1.52,4.32-.61-7.35-1.72-.61-2.61-9.49-1.47,8.15-3.3,7.81-5.92,8.15-.74-4.46,1.46-7.78,2.41-1.14a5.76,5.76,0,0,0-.15-3c.18-1,.37-1.95.55-2.92-1.67-5.61-2.8-.15-4.09,2.35-1-6.21-.54-12.19-1.55-18.39-.41,6.39-.6,3.46-1.69,8.8-1.48-3.78-1.24-7.26-2.23-11-.76,2.42-.45,5-.71,7.43-1.12-3.19-.39-6.12-1.78-9.37-1.93,3.42-4.06,2.32-6.14,2-1.2-6.87.66-3.78,1.32-10.37-1.18-4.2-1.87,5-3.16-2,.11,2.52-.55,4.95-.06,7.56-2.64-3.06-5.08-1-7.54,1.26a17.23,17.23,0,0,1-3.71,2.9,3.16,3.16,0,0,1-3.81-.62c-.31,2,.43,4.14.84,6.23-.71,3.82-1.44,7.27-2.26,7.18-1-12.14-2.66-10.67-4.45-6.74s-3.77,10.3-5.3,7.94c.43-21.7,4.28-15.38,6.79-24.56-1.6-5-3.08,5.75-3.87-5.28-.63,2.92-1.27,5.83-1.9,8.75-.91-2.7-.76-5.24-1.16-7.83.92.36,1.7-6.45,2.69-2.51-.66-6.84.76-3.78.81-10.51-1.81-12.11-2.89,15-4.71,2.17-1.35,8.34-2.81,16.69-4.07,25.06-1.46-4.31-.79-8.28-.16-12.2-1.25-7.89-2.31-2.33-3.47-3.7a30.55,30.55,0,0,1-1.25,12c.71,1.87,1.35-3.24,2.11,3.44q-1.68,5.29-3.46-.65l-3,13.17c-.65-9.08.58-7.19-1.78-8-1.68-4.36.7-8-.75-12.32-.36,14.79-2.31,10.08-4.44,22-2.1-2.75-4.19-3.11-6.26-7.47-1.6,14.32-3.65,16.86-6.1,24.68-1.58-4.41,1.22-7.91.8-12.05-3.19.91-6.53,21.26-8.13,31.93,3.35,3.92,4.47-16.28,6.62-20a21.35,21.35,0,0,1,.29,7.69c.92,3,2.34-6.43,1.49-8.86,1.48,6.18,3.68.29,6-5s4.68-10,6.74-1.47c-2.31,17.65-7.8,18.06-11.34,15.93-2.28,20.92-7.41,18.8-12,20.44a203.08,203.08,0,0,0,2.52-27c-1,6.31-1.93,3.19-3,8.55-3-16.83-4.51,8.52-7.36-6.11-3.43,7-2.31,5-5.54,9.55.92,2.77-.29,5.06.17,7.71-1,2.13-1.92.14-3,5.45-1.51-6,.57-9.26,1.65-8.8-.19-7-4.46,1.27-4.52,8.15-1.42-.82-3,5.09-4.21-4.09-2-1.12-4.55,14.37-6.44,9.28-1-9,1.38-17.12,2.68-25.53-2.59.77-4.08,13.27-7.53,10.55-1.07-6.1-.33-7.35-1.89-6.6-1.37,5.49,2.14,2.4.77,7.88,1,.72,2.08,1.85,3.25-.78.27,7.93,0,7.1,1.92,6.62.29,2.11-.5,4-.94,5.91-1.06,2.56-1.61-8.51-2.63-6.77-.08,2.57-1,4.89-.65,7.54-1.3,2.27-2.38-1.08-3.58-.83-.39-4.15,0-5.66,1-5.91.74-1.46.21,2.6.88,4.8.35-4.53,1-9,.2-13.81-5.75,23.58-10.59,22.31-16,33.27a15,15,0,0,1-.42-6.29c-.61,4.79-4.79,12.88-7.33,13.57.08-7.91,4.21-11.33,4.17-15.91.69,6.88,1.77,3.37.44-1.43-4.41,6.71-8.33,9.88-11.51,9.38-.63-10.51,4.18-6.22,4.67-17.38-1.42.2-1.7-3.09-2.77,3.92-2.16-4.33-5.67-.85-9.33,4.06s-7.48,11.27-10.07,12.67c-.79-4.33,3.37-7.41,1.6-12-1.22,8.55-3.22,10.78-5,12.7,1,1.76,1.89,4.43,3.15,2.37.12,1.56-.22,3,0,4.65-2.61,5.13-4-6.26-7,4.4-.5-2.73.07-5.15-.5-7.91-2.26,6.78-3.58,1.55-5.56,4.64a21.05,21.05,0,0,1,.25-7.7c-.66-2.54-2.07,4.23-2.4-2.26-.92,1.84-.74,4-.5,6.1-6.66-2.5-11.4-.33-18.42,2.61a18,18,0,0,1,1.58-8.9c-1-1-2.45,2.37-3.39.58-2.12,3.58,0,8.32-1.89,11.94-1.11-6.55-3-4.26-5.38,1.63-.72-3.36.47-6.12-.54-9.52-1,3.36-.44,7.16-1.44,10.52-1.19-9.12-1.76.48-4.67,1.7-.7-3.34.51-6.12-.49-9.55a21.2,21.2,0,0,0-.44,7.72c-2.77,4-6.74-7.16-5.58-17.44-4,5,1.81,9.6-1.27,18.44-1.24-.45-.44-4.47-1.7-8.36-2.33,5.52-3.74-.63-5.71,10.78-1.62-.21-3.57.47-3.11-8.83-.9,2.36-1.8,4.7-2.7,7,.43,8.4,1.2-6.33,1.64,2.09-2.27,11.08-6.78,2-10.93,9.2,1.24-6,1.52-11.16,3.49-13.09-1.55-8.89-4.34,11.05-7.14,12-.5-10-3.28-1.92-5.49,1.4-1-9-3.57-5.51-6-3.59.32-6.71,2.23-1.89,3.54-6.73-.14-4.78,2.15-8.75,2.16-13.49-3.14,8.6-6.23,9.45-9.33,19-.21-3-1.45-.62-2.48-4,.38-9.06,4.6-.67,3.1-11.61,1.91-5.81,1.94,2.35,3.85-3.45-.14-7.45-4.8,4.27-3.32-5.86-1.89,5.12-2.88,2.49-5.56,7.61,1.76-12.32-2.07-.66-2.86-8.87-3.45,8.39-5.25,5.25-8.19,9.9-.92,6.18.29,11.16,2,7-1.66,10.45-4.06,3.67-5.36,3,.34-4.77,2-9.37,2.65-10.2.44-5-.58-5.4.36-12.55-2.06,13.56-2.64,3.16-6,12.27-.35,8.16,1.87-.72,1.83,5.36-1.31.41-3.37,5.6-3.59-1.19.06-3,.81-1.15,1.76-4.17-.09-3.1-1.33-1.87-.38-4.89-.66-5-1.94,9.7-2,.86-.38,5.19-.41,10.45-2.32,15.07-1.75-.49.65-5.11,0-9.56-1.5,3.18-1.66,6.82-2,10.43-.69.33-.91-2.34-2,.85-.89-7.24,3.08-12.7,2.7-19.74-1,3.91-2.23,7.69-2.6,11.8-2.27,6.37-1.36-7.36-4.06,1.72-.79-4,.18-7.37-.1-11.18-2.56,5.67-3.5,1.36-4.88-.18-2.54,10.2-4.78,6.55-6.6,5.56-.48-3.38,2.83-5.34,1.52-9-3.12,8.9-4.18,3.7-6.71,3.95-2.06,3-.51,7.27-2.17,10.41-2.39,1.05,1.11-9.05-.06-12.83-1,.16-1.67,1.59-2.47,5.51-.35-8.87-2.52-7.17-4.88-4.59s-4.87,5.95-5.8.57c-3,9.73-3.52,7.87-7,13.36-.7.05,0-6.23-1.67-5.47,1-7.71,2.88-3.36,4.51-7.88-1.37-5.41-4.13.28-6.72,5.39-1.32-3.17.16-6.45.14-12.83-1.81,1.68-1.84-2.92-4,4.88-.08-2.15-.17-4.34-.26-6.51-.88,8.29-5.34,10.41-4.87-.29-3.21,10.61-3.35,5.64-4.76,3-2.5,4.91-.18,1.81-.48,6.26-1.62,3.67-1.71-.38-2.77.51,0-7.58,1-7.29,2.38-11.94-1.53-.53-2.73-2.78-2.44-12.28.74-1.82,1.16-2,1.35-1.07.44-2.87-.3-3.83-1.31-4.21s-2.29-.22-2.94-.76c2.81,5.64.24,15.15,3.29,19.11-5.88,11.77-2.08-10.14-5.09-8.52-1.22,6.54.12,14.13-1.52,20.46.17-6.06-2.49-5.81-1.76-13.72-2.28,6.07-3.61,12.54-5.79,18.7,2.57-10.57.65-10.53.3-16.14.14-4.29,3.11-7.34,2.51-11.95-1.6,4.61-2,4.54-3.21,11.65-1,0-1.17-6-2,2.4-1-.48-1.22-5-1.56-8.79.91-4.63,3.33.63,4.66-9.42-3,4.68-14.25,14.78-9-2.16-.93-.91-3.55,5.83-3.44.19-4.56,13.69-5.89,1.26-11.64,14.62,1.54-10.09-2-4.45.61-12.79-.68-2.73-2.62,7.43-4.81,9.41-2.53-1.78-4.23-7-9,.88,1.61-8.41-1.26-6.84-2.77-1.26.82-8.3-1.45-3.59-1.35-8.8-.81,5-.3,5.27-1.45,12.49-1.58.39-1.76-6.13-1.33-10.47-1.51-2.14-3,8.42-3.45-1.54-.73,2.41-.76,5.12-2.15,7.24,2-1.37,3,1.47,3.44,6.46-2.54-1.19-4.89-3.17-7.65-3.41.14-1.56.72-2.95.74-4.59,1.86-2.33,2.6,4.65,4.91-4.38-.72-5.33-5.19,6-5.49-4.11-1,2-2,4-2.12,2.34a20.64,20.64,0,0,0-1.49,7.55c-2.81,4.53-3-1.54-5.62,2.41-.53-3.52,1.07-6.09.84-9.48-2.28,3.23-1.08,7.69-2.91,6.91-.35-4.42,2.64-7,.85-7.84-1.59,2-1.09,5-2.23,7.21-.52-9.88-3.47-11.15-6.63-11.13s-6.48,1.2-7.56-3.94c.2-3.21,2.51-5.43,3-8.51-1.16-3.75-6.71,8.83-5.36-4.25a21.38,21.38,0,0,0-1.66,7.55c-2.12,5-1.82,1.07-3.63,4.87-.22-2.87,1.18-5,2.34-7.18,0-4.37-2.25-.2-2.66-2.93-.87,1.79-.74,4.09-.92,6.2-2.07,4.76-1.37-.62-2.85,1.95.55-2.51,1.78-4.69,1.68-7.51l-3,5.23c-.15-3.4,1.5-5.93,1.08-9.48-4,.95-7.94,1.87-11-.38-.09,1.63-.17,3.26-.25,4.91-.84-.63-3.66,5.62-3.53,1.56-.17-2.91,1.24-5,2.43-7.17-1-4.43-6.74,1.6-8.5,4.07,1.21-6.37.82-8.15-1.83-4.32.11,6.5-1.49,5.92-3.25,8.43,4-1.48,2.9,7.59,7.36,5.44,1.14-2.58,0-1.3.17-3.28,2.56-6.2.31,4.33,2.87-1.89-1,7.77-.4,5.85-.64,13.12-2.27-8-11.29,2-11.37-9.18-.64,1.36-.87,3-1.64,4.22-2.19,2.41,1.92-5.43,1.14-7.81-5.59,11-5.53,2.84-6.95-.21-3,7.83-4.24,6.59-5.15,4.15,2.24-5.62,5.17-10.87,6-17.19,1.55-1.37,2.59,1.7,4.43-4.46-1.59.4-1.24-1-.24-6.88-2.51,6.36-3,4.49-4.75,9.36-1.82,1.74-1.26-4.34-4.23,1.2,1.84-11.3-2.92-6.8-6.69-3.43,2.63-8.91,1.23-8.74-2.53-3.08a20.13,20.13,0,0,1,2.6-7.1c-.92-5.25-6.25,3.53-7.5-.68-1.5,2.56-1,6.28-2.76,8.7-2,3.7,1-8.12-2-1.07a20.89,20.89,0,0,1,2-7.47c-.66-1.83-2.47,8.09-3.05,3.48a19.94,19.94,0,0,1,2.13-9.06c-3,3.43-3.57-5.9-7.13,2.92,0-3.41,1.78-5.87,1.51-9.4-2.9,9-2.18.53-2.1.55-2.73.08-7.25,11.26-7,1.31-3.24,8.31-4.67,2.86-6.52,3.29.69-2.47,2-4.58,2.1-7.43-4.19,9-2.74-1-7.64,7.69-2.55,5.79-.88,8.63.81,5.67.19,1.56-3.74,5.85-3.92,4.67-2.94,6.57.94,2.47,1,4-.47,2.63-2.18,4.53-3.43,6.67-.81.52,1.14-10.07-3.3-1.89.28-3.87.63-7.69,2.46-10.68.54-5.8-3.3,1.22-2.11-6.41-1.61,3.67-2.95,8.84-4.3,7.91a68.63,68.63,0,0,1,14-21.33c-.75-1.57-.73-5.37-1.24-7.64-1.45,2.59-3.59,8.41-3.09,3.39-1.15,2.21-1.61,4.84-2.82,7-2.79,3.11.33-3.86.24-8.52-3.88,12.27-10.3,10.84-6.62-2.09-2.5,7.16-1.37-.77-4.79,5.86-.74,5.76,3-1,2.21,4.77-1.91,5.39-2.92-1.27-3.88-2.26a31.19,31.19,0,0,1-4.36,7.89c-2,2.91.81-4.91,2-5.76-.37-2.83-3.87,6.84-3.91,9.87,1.51-1.68,1,2.4,3.81-3-.7,3.05-1.69,6-2.4,9-3,3.34-1.43-6.33-4.58-2.64,1.62-5.75,8-14.92,6.16-17.24-2.36,8-1.87,3.73-4.2,6.24,2.83-8.63,2.46-3.21,1.8-9.36-2.12,5.5-2.92,7.35-5.24,9.11,3.36-11.21-3.83,2.51-1.82-8,4.53.58,10.79-6.82,12.87,2.22,1.8-10.62,4.55-2.82,7.84-14.51.45-3.09-.6-1.92-.06-5.25-3.91,9.12-4.23.76-2.8-5.11-2,8.78-4.17,6.73-6,15.61-.71-.93-3.26,3.31-2.59-1.47,1-5,2.43,1.92,2.91-7,2.94-6,0,4.32,2.94-1.74.26-2.78,1.44-5,1.62-7.73-5.27,8.56-3.17.82-1.3-6-4.34,12-5.62,1.93-8.58,3.58-2.64,5.05-1.27,3.85-1.68,7.76-5.64,8.45-5.92-2.54-10.32,5.92-.07-4.11,2.63-6.56,3.39-10.19,1.82.66,4.25-.37,5,3.11a38.48,38.48,0,0,0,4.2-11.46c-1.5,2.7-1.41,1.07-1.23-.79a25.39,25.39,0,0,0-2.13,5.76c1.39-9.7-6.54-3.66-10.73,3.93,6.16-14.06.29-8.32,3.33-19.1-1.47,2.18-2,2-2.1.48-3.49,7.39.87,2.28-.29,6.87-1.67,6.26-5,9.15-9.83,16.78,1.48-8.7,4.42-7.38,6.66-13.48.47-6.41-1.51,0-4.45,2.55-.72,3.65-2.33,6.79-3.49,10.18-1.57,1.71.21-5.32-2.76.08-.81,6.57,5.12-4.59,2.5,6.78,3.85-5,7.34-9.1,8.52-7.07-.73,3.84-2.33,1.51-3,1.69-2.51,4.79-.25,6.15,1.28.77-5,14.15-7.73,14-10.28,11.07s-4.87-8.54-9.15-5.37c-.26,2.2-.52,4.39-1.56,6.08-.87,4.63,3.2-3.5,1.68,2.82-1.35,4.13-5.94,7.9-4.3.86-1.9,7.13-8.16,14.55-6.55,6.59.21-1.76,4.32-5.05,3.7-1.29,2.79-8.68,3.89-7.92,7-15.06-.14-4.09,1.08-5.91.77-10.08,3.51-1.87,2.67,4.66,9.62-4.67,1.22-7.53,2.68-6.7,2.5-12.56-1.77,4.81-2.39,10.27-6.12,13.88-2.18-1.12-3.13-5.33-6.3-3.87a20.16,20.16,0,0,1-2.71,8.91,4.21,4.21,0,0,0,2.3,3.16c-1.61,4-3.84,5.82-5.24,7.38a11,11,0,0,1,2.22-5.69c-.36-4.9-3.64,7.91-4.77,4.11,1.55-4.35,4-8.12,5.35-12.6-6.41,9.35-6.56-3.86-13.28,5.67.86-3.61,3-6.42,3-10.53-2.48,2.56-2.08-2-6.3,4.86a37.38,37.38,0,0,1-2.16,9.3c-2.83,2.41-3.26-1.13-6.71,2.77,1.55-6.07,7.65-15.7,6-6.84,1-4.72,3.88-8.19,4.84-12.93-5.31,9.21-5.17,4.36-10.49,9.27-1.64,6.27,2.57-1.75,1.62,2.85-2.87,6.91-2.32,0-5.72,5.22.35-2.73,1.65-4.88,1.95-7.67-7,14.89-3.55-2.7-8.26,3.59,3.4-11,5.53-6,8.35-12.47.23-1.51-.89.23-1.53.82-.23-3.71,3.11-5.14,2.89-8.86-2.9,3.63-2.67-2.09-5.12,5.65-3.64,5.55-.91-4.14-3.11-2,1.3-3.86,4.09-8.87,3.6-4.82,3.81-9.89-7.34,5.43-2-8.47l-5.4,7.16c-.21,2.86-1.39,5.11-2,7.67-2.63,2.6-.42-2.77.54-6.9-6.65,10-4-1.91-5.24-9-5.21,6.71-4.3-7.39-9.76-3.05-2.94,6.61.61,2.45.31,5.65-3.66,7.11-6,3.45-7.37,2.24,2.53-7.32,2,1.27,4.62-5.95.42-3.82.57-6.37,1.86-9.6-2,2.35-7.07,10-10.48,14.64-2.33,1.15,2.15-8,2.22-11.23-.33-1.41-6.42,5.51-2.12-3.26-5.76,6-7.15,2.27-8.79-.82.52-5.16,4.88-7.52,5.39-12.69-3.6,2.91-3.28,8.7-6.6,11.85s1.75-8.11,2.7-12.85c-2.09,2.26-1-2.32-2.38-1.71a33.78,33.78,0,0,0,3.95-11.93c-1,2-3.11,5.69-2.81,3.5-2.5,3.4.68,1.15-1.38,6.38-3.1,4.42-1.77-.72-2.37-1.71-2.32,3.21-1.2,5.85-.44,5.23-1.4,3.33-3.21,6.32-4.8,9.48-1.31-.49,1-5.6-3.08,1.45,1.59-7.2,2.59-4.69,4.8-9.46.51-4.66-2.61,2.47-4.71,5.84-2.47,1.27-2.27-3.15-4.2-3,1.86-4.22,4.77-7.67,6.75-11.78-.36-3,3.54-14.83-.23-11.25,2.8-9.26,4.68-14,2.48-16.77-.56,3.34.34,4.28-2.2,9.55-2.75,3.29-2.7.69-3.28-.56-1.91,2.35-2.21,5.81-4.54,7.83,1.43.19,0,9.26,3.53,2.56-1.36,3.35-2.57,6.81-4.9,9.43-1.38,0,3-8.24-2.73-.13,0-3.7,3.36-5,3.36-8.66-3.73,8.49-5.24,7.06-4.62,2.15-3.23,4.68-2.73,6.79-1.48,6.38-1.76,2.28-1.56.49-3.46,3,1.21-3.48,1-8,3.19-10.75-.15-1.13-6.19,5.77-1.37-2.93.28-3.27-7.39,11.11-6.92,6,.82-2.52,2.73-4.2,4.22-6.18-1-2,0-11.55-4.63-3.58-1,.83-1.87-3.13,1.52-6.33-3.07-.82-10.72,5.43-19.61,20.82-.92-.06-.86-2-2.74-.21,1.12-5.42,5.58-8.3,6.28-14.07,4.08-4.35,2.26-.7,2.33,1.77a26.25,26.25,0,0,0,7.41-13.19c-.95,1.15-1.23,2.83-1.77,4.33-2.14,1.88-4.67,4.51-3.28-.64,1.25-4.35,1.13.21,3.89-4.56,2.09-6.28-3.45,2.61-.93-4.49-7.16,12.86-5.72,1.16-4.34-7.13-3.42,4.19-9,13-7.34,15.17,3.08-7.38,3.05-4.07,3.12-1.39-.91,2.63-1.77,2.16-1.56.71-2.64,6.52,2.65,4.25,2.87,7.83-4.74,3-8.05,1.39-11.17-.88S690,244.41,685.73,245c.66-2.05,2.17-3.38,3.39-4.94.27-2.59.07-4.26-3.69.87,4.06-9-.55-2.1.56-7.26.81-3.79,5.17-4.81,5.25-9.2-5.67,8-3.56,2.4-4.37-1.63-4.46,6.17-7.94,9.83-4.81,0-4.26,5.45-2.87.33-7.14,5.78,3.45-10.48,2-13.27-.42-15.08s-5.62-2.82-5.67-9.43c-3.11,6-7.11,9.89-3.13,1.27-2.83,2.17-4.25,5.54-6,8.65-.68.26-1.4.56-1.09-1,2.36-3.91,4.24-8.18,7.5-11.31,1.3-6.55-6.58,10.81-3.69.81-5.71,9.13-4.33,5.36-6.19,4.55,1.18-3.59,3.59-6.15,6-8.62-6.66,5-7.2-4.56-18.27,10-3,1.86-.51-2.53-.71-4.51,1.52-4.64,5.25-7.37,6.55-12.17-3,2.69-4.82,6.41-6.62,10.14-.53-2.58-2.62,2-5.25,3.41,3.22-7.71,10.16-15.25,11.33-14,.58-2.48,2-4.22,1.51-2.65,1.23-4.57,2.38-9.47,1.83-11.72s-2.74-1.94-8.32,4c1.08-4.39,5.3-5.92,6.12-10.53-5.26,6.62-3-4.16-5.25-4.78-1.79,1.73-2.82,4.18-4.66,5.85,1.2-2.27,2.91-4.07,3.61-6.81-1.22-.43-1.37,1.51-4.16,4.31.81-1.94,2.42-3.2,3.11-5.27,2.08-6.46-1.81-2.84-5.22,3.37.78-2,.69-2.53,0-2,.77-2,2.35-3.28,3.64-4.77-2.31-2.49-.36-15.5-7.86-7.09,1.93-9.28-3.2.81-1.54-5.45-7.57,9.08-7.41,6.68-12.65,10.74-1.5,4,0,3.14-.56,5.6-3.61,3.89-.16-3.75-3.14-.89.79-2,2.38-3.24,3.7-4.71-1.29-2.13.35-9-.89-11.15.82-2,2.4-3.23,3.74-4.72-.42-1.28,0-3.86-3.11-.88-4.8,6.71-5.46,3.94-5.92.36s-.75-8-4.92-4.52c1.65,4.93,4,8.8,4.92,15-3.1,2.36-2.39-1.44-3.09-2.94-4.22,5.76.44,2.72-.62,5.6l-6.4,6.28c.84-2.61,2.46-4.51,3.27-7.2-4.26,1.32-11.69,13.42-11.17,5.91,2.62-4.73,5.16-3.84,8-6.82,1.82-3.11,3.07-6.69,5.43-9.29-1.69,1.42-13,16.1-11.2,7.95a19.29,19.29,0,0,1,5.43-7.25c1.83-5.58-9,9.18-8.53,4.3,1.12-4.45,5.11-6.19,6.06-10.78a5.66,5.66,0,0,0-1.63,2.57c-2.18,3.55-1.78-.67-6,6.73.24-1.52-.39-4.87-4.28,2.14.07-1.61-2.6,1-1-3,3-4.74,7.79-7.76,10.37-12.88a48.53,48.53,0,0,0-6.44,4.23c1-3.28,3.23-5.22,4-8.69-2.65.29-2.94-3.07-4.47-4.51,1.47-3.54,2-.62,5.43-5.16.64-5.8-11.3,11.41-6.72-.39-1.26.67-6.32,7.09-4.85,3.6-2.95,3,.48,1.2-2.38,6.1l-3.26,3.06c1.7-6.34-3.15-2.8-1.12-9.59,4.27-6.56,6.82-5.32,3.58,1.48,2.74-2.46,4.87-4,5.35-3.09-1.1-.39,3.18-11.7-3.95-4,1.54-4.84,5.34-7.35,6.87-12.16-7,8.12-9.44,4.48-12.08,2.69,2.54-5.19,1.77-.74,4.39-4.07-1.12-.94,2.28-4.81,3.65-9.06-3.85,2.46-2.82-2.27-7.32,1.13,3.5-9.6-2.87-.12-11.22,5.51,1.56.36,4.66-1.56,4,2.06,1.65-1.16,2.56-3.08,3.45-5,1.92-1.19,2.58-.56,1.94,2-.9,2.75-3,2.6-2.69,1.52-2.43,4.38-7.77,18.34-1.2,11.54-4.27,8.32-1.08,10.54,2.66,9-1.86,4.25-4.23,7.08.4,2.51-3,10.92-1.59,15.41,3.55,14.16-5.66,8.86,1.53,4.65-4.67,12.22,2.15-2.24,2.78-1.06,4.81-1.56,1.16-2.85-.12-2,1.23-5.09,1.3-.71,1.85-.29,3.18-1.05a21.32,21.32,0,0,1-4.41,6.14c-2,4.77.65,2.42-1.3,7.16,1.59-1.22,2.41-3.2,3.83-4.61-1.82,4.31-3.22,8,1,3-.8,2.33-2.67,6.32-1.16,5.07-.92,3.25-4.65,3.87-5,7.7,7.44-9,9.11-.33,5.76,7.52-.93,3.9,2.85-3.7,4.34-4.17.77-.56.51.5,1.61-.57-.9,3.94-3.49,6.34-4.39,10.29,6.9-6.61,5.84,3.72,6.9,8.54,3.67-4.32,3.35-2.24,5.87-4.71,2.2-7-4,3.72-3.18-1,3.19-3.49,2.29-2.51,5.38-9.3,6.91-6.84,5.61-.92,2.07,6.08-3.63,4.07,2.28-7.29-2.11-2,1.09,1.25-3,9.27-6.43,12.42,1.71,1.55,1.11,6.87,2.67,8.68-4.88,6.73-2.86,4-3.7,8.81-1.95.88-1.62-2,.5-7.73-2.07,2.14-2.48,5.83-4.8,7.8,2.15-1,.76,3.86,2.19,4.09,2.8-2.88,3.85-7.27,5.29-11.41,2.63-.42,1.78,4.92,7,.24,2.31-3.29,3.87-7.28,6.33-10.44,2.81-.52-4.09,6.84-4.18,10.36-1.22,2.74-1.14.73-3.19,3.18-3.79,10.38,3.36,7.78-.67,19.42,7.24-6.43,6.08,1.18,8.22,3.31-3.2,7.42-5,4.49-9.44,11.65-1.36,6.74,7.3-7,.22,6.17A59,59,0,0,0,607,231.89c3.85-1.49,5,1.64,5.09,6.54,6.52-9.68,6.2-4.14,7-1.84-.75,2-2.33,3.3-3.62,4.81-1.28,1,.34-3.05.89-5.21a10,10,0,0,0-2.58,3.71L611.71,242c-.9,4.25,4.62-2.62.8,6.7-2.71,3-1.45-.92-2.73-.43-4.45,6.8-.29,4.86-.79,7.28-8.31,9.59,1.09,3.87,0,9.76,2.26-4.25,7-11.56,8.26-10.71-4.66,6.14-3.09,7.36-7.44,15.28,1.29-1.49,1.75-1.54,1.62-.57,3.64-7.81,5.08-5.28,9.29-11.82.2,1.67-1.62,11.35,4.17,5.43-1,4.45-3.9,7.18-6,10.66-.25,4.74,1,6.47-.36,11.39l4.14-4.34,1.81-6.31c-5.29,6.64-1.49-3-2.46-4,4.58-4.62,1.23,4.93,5.55.76-9.06,16.23-.65,9.57-2.56,19.3.11-2.52-2.92.62-1.91-3.54-3.79,6.64,0,6.13,1,6.73,2.24-3.38,4.08-7,6.47-10.21,2.7-.71-3,7.65-3.67,10.6,1.92-2.45,1.61-.85,1.19,1,4.61-8.35,6-7.18,3,2.43,3.89-9.59,2.06-2.6,7.62-9.31-2.3,8.8-5.67,4.84-7.27,13.42,5.87-9.51,5.56-5.94,9.66-11.52-1.91,7.48-5.13,5-7,9.77,1.42,1.24,1.78,1.39,6.32-4.57-1.71,6.83-2.7,2.39-4.95,7.6-2.43,11.56,4.4,1,8.92-.63-1,3.7-3,6.57-3.5,10.62,4.64-5.23,2.79,1.75,6.07-.93-1.5,3.91-4,7-5.68,10.78-1.76,2.24-1.37.41-2.64,1.73.39-3.52,2.89-5.36,4.27-8.09-2.56-.05-5.68,4.33-6.72.46.17,3.21-1,9,1.84,7.14-1,4.63-1.92-.82-3.48,4.93,0-3.72-2.19-3.52-2.85-6.07-1.23,1.6-1.52,3.91-2.87,5.38-2.69,1.93,2.36-5.42,2.05-7.92-1.78,2-2.35,1.69-2.25.14-9.09,16.68-.94-6.13-8.21,3.12.8-4.42,4.67-8,3.12-9-3.79,4.69-5.51,11-9.36,15.62-1.33,4.61,2.15.37,1,4.59,1.27-1.53,1.63-3.82,2.28-5.85,3.56-3.88,2.63.55,3.08,2.42-2.42,5-2.21,1.55-5.57,7.07-1.76,0-1.8-3.2-5.18-.22.79-4.41,4.68-8,3.14-9-12.64,18.05-11.7-1.47-16.14-3.58,1.77-3.71,5.15-6.13,6.55-10.17,2.5,5,3.56,12.66,7.95,14.34,3.17-4.36,1.26-5.94-1.83-1.48,1.58-5.39-.37-5.09,4.22-10.12-1.6.26-3.3.69-4.47.15,1.69-3.75,4.75-6.41,5.28-11.14-5.18,6.91-4.11,4.13-4.9,1.74.58-4.05,3.69-6,4.29-10.07-.81-4-6.3-1.06-10.44,3.07,1.27-2.22,1.86-5,3.45-6.91,2.92-3-3.71,6.86,1.19,1,1.13-6.66-3.26-3.5-2.33-9.76l-7.37,7.59c1.42-4,3.41-7.64,4.28-12.09-6.34,8-4.19,9.35-6.38,14.24-3.81,3.83,3-10.91-2.52-4,1.65-6.48,7.25-9.64,8.53-16.37-1,1.08-1.4,2.76-2,4.2-2.46,1.39-3.66.57-4.39-1.06s-1-4.12-1.56-6c-4.48,4.67-6,12.09-4.39,12.09-2.49,1.53-10.91,13.19-8.57,6.39,2.37-5.43,2.13-.51,4.72-5.82,2.85-6.4-3.07,2.26-.22-4.14-3.63,4.52-3.89,7-6.85,7.94a15.94,15.94,0,0,1,4.63-7.91c1.52-6.73-7.63,9.35-6,2.71,1.87-4.31,6.22-6.51,7.26-11.57-2.9,2.12-4.38,5.49-6.87,7.93-.75.25-1.49.53-1.17-1,2.46-4.32,4.1-3,7.37-9.5-1.81-.68,1-4.55,2.85-11.45.17-7.16-6.68-2.83-9-3.91,7.3-8.08-1.38-9.36-1-14.89,4.33-6.84,2,3.31,7.64-3.29,1.58-8.42-8.67,3.42-5.12-6.52-1.35,1.5-1.85,3.72-2.62,5.71-4.59,5.61-1.79-.86-5.43,3.19,5.78-14.76-4.39-5.18.34-16.05-6.24,3.66-3.33-4.83-10.9,2.13.75,1.36-.78,2.06-2.15,6.2-8.33,5.57-.1-9.75,6.45-20.61-4,4.53-6.63,10.23-10.35,15-.24-2.63-1.91-3-1.11-7.21,1.76-3.81,3.35-1.68,6-4.65-1.61,3.24-1.22-8.47-3.28-7.14.11-1.78,4.58-8.75,3.3-5.14,3.91-6.21-1-1.13-1.63-1.52-1.38,1.45-1.94,3.67-2.76,5.64-1.28-.79-.31-5.84,0-10.14s.16-7.93-3.64-5.78l2.86-7.68c-2.18,2,.16-2.89-3.25,1,6.64-15.76-4.56-4.49,1.64-19.43-6.73,4.29-5.79-3-2.7-13.24,4.13-2.64,6.07-5.36,9.37-7.57-2.78-2.13-11.34,4.12-7.21-5.06-7.21,10.8-12.48,14-20,26.71-.38-2.65.66-7.34.48-10.23-3.78,5.66-3.31,7.88-3.06,10.38s.31,5.2-4.38,12c-2.54,2.42,1.6-4.93,1.86-6.59-5.6,7.7-2.44-1.65-8.26,4.33,3-4,6.05-8.07,7.64-13.62-4.09,6.21-5.81,6.7-9.6,9.43,2.52-5.64,5.42-13.43.3-6.15,1.38-4.3,4.87-8.1,3.7-9.09,2.79-5.29,2.38-3.19,5.13-5.48-.36-2.19-.6-4.55-4.16-2.17,2.06-5.08,6.75-7.38,8.77-12.5-1.79,1.47-9.21,11.18-6.15,4.42-2.19,2.76-4.86,5-5.89,9-3.43,1.34-2.42.48-7.94,6.87-3.53,3.75,3.78-7.83.24-4.08-4.54,3.56-2.86,5.62-4.27,8.53-1.44.36.42-3.94-2-2.13,1.82-3.84,5.77-5.54,7.06-9.93-4.14,5.07-3.48.48-.39-2.56-8.42,8.14-7.81.83-3.64-10.28-2.15,2.79-4.85,5-7,7.86-.74,3.64-1.35,3.3-3.84,9,2.14-1.36,3.1-4,4.21-6.45,3.48.29.28,9.91.18,15.28-5,2.58.35-9.23-4.51-6.8a30,30,0,0,1-1.61,9.11c-3.13,1.85.52-5.72-6.68,1.77,1.86-3.86,5.17-6.16,6.62-10.43-2.12,1.92-1.64.21-3.95,2.37.82-2.76,2.86-4.24,4.71-5.91,1.27-3-2.3.71.3-4.09-5.37,6.8-3.91.76-9.16,7.67,1.62-5.58,6-8.17,8-13.41-3.8,2.73-2.72-4.38.15-8.72-4.85,2.85.86-4.89-2.94-3.24,2.72-5.1,1.82-.6,4.6-3.83,2.48-6.76-2.89-2.88-1.42-8.24-3.35,3.22-4.42,4.39-8.93,10.2.07-2.11-3.21-1.51-8,4.63.73-3.65,4.26-4.21,5-7.85.38-2.3-3.78,1.44-1.29-3.66-3.32,2.16-4.87,5.74-5.82,4.75,2.25-4.94,7.26-6.86,10.17-11.1,3.3-3-4.86,9.22.8,3.08,4-5.94,1.55-7.29-2.26-4.69,1-3.42,3.4-5.18,4.54-8.35-4.42,2.92-10.69,5.1-6.84-.92.55-1.74-2,1.52-3,3.36-1.54-.13-3.63.44.2-6.65-4.07,3.92-2.23.19-6.31,4.11,4.12-2.83-4.35,10.71,2.15,4.79-3.93,6.87-6.79,8.12-7.86,13.78-7.66,6.61-1.33-2.7-1.22-3.72-5.51,4.83-2.39,5.47-6.47,10.78,3.45-3.29,3.93-2.75,1.44,1.7,4.13-3.85,2.35-.11,5.86-4.69,1.24-3.6-1.86-1.17,3.4-7.41,2.22-1.54-2.74,6.35.79,3.1-3.14,5.18-5.49,5.59-5.73,9.31,5.81-8.88.94,1.43,2,2.18-.92,1.59-6.61,8.5-5.34,5.24.82.59-3.6,10.36-.17,8.7-6.93,11.52-.18,6.31-6.77,17,3-.8,6.72-6.25,8-4.56-1.25,2.33-3.46,3.6-5.32,5.28-4.69,9-.05,5.46-1.22,9.74,2.78-2.81,3.48-4.36,3.13-5.47,5.22-5.33,1.82,2,6.33-4.2-.76,1.22-5.4,8.16-2.61,6-2.91,5.21-2.47,3.11-5.3,5.29-1.87,5.89,3.89,1.41-1.3,11.85,10-12.49-2.42,8,6.71-1.56-5.87,7.43-1.11,4.24-5,10-1.62-.12-3.75.45-.18-6.77-8.37,9.39-4.78-1.59-2.2-9-2.82,3.61-5.62,7.18-9.48,9.67,5.6-4.52,4.26,1.81,3.92,6.86s.29,8.77,9.61-1.1c.75,3,3.8,2.89,2.38,8.94,2.76-2.85,3.44-4.43,3-5.5l6.95-5.81c1.13-.3.82,1.43-.18,4.11-3.66,3.18-1.34-2-6.85,3.76-1.57,4.11-.47,4.53-2,8.67,1.54-1.29,3.08-2.57,4.62-3.87.63.2.62,1.3.46,2.61-1.5,3.45-4.22,5.7-7,7.88.45,4.28,9.65-11,8.55-4.16a20.71,20.71,0,0,0,4.15-6.52c2.06-1.59,3.43-2.24,3.37-.85-8.78,9.87-6.65,17.06-8.57,23.39-3.75,1.44-2.47-10.13-9-.53-1.77-1.49-.34-7.46-3.13-7.48-5.22,6.92.49,4.1-.82,7.75-3.7,2.06-1.73-.72-7.51,5.22,7-11.49-.74-2.86,6.68-14.62-4.62,3.17-7.25,8.34-10,13.35-2.67,1.17,2.92-6.7,3.68-9.09-2.75,2.29-2.36.21-6.37,4.24.77-3.49,3.24-5.27,4.26-8.53-5.6,4.86-.88-.47-1-3.23-4,2.51-3-1.95-7.32.94,1-4,4.34-5.58,6-8.9,2.8-.69.93,7.73,7.93-2.48-.14-1.53-4.25,2.39-5.73,2.69a30.61,30.61,0,0,0,3.09-5.51c-5.11,4.21-5.67,4.35-3.27-1.31-4.82,2.9-6.43,9.2-11.27,12.1-.83.48-.52-.58-1.71.37,1.45-4.3,4.76-6.63,7.25-9.82,3.65-6.65-1.07-2,1.52-7.17-1.75,1-2.71,3-3.63,4.9-3.8,1.28,3.18-11.91-6.57-2.66.27-7.26-5.95-4.22-1.85-15.21-5.53,5.2-2.92-.33-4.48-.37-4.79,5.56-5.39,7.23-9.12,10.08-2.82,6.67-1.6,5.09-5.28,12,5.11-5.35,3.43-4.28,8.45-8.59,2.41-.43.3,5.11,6.22,0-2.7,5.21-7.87,7.72-11.46,12-1.73,3.85,3.49,1.72-2.17,8.65.38,3.82,8.8-3.13,3.57,8.2-3.91,2.64-3.3-.78-6.9,1.42-.09,1.85,1.67,1.24-1.49,7.22,4.14-4.85,4.39-4.59,1.09,1.15,8.62-6.56.87,8.91,5.39,7.88-.71,3.64-3.75,4.8-6,6.81-2.54,5.2,1.52,1.48.39,4.79,2.78-4.94,6.05-9.46,8-15.56a53.47,53.47,0,0,1,4.8-5.86c1,.23.66,2.17,1,3.27-1.48,2.78-4.22,4.24-4.84,7.94,2.18-1.31,3.53-3.53,5.31-5.26,1.11-.65-.44,2.36,1.1,1.14-3.18,6-2.69,2.28-6,6.82-3.19,2.36,1.52-6.06-3.37-1.39a72.44,72.44,0,0,0,4.08,10c1.53,3.09,3.23,6,4.82,9a65.13,65.13,0,0,1,7.57,21.32c7.8-9.75,6.91-1.55,2.26,6.54,4.37-4.85,7.22-11.19,11.59-16,3.42-1-3.71,9,.54,6.89-.87,2-2.59,3.07-4,4.46.43,2.9,5.88-1.52,5.17,3-11.09,12-1.65,10.84-6.13,23.23,2.91-1.4,3.29-5.19,4.54-8.12,2.05,2.77.05,3.15.14,8.41,1.78-1.76,2.06-5,4-6.6,1.18-.31,1,1.46.07,4.21a29.29,29.29,0,0,1,6.29-6.48c4-2.78-3.54,7.52,2.37,2.23a16.81,16.81,0,0,1-5.69,7.05c1.05,7.13-2,10.43,4.91,10.85a18.68,18.68,0,0,1-4.51,6.09c7.71-4.82,5.75,5,11.74,2.8a22.32,22.32,0,0,1-3.35,5.14c.93,1.32,4.75-1.81,9.16-5.9a11.26,11.26,0,0,1-5,7.69c5.63.2.16,17.88,12.7,7.31-.73,4.05-4.07,5.78-4.81,9.86-2.22,2,0-3-3.48.9,4.25.5,12.71-4,12.66,5.26,4-5.26.07-6.17,5.85-10.88-1.74,6.82-3.15,12.41-.53,11.63,6-7.43-.91-1.77.25-5.82,4.71-4.73,3.77-.41,5.82-.86a138.68,138.68,0,0,1-8.67,12.41c4.36.87,12.5-6.71,13.07,1.44-.79,2-2.54,3.14-3.18,5.24-1,2.92.35,2.05-.8,5.24,4.2-4,3.72-4.72,6.67-6.21a33,33,0,0,0-3.47,8.9c3.25-1.4,3.89,1.52,5.56,2.75-1.27,4-3.76,3.77-2.85,1.53-3.59,9.06,4.78,1.89,10.26-5.11-.43,4.89-4,7.14-6.9,9.94,2.26,1.89,10.94-7.11,10.6-.87-.44,2.64-5.65,7.06-2.83,1.54-2.95,6-2.92,9.08-1.44,10.58-.75,0-3,.15-3.74,4.72-1.52.94.48-4.09-3.49,1-1.79,5.75,2.23,1.69,1.68,5.36,1.65-3.87,6.42-9.79,5.49-5.22,1.82-2.25.14-1.61,1.35-4.76,2.73-1.37,4.37-.89,10-7.29-.54,4.83-4.8,6.43-5.52,11.09,3.43-3.47,5.1-2.13,8.71-8.38,1.81,3.86,2.92,10.06,6.28,8.95,1.79-3.07,3.2-6.46,6.27-8.49-3.28,8.48-7.41,10.94-5.59,14.83-3.94,4.67-2.68.21-4.14.54-3.77,6.94,3.68,1.34,3.51,4.76,1.39-2.13,2.09-4.75,4.1-6.39-.52,3.63,1.31,2.24-1.89,10.1,3-2.14,3.92-5.91,6.9-8,1.45-.09-4.66,13.28,2.85,4.23-.56,3.39-2.86,5.4-3.15,9-2.76,2.94-2.73.9-3.06-.51-1.23,8.59,1.95,11.25,5.92,12.82,2,.78,4.16,1.29,6.1,2.13a8.74,8.74,0,0,1,4.74,4,42.76,42.76,0,0,1-7.19,9.71c.33,2.63,3.94-.78,3,4.18,2.6-2.44,3.93-5.85,5.41-9.13,3.08,2,1.88,19,14.39,3.36-2.23,6.88-3.7,3.91-6,8.66,2,2,2.75,1.9,3.72,4.72,1.51-2,2.29-4.54,3.9-6.51,3.59-1-.7,17.44,6.44,6.76-.83,3.77-2.88,6.65-3.21,10.77,1.88-.84,6.21-6.47,3.79,1,4.44-6.51,5.5-4.62,6.46-2.13s1.78,5.66,5.68,1.63c-1.65,2.53-1.47,6.37-3.46,8.68,3.28-1.75,7.55-5.54,4.57,5.11,2.52-3.1,3.92-4,4.84-4a27.25,27.25,0,0,0-2,6c2.49-4.12,4.39-2.76,1.4,1,3.06-3.16,4.44-.95,4.9,3.52,2.47-6.21,3.64-6,5.13-5.57-.53,2.06-2.14,3.39-3.39,4.95.71,3.38,3.88,1.76,4.59,5.15-4.63,5.67-1.18-2.63-5.83,5.07.39,2.11.41,5,2.52,3.64-.77,2.56-2.84,4.15-4.42,6.09-1.28-1,1.83-10.87-3.24-4.13,2.45-.69-3.65,9.89-.88,8.6-2.57,6.47-4.24,6.13-6.2,6.7,1-3.67,3.4-6.22,5.09-9.34.45-4.69-3.44,1.9-5.87,5-1.16-.91-3.55.65-2.22-5.25,2,3.18,6.28-7.33,7.3-4,3.13-4.53-1.09-4,4.06-8.21,3.55-3.47-4.49,8.3-1,4.85,4.73-4.53,1.82-3.07,3.36-8.72.76-.25,1.56-.57,1.41,1,1-6.13-7.58-1.38-8.11-7.67-3.21,8.42-2.13.65-5.52,7.18,1.84.81,3.92,1.13,7.67-1.92-8.18,18.82-11.2,9-15.6,12.92.8-8.68,6.71-13.71,8.54-21.7-4.64,8.91-1.11-4.09-6.28,3,1.79-.62,3.33,4.7-1.65,11.78,2.55-10.37-4.27,3.47-3.91-4.65.65-5.12,4.55-7.9,5.19-13l-5.23,5.54c-.4,2.2-.79,4.38-2.07,5.94-6.79,4.43-8.71-.62-14,.88-2.29,7.21,1.31,3.1,1,6.44-4.34,3.13-9.77,4.1-4.89-7.44.42,1.68,2,1.14,5.6-3.29,3.06-4.84-.81-2.92,2.49-7.57-2.9-.23-10.44,9.22-5.54-4.19-3.72,4.91-2.76.95-3.14-.47-1.17,2.26-3.12,3.93-3.91,6.48-.11-6.51-9.65-.18-5.47-11.65-1.82-.52-4.58.72-6.66.62a49.68,49.68,0,0,1,4-6.44c.2-3.77-3.66,4.43-5.36,5.42,1-5.54,4.27-9.4,7.27-13.44-.3-3.52-3.84-2,.26-11.14-3.36,5-5,11.39-9.45,15.58,0,5.64,7.16-11.13,6.36-2.79-2.43,5.65-4.69,8.47-7.2,9.69-4.06.54.47-14.55-4.22-12.78,3.1-8.17,3.54-3.53,6.44-6.42,1-4.73-2.55-1.22-4.84,0a28.34,28.34,0,0,0-2.26,5.88c-1.74.82.44-4.05-2.83,1.59,1.1-7-8.64,5.56-3.53-8.58-3.6,5.9-7,4.57-3.39-2.67-7.53,10.61-10.46,7.52-10.17,1.56-1.64,1.24-2.27,3.32-3.69,4.75.76-5.85-3.49-3.41,1.57-12.23l-7.68,7.39c.24-6.27,5.76-8.3,6.94-13.79-4.6,4.31-5.42,2-5.12-2.16-2.75,4.23-6.7,7.52-9.67,11.57,2.15-6.05,7.71-9.22,9.2-15.84-7.47,12.88-11.36,8.63-10.12,1.34-3.2,1.15-7.66,9.27-8,5.11,2.83-4.6,7.27-9,4-8.43,2-4.24,5.21-7.4,8.62-10.44.58-1.54,0-1.1-.66-.54.3-1.05.61-2.13.91-3.2-3.1,2.62-4.39,6.77-7.53,9.41-4,2.48,2.49-7.9,3-13.26-4.27,4.15-1.05-4.25-4.37-1.7-3.12,8.48-.7,7.75,2.36,5.92a40.68,40.68,0,0,0-3.83,10.58c-.63-2.54-4,3.51-2.17-3.82-3,1.39-2.32,5.93-5.35,7.31,2.39-7.64-1.65-8.6-3-12.34-2.45,3.06-.57,5.81,1.06,4.81-5.66,10.58-8.15,6.54-8.23,2.94,2.8-7.1,2.59,1.48,4.48-4.11,2.4-8.14-4.12,3.57-3.76-1.18,9.54-10.94-6.19-2.37-.85-16.48-4,4.72-8.31,5.63-13.64,10,7.26-11.31-4.23-5.79-7.45-2.54.59-2.16,1.18-4.3,2.6-5.76-3,3.55-1.53-2.17-6.48,2.33,4.91-10.37-2.16-2.1-6.17-1.42,1.43-3.42,4.14-5.69,4.76-9.85-8.37,3.31-6.69-4.61-13.58-4,1.68-3.73,4.45-6.05,3.19-7.26-6.73,10.27-5,2.34-1.52-5.4-4.4,8.41-10.11,12.09-9.81,7.28,3.61-6.87,2,1.82,5.75-4.92,1.08-2.93-.31-2.1.94-5.3-2.64,2.89-3.83,6.65-5.12,5.51,1-2.47,3.61-3.48,4.49-6.08.19-5.17-3-1.95-5.87,2.78-3,.75,5.3-8.05,2.65-7.84-3.91,6.43-6.68,7.29-9.24,7.83,4.45-8.08-.86-1.09,2-8.37-3.64,5.48-4.89,3.48-4.18.18,1.9-3.12,1.68-.92,4.54-6-5.8,7.51-4.83-5.77-12.34,7,1.25-4.63-7.52,5.57-6,.56,2.86-6.4,3.67-2.93,8.7-8.34.23-3.09-2.78-1.39-2.57-4.46-11.33,15.47-10.5,3.95-13.68,5.8,3.36-4.67,6.19-5.18,8.22-6.76a9.5,9.5,0,0,1-3.44,5c-.58,4.15,3.53-2.83,5.94-2.7-1-3.52-2.68-2.3,2.53-14.12-3.27,1.73-3.86,6-6.34,8.5,4.44-10.92-9.36-8.1-9.84-13.84-1,.45-6,2.44-7.64,7.23-5.49,4,.67-8.19-6.59,2,1.43-4.22,4.79-6.55,7.05-10,1.43-.8-.47,3.09-1.13,5.26,4.43-4,4.85-8.64,8.24-8.81-1.46-1.65-4.19,1.74-8.9,3.9a29.28,29.28,0,0,0,2.91-5.57c-4,3.29-1.53,3.7-5.87,9-2.58,1.45-.29-4-5.4,1,.38,10.66,4.78,15.79,8.88,21.32-.36,3.85-4.25,4.27-4.59,8.11,1.19,1.13,2.89-2.19,5.88-4.74-2.22,6.24-7.69,9.3-12.3,13.23-2.43-3,2.49-17.15-6.43-12.56-1.11-.67,1.55-6.66-.14-6.49-3.06,6.44-2.78,5.41-3,1.28-2.85,1.46-3.54,5-5.93,6.87,4.41-11.8-1.31-5-3.21-7.35.91-3.35,3.43-5.06,4.1-8.65-3.75,5.55-7.34,8.23-6.62,4.07.92-3.32,5.15-3.41,5.35-7.43-2.27,2.17-1.81.56-1.25-1.18a25.71,25.71,0,0,1-5.38,5.24c-.63-5.43-1.2-7.76,1.07-16-8.18,10-.14-4.59-6,.28,2.78-5.29,2.25-.32,6-4.6-1.34-.8-3.28-.8-2.39-4.63-1.42.5-6.95,6.55-5.41,3-4.37,6.83-4.22,5.77-9.69,9.49,3.36,1-1.4,9.75,4.26,6.52-3,6.74-4,3.62-6,8.92,3.94-2.4,6.73-6,9-10.12,2.05-1.1,1.74,1,4.82-1.51-5.83,8.19-.93,6.12,1.25,5.55-3.1,6.15-4.69,3.35-9.62,9.55.43,2.23,2.05.12,5.43-3.05-1.07,2.41-3.66,8.15-2.26,10.46,2.35-3.32,5.8-5.55,9-8.07-2.58,4.52-6,8.2-7.67,13.61,3.49-2.88,1.39,2,2.52,2.44-2.43,2.58-3.73,6.22-5.9,9,5.09.89,6.87,6.39,8.38,12.37,7.51-6.13,1.65,6.8,7.49,3-2.84,8.13.56,8.19,3.51,8.55,1.48.18,2.85.43,3.28,1.82s0,3.87-2.28,8.58c3.83-4,2.35-.3,5.42-3.24-2.41,5.61-1.67,6.6-2.52,10-3.44,1.85-1-4.3-7.28,3.58,5.2-6.25,1.37-3.93,1.47-6.83-4.48,4.61-2.24,4.33-2.12,6.21-5.68,4.63-4.87-.22-6.32-1.75,1.13-3.06,4.3-2.71,3.67-.64,3.94-7.05-4.11-3.39-4.63-6.56-2.56,5.52,2.21.43-.34,5.95-1.9-4.45-7.33.71-11.17-.32,1.08-3.84,6.2-3.78,6.45-8.42L332.4,435c.73-7.82-5.62-6.7-10.73-4.09,6.81-5.18,2.25-6.08,1.51-9-2.47,3-5.39,5.2-4.1,6.53-9,7.27,1-7.48-6.3-1.9,1.73-4.61,4.87-7.87,7.69-11.47.46-2.73-6.94,4.26-8.51,6.49-3.53,1.75,2-11.78-5.09-2.8-.57-.58-.21-6.15,2.26-8.4-5.48,4.66-10.09,2.61-9.36-5.21,3.69-1.1,2.72-.19,9.15-5.72,1-3.86,1.3-6.72,2.32-10.56-2,.53-5.46,9.68-4.85,5.82-5.29,5.84,1.54,1.28,1.89,1.9-5.64,8.35-13.39,10.08-8.64-.18-1.68-2.62-15.74,11.23-11.76,1L283,401c.76-3.5,3.71-4.82,5.49-7.3.28-3.29-8.24,5.05-5.6-1.39,2.84-5.28,3.62-2,6.17-4.5-6-.29-13,1.27-8.11-10.44-1.32-.68-1.54-2.8-6.8,1.62a10.93,10.93,0,0,1-4.33,6.35c3.33-7.24-6.12-2.86-3-12,3.15-2.38,6.12-4.53,4.92-1.3,2.59-4.8-.54-8.36-1.7-10.69-6.08,4.48,1,1.15-3.17,7.63-4.17,2.92-2.21-2-6.83,1.55a16.79,16.79,0,0,1-5,5.65c-1.86,4.26.79,1.64-2.55,6.12-.67-.1-1.36-.19-3.11,1.08,5.59-10.8,3.21-8.81,4.5-15,5.68-4.8-.71,5.67,5,.87,2.84-5.29-.28-3,2.58-8.26-3.16,5.49-9,6.35-10,4.76,1-1.92,2.83-2.86,4.4-4.11,3.76-6.63-1.27-2.17,1.37-7.38-2.41,1.82-2.95,5.66-5.1,7.8-5.5,1.94-2.79-6.38-7.32-5.67-5.07,6.28,2.33.67.5,5-.76,1.39-1.91,2.39-2.56,3.91.31-4-3.81.17-7.5.82-5.35,6.83-2.09,6.26,3.12,1.09-1.12,4.67-7.18,5.79-5.13,7.81C229.3,377.6,226.14,376.54,223.05,384Zm83.28,185c4.81-4.12,2.56,2.46,3.12,4.79C305.44,576.66,305.65,573.17,306.33,569ZM393.85,710.3c-4.59,5.1-4.56-2-7.23,7.83-4.33,2-5.52-1.65-6-6.47,4.21-4.66,2.46-.93,8.4-8.81-.33,2.24-1.72,6.38-.28,5.5,1.53-1.4,1.68-3.8,3-5.33C391.84,706.49,397.25,700.52,393.85,710.3ZM1452.06,573.05c1.19-4.51.52-10.77,2.61-4.2C1454.92,573.35,1453.38,578,1452.06,573.05ZM1442,408c2.06-3.46,2.24-5,3.63-14.59,1.14,6.75,1.81,3.12,2.43-1.13a124.2,124.2,0,0,1,2.9,15.57c1.56-5.81-.07-12.12-.91-18.28,3.1,3.62,3.69,18.24,2.38,26.06-3.08-11.47-4.62,8.93-7.43,3.4-1.61-6.71,1.23-3.38.32-9C1444.3,413.54,1442.24,413.94,1442,408Zm-227.32,43.5c-2,5.05-2.52-2.18-4.17.29C1212.47,446.33,1213.69,447.47,1214.63,451.53Zm-118.52-2.83c.35-5.42-2.33-4.87-.5-11.45C1095.33,444.38,1098.94,439.75,1096.11,448.7Zm-84.3-32.22c.6,1.72,2.86-3.27,2.05,4.22C1012,424.93,1009.87,422.43,1011.81,416.48ZM587.51,134.14c-1.21-.89-2.55-1.61-.73-7.1C587.4,128.44,591.54,127.72,587.51,134.14Zm-30.74,105c-3.7,5.7-7.8-.28-1.74-7.76C552.33,239.19,559.8,230.8,556.77,239.15ZM476.34,128.22c1.78-1.74,3.19-3.93,5.34-5.29-1.54,3-.18,2.23-1.53,5C476.68,131,473.71,133.31,476.34,128.22Zm5.5,322.83c-3.34-2-4.52-3.43-6.19-7.15C480.63,441.4,482.19,444.58,481.84,451.05Zm-63.66-53.4c-.47-1.65-4.29-2.19-.94-7.06C418.3,391.34,422.46,391.33,418.18,397.65ZM393.25,359.8c-1.24,1.86-8.46,9.72-5.31,3.24C389.67,359.2,394.92,356.32,393.25,359.8ZM248.8,376.11c.57-2.25-1.78,1.45-3.77,2.6,5.13-8.63-5.08,2.08.08-6.55C251.27,366.83,252.05,371.93,248.8,376.11Zm21.59,76.51c-1.14-.51-5,2.67-2.6-2.63C273.93,445,270.56,452,270.39,452.62ZM289,537.1c-3.47,4.83-5.74,2.81-3.54-3.16C290.11,529.91,289.24,533.92,289,537.1Zm9.41,10.51c-3.35,2.08-4.94-2.78-.83-8.88C296.69,543.34,301.55,539.53,298.38,547.61ZM416.41,227c1.22,2.72,5.86.81,5.42,5.77C415.44,237.29,413.85,232.33,416.41,227ZM273.65,662.64c-3.92,5.61-6.53,3.27-5.09-2.25C274.37,654.8,274.52,657.92,273.65,662.64Zm66.22-214.17c-.91-1.29-4.91,1.87-3.26-3.13C340,442.55,344.47,442.26,339.87,448.47Zm92.94-243.55c2.35-4.09-3.37-.46,2.06-6.59C434.7,200.3,438.92,198.55,432.81,204.92Zm4.58-1.68c-4.72,7.52-.29,2.4-.87,5.67-1.95,1.59-2.43,4.72-4.27,6.42-.81-2.06,2.91-6.24-2.12-2.29l1.92-4.54C433.85,206.76,435.22,204.55,437.39,203.24Zm-6.71,21.38c-1.38-.29-5.62,3.28-2.69-2.87C433.37,216.64,433,219.23,430.68,224.62ZM379.53,386.36c2.12-1.57,3.56-2.15,3.6-.71-4.22,2.77-11.55,15.69-11.15,10.13C375.5,389.36,377.85,391.51,379.53,386.36Zm62.23-156.59-4.69,3.83,1.86-4.54C443.2,224.7,441.64,228.39,441.76,229.77ZM481,137.7c5.92-8.94-1.49-.44-.16-4.61C486.55,125,487.78,132.45,481,137.7ZM388.19,390.37c-1.59,7.3,9.08-2.55,2.28,10.35,5.31-7.47,7.36-5.25,6.06-.55-4.22-1.11-9.69,8.36-16.52,11.4,5.71-11.43-2,.1,3.22-9.34-2.91.43-10,3-6.3-3.76-.29,1.1,2.25,1.54,3-1.34-2.1.52-2.66-1.21-1.45-5.49,3.93-3.69,2.6.24.81,4.89C382.88,393.67,383.45,397.22,388.19,390.37ZM324.11,576.5c-4.21,6.42-5.23,3-5.77,1C321.79,572.34,324.79,572.71,324.11,576.5Zm69.27-210.22c-.76,2.1-1.49,4.14-2.23,6.21-2.82,2.62-4.28,3.22-3.57.7C390.67,372,390.29,367.44,393.38,366.28Zm88.19-207.95c-4.83,4.74,2.64-7.32-3.17-1.24,1.7-4.3,6.48-8.65,5.06-10C491.64,140.21,480.84,155.63,481.57,158.33Zm-35.14,86.89c-3.54,3-8,7.22-5.15,1.19C442.42,246.83,448.91,239.72,446.43,245.22Zm22.93-58.16c4.14-8,13.13-14.11,11-8.19-3.39,4.75-6.53,7.31-7.57,7.33C477.32,179.76,473.37,182.81,469.36,187.06ZM394.44,429c4.29-6.63.29-3.56-3.62.76-.59-1.21-.06-2.83,2.05-6.26-6.38,4.1-2.59-7-9.31-2.46,1-4,7.6-11.09.95-5.3,1.38-4.74,8.18-15,7.45-9.52-1.48,1.35-2.93,2.75-3.4,5.05,9.88-14.16,10.65-6.32,15.39-8.32-.87,2.61-1.75,5.21-2.63,7.83,1.7.55,7.92-5.77,5.51,1-5.87,7.51-9.83,6.28-10.17,2.89-.87,2.09-1.61,2-2.33,1.94.8,1.39-1.69,7.76-.14,8,6.43-5.78,11.66-9.83,9-1.88C400.7,420.24,397.64,426.57,394.44,429ZM451,243.43c2.26-2,2.82-5.73,5.29-7.48-3.38,6.13,3.29-2-.1,4.17-3.77,3.32-6.46,7.71-10.47,10.79.6-1.54,1.21-3.07,1.81-4.59ZM307.26,704.31c-1.84,4.48-7.78,7.66-5.16,1.69C304.18,704.86,309.84,697.85,307.26,704.31ZM341.9,603.54c-6.39,8.11-3.16-6.73-2.5-4.11C339.7,601.66,343.91,597.63,341.9,603.54ZM480.71,194.32l-4.61,3.91c.9-1.95,1.55-4.12,3-5.52C478.4,195,483.9,187.38,480.71,194.32Zm-9.09,37.9a12.57,12.57,0,0,0-4.1,6.55l-5.73,4.85c-.14-1.83,1.35-6,1.89-8.75C465.41,235.31,469.23,232.75,471.62,232.22ZM483,192.38c3.15-3.19,5.57-7.15,8.19-10.92-1.21,3,2.33-.73-.19,4.11-8.35,6.65-1.11,6.23-6.59,12.56,1.52-4.76-6.74.93-.19-8.77Zm-18.6,62.41c5.78-9.5-1.57-2.25-.45-6.84C472.51,237.36,471.86,245.9,464.41,254.79Zm.48,4.79c.24,2.16-5.14,8.29-2.34,6.16,2.51-2.46,3.83-6.1,6.33-8.54l-2.31,6.15c-1.88,1.7-3.91,3.2-4.61,6-2.92,2.66-5.66,5-4.56,1.79a10.18,10.18,0,0,0,3.46-5c-2.77,1.49-3.79,4.68-6.33,6.4C456.41,266.64,461.46,263.9,464.89,259.58ZM450.58,300.1c-4.83,4-5.93,2.55-3-4.88C451.51,292.61,451.73,295.33,450.58,300.1Zm37.26-104.87c3.45-1.68-.7,7.51,3.11,5.32-4.87,4.26-4.75,2.24-6.09.22C486.31,199.35,487.07,197.3,487.84,195.23ZM411.69,422.42l-4.61,3.9q4-9.26-2.57-2.39c.5-1.53,1-3.11,1.53-4.68C410.62,416.19,410.45,420.36,411.69,422.42Zm75-211.21c1.1-3.57-1.6-1.67.19-6.2C490.71,201.16,490.83,205.88,486.72,211.21Zm-131,415.55c-4.22,2-2.65-5.5-6.05-4.86C355.62,613.91,355.63,622.29,355.74,626.76ZM505.4,170.26c1.88-3.08,4.56-5.35,6.91-7.94,1.46-.37,2.12.34,2.06,2.12-2.34,4.05-5.37,7.4-8.13,11,7.46-7.71,6.73-3.71,8.85-3.77-5,9.95-3,9.6-3.91,15.32-5.31,5.75-4.65-2.21-5.22-5.4a21.47,21.47,0,0,1-4.09,6.54c-1.6-1.59-.54-4.22,3.05-7.61-2.22.25-9.11.86-1.58-12.41C502.17,172.89,505.09,167.92,505.4,170.26Zm-26.76,73.39c-4.78,5.95-7.68,8.95-6.8,3.78C473.55,249.51,477.48,240.78,478.64,243.65ZM498.54,189c-.66,2.45.92,1.7-.78,5.65C493.9,198.4,493.88,193.77,498.54,189ZM416.26,426.44c-.15,1.58.47,1.94,2.46.17l-2.47,7.83c6.16-4.22,3.24,1.72,8.53-.51-2.29,2-2.79,5.56-5.57,7.13,1.85-6.12-1.25-4.47-4-3.46-2.22,4.73-4.84,9.16-8.92,12.26.21-2.73-.5-4.06,1.15-9,3.76-3.41,2.56.86,7.11-3.81C417.36,431.35,413.05,432,416.26,426.44Zm-3.16,7.28c-3.62,3-4,.8-1.61-5.46C414.54,426.21,412.89,431.39,413.1,433.72Zm85.35-227.6c-.54,3.73-4.12,4.34-4.65,8.07-2.82,2.33-3.53,1.58-2.15-2.18C493.93,208.67,497.83,205.27,498.45,206.12ZM350.93,675.28c-2.94,2.36-5.94,4.82-4.66.13C350.14,671.49,350.56,673.35,350.93,675.28ZM503.8,194.43c-.88,2.66-2.6,4.47-3.55,7.09-3.15,3.06-2.88,1.11-1-3.16Zm-39.07,119.1a32.18,32.18,0,0,1-3.3,7.19c-2.21.17-5.69,2.25-3-4.91C463.27,310.9,459.6,318.85,464.73,313.53Zm35.8-103.17c-1.85,6.25,4.31.77,2.63,6.79-.68-2.55-8.49,5.32-6.1-1.73C498.57,214.09,499.14,211.83,500.53,210.36Zm-12.28,34.18,4.55-4c-1.66,3.28-3,6.86-5.15,9.67C490.27,244.75,485.65,250,488.25,244.54Zm20.43-49.35c2.65-3,2.89-8.5,6.39-10.62,1.38,1.23-3.65,5.33-4.74,10.17l-5.63,4.92c1.74-3.3-.8-3.46,3-7.63C509.26,191.3,507.75,195,508.68,195.19ZM424.32,443.53c.42-4.15-4.65,4.28-3.8-1.3C424.7,437.63,429.12,436.69,424.32,443.53Zm69-187.89c-1.56-.21-4.17,1.14-4-1.71C494.47,248.8,493.05,253.44,493.29,255.64ZM363.83,695.15c-2.06,1.26-4.88,3.79-3.53-.81C363.22,689.26,366.11,688.52,363.83,695.15ZM485,289.28c.07-2.72-2.65-1.22-.66-6.85C488.47,278.36,487.85,285.11,485,289.28ZM431.59,449.9c2.15.37,2.23,4.07,3,6.66C429.79,460.87,424.76,459.07,431.59,449.9ZM540.44,173.79c-4.17,3.61-.87,1.6-2.87,5.59-4.09,4.57.4-3.63-2.7-.55-3.82,7.86-1,5.91-2.46,10.21-1.29,2.49-6,12-6.22,8.62,3.78-4.26,0-2.58,2.92-7.65-6.18,6.55-1.3-3.31-4.9-.61,3.35-6.91,3.82-8.9,2.49-10.18-1.86,1.68-2.27,4.79-4,6.55,2.33-9.2,7.27-13.15,15.42-22.68-.84,2.68-2.69,4.35-4,6.57,1.84-1.64-1,3.63.46,2.54a34.67,34.67,0,0,1,3.5-7.09c3.68-3.11,1.39,2,5.56-5,.56.68,2.11-.14-.71,5.55-2.18,2.38-2,.33-3.36,3C540.51,169.39,540.59,171.42,540.44,173.79Zm-20.73,51c3-4.66,3-2.27,5-3.49-4.5,8,.56,4.21-.08,8.3-6.23,6.39,1.17,1.18-3.35,9.25-3,1.64-.5-5.2-2.74-4.77-7.06,5.4-16.13,20.61-15.67,14.07C507.51,245.19,519.46,231.68,519.71,224.82ZM381.86,697.45c-1.42,3.33-5.57,4.64-5.69,9,4.42-2.36,5.64-7.13,8.77-10.43-.93,3.29.51,2.44-.28,5.48-6.88,9.14-9.76,10.21-16.05,18.2,2.94-12.41,1.93-11.9,1.2-18.09C374.23,698.11,379.75,694.2,381.86,697.45Zm57.66-240.57c-3.8,4.86-5.81,5.31-5.39,1.27C436.73,456.45,437.91,457,439.52,456.88ZM543.85,154c-2.17,2.06-2.75,5.72-5.14,7.57C536.39,161.93,544,150.73,543.85,154ZM514,246.45l-8.95,8.06c.67-1.93-.65-.85.57-3.63C509.12,245,515,241.69,514,246.45ZM440.59,461.77c-1,3.86.73,3-3,7.37.9-3.12-2.52.77-.41-4.32Zm43.56-124.22c-2.18,7.53-7.5,8.87-6.25,4.53C481.73,337.84,480.33,341.8,484.15,337.55ZM535.75,186c.61.4-2,7-5.13,9.65C531.89,192,533.24,188.44,535.75,186ZM447.39,455.68a4.67,4.67,0,0,0-1.6,2.61c2-1.86,2.55-1.39,2.49.09-3.65,3.21-5.53,3.48-5-.21C445,456.91,447.66,453.86,447.39,455.68Zm14.15-25.54c1.67-5.43-5.06,2.81-3.26-2.84,1.81-1.82,3.68-2.72,4.58-2.36S463.68,426.89,461.54,430.14ZM579.36,100.46c-4.17,5-.63,3.42,1.58-.52-1.34,3.59-3.61,6.29-5.75,9.09-.21-2.44-2.37,1.33-2.46-2.47C575.78,102.92,578.36,100.21,579.36,100.46ZM404.45,725.88c-3.73,4-2.37-1.19-3.21-2.38Q406.79,717.5,404.45,725.88Zm97-368.73c-3.06,3.18-3,1.18-1.35-3.21C503.19,350.76,503.06,352.77,501.47,357.15ZM462.22,495.44c-.78,5.36-7,11.09-4.49,4.13C460.75,496.89,460.71,494.82,462.22,495.44ZM502.8,368.23c4.69-4.29,6.56.13,2.34,7.94,3.1-8.54-3.41-1.19-4.88-2.19C503,370.77,499.66,372.78,502.8,368.23ZM421.55,747.51c-2.7.46-5.5,1.1-4.59-5.15C420.52,740.08,425.08,739.83,421.55,747.51Zm165.57-603.2c.77-2.52-.64-4.89,3-9.71C592,133,590.35,140.09,587.12,144.31Zm-23.21,93.24c-3.13,7.41-.38,5.34-2,10.38-4,3.81-.42-4.52-7.11,3.65,1.7-4.19-.85-1.5,1.54-6.75C560.36,241.55,559.29,242.58,563.91,237.55ZM499.62,457.91c-1,5-2.74,9.39-6.53,12.2-.47-1.87,3.17-9.05.76-9.06C498.42,455.43,495.94,462,499.62,457.91Zm99.7-285.56c-3.76,3.59-7.11,6.46-6.93,3.72C596.13,172.56,601.41,166.54,599.32,172.35ZM550.45,314c-3,3.24-2.89,1.27-1.31-3.13C552.14,307.58,552,309.56,550.45,314Zm21.08-57.35c-3.51,3.13-6,4.6-4-1.45C571,252.22,570.74,255.24,571.53,256.6Zm-6.63,30.14c-1.54,6.56,4.36.67,4.7,4.08-6.59,8.67-6.17,3.22-8.89,2.18-1.46,1.67-3,4.6-1.67.54A29.86,29.86,0,0,1,564.9,286.74ZM535.92,404c-4.83,4.3-6.08,2.32-7.14,0C533.87,399.28,534.79,401.8,535.92,404Zm76.65-237.61c-2.66,2.53-2.74.87-3.69.62,3.16-3.85,5.2-8.77,8.51-12.46C616.36,159,613.74,162,612.57,166.35Zm-7.4,1.26c3.62-6.92,1.18-4.6,2.76-9.74,2.6.38,12.76-12.57,7.34-1.24C612.51,157.29,609.26,162.84,605.17,167.61Zm.45,10.71c2.73-5.84-3.57-.42,1.11-7.19,1,.78,3.13-.16.48,6.63a13.67,13.67,0,0,0-3.74,6.77c-2.94,2.52-4.31,2.48-4.24.1C601.25,182.35,603,183.74,605.62,178.32Zm-26.27,93.09c.83-3.38-2.82.78-.75-4.65C581.73,263,582,267.81,579.35,271.41Zm-3.48-3c2.67-2.32,2.76-6.88,5.76-8.92C581.5,262.91,575.8,271.34,575.87,268.39Zm-8.07,30.77c3.6-4.09,3.49-1.88,5.45-3.2-2.51,6.29-.83,5.46-.73,7.34-2.82,1.54-2.36,2.23-6.41,6.34,2.44-5.53,3.26-7.93-1.3-3.14A33.19,33.19,0,0,1,567.8,299.16Zm-57.62,236c-4.21,5.19-4.42,1.56-7.62,7.51.25-1.08.49-2.15.74-3.21-.65.56-1.23,1-.72-.55C506.62,533.13,510.58,530.4,510.18,535.19ZM459.48,763c0,2.76,2.77,0,0,5.5C455.5,773.45,456.21,766.46,459.48,763ZM612,174.05q-1.68-.28,0-6.13C616.9,161.58,613.55,172.05,612,174.05ZM527.35,483.77q-4.77,3.33-4.12-3.22C526.44,478.31,527.79,479.41,527.35,483.77Zm89.59-291.2c.42-2.18-1.48,1.72-3.17,3.19-.46-2.19,4.11-10-1.15-5-2.83,4.39-.32,4.64-4.69,9.87-1.15-.84-.4-3.77,2.56-9.79C616.42,184.72,621.23,184,616.94,192.57ZM543.88,427.71c.38,3,6.15-3.65,3.54,4.76-4.13,4.32-4.12,1.14-7.33,3.75A17.68,17.68,0,0,1,543.88,427.71Zm42.46-138.24c.34.93.13,2.81-1.3,6.81C580.69,301.71,583.14,292.78,586.34,289.47Zm33.88-92a29.08,29.08,0,0,0-3.68,4.78c-.3-.9,0-2.77,1.5-6.71C620.65,193.07,621.36,193.72,620.22,197.51ZM590.74,297.1c-1.15-.28-6.92,7.43-5,1.75C589,295.51,590.74,294.8,590.74,297.1Zm-4.08,29.77c-4.84,5.48-.88-2.56-5.91,4.89a33.14,33.14,0,0,1,2.85-7.41C587.48,320.17,588.48,321,586.66,326.87Zm-5.19-8.16c-2,6.57,5.44-3.28,2.13,5.64C578.23,331.16,577.64,325.44,581.47,318.71Zm33.25-102c-4.77,6.18-2-.5-.65-4.59C617.44,208.29,614.6,215,614.72,216.69Zm-22.83,89.2c-3.86,4.71-2.52.28-3.89.64C591.48,300.41,593.71,300.44,591.89,305.89Zm9.63-7.66c-4.73,4.36-5.61,4.18-9.92,11.29-1.16-.78,1.78-5.06,3.33-8.95,3.53-4.15,3.45-2,5.39-3.31.39-1.73-.84-1.64,1.36-4.73,3.52-1.54,1.45,4.27.13,9.84-1.56,1.95-2.64,4.31-4.64,5.89C597.7,304.17,600.21,301.7,601.52,298.23Zm-3.73,18.34c-5,3.58-6.59,1.21-7.55-2.32C597.62,301.93,598.09,310.62,597.79,316.57Zm40.14-141.35c-2.72,1.16-2.19-3.2-3.2-4.9C637.74,168.67,639.91,168.41,637.93,175.22Zm-15,46.79c-2.13,3.41-6.11,10-5.21,5.35C618.62,225.82,623.8,218.63,622.93,222Zm15.73-32c-.31,4.43-4.65,5.2-5.65,9-.84,3.34,4.62-4.17,2.17,1.94-5,4.85-4.94.89-5.87-1.24C633,194.23,633.05,198,638.66,190ZM591.28,334.55c6.59-6.63,1.92,7.42-3.3,14.78C590,343.26,591.63,340.75,591.28,334.55Zm10-17.06L596,322.9c.69-2,1.06-4.3,2.37-5.83C596.89,321.6,604.67,309.53,601.25,317.49Zm24.21-73.59c-.92,3.81-3.38,6.32-5.57,9,.53-1.93-.7-.76.35-3.61Zm12.63-34.47a47.84,47.84,0,0,1-8.63,14.28C630.87,217.86,636.69,209.19,638.09,209.43Zm-30.15,92.16c4.31-5.44,1.68,3.24-.58,7.3C602.44,313.86,607,306.75,607.94,301.59Zm35.63-89.51c-.91,2.82-1.25,4.63-.86,5.15-3.19,2.09-.4-3.58-6.29,4.52,4.3-8.71-.5-2.72,1.27-8.74C641.74,209.05,639.29,216.45,643.57,212.08ZM643.9,232c3.38-10.69-6.77-1.23-2.14-11.64C643.07,222.35,652.18,217.76,643.9,232Zm-1.69-1.44c-2.05,2.21-2.57,5.67-5,7.51.29-1.77-.59-1.43.83-5.18C640.33,232,642.35,227.07,642.21,230.56Zm12.08,4.35c-2.15,5.66,1.92,0-.22,5.67-2.23,2-3.94,3.13-3.74.76C651.9,239.39,652.8,236.9,654.29,234.91ZM633.37,345c-1.43-.17-7.85,3.53-1.29-6.69C630,344.84,636.49,339.33,633.37,345ZM595.1,511.51c-.19,4.88-6.36,11.91-5.49,7.18C592,516.69,592.45,513.32,595.1,511.51Zm40.89-174c-2.82,3.43-1.8-.45-1.46-3,2.11-1.78,6.78-10.93,6.52-8.23C638.9,329.67,637.77,333.88,636,337.55Zm7.3-11.42c-.42,5-6.85,13.61-5.89,8.73C639.07,331.74,640.4,328.31,643.29,326.13Zm21.36-73c-3.25,8.4,3-1,.46,6.11-3.87,3.37-5,1.66-6.52.56ZM649,315.33l-4,4.42,1.21-4.78C649.73,310,648.66,314,649,315.33Zm-8.58,31.37c5.16-5.62-1,5.6.31,7.85C638.46,356,637.74,352,640.37,346.7Zm.54,10-1.54,6.4c-3.16,4.36-6.34,4.43-2.52-1.95C636.07,364.89,640.17,357.82,640.91,356.66Zm-33.17,160.2c-1.26.29-.45-3.63-.46-5.88a23.16,23.16,0,0,1,8.17,3.68c2.43,1.85,4.37,4.7,5.43,9.46-6.28,9.14-.55-6.81-5.62-.19-.63,3.92,1,2.91-2.22,7.62-1.65-1,1.87-6.46,2.11-11.33-2.45,2.94-2.8,1.52-3.19.19s-.8-2.59-3.44.71c.36,1.89,2.05,1,.2,7.49-2.61,3.4-1.66-.54-4.81,4-.31-3,5.48-10.52,2.58-9.27-2.59,2.46-2,7.2-5,9.37-1.17.42-1.24-1.4-.8-4.28C602.75,524.37,606.2,521.29,607.74,516.86Zm42.47-189.11c-2.47,8.65,2.26,3.41,1.49,8.8-3.63,4.86-4.88,10.26-7.84,11,.39-4.77,3.39-7.49,5-11.32-1.77.92-1.78-1.57-4.87,1.88C644.74,333.61,647.41,330.61,650.21,327.75Zm19-65.29c-3.29,3.63-7.3,8.55-5.78,3.08C665.53,264.16,670.48,257.39,669.18,262.46ZM635.34,390l-4.07,4.49c.36-1.6.73-3.22,1.1-4.79C635.12,386.35,636.6,385.47,635.34,390Zm26.07-25.58c1.12-.78,1.57-.26.92,2.53-5.85,5.44,1.49-12.66,1.38-15.81l-5,5.65c1.67-10-1.47-10.24-5.2-9.46-3.66,6.48-7.25,11.06-8.83,12.18,5.23-10.68-3.08,2.83-1.13-4.61,5.71-5.72,9.49-8.83,15.13-16.87-4.08,13.55,6.3,2.82,9.5,3.32-1.66,2.53-4.72,4-5.36,7.25,3.11-3.05,3.5-.68,6.87-4.25.27-1.71-.94-1.6,1.1-4.79-1.14,5.48,6.11-1.47,2,7.11.29-4.81-7.27,3.92-9.31,11.8,5.09-9.81,6.49-1.23,4.43,3.27C666.91,360.61,665.49,354.06,661.41,364.44Zm8.07-12.74c1.48-3.06,4.7-5.8,5.58-5.19-2.72,3.92.86,2.17-.82,6.86C670.48,357.23,670.36,353.69,669.48,351.7Zm-1.73-86.53c2.41-.64,3.39,1.43,3.67,4.85C668.63,271.63,664.18,273.12,667.75,265.17Zm-12.51,57c.19-2-2.82,2.14-.42-4.15C658.92,311.32,657.61,319.07,655.24,322.17Zm3.73,8.58c-2.7,3.27-6,3.48-2.09-3.45C656.66,330.25,659.18,327.84,659,330.75Zm15.8-60c-2.1,4-5.21,5.92-3.77.84C674.35,267.32,674.58,269,674.77,270.76Zm-51.9,260.16c-3.21,6-2.65-.43-6.38,8.42C616.52,534.26,623.72,526.08,622.87,530.92Zm4.61,1.29c-2.86,6.11-3.84,3-8.1,9.08l.88-4.87C623.73,532.81,628.13,527.12,627.48,532.21Zm39.19-193.8c-1.3.52-6.18,3.81-2.11-3.47C664.73,337.15,667.72,333.78,666.67,338.41Zm15.54-46.62c-2.73,3.45-4.15,4.32-2.81-.2C682.12,288.17,683.52,287.3,682.21,291.79ZM672.09,363c.57,1.19,2,.67,2.53,1.88-3.35,4-5.93,9.2-6.55,6.3C670,368.9,669.92,365.12,672.09,363Zm.67,17.28c-.67,2.88-.86,4.77-.39,5.29l-2,2.3a5,5,0,0,1-1.32,2.73c1.24-7.58-3.32,5.6-5.29,7.28.22-2.58-2.22.32-.28-5.77C667.27,388.65,669.49,384.1,672.76,380.29Zm8.21-27.5c-.7,2.57-1,5.5-2.4,7.55-.23-3.63-5.62,3.26-3.07-6C679.23,351.2,677.18,357.91,681,352.79ZM606.63,841.3c0,4.69-2.63,7.82-5.52,10.8.24-2.35-.16-3.11-.6-3.82C602,844.52,605.52,840.53,606.63,841.3Zm39-302.25c2.54-2.12,3.16,0,2.34,5.22-3.41,4.32-8.28,14.79-7.67,7.5C643.91,546.85,646.76,542.71,645.6,539.05Zm32.62-149.3c-1.31-.74.66-5.67,2.65-9.17-5.43,5-8-.8-4.06-12.2-.16,4.1,1,5.78,2.76,6s4.08-1.23,6.24-3.17a40.91,40.91,0,0,0-4.64,11.5c3-5.87,3.29-6.26,4.91-5.75-.35,2.78-2,4.72-3,7.09,4.2-7,1.85-1.9,3.27-1.39,1.76-6.35,4.36-6.22,3.24-1.38-2.22,4.77-3,2.44-6.86,8.06C681.25,386.17,683,382,678.22,389.75ZM712.43,254.5c-1.27,6.83,6.35-5.47,7.56-5.54-2.22,8-3.56,5.66-7.93,12.77,2.14-5.93-1.48-.27-3.12,1.4A20.32,20.32,0,0,1,712.43,254.5Zm-23,110c.21,3.45,1.57,4.5,2.21,7.07-2.35,2.24-4,3.06-4.87,2.1C688.38,372,684.59,370.92,689.42,364.52Zm22.81-80.07c-1.74,3.67-6.44,9.65-5.44,5.27C708.28,288.64,712.94,281.07,712.23,284.45Zm11.63-28.75c-3.21,4.66-2.15.61-5.39,5.29-.84,3.85.65,2.79-2.47,7.5,0-2.43-3.86-1.41.14-9.3C719.36,256.13,724.26,249.69,723.86,255.7Zm-33.25,128c-2.5,7,4.54-1.81.33,5.74C689.31,390.37,685.68,391.48,690.61,383.73ZM708.13,328c-2.22,1.15-3-.61-5.06.09C705,324.36,711.28,321.13,708.13,328Zm13.31-59.13a29.25,29.25,0,0,0-3.26,5.05c.61-3.25-2.33-3.42.7-8.87C718,269.86,723.24,262.17,721.44,268.89ZM705.53,390.57c-3.9,2.72-7.14.43-10.36.05-1,3.57-1.73,7.36-4.2,9.91,5-12-.06-3.82.61-10.58,3.76-4.61,4.74-4,8.75-14.09C695.37,392.64,705.12,382.54,705.53,390.57ZM635.71,856.05c-.59-3-5.47,4.79-4.42-2.41C633.4,852,638.62,849.43,635.71,856.05Zm36.41-301.6c-1.2,4.92-.48,5.42,2.21,1.4-2.25,9.47-10.5,17.21-10.53,11.15C668.56,562.48,668.62,562,672.12,554.45ZM726,276.13c-3.34,1.9-3.42-2.95-5.31-4l2.89-3.46C723.28,273.41,726.27,271.38,726,276.13ZM690.22,440.26c-1.14-1.41-5.47-.92-2.15-8.82C687.84,435.82,694.41,430.35,690.22,440.26Zm9.34-30.06c-1,7.26,3.18,3.19,2.76,9.24-4.81,5.11-6.86-.92-5.66-5.77C696.44,415.89,698.56,412.25,699.56,410.2ZM729.7,275.12c-1.57,1.92-1.52,5.05-3,7.08.55-3.4-2.68,1.09-1.08-4.48C728.08,274.62,730.35,271.8,729.7,275.12Zm3.75,8.22c-3.63,4.82-4.37,3.53-4.32.6C730.83,283.19,734,279.37,733.45,283.34Zm-25.31,109c4.78-5.13,2,2,.42,9.48a27.64,27.64,0,0,0-4.13,6.21l.61-3.22C708.73,398.51,708.87,395.49,708.14,392.38ZM739.61,261.9c.8,2.79,5.28-2.23,3.43,6.2-2.18.2-5.92,9.57-7.59,9.31-.26-4.06,6-12.68,4-11.91-2,2.91-2.74,6.67-5.47,9C735.12,269.77,737.51,266,739.61,261.9Zm-2,24.48a30.94,30.94,0,0,1-5.1,7.43c2.31-7.22-1.37-1.69.19-7.28l1.9-2.3C733,290.27,736.78,284,737.65,286.38ZM718,402.79c-1.45-1.24-11.75,9.19-5.3-3.51C711.82,406.44,719.23,395,718,402.79Zm.13,29c-2.13,2.21-3.81,3.39-3.93,1C716.08,428.6,719.19,426.53,718.17,431.76Zm7.08-15.15c-.69-4.43-10.5,2.91-3.9-11.59C720.28,413.55,727.88,407.68,725.25,416.61Zm-3.33,42.8c-3.1,4.48-3.55,2.79-4,1C719.88,456,722.19,455.79,721.92,459.41Zm6.65-22.58c-3.19,13.13,2.95,4.61,2.77,10.8-4.83,8-5.6-1.66-7.75-3.3C725.76,442.16,726.13,438.82,728.57,436.83Zm3.09-5.16c-1.24,8.85,6.71-9.18,6.18-1.33-3.88,3.63-2.41,2.86-5.89,8.72C730.78,438.82,727.28,438.86,731.66,431.67ZM742,442c-3.44,5.08-4.62,4.76-4.85,2.24C739.34,439.15,743.92,434.17,742,442Zm23.34-119.69c-4.32,6.78-3.46,1.73-4.35.7C762.67,322.23,765.72,318.32,765.31,322.33Zm1.82-6c-2.53,3.86-4.16,1-1.24-4.48C765.18,315.89,769.51,308.46,767.13,316.32Zm-2,18.56c-1.75,2.44-1.55,6.18-3,8.84-2.5,3.55-3.87,4.5-2.82-.12C761.36,341.82,764.36,331.63,765.1,334.88Zm12.46-29.61c-1.11,2.16-4.34,6-6.41,12,2-2.38,1.22,1.5.36,5.66-3.2,2.74-8.46,10.14-7.72,3.82C769.11,321.56,777.48,296.79,777.56,305.27ZM744.81,473.93c-3.17,5.81-4.62,2.14-1.86-2.94C742.89,473.64,746.37,467.64,744.81,473.93Zm28.31-144.47c-2.47,3.57-3.84,4.52-2.79-.09C772.81,325.82,774.16,324.87,773.12,329.46ZM753.45,440.32c2.17-.33,6-.54,3.39,7.47,3.16-4,2.38,5.25,6.65-4.73q-.47,3.27-.92,6.5c-3.06,4.8-2.4.65-4.6,6-.52-4.8-1.51-5.51-5.75,3.48-.33-3.73,2-5.83,2.79-8.91l-4.63,6C752,447,755.45,443.8,753.45,440.32Zm8.89,16.2c-1.45,9.61-8.15,13.08-6.88,6.31,1.37-2.11,1.93-4.69,3.22-6.86C761.32,456.39,756.15,467.17,762.34,456.52Zm7.78-7.56c-.39,6.25-4.19,10.37-7.29,14.93.27-2.47-2.15,1.77-1.16-2.49C766.71,452.74,765.12,458.88,770.12,449Zm-4.29,38c-2.1,2-4.52,4.76-3.72-.55C765.13,482.11,766.24,482.58,765.83,487Zm-5.39,402.57c2-2.46,6.41-3.85,3.62,3.39-.07-4.13-3.4.67-4.6,4.5A26.2,26.2,0,0,1,760.44,889.55Zm33.25-414.11c-1.12,9.64-10.62,17.17-5.87,5.24C787.94,485.27,791.46,475.39,793.69,475.44ZM768.62,890.12c3.35-1.7,9.82-4.76,7.25,6.79-1.92-5.88-3.7,6.74-6.4,10.34-.05-6.13,2.29-11.18,3.7-16.65C769.52,897,766.06,898.37,768.62,890.12Zm14.55,5.15c-.83-1.8-3.36,1.87-3.65-1.67C782.06,884.39,787.06,888.83,783.17,895.27Zm53.25-536c-2.39,2.82-3.48,2.16-3.23-2C836.73,351.46,836.52,355.46,836.42,359.27Zm9-5.06c5-10.64,1.66.62,2.58,1.57,2-8,5.52-12.44,7.64-16.4-.72,7.19-6.48,11.27-7.2,18.42,1.21-2.15,1.92-4.68,3.61-6.57.51.18.73,6.35-1.23,9.79,0-6-16.72,16.43-7.1-4.35-1.27-.88-6.69,3.77-3.45-5.59C843.15,346,847.4,346.52,845.45,354.21Zm7.24-13.11c-3.5,4.15-4.83,2.44-6.38,1.35C849.48,339.23,852.86,335.38,852.69,341.1ZM820.27,885.5c.89,4.65,9.07-6.56,6.39,4.53C824.77,888.25,817.7,896.94,820.27,885.5Zm40.26-546.62c-.45,2.64-.46,5.58-1.66,7.76,0-5.4-1.18-4.35-4.45,2.52C856.4,340.43,858.41,340.84,860.53,338.88Zm.39,19.41c-1.22,5.92,2.68-2.34.74,5.6C859.6,366.54,857.83,363.58,860.92,358.29Zm8.85-33.06a20,20,0,0,1-2.48,9c.1-1.7.72-4.83-.24-3.6-.61.61-1.66,2.44-1.47.86C867,329.37,868.36,327.31,869.77,325.23ZM843.9,892.54c-1.16,2.25-1.6,4.82-3.43,6.76.59-6.38-1.53-3.11-2-5.76C841.26,889.8,843.72,887.1,843.9,892.54Zm29.79-530.38c-1.22,2.73.33,4,.1,5.27,1.24-2.18,1.71-4.81,2.85-7,2.14-.25,0,8-3.53,13.52-1.31-2.3-3.68-1.57-4.25-5.88C871.25,365.57,873.08,361.86,873.69,362.16ZM848.9,907.8c-.07-2.21-.15-4.43-.22-6.64C852,894.93,852.28,904.21,848.9,907.8Zm31.29-535c1.8-1.81,3.15-2.34,2.46,3.14-2.66,4.34-3.29,2.69-3.46-.24A5.38,5.38,0,0,0,880.19,372.82Zm-4.72,520c.49,2.62,2,1.41,2,5.75-1.15,1.48-2.27,10.66-3.33,6.82,2-3.49,1.79-7.51-.2-5a32.3,32.3,0,0,1-2.35,8.88c-.15-3.3-2.41,1.36-2-4.12C873.13,901.62,872,896.23,875.47,892.8Zm19.44-528.74c.48,3.64,5.52-.27,3.49,7-.29-2.62-2.46.36-3.45-.19-.47,3.37.57,2.18.2,5.26-1.79,2.11-3.86,3.24-5.72,8.88C891,377.86,892.81,370.89,894.91,364.06ZM884.63,896.64c-1.57,3.16-2,6.8-4.07,9.76C880.56,901.79,883.55,891.37,884.63,896.64Zm14.8-521.59c-.45,7.18-2.65,13.37-5.22,19.37.23-2.29-.07-3-.39-3.61C896.32,385.88,896,379.47,899.43,375.05Zm-12.55,530.6c-2.18,3.86-3.66,5-3.63.2C885.44,902,886.91,900.89,886.88,905.65Zm18.28-532.59c-2.29.64-4.84,2.05-5.28-2.9,2.4-.56,3.66-3.06,5.06-2.36a10.88,10.88,0,0,0-1.1,4.53C904.81,371,905.7,369.8,905.16,373.06Zm.77,7.23c-1.18,2.21-1.23,5-2,7.42-3.91,5.18-5.43,2.93-6.16-1.62,2.34-3.29,2.83-7.58,5.15-10.87C903.42,378.38,905.55,376.65,905.93,380.29Zm-4.88,519.59c-2.79,3.78-5.14,7.73-5.66,12.38-.41-4.41-3-.3-3.8-3.1,5.06-8.62.12-6.26,3-11.83C895.33,903.79,899.55,896.47,901.05,899.88Zm12.37-534.3c-.09,2.8-1.21,5-1.36,7.8.8-1.27,1.06-2.84,1.74-4.19.33,4.2-1.56,7.13-3.61,10,0-1.72.53-4.85-.39-3.62a12.92,12.92,0,0,1-2.54,5.44c.13-1.62.27-3.23.41-4.89C911.52,370.68,910.59,372.43,913.42,365.58Zm-1.9,22.84c2.27-3,2.13,1.49,3.34,1.83C911.44,396.89,908.85,397.11,911.52,388.42Zm11-7.63c1.35-.6,3.44-3.57,3.44.16-3.05,6.48-2.28.67-3.57,1.47-.27,1.55-.26,3.26-1,4.56A31.72,31.72,0,0,1,922.53,380.79Zm4.5,14.34c-.18-3.63-3,1.27-2.45-4.71,1.07-1.7,2.27-2.26,2.91-1.52S928.22,391.63,927,395.13Zm-1.57,2.56c.08,1,.53.83,1.46-.94a19.56,19.56,0,0,1-2,9.11c0-2-1.11-.66-1.23-2.36C924.7,401.8,924.57,399.49,925.46,397.69Zm7.36,5.41c-4,6.25-5.58,4.54-6.33.18C930.28,397.69,930.12,405.08,932.82,403.1Zm5.87-15.55c-3.73,9.87-5.47,7.46-6.6,5.07C935.55,386.86,938.41,382.91,938.69,387.55Zm2.79,23.32c-.38,2.63-1.29,5-1.14,7.82-3.1,4.73-5.47,6.88-4.9-.77C937.42,418.16,940.28,414.79,941.48,410.87ZM967.86,399c-2,3.78.9,1-.28,6.54-1.93,4.41-2.9-1.44-1.16-5.53C966.47,402.76,967.71,396.94,967.86,399ZM1116,440.31c.55,2.64,1.8,1.28,1.8,7.05-2.64,6.38-4.25,6.82-5.9,7.48l-.27-4.9C1114.21,447.29,1113.66,448.48,1116,440.31Zm10.51,11.82c-.33-7.88-4.57,4.16-1.94-8.72C1124.79,447.27,1128.15,444.17,1126.47,452.13ZM1239,933.94c-5.32,10,4.55,3.81-1.44,18.25-1.16-6.9-.64-7.29-2.8-8.33C1235.49,939.67,1237.1,929,1239,933.94Zm-6.3,17.18c-.53-1.71-.93-4.89-1.7-3.5-1,3-.8,14.1-3,11.74-.09-3.63,1.4-6.92.4-10.76,2.72-.88,3.44-13.74,6.09-14.09C1234.65,940.21,1235.22,946,1232.7,951.12Zm-68.62-501.67c1.71-3.95,2.47-1.43,3.46-.42-.71,5.23-2,3.22-4,9.74C1162.68,455.35,1164.36,452.74,1164.08,449.45Zm82.29,484.45c1,5.35-.22,10.23-.18,15.41-1.06-3.36-3.07,5.77-3.9-.78C1244.24,941,1244.46,942.07,1246.37,933.9ZM1171,456.53c-1.37-3.48-2.31,6.75-3.31,2.05C1167.84,455,1172.88,446.57,1171,456.53Zm76.68,479.2c1.24-3.38,2.19-3.2,2.9.57-.78,3.65-1.43,6.22-2.38,5.7C1248.85,940.07,1248.27,937.88,1247.7,935.73ZM1282.13,441c-1-5.16-3,4.27-4.09.47C1279.72,433.6,1282.75,433.15,1282.13,441Zm6-1.59c-1.78-1-3.85,2.38-5.34-2.92C1285,430.8,1286.82,430.94,1288.14,439.39Zm3-7c-.61,1.92-1.21,3.82-1.82,5.73-.27-1.64-.53-3.21-.8-4.83C1289.75,427.32,1290.35,431.32,1291.14,432.43Zm122.89,260c1.49,5.27.59,10.23-.63,15.12-2,3.79-5.05,3-8.14,9.48-.48-2.09-1.35-4.27-.94-6.24C1406.37,703.41,1410.74,697.05,1414,692.45Zm11.61.17a28.78,28.78,0,0,1,1.07,9.28c-2.85,1.22-5.65,6.26-8.55,4.84C1420.65,701,1423.19,698.35,1425.64,692.62ZM1358,414.15c-.35,6-3.15,11.82-4.48,8.28C1355.09,414.57,1356.51,415.7,1358,414.15ZM1438.13,679c-3.41,7.84-6.54,10.71-8,23.36-.63-2.11-1.25-4.22-1.88-6.34C1430.81,693.06,1433.13,673,1438.13,679Zm-55-308.54c.58-2.66,1.15-4.17,1.73-4.24,1.84,7.46-1.08,14,1.5,21.61-1.29,1.08-2.58,8-3.88.84C1384.75,389.28,1385.31,379,1383.09,370.49Zm87,315.44c1.49,4.19.26,8.1.6,12.19-1.12-2.38-2,1.37-3.26-4.91C1468.24,689.69,1469.33,691.55,1470.06,685.93Zm-22.51-125.59c1.21,1.95,1.48-8.77,1.88-11.88,1.83,3.25.6,6.13,1.18,9.24.37-.79.77-.38,1.26,1.69-1.91,1.44-3.69-.07-2.35,10.29C1448.54,569.68,1447.63,564.34,1447.55,560.34Zm-20.84-147.09c-1-4.57-1.54,4.45-2.58-1.89C1424.57,404.74,1427.06,407.48,1426.71,413.25Zm10.13,1.53c-1.62,4.61-3.28,8.87-5.27,3.76C1433.37,418.19,1434.83,409.4,1436.84,414.78Zm7.39,4.18c-.83,2.88-1.68,5.85-2.92-.48C1442.13,414.94,1443.09,415.11,1444.23,419Zm-2.07-30.61c1.16,5,1.53,5.08,1.42.23,1.86,5.21-1,11.16-1.86,5.78A30.31,30.31,0,0,0,1442.16,388.35ZM1511,449.82c.5,5.57-1.07,9.14-2.19,8.83C1508.48,454.53,1509.55,445.33,1511,449.82Z"/><path class="cls-2" d="M692.38,233.06c-1.71,2.34.11,1.83-1.85,4.31,9.93-10.56,7.84,2,14.28-1.94-.11-7.09-3.28-8.12-6.52-9.08-1.22,1.57-1.6,3.83-2.26,5.87C695.05,232.05,692.53,234.84,692.38,233.06Z"/><path class="cls-2" d="M183.13,508.53c-1.24,4.24,4.23-.24,5.3,1C187.69,507.84,188.17,504.59,183.13,508.53Z"/><path class="cls-2" d="M267.15,539.52c-2.33,1.25-3.59,3.51-5.41,5.25-.35,1.9,2.63-1,4.35-2.07a25.72,25.72,0,0,0-2.79,5.66C267.51,544.36,266.3,542.93,267.15,539.52Z"/><path class="cls-2" d="M350.21,310.11c-2.32.25,1.23,2.73-3.75,9.16,2.65-2.32,4.47-5.51,6.71-8.26C354.66,306,348.69,315.2,350.21,310.11Z"/><path class="cls-2" d="M315.77,404.28a13.62,13.62,0,0,0-5.36,7.38c2.35-3.22,4-3.74,4.27-2.12C317.73,406.89,314.82,406.46,315.77,404.28Z"/><path class="cls-2" d="M333.65,370.89c1.37-2.15,3.38-3.7,4.19-6.46a26.91,26.91,0,0,0-6.63,6.14c-1,2.8,3.58-2,1.84,1.86C334.52,371.11,334.3,370.39,333.65,370.89Z"/><path class="cls-2" d="M258.34,593c-2.59,6.92,3.09-2.39,4.9-3.75,3-2-2.53,4-2,6.37,7-5.66,7.76-2.21,7.6,2.69,2.05-2.22,3.78-4.72,5.84-6.94-4.26,2.54-8.61.84-8.52-5.57C261.47,590.76,261.3,588.63,258.34,593Z"/><path class="cls-2" d="M352.27,338.25c4.92,1.95,6,6.38,15,2.33,1.26-2.82-.51-2.37,1.78-4.61.31-3.59-2.18,1.16-4.79,1.61,4.73-6-3.6-5.77,1.22-9.5C368.08,322.65,357.32,332.75,352.27,338.25Z"/><path class="cls-2" d="M250,652.24c-2.12,5.94,2.79,9.12,7.14,8.28C254.53,658.08,252.58,654.67,250,652.24Z"/><path class="cls-2" d="M470,96c-3.41,4.41-2.43,1.17-7.07,5.57-.34,4.18,2.91-.15,5-1.14C469.91,98.45,468.29,99,470,96Z"/><path class="cls-2" d="M360,346.21c2.12-.3,1,4,6-.43C369.07,339,362.05,346.08,360,346.21Z"/><path class="cls-2" d="M290,580.64c-2.42,1.22-2.65,4.39-4.6,6-.66,3,2.25.69,3.39,1C292,584.43,285.92,588,290,580.64Z"/><path class="cls-2" d="M446.61,188.9c1.14-.94,1.69-2.56,2.46-3.94,3.08-2.89,1.36.68,5.19-3.23.26-2.87,1-6.34-4.93-.9C448.31,184.63,451.06,181.78,446.61,188.9Z"/><path class="cls-2" d="M425.65,292.49c3.89-2-.6,4,1.15,5.36,4.77-5.21,4.67-5.4,8.13-8.84C431.3,291.11,429.29,288.17,425.65,292.49Z"/><path class="cls-2" d="M319.35,635.9c2.27-5.3,3.38-.57,6.36-6.49,1.51-4.53-4.27,2.54-1.8-3.5-3,5.65-6.69,6.5-9.76,15.5,2.64-1.74,4.68-2.55,4.66,0C321.73,638.61,318.6,638.18,319.35,635.9Z"/><path class="cls-2" d="M322.92,646.79c-.84,5.7,7-2.62,3.68,7.06,4.26-3.91,1-4.27,3.64-6.81C327.67,647.16,326.51,645,322.92,646.79Z"/><path class="cls-2" d="M334.9,646.91c.6-2.76,2.32-4.6,2.84-7.4-4.28,1.69-5.71-1.26-5.6-6.64-6.34,11.17,2.63,5.56-1.56,16.4,5.42-5.67,4.05-.38,2.24,5.69,3.52-.21,5.4-3.33,9.8-5.73,0-1.88-.71-2.58-.71-4.44-2.38,1.31-2.47,4.49-4.35,6.19-.88.5-.78-.61-2,.4,1.18-3,4.08-4.52,4-8.45C338.36,642.55,337.13,643.58,334.9,646.91Z"/><path class="cls-2" d="M568.51,80.35c-1.39,1.42-1.27,2.06-.66,1.51a16,16,0,0,1-3,5.49c-.53,1.74,2.25-1.25,3.8-2.47C569.33,82.31,568.37,82.11,568.51,80.35Z"/><path class="cls-2" d="M569,138.8c-2.61,2.85-3.15,13.07,2.85,7.12.38-1.5-4.3,1.54.17-4.08C573,137.83,565.59,146.44,569,138.8Z"/><path class="cls-2" d="M569.45,170.94c-.43,3.39-6,13.34-.16,8.15,6.21-10.43-1.91-4.32,5.65-15.32C572.14,165.18,572.27,169.52,569.45,170.94Z"/><path class="cls-2" d="M507.9,416c-3.8,4.76.06,3.06-.68,5.31,1.76-1.43,3.59-5.42,3.28-3.13A4.79,4.79,0,0,0,512,415.5l.89-3.17c-.76,2.22-7.26,8.41-3.28,3.14C510,413.35,507.33,418.69,507.9,416Z"/><path class="cls-2" d="M592.4,210.89c-2.92,4.84.33,5.5.14,8.18-5,7.49-6,15-6.66,18.12,4.37-7.44,8-15.55,12-23.41-8.16,13-.58-3.53-2.79-4.49C593,212.54,591.92,213.53,592.4,210.89Z"/><path class="cls-2" d="M586.62,243.87c-2.83,5.7,1.43,5.79,1.41,9.24,3.7-4-.64-4,3.55-8.87C590.07,245.49,585.48,249.06,586.62,243.87Z"/><path class="cls-2" d="M596.4,220.45c-3.15,2.38-2.65,4.72-1,3.12a21,21,0,0,1-3.65,6.78c-.29,1.67,1.08.59.6,2.57.83-2.69,5.64-11.72,3.2-3.2,1.61-1.93,2.15-4.77,3.09-7.28Q594.65,226.21,596.4,220.45Z"/><path class="cls-2" d="M606.74,239.63c.25-1.65-1.1-.56-.64-2.55-2.88,2.13-3.37,6.33-6.26,8.46C601,245.87,603,242.61,606.74,239.63Z"/><path class="cls-2" d="M652.49,192.12c-2.86,4.78-1.27,1.25-4.12,4.36-.71,4-4.15,5.67-4.47,10L647,203.2c1.47-3.95,3.17-8.19,3.58-4.85C653.33,195.16,650,197.15,652.49,192.12Z"/><path class="cls-2" d="M621.47,303.08c.12-2.27-2.08,3.42-.44,1.58a29.32,29.32,0,0,1-5,7.53c.1,2.42,6.57-6,7.06-9.71C621.83,304,621.35,304.08,621.47,303.08Z"/><path class="cls-2" d="M570.17,499.15c-.21,1.65.85-.19,1-1.08,3.35-3.71-1.51,8.56,3.84.95,2.33-7.64-1.46-3.39-2.07-5.3C571.74,495.32,571.56,497.68,570.17,499.15Z"/><path class="cls-2" d="M687,207.55c1.85-6.43.6-7.06-1.9-5.38-2.75,8.55-.2,7.29-1.88,13.91,5.69-9,4.85-2.31,8.24-4.9C690.93,211.43,691.39,200.16,687,207.55Z"/><path class="cls-2" d="M685.61,219.93c1,2.22,6-3.3,4.51,3.63,8.25-15,2.68,6.95,8.59,1.2,1.19-2.23,1.76-5,3.25-7-1.87.28-6.68,6.15-2.94-4.28-4.52,3.82-4.27-1.46-6-3-1.49,2-1.92,4.88-2.73,7.42C688.11,219.76,689.86,214.22,685.61,219.93Z"/><path class="cls-2" d="M699.09,186.47c-7.21,14.54-.23,18.5,4.38,13.26C701.4,196.71,694.25,200,699.09,186.47Z"/><path class="cls-2" d="M712,218.25a9.9,9.9,0,0,0,2,5.35C716.84,218,713.7,217.55,712,218.25Z"/><path class="cls-2" d="M724.66,235.53c-.91,6.89,3.3,10.46,6.88,11,2.55-8.64-2.94-.79,1.15-10.45-5.07,9.76-1.56-3.36-6.13,2.83.77-4.58,5.59-9.07,3.87-10.22C727.4,236.27,725.8,237.25,724.66,235.53Z"/><path class="cls-2" d="M730.86,221.43c-3.69,7.51,1.85,3.1,2,5.38,3.14-4.7-.26-2.51,2-7.94C731.06,223.86,730.6,225.54,730.86,221.43Z"/><path class="cls-2" d="M732.12,247c-.06,5.82,1.48,8.4,4.08,8.77C743.39,238,735.39,245.58,732.12,247Z"/><path class="cls-2" d="M758.77,281.34c.32,1.89,2,.83,3.91,1,.33-1.6.66-3.2,1-4.82C759.85,283.62,761.86,276.87,758.77,281.34Z"/><path class="cls-2" d="M785.21,272.36l-5.49,7.16c.62,3.17,5.55-8.1,5.15-1.92C787.1,274.36,784.65,274.68,785.21,272.36Z"/><path class="cls-2" d="M800.23,290c-5,13.63,4.77-5.88.41,9.26a29.36,29.36,0,0,1,3-5.26C805,286.83,801.13,291.94,800.23,290Z"/><path class="cls-2" d="M831.15,304.83c-.12-2.25-1.64,3.65-.26,1.61-.77,3.71-2.82,6.48-4.24,9.73.81,1.28,4.48-4.75,3.11,2,6.75-13.19,5-3.27,7.48-4.19,2.5-2,1.44-6.16,3.94-8.15-3.27,2.78-2.71-4.27-7,1,.33-2.76,1.59-4.93,1.86-7.72C834.33,303.72,831.93,305.55,831.15,304.83Z"/><path class="cls-2" d="M881,340.37c-.56,7.49,6.21-6,5.13,3,1.18-2.22,1.13-5.13,1.55-7.77C883.16,343.62,885.43,332.34,881,340.37Z"/><path class="cls-2" d="M918.25,349.44c-1.76,5.52,2.27,8.17,3.77,3.77C920.91,351.49,918.44,354,918.25,349.44Z"/><path class="cls-2" d="M942.33,396.17c1.66-3.64,2.7-7.62,4.15-11.36-.33-2.35-1.8-.91-3.55,1.53-.82,5.3,1.4.5,2,1.06C944.68,390.68,941.83,389.47,942.33,396.17Z"/><path class="cls-2" d="M1085.07,413.76c-1.82,8,2.13,3,2.3,7.34a5.29,5.29,0,0,0,.59-3c0-1.07-.07-2.14-.11-3.25C1086,419,1086.08,413.66,1085.07,413.76Z"/><path class="cls-2" d="M1151.14,989.21c2.65,1.83,5.73.08,8.2,3.65,2.18-8.74,5.37-3.59,7.92-2.7.48-1.42.35-3,1-4.41a4,4,0,0,1,.34-3C1162.46,987.88,1157.41,983.34,1151.14,989.21Z"/><path class="cls-2" d="M1300.47,390c2.07-3.56,0-8.23,2.08-11.83-.3-1-.7-.14-1-1.81l-.87,2.87C1302.37,383.33,1298.83,386,1300.47,390Z"/><path class="cls-2" d="M1316,401.62c1.62,9.14.27-11.79,2.1-7.21.87-5.35-1.36-5.86-2.12-.51A13.43,13.43,0,0,1,1316,401.62Z"/></g></g></svg>