<svg xmlns="http://www.w3.org/2000/svg" viewBox="0 0 1058.7 383.93"><defs><style>.cls-1,.cls-8{fill:#fff;}.cls-11,.cls-12,.cls-13,.cls-14,.cls-15,.cls-2,.cls-6,.cls-7,.cls-9{fill:none;}.cls-11,.cls-2,.cls-3,.cls-7,.cls-8,.cls-9{stroke:#aaa;}.cls-11,.cls-12,.cls-13,.cls-14,.cls-15,.cls-2,.cls-3,.cls-6,.cls-7,.cls-8,.cls-9{stroke-miterlimit:10;}.cls-3{fill:#aaa;}.cls-12,.cls-13,.cls-14,.cls-15,.cls-3,.cls-6,.cls-7,.cls-8,.cls-9{stroke-linecap:round;}.cls-4{fill:#d3d3d3;}.cls-5{fill:#64aced;}.cls-6{stroke:#fff;}.cls-6,.cls-7{stroke-width:1.5px;}.cls-10{fill:#9b9b9b;}.cls-11{stroke-dasharray:4.92 4.92;}.cls-12{stroke:#64aced;}.cls-13,.cls-14,.cls-15{stroke:#999;stroke-width:4.5px;}.cls-14{stroke-dasharray:0 9.45;}.cls-15{stroke-dasharray:0 9.62;}.cls-16{fill:#73ba68;}</style></defs><title>userflow1</title><g id="Layer_2" data-name="Layer 2"><g id="Layer_1-2" data-name="Layer 1"><rect class="cls-1" width="1058.7" height="383.93"/><rect class="cls-1" x="149.41" y="31.47" width="176.97" height="321"/><line class="cls-2" x1="159.11" y1="108.59" x2="316.67" y2="108.59"/><line class="cls-2" x1="159.11" y1="145.69" x2="316.67" y2="145.69"/><line class="cls-2" x1="159.11" y1="182.79" x2="316.67" y2="182.79"/><line class="cls-2" x1="159.11" y1="219.89" x2="316.67" y2="219.89"/><line class="cls-2" x1="159.11" y1="256.99" x2="316.67" y2="256.99"/><line class="cls-2" x1="159.11" y1="294.09" x2="316.67" y2="294.09"/><circle class="cls-3" cx="237.89" cy="312.22" r="1"/><circle class="cls-3" cx="242.89" cy="312.22" r="1"/><circle class="cls-3" cx="232.89" cy="312.22" r="1"/><path class="cls-4" d="M315.08,347.59H160.7a9.34,9.34,0,0,1-9.33-9.33V45.68a9.35,9.35,0,0,1,9.33-9.34H315.08a9.34,9.34,0,0,1,9.33,9.34V338.26A9.33,9.33,0,0,1,315.08,347.59ZM160.7,38.34a7.34,7.34,0,0,0-7.33,7.34V338.26a7.34,7.34,0,0,0,7.33,7.33H315.08a7.34,7.34,0,0,0,7.33-7.33V45.68a7.34,7.34,0,0,0-7.33-7.34Z"/><rect class="cls-4" x="158.11" y="61.46" width="159.55" height="2"/><path class="cls-4" d="M312.48,333.82H163.3a6.2,6.2,0,0,1-6.19-6.19V56.3a6.2,6.2,0,0,1,6.19-6.19H312.48a6.2,6.2,0,0,1,6.19,6.19V327.63A6.2,6.2,0,0,1,312.48,333.82ZM163.3,52.11a4.2,4.2,0,0,0-4.19,4.19V327.63a4.2,4.2,0,0,0,4.19,4.19H312.48a4.2,4.2,0,0,0,4.19-4.19V56.3a4.2,4.2,0,0,0-4.19-4.19Z"/><circle class="cls-5" cx="295.92" cy="311.07" r="11.75"/><path class="cls-1" d="M296.48,306.38v4.14h4v1.06h-4v4.18h-1.13v-4.18h-4v-1.06h4v-4.14Z"/><rect class="cls-5" x="159.11" y="63.46" width="157.55" height="17.13"/><line class="cls-6" x1="163.83" y1="68.53" x2="173.58" y2="68.53"/><line class="cls-6" x1="163.83" y1="72.03" x2="173.58" y2="72.03"/><line class="cls-6" x1="163.83" y1="75.53" x2="173.58" y2="75.53"/><path class="cls-1" d="M267.29,70.47A2.51,2.51,0,0,1,269.68,69v1.43a2.09,2.09,0,0,0-2.39,1.92V76h-1.5V69.09h1.5Z"/><path class="cls-1" d="M277,73.12h-5.23a2.12,2.12,0,0,0,2.15,1.73,2.7,2.7,0,0,0,1.95-.81l.79.85a3.75,3.75,0,0,1-2.86,1.17,3.51,3.51,0,1,1,0-7C276.19,69,277.18,70.62,277,73.12ZM275.7,72a1.78,1.78,0,0,0-1.92-1.8,2,2,0,0,0-2,1.8Z"/><path class="cls-1" d="M284.25,70.17l-.82,1a2.63,2.63,0,0,0-2-.78,2.22,2.22,0,0,0,0,4.42,2.6,2.6,0,0,0,2-.83l.83.83a3.51,3.51,0,0,1-2.94,1.29,3.51,3.51,0,0,1,0-7A3.63,3.63,0,0,1,284.25,70.17Z"/><path class="cls-1" d="M287.5,67.11a.87.87,0,1,1-.87-.91A.86.86,0,0,1,287.5,67.11ZM285.89,76V69.09h1.48V76Z"/><path class="cls-1" d="M296.86,72.57a3.21,3.21,0,0,1-3.27,3.49,2.74,2.74,0,0,1-2.45-1.25v3.72h-1.49V69.09h1.49v1.19A2.71,2.71,0,0,1,293.56,69,3.25,3.25,0,0,1,296.86,72.57Zm-1.5,0a2.11,2.11,0,1,0-2.11,2.26A2.11,2.11,0,0,0,295.36,72.52Z"/><path class="cls-1" d="M304.51,73.12h-5.23a2.11,2.11,0,0,0,2.15,1.73,2.7,2.7,0,0,0,1.95-.81l.79.85a3.78,3.78,0,0,1-2.86,1.17,3.51,3.51,0,1,1,0-7C303.7,69,304.69,70.62,304.51,73.12ZM303.21,72a1.78,1.78,0,0,0-1.93-1.8,2,2,0,0,0-2,1.8Z"/><path class="cls-1" d="M310.55,69.73l-.54,1.1a4.07,4.07,0,0,0-2-.61c-.59,0-1,.19-1,.69,0,1.27,3.68.58,3.67,3.09,0,1.42-1.26,2.06-2.65,2.06a4.26,4.26,0,0,1-2.79-1l.54-1.06a3.79,3.79,0,0,0,2.31.86c.64,0,1.13-.22,1.13-.74,0-1.42-3.64-.63-3.62-3.12,0-1.41,1.22-2,2.54-2A4.31,4.31,0,0,1,310.55,69.73Z"/><line class="cls-7" x1="164.14" y1="90.77" x2="173.89" y2="90.77"/><line class="cls-7" x1="164.14" y1="94.27" x2="173.89" y2="94.27"/><line class="cls-7" x1="164.14" y1="97.77" x2="173.89" y2="97.77"/><circle class="cls-8" cx="166.14" cy="90.77" r="1"/><circle class="cls-8" cx="172.02" cy="94.27" r="1"/><circle class="cls-8" cx="169.02" cy="97.77" r="1"/><circle class="cls-2" cx="301.56" cy="92.2" r="2.6"/><line class="cls-9" x1="303.4" y1="94.04" x2="306.27" y2="96.9"/><line class="cls-9" x1="179.14" y1="101.11" x2="311.64" y2="101.11"/><rect class="cls-5" x="163.83" y="116.82" width="75.06" height="6"/><rect class="cls-10" x="163.83" y="126.48" width="42.88" height="2.33"/><rect class="cls-10" x="209.27" y="126.48" width="26" height="2.33"/><rect class="cls-10" x="163.83" y="130.65" width="50" height="2.34"/><rect class="cls-10" x="216.64" y="130.65" width="6.69" height="2.33"/><rect class="cls-10" x="225.95" y="130.65" width="11.38" height="2.33"/><rect class="cls-10" x="163.8" y="134.95" width="11.28" height="2.33"/><rect class="cls-10" x="177.45" y="134.95" width="18.38" height="2.33"/><rect class="cls-10" x="250.3" y="114.11" width="28.75" height="25.88" rx="1.63"/><path class="cls-4" d="M260.29,122.54l-8.49,14.69a.93.93,0,0,0,.8,1.39h17a.93.93,0,0,0,.8-1.39l-8.48-14.69A.92.92,0,0,0,260.29,122.54Z"/><path class="cls-4" d="M269.69,126.39l-6.26,10.84a.92.92,0,0,0,.8,1.39h12.52a.93.93,0,0,0,.8-1.39l-6.26-10.84A.92.92,0,0,0,269.69,126.39Z"/><path class="cls-5" d="M290.18,128.14a4.93,4.93,0,0,0,1,0,3.24,3.24,0,0,0,1.84-.85,3.81,3.81,0,0,0,1.16-2.34h0a2.64,2.64,0,0,1-4.67-1.74,3,3,0,0,1,3-3.12c1.79,0,2.9,1.46,2.9,3.7a5.6,5.6,0,0,1-1.51,4.13,4.43,4.43,0,0,1-2.56,1.17,5.61,5.61,0,0,1-1.09.07Zm.43-5.06a1.69,1.69,0,0,0,1.69,1.86A2,2,0,0,0,294,124a.79.79,0,0,0,.11-.44c0-1.5-.56-2.65-1.8-2.65C291.33,120.94,290.61,121.84,290.61,123.08Z"/><path class="cls-5" d="M301.44,121a4.18,4.18,0,0,0-.89.06,3.57,3.57,0,0,0-3.06,3.12h0a2.69,2.69,0,0,1,4.78,1.83,2.94,2.94,0,0,1-2.92,3.09c-1.88,0-3.11-1.46-3.11-3.74a5.53,5.53,0,0,1,1.48-4,4.75,4.75,0,0,1,2.82-1.3,5.05,5.05,0,0,1,.86-.07Zm-.34,5.07a1.78,1.78,0,0,0-1.81-2,2,2,0,0,0-1.7,1.08,1,1,0,0,0-.14.53c0,1.44.69,2.51,1.94,2.51C300.41,128.2,301.1,127.35,301.1,126.09Z"/><path class="cls-5" d="M303.65,127.61a4,4,0,0,0,1.94.55c1.53,0,2-1,2-1.7,0-1.23-1.12-1.76-2.27-1.76h-.66v-.89h.66c.87,0,2-.45,2-1.49,0-.7-.45-1.32-1.54-1.32a3.25,3.25,0,0,0-1.76.58l-.31-.87A4.24,4.24,0,0,1,306,120c1.73,0,2.51,1,2.51,2.09a2.18,2.18,0,0,1-1.62,2.07v0a2.29,2.29,0,0,1,2,2.26c0,1.4-1.09,2.63-3.2,2.63a4.55,4.55,0,0,1-2.29-.59Z"/><path class="cls-10" d="M292.62,134.92a1.81,1.81,0,0,1-.79.16,1.31,1.31,0,0,1-1.37-1.41,1.4,1.4,0,0,1,1.48-1.46,1.8,1.8,0,0,1,.69.14l-.11.39a1.15,1.15,0,0,0-.58-.13,1,1,0,0,0-1,1,.94.94,0,0,0,1,1,1.46,1.46,0,0,0,.61-.13Z"/><path class="cls-10" d="M294.73,135l0-.34h0a1.06,1.06,0,0,1-.85.41.79.79,0,0,1-.84-.79c0-.67.59-1,1.66-1v-.06a.57.57,0,0,0-.63-.63,1.47,1.47,0,0,0-.72.2l-.11-.33a1.71,1.71,0,0,1,.91-.24c.84,0,1,.57,1,1.12v1a3.28,3.28,0,0,0,.05.66Zm-.07-1.4c-.55,0-1.17.08-1.17.62a.45.45,0,0,0,.47.48.69.69,0,0,0,.67-.46.5.5,0,0,0,0-.16Z"/><path class="cls-10" d="M296,131h.5v4H296Z"/><path class="cls-10" d="M299.79,133.62a1.35,1.35,0,0,1-1.37,1.47,1.31,1.31,0,0,1-1.32-1.42,1.34,1.34,0,0,1,1.36-1.46A1.3,1.3,0,0,1,299.79,133.62Zm-2.19,0c0,.61.35,1.06.84,1.06s.84-.45.84-1.07c0-.47-.24-1.06-.83-1.06S297.6,133.13,297.6,133.65Z"/><path class="cls-10" d="M300.42,133.13c0-.33,0-.6,0-.86h.44v.54h0a.81.81,0,0,1,.76-.6h.14v.48a.44.44,0,0,0-.17,0,.71.71,0,0,0-.67.64,1.66,1.66,0,0,0,0,.24V135h-.5Z"/><path class="cls-10" d="M302.86,131.49a.28.28,0,0,1-.31.31.3.3,0,0,1-.31-.31.31.31,0,0,1,.32-.31A.29.29,0,0,1,302.86,131.49Zm-.55,3.53v-2.75h.5V135Z"/><path class="cls-10" d="M303.92,133.74a.88.88,0,0,0,.94.95,1.85,1.85,0,0,0,.77-.14l.08.36a2.26,2.26,0,0,1-.92.17,1.28,1.28,0,0,1-1.35-1.39,1.33,1.33,0,0,1,1.29-1.48,1.16,1.16,0,0,1,1.14,1.29,1.25,1.25,0,0,1,0,.24Zm1.47-.36a.71.71,0,0,0-.7-.81.83.83,0,0,0-.77.81Z"/><path class="cls-10" d="M306.42,134.51a1.29,1.29,0,0,0,.66.2c.37,0,.54-.18.54-.41s-.14-.37-.51-.51-.73-.45-.73-.78a.85.85,0,0,1,.95-.8,1.41,1.41,0,0,1,.68.17l-.13.36a1.07,1.07,0,0,0-.56-.16c-.3,0-.46.17-.46.38s.16.33.52.46.72.43.72.84-.37.82-1,.82a1.49,1.49,0,0,1-.77-.19Z"/><rect class="cls-5" x="163.52" y="154.1" width="75.06" height="6"/><rect class="cls-10" x="163.52" y="163.77" width="42.88" height="2.33"/><rect class="cls-10" x="208.96" y="163.77" width="26" height="2.33"/><rect class="cls-10" x="163.52" y="167.93" width="50" height="2.34"/><rect class="cls-10" x="216.33" y="167.93" width="6.69" height="2.33"/><rect class="cls-10" x="225.64" y="167.93" width="11.38" height="2.33"/><rect class="cls-10" x="163.49" y="172.23" width="11.28" height="2.33"/><rect class="cls-10" x="177.14" y="172.23" width="18.38" height="2.33"/><rect class="cls-10" x="250.3" y="151.4" width="28.75" height="25.88" rx="1.63"/><path class="cls-4" d="M260.29,159.82l-8.49,14.7a.93.93,0,0,0,.8,1.39h17a.93.93,0,0,0,.8-1.39l-8.48-14.7A.92.92,0,0,0,260.29,159.82Z"/><path class="cls-4" d="M269.69,163.67l-6.26,10.85a.92.92,0,0,0,.8,1.39h12.52a.93.93,0,0,0,.8-1.39l-6.26-10.85A.93.93,0,0,0,269.69,163.67Z"/><path class="cls-5" d="M295.19,157.47v.78l-3.82,8h-1.23l3.81-7.78v0h-4.3v-1Z"/><path class="cls-5" d="M299,158.58h0l-1.53.82-.23-.9,1.92-1h1v8.79H299Z"/><path class="cls-5" d="M303.65,164.89a3.93,3.93,0,0,0,1.94.56c1.53,0,2-1,2-1.71,0-1.23-1.12-1.75-2.27-1.75h-.66v-.9h.66c.87,0,2-.44,2-1.48,0-.71-.45-1.33-1.54-1.33a3.25,3.25,0,0,0-1.76.58l-.31-.86a4.16,4.16,0,0,1,2.3-.68c1.73,0,2.51,1,2.51,2.1a2.18,2.18,0,0,1-1.62,2.06v0a2.3,2.3,0,0,1,2,2.26c0,1.41-1.09,2.64-3.2,2.64a4.44,4.44,0,0,1-2.29-.6Z"/><path class="cls-10" d="M292.62,172.2a1.81,1.81,0,0,1-.79.16,1.3,1.3,0,0,1-1.37-1.4,1.4,1.4,0,0,1,1.48-1.46,1.63,1.63,0,0,1,.69.14l-.11.39a1.14,1.14,0,0,0-.58-.14,1,1,0,0,0-1,1.05,1,1,0,0,0,1,1,1.44,1.44,0,0,0,.61-.14Z"/><path class="cls-10" d="M294.73,172.31l0-.35h0a1,1,0,0,1-.85.41.79.79,0,0,1-.84-.79c0-.67.59-1,1.66-1v-.05a.57.57,0,0,0-.63-.64,1.47,1.47,0,0,0-.72.2l-.11-.33a1.8,1.8,0,0,1,.91-.24c.84,0,1,.57,1,1.13v1a3.34,3.34,0,0,0,.05.66Zm-.07-1.41c-.55,0-1.17.09-1.17.62a.44.44,0,0,0,.47.48.69.69,0,0,0,.67-.46.45.45,0,0,0,0-.16Z"/><path class="cls-10" d="M296,168.27h.5v4H296Z"/><path class="cls-10" d="M299.79,170.91a1.35,1.35,0,0,1-1.37,1.46A1.31,1.31,0,0,1,297.1,171a1.34,1.34,0,0,1,1.36-1.46A1.31,1.31,0,0,1,299.79,170.91Zm-2.19,0c0,.6.35,1.05.84,1.05s.84-.45.84-1.07c0-.46-.24-1-.83-1S297.6,170.41,297.6,170.94Z"/><path class="cls-10" d="M300.42,170.41c0-.32,0-.6,0-.86h.44v.54h0a.81.81,0,0,1,.76-.6l.14,0V170l-.17,0a.71.71,0,0,0-.67.65,1.4,1.4,0,0,0,0,.23v1.47h-.5Z"/><path class="cls-10" d="M302.86,168.78a.29.29,0,0,1-.31.31.31.31,0,1,1,0-.62A.29.29,0,0,1,302.86,168.78Zm-.55,3.53v-2.76h.5v2.76Z"/><path class="cls-10" d="M303.92,171a.88.88,0,0,0,.94,1,2,2,0,0,0,.77-.14l.08.35a2.26,2.26,0,0,1-.92.17,1.27,1.27,0,0,1-1.35-1.38,1.34,1.34,0,0,1,1.29-1.49,1.17,1.17,0,0,1,1.14,1.3,1.21,1.21,0,0,1,0,.23Zm1.47-.36a.71.71,0,0,0-.7-.81.84.84,0,0,0-.77.81Z"/><path class="cls-10" d="M306.42,171.8a1.39,1.39,0,0,0,.66.19c.37,0,.54-.18.54-.41s-.14-.37-.51-.5-.73-.45-.73-.78a.85.85,0,0,1,.95-.81,1.41,1.41,0,0,1,.68.17l-.13.37a1.07,1.07,0,0,0-.56-.16c-.3,0-.46.17-.46.37s.16.33.52.47.72.42.72.83-.37.82-1,.82a1.59,1.59,0,0,1-.77-.18Z"/><rect class="cls-5" x="163.21" y="191.35" width="75.06" height="6"/><rect class="cls-10" x="163.21" y="201.02" width="42.88" height="2.33"/><rect class="cls-10" x="208.65" y="201.02" width="26" height="2.33"/><rect class="cls-10" x="163.21" y="205.18" width="50" height="2.34"/><rect class="cls-10" x="216.02" y="205.18" width="6.69" height="2.33"/><rect class="cls-10" x="225.33" y="205.18" width="11.38" height="2.33"/><rect class="cls-10" x="163.18" y="209.48" width="11.28" height="2.33"/><rect class="cls-10" x="176.83" y="209.48" width="18.38" height="2.33"/><rect class="cls-10" x="250.3" y="188.65" width="28.75" height="25.88" rx="1.63"/><path class="cls-4" d="M260.29,197.07l-8.49,14.7a.93.93,0,0,0,.8,1.39h17a.93.93,0,0,0,.8-1.39l-8.48-14.7A.93.93,0,0,0,260.29,197.07Z"/><path class="cls-4" d="M269.69,200.92l-6.26,10.85a.92.92,0,0,0,.8,1.39h12.52a.93.93,0,0,0,.8-1.39l-6.26-10.85A.93.93,0,0,0,269.69,200.92Z"/><path class="cls-5" d="M289.49,203.51v-.73l.93-.91c2.25-2.13,3.26-3.27,3.27-4.59a1.56,1.56,0,0,0-1.74-1.72,3,3,0,0,0-1.87.74l-.37-.84a3.84,3.84,0,0,1,2.48-.89,2.47,2.47,0,0,1,2.69,2.56c0,1.62-1.17,2.93-3,4.71l-.7.65v0h4v1Z"/><path class="cls-5" d="M296.71,202.14a3.93,3.93,0,0,0,2,.56c1.52,0,2-1,2-1.71,0-1.23-1.12-1.75-2.27-1.75h-.66v-.9h.66c.87,0,2-.44,2-1.48,0-.71-.44-1.33-1.54-1.33a3.25,3.25,0,0,0-1.76.58l-.31-.86a4.18,4.18,0,0,1,2.3-.68c1.73,0,2.52,1,2.52,2.1a2.19,2.19,0,0,1-1.63,2.07v0a2.29,2.29,0,0,1,2,2.26c0,1.41-1.09,2.64-3.2,2.64a4.37,4.37,0,0,1-2.28-.6Z"/><path class="cls-5" d="M307,203.51v-2.4H303v-.78l3.92-5.61h1.28v5.46h1.23v.93h-1.23v2.4Zm0-3.33v-2.93c0-.46,0-.92,0-1.38h0c-.27.51-.49.89-.73,1.3l-2.15,3v0Z"/><path class="cls-10" d="M292.62,209.46a2,2,0,0,1-.79.16,1.31,1.31,0,0,1-1.37-1.41,1.4,1.4,0,0,1,1.48-1.46,1.63,1.63,0,0,1,.69.14l-.11.39a1.14,1.14,0,0,0-.58-.14,1,1,0,0,0-1,1.05,1,1,0,0,0,1,1,1.49,1.49,0,0,0,.62-.14Z"/><path class="cls-10" d="M294.73,209.56l0-.35h0a1,1,0,0,1-.85.41.79.79,0,0,1-.84-.79c0-.67.59-1,1.66-1v-.06a.57.57,0,0,0-.63-.64,1.32,1.32,0,0,0-.71.21l-.12-.33a1.71,1.71,0,0,1,.91-.25c.84,0,1,.58,1,1.13v1a3.34,3.34,0,0,0,.05.66Zm-.07-1.41c-.55,0-1.17.09-1.17.62a.45.45,0,0,0,.48.48.69.69,0,0,0,.66-.46.45.45,0,0,0,0-.16Z"/><path class="cls-10" d="M296,205.52h.5v4H296Z"/><path class="cls-10" d="M299.79,208.16a1.35,1.35,0,0,1-1.37,1.46,1.31,1.31,0,0,1-1.32-1.42,1.34,1.34,0,0,1,1.36-1.46A1.31,1.31,0,0,1,299.79,208.16Zm-2.19,0c0,.6.35,1.05.84,1.05s.84-.44.84-1.06c0-.47-.24-1.06-.83-1.06S297.6,207.66,297.6,208.19Z"/><path class="cls-10" d="M300.42,207.66c0-.32,0-.6,0-.86h.44l0,.54h0a.82.82,0,0,1,.76-.6l.14,0v.47l-.17,0a.71.71,0,0,0-.67.65,1.4,1.4,0,0,0,0,.23v1.47h-.5Z"/><path class="cls-10" d="M302.87,206a.3.3,0,0,1-.32.31.31.31,0,0,1,0-.62A.29.29,0,0,1,302.87,206Zm-.56,3.53V206.8h.5v2.76Z"/><path class="cls-10" d="M303.92,208.27a.88.88,0,0,0,.94,1,1.85,1.85,0,0,0,.77-.14l.08.35a2.17,2.17,0,0,1-.91.18,1.28,1.28,0,0,1-1.36-1.39,1.34,1.34,0,0,1,1.29-1.49,1.17,1.17,0,0,1,1.14,1.3,1.21,1.21,0,0,1,0,.23Zm1.47-.36a.71.71,0,0,0-.7-.81.84.84,0,0,0-.77.81Z"/><path class="cls-10" d="M306.42,209.05a1.39,1.39,0,0,0,.66.19c.37,0,.54-.18.54-.4s-.14-.37-.51-.51-.73-.45-.73-.78a.85.85,0,0,1,.95-.81,1.41,1.41,0,0,1,.68.17l-.13.37a1.07,1.07,0,0,0-.56-.16c-.3,0-.46.17-.46.37s.16.33.52.47.72.42.72.83-.37.83-1,.83a1.59,1.59,0,0,1-.77-.19Z"/><rect class="cls-5" x="163.21" y="228.57" width="75.06" height="6"/><rect class="cls-10" x="163.21" y="238.24" width="42.88" height="2.33"/><rect class="cls-10" x="208.65" y="238.24" width="26" height="2.33"/><rect class="cls-10" x="163.21" y="242.4" width="50" height="2.34"/><rect class="cls-10" x="216.02" y="242.4" width="6.69" height="2.33"/><rect class="cls-10" x="225.33" y="242.4" width="11.38" height="2.33"/><rect class="cls-10" x="163.18" y="246.71" width="11.28" height="2.33"/><rect class="cls-10" x="176.83" y="246.71" width="18.38" height="2.33"/><rect class="cls-10" x="250.3" y="225.87" width="28.75" height="25.88" rx="1.63"/><path class="cls-4" d="M260.29,234.29,251.8,249a.93.93,0,0,0,.8,1.39h17a.93.93,0,0,0,.8-1.39l-8.48-14.7A.93.93,0,0,0,260.29,234.29Z"/><path class="cls-4" d="M269.69,238.15,263.43,249a.92.92,0,0,0,.8,1.39h12.52a.93.93,0,0,0,.8-1.39l-6.26-10.84A.92.92,0,0,0,269.69,238.15Z"/><path class="cls-5" d="M294.73,232.94h-3.35L291,235.2a4.57,4.57,0,0,1,.72,0,3.73,3.73,0,0,1,1.89.47,2.51,2.51,0,0,1,1.26,2.26,3.05,3.05,0,0,1-3.27,3,4.31,4.31,0,0,1-2.19-.54l.3-.91a3.86,3.86,0,0,0,1.87.49,1.94,1.94,0,0,0,2.09-1.91c0-1.13-.77-1.94-2.53-1.94a9.43,9.43,0,0,0-1.22.09l.57-4.22h4.2Z"/><path class="cls-5" d="M301.44,232.78a4.85,4.85,0,0,0-.89.05,3.59,3.59,0,0,0-3.06,3.13h0a2.68,2.68,0,0,1,4.78,1.82,2.94,2.94,0,0,1-2.92,3.1c-1.88,0-3.11-1.46-3.11-3.75a5.55,5.55,0,0,1,1.48-4,4.8,4.8,0,0,1,2.82-1.29,5.05,5.05,0,0,1,.86-.07Zm-.34,5.07a1.78,1.78,0,0,0-1.81-2,1.94,1.94,0,0,0-1.7,1.08,1,1,0,0,0-.14.53c0,1.44.69,2.51,1.94,2.51C300.41,240,301.1,239.11,301.1,237.85Z"/><path class="cls-5" d="M304.05,239.89a4.75,4.75,0,0,0,1,0,3.3,3.3,0,0,0,1.84-.85,3.86,3.86,0,0,0,1.16-2.34h0a2.63,2.63,0,0,1-4.66-1.74,3,3,0,0,1,3-3.13c1.8,0,2.91,1.46,2.91,3.71a5.53,5.53,0,0,1-1.52,4.12,4.41,4.41,0,0,1-2.55,1.18,5.67,5.67,0,0,1-1.1.07Zm.44-5a1.69,1.69,0,0,0,1.69,1.86,2,2,0,0,0,1.73-.92.85.85,0,0,0,.1-.43c0-1.5-.55-2.65-1.79-2.65C305.2,232.7,304.49,233.59,304.49,234.84Z"/><path class="cls-10" d="M292.62,246.68a1.81,1.81,0,0,1-.79.16,1.31,1.31,0,0,1-1.37-1.41,1.4,1.4,0,0,1,1.48-1.46,1.66,1.66,0,0,1,.69.14l-.11.39a1.15,1.15,0,0,0-.58-.13,1,1,0,0,0-1,1,.94.94,0,0,0,1,1,1.3,1.3,0,0,0,.61-.14Z"/><path class="cls-10" d="M294.73,246.78l0-.35h0a1,1,0,0,1-.85.41.79.79,0,0,1-.84-.79c0-.66.59-1,1.66-1V245a.57.57,0,0,0-.63-.64,1.38,1.38,0,0,0-.72.21l-.11-.33a1.71,1.71,0,0,1,.91-.25c.84,0,1,.58,1,1.13v1a3.34,3.34,0,0,0,.05.66Zm-.07-1.41c-.55,0-1.17.09-1.17.62a.44.44,0,0,0,.47.48.68.68,0,0,0,.67-.46.45.45,0,0,0,0-.16Z"/><path class="cls-10" d="M296,242.74h.5v4H296Z"/><path class="cls-10" d="M299.79,245.38a1.35,1.35,0,0,1-1.37,1.46,1.3,1.3,0,0,1-1.32-1.41,1.34,1.34,0,0,1,1.36-1.47A1.31,1.31,0,0,1,299.79,245.38Zm-2.19,0c0,.6.35,1.06.84,1.06s.84-.45.84-1.07c0-.47-.24-1.06-.83-1.06S297.6,244.89,297.6,245.41Z"/><path class="cls-10" d="M300.42,244.89c0-.33,0-.61,0-.86h.44v.54h0a.82.82,0,0,1,.76-.61l.14,0v.47h-.17a.7.7,0,0,0-.67.64,1.64,1.64,0,0,0,0,.23v1.47h-.5Z"/><path class="cls-10" d="M302.86,243.25a.29.29,0,0,1-.31.31.31.31,0,1,1,0-.62A.3.3,0,0,1,302.86,243.25Zm-.55,3.53V244h.5v2.75Z"/><path class="cls-10" d="M303.92,245.49a.88.88,0,0,0,.94,1,1.85,1.85,0,0,0,.77-.14l.08.36a2.26,2.26,0,0,1-.92.17,1.28,1.28,0,0,1-1.35-1.39,1.34,1.34,0,0,1,1.29-1.49,1.17,1.17,0,0,1,1.14,1.3,1.21,1.21,0,0,1,0,.23Zm1.47-.35a.72.72,0,0,0-.7-.82.84.84,0,0,0-.77.82Z"/><path class="cls-10" d="M306.42,246.27a1.29,1.29,0,0,0,.66.2c.37,0,.54-.18.54-.41s-.14-.37-.51-.51-.73-.45-.73-.78a.85.85,0,0,1,.95-.81,1.41,1.41,0,0,1,.68.17l-.13.37a1.07,1.07,0,0,0-.56-.16c-.3,0-.46.17-.46.37s.16.33.52.47.72.42.72.83-.37.83-1,.83a1.59,1.59,0,0,1-.77-.19Z"/><rect class="cls-5" x="163.21" y="265.25" width="75.06" height="6"/><rect class="cls-10" x="163.21" y="274.91" width="42.88" height="2.33"/><rect class="cls-10" x="208.65" y="274.91" width="26" height="2.33"/><rect class="cls-10" x="163.21" y="279.08" width="50" height="2.34"/><rect class="cls-10" x="216.02" y="279.08" width="6.69" height="2.33"/><rect class="cls-10" x="225.33" y="279.08" width="11.38" height="2.33"/><rect class="cls-10" x="163.18" y="283.38" width="11.28" height="2.33"/><rect class="cls-10" x="176.83" y="283.38" width="18.38" height="2.33"/><rect class="cls-10" x="250.3" y="262.54" width="28.75" height="25.88" rx="1.63"/><path class="cls-4" d="M260.29,271l-8.49,14.7a.92.92,0,0,0,.8,1.38h17a.92.92,0,0,0,.8-1.38L261.89,271A.92.92,0,0,0,260.29,271Z"/><path class="cls-4" d="M269.69,274.82l-6.26,10.85a.92.92,0,0,0,.8,1.38h12.52a.92.92,0,0,0,.8-1.38l-6.26-10.85A.92.92,0,0,0,269.69,274.82Z"/><path class="cls-5" d="M294.5,269.45a4.18,4.18,0,0,0-.89.06,3.57,3.57,0,0,0-3.05,3.12h0a2.68,2.68,0,0,1,4.77,1.83,2.94,2.94,0,0,1-2.92,3.09c-1.88,0-3.11-1.46-3.11-3.74a5.5,5.5,0,0,1,1.49-4,4.73,4.73,0,0,1,2.81-1.3,5.05,5.05,0,0,1,.86-.07Zm-.33,5.07a1.79,1.79,0,0,0-1.82-2,2,2,0,0,0-1.7,1.08,1,1,0,0,0-.13.53c0,1.45.69,2.51,1.93,2.51C293.48,276.63,294.17,275.78,294.17,274.52Z"/><path class="cls-5" d="M302.13,268.62v.78l-3.82,8h-1.24l3.82-7.77v0h-4.3v-1Z"/><path class="cls-5" d="M306,269.73h0l-1.53.82-.23-.91,1.92-1h1v8.78H306Z"/><path class="cls-10" d="M292.62,283.35a1.81,1.81,0,0,1-.79.16,1.3,1.3,0,0,1-1.37-1.4,1.4,1.4,0,0,1,1.48-1.47,1.61,1.61,0,0,1,.69.15l-.11.38a1.15,1.15,0,0,0-.58-.13,1,1,0,0,0-1,1,.94.94,0,0,0,1,1,1.46,1.46,0,0,0,.61-.13Z"/><path class="cls-10" d="M294.73,283.45l0-.34h0a1.06,1.06,0,0,1-.85.41.79.79,0,0,1-.84-.79c0-.67.59-1,1.66-1v-.06A.57.57,0,0,0,294,281a1.47,1.47,0,0,0-.72.2l-.11-.33a1.71,1.71,0,0,1,.91-.24c.84,0,1,.57,1,1.12v1a3.28,3.28,0,0,0,.05.66Zm-.07-1.4c-.55,0-1.17.08-1.17.62a.45.45,0,0,0,.47.48.69.69,0,0,0,.67-.46.5.5,0,0,0,0-.16Z"/><path class="cls-10" d="M296,279.41h.5v4H296Z"/><path class="cls-10" d="M299.79,282.05a1.35,1.35,0,0,1-1.37,1.47,1.31,1.31,0,0,1-1.32-1.42,1.34,1.34,0,0,1,1.36-1.46A1.3,1.3,0,0,1,299.79,282.05Zm-2.19,0c0,.61.35,1.06.84,1.06s.84-.45.84-1.07c0-.47-.24-1.06-.83-1.06S297.6,281.56,297.6,282.08Z"/><path class="cls-10" d="M300.42,281.56c0-.33,0-.6,0-.86h.44v.54h0a.81.81,0,0,1,.76-.6h.14v.48l-.17,0a.71.71,0,0,0-.67.64,1.66,1.66,0,0,0,0,.24v1.46h-.5Z"/><path class="cls-10" d="M302.86,279.93a.28.28,0,0,1-.31.3.3.3,0,0,1-.31-.3.32.32,0,0,1,.32-.32A.29.29,0,0,1,302.86,279.93Zm-.55,3.52V280.7h.5v2.75Z"/><path class="cls-10" d="M303.92,282.17a.87.87,0,0,0,.94.95,1.85,1.85,0,0,0,.77-.14l.08.36a2.26,2.26,0,0,1-.92.17,1.28,1.28,0,0,1-1.35-1.39,1.33,1.33,0,0,1,1.29-1.48,1.16,1.16,0,0,1,1.14,1.29,1.25,1.25,0,0,1,0,.24Zm1.47-.36a.71.71,0,0,0-.7-.81.83.83,0,0,0-.77.81Z"/><path class="cls-10" d="M306.42,282.94a1.29,1.29,0,0,0,.66.2c.37,0,.54-.18.54-.41s-.14-.37-.51-.51-.73-.44-.73-.77a.85.85,0,0,1,.95-.81,1.41,1.41,0,0,1,.68.17l-.13.36a1.07,1.07,0,0,0-.56-.16c-.3,0-.46.17-.46.38s.16.33.52.47.72.42.72.83-.37.82-1,.82a1.49,1.49,0,0,1-.77-.19Z"/><rect class="cls-1" x="440.74" y="31.47" width="176.5" height="321"/><circle class="cls-5" cx="587.02" cy="311.07" r="11.75"/><path class="cls-1" d="M587.58,306.38v4.14h4v1.06h-4v4.18h-1.13v-4.18h-4v-1.06h4v-4.14Z"/><rect class="cls-5" x="450.21" y="63.46" width="157.55" height="17.13"/><line class="cls-6" x1="454.93" y1="68.53" x2="464.68" y2="68.53"/><line class="cls-6" x1="454.93" y1="72.03" x2="464.68" y2="72.03"/><line class="cls-6" x1="454.93" y1="75.53" x2="464.68" y2="75.53"/><rect class="cls-5" x="484.61" y="89.25" width="88.76" height="8.66"/><rect class="cls-5" x="488.29" y="102.12" width="34.82" height="8.66"/><rect class="cls-5" x="526.76" y="102.12" width="42.93" height="8.66"/><rect class="cls-10" x="450.21" y="119.59" width="157.55" height="65.09"/><path class="cls-4" d="M507.76,138.53l-51,40.54a1.22,1.22,0,0,0,.76,2.18h99.91a2.5,2.5,0,0,0,1.55-4.46l-48.13-38.26A2.51,2.51,0,0,0,507.76,138.53Z"/><path class="cls-4" d="M559.29,148.22l-35.95,28.57a2.5,2.5,0,0,0,1.56,4.46h75.54a1.22,1.22,0,0,0,.76-2.18l-38.8-30.85A2.48,2.48,0,0,0,559.29,148.22Z"/><path class="cls-4" d="M606.18,347.59H451.8a9.34,9.34,0,0,1-9.33-9.33V45.68a9.35,9.35,0,0,1,9.33-9.34H606.18a9.35,9.35,0,0,1,9.33,9.34V338.26A9.34,9.34,0,0,1,606.18,347.59ZM451.8,38.34a7.34,7.34,0,0,0-7.33,7.34V338.26a7.34,7.34,0,0,0,7.33,7.33H606.18a7.34,7.34,0,0,0,7.33-7.33V45.68a7.34,7.34,0,0,0-7.33-7.34Z"/><rect class="cls-4" x="449.21" y="61.46" width="159.55" height="2"/><path class="cls-4" d="M603.58,333.82H454.4a6.2,6.2,0,0,1-6.19-6.19V56.3a6.2,6.2,0,0,1,6.19-6.19H603.58a6.2,6.2,0,0,1,6.19,6.19V327.63A6.2,6.2,0,0,1,603.58,333.82ZM454.4,52.11a4.2,4.2,0,0,0-4.19,4.19V327.63a4.2,4.2,0,0,0,4.19,4.19H603.58a4.2,4.2,0,0,0,4.19-4.19V56.3a4.2,4.2,0,0,0-4.19-4.19Z"/><rect class="cls-10" x="454.96" y="188.58" width="42.95" height="2.33"/><rect class="cls-10" x="500.48" y="188.58" width="26.04" height="2.33"/><rect class="cls-10" x="454.96" y="192.75" width="50.08" height="2.34"/><rect class="cls-10" x="507.86" y="192.75" width="6.7" height="2.33"/><rect class="cls-10" x="517.19" y="192.75" width="11.4" height="2.33"/><rect class="cls-10" x="454.93" y="197.05" width="11.3" height="2.33"/><rect class="cls-10" x="468.61" y="197.05" width="18.41" height="2.33"/><rect class="cls-10" x="528.71" y="188.58" width="11.3" height="2.33"/><rect class="cls-10" x="542.39" y="188.58" width="18.41" height="2.33"/><rect class="cls-10" x="563.27" y="188.58" width="38.2" height="2.34"/><rect class="cls-10" x="531.03" y="192.75" width="26.04" height="2.33"/><rect class="cls-10" x="559.26" y="192.75" width="11.3" height="2.33"/><rect class="cls-10" x="573.16" y="192.75" width="28.3" height="2.33"/><rect class="cls-10" x="489.46" y="197.05" width="26.04" height="2.33"/><path class="cls-5" d="M455.87,204.34a.47.47,0,0,1-.47.49.47.47,0,0,1-.47-.49.46.46,0,0,1,.47-.49A.47.47,0,0,1,455.87,204.34Zm-.87,4.79v-3.72h.8v3.72Z"/><path class="cls-5" d="M460.55,206.81v2.32h-.8V207a.84.84,0,0,0-.9-.91,1.05,1.05,0,0,0-1.06,1v2H457v-3.72h.8v.71a1.4,1.4,0,0,1,1.37-.74A1.3,1.3,0,0,1,460.55,206.81Z"/><path class="cls-5" d="M465,208.77a1.72,1.72,0,0,1-1.93,1.74,2.69,2.69,0,0,1-1.55-.49l.34-.58a1.89,1.89,0,0,0,1.17.41,1.05,1.05,0,0,0,1.17-1.06v-.47A1.35,1.35,0,0,1,463,209a1.65,1.65,0,0,1-1.68-1.8,1.63,1.63,0,0,1,1.65-1.77,1.38,1.38,0,0,1,1.26.63v-.6h.8Zm-.8-1.6a1.06,1.06,0,0,0-1.07-1.14,1.15,1.15,0,0,0,0,2.29A1.07,1.07,0,0,0,464.19,207.17Z"/><path class="cls-5" d="M466.91,206.15a1.35,1.35,0,0,1,1.29-.77v.77a1.14,1.14,0,0,0-1.29,1v1.94h-.8v-3.72h.8Z"/><path class="cls-5" d="M472.14,207.58h-2.81a1.13,1.13,0,0,0,1.15.93,1.43,1.43,0,0,0,1-.43l.43.45a2,2,0,0,1-1.54.63,1.78,1.78,0,0,1-1.9-1.88,1.81,1.81,0,0,1,1.88-1.9C471.71,205.38,472.24,206.23,472.14,207.58Zm-.7-.59a1,1,0,0,0-1-1,1.06,1.06,0,0,0-1.1,1Z"/><path class="cls-5" d="M476.53,209.13h-.8v-.63a1.46,1.46,0,0,1-1.31.67,1.76,1.76,0,0,1-1.79-1.91,1.74,1.74,0,0,1,1.77-1.89,1.49,1.49,0,0,1,1.33.68v-2.11h.8Zm-.8-1.85a1.15,1.15,0,1,0-1.14,1.22A1.13,1.13,0,0,0,475.73,207.28Z"/><path class="cls-5" d="M478.62,204.34a.47.47,0,1,1-.93,0,.47.47,0,1,1,.93,0Zm-.86,4.79v-3.72h.79v3.72Z"/><path class="cls-5" d="M483,207.58h-2.81a1.13,1.13,0,0,0,1.15.93,1.43,1.43,0,0,0,1.05-.43l.43.45a2,2,0,0,1-1.54.63,1.79,1.79,0,0,1-1.91-1.88,1.81,1.81,0,0,1,1.89-1.9C482.59,205.38,483.12,206.23,483,207.58Zm-.7-.59a1,1,0,0,0-1-1,1.06,1.06,0,0,0-1.09,1Z"/><path class="cls-5" d="M487.42,206.81v2.32h-.8V207a.84.84,0,0,0-.9-.91,1,1,0,0,0-1.05,1v2h-.81v-3.72h.81v.71a1.39,1.39,0,0,1,1.37-.74A1.29,1.29,0,0,1,487.42,206.81Z"/><path class="cls-5" d="M490.61,208.89a1.76,1.76,0,0,1-.92.28,1,1,0,0,1-1-1.09v-1.93h-.53v-.6h.53v-1h.8v1h1.1v.6h-1.1v1.79c0,.38.14.5.4.5a1.42,1.42,0,0,0,.56-.16Z"/><path class="cls-5" d="M493.77,205.75l-.3.6a2.12,2.12,0,0,0-1.07-.33c-.32,0-.55.1-.55.37,0,.68,2,.31,2,1.66,0,.77-.68,1.11-1.43,1.11a2.28,2.28,0,0,1-1.5-.52l.29-.57a2,2,0,0,0,1.24.46c.35,0,.61-.12.61-.4,0-.76-2-.33-2-1.68,0-.76.66-1.08,1.37-1.08A2.37,2.37,0,0,1,493.77,205.75Z"/><circle class="cls-10" cx="460.55" cy="216.77" r="1.29"/><rect class="cls-10" x="465.7" y="215.6" width="11.4" height="2.33"/><rect class="cls-10" x="479.54" y="215.6" width="26.04" height="2.33"/><circle class="cls-10" cx="460.55" cy="223.55" r="1.29"/><rect class="cls-10" x="465.66" y="222.38" width="32.56" height="2.33"/><circle class="cls-10" cx="460.55" cy="230.28" r="1.29"/><rect class="cls-10" x="465.66" y="229.12" width="11.3" height="2.33"/><rect class="cls-10" x="479.34" y="229.12" width="18.41" height="2.33"/><circle class="cls-10" cx="529.14" cy="216.77" r="1.29"/><rect class="cls-10" x="577.62" y="215.6" width="6.7" height="2.33" transform="translate(1161.95 433.54) rotate(-180)"/><rect class="cls-10" x="563.6" y="215.6" width="11.4" height="2.33" transform="translate(1138.6 433.54) rotate(-180)"/><rect class="cls-10" x="535.11" y="215.6" width="26.04" height="2.33" transform="translate(1096.27 433.54) rotate(-180)"/><circle class="cls-10" cx="529.14" cy="223.55" r="1.29"/><rect class="cls-10" x="535.17" y="222.38" width="11.3" height="2.33"/><path class="cls-5" d="M461.16,240.14v2.32h-.81v-2.09a.83.83,0,0,0-.88-.91,1.06,1.06,0,0,0-1,1.16v1.84h-.8v-2.09a.82.82,0,0,0-.88-.91,1.06,1.06,0,0,0-1,1.16v1.84h-.8v-3.73h.8v.73a1.36,1.36,0,0,1,1.35-.75,1.24,1.24,0,0,1,1.29.89,1.38,1.38,0,0,1,1.42-.89A1.29,1.29,0,0,1,461.16,240.14Z"/><path class="cls-5" d="M465.51,240.91h-2.82a1.14,1.14,0,0,0,1.16.93,1.46,1.46,0,0,0,1-.44l.43.46a2,2,0,0,1-1.55.63,1.89,1.89,0,0,1,0-3.78C465.07,238.71,465.61,239.56,465.51,240.91Zm-.7-.59a1,1,0,0,0-1-1,1.06,1.06,0,0,0-1.09,1Z"/><path class="cls-5" d="M468.45,242.22a1.73,1.73,0,0,1-.91.28,1,1,0,0,1-1.05-1.09v-1.93H466v-.61h.52v-1h.8v1h1.1v.61h-1.1v1.78c0,.39.15.51.4.51a1.37,1.37,0,0,0,.56-.16Z"/><path class="cls-5" d="M472.8,240.14v2.32H472v-2.09a.84.84,0,0,0-.9-.91,1.07,1.07,0,0,0-1.06,1.17v1.83h-.81v-5.2H470v2.2a1.41,1.41,0,0,1,1.38-.75A1.3,1.3,0,0,1,472.8,240.14Z"/><path class="cls-5" d="M477.41,240.6a1.94,1.94,0,1,1-1.94-1.89A1.82,1.82,0,0,1,477.41,240.6Zm-3.08,0a1.14,1.14,0,1,0,1.14-1.2A1.13,1.13,0,0,0,474.33,240.6Z"/><path class="cls-5" d="M481.8,242.46H481v-.64a1.45,1.45,0,0,1-1.31.68,1.76,1.76,0,0,1-1.79-1.92,1.74,1.74,0,0,1,1.77-1.88,1.46,1.46,0,0,1,1.33.68v-2.12h.8Zm-.8-1.85a1.15,1.15,0,1,0-1.14,1.21A1.13,1.13,0,0,0,481,240.61Z"/><path class="cls-10" d="M462.11,258.2a2.74,2.74,0,0,1-.89,1.61l-1.28,1.35h2.4v.75h-3.49v-.61l1.81-1.94a1.81,1.81,0,0,0,.59-1c0-.39-.31-.63-.82-.63a2.14,2.14,0,0,0-1.34.62l-.32-.64a2.82,2.82,0,0,1,1.78-.7C461.48,257,462.11,257.45,462.11,258.2Z"/><rect class="cls-10" x="562.12" y="258.27" width="35.1" height="2.34" transform="translate(1159.34 518.87) rotate(-180)"/><rect class="cls-10" x="552.6" y="258.27" width="6.7" height="2.33" transform="translate(1111.91 518.87) rotate(-180)"/><rect class="cls-10" x="538.58" y="258.27" width="11.4" height="2.33" transform="translate(1088.56 518.87) rotate(-180)"/><rect class="cls-10" x="510.09" y="258.27" width="26.04" height="2.33" transform="translate(1046.23 518.87) rotate(-180)"/><rect class="cls-10" x="496.6" y="258.27" width="11.3" height="2.33" transform="translate(1004.5 518.87) rotate(-180)"/><rect class="cls-10" x="465.7" y="258.27" width="28.3" height="2.33" transform="translate(959.7 518.87) rotate(-180)"/><path class="cls-10" d="M460.62,252.18V248h-1v-.74h1.78v4.9Z"/><polyline class="cls-10" points="465.66 248.56 472.36 248.56 472.36 250.9 465.66 250.9"/><rect class="cls-10" x="474.99" y="248.56" width="11.4" height="2.33"/><polyline class="cls-10" points="514.87 250.9 488.83 250.9 488.83 248.56 514.87 248.56"/><path class="cls-10" d="M460.89,268.75a1.33,1.33,0,0,1,1.38,1.32,1.58,1.58,0,0,1-1.78,1.55,2.86,2.86,0,0,1-1.66-.53l.35-.67a1.83,1.83,0,0,0,1.25.51c.65,0,1-.34,1-.84s-.39-.81-1-.81h-.68v-.48l1.28-1.37h-2v-.74h3v.52l-1.4,1.51Z"/><rect class="cls-10" x="465.52" y="267.99" width="42.95" height="2.33"/><rect class="cls-10" x="511.03" y="267.99" width="26.04" height="2.33"/><path class="cls-5" d="M458.36,281.53v2.32h-.8v-2.09a.83.83,0,0,0-.9-.91,1.05,1.05,0,0,0-1.06,1v2h-.8v-3.73h.8v.72a1.41,1.41,0,0,1,1.37-.75A1.31,1.31,0,0,1,458.36,281.53Z"/><path class="cls-5" d="M462.82,283.85H462v-.73a1.37,1.37,0,0,1-1.33.76,1.29,1.29,0,0,1-1.36-1.44v-2.32h.8v2.1a.82.82,0,0,0,.87.9,1,1,0,0,0,1-1.16v-1.84h.81Z"/><path class="cls-5" d="M466.12,283.61a1.78,1.78,0,0,1-.92.27,1,1,0,0,1-1.05-1.08v-1.93h-.52v-.61h.52v-1h.8v1h1.1v.61H465v1.78c0,.39.15.51.4.51a1.23,1.23,0,0,0,.56-.17Z"/><path class="cls-5" d="M467.66,280.87a1.35,1.35,0,0,1,1.29-.78v.78a1.12,1.12,0,0,0-1.29,1v2h-.8v-3.73h.8Z"/><path class="cls-5" d="M470.48,279.06a.46.46,0,0,1-.47.48.49.49,0,1,1,.47-.48Zm-.87,4.79v-3.73h.8v3.73Z"/><path class="cls-5" d="M473.71,283.61a1.72,1.72,0,0,1-.92.27,1,1,0,0,1-1-1.08v-1.93h-.53v-.61h.53v-1h.8v1h1.1v.61h-1.1v1.78c0,.39.15.51.4.51a1.26,1.26,0,0,0,.56-.17Z"/><path class="cls-5" d="M475.32,279.06a.47.47,0,1,1-.47-.49A.46.46,0,0,1,475.32,279.06Zm-.87,4.79v-3.73h.8v3.73Z"/><path class="cls-5" d="M480,282a1.95,1.95,0,1,1-1.94-1.9A1.82,1.82,0,0,1,480,282Zm-3.08,0a1.14,1.14,0,1,0,1.14-1.2A1.12,1.12,0,0,0,476.9,282Z"/><path class="cls-5" d="M484.38,281.53v2.32h-.81v-2.09a.83.83,0,0,0-.89-.91,1.05,1.05,0,0,0-1.06,1v2h-.81v-3.73h.81v.72a1.41,1.41,0,0,1,1.37-.75A1.31,1.31,0,0,1,484.38,281.53Z"/><path class="cls-5" d="M488.13,279.06a.47.47,0,1,1-.47-.49A.46.46,0,0,1,488.13,279.06Zm-.87,4.79v-3.73h.8v3.73Z"/><path class="cls-5" d="M492.81,281.53v2.32H492v-2.09a.83.83,0,0,0-.9-.91,1.06,1.06,0,0,0-1.06,1v2h-.8v-3.73h.8v.72a1.42,1.42,0,0,1,1.38-.75A1.3,1.3,0,0,1,492.81,281.53Z"/><path class="cls-5" d="M494.84,279.82v.44h1v.61h-1v3H494v-3h-.49v-.61H494v-.36a1.22,1.22,0,0,1,1.29-1.28,1.39,1.39,0,0,1,.84.26l-.31.61a.92.92,0,0,0-.51-.17A.46.46,0,0,0,494.84,279.82Z"/><path class="cls-5" d="M499.76,282a1.95,1.95,0,1,1-1.94-1.9A1.82,1.82,0,0,1,499.76,282Zm-3.08,0a1.14,1.14,0,1,0,1.14-1.2A1.12,1.12,0,0,0,496.68,282Z"/><path class="cls-5" d="M501.4,280.87a1.35,1.35,0,0,1,1.29-.78v.78a1.12,1.12,0,0,0-1.29,1v2h-.8v-3.73h.8Z"/><path class="cls-5" d="M509.58,281.53v2.32h-.8v-2.09a.84.84,0,0,0-.89-.92,1.08,1.08,0,0,0-1,1.17v1.84h-.81v-2.09a.82.82,0,0,0-.87-.92,1.08,1.08,0,0,0-1,1.17v1.84h-.8v-3.73h.8v.72a1.39,1.39,0,0,1,1.35-.75,1.25,1.25,0,0,1,1.3.9,1.38,1.38,0,0,1,1.41-.9A1.3,1.3,0,0,1,509.58,281.53Z"/><path class="cls-5" d="M512.89,283.39a1.51,1.51,0,0,1-1.23.49,1.17,1.17,0,0,1-1.31-1.15c0-.68.51-1.12,1.4-1.12h1.13v-.11c0-.47-.3-.75-.89-.75a2,2,0,0,0-1.1.37l-.33-.56a2.81,2.81,0,0,1,1.61-.47c1,0,1.5.5,1.5,1.31v2.45h-.79Zm0-.85v-.34h-1c-.52,0-.77.14-.77.49s.28.56.73.56S512.84,283,512.88,282.54Z"/><path class="cls-5" d="M516.87,283.61a1.78,1.78,0,0,1-.92.27,1,1,0,0,1-1.05-1.08v-1.93h-.52v-.61h.52v-1h.8v1h1.1v.61h-1.1v1.78c0,.39.15.51.4.51a1.26,1.26,0,0,0,.56-.17Z"/><path class="cls-5" d="M518.47,279.06a.47.47,0,1,1-.93,0,.47.47,0,1,1,.93,0Zm-.86,4.79v-3.73h.79v3.73Z"/><path class="cls-5" d="M523.13,282a1.95,1.95,0,1,1-1.94-1.9A1.82,1.82,0,0,1,523.13,282Zm-3.08,0a1.14,1.14,0,1,0,1.14-1.2A1.12,1.12,0,0,0,520.05,282Z"/><path class="cls-5" d="M527.53,281.53v2.32h-.8v-2.09a.83.83,0,0,0-.9-.91,1,1,0,0,0-1.05,1v2H524v-3.73h.81v.72a1.4,1.4,0,0,1,1.37-.75A1.3,1.3,0,0,1,527.53,281.53Z"/><path class="cls-10" d="M460.74,289.79l-.21.43a1.5,1.5,0,0,0-.76-.24c-.23,0-.39.08-.39.27,0,.49,1.41.22,1.41,1.19,0,.55-.49.79-1,.79a1.64,1.64,0,0,1-1.07-.37l.2-.41a1.42,1.42,0,0,0,.89.33c.25,0,.44-.08.44-.28,0-.55-1.4-.24-1.4-1.21,0-.54.47-.77,1-.77A1.67,1.67,0,0,1,460.74,289.79Z"/><path class="cls-10" d="M463.71,291.1h-2a.81.81,0,0,0,.82.67,1,1,0,0,0,.75-.31l.31.32a1.43,1.43,0,0,1-1.1.45,1.35,1.35,0,0,1,0-2.7C463.4,289.53,463.78,290.14,463.71,291.1Zm-.5-.42a.69.69,0,0,0-.74-.69.75.75,0,0,0-.78.69Z"/><path class="cls-10" d="M464.88,290.08a1,1,0,0,1,.92-.55v.55a.81.81,0,0,0-.92.74v1.39h-.57v-2.66h.57Z"/><path class="cls-10" d="M467,292.21l-1-2.66h.6l.74,2.1.73-2.1h.57l-1,2.66Z"/><path class="cls-10" d="M471.27,291.1h-2a.82.82,0,0,0,.83.67,1,1,0,0,0,.75-.31l.3.32a1.43,1.43,0,0,1-1.1.45,1.28,1.28,0,0,1-1.36-1.35,1.29,1.29,0,0,1,1.35-1.35C471,289.53,471.34,290.14,471.27,291.1Zm-.5-.42A.68.68,0,0,0,470,290a.76.76,0,0,0-.78.69Z"/><path class="cls-10" d="M473.6,289.79l-.21.43a1.54,1.54,0,0,0-.77-.24c-.22,0-.39.08-.39.27,0,.49,1.42.22,1.41,1.19,0,.55-.48.79-1,.79a1.66,1.66,0,0,1-1.07-.37l.21-.41a1.42,1.42,0,0,0,.89.33c.24,0,.43-.08.43-.28,0-.55-1.4-.24-1.39-1.21,0-.54.47-.77,1-.77A1.69,1.69,0,0,1,473.6,289.79Z"/><path class="cls-10" d="M474.66,290.43a.32.32,0,0,1-.32.34.31.31,0,0,1-.31-.34.3.3,0,0,1,.31-.32A.31.31,0,0,1,474.66,290.43Zm0,1.49a.32.32,0,0,1-.32.34.31.31,0,0,1-.31-.34.3.3,0,0,1,.31-.32A.31.31,0,0,1,474.66,291.92Z"/><polyline class="cls-10" points="477.68 292.06 484.38 292.06 484.38 289.72 477.68 289.72"/><path class="cls-10" d="M460.74,297.42l-.21.43a1.5,1.5,0,0,0-.76-.24c-.23,0-.39.08-.39.27,0,.49,1.41.22,1.41,1.19,0,.54-.49.79-1,.79a1.64,1.64,0,0,1-1.07-.37l.2-.41a1.48,1.48,0,0,0,.89.33c.25,0,.44-.09.44-.29,0-.54-1.4-.24-1.4-1.2,0-.54.47-.77,1-.77A1.67,1.67,0,0,1,460.74,297.42Z"/><path class="cls-10" d="M463.71,298.73h-2a.8.8,0,0,0,.82.66,1,1,0,0,0,.75-.31l.31.33a1.47,1.47,0,0,1-1.1.45,1.35,1.35,0,0,1,0-2.7C463.4,297.16,463.78,297.77,463.71,298.73Zm-.5-.42a.69.69,0,0,0-.74-.69.75.75,0,0,0-.78.69Z"/><path class="cls-10" d="M464.88,297.71a1,1,0,0,1,.92-.55v.55a.81.81,0,0,0-.92.74v1.39h-.57v-2.66h.57Z"/><path class="cls-10" d="M467,299.84l-1-2.66h.6l.74,2.09.73-2.09h.57l-1,2.66Z"/><path class="cls-10" d="M469.65,296.42a.32.32,0,0,1-.33.34.35.35,0,0,1,0-.69A.33.33,0,0,1,469.65,296.42Zm-.62,3.42v-2.66h.57v2.66Z"/><path class="cls-10" d="M473,298.18v1.66h-.58v-1.5a.59.59,0,0,0-.64-.64.74.74,0,0,0-.75.72v1.42h-.58v-2.66H471v.51a1,1,0,0,1,1-.53A.93.93,0,0,1,473,298.18Z"/><path class="cls-10" d="M476.17,299.58a1.24,1.24,0,0,1-1.38,1.25,2,2,0,0,1-1.11-.35l.25-.42a1.31,1.31,0,0,0,.83.29.75.75,0,0,0,.84-.76v-.33a1,1,0,0,1-.88.45,1.18,1.18,0,0,1-1.2-1.29,1.16,1.16,0,0,1,1.18-1.26,1,1,0,0,1,.9.45v-.43h.57Zm-.57-1.14a.77.77,0,1,0-.77.82A.77.77,0,0,0,475.6,298.44Z"/><path class="cls-10" d="M480,297.42l-.21.43a1.5,1.5,0,0,0-.76-.24c-.23,0-.39.08-.39.27,0,.49,1.41.22,1.41,1.19,0,.54-.49.79-1,.79a1.64,1.64,0,0,1-1.07-.37l.2-.41a1.48,1.48,0,0,0,.89.33c.25,0,.44-.09.44-.29,0-.54-1.4-.24-1.4-1.2,0-.54.47-.77,1-.77A1.67,1.67,0,0,1,480,297.42Z"/><path class="cls-10" d="M481.23,296.42a.33.33,0,0,1-.34.34.35.35,0,0,1,0-.69A.33.33,0,0,1,481.23,296.42Zm-.62,3.42v-2.66h.57v2.66Z"/><path class="cls-10" d="M482.54,299.37h1.56v.47h-2.27v-.39l1.52-1.8h-1.48v-.47h2.19v.39Z"/><path class="cls-10" d="M487,298.73h-2a.81.81,0,0,0,.83.66,1,1,0,0,0,.75-.31l.3.33a1.47,1.47,0,0,1-1.1.45,1.35,1.35,0,1,1,0-2.7C486.71,297.16,487.09,297.77,487,298.73Zm-.5-.42a.68.68,0,0,0-.74-.69.76.76,0,0,0-.78.69Z"/><path class="cls-10" d="M488.06,298.06a.32.32,0,0,1-.32.34.31.31,0,0,1-.31-.34.3.3,0,0,1,.31-.32A.31.31,0,0,1,488.06,298.06Zm0,1.49a.31.31,0,0,1-.32.33.3.3,0,0,1-.31-.33.31.31,0,0,1,.31-.33A.32.32,0,0,1,488.06,299.55Z"/><rect class="cls-10" x="491.28" y="297.28" width="6.7" height="2.33"/><rect class="cls-10" x="500.61" y="297.28" width="11.4" height="2.33"/><path class="cls-10" d="M461.47,306a1.23,1.23,0,0,1-1.26,1.34,1.06,1.06,0,0,1-.94-.48v1.43h-.57v-3.63h.57v.46a1.05,1.05,0,0,1,.93-.48A1.25,1.25,0,0,1,461.47,306Zm-.58,0a.81.81,0,1,0-.81.87A.81.81,0,0,0,460.89,306Z"/><path class="cls-10" d="M464.41,306.22h-2a.82.82,0,0,0,.83.67,1,1,0,0,0,.75-.31l.3.32a1.43,1.43,0,0,1-1.1.45,1.28,1.28,0,0,1-1.36-1.34,1.3,1.3,0,0,1,1.35-1.36C464.1,304.65,464.48,305.26,464.41,306.22Zm-.5-.42a.68.68,0,0,0-.74-.69.76.76,0,0,0-.78.69Z"/><path class="cls-10" d="M465.59,305.2a1,1,0,0,1,.92-.55v.55a.8.8,0,0,0-.92.74v1.39H465v-2.66h.58Z"/><path class="cls-10" d="M470,304.92l-.21.42a1.63,1.63,0,0,0-.77-.23c-.22,0-.39.07-.39.26,0,.49,1.42.23,1.41,1.19,0,.55-.48.79-1,.79A1.66,1.66,0,0,1,468,307l.21-.41a1.42,1.42,0,0,0,.89.33c.24,0,.43-.08.43-.28,0-.55-1.4-.24-1.39-1.2,0-.54.47-.77,1-.77A1.69,1.69,0,0,1,470,304.92Z"/><path class="cls-10" d="M473,306.22h-2a.82.82,0,0,0,.83.67,1,1,0,0,0,.75-.31l.3.32a1.43,1.43,0,0,1-1.1.45,1.28,1.28,0,0,1-1.36-1.34,1.3,1.3,0,0,1,1.35-1.36C472.65,304.65,473,305.26,473,306.22Zm-.5-.42a.68.68,0,0,0-.74-.69.76.76,0,0,0-.78.69Z"/><path class="cls-10" d="M474.14,305.2a1,1,0,0,1,.92-.55v.55a.8.8,0,0,0-.92.74v1.39h-.58v-2.66h.58Z"/><path class="cls-10" d="M476.27,307.33l-1-2.66h.6l.74,2.1.73-2.1h.58l-1,2.66Z"/><path class="cls-10" d="M478.91,303.91a.34.34,0,0,1-.34.35.35.35,0,0,1,0-.7A.34.34,0,0,1,478.91,303.91Zm-.62,3.42v-2.66h.57v2.66Z"/><path class="cls-10" d="M482.25,305.68v1.65h-.57v-1.49a.6.6,0,0,0-.64-.65.75.75,0,0,0-.76.73v1.41h-.57v-2.66h.57v.51a1,1,0,0,1,1-.53A.93.93,0,0,1,482.25,305.68Z"/><path class="cls-10" d="M485.42,307.07a1.23,1.23,0,0,1-1.38,1.25,1.92,1.92,0,0,1-1.1-.35l.24-.42a1.32,1.32,0,0,0,.84.29.74.74,0,0,0,.83-.75v-.34a1,1,0,0,1-.88.45,1.28,1.28,0,0,1,0-2.55,1,1,0,0,1,.9.45v-.43h.57Zm-.57-1.14a.75.75,0,0,0-.76-.81.82.82,0,0,0,0,1.63A.76.76,0,0,0,484.85,305.93Z"/><path class="cls-10" d="M486.66,305.56a.32.32,0,0,1-.32.33.33.33,0,0,1,0-.66A.32.32,0,0,1,486.66,305.56Zm0,1.48a.32.32,0,0,1-.32.34A.31.31,0,0,1,486,307a.3.3,0,0,1,.31-.32A.31.31,0,0,1,486.66,307Z"/><circle class="cls-10" cx="491.73" cy="305.93" r="1.29"/><rect class="cls-10" x="497.77" y="304.76" width="11.3" height="2.33"/><circle class="cls-10" cx="491.73" cy="312.31" r="1.29"/><rect class="cls-10" x="497.77" y="311.15" width="8.7" height="2.33"/><rect class="cls-10" x="509" y="311.15" width="6.7" height="2.33"/><path class="cls-1" d="M486.88,76.07l-2.67-6.92h1.56l1.92,5.45,1.9-5.45h1.49l-2.65,6.92Z"/><path class="cls-1" d="M493.73,67.18a.87.87,0,1,1-1.74,0,.87.87,0,1,1,1.74,0Zm-1.61,8.89V69.15h1.48v6.92Z"/><path class="cls-1" d="M501.9,73.18h-5.23a2.11,2.11,0,0,0,2.15,1.73,2.7,2.7,0,0,0,1.95-.8l.79.84a3.75,3.75,0,0,1-2.86,1.17,3.51,3.51,0,0,1,0-7C501.09,69.1,502.08,70.69,501.9,73.18Zm-1.3-1.09a1.77,1.77,0,0,0-1.92-1.79,2,2,0,0,0-2,1.79Z"/><path class="cls-1" d="M509.7,76.07,507.94,71l-1.75,5.12h-1.54l-2.54-6.92h1.53l1.8,5.44,1.74-5.44h1.54l1.76,5.44,1.77-5.44h1.52l-2.52,6.92Z"/><path class="cls-1" d="M513.43,77.59l4.12-12.13h1.27L514.7,77.59Z"/><path class="cls-1" d="M524.81,70.23l-.82,1a2.66,2.66,0,0,0-2-.78,2.22,2.22,0,0,0,0,4.43,2.57,2.57,0,0,0,2-.84l.83.84a3.53,3.53,0,0,1-2.94,1.28,3.51,3.51,0,0,1,0-7A3.67,3.67,0,0,1,524.81,70.23Z"/><path class="cls-1" d="M527.94,70.53a2.53,2.53,0,0,1,2.39-1.43v1.43a2.09,2.09,0,0,0-2.39,1.93v3.61h-1.5V69.15h1.5Z"/><path class="cls-1" d="M537.65,73.18h-5.23a2.11,2.11,0,0,0,2.15,1.73,2.7,2.7,0,0,0,1.95-.8l.79.84a3.77,3.77,0,0,1-2.86,1.17,3.51,3.51,0,1,1,0-7C536.84,69.1,537.83,70.69,537.65,73.18Zm-1.3-1.09a1.77,1.77,0,0,0-1.93-1.79,2,2,0,0,0-2,1.79Z"/><path class="cls-1" d="M543.36,75.22a2.8,2.8,0,0,1-2.29.92A2.19,2.19,0,0,1,538.64,74c0-1.26,1-2.07,2.61-2.08h2.09V71.7c0-.87-.56-1.39-1.65-1.39a3.63,3.63,0,0,0-2,.7L539,70a5.07,5.07,0,0,1,3-.87c1.78,0,2.78.91,2.79,2.43v4.54h-1.46Zm0-1.58V73h-1.87c-1,0-1.43.26-1.43.93s.51,1,1.34,1C542.45,75,543.26,74.39,543.34,73.64Z"/><path class="cls-1" d="M550.74,75.63a3.39,3.39,0,0,1-1.7.51,1.83,1.83,0,0,1-1.94-2V70.53h-1V69.41h1V67.52h1.48v1.89h2v1.12h-2v3.32c0,.71.28.93.74.93a2.34,2.34,0,0,0,1-.3Z"/><path class="cls-1" d="M558.12,73.18H552.9A2.1,2.1,0,0,0,555,74.91a2.66,2.66,0,0,0,2-.8l.8.84a3.78,3.78,0,0,1-2.86,1.17,3.51,3.51,0,1,1,0-7C557.32,69.1,558.31,70.69,558.12,73.18Zm-1.3-1.09a1.77,1.77,0,0,0-1.92-1.79,2,2,0,0,0-2,1.79Z"/><path class="cls-1" d="M564.53,70.53a2.53,2.53,0,0,1,2.39-1.43v1.43a2.09,2.09,0,0,0-2.39,1.93v3.61H563V69.15h1.49Z"/><path class="cls-1" d="M574.24,73.18H569a2.1,2.1,0,0,0,2.14,1.73,2.66,2.66,0,0,0,2-.8l.8.84a3.78,3.78,0,0,1-2.86,1.17,3.51,3.51,0,1,1,0-7C573.44,69.1,574.43,70.69,574.24,73.18Zm-1.3-1.09A1.77,1.77,0,0,0,571,70.3a2,2,0,0,0-2,1.79Z"/><path class="cls-1" d="M581.5,70.23l-.82,1a2.65,2.65,0,0,0-2-.78,2.22,2.22,0,0,0,0,4.43,2.56,2.56,0,0,0,2-.84l.84.84a3.55,3.55,0,0,1-2.94,1.28,3.51,3.51,0,0,1,0-7A3.64,3.64,0,0,1,581.5,70.23Z"/><path class="cls-1" d="M584.75,67.18a.87.87,0,1,1-.87-.91A.86.86,0,0,1,584.75,67.18Zm-1.61,8.89V69.15h1.48v6.92Z"/><path class="cls-1" d="M594.11,72.64a3.21,3.21,0,0,1-3.28,3.48,2.7,2.7,0,0,1-2.44-1.25v3.72h-1.5V69.15h1.5v1.2a2.69,2.69,0,0,1,2.42-1.25A3.25,3.25,0,0,1,594.11,72.64Zm-1.51,0a2.11,2.11,0,1,0-2.11,2.26A2.1,2.1,0,0,0,592.6,72.59Z"/><path class="cls-1" d="M601.75,73.18h-5.23a2.11,2.11,0,0,0,2.15,1.73,2.7,2.7,0,0,0,2-.8l.79.84a3.75,3.75,0,0,1-2.86,1.17,3.51,3.51,0,0,1,0-7C601,69.1,601.93,70.69,601.75,73.18Zm-1.3-1.09a1.77,1.77,0,0,0-1.92-1.79,2,2,0,0,0-2,1.79Z"/><rect class="cls-1" x="731.56" y="31.47" width="177.05" height="321"/><path class="cls-4" d="M896.51,347.59H742.13a9.33,9.33,0,0,1-9.33-9.33V45.68a9.34,9.34,0,0,1,9.33-9.34H896.51a9.35,9.35,0,0,1,9.33,9.34V338.26A9.34,9.34,0,0,1,896.51,347.59ZM742.13,38.34a7.34,7.34,0,0,0-7.33,7.34V338.26a7.34,7.34,0,0,0,7.33,7.33H896.51a7.34,7.34,0,0,0,7.33-7.33V45.68a7.34,7.34,0,0,0-7.33-7.34Z"/><rect class="cls-4" x="739.54" y="61.46" width="159.55" height="2"/><path class="cls-4" d="M893.91,333.82H744.73a6.2,6.2,0,0,1-6.19-6.19V56.3a6.2,6.2,0,0,1,6.19-6.19H893.91a6.2,6.2,0,0,1,6.19,6.19V327.63A6.2,6.2,0,0,1,893.91,333.82ZM744.73,52.11a4.2,4.2,0,0,0-4.19,4.19V327.63a4.2,4.2,0,0,0,4.19,4.19H893.91a4.2,4.2,0,0,0,4.19-4.19V56.3a4.2,4.2,0,0,0-4.19-4.19Z"/><circle class="cls-5" cx="877.35" cy="311.07" r="11.75"/><path class="cls-1" d="M877.91,306.38v4.14h4v1.06h-4v4.18h-1.13v-4.18h-4v-1.06h4v-4.14Z"/><rect class="cls-5" x="740.54" y="63.46" width="157.55" height="17.13"/><line class="cls-6" x1="745.26" y1="68.53" x2="755.01" y2="68.53"/><line class="cls-6" x1="745.26" y1="72.03" x2="755.01" y2="72.03"/><line class="cls-6" x1="745.26" y1="75.53" x2="755.01" y2="75.53"/><path class="cls-1" d="M814.41,69.37l-.54,1.1a4.14,4.14,0,0,0-2-.61c-.59,0-1,.2-1,.69,0,1.28,3.68.59,3.67,3.1,0,1.41-1.26,2-2.65,2a4.28,4.28,0,0,1-2.78-1l.53-1.07a3.79,3.79,0,0,0,2.31.86c.64,0,1.13-.22,1.13-.74,0-1.42-3.64-.63-3.62-3.12,0-1.41,1.22-2,2.55-2A4.35,4.35,0,0,1,814.41,69.37Z"/><path class="cls-1" d="M822.73,71.34v4.31h-1.49V71.76a1.55,1.55,0,0,0-1.67-1.68,2,2,0,0,0-2,2.16v3.41h-1.5V66h1.5v4.08a2.62,2.62,0,0,1,2.56-1.4A2.41,2.41,0,0,1,822.73,71.34Z"/><path class="cls-1" d="M831.3,72.19a3.61,3.61,0,1,1-3.6-3.51A3.39,3.39,0,0,1,831.3,72.19Zm-5.72,0A2.12,2.12,0,1,0,827.7,70,2.08,2.08,0,0,0,825.58,72.2Z"/><path class="cls-1" d="M840.14,72.22a3.21,3.21,0,0,1-3.28,3.48,2.71,2.71,0,0,1-2.44-1.25v3.72h-1.49V68.73h1.49v1.2a2.7,2.7,0,0,1,2.42-1.25A3.25,3.25,0,0,1,840.14,72.22Zm-1.51-.06a2.11,2.11,0,1,0-2.1,2.27A2.1,2.1,0,0,0,838.63,72.16Z"/><path class="cls-1" d="M849,72.22a3.21,3.21,0,0,1-3.28,3.48,2.71,2.71,0,0,1-2.44-1.25v3.72h-1.5V68.73h1.5v1.2a2.7,2.7,0,0,1,2.42-1.25A3.25,3.25,0,0,1,849,72.22Zm-1.51-.06a2.11,2.11,0,1,0-2.1,2.27A2.1,2.1,0,0,0,847.47,72.16Z"/><path class="cls-1" d="M852.15,66.75a.87.87,0,1,1-.87-.9A.85.85,0,0,1,852.15,66.75Zm-1.61,8.9V68.73H852v6.92Z"/><path class="cls-1" d="M860.85,71.34v4.31h-1.5V71.76a1.54,1.54,0,0,0-1.66-1.68,1.94,1.94,0,0,0-2,1.89v3.68h-1.5V68.73h1.5v1.33a2.61,2.61,0,0,1,2.55-1.38A2.41,2.41,0,0,1,860.85,71.34Z"/><path class="cls-1" d="M869.09,75c0,2-1.42,3.24-3.59,3.24a5,5,0,0,1-2.87-.91l.64-1.08a3.48,3.48,0,0,0,2.17.75,1.94,1.94,0,0,0,2.17-2v-.87a2.55,2.55,0,0,1-2.29,1.17A3.06,3.06,0,0,1,862.2,72a3,3,0,0,1,3.07-3.29,2.59,2.59,0,0,1,2.34,1.17V68.73h1.48Zm-1.48-3a2,2,0,0,0-2-2.12,2.13,2.13,0,0,0,0,4.25A2,2,0,0,0,867.61,72Z"/><path class="cls-1" d="M874.59,75.65V66h1.49v9.65Z"/><path class="cls-1" d="M880,66.75a.87.87,0,1,1-.87-.9A.86.86,0,0,1,880,66.75Zm-1.61,8.9V68.73h1.48v6.92Z"/><path class="cls-1" d="M886.54,69.37l-.55,1.1a4.14,4.14,0,0,0-2-.61c-.58,0-1,.2-1,.69,0,1.28,3.68.59,3.66,3.1,0,1.41-1.26,2-2.65,2a4.3,4.3,0,0,1-2.78-1l.53-1.07a3.8,3.8,0,0,0,2.32.86c.63,0,1.13-.22,1.13-.74,0-1.42-3.64-.63-3.63-3.12,0-1.41,1.22-2,2.55-2A4.41,4.41,0,0,1,886.54,69.37Z"/><path class="cls-1" d="M892.07,75.21a3.32,3.32,0,0,1-1.7.5,1.82,1.82,0,0,1-1.94-2V70.11h-1V69h1v-1.9h1.49V69h2v1.12h-2v3.31c0,.72.27.94.74.94a2.38,2.38,0,0,0,1-.3Z"/><line class="cls-7" x1="745.57" y1="90.22" x2="755.32" y2="90.22"/><line class="cls-7" x1="745.57" y1="93.72" x2="755.32" y2="93.72"/><line class="cls-7" x1="745.57" y1="97.22" x2="755.32" y2="97.22"/><circle class="cls-8" cx="747.57" cy="90.22" r="1"/><circle class="cls-8" cx="753.44" cy="93.72" r="1"/><circle class="cls-8" cx="750.44" cy="97.22" r="1"/><line class="cls-9" x1="760.57" y1="100.56" x2="893.07" y2="100.56"/><line class="cls-9" x1="884.99" y1="89.07" x2="884.99" y2="96.37"/><line class="cls-9" x1="881.34" y1="92.72" x2="888.64" y2="92.72"/><line class="cls-2" x1="740.54" y1="214.28" x2="743.04" y2="214.28"/><line class="cls-11" x1="747.96" y1="214.28" x2="893.13" y2="214.28"/><line class="cls-2" x1="895.6" y1="214.28" x2="898.1" y2="214.28"/><rect class="cls-9" x="745.63" y="266.53" width="10" height="10" rx="1.93"/><line class="cls-12" x1="748.3" y1="270.28" x2="751.56" y2="273.55"/><line class="cls-12" x1="757.59" y1="267.52" x2="751.56" y2="273.55"/><rect class="cls-10" x="760.57" y="270.43" width="16.61" height="2.19"/><rect class="cls-10" x="779.73" y="270.43" width="18.69" height="2.19"/><rect class="cls-10" x="801.08" y="270.43" width="5.38" height="2.19"/><rect class="cls-9" x="745.13" y="221.84" width="10" height="10" rx="1.93"/><line class="cls-12" x1="747.8" y1="225.6" x2="751.06" y2="228.86"/><line class="cls-12" x1="757.09" y1="222.83" x2="751.06" y2="228.86"/><rect class="cls-10" x="760.57" y="225.75" width="10.21" height="2.19"/><rect class="cls-10" x="773.22" y="225.75" width="25.21" height="2.19"/><rect class="cls-10" x="801.08" y="225.75" width="13.14" height="2.19"/><rect class="cls-9" x="745.3" y="251.64" width="10" height="10" rx="1.93"/><line class="cls-12" x1="747.97" y1="255.39" x2="751.23" y2="258.65"/><line class="cls-12" x1="757.25" y1="252.62" x2="751.23" y2="258.65"/><rect class="cls-10" x="760.57" y="255.54" width="35.42" height="2.19"/><rect class="cls-10" x="798.92" y="255.54" width="39.92" height="2.19"/><rect class="cls-9" x="745.47" y="236.74" width="10" height="10" rx="1.93"/><line class="cls-12" x1="748.13" y1="240.49" x2="751.39" y2="243.75"/><line class="cls-12" x1="757.42" y1="237.73" x2="751.39" y2="243.75"/><rect class="cls-10" x="760.57" y="240.65" width="50.23" height="2.19"/><rect class="cls-9" x="745.44" y="109.2" width="10" height="10" rx="1.93"/><rect class="cls-10" x="760.57" y="113.04" width="50" height="2.34"/><rect class="cls-9" x="745.44" y="123.76" width="10" height="10" rx="1.93"/><rect class="cls-10" x="760.57" y="127.7" width="41.69" height="2.19"/><rect class="cls-10" x="806.46" y="127.7" width="32.39" height="2.19"/><rect class="cls-9" x="745.44" y="138.31" width="10" height="10" rx="1.93"/><rect class="cls-10" x="760.57" y="142.25" width="16.61" height="2.19"/><rect class="cls-10" x="779.73" y="142.25" width="18.69" height="2.19"/><rect class="cls-10" x="801.08" y="142.25" width="5.38" height="2.19"/><rect class="cls-9" x="745.44" y="152.87" width="10" height="10" rx="1.93"/><rect class="cls-10" x="760.57" y="156.77" width="10.21" height="2.19"/><rect class="cls-10" x="773.22" y="156.77" width="25.21" height="2.19"/><rect class="cls-10" x="801.08" y="156.77" width="13.14" height="2.19"/><rect class="cls-9" x="745.44" y="167.42" width="10" height="10" rx="1.93"/><rect class="cls-10" x="760.57" y="171.33" width="29.19" height="2.19"/><rect class="cls-10" x="792.59" y="171.33" width="46.25" height="2.19"/><rect class="cls-9" x="745.44" y="181.98" width="10" height="10" rx="1.93"/><rect class="cls-10" x="760.57" y="185.81" width="38.52" height="2.34"/><rect class="cls-9" x="745.44" y="196.53" width="10" height="10" rx="1.93"/><rect class="cls-10" x="760.62" y="200.44" width="20.47" height="2.19"/><rect class="cls-10" x="783.92" y="200.44" width="19.17" height="2.19"/><rect class="cls-10" x="805.59" y="200.44" width="10.13" height="2.19"/><line class="cls-13" x1="98.33" y1="191.58" x2="98.33" y2="191.58"/><line class="cls-14" x1="107.78" y1="191.58" x2="140.86" y2="191.58"/><line class="cls-13" x1="145.58" y1="191.58" x2="145.58" y2="191.58"/><line class="cls-13" x1="330.29" y1="191.58" x2="330.29" y2="191.58"/><line class="cls-15" x1="339.9" y1="191.58" x2="431.28" y2="191.58"/><line class="cls-13" x1="436.09" y1="191.58" x2="436.09" y2="191.58"/><line class="cls-13" x1="621.49" y1="191.58" x2="621.49" y2="191.58"/><line class="cls-15" x1="631.11" y1="191.58" x2="722.48" y2="191.58"/><line class="cls-13" x1="727.29" y1="191.58" x2="727.29" y2="191.58"/><line class="cls-13" x1="912.94" y1="191.58" x2="912.94" y2="191.58"/><line class="cls-14" x1="922.38" y1="191.58" x2="955.46" y2="191.58"/><line class="cls-13" x1="960.18" y1="191.58" x2="960.18" y2="191.58"/><path class="cls-16" d="M1031.21,191.58a31.63,31.63,0,0,1-2.32,11.94,32,32,0,0,1-5.56,9,32.41,32.41,0,0,1-2.93,2.93,31.71,31.71,0,0,1-41.87,0,32.41,32.41,0,0,1-2.93-2.93,32,32,0,0,1-5.56-9,31.71,31.71,0,0,1,5.56-32.87,31.16,31.16,0,0,1,2.93-2.93,31.71,31.71,0,0,1,41.87,0,31.16,31.16,0,0,1,2.93,2.93,31.63,31.63,0,0,1,7.88,20.93Z"/><path d="M987.53,162.16v5.56h-9A31.68,31.68,0,0,1,987.53,162.16Z"/><path class="cls-1" d="M999.46,159.84v7.88H987.53v-5.56A31.54,31.54,0,0,1,999.46,159.84Z"/><path d="M975.6,170.65v9H970A31.68,31.68,0,0,1,975.6,170.65Z"/><path class="cls-1" d="M987.53,167.72v11.93H975.6v-9a31.16,31.16,0,0,1,2.93-2.93Z"/><rect x="987.53" y="167.71" width="11.93" height="11.93"/><path class="cls-1" d="M975.6,179.65v11.93h-7.88A31.54,31.54,0,0,1,970,179.65Z"/><rect x="975.59" y="179.65" width="11.93" height="11.93"/><rect class="cls-1" x="987.53" y="179.65" width="11.93" height="11.93"/><path d="M975.6,191.58v11.94H970a31.63,31.63,0,0,1-2.32-11.94Z"/><rect class="cls-1" x="975.59" y="191.58" width="11.93" height="11.93"/><rect x="987.53" y="191.58" width="11.93" height="11.93"/><path class="cls-1" d="M975.6,203.52v9a32,32,0,0,1-5.56-9Z"/><path d="M987.53,203.52v11.93h-9a32.41,32.41,0,0,1-2.93-2.93v-9Z"/><rect class="cls-1" x="987.53" y="203.51" width="11.93" height="11.93"/><path class="cls-1" d="M987.53,215.45V221a31.68,31.68,0,0,1-9-5.56Z"/><path d="M999.46,215.45v7.88A31.54,31.54,0,0,1,987.53,221v-5.56Z"/><path d="M1011.4,162.16v5.56H999.46v-7.88A31.55,31.55,0,0,1,1011.4,162.16Z"/><path class="cls-1" d="M1020.4,167.72h-9v-5.56A31.77,31.77,0,0,1,1020.4,167.72Z"/><rect class="cls-1" x="999.46" y="167.71" width="11.93" height="11.93"/><path d="M1023.33,170.65v9H1011.4V167.72h9A31.16,31.16,0,0,1,1023.33,170.65Z"/><path class="cls-1" d="M1028.89,179.65h-5.56v-9A31.68,31.68,0,0,1,1028.89,179.65Z"/><rect x="999.46" y="179.65" width="11.93" height="11.93"/><rect class="cls-1" x="1011.39" y="179.65" width="11.93" height="11.93"/><path d="M1031.21,191.58h-7.88V179.65h5.56A31.54,31.54,0,0,1,1031.21,191.58Z"/><rect class="cls-1" x="999.46" y="191.58" width="11.93" height="11.93"/><rect x="1011.39" y="191.58" width="11.93" height="11.93"/><path class="cls-1" d="M1031.21,191.58a31.63,31.63,0,0,1-2.32,11.94h-5.56V191.58Z"/><rect x="999.46" y="203.51" width="11.93" height="11.93"/><path class="cls-1" d="M1023.33,203.52v9a32.41,32.41,0,0,1-2.93,2.93h-9V203.52Z"/><path d="M1028.89,203.52a32,32,0,0,1-5.56,9v-9Z"/><path class="cls-1" d="M1011.4,215.45V221a31.55,31.55,0,0,1-11.94,2.32v-7.88Z"/><path d="M1020.4,215.45a31.77,31.77,0,0,1-9,5.56v-5.56Z"/><circle class="cls-16" cx="59.24" cy="191.58" r="31.74"/></g></g></svg>