<svg xmlns="http://www.w3.org/2000/svg" viewBox="0 0 1058.7 383.93"><defs><style>.cls-1,.cls-27{fill:#fff;}.cls-10,.cls-18,.cls-19,.cls-2,.cls-20,.cls-22,.cls-23,.cls-24,.cls-26,.cls-28,.cls-3,.cls-4,.cls-5,.cls-7,.cls-8,.cls-9{fill:none;}.cls-2,.cls-3,.cls-4,.cls-5{stroke:#999;stroke-width:4.5px;}.cls-10,.cls-13,.cls-18,.cls-19,.cls-2,.cls-20,.cls-21,.cls-22,.cls-25,.cls-26,.cls-27,.cls-28,.cls-3,.cls-4,.cls-5,.cls-8,.cls-9{stroke-linecap:round;}.cls-10,.cls-13,.cls-18,.cls-19,.cls-2,.cls-20,.cls-21,.cls-22,.cls-23,.cls-24,.cls-25,.cls-26,.cls-27,.cls-28,.cls-3,.cls-4,.cls-5,.cls-7,.cls-8,.cls-9{stroke-miterlimit:10;}.cls-3{stroke-dasharray:0 9.28;}.cls-4{stroke-dasharray:0 8.87;}.cls-5{stroke-dasharray:0 10.09;}.cls-6{fill:#73ba68;}.cls-23,.cls-24,.cls-25,.cls-26,.cls-27,.cls-28,.cls-7{stroke:#aaa;}.cls-13,.cls-7{stroke-width:0.51px;}.cls-18,.cls-19,.cls-8,.cls-9{stroke:#9b9b9b;}.cls-8,.cls-9{stroke-width:1.01px;}.cls-9{stroke-dasharray:1.51 1.51;}.cls-10,.cls-20{stroke:#64aced;}.cls-10{stroke-width:2.54px;}.cls-11{fill:#64aced;}.cls-12,.cls-13,.cls-21{fill:#9b9b9b;}.cls-13,.cls-21{stroke:#d3d3d3;}.cls-14{fill:#5a9ed1;}.cls-15{opacity:0.7;}.cls-16{fill:#d3d3d3;}.cls-17{fill:#2a485b;}.cls-18,.cls-19{stroke-width:2px;}.cls-19{stroke-dasharray:2.97 2.97;}.cls-20{stroke-width:5px;}.cls-22{stroke:#fff;}.cls-22,.cls-26{stroke-width:1.5px;}.cls-24{stroke-dasharray:3.03 3.03;}.cls-25{fill:#aaa;}</style></defs><title>userflow2</title><g id="Layer_2" data-name="Layer 2"><g id="Layer_1-2" data-name="Layer 1"><rect class="cls-1" width="1058.7" height="383.93"/><line class="cls-2" x1="98.33" y1="191.57" x2="98.33" y2="191.57"/><line class="cls-3" x1="107.61" y1="191.57" x2="130.81" y2="191.57"/><line class="cls-2" x1="135.44" y1="191.57" x2="135.44" y2="191.57"/><line class="cls-2" x1="923.96" y1="191.57" x2="923.96" y2="191.57"/><line class="cls-3" x1="933.24" y1="191.57" x2="956.43" y2="191.57"/><line class="cls-2" x1="961.07" y1="191.57" x2="961.07" y2="191.57"/><line class="cls-2" x1="321.41" y1="191.57" x2="321.41" y2="191.57"/><line class="cls-4" x1="330.29" y1="191.57" x2="352.47" y2="191.57"/><line class="cls-2" x1="356.91" y1="191.57" x2="356.91" y2="191.57"/><line class="cls-2" x1="461.51" y1="191.57" x2="461.51" y2="191.57"/><line class="cls-4" x1="470.38" y1="191.57" x2="492.57" y2="191.57"/><line class="cls-2" x1="497" y1="191.57" x2="497" y2="191.57"/><line class="cls-2" x1="685.85" y1="191.57" x2="685.85" y2="191.57"/><line class="cls-5" x1="695.94" y1="191.57" x2="741.34" y2="191.57"/><line class="cls-2" x1="746.39" y1="191.57" x2="746.39" y2="191.57"/><path class="cls-6" d="M1031.21,191.57a31.63,31.63,0,0,1-2.32,11.94,32,32,0,0,1-5.56,9,32.41,32.41,0,0,1-2.93,2.93,31.71,31.71,0,0,1-41.87,0,32.41,32.41,0,0,1-2.93-2.93,32,32,0,0,1-5.56-9,31.71,31.71,0,0,1,5.56-32.87,31.16,31.16,0,0,1,2.93-2.93,31.71,31.71,0,0,1,41.87,0,31.16,31.16,0,0,1,2.93,2.93,31.63,31.63,0,0,1,7.88,20.93Z"/><path d="M987.53,162.15v5.56h-9A31.68,31.68,0,0,1,987.53,162.15Z"/><path class="cls-1" d="M999.46,159.83v7.88H987.53v-5.56A31.54,31.54,0,0,1,999.46,159.83Z"/><path d="M975.6,170.64v9H970A31.68,31.68,0,0,1,975.6,170.64Z"/><path class="cls-1" d="M987.53,167.71v11.93H975.6v-9a31.16,31.16,0,0,1,2.93-2.93Z"/><rect x="987.53" y="167.71" width="11.93" height="11.93"/><path class="cls-1" d="M975.6,179.64v11.93h-7.88A31.54,31.54,0,0,1,970,179.64Z"/><rect x="975.59" y="179.64" width="11.93" height="11.93"/><rect class="cls-1" x="987.53" y="179.64" width="11.93" height="11.93"/><path d="M975.6,191.57v11.94H970a31.63,31.63,0,0,1-2.32-11.94Z"/><rect class="cls-1" x="975.59" y="191.57" width="11.93" height="11.93"/><rect x="987.53" y="191.57" width="11.93" height="11.93"/><path class="cls-1" d="M975.6,203.51v9a32,32,0,0,1-5.56-9Z"/><path d="M987.53,203.51v11.93h-9a32.41,32.41,0,0,1-2.93-2.93v-9Z"/><rect class="cls-1" x="987.53" y="203.51" width="11.93" height="11.93"/><path class="cls-1" d="M987.53,215.44V221a31.68,31.68,0,0,1-9-5.56Z"/><path d="M999.46,215.44v7.88A31.54,31.54,0,0,1,987.53,221v-5.56Z"/><path d="M1011.4,162.15v5.56H999.46v-7.88A31.55,31.55,0,0,1,1011.4,162.15Z"/><path class="cls-1" d="M1020.4,167.71h-9v-5.56A31.77,31.77,0,0,1,1020.4,167.71Z"/><rect class="cls-1" x="999.46" y="167.71" width="11.93" height="11.93"/><path d="M1023.33,170.64v9H1011.4V167.71h9A31.16,31.16,0,0,1,1023.33,170.64Z"/><path class="cls-1" d="M1028.89,179.64h-5.56v-9A31.68,31.68,0,0,1,1028.89,179.64Z"/><rect x="999.46" y="179.64" width="11.93" height="11.93"/><rect class="cls-1" x="1011.39" y="179.64" width="11.93" height="11.93"/><path d="M1031.21,191.57h-7.88V179.64h5.56A31.54,31.54,0,0,1,1031.21,191.57Z"/><rect class="cls-1" x="999.46" y="191.57" width="11.93" height="11.93"/><rect x="1011.39" y="191.57" width="11.93" height="11.93"/><path class="cls-1" d="M1031.21,191.57a31.63,31.63,0,0,1-2.32,11.94h-5.56V191.57Z"/><rect x="999.46" y="203.51" width="11.93" height="11.93"/><path class="cls-1" d="M1023.33,203.51v9a32.41,32.41,0,0,1-2.93,2.93h-9V203.51Z"/><path d="M1028.89,203.51a32,32,0,0,1-5.56,9v-9Z"/><path class="cls-1" d="M1011.4,215.44V221a31.55,31.55,0,0,1-11.94,2.32v-7.88Z"/><path d="M1020.4,215.44a31.77,31.77,0,0,1-9,5.56v-5.56Z"/><circle class="cls-6" cx="59.24" cy="191.57" r="31.74"/><rect class="cls-1" x="363.03" y="111.83" width="92.84" height="162.86"/><line class="cls-7" x1="369.62" y1="192.44" x2="449.55" y2="192.44"/><path class="cls-8" d="M394.24,157.43c0-.25,0-.51,0-.76"/><path class="cls-9" d="M394.4,155.17a15.36,15.36,0,0,1,13.67-13"/><path class="cls-8" d="M408.83,142.1l.76,0"/><path class="cls-10" d="M409.59,142.08a15.35,15.35,0,1,1-15.35,15.35"/><path class="cls-11" d="M402,154.79h0l-1.09.58-.16-.64,1.37-.73h.72v6.26H402Z"/><path class="cls-11" d="M405,158.67a1.79,1.79,0,0,1,1.24-1.68v0a1.56,1.56,0,0,1-1-1.41,1.76,1.76,0,0,1,1.94-1.67,1.62,1.62,0,0,1,1.82,1.54,1.6,1.6,0,0,1-1,1.47v0a1.72,1.72,0,0,1,1.26,1.62,1.94,1.94,0,0,1-2.13,1.82C405.79,160.37,405,159.59,405,158.67Zm3.37,0c0-.76-.53-1.13-1.38-1.37a1.38,1.38,0,0,0-1.13,1.3,1.17,1.17,0,0,0,1.26,1.19A1.13,1.13,0,0,0,408.37,158.63ZM406,155.5c0,.63.47,1,1.19,1.16a1.25,1.25,0,0,0,1-1.14,1,1,0,0,0-1.06-1A1,1,0,0,0,406,155.5Z"/><path class="cls-11" d="M413.6,154.59a3,3,0,0,0-.64,0,2.56,2.56,0,0,0-2.18,2.23h0a1.91,1.91,0,0,1,3.4,1.3,2.09,2.09,0,0,1-2.08,2.21c-1.34,0-2.22-1-2.22-2.67a4,4,0,0,1,1.06-2.83,3.39,3.39,0,0,1,2-.92,3.91,3.91,0,0,1,.62,0Zm-.25,3.62a1.27,1.27,0,0,0-1.29-1.44,1.39,1.39,0,0,0-1.21.77.71.71,0,0,0-.1.38c0,1,.49,1.79,1.38,1.79C412.86,159.71,413.35,159.1,413.35,158.21Z"/><path class="cls-11" d="M419.13,157.06c0,2.13-.79,3.31-2.18,3.31-1.22,0-2.05-1.15-2.07-3.22s.9-3.26,2.18-3.26S419.13,155.07,419.13,157.06Zm-3.4.1c0,1.63.5,2.55,1.27,2.55s1.28-1,1.28-2.61-.4-2.55-1.27-2.55S415.73,155.45,415.73,157.16Z"/><path class="cls-12" d="M404.83,164.5a1.29,1.29,0,0,1-.56.11.93.93,0,0,1-1-1,1,1,0,0,1,1.06-1,1.13,1.13,0,0,1,.49.1l-.08.28a.79.79,0,0,0-.41-.1.69.69,0,0,0-.7.75.68.68,0,0,0,.69.73.9.9,0,0,0,.43-.1Z"/><path class="cls-12" d="M406.34,164.57l0-.24h0a.74.74,0,0,1-.6.29.56.56,0,0,1-.6-.57c0-.47.42-.73,1.18-.73v0a.41.41,0,0,0-.45-.45,1,1,0,0,0-.51.15l-.08-.24a1.18,1.18,0,0,1,.65-.17c.6,0,.74.41.74.8v.73a3.28,3.28,0,0,0,0,.47Zm0-1c-.39,0-.83.06-.83.44a.31.31,0,0,0,.33.34.5.5,0,0,0,.48-.32.5.5,0,0,0,0-.12Z"/><path class="cls-12" d="M407.21,161.69h.36v2.88h-.36Z"/><path class="cls-12" d="M409.94,163.58a1,1,0,0,1-1,1,.93.93,0,0,1-.94-1,1,1,0,0,1,1-1A.93.93,0,0,1,409.94,163.58Zm-1.55,0c0,.43.24.75.59.75s.6-.32.6-.76-.17-.76-.59-.76S408.39,163.22,408.39,163.6Z"/><path class="cls-12" d="M410.4,163.22c0-.23,0-.43,0-.61h.31V163h0a.58.58,0,0,1,.54-.43h.11v.33h-.13a.5.5,0,0,0-.48.46s0,.11,0,.17v1h-.35Z"/><path class="cls-12" d="M412.14,162.06a.22.22,0,0,1-.23.22.22.22,0,0,1-.22-.22.22.22,0,0,1,.23-.22A.21.21,0,0,1,412.14,162.06Zm-.4,2.51v-2h.36v2Z"/><path class="cls-12" d="M412.89,163.66a.63.63,0,0,0,.67.68,1.36,1.36,0,0,0,.54-.1l.07.25a1.61,1.61,0,0,1-.66.12.91.91,0,0,1-1-1,1,1,0,0,1,.92-1.05.83.83,0,0,1,.81.92c0,.07,0,.13,0,.17Zm1-.26a.5.5,0,0,0-.49-.58.59.59,0,0,0-.55.58Z"/><path class="cls-12" d="M414.67,164.21a1,1,0,0,0,.47.14c.26,0,.39-.13.39-.29s-.11-.27-.37-.36-.52-.32-.52-.56a.61.61,0,0,1,.68-.57.92.92,0,0,1,.48.12l-.09.26a.76.76,0,0,0-.4-.12.29.29,0,0,0-.33.27c0,.16.12.24.37.33s.52.3.52.6-.27.58-.73.58a1.16,1.16,0,0,1-.56-.13Z"/><rect class="cls-12" x="430.19" y="142.91" width="2.82" height="29.04" rx="1.41" transform="translate(863.19 314.87) rotate(180)"/><path class="cls-12" d="M431.6,142.91c-3.66-.31-3.17,16.35,0,17.73"/><rect class="cls-12" x="386.74" y="151" width="2.82" height="20.95" rx="1.41"/><rect class="cls-12" x="385.73" y="142.91" width="0.75" height="8.49" rx="0.37"/><rect class="cls-12" x="387.1" y="142.91" width="0.75" height="8.49" rx="0.37"/><rect class="cls-12" x="388.46" y="142.91" width="0.75" height="8.49" rx="0.37"/><rect class="cls-12" x="389.83" y="142.91" width="0.75" height="8.49" rx="0.37"/><path class="cls-12" d="M388.15,154.2c1.34,0,2.42,0,2.42-3.26h-4.84C385.73,154.21,386.81,154.2,388.15,154.2Z"/><path class="cls-11" d="M379.47,183.6v-.38l.49-.48c1.18-1.12,1.72-1.72,1.72-2.42a.82.82,0,0,0-.91-.9,1.55,1.55,0,0,0-1,.39l-.2-.44a2,2,0,0,1,1.3-.47,1.3,1.3,0,0,1,1.42,1.34c0,.86-.62,1.55-1.59,2.48l-.37.35h2.07v.52Z"/><path class="cls-11" d="M385.05,183.6v-1.26H382.9v-.41l2.06-3h.68v2.87h.65v.49h-.65v1.26Zm0-1.75v-1.54c0-.24,0-.48,0-.73h0c-.14.27-.26.47-.38.69l-1.13,1.57h1.51Z"/><path class="cls-11" d="M386.7,182.43a1.32,1.32,0,0,1,.92-1.24v0a1.14,1.14,0,0,1-.73-1,1.3,1.3,0,0,1,1.43-1.23,1.19,1.19,0,0,1,1.34,1.14,1.17,1.17,0,0,1-.76,1.08v0a1.27,1.27,0,0,1,.93,1.19,1.42,1.42,0,0,1-1.57,1.35C387.29,183.68,386.7,183.1,386.7,182.43Zm2.49,0c0-.56-.39-.83-1-1a1,1,0,0,0-.84,1,.86.86,0,0,0,.93.88A.83.83,0,0,0,389.19,182.4Zm-1.72-2.31c0,.46.35.71.88.85a.91.91,0,0,0,.71-.84.72.72,0,0,0-.79-.75A.74.74,0,0,0,387.47,180.09Z"/><path class="cls-11" d="M393.47,181.24c0,1.57-.58,2.44-1.6,2.44s-1.52-.85-1.53-2.38.67-2.4,1.61-2.4S393.47,179.77,393.47,181.24Zm-2.5.07c0,1.2.37,1.88.93,1.88s1-.74,1-1.92-.29-1.89-.94-1.89S391,180.05,391,181.31Z"/><path class="cls-12" d="M385.15,185.93c0,.11,0,.23,0,.41v.85a.84.84,0,0,1-.21.67.75.75,0,0,1-.53.18.91.91,0,0,1-.49-.12l.06-.21a.76.76,0,0,0,.43.12c.28,0,.48-.14.48-.51v-.17h0a.52.52,0,0,1-.47.25.66.66,0,0,1-.62-.72.7.7,0,0,1,.66-.78.48.48,0,0,1,.46.25h0v-.22Zm-.27.58a.5.5,0,0,0,0-.12.39.39,0,0,0-.37-.28c-.26,0-.44.21-.44.55s.14.53.43.53a.38.38,0,0,0,.37-.27.39.39,0,0,0,0-.14Z"/><path class="cls-12" d="M386.92,186.66a.72.72,0,0,1-.74.78.7.7,0,0,1-.7-.76.72.72,0,0,1,.73-.78A.7.7,0,0,1,386.92,186.66Zm-1.17,0c0,.32.19.57.45.57s.44-.24.44-.58-.12-.56-.44-.56S385.75,186.39,385.75,186.67Z"/><path class="cls-12" d="M388.07,187.4l0-.18h0a.56.56,0,0,1-.45.22.42.42,0,0,1-.45-.43c0-.35.32-.55.89-.54v0a.3.3,0,0,0-.34-.34.68.68,0,0,0-.38.11l-.06-.18a.9.9,0,0,1,.48-.13c.45,0,.56.31.56.6v.55a1.83,1.83,0,0,0,0,.35Zm0-.75c-.29,0-.62,0-.62.33a.23.23,0,0,0,.25.26A.38.38,0,0,0,388,187a.19.19,0,0,0,0-.08Z"/><path class="cls-12" d="M388.72,185.24H389v2.16h-.27Z"/><path class="cls-11" d="M404.24,179.56h0l-.81.44-.12-.48,1-.54h.53v4.62h-.6Z"/><path class="cls-11" d="M406.47,182.43a1.32,1.32,0,0,1,.92-1.24v0a1.14,1.14,0,0,1-.73-1,1.29,1.29,0,0,1,1.42-1.23,1.2,1.2,0,0,1,1.35,1.14,1.17,1.17,0,0,1-.76,1.08v0a1.29,1.29,0,0,1,.93,1.19,1.42,1.42,0,0,1-1.57,1.35C407.05,183.68,406.47,183.1,406.47,182.43Zm2.49,0c0-.56-.39-.83-1-1a1,1,0,0,0-.83,1,.93.93,0,0,0,1.85.06Zm-1.72-2.31c0,.46.34.71.88.85a.9.9,0,0,0,.7-.84.71.71,0,0,0-.78-.75A.73.73,0,0,0,407.24,180.09Z"/><path class="cls-11" d="M412.81,179.42a2,2,0,0,0-.47,0,1.88,1.88,0,0,0-1.61,1.64h0a1.39,1.39,0,0,1,1.12-.53,1.37,1.37,0,0,1,1.39,1.49,1.54,1.54,0,0,1-1.53,1.63c-1,0-1.64-.77-1.64-2a2.91,2.91,0,0,1,.78-2.08,2.59,2.59,0,0,1,1.48-.69l.46,0Zm-.18,2.67a.94.94,0,0,0-.95-1.06,1,1,0,0,0-.9.56.61.61,0,0,0-.07.28c0,.76.36,1.32,1,1.32S412.63,182.75,412.63,182.09Z"/><path class="cls-11" d="M416.88,181.24c0,1.57-.58,2.44-1.6,2.44s-1.52-.85-1.53-2.38.67-2.4,1.61-2.4S416.88,179.77,416.88,181.24Zm-2.51.07c0,1.2.37,1.88.94,1.88s.95-.74.95-1.92-.29-1.89-.94-1.89S414.37,180.05,414.37,181.31Z"/><path class="cls-12" d="M404.44,187.35a1,1,0,0,1-.43.08.7.7,0,0,1-.73-.75.75.75,0,0,1,.79-.78.81.81,0,0,1,.37.08l-.06.2a.67.67,0,0,0-.31-.07.56.56,0,0,0,0,1.11.86.86,0,0,0,.33-.07Z"/><path class="cls-12" d="M406.07,186.66a.72.72,0,0,1-.74.78.69.69,0,0,1-.7-.76.72.72,0,0,1,.73-.78A.7.7,0,0,1,406.07,186.66Zm-1.17,0c0,.32.18.57.44.57s.45-.24.45-.58-.12-.56-.44-.56S404.9,186.39,404.9,186.67Z"/><path class="cls-12" d="M406.4,186.33c0-.15,0-.28,0-.4h.24v.24h0a.55.55,0,0,1,.49-.27c.2,0,.52.12.52.63v.87h-.27v-.84c0-.24-.09-.44-.34-.44a.39.39,0,0,0-.36.27.51.51,0,0,0,0,.13v.88h-.27Z"/><path class="cls-12" d="M408.06,187.13a.72.72,0,0,0,.35.11c.19,0,.29-.1.29-.22s-.08-.2-.28-.27-.39-.24-.39-.42a.45.45,0,0,1,.51-.43.7.7,0,0,1,.36.09l-.06.19a.69.69,0,0,0-.31-.08.21.21,0,0,0-.24.2c0,.12.09.18.28.25s.38.22.38.44-.2.44-.55.44a.73.73,0,0,1-.41-.1Z"/><path class="cls-12" d="M410.53,187c0,.15,0,.29,0,.4h-.23l0-.24h0a.54.54,0,0,1-.48.28c-.23,0-.51-.13-.51-.65v-.86h.27v.82c0,.28.08.47.33.47a.39.39,0,0,0,.35-.25.59.59,0,0,0,0-.13v-.91h.27Z"/><path class="cls-12" d="M411,186.33c0-.15,0-.28,0-.4h.24v.24h0a.5.5,0,0,1,.46-.27.45.45,0,0,1,.42.29h0a.79.79,0,0,1,.17-.19.47.47,0,0,1,.32-.1c.2,0,.49.13.49.64v.86h-.26v-.83c0-.28-.11-.45-.32-.45a.36.36,0,0,0-.32.24.59.59,0,0,0,0,.13v.91h-.26v-.88c0-.23-.11-.4-.31-.4a.35.35,0,0,0-.33.27.25.25,0,0,0,0,.13v.88H411Z"/><path class="cls-12" d="M413.66,186.72a.48.48,0,0,0,.51.51,1,1,0,0,0,.41-.08l0,.19a1.05,1.05,0,0,1-.49.09.68.68,0,0,1-.72-.74.71.71,0,0,1,.69-.79.62.62,0,0,1,.61.69c0,.06,0,.1,0,.13Zm.79-.19c0-.18-.07-.44-.37-.44a.44.44,0,0,0-.41.44Z"/><path class="cls-12" d="M416.31,185.24V187c0,.13,0,.28,0,.38h-.24v-.25h0a.55.55,0,0,1-.5.29.67.67,0,0,1-.63-.75.7.7,0,0,1,.66-.79.52.52,0,0,1,.45.22h0v-.88Zm-.27,1.29a.41.41,0,0,0,0-.11.39.39,0,0,0-.39-.31c-.27,0-.44.24-.44.57s.15.54.44.54a.4.4,0,0,0,.39-.32.37.37,0,0,0,0-.11Z"/><path class="cls-11" d="M430.75,179.42a2,2,0,0,0-.47,0,1.88,1.88,0,0,0-1.61,1.64h0a1.4,1.4,0,0,1,2.5,1,1.54,1.54,0,0,1-1.53,1.63c-1,0-1.64-.77-1.64-2a2.87,2.87,0,0,1,.79-2.08,2.53,2.53,0,0,1,1.47-.69l.46,0Zm-.18,2.67a.94.94,0,0,0-.95-1.06,1,1,0,0,0-.9.56.61.61,0,0,0-.07.28c0,.76.37,1.32,1,1.32S430.57,182.75,430.57,182.09Z"/><path class="cls-11" d="M431.76,183.6v-.38l.49-.48c1.18-1.12,1.71-1.72,1.72-2.42a.82.82,0,0,0-.92-.9,1.55,1.55,0,0,0-1,.39l-.2-.44a2,2,0,0,1,1.31-.47,1.3,1.3,0,0,1,1.41,1.34c0,.86-.62,1.55-1.59,2.49l-.37.34h2.08v.52Z"/><path class="cls-11" d="M438.47,181.24c0,1.57-.58,2.44-1.61,2.44s-1.51-.85-1.52-2.38.66-2.4,1.6-2.4S438.47,179.77,438.47,181.24Zm-2.51.07c0,1.2.37,1.88.94,1.88s.94-.74.94-1.92-.29-1.89-.93-1.89S436,180.05,436,181.31Z"/><path class="cls-12" d="M427,186.39c0-.17,0-.32,0-.46h.23v.29h0a.44.44,0,0,1,.41-.32h.08v.25h-.09a.37.37,0,0,0-.36.34.51.51,0,0,0,0,.13v.78H427Z"/><path class="cls-12" d="M428.09,186.72a.48.48,0,0,0,.51.51,1,1,0,0,0,.41-.08l0,.19a1.05,1.05,0,0,1-.49.09.68.68,0,0,1-.72-.74.71.71,0,0,1,.69-.79.62.62,0,0,1,.61.69c0,.06,0,.1,0,.13Zm.79-.19c0-.18-.07-.44-.37-.44a.44.44,0,0,0-.41.44Z"/><path class="cls-12" d="M429.47,186.33c0-.15,0-.28,0-.4h.23v.24h0a.52.52,0,0,1,.47-.27.42.42,0,0,1,.41.29h0a.6.6,0,0,1,.16-.19.5.5,0,0,1,.33-.1c.19,0,.48.13.48.64v.86h-.26v-.83c0-.28-.1-.45-.32-.45a.33.33,0,0,0-.31.24.31.31,0,0,0,0,.13v.91h-.26v-.88c0-.23-.1-.4-.31-.4a.37.37,0,0,0-.33.27.44.44,0,0,0,0,.13v.88h-.26Z"/><path class="cls-12" d="M432.82,187.4l0-.18h0a.56.56,0,0,1-.45.22.43.43,0,0,1-.45-.43c0-.35.32-.55.89-.54v0a.3.3,0,0,0-.34-.34.7.7,0,0,0-.38.11L432,186a.9.9,0,0,1,.48-.13c.45,0,.56.31.56.6v.55a1.83,1.83,0,0,0,0,.35Zm0-.75c-.29,0-.62,0-.62.33a.24.24,0,0,0,.25.26.36.36,0,0,0,.36-.25.19.19,0,0,0,0-.08Z"/><path class="cls-12" d="M433.77,185.52c0,.09-.06.16-.17.16a.16.16,0,0,1-.16-.16.16.16,0,0,1,.17-.17A.16.16,0,0,1,433.77,185.52Zm-.29,1.88v-1.47h.26v1.47Z"/><path class="cls-12" d="M434.19,186.33c0-.15,0-.28,0-.4h.23l0,.24h0a.58.58,0,0,1,.49-.27c.21,0,.52.12.52.63v.87h-.27v-.84c0-.24-.08-.44-.34-.44a.4.4,0,0,0-.36.27.53.53,0,0,0,0,.13v.88h-.27Z"/><path class="cls-12" d="M436.18,185.52a.17.17,0,0,1-.34,0,.17.17,0,0,1,.34,0Zm-.3,1.88v-1.47h.27v1.47Z"/><path class="cls-12" d="M436.59,186.33c0-.15,0-.28,0-.4h.24v.24h0a.55.55,0,0,1,.48-.27c.21,0,.52.12.52.63v.87h-.26v-.84c0-.24-.09-.44-.34-.44a.38.38,0,0,0-.36.27.27.27,0,0,0,0,.13v.88h-.27Z"/><path class="cls-12" d="M439.55,185.93c0,.11,0,.23,0,.41v.85a.84.84,0,0,1-.21.67.77.77,0,0,1-.54.18.94.94,0,0,1-.49-.12l.07-.21a.76.76,0,0,0,.43.12c.27,0,.47-.14.47-.51v-.17h0a.52.52,0,0,1-.47.25.66.66,0,0,1-.63-.72.71.71,0,0,1,.67-.78.5.5,0,0,1,.46.25h0v-.22Zm-.28.58a.49.49,0,0,0,0-.12.39.39,0,0,0-.38-.28c-.25,0-.44.21-.44.55s.15.53.44.53a.39.39,0,0,0,.37-.27.34.34,0,0,0,0-.14Z"/><line class="cls-13" x1="396.4" y1="183.35" x2="399.89" y2="183.35"/><line class="cls-13" x1="420.2" y1="184.11" x2="423.69" y2="184.11"/><line class="cls-13" x1="420.2" y1="182.58" x2="423.69" y2="182.58"/><rect class="cls-14" x="369.49" y="128.07" width="49.81" height="136.15"/><circle class="cls-11" cx="438.9" cy="253.69" r="5.96"/><path class="cls-1" d="M439.18,251.31v2.1h2V254h-2v2.12h-.57V254h-2v-.54h2v-2.1Z"/><rect class="cls-1" x="369.49" y="136.76" width="49.81" height="18.12"/><rect class="cls-15" x="419.29" y="128.07" width="30.13" height="136.15"/><path class="cls-16" d="M448.62,272.22H370.3a4.74,4.74,0,0,1-4.74-4.74V119a4.74,4.74,0,0,1,4.74-4.73h78.32a4.73,4.73,0,0,1,4.73,4.73V267.48A4.74,4.74,0,0,1,448.62,272.22ZM370.3,115.32a3.72,3.72,0,0,0-3.72,3.72V267.48a3.72,3.72,0,0,0,3.72,3.72h78.32a3.73,3.73,0,0,0,3.72-3.72V119a3.73,3.73,0,0,0-3.72-3.72Z"/><rect class="cls-16" x="368.98" y="127.05" width="80.95" height="1.01"/><path class="cls-16" d="M447.3,265.23H371.61a3.15,3.15,0,0,1-3.14-3.14V124.43a3.15,3.15,0,0,1,3.14-3.14H447.3a3.15,3.15,0,0,1,3.14,3.14V262.09A3.15,3.15,0,0,1,447.3,265.23ZM371.61,122.31a2.12,2.12,0,0,0-2.12,2.12V262.09a2.13,2.13,0,0,0,2.12,2.13H447.3a2.13,2.13,0,0,0,2.12-2.13V124.43a2.12,2.12,0,0,0-2.12-2.12Z"/><path class="cls-17" d="M375.34,160v2.18h-.76v-2a.78.78,0,0,0-.85-.85,1,1,0,0,0-1,1.09v1.73H372v-4.89h.76v2.07a1.32,1.32,0,0,1,1.3-.71A1.23,1.23,0,0,1,375.34,160Z"/><path class="cls-17" d="M379.68,160.45a1.83,1.83,0,1,1-1.82-1.78A1.72,1.72,0,0,1,379.68,160.45Zm-2.9,0a1.07,1.07,0,1,0,1.08-1.13A1.06,1.06,0,0,0,376.78,160.45Z"/><path class="cls-17" d="M386.34,160v2.18h-.76v-2a.78.78,0,0,0-.83-.86,1,1,0,0,0-1,1.1v1.73H383v-2a.78.78,0,0,0-.83-.86,1,1,0,0,0-1,1.1v1.73h-.76v-3.51h.76v.68a1.29,1.29,0,0,1,1.27-.7,1.18,1.18,0,0,1,1.22.84,1.28,1.28,0,0,1,1.33-.84A1.22,1.22,0,0,1,386.34,160Z"/><path class="cls-17" d="M390.44,160.74h-2.65a1.06,1.06,0,0,0,1.09.87,1.38,1.38,0,0,0,1-.4l.4.42a1.9,1.9,0,0,1-1.45.6,1.78,1.78,0,1,1,0-3.56C390,158.67,390.53,159.47,390.44,160.74Zm-.66-.56a.91.91,0,0,0-1-.91,1,1,0,0,0-1,.91Z"/><path class="cls-1" d="M372.73,168.62a1.28,1.28,0,0,1,1.22-.73v.73a1.06,1.06,0,0,0-1.22,1v1.84H372v-3.51h.76Z"/><path class="cls-1" d="M377.66,170H375a1.07,1.07,0,0,0,1.09.88,1.35,1.35,0,0,0,1-.41l.41.43a2,2,0,0,1-1.45.59,1.69,1.69,0,0,1-1.8-1.77,1.71,1.71,0,0,1,1.78-1.79C377.25,167.89,377.75,168.69,377.66,170Zm-.66-.55a.9.9,0,0,0-1-.91,1,1,0,0,0-1,.91Z"/><path class="cls-1" d="M381.34,168.46l-.42.49a1.3,1.3,0,0,0-1-.39,1.12,1.12,0,0,0,0,2.24,1.35,1.35,0,0,0,1-.42l.42.42a1.81,1.81,0,0,1-1.49.65,1.78,1.78,0,0,1,0-3.56A1.84,1.84,0,0,1,381.34,168.46Z"/><path class="cls-1" d="M383,166.91a.45.45,0,1,1-.44-.46A.44.44,0,0,1,383,166.91Zm-.82,4.52v-3.51h.75v3.51Z"/><path class="cls-1" d="M387.74,169.68a1.63,1.63,0,0,1-1.67,1.77,1.38,1.38,0,0,1-1.24-.63v1.89h-.75v-4.79h.75v.6a1.37,1.37,0,0,1,1.23-.63A1.65,1.65,0,0,1,387.74,169.68Zm-.77,0a1.07,1.07,0,1,0-1.07,1.15A1.07,1.07,0,0,0,387,169.66Z"/><path class="cls-1" d="M391.61,170H389a1.08,1.08,0,0,0,1.09.88,1.39,1.39,0,0,0,1-.41l.4.43a1.92,1.92,0,0,1-1.45.59,1.68,1.68,0,0,1-1.79-1.77,1.71,1.71,0,0,1,1.77-1.79C391.21,167.89,391.71,168.69,391.61,170Zm-.66-.55a.89.89,0,0,0-1-.91,1,1,0,0,0-1,.91Z"/><path class="cls-1" d="M394.68,168.24l-.28.56a2,2,0,0,0-1-.31c-.3,0-.52.1-.52.35,0,.65,1.87.3,1.86,1.57,0,.72-.64,1-1.34,1A2.17,2.17,0,0,1,392,171l.27-.54a2,2,0,0,0,1.18.44c.32,0,.57-.11.57-.38,0-.72-1.84-.31-1.84-1.58,0-.71.62-1,1.29-1A2.25,2.25,0,0,1,394.68,168.24Z"/><path class="cls-1" d="M373.19,178.05v.41h.91V179h-.91v2.81h-.76V179H372v-.57h.46v-.34a1.16,1.16,0,0,1,1.21-1.21,1.34,1.34,0,0,1,.79.24l-.29.58a.86.86,0,0,0-.48-.16A.44.44,0,0,0,373.19,178.05Z"/><path class="cls-1" d="M377.82,180.08A1.83,1.83,0,1,1,376,178.3,1.72,1.72,0,0,1,377.82,180.08Zm-2.91,0a1.08,1.08,0,1,0,2.15,0,1.08,1.08,0,1,0-2.15,0Z"/><path class="cls-1" d="M381.94,180.08a1.83,1.83,0,1,1-1.83-1.78A1.72,1.72,0,0,1,381.94,180.08Zm-2.9,0a1.07,1.07,0,1,0,1.07-1.13A1.05,1.05,0,0,0,379,180.09Z"/><path class="cls-1" d="M386.07,181.84h-.75v-.6a1.37,1.37,0,0,1-1.24.63,1.79,1.79,0,0,1,0-3.57,1.39,1.39,0,0,1,1.25.64v-2h.75Zm-.75-1.74a1.08,1.08,0,1,0-1.08,1.14A1.08,1.08,0,0,0,385.32,180.1Z"/><path class="cls-1" d="M374.67,187.85l-.28.56a2.08,2.08,0,0,0-1-.31c-.29,0-.51.1-.51.35,0,.65,1.87.3,1.86,1.57,0,.72-.64,1-1.35,1a2.21,2.21,0,0,1-1.41-.49l.27-.54a2,2,0,0,0,1.18.43c.32,0,.57-.11.57-.37,0-.72-1.85-.32-1.84-1.59,0-.71.62-1,1.29-1A2.25,2.25,0,0,1,374.67,187.85Z"/><path class="cls-1" d="M378.89,188.86V191h-.76v-2a.78.78,0,0,0-.84-.85,1,1,0,0,0-1,1.09V191h-.76v-4.9h.76v2.08a1.33,1.33,0,0,1,1.3-.72A1.23,1.23,0,0,1,378.89,188.86Z"/><path class="cls-1" d="M383.24,189.28a1.83,1.83,0,1,1-1.83-1.78A1.73,1.73,0,0,1,383.24,189.28Zm-2.9,0a1.07,1.07,0,1,0,1.07-1.13A1.05,1.05,0,0,0,380.34,189.29Z"/><path class="cls-1" d="M387.72,189.3a1.63,1.63,0,0,1-1.66,1.77,1.39,1.39,0,0,1-1.24-.64v1.89h-.76v-4.79h.76v.61a1.38,1.38,0,0,1,1.23-.64A1.65,1.65,0,0,1,387.72,189.3Zm-.76,0a1.07,1.07,0,1,0-1.07,1.15A1.06,1.06,0,0,0,387,189.27Z"/><path class="cls-1" d="M392.21,189.3a1.63,1.63,0,0,1-1.66,1.77,1.37,1.37,0,0,1-1.24-.64v1.89h-.76v-4.79h.76v.61a1.36,1.36,0,0,1,1.22-.64A1.66,1.66,0,0,1,392.21,189.3Zm-.77,0a1.07,1.07,0,1,0-1.07,1.15A1.06,1.06,0,0,0,391.44,189.27Z"/><path class="cls-1" d="M393.82,186.53a.45.45,0,1,1-.89,0,.45.45,0,1,1,.89,0ZM393,191v-3.51h.75V191Z"/><path class="cls-1" d="M398.23,188.86V191h-.76v-2a.78.78,0,0,0-.84-.85,1,1,0,0,0-1,.95V191h-.76v-3.51h.76v.67a1.32,1.32,0,0,1,1.29-.7A1.23,1.23,0,0,1,398.23,188.86Z"/><path class="cls-1" d="M402.41,190.7a1.62,1.62,0,0,1-1.82,1.64,2.56,2.56,0,0,1-1.46-.46l.33-.55a1.79,1.79,0,0,0,1.1.38,1,1,0,0,0,1.1-1v-.45a1.27,1.27,0,0,1-1.16.6,1.56,1.56,0,0,1-1.58-1.7,1.54,1.54,0,0,1,1.55-1.67,1.31,1.31,0,0,1,1.19.6v-.57h.75Zm-.75-1.51a1,1,0,1,0-1,1.08A1,1,0,0,0,401.66,189.19Z"/><path class="cls-1" d="M405.2,191v-4.9H406V191Z"/><path class="cls-1" d="M407.93,186.53a.44.44,0,1,1-.44-.46A.43.43,0,0,1,407.93,186.53Zm-.82,4.51v-3.51h.76V191Z"/><path class="cls-1" d="M411.26,187.85l-.27.56a2.11,2.11,0,0,0-1-.31c-.3,0-.52.1-.52.35,0,.65,1.87.3,1.86,1.57,0,.72-.64,1-1.34,1a2.22,2.22,0,0,1-1.42-.49l.27-.54a2,2,0,0,0,1.18.43c.32,0,.57-.11.57-.37,0-.72-1.84-.32-1.84-1.59,0-.71.62-1,1.3-1A2.21,2.21,0,0,1,411.26,187.85Z"/><path class="cls-1" d="M414.07,190.81a1.65,1.65,0,0,1-.86.26.93.93,0,0,1-1-1v-1.82h-.49v-.57h.49v-1H413v1h1v.57h-1v1.68c0,.36.14.48.37.48a1.22,1.22,0,0,0,.53-.16Z"/><path class="cls-1" d="M375.63,199.12a1.63,1.63,0,0,1-1.66,1.77,1.39,1.39,0,0,1-1.24-.64v1.89H372v-4.79h.76V198a1.37,1.37,0,0,1,1.23-.63A1.65,1.65,0,0,1,375.63,199.12Zm-.76,0a1.07,1.07,0,1,0-1.07,1.15A1.06,1.06,0,0,0,374.87,199.09Z"/><path class="cls-1" d="M377.18,198.05a1.28,1.28,0,0,1,1.22-.72v.72a1.07,1.07,0,0,0-1.22,1v1.83h-.75v-3.51h.75Z"/><path class="cls-1" d="M382.35,199.11a1.83,1.83,0,1,1-1.82-1.78A1.72,1.72,0,0,1,382.35,199.11Zm-2.9,0a1.08,1.08,0,1,0,1.08-1.13A1.06,1.06,0,0,0,379.45,199.11Z"/><path class="cls-1" d="M383.26,197.14a1.15,1.15,0,0,1,1.21-1.21,1.42,1.42,0,0,1,.65.16l0,.66a1.56,1.56,0,0,0-.61-.15.42.42,0,0,0-.47.47v.41h.92V198H384v2.82h-.75V198h-.46v-.56h.46Zm2.05-.79a.44.44,0,1,1,.44.45A.44.44,0,0,1,385.31,196.35Zm.82,1v3.51h-.75v-3.51Z"/><path class="cls-1" d="M387.28,200.86V196H388v4.89Z"/><path class="cls-1" d="M392.28,199.4h-2.65a1.06,1.06,0,0,0,1.09.87,1.35,1.35,0,0,0,1-.41l.4.43a1.9,1.9,0,0,1-1.45.6,1.78,1.78,0,1,1,0-3.56C391.87,197.33,392.37,198.13,392.28,199.4Zm-.66-.56a.9.9,0,0,0-1-.91,1,1,0,0,0-1,.91Z"/><path class="cls-11" d="M410.82,146.51a1.77,1.77,0,0,0-.44,0,1.73,1.73,0,0,0-1.49,1.52h0a1.29,1.29,0,0,1,1-.5,1.28,1.28,0,0,1,1.29,1.39,1.43,1.43,0,0,1-1.42,1.5c-.92,0-1.52-.71-1.52-1.82a2.7,2.7,0,0,1,.73-1.93,2.33,2.33,0,0,1,1.36-.63,2.44,2.44,0,0,1,.43,0Zm-.17,2.47a.87.87,0,0,0-.88-1,1,1,0,0,0-.83.53.46.46,0,0,0-.07.25c0,.71.34,1.23.95,1.23S410.65,149.59,410.65,149Z"/><path class="cls-11" d="M411.75,150.38V150l.46-.45c1.09-1,1.58-1.59,1.59-2.23a.76.76,0,0,0-.85-.84,1.49,1.49,0,0,0-.91.36l-.18-.4a1.85,1.85,0,0,1,1.21-.44,1.2,1.2,0,0,1,1.31,1.24c0,.79-.57,1.43-1.48,2.3l-.34.32h1.92v.48Z"/><path class="cls-11" d="M418,148.2c0,1.45-.54,2.25-1.49,2.25s-1.4-.78-1.41-2.2.62-2.22,1.49-2.22S418,146.83,418,148.2Zm-2.32.06c0,1.11.34,1.75.87,1.75s.87-.7.87-1.79-.27-1.74-.87-1.74S415.65,147.1,415.65,148.26Z"/><path class="cls-12" d="M398.14,153.28a1,1,0,0,1-.39.07.64.64,0,0,1-.67-.68.68.68,0,0,1,.72-.71.72.72,0,0,1,.34.07l-.05.18a.63.63,0,0,0-.29-.06.47.47,0,0,0-.47.51.46.46,0,0,0,.46.5.69.69,0,0,0,.3-.07Z"/><path class="cls-12" d="M399.16,153.33l0-.17h0a.52.52,0,0,1-.41.2.38.38,0,0,1-.41-.39c0-.32.28-.5.8-.5v0a.27.27,0,0,0-.3-.31.65.65,0,0,0-.35.1l-.06-.16a.84.84,0,0,1,.44-.12c.41,0,.51.28.51.55v.5a1.69,1.69,0,0,0,0,.33Zm0-.69c-.27,0-.57,0-.57.3a.22.22,0,0,0,.23.24.32.32,0,0,0,.32-.23.19.19,0,0,0,0-.08Z"/><path class="cls-12" d="M399.76,151.36H400v2h-.24Z"/><path class="cls-12" d="M401.63,152.64a.66.66,0,0,1-.67.72.64.64,0,0,1-.65-.69A.67.67,0,0,1,401,152,.64.64,0,0,1,401.63,152.64Zm-1.07,0c0,.29.17.51.41.51s.41-.22.41-.52-.12-.51-.41-.51S400.56,152.4,400.56,152.66Z"/><path class="cls-12" d="M401.93,152.4c0-.16,0-.29,0-.42h.22v.27h0a.42.42,0,0,1,.38-.3h.07v.23h-.09a.34.34,0,0,0-.32.32.36.36,0,0,0,0,.11v.72h-.24Z"/><path class="cls-12" d="M403.12,151.61a.15.15,0,1,1-.3,0,.15.15,0,0,1,.3,0Zm-.27,1.72V152h.24v1.35Z"/><path class="cls-12" d="M403.64,152.7a.43.43,0,0,0,.46.47,1.05,1.05,0,0,0,.37-.07l0,.17a1.09,1.09,0,0,1-.45.08.62.62,0,0,1-.66-.67A.66.66,0,0,1,404,152a.58.58,0,0,1,.56.64s0,.08,0,.11Zm.71-.18a.34.34,0,0,0-.34-.39.41.41,0,0,0-.37.39Z"/><path class="cls-12" d="M404.85,153.08a.76.76,0,0,0,.33.09c.17,0,.26-.09.26-.2s-.07-.18-.25-.24-.36-.22-.36-.38a.42.42,0,0,1,.47-.4.64.64,0,0,1,.33.09l-.07.17a.55.55,0,0,0-.27-.07c-.14,0-.22.08-.22.18s.08.16.25.23.35.2.35.4-.18.4-.5.4a.74.74,0,0,1-.38-.09Z"/><path class="cls-12" d="M406.57,152.4c0-.16,0-.29,0-.42h.22v.27h0a.4.4,0,0,1,.37-.3h.07v.23h-.09a.34.34,0,0,0-.32.32.36.36,0,0,0,0,.11v.72h-.24Z"/><path class="cls-12" d="M407.59,152.7a.43.43,0,0,0,.46.47,1.05,1.05,0,0,0,.37-.07l0,.17a1.09,1.09,0,0,1-.45.08.61.61,0,0,1-.65-.67A.65.65,0,0,1,408,152a.58.58,0,0,1,.56.64s0,.08,0,.11Zm.71-.18a.34.34,0,0,0-.34-.39.41.41,0,0,0-.37.39Z"/><path class="cls-12" d="M408.84,152.35c0-.14,0-.25,0-.37H409v.22h0a.47.47,0,0,1,.42-.25.39.39,0,0,1,.38.27h0a.5.5,0,0,1,.15-.17.47.47,0,0,1,.3-.1c.17,0,.44.12.44.59v.79h-.24v-.76c0-.26-.1-.42-.29-.42a.32.32,0,0,0-.29.23.37.37,0,0,0,0,.12v.83h-.24v-.81c0-.21-.09-.37-.28-.37a.34.34,0,0,0-.3.25.23.23,0,0,0,0,.12v.81h-.24Z"/><path class="cls-12" d="M411.9,153.33l0-.17h0a.52.52,0,0,1-.41.2.38.38,0,0,1-.41-.39c0-.32.29-.5.8-.5v0a.27.27,0,0,0-.3-.31.65.65,0,0,0-.35.1l-.06-.16a.91.91,0,0,1,.45-.12c.41,0,.51.28.51.55v.5a1.72,1.72,0,0,0,0,.33Zm0-.69c-.27,0-.57,0-.57.3a.22.22,0,0,0,.23.24.33.33,0,0,0,.33-.23s0,0,0-.08Z"/><path class="cls-12" d="M412.76,151.61a.15.15,0,1,1-.3,0,.15.15,0,0,1,.3,0Zm-.27,1.72V152h.24v1.35Z"/><path class="cls-12" d="M413.14,152.35c0-.14,0-.25,0-.37h.21l0,.23h0a.5.5,0,0,1,.45-.26c.18,0,.47.12.47.57v.81H414v-.78c0-.21-.09-.39-.32-.39a.33.33,0,0,0-.32.25.36.36,0,0,0,0,.11v.81h-.24Z"/><path class="cls-12" d="M415,151.61a.15.15,0,0,1-.16.15.15.15,0,0,1-.14-.15.15.15,0,0,1,.3,0Zm-.27,1.72V152h.24v1.35Z"/><path class="cls-12" d="M415.32,152.35c0-.14,0-.25,0-.37h.22v.23h0A.49.49,0,0,1,416,152c.19,0,.48.12.48.57v.81h-.25v-.78c0-.21-.08-.39-.31-.39a.33.33,0,0,0-.32.25.2.2,0,0,0,0,.11v.81h-.25Z"/><path class="cls-12" d="M418,152c0,.1,0,.21,0,.37v.78a.75.75,0,0,1-.19.61.69.69,0,0,1-.49.17.82.82,0,0,1-.45-.12l.06-.18a.84.84,0,0,0,.4.1c.25,0,.43-.13.43-.46v-.15h0a.48.48,0,0,1-.42.22.59.59,0,0,1-.57-.65.64.64,0,0,1,.6-.72.46.46,0,0,1,.42.24h0l0-.21Zm-.25.53a.43.43,0,0,0,0-.11.34.34,0,0,0-.34-.25c-.23,0-.4.19-.4.5s.14.48.4.48a.36.36,0,0,0,.34-.24.69.69,0,0,0,0-.13Z"/><path class="cls-1" d="M374.67,208.11l-.28.56a2.08,2.08,0,0,0-1-.31c-.29,0-.51.1-.51.35,0,.65,1.87.3,1.86,1.57,0,.72-.64,1-1.35,1a2.16,2.16,0,0,1-1.41-.49l.27-.54a2,2,0,0,0,1.18.44c.32,0,.57-.11.57-.38,0-.72-1.85-.31-1.84-1.58,0-.71.62-1,1.29-1A2.25,2.25,0,0,1,374.67,208.11Z"/><path class="cls-1" d="M377.48,211.07a1.65,1.65,0,0,1-.86.26.93.93,0,0,1-1-1v-1.82h-.49v-.57h.49v-1h.76v1h1v.57h-1v1.68c0,.36.13.47.37.47a1.23,1.23,0,0,0,.53-.15Z"/><path class="cls-1" d="M380.28,210.87a1.42,1.42,0,0,1-1.16.46,1.11,1.11,0,0,1-1.23-1.09c0-.64.48-1.05,1.33-1.06h1.06v-.1c0-.44-.29-.71-.84-.71a1.84,1.84,0,0,0-1,.36l-.31-.53a2.59,2.59,0,0,1,1.51-.44c.91,0,1.42.46,1.42,1.23v2.31h-.75Zm0-.81v-.32h-.95c-.5,0-.73.13-.73.47s.26.52.68.52S380.24,210.44,380.28,210.06Z"/><path class="cls-1" d="M384,211.07a1.65,1.65,0,0,1-.86.26.93.93,0,0,1-1-1v-1.82h-.49v-.57h.49v-1h.76v1h1v.57h-1v1.68c0,.36.13.47.37.47a1.23,1.23,0,0,0,.53-.15Z"/><path class="cls-1" d="M385.55,206.78a.45.45,0,1,1-.45-.46A.44.44,0,0,1,385.55,206.78Zm-.82,4.52v-3.51h.75v3.51Z"/><path class="cls-1" d="M388.88,208.11l-.28.56a2.08,2.08,0,0,0-1-.31c-.3,0-.51.1-.51.35,0,.65,1.86.3,1.86,1.57,0,.72-.64,1-1.35,1a2.16,2.16,0,0,1-1.41-.49l.27-.54a1.91,1.91,0,0,0,1.17.44c.33,0,.58-.11.58-.38,0-.72-1.85-.31-1.84-1.58,0-.71.62-1,1.29-1A2.28,2.28,0,0,1,388.88,208.11Z"/><path class="cls-1" d="M391.69,211.07a1.66,1.66,0,0,1-.87.26.93.93,0,0,1-1-1v-1.82h-.49v-.57h.49v-1h.75v1h1v.57h-1v1.68c0,.36.14.47.38.47a1.23,1.23,0,0,0,.53-.15Z"/><path class="cls-1" d="M393.2,206.78a.44.44,0,1,1-.44-.46A.44.44,0,0,1,393.2,206.78Zm-.81,4.52v-3.51h.75v3.51Z"/><path class="cls-1" d="M397.15,208.33l-.42.49a1.3,1.3,0,0,0-1-.39,1.12,1.12,0,0,0,0,2.24,1.35,1.35,0,0,0,1-.42l.42.42a1.81,1.81,0,0,1-1.49.65,1.78,1.78,0,0,1,0-3.56A1.86,1.86,0,0,1,397.15,208.33Z"/><path class="cls-1" d="M400.25,208.11l-.27.56a2.08,2.08,0,0,0-1-.31c-.3,0-.52.1-.52.35,0,.65,1.87.3,1.86,1.57,0,.72-.64,1-1.34,1a2.14,2.14,0,0,1-1.41-.49l.27-.54a1.91,1.91,0,0,0,1.17.44c.32,0,.57-.11.57-.38,0-.72-1.84-.31-1.84-1.58,0-.71.63-1,1.3-1A2.22,2.22,0,0,1,400.25,208.11Z"/><path class="cls-1" d="M374.67,247.22l-.28.56a2.08,2.08,0,0,0-1-.31c-.29,0-.51.1-.51.35,0,.65,1.87.3,1.86,1.57,0,.72-.64,1-1.35,1A2.21,2.21,0,0,1,372,250l.27-.55a1.9,1.9,0,0,0,1.18.44c.32,0,.57-.11.57-.38,0-.71-1.85-.31-1.84-1.58,0-.71.62-1,1.29-1A2.25,2.25,0,0,1,374.67,247.22Z"/><path class="cls-1" d="M378.58,248.94h-2.65a1.07,1.07,0,0,0,1.09.88,1.35,1.35,0,0,0,1-.41l.4.43a1.88,1.88,0,0,1-1.45.59,1.68,1.68,0,0,1-1.79-1.77,1.71,1.71,0,0,1,1.77-1.79C378.17,246.87,378.67,247.68,378.58,248.94Zm-.66-.55a.89.89,0,0,0-1-.91,1,1,0,0,0-1,.91Z"/><path class="cls-1" d="M381.36,250.18a1.66,1.66,0,0,1-.87.26.92.92,0,0,1-1-1V247.6H379V247h.49v-1h.75v1h1v.57h-1v1.68c0,.36.14.47.38.47a1.23,1.23,0,0,0,.53-.15Z"/><path class="cls-1" d="M384,250.18a1.6,1.6,0,0,1-.86.26.92.92,0,0,1-1-1V247.6h-.5V247h.5v-1H383v1h1v.57h-1v1.68c0,.36.14.47.37.47a1.19,1.19,0,0,0,.53-.15Z"/><path class="cls-1" d="M385.56,245.9a.44.44,0,1,1-.88,0,.44.44,0,1,1,.88,0Zm-.82,4.51V246.9h.75v3.51Z"/><path class="cls-1" d="M390,248.22v2.19h-.76v-2a.78.78,0,0,0-.84-.85,1,1,0,0,0-1,1v1.87h-.75V246.9h.75v.67a1.33,1.33,0,0,1,1.3-.7A1.23,1.23,0,0,1,390,248.22Z"/><path class="cls-1" d="M394.15,250.06a1.63,1.63,0,0,1-1.82,1.65,2.53,2.53,0,0,1-1.45-.47l.32-.54a1.79,1.79,0,0,0,1.1.38,1,1,0,0,0,1.1-1v-.44a1.29,1.29,0,0,1-1.16.6,1.56,1.56,0,0,1-1.58-1.7,1.54,1.54,0,0,1,1.55-1.67,1.3,1.3,0,0,1,1.19.6v-.57h.75Zm-.75-1.5a1,1,0,0,0-1-1.07,1.08,1.08,0,1,0,1,1.07Z"/><path class="cls-1" d="M397.48,247.22l-.27.56a2.08,2.08,0,0,0-1-.31c-.3,0-.52.1-.52.35,0,.65,1.87.3,1.86,1.57,0,.72-.64,1-1.34,1a2.19,2.19,0,0,1-1.41-.48l.27-.55a1.85,1.85,0,0,0,1.17.44c.32,0,.58-.11.58-.38,0-.71-1.85-.31-1.85-1.58,0-.71.62-1,1.3-1A2.21,2.21,0,0,1,397.48,247.22Z"/><path class="cls-1" d="M375.34,258v2.18h-.76v-2a.78.78,0,0,0-.85-.85,1,1,0,0,0-1,1.09v1.73H372V255.3h.76v2.07a1.33,1.33,0,0,1,1.3-.72A1.23,1.23,0,0,1,375.34,258Z"/><path class="cls-1" d="M379.44,258.72h-2.65a1.06,1.06,0,0,0,1.09.88,1.35,1.35,0,0,0,1-.41l.4.43a1.92,1.92,0,0,1-1.45.6,1.69,1.69,0,0,1-1.8-1.78,1.71,1.71,0,0,1,1.78-1.79C379,256.65,379.53,257.46,379.44,258.72Zm-.66-.55a.9.9,0,0,0-1-.91,1,1,0,0,0-1,.91Z"/><path class="cls-1" d="M380.26,260.19V255.3H381v4.89Z"/><path class="cls-1" d="M385.87,258.45a1.63,1.63,0,0,1-1.66,1.77,1.37,1.37,0,0,1-1.24-.64v1.89h-.76v-4.79H383v.61a1.36,1.36,0,0,1,1.22-.64A1.66,1.66,0,0,1,385.87,258.45Zm-.77,0a1.07,1.07,0,1,0-1.06,1.15A1.06,1.06,0,0,0,385.1,258.42Z"/><rect class="cls-1" x="139.71" y="31.12" width="176.18" height="319.16"/><path class="cls-18" d="M197.8,120.07c0-.5,0-1,0-1.5"/><path class="cls-19" d="M198.13,115.62A30.26,30.26,0,0,1,225.07,90"/><path class="cls-18" d="M226.55,89.86c.5,0,1,0,1.5,0"/><path class="cls-20" d="M228.05,89.82a30.25,30.25,0,1,1-30.25,30.25"/><path class="cls-11" d="M213,114.86h0L210.86,116l-.33-1.27,2.7-1.45h1.43v12.35H213Z"/><path class="cls-11" d="M219,122.52a3.53,3.53,0,0,1,2.45-3.31l0-.06a3.05,3.05,0,0,1-2-2.77c0-2,1.65-3.29,3.82-3.29,2.39,0,3.59,1.51,3.59,3a3.13,3.13,0,0,1-2,2.89v.06a3.42,3.42,0,0,1,2.49,3.19c0,2.15-1.85,3.59-4.2,3.59C220.57,125.86,219,124.32,219,122.52Zm6.65-.08c0-1.5-1-2.22-2.72-2.7a2.69,2.69,0,0,0-2.22,2.55,2.28,2.28,0,0,0,2.47,2.35A2.23,2.23,0,0,0,225.66,122.44Zm-4.6-6.17c0,1.23.93,1.9,2.35,2.28a2.43,2.43,0,0,0,1.89-2.25,1.92,1.92,0,0,0-2.09-2A2,2,0,0,0,221.06,116.27Z"/><path class="cls-11" d="M236,114.48a5.73,5.73,0,0,0-1.25.08,5,5,0,0,0-4.29,4.39h.05a3.76,3.76,0,0,1,6.71,2.56,4.13,4.13,0,0,1-4.1,4.35c-2.64,0-4.37-2-4.37-5.26a7.77,7.77,0,0,1,2.09-5.57,6.67,6.67,0,0,1,4-1.82,7.57,7.57,0,0,1,1.21-.1Zm-.47,7.12a2.51,2.51,0,0,0-2.55-2.83,2.76,2.76,0,0,0-2.39,1.52,1.48,1.48,0,0,0-.19.75c0,2,1,3.53,2.72,3.53C234.51,124.57,235.48,123.37,235.48,121.6Z"/><path class="cls-11" d="M246.86,119.34c0,4.2-1.56,6.52-4.29,6.52-2.42,0-4-2.26-4.09-6.34s1.79-6.43,4.3-6.43S246.86,115.41,246.86,119.34Zm-6.71.19c0,3.21,1,5,2.51,5,1.71,0,2.53-2,2.53-5.15s-.78-5-2.51-5C241.22,114.39,240.15,116.17,240.15,119.53Z"/><path class="cls-12" d="M218.69,134a2.77,2.77,0,0,1-1.12.22,1.83,1.83,0,0,1-1.92-2,2,2,0,0,1,2.08-2.06,2.44,2.44,0,0,1,1,.2l-.16.55a1.57,1.57,0,0,0-.81-.19,1.34,1.34,0,0,0-1.37,1.46,1.32,1.32,0,0,0,1.34,1.45,2,2,0,0,0,.87-.19Z"/><path class="cls-12" d="M221.65,134.15l-.05-.49h0a1.42,1.42,0,0,1-1.18.58,1.1,1.1,0,0,1-1.18-1.11c0-.94.83-1.45,2.32-1.44v-.08a.8.8,0,0,0-.88-.9,2,2,0,0,0-1,.29l-.16-.46a2.37,2.37,0,0,1,1.27-.35c1.18,0,1.47.81,1.47,1.59v1.44a6.41,6.41,0,0,0,.06.93Zm-.1-2c-.77,0-1.64.12-1.64.87a.62.62,0,0,0,.66.67,1,1,0,0,0,.94-.65.85.85,0,0,0,0-.22Z"/><path class="cls-12" d="M223.37,128.47h.7v5.68h-.7Z"/><path class="cls-12" d="M228.76,132.18a1.89,1.89,0,0,1-1.93,2.06,1.84,1.84,0,0,1-1.85-2,1.89,1.89,0,0,1,1.91-2.06A1.83,1.83,0,0,1,228.76,132.18Zm-3.07,0c0,.85.48,1.49,1.17,1.49s1.18-.63,1.18-1.5c0-.66-.33-1.49-1.16-1.49S225.69,131.49,225.69,132.22Z"/><path class="cls-12" d="M229.65,131.49c0-.46,0-.85,0-1.21h.62l0,.76h0a1.16,1.16,0,0,1,1.07-.85.64.64,0,0,1,.2,0v.66l-.24,0a1,1,0,0,0-.95.9,3.11,3.11,0,0,0,0,.33v2.06h-.69Z"/><path class="cls-12" d="M233.08,129.19a.44.44,0,1,1-.87,0,.43.43,0,0,1,.44-.44A.42.42,0,0,1,233.08,129.19Zm-.79,5v-3.87H233v3.87Z"/><path class="cls-12" d="M234.56,132.34a1.24,1.24,0,0,0,1.33,1.35,2.6,2.6,0,0,0,1.07-.2l.12.5a3.17,3.17,0,0,1-1.29.24,1.79,1.79,0,0,1-1.9-1.95,1.87,1.87,0,0,1,1.81-2.09,1.64,1.64,0,0,1,1.6,1.83,2.33,2.33,0,0,1,0,.32Zm2.06-.5a1,1,0,0,0-1-1.14,1.15,1.15,0,0,0-1.08,1.14Z"/><path class="cls-12" d="M238.08,133.43a1.8,1.8,0,0,0,.93.28c.51,0,.75-.25.75-.57s-.2-.52-.72-.72c-.7-.24-1-.63-1-1.09a1.2,1.2,0,0,1,1.34-1.14,2,2,0,0,1,1,.24l-.17.52a1.52,1.52,0,0,0-.8-.23c-.41,0-.64.24-.64.53s.23.46.73.65c.67.26,1,.6,1,1.17s-.53,1.16-1.45,1.16a2.22,2.22,0,0,1-1.09-.26Z"/><rect class="cls-12" x="268.66" y="91.46" width="5.56" height="57.24" rx="2.78" transform="translate(542.87 240.16) rotate(-180)"/><path class="cls-12" d="M271.44,91.46c-7.22-.62-6.24,32.21,0,34.94"/><rect class="cls-12" x="183.02" y="107.4" width="5.56" height="41.29" rx="2.78"/><rect class="cls-12" x="181.03" y="91.45" width="1.47" height="16.74" rx="0.73"/><rect class="cls-12" x="183.72" y="91.45" width="1.47" height="16.74" rx="0.73"/><rect class="cls-12" x="186.41" y="91.45" width="1.47" height="16.74" rx="0.73"/><rect class="cls-12" x="189.11" y="91.45" width="1.47" height="16.74" rx="0.73"/><path class="cls-12" d="M185.8,113.7c2.64,0,4.77,0,4.77-6.42H181C181,113.72,183.17,113.7,185.8,113.7Z"/><path class="cls-11" d="M168.7,171.65v-.75l1-.94c2.33-2.22,3.38-3.39,3.39-4.77a1.61,1.61,0,0,0-1.8-1.77,3.11,3.11,0,0,0-1.94.77l-.39-.87a4,4,0,0,1,2.58-.93,2.57,2.57,0,0,1,2.79,2.65c0,1.68-1.22,3-3.14,4.89l-.73.67v0h4.09v1Z"/><path class="cls-11" d="M179.69,171.65v-2.48h-4.23v-.81l4.06-5.81h1.33v5.66h1.28v1h-1.28v2.48Zm0-3.44v-3c0-.48,0-1,0-1.43h0c-.28.53-.5.92-.76,1.34l-2.22,3.1v0Z"/><path class="cls-11" d="M183,169.34a2.61,2.61,0,0,1,1.81-2.44l0,0a2.24,2.24,0,0,1-1.44-2,2.55,2.55,0,0,1,2.82-2.43,2.35,2.35,0,0,1,2.64,2.24,2.31,2.31,0,0,1-1.5,2.13v.05a2.51,2.51,0,0,1,1.84,2.35,2.81,2.81,0,0,1-3.1,2.65C184.1,171.81,183,170.67,183,169.34Zm4.9-.06c0-1.1-.77-1.63-2-2a2,2,0,0,0-1.64,1.87,1.68,1.68,0,0,0,1.82,1.74A1.65,1.65,0,0,0,187.85,169.28Zm-3.39-4.55c0,.91.69,1.4,1.74,1.68a1.79,1.79,0,0,0,1.39-1.65,1.41,1.41,0,0,0-1.54-1.48A1.45,1.45,0,0,0,184.46,164.73Z"/><path class="cls-11" d="M196.29,167c0,3.1-1.14,4.81-3.16,4.81-1.78,0-3-1.67-3-4.68s1.31-4.74,3.16-4.74S196.29,164.1,196.29,167Zm-4.94.14c0,2.37.73,3.71,1.85,3.71s1.86-1.47,1.86-3.79-.57-3.71-1.85-3.71C192.13,163.35,191.35,164.66,191.35,167.14Z"/><path class="cls-12" d="M179.89,176.25c0,.21,0,.44,0,.8v1.68a1.64,1.64,0,0,1-.42,1.33,1.55,1.55,0,0,1-1,.35,2,2,0,0,1-1-.24l.14-.41a1.62,1.62,0,0,0,.85.23c.54,0,.93-.28.93-1v-.33h0a1,1,0,0,1-.92.49,1.3,1.3,0,0,1-1.24-1.42,1.39,1.39,0,0,1,1.31-1.54,1,1,0,0,1,.9.51h0l0-.44Zm-.54,1.15a1,1,0,0,0,0-.25.77.77,0,0,0-.74-.55c-.51,0-.86.42-.86,1.09s.28,1.05.85,1.05a.77.77,0,0,0,.73-.54.92.92,0,0,0,0-.28Z"/><path class="cls-12" d="M183.37,177.68a1.42,1.42,0,0,1-1.44,1.54,1.38,1.38,0,0,1-1.39-1.5,1.41,1.41,0,0,1,1.43-1.54A1.38,1.38,0,0,1,183.37,177.68Zm-2.3,0c0,.63.36,1.11.88,1.11s.88-.47.88-1.13c0-.49-.24-1.11-.87-1.11S181.07,177.15,181.07,177.71Z"/><path class="cls-12" d="M185.65,179.15l-.05-.36h0a1.13,1.13,0,0,1-.89.43.83.83,0,0,1-.89-.84c0-.7.62-1.08,1.75-1.08v-.05a.6.6,0,0,0-.66-.68,1.47,1.47,0,0,0-.76.22l-.12-.35a1.86,1.86,0,0,1,.95-.26c.89,0,1.11.61,1.11,1.19v1.09a3.67,3.67,0,0,0,0,.69Zm-.08-1.48c-.58,0-1.23.09-1.23.65a.47.47,0,0,0,.5.51.73.73,0,0,0,.7-.49.47.47,0,0,0,0-.17Z"/><path class="cls-12" d="M186.93,174.89h.53v4.26h-.53Z"/><path class="cls-11" d="M217.51,163.7h0l-1.59.85-.24-.94,2-1.06h1v9.1h-1.19Z"/><path class="cls-11" d="M221.91,169.34a2.6,2.6,0,0,1,1.8-2.44v0a2.24,2.24,0,0,1-1.44-2,2.55,2.55,0,0,1,2.81-2.43,2.35,2.35,0,0,1,2.65,2.24,2.31,2.31,0,0,1-1.5,2.13v.05a2.51,2.51,0,0,1,1.84,2.35,2.81,2.81,0,0,1-3.1,2.65C223.06,171.81,221.91,170.67,221.91,169.34Zm4.9-.06c0-1.1-.77-1.63-2-2a2,2,0,0,0-1.64,1.87,1.68,1.68,0,0,0,1.82,1.74A1.65,1.65,0,0,0,226.81,169.28Zm-3.39-4.55c0,.91.69,1.4,1.74,1.68a1.78,1.78,0,0,0,1.38-1.65,1.41,1.41,0,0,0-1.54-1.48A1.44,1.44,0,0,0,223.42,164.73Z"/><path class="cls-11" d="M234.4,163.42a4.46,4.46,0,0,0-.93.05,3.7,3.7,0,0,0-3.16,3.24h0a2.77,2.77,0,0,1,4.94,1.89,3,3,0,0,1-3,3.21c-2,0-3.22-1.52-3.22-3.88a5.72,5.72,0,0,1,1.54-4.11,4.93,4.93,0,0,1,2.91-1.34,5.48,5.48,0,0,1,.9-.07Zm-.35,5.25a1.85,1.85,0,0,0-1.88-2.09,2,2,0,0,0-1.76,1.12,1,1,0,0,0-.14.55c0,1.5.71,2.6,2,2.6C233.33,170.85,234.05,170,234.05,168.67Z"/><path class="cls-11" d="M242.43,167c0,3.1-1.14,4.81-3.16,4.81-1.78,0-3-1.67-3-4.68s1.31-4.74,3.16-4.74S242.43,164.1,242.43,167Zm-4.94.14c0,2.37.73,3.71,1.85,3.71s1.86-1.47,1.86-3.79-.57-3.71-1.85-3.71C238.27,163.35,237.49,164.66,237.49,167.14Z"/><path class="cls-12" d="M217.9,179a1.81,1.81,0,0,1-.83.17,1.38,1.38,0,0,1-1.45-1.48,1.48,1.48,0,0,1,1.56-1.54,1.78,1.78,0,0,1,.73.15l-.12.41a1.21,1.21,0,0,0-.61-.14,1,1,0,0,0-1,1.1,1,1,0,0,0,1,1.08,1.61,1.61,0,0,0,.65-.14Z"/><path class="cls-12" d="M221.11,177.68a1.42,1.42,0,0,1-1.44,1.54,1.38,1.38,0,0,1-1.39-1.5,1.41,1.41,0,0,1,1.43-1.54A1.38,1.38,0,0,1,221.11,177.68Zm-2.3,0c0,.63.36,1.11.88,1.11s.88-.47.88-1.13c0-.49-.24-1.11-.87-1.11S218.81,177.15,218.81,177.71Z"/><path class="cls-12" d="M221.78,177c0-.3,0-.55,0-.79h.47l0,.48h0a1.07,1.07,0,0,1,1-.55c.41,0,1,.24,1,1.24v1.73h-.53v-1.67c0-.47-.17-.86-.67-.86a.76.76,0,0,0-.71.54,1,1,0,0,0,0,.25v1.74h-.53Z"/><path class="cls-12" d="M225,178.61a1.37,1.37,0,0,0,.69.21c.39,0,.57-.19.57-.43s-.15-.39-.54-.53-.77-.48-.77-.82a.9.9,0,0,1,1-.86,1.51,1.51,0,0,1,.71.18l-.13.39a1.12,1.12,0,0,0-.59-.17c-.31,0-.49.18-.49.4s.18.34.55.49.77.44.77.87-.4.87-1.09.87a1.61,1.61,0,0,1-.81-.2Z"/><path class="cls-12" d="M229.91,178.36c0,.3,0,.56,0,.79h-.47l0-.47h0a1.11,1.11,0,0,1-1,.54c-.46,0-1-.25-1-1.27v-1.7H228v1.61c0,.55.17.92.65.92a.77.77,0,0,0,.7-.48.76.76,0,0,0,0-.27v-1.78h.52Z"/><path class="cls-12" d="M230.79,177c0-.3,0-.55,0-.79h.46l0,.47h0a1,1,0,0,1,.91-.54.84.84,0,0,1,.82.59h0a1.11,1.11,0,0,1,.32-.38,1,1,0,0,1,.64-.21c.38,0,1,.26,1,1.26v1.71h-.51v-1.64c0-.56-.2-.89-.63-.89a.68.68,0,0,0-.62.48.67.67,0,0,0,0,.26v1.79h-.51v-1.74c0-.46-.21-.79-.61-.79a.71.71,0,0,0-.65.52.75.75,0,0,0,0,.26v1.75h-.52Z"/><path class="cls-12" d="M236.09,177.8a.92.92,0,0,0,1,1,1.85,1.85,0,0,0,.81-.15l.09.38a2.3,2.3,0,0,1-1,.18,1.34,1.34,0,0,1-1.42-1.46,1.41,1.41,0,0,1,1.36-1.57,1.24,1.24,0,0,1,1.2,1.37c0,.11,0,.19,0,.25Zm1.55-.38a.76.76,0,0,0-.74-.86.88.88,0,0,0-.81.86Z"/><path class="cls-12" d="M241.31,174.89v3.51c0,.26,0,.55,0,.75h-.47l0-.5h0a1.07,1.07,0,0,1-1,.57,1.33,1.33,0,0,1-1.24-1.48,1.39,1.39,0,0,1,1.3-1.56,1,1,0,0,1,.88.45h0v-1.74Zm-.53,2.54a1.5,1.5,0,0,0,0-.22.78.78,0,0,0-.77-.61c-.54,0-.87.48-.87,1.12s.29,1.07.86,1.07a.79.79,0,0,0,.78-.63,1.52,1.52,0,0,0,0-.23Z"/><path class="cls-11" d="M269.77,163.42a4.43,4.43,0,0,0-.93.05,3.7,3.7,0,0,0-3.16,3.24h0a2.77,2.77,0,0,1,4.94,1.89,3,3,0,0,1-3,3.21c-1.95,0-3.23-1.52-3.23-3.88a5.72,5.72,0,0,1,1.55-4.11,4.93,4.93,0,0,1,2.91-1.34,5.4,5.4,0,0,1,.9-.07Zm-.35,5.25a1.86,1.86,0,0,0-1.88-2.09,2,2,0,0,0-1.77,1.12,1.09,1.09,0,0,0-.14.55c0,1.5.72,2.6,2,2.6C268.7,170.85,269.42,170,269.42,168.67Z"/><path class="cls-11" d="M271.75,171.65v-.75l1-.94c2.32-2.22,3.37-3.39,3.39-4.77a1.62,1.62,0,0,0-1.81-1.77,3.08,3.08,0,0,0-1.93.77l-.4-.87a4,4,0,0,1,2.58-.93,2.57,2.57,0,0,1,2.79,2.65c0,1.68-1.22,3-3.14,4.89l-.73.67v0h4.09v1Z"/><path class="cls-11" d="M285,167c0,3.1-1.14,4.81-3.16,4.81-1.78,0-3-1.67-3-4.68s1.31-4.74,3.16-4.74S285,164.1,285,167Zm-4.94.14c0,2.37.73,3.71,1.85,3.71s1.86-1.47,1.86-3.79-.57-3.71-1.85-3.71C280.82,163.35,280,164.66,280,167.14Z"/><path class="cls-12" d="M262.34,177.15c0-.34,0-.63,0-.9h.46l0,.57h0a.87.87,0,0,1,.8-.64l.15,0v.5l-.18,0a.74.74,0,0,0-.71.68,1.66,1.66,0,0,0,0,.24v1.55h-.52Z"/><path class="cls-12" d="M264.53,177.8a.93.93,0,0,0,1,1,1.8,1.8,0,0,0,.8-.15l.09.38a2.24,2.24,0,0,1-1,.18,1.35,1.35,0,0,1-1.43-1.46,1.41,1.41,0,0,1,1.36-1.57,1.23,1.23,0,0,1,1.2,1.37,1.47,1.47,0,0,1,0,.25Zm1.55-.38c0-.34-.14-.86-.73-.86a.87.87,0,0,0-.81.86Z"/><path class="cls-12" d="M267.24,177c0-.3,0-.55,0-.79h.46l0,.47h0a1,1,0,0,1,.92-.54.86.86,0,0,1,.82.59h0a1.11,1.11,0,0,1,.32-.38,1,1,0,0,1,.64-.21c.39,0,1,.26,1,1.26v1.71h-.52v-1.64c0-.56-.2-.89-.63-.89a.72.72,0,0,0-.66.74v1.79h-.52v-1.74c0-.46-.2-.79-.6-.79a.73.73,0,0,0-.66.52.75.75,0,0,0,0,.26v1.75h-.52Z"/><path class="cls-12" d="M273.86,179.15l-.05-.36h0a1.13,1.13,0,0,1-.89.43.83.83,0,0,1-.89-.84c0-.7.62-1.08,1.75-1.08v-.05a.6.6,0,0,0-.66-.68,1.47,1.47,0,0,0-.76.22l-.12-.35a1.86,1.86,0,0,1,.95-.26c.89,0,1.11.61,1.11,1.19v1.09a4.84,4.84,0,0,0,0,.69Zm-.08-1.48c-.58,0-1.23.09-1.23.65a.47.47,0,0,0,.5.51.73.73,0,0,0,.7-.49.47.47,0,0,0,0-.17Z"/><path class="cls-12" d="M275.73,175.43a.33.33,0,1,1-.66,0,.33.33,0,0,1,.33-.33A.32.32,0,0,1,275.73,175.43Zm-.59,3.72v-2.9h.53v2.9Z"/><path class="cls-12" d="M276.54,177c0-.3,0-.55,0-.79H277l0,.48h0a1.06,1.06,0,0,1,1-.55c.4,0,1,.24,1,1.24v1.73h-.52v-1.67c0-.47-.18-.86-.67-.86a.76.76,0,0,0-.71.54.66.66,0,0,0,0,.25v1.74h-.53Z"/><path class="cls-12" d="M280.46,175.43a.31.31,0,0,1-.33.33.32.32,0,0,1-.32-.33.33.33,0,0,1,.33-.33A.31.31,0,0,1,280.46,175.43Zm-.59,3.72v-2.9h.53v2.9Z"/><path class="cls-12" d="M281.28,177c0-.3,0-.55,0-.79h.47l0,.48h0a1.07,1.07,0,0,1,1-.55c.4,0,1,.24,1,1.24v1.73h-.53v-1.67c0-.47-.17-.86-.67-.86a.76.76,0,0,0-.71.54,1,1,0,0,0,0,.25v1.74h-.53Z"/><path class="cls-12" d="M287.11,176.25c0,.21,0,.44,0,.8v1.68a1.68,1.68,0,0,1-.41,1.33,1.55,1.55,0,0,1-1.05.35,1.93,1.93,0,0,1-1-.24l.13-.41a1.62,1.62,0,0,0,.85.23c.54,0,.94-.28.94-1v-.33h0a1.06,1.06,0,0,1-.93.49,1.29,1.29,0,0,1-1.23-1.42,1.39,1.39,0,0,1,1.31-1.54,1,1,0,0,1,.9.51h0l0-.44Zm-.55,1.15a.66.66,0,0,0,0-.25.75.75,0,0,0-.73-.55c-.51,0-.87.42-.87,1.09s.29,1.05.86,1.05a.78.78,0,0,0,.73-.54.9.9,0,0,0,0-.28Z"/><line class="cls-21" x1="202.07" y1="171.15" x2="208.94" y2="171.15"/><line class="cls-21" x1="248.98" y1="172.65" x2="255.85" y2="172.65"/><line class="cls-21" x1="248.98" y1="169.65" x2="255.85" y2="169.65"/><path class="cls-16" d="M305,346.32H150.61a9.34,9.34,0,0,1-9.34-9.33V44.41a9.35,9.35,0,0,1,9.34-9.34H305a9.35,9.35,0,0,1,9.34,9.34V337A9.34,9.34,0,0,1,305,346.32ZM150.61,37.07a7.34,7.34,0,0,0-7.34,7.34V337a7.34,7.34,0,0,0,7.34,7.33H305a7.34,7.34,0,0,0,7.34-7.33V44.41A7.34,7.34,0,0,0,305,37.07Z"/><rect class="cls-16" x="148.02" y="60.19" width="159.55" height="2"/><path class="cls-16" d="M302.39,332.55H153.21a6.19,6.19,0,0,1-6.19-6.19V55a6.19,6.19,0,0,1,6.19-6.19H302.39A6.19,6.19,0,0,1,308.57,55V326.36A6.19,6.19,0,0,1,302.39,332.55ZM153.21,50.84A4.2,4.2,0,0,0,149,55V326.36a4.2,4.2,0,0,0,4.19,4.19H302.39a4.19,4.19,0,0,0,4.18-4.19V55a4.19,4.19,0,0,0-4.18-4.19Z"/><circle class="cls-11" cx="285.82" cy="309.8" r="11.75"/><path class="cls-1" d="M286.39,305.11v4.14h4v1.06h-4v4.18h-1.13v-4.18h-4v-1.06h4v-4.14Z"/><rect class="cls-11" x="149.02" y="62.19" width="157.55" height="17.13"/><line class="cls-22" x1="153.73" y1="67.26" x2="163.48" y2="67.26"/><line class="cls-22" x1="153.73" y1="70.76" x2="163.48" y2="70.76"/><line class="cls-22" x1="153.73" y1="74.26" x2="163.48" y2="74.26"/><path class="cls-1" d="M270.78,71.23v4.3h-1.49V71.64A1.55,1.55,0,0,0,267.62,70a2,2,0,0,0-2,2.16v3.41h-1.5V65.88h1.5V70a2.61,2.61,0,0,1,2.56-1.4A2.41,2.41,0,0,1,270.78,71.23Z"/><path class="cls-1" d="M279.35,72.07a3.61,3.61,0,1,1-3.6-3.51A3.39,3.39,0,0,1,279.35,72.07Zm-5.72,0a2.11,2.11,0,1,0,2.12-2.23A2.08,2.08,0,0,0,273.63,72.08Z"/><path class="cls-1" d="M292.47,71.23v4.3H291V71.64A1.54,1.54,0,0,0,289.33,70a2,2,0,0,0-1.9,2.16v3.42h-1.49V71.64A1.53,1.53,0,0,0,284.31,70a2,2,0,0,0-1.92,2.16v3.42h-1.48V68.61h1.48V70a2.57,2.57,0,0,1,2.51-1.39,2.31,2.31,0,0,1,2.4,1.66,2.56,2.56,0,0,1,2.63-1.66A2.4,2.4,0,0,1,292.47,71.23Z"/><path class="cls-1" d="M300.55,72.64h-5.22a2.1,2.1,0,0,0,2.14,1.73,2.7,2.7,0,0,0,1.95-.8l.79.84a3.75,3.75,0,0,1-2.86,1.17,3.51,3.51,0,0,1,0-7C299.75,68.56,300.73,70.15,300.55,72.64Zm-1.3-1.09a1.77,1.77,0,0,0-1.92-1.79,2,2,0,0,0-2,1.79Z"/><line class="cls-23" x1="149.02" y1="187.19" x2="306.57" y2="187.19"/><line class="cls-23" x1="149.02" y1="225.77" x2="150.52" y2="225.77"/><line class="cls-24" x1="153.55" y1="225.77" x2="303.56" y2="225.77"/><line class="cls-23" x1="305.07" y1="225.77" x2="306.57" y2="225.77"/><line class="cls-23" x1="149.02" y1="256.95" x2="150.52" y2="256.95"/><line class="cls-24" x1="153.55" y1="256.95" x2="303.56" y2="256.95"/><line class="cls-23" x1="305.07" y1="256.95" x2="306.57" y2="256.95"/><line class="cls-23" x1="149.02" y1="266.72" x2="306.57" y2="266.72"/><rect class="cls-11" x="155.2" y="196.24" width="75.06" height="6"/><rect class="cls-12" x="155.2" y="205.91" width="42.88" height="2.33"/><rect class="cls-12" x="200.64" y="205.91" width="26" height="2.33"/><rect class="cls-12" x="155.2" y="210.07" width="50" height="2.34"/><rect class="cls-12" x="208.01" y="210.07" width="6.69" height="2.33"/><rect class="cls-12" x="217.33" y="210.07" width="11.38" height="2.33"/><rect class="cls-12" x="155.17" y="214.38" width="11.28" height="2.33"/><rect class="cls-12" x="168.83" y="214.38" width="18.38" height="2.33"/><rect class="cls-12" x="241.67" y="193.54" width="28.75" height="25.88" rx="1.63"/><path class="cls-16" d="M251.66,202l-8.49,14.7a.93.93,0,0,0,.8,1.39h17a.93.93,0,0,0,.8-1.39L253.26,202A.93.93,0,0,0,251.66,202Z"/><path class="cls-16" d="M261.06,205.81l-6.26,10.85a.93.93,0,0,0,.8,1.39h12.52a.93.93,0,0,0,.81-1.39l-6.27-10.85A.93.93,0,0,0,261.06,205.81Z"/><path class="cls-11" d="M280.75,206.17a2.51,2.51,0,0,1,1.75-2.35l0,0a2.18,2.18,0,0,1-1.39-2,2.47,2.47,0,0,1,2.72-2.34,2.27,2.27,0,0,1,2.55,2.17,2.22,2.22,0,0,1-1.44,2.05v0a2.44,2.44,0,0,1,1.77,2.27,2.71,2.71,0,0,1-3,2.56C281.86,208.55,280.75,207.45,280.75,206.17Zm4.74-.06c0-1.06-.75-1.58-1.94-1.92A1.91,1.91,0,0,0,282,206a1.63,1.63,0,0,0,1.76,1.67A1.59,1.59,0,0,0,285.49,206.11Zm-3.28-4.39c0,.88.67,1.35,1.68,1.62a1.72,1.72,0,0,0,1.34-1.59,1.37,1.37,0,0,0-1.49-1.44A1.4,1.4,0,0,0,282.21,201.72Z"/><path class="cls-11" d="M292.81,200.45a4.85,4.85,0,0,0-.89.05,3.57,3.57,0,0,0-3.05,3.13h0a2.67,2.67,0,0,1,4.77,1.82,2.94,2.94,0,0,1-2.92,3.1c-1.88,0-3.11-1.46-3.11-3.75a5.51,5.51,0,0,1,1.49-4,4.84,4.84,0,0,1,2.81-1.3,6.08,6.08,0,0,1,.86-.06Zm-.33,5.07a1.78,1.78,0,0,0-1.81-2,2,2,0,0,0-1.71,1.08,1,1,0,0,0-.13.52c0,1.45.69,2.52,1.93,2.52C291.79,207.63,292.48,206.78,292.48,205.52Z"/><path class="cls-11" d="M295,207a3.93,3.93,0,0,0,2,.56c1.53,0,2-1,2-1.71,0-1.23-1.12-1.75-2.27-1.75H296v-.9h.66c.87,0,2-.44,2-1.48,0-.71-.44-1.33-1.54-1.33a3.19,3.19,0,0,0-1.75.58l-.32-.86a4.18,4.18,0,0,1,2.3-.68c1.73,0,2.52,1,2.52,2.1a2.19,2.19,0,0,1-1.63,2.07v0a2.3,2.3,0,0,1,2,2.26c0,1.41-1.1,2.64-3.21,2.64a4.37,4.37,0,0,1-2.28-.6Z"/><path class="cls-12" d="M284,214.35a1.81,1.81,0,0,1-.79.16,1.31,1.31,0,0,1-1.37-1.41,1.4,1.4,0,0,1,1.48-1.46,1.59,1.59,0,0,1,.69.14l-.11.39a1.15,1.15,0,0,0-.58-.13,1,1,0,0,0,0,2.07,1.45,1.45,0,0,0,.62-.14Z"/><path class="cls-12" d="M286.11,214.45l0-.35h0a1,1,0,0,1-.84.41.79.79,0,0,1-.85-.79c0-.66.6-1,1.66-1v-.06a.57.57,0,0,0-.63-.64,1.32,1.32,0,0,0-.71.21l-.12-.33a1.71,1.71,0,0,1,.91-.25c.84,0,1,.58,1,1.13v1a4.41,4.41,0,0,0,0,.66ZM286,213c-.54,0-1.16.09-1.16.62a.44.44,0,0,0,.47.48.68.68,0,0,0,.66-.46.45.45,0,0,0,0-.16Z"/><path class="cls-12" d="M287.33,210.41h.5v4h-.5Z"/><path class="cls-12" d="M291.16,213.05a1.34,1.34,0,0,1-1.37,1.46,1.3,1.3,0,0,1-1.32-1.41,1.35,1.35,0,0,1,1.37-1.47A1.3,1.3,0,0,1,291.16,213.05Zm-2.18,0c0,.6.34,1.06.83,1.06s.84-.45.84-1.07c0-.47-.23-1.06-.83-1.06S289,212.55,289,213.08Z"/><path class="cls-12" d="M291.8,212.55c0-.32,0-.6,0-.86h.44l0,.55h0a.84.84,0,0,1,.76-.61l.15,0v.47l-.18,0a.71.71,0,0,0-.67.65,1.64,1.64,0,0,0,0,.23v1.47h-.49Z"/><path class="cls-12" d="M294.24,210.92a.3.3,0,0,1-.32.31.31.31,0,0,1,0-.62A.29.29,0,0,1,294.24,210.92Zm-.56,3.53v-2.76h.5v2.76Z"/><path class="cls-12" d="M295.29,213.16a.89.89,0,0,0,.95,1A1.83,1.83,0,0,0,297,214l.08.36a2.16,2.16,0,0,1-.91.17,1.28,1.28,0,0,1-1.36-1.39,1.34,1.34,0,0,1,1.3-1.49,1.17,1.17,0,0,1,1.13,1.3c0,.1,0,.18,0,.23Zm1.47-.36a.71.71,0,0,0-.69-.81.83.83,0,0,0-.77.81Z"/><path class="cls-12" d="M297.8,213.94a1.39,1.39,0,0,0,.66.2c.36,0,.53-.19.53-.41s-.14-.37-.51-.51-.73-.45-.73-.78a.85.85,0,0,1,.95-.81,1.38,1.38,0,0,1,.68.17l-.13.37a1,1,0,0,0-.56-.16c-.3,0-.46.17-.46.37s.16.33.52.47.73.42.73.83-.38.83-1,.83a1.63,1.63,0,0,1-.78-.19Z"/><rect class="cls-11" x="155.2" y="233.28" width="60.88" height="6"/><rect class="cls-12" x="155.2" y="242.94" width="42.88" height="2.33"/><rect class="cls-12" x="200.64" y="242.94" width="26" height="2.33"/><rect class="cls-12" x="155.2" y="247.11" width="50" height="2.34"/><rect class="cls-12" x="208.01" y="247.11" width="6.69" height="2.33"/><rect class="cls-12" x="217.33" y="247.11" width="11.38" height="2.33"/><path class="cls-11" d="M282.36,235.6h0l-1.52.83-.23-.91,1.92-1h1v8.78h-1.15Z"/><path class="cls-11" d="M292.42,234.5v.78l-3.83,8h-1.23l3.82-7.77v0h-4.3v-1Z"/><path class="cls-11" d="M298.9,235.5h-3.35l-.34,2.25a5.86,5.86,0,0,1,.71-.05,3.77,3.77,0,0,1,1.9.47,2.5,2.5,0,0,1,1.25,2.26,3,3,0,0,1-3.27,3,4.31,4.31,0,0,1-2.19-.54l.3-.9a4,4,0,0,0,1.88.48,1.94,1.94,0,0,0,2.08-1.9c0-1.14-.77-1.95-2.53-1.95a9.12,9.12,0,0,0-1.21.09l.56-4.21h4.21Z"/><path class="cls-12" d="M282.91,249.23a1.81,1.81,0,0,1-.79.16,1.31,1.31,0,0,1-1.37-1.41,1.4,1.4,0,0,1,1.48-1.46,1.84,1.84,0,0,1,.69.14l-.11.39a1.15,1.15,0,0,0-.58-.13,1,1,0,0,0-1,1,.94.94,0,0,0,1,1,1.46,1.46,0,0,0,.61-.13Z"/><path class="cls-12" d="M285,249.33l0-.34h0a1.06,1.06,0,0,1-.85.41.79.79,0,0,1-.84-.8c0-.66.59-1,1.66-1v-.06a.57.57,0,0,0-.63-.63,1.47,1.47,0,0,0-.72.2l-.11-.33a1.71,1.71,0,0,1,.91-.24c.84,0,1,.57,1,1.12v1a3.28,3.28,0,0,0,.05.66Zm-.07-1.4c-.55,0-1.17.08-1.17.62a.45.45,0,0,0,.47.48.69.69,0,0,0,.67-.47.4.4,0,0,0,0-.15Z"/><path class="cls-12" d="M286.24,245.29h.5v4h-.5Z"/><path class="cls-12" d="M290.08,247.93a1.35,1.35,0,0,1-1.37,1.47,1.31,1.31,0,0,1-1.32-1.42,1.34,1.34,0,0,1,1.36-1.46A1.3,1.3,0,0,1,290.08,247.93Zm-2.19,0c0,.6.35,1.06.84,1.06s.84-.45.84-1.07c0-.47-.24-1.06-.83-1.06S287.89,247.44,287.89,248Z"/><path class="cls-12" d="M290.71,247.44c0-.33,0-.61,0-.86h.44v.54h0a.81.81,0,0,1,.76-.6h.14V247a.44.44,0,0,0-.17,0,.71.71,0,0,0-.67.64,1.66,1.66,0,0,0,0,.24v1.46h-.5Z"/><path class="cls-12" d="M293.15,245.8a.29.29,0,0,1-.31.31.3.3,0,0,1-.31-.31.31.31,0,0,1,.32-.31A.3.3,0,0,1,293.15,245.8Zm-.55,3.53v-2.75h.5v2.75Z"/><path class="cls-12" d="M294.21,248.05a.88.88,0,0,0,.94.95,1.85,1.85,0,0,0,.77-.14l.08.36a2.26,2.26,0,0,1-.92.17,1.28,1.28,0,0,1-1.35-1.39,1.33,1.33,0,0,1,1.29-1.48,1.16,1.16,0,0,1,1.14,1.29,1.25,1.25,0,0,1,0,.24Zm1.47-.36a.72.72,0,0,0-.7-.82.84.84,0,0,0-.77.82Z"/><path class="cls-12" d="M296.71,248.82a1.29,1.29,0,0,0,.66.2c.37,0,.54-.18.54-.41s-.14-.37-.51-.51-.73-.45-.73-.78a.85.85,0,0,1,.95-.8,1.41,1.41,0,0,1,.68.17l-.13.36a1.07,1.07,0,0,0-.56-.16c-.3,0-.46.17-.46.38s.16.33.52.46.72.43.72.83-.37.83-1,.83a1.49,1.49,0,0,1-.77-.19Z"/><circle class="cls-25" cx="227.8" cy="261.98" r="1"/><circle class="cls-25" cx="232.8" cy="261.98" r="1"/><circle class="cls-25" cx="222.8" cy="261.98" r="1"/><rect class="cls-1" x="741.87" y="31.17" width="176.5" height="321"/><circle class="cls-11" cx="888.15" cy="310.77" r="11.75"/><path class="cls-1" d="M888.71,306.08v4.14h4v1.06h-4v4.18h-1.13v-4.18h-4v-1.06h4v-4.14Z"/><rect class="cls-11" x="751.34" y="63.16" width="157.55" height="17.13"/><line class="cls-22" x1="756.06" y1="68.23" x2="765.81" y2="68.23"/><line class="cls-22" x1="756.06" y1="71.73" x2="765.81" y2="71.73"/><line class="cls-22" x1="756.06" y1="75.23" x2="765.81" y2="75.23"/><rect class="cls-11" x="785.74" y="88.95" width="88.76" height="8.66"/><rect class="cls-11" x="789.42" y="101.81" width="34.82" height="8.66"/><rect class="cls-11" x="827.9" y="101.81" width="42.93" height="8.66"/><rect class="cls-12" x="751.34" y="119.29" width="157.55" height="65.09"/><path class="cls-16" d="M808.9,138.23l-51,40.54a1.22,1.22,0,0,0,.76,2.18h99.91a2.5,2.5,0,0,0,1.55-4.46L812,138.23A2.51,2.51,0,0,0,808.9,138.23Z"/><path class="cls-16" d="M860.42,147.92l-35.94,28.57A2.5,2.5,0,0,0,826,181h75.54a1.22,1.22,0,0,0,.76-2.18l-38.8-30.85A2.48,2.48,0,0,0,860.42,147.92Z"/><path class="cls-16" d="M907.31,347.29H752.93A9.34,9.34,0,0,1,743.6,338V45.38A9.35,9.35,0,0,1,752.93,36H907.31a9.35,9.35,0,0,1,9.33,9.34V338A9.34,9.34,0,0,1,907.31,347.29ZM752.93,38a7.34,7.34,0,0,0-7.33,7.34V338a7.34,7.34,0,0,0,7.33,7.33H907.31a7.34,7.34,0,0,0,7.33-7.33V45.38A7.34,7.34,0,0,0,907.31,38Z"/><rect class="cls-16" x="750.34" y="61.16" width="159.55" height="2"/><path class="cls-16" d="M904.71,333.52H755.53a6.2,6.2,0,0,1-6.19-6.19V56a6.2,6.2,0,0,1,6.19-6.19H904.71A6.2,6.2,0,0,1,910.9,56V327.33A6.2,6.2,0,0,1,904.71,333.52ZM755.53,51.81A4.2,4.2,0,0,0,751.34,56V327.33a4.2,4.2,0,0,0,4.19,4.19H904.71a4.2,4.2,0,0,0,4.19-4.19V56a4.2,4.2,0,0,0-4.19-4.19Z"/><rect class="cls-12" x="756.09" y="188.28" width="42.95" height="2.33"/><rect class="cls-12" x="801.61" y="188.28" width="26.04" height="2.33"/><rect class="cls-12" x="756.09" y="192.45" width="50.08" height="2.34"/><rect class="cls-12" x="808.99" y="192.45" width="6.7" height="2.33"/><rect class="cls-12" x="818.32" y="192.45" width="11.4" height="2.33"/><rect class="cls-12" x="756.06" y="196.75" width="11.3" height="2.33"/><rect class="cls-12" x="769.74" y="196.75" width="18.41" height="2.33"/><rect class="cls-12" x="829.84" y="188.28" width="11.3" height="2.33"/><rect class="cls-12" x="843.52" y="188.28" width="18.41" height="2.33"/><rect class="cls-12" x="864.4" y="188.28" width="38.2" height="2.34"/><rect class="cls-12" x="832.16" y="192.45" width="26.04" height="2.33"/><rect class="cls-12" x="860.4" y="192.45" width="11.3" height="2.33"/><rect class="cls-12" x="874.3" y="192.45" width="28.3" height="2.33"/><rect class="cls-12" x="790.59" y="196.75" width="26.04" height="2.33"/><path class="cls-11" d="M757,204a.47.47,0,1,1-.47-.49A.46.46,0,0,1,757,204Zm-.87,4.79v-3.72h.8v3.72Z"/><path class="cls-11" d="M761.68,206.51v2.32h-.8v-2.09a.84.84,0,0,0-.9-.91,1.05,1.05,0,0,0-1.06,1v2h-.8v-3.72h.8v.71a1.42,1.42,0,0,1,1.38-.74A1.3,1.3,0,0,1,761.68,206.51Z"/><path class="cls-11" d="M766.12,208.47a1.72,1.72,0,0,1-1.93,1.74,2.72,2.72,0,0,1-1.55-.49l.34-.58a1.89,1.89,0,0,0,1.17.41,1.05,1.05,0,0,0,1.17-1.06V208a1.35,1.35,0,0,1-1.23.63,1.65,1.65,0,0,1-1.68-1.8,1.63,1.63,0,0,1,1.65-1.77,1.37,1.37,0,0,1,1.26.63v-.6h.8Zm-.8-1.6a1.08,1.08,0,1,0-1.07,1.15A1.06,1.06,0,0,0,765.32,206.87Z"/><path class="cls-11" d="M768,205.85a1.35,1.35,0,0,1,1.29-.77v.77a1.14,1.14,0,0,0-1.29,1v1.94h-.8v-3.72h.8Z"/><path class="cls-11" d="M773.27,207.28h-2.81a1.14,1.14,0,0,0,1.16.93,1.44,1.44,0,0,0,1-.44l.42.46a2,2,0,0,1-1.54.63,1.78,1.78,0,0,1-1.9-1.88,1.81,1.81,0,0,1,1.88-1.9C772.84,205.08,773.37,205.93,773.27,207.28Zm-.7-.59a1,1,0,0,0-1-1,1.06,1.06,0,0,0-1.09,1Z"/><path class="cls-11" d="M777.66,208.83h-.8v-.64a1.45,1.45,0,0,1-1.31.68,1.76,1.76,0,0,1-1.79-1.91,1.74,1.74,0,0,1,1.77-1.89,1.48,1.48,0,0,1,1.33.68v-2.11h.8Zm-.8-1.85a1.13,1.13,0,0,0-1.14-1.22,1.22,1.22,0,0,0,0,2.43A1.13,1.13,0,0,0,776.86,207Z"/><path class="cls-11" d="M779.76,204a.47.47,0,0,1-.47.48.49.49,0,0,1,0-1A.47.47,0,0,1,779.76,204Zm-.87,4.79v-3.72h.8v3.72Z"/><path class="cls-11" d="M784.15,207.28h-2.81a1.13,1.13,0,0,0,1.15.93,1.4,1.4,0,0,0,1-.44l.43.46a2,2,0,0,1-1.54.63,1.79,1.79,0,0,1-1.91-1.88,1.81,1.81,0,0,1,1.89-1.9C783.72,205.08,784.25,205.93,784.15,207.28Zm-.7-.59a1,1,0,0,0-1-1,1.06,1.06,0,0,0-1.1,1Z"/><path class="cls-11" d="M788.56,206.51v2.32h-.81v-2.09a.84.84,0,0,0-.9-.91,1,1,0,0,0-1.05,1v2H785v-3.72h.81v.71a1.39,1.39,0,0,1,1.37-.74A1.3,1.3,0,0,1,788.56,206.51Z"/><path class="cls-11" d="M791.74,208.59a1.74,1.74,0,0,1-.92.28,1,1,0,0,1-1-1.09v-1.93h-.53v-.6h.53v-1h.8v1h1.1v.6h-1.1v1.79c0,.38.14.5.4.5a1.42,1.42,0,0,0,.56-.16Z"/><path class="cls-11" d="M794.9,205.45l-.3.6a2.12,2.12,0,0,0-1.07-.33c-.31,0-.54.1-.54.37,0,.68,2,.31,2,1.66,0,.77-.68,1.11-1.43,1.11a2.3,2.3,0,0,1-1.5-.52l.29-.57a2,2,0,0,0,1.25.46c.34,0,.61-.12.61-.4,0-.76-2-.34-2-1.68,0-.76.66-1.08,1.37-1.08A2.37,2.37,0,0,1,794.9,205.45Z"/><circle class="cls-12" cx="761.68" cy="216.47" r="1.29"/><rect class="cls-12" x="766.83" y="215.3" width="11.4" height="2.33"/><rect class="cls-12" x="780.67" y="215.3" width="26.04" height="2.33"/><circle class="cls-12" cx="761.68" cy="223.25" r="1.29"/><rect class="cls-12" x="766.79" y="222.08" width="32.56" height="2.33"/><circle class="cls-12" cx="761.68" cy="229.98" r="1.29"/><rect class="cls-12" x="766.79" y="228.82" width="11.3" height="2.33"/><rect class="cls-12" x="780.47" y="228.82" width="18.41" height="2.33"/><circle class="cls-12" cx="830.27" cy="216.47" r="1.29"/><rect class="cls-12" x="878.76" y="215.3" width="6.7" height="2.33" transform="translate(1764.21 432.94) rotate(-180)"/><rect class="cls-12" x="864.73" y="215.3" width="11.4" height="2.33" transform="translate(1740.86 432.94) rotate(-180)"/><rect class="cls-12" x="836.24" y="215.3" width="26.04" height="2.33" transform="translate(1698.53 432.94) rotate(-180)"/><circle class="cls-12" cx="830.27" cy="223.25" r="1.29"/><rect class="cls-12" x="836.3" y="222.08" width="11.3" height="2.33"/><path class="cls-11" d="M762.29,239.84v2.32h-.81v-2.09a.83.83,0,0,0-.88-.92,1.07,1.07,0,0,0-1,1.17v1.84h-.81v-2.09a.83.83,0,0,0-.87-.92,1.08,1.08,0,0,0-1,1.17v1.84h-.8v-3.73h.8v.72a1.37,1.37,0,0,1,1.35-.74,1.25,1.25,0,0,1,1.3.89,1.36,1.36,0,0,1,1.41-.89A1.29,1.29,0,0,1,762.29,239.84Z"/><path class="cls-11" d="M766.64,240.6h-2.82a1.14,1.14,0,0,0,1.16.94,1.44,1.44,0,0,0,1-.44l.43.46a2,2,0,0,1-1.54.63,1.89,1.89,0,1,1,0-3.78C766.2,238.41,766.74,239.26,766.64,240.6Zm-.7-.58a1,1,0,0,0-1-1,1.06,1.06,0,0,0-1.09,1Z"/><path class="cls-11" d="M769.59,241.92a1.78,1.78,0,0,1-.92.27,1,1,0,0,1-1-1.08v-1.93h-.52v-.61h.52v-1h.8v1h1.1v.61h-1.1V241c0,.39.15.51.4.51a1.33,1.33,0,0,0,.56-.16Z"/><path class="cls-11" d="M773.93,239.84v2.32h-.8v-2.09a.84.84,0,0,0-.9-.91,1.07,1.07,0,0,0-1.06,1.16v1.84h-.81V237h.81v2.2a1.41,1.41,0,0,1,1.38-.75A1.29,1.29,0,0,1,773.93,239.84Z"/><path class="cls-11" d="M778.55,240.3a1.95,1.95,0,1,1-1.94-1.89A1.83,1.83,0,0,1,778.55,240.3Zm-3.09,0a1.14,1.14,0,1,0,2.28,0,1.14,1.14,0,1,0-2.28,0Z"/><path class="cls-11" d="M782.93,242.16h-.8v-.64a1.43,1.43,0,0,1-1.31.67,1.9,1.9,0,0,1,0-3.79,1.45,1.45,0,0,1,1.32.68V237h.8Zm-.8-1.85a1.13,1.13,0,0,0-1.14-1.22,1.15,1.15,0,0,0-1.15,1.22,1.15,1.15,0,1,0,2.29,0Z"/><path class="cls-12" d="M763.24,257.9a2.69,2.69,0,0,1-.89,1.61l-1.28,1.35h2.4v.74H760V261l1.81-1.94a1.75,1.75,0,0,0,.59-1c0-.39-.31-.63-.82-.63a2.11,2.11,0,0,0-1.33.62l-.33-.64a2.82,2.82,0,0,1,1.78-.7C762.61,256.67,763.24,257.15,763.24,257.9Z"/><rect class="cls-12" x="863.25" y="257.97" width="35.1" height="2.34" transform="translate(1761.61 518.27) rotate(-180)"/><rect class="cls-12" x="853.73" y="257.97" width="6.7" height="2.33" transform="translate(1714.17 518.27) rotate(-180)"/><rect class="cls-12" x="839.71" y="257.97" width="11.4" height="2.33" transform="translate(1690.82 518.27) rotate(-180)"/><rect class="cls-12" x="811.22" y="257.97" width="26.04" height="2.33" transform="translate(1648.49 518.27) rotate(-180)"/><rect class="cls-12" x="797.73" y="257.97" width="11.3" height="2.33" transform="translate(1606.77 518.27) rotate(-180)"/><rect class="cls-12" x="766.83" y="257.97" width="28.3" height="2.33" transform="translate(1561.96 518.27) rotate(-180)"/><path class="cls-12" d="M761.75,251.88v-4.16h-1V247h1.79v4.9Z"/><polyline class="cls-12" points="766.79 248.26 773.49 248.26 773.49 250.6 766.79 250.6"/><rect class="cls-12" x="776.12" y="248.26" width="11.4" height="2.33"/><polyline class="cls-12" points="816 250.6 789.96 250.6 789.96 248.26 816 248.26"/><path class="cls-12" d="M762,268.45a1.33,1.33,0,0,1,1.38,1.32,1.58,1.58,0,0,1-1.78,1.55,2.86,2.86,0,0,1-1.66-.53l.35-.67a1.88,1.88,0,0,0,1.25.51c.65,0,1-.34,1-.84s-.39-.81-1-.81h-.68v-.48l1.28-1.37h-2v-.74h3v.52l-1.4,1.51Z"/><rect class="cls-12" x="766.65" y="267.69" width="42.95" height="2.33"/><rect class="cls-12" x="812.16" y="267.69" width="26.04" height="2.33"/><path class="cls-11" d="M759.49,281.23v2.32h-.8v-2.1a.83.83,0,0,0-.9-.9,1,1,0,0,0-1.06,1v2h-.8v-3.73h.8v.72a1.42,1.42,0,0,1,1.38-.75A1.3,1.3,0,0,1,759.49,281.23Z"/><path class="cls-11" d="M764,283.55h-.8v-.73a1.4,1.4,0,0,1-1.34.76,1.29,1.29,0,0,1-1.36-1.44v-2.32h.8v2.1a.82.82,0,0,0,.87.9,1.05,1.05,0,0,0,1-1.16v-1.84h.8Z"/><path class="cls-11" d="M767.25,283.31a1.88,1.88,0,0,1-.92.27,1,1,0,0,1-1-1.08v-1.94h-.53V280h.53v-1h.79v1h1.1v.6h-1.1v1.79c0,.39.15.5.4.5a1.2,1.2,0,0,0,.56-.16Z"/><path class="cls-11" d="M768.79,280.56a1.37,1.37,0,0,1,1.29-.77v.77a1.14,1.14,0,0,0-1.29,1v1.95H768v-3.73h.8Z"/><path class="cls-11" d="M771.61,278.76a.47.47,0,1,1-.93,0,.47.47,0,1,1,.93,0Zm-.86,4.79v-3.73h.79v3.73Z"/><path class="cls-11" d="M774.84,283.31a1.81,1.81,0,0,1-.91.27,1,1,0,0,1-1-1.08v-1.94h-.52V280h.52v-1h.8v1h1.1v.6h-1.1v1.79c0,.39.15.5.4.5a1.23,1.23,0,0,0,.56-.16Z"/><path class="cls-11" d="M776.45,278.76a.46.46,0,0,1-.47.48.49.49,0,1,1,.47-.48Zm-.87,4.79v-3.73h.8v3.73Z"/><path class="cls-11" d="M781.11,281.69a1.95,1.95,0,1,1-1.94-1.9A1.82,1.82,0,0,1,781.11,281.69Zm-3.08,0a1.14,1.14,0,1,0,1.14-1.2A1.12,1.12,0,0,0,778,281.69Z"/><path class="cls-11" d="M785.51,281.23v2.32h-.8v-2.1a.83.83,0,0,0-.9-.9,1,1,0,0,0-1.06,1v2H782v-3.73h.8v.72a1.41,1.41,0,0,1,1.37-.75A1.31,1.31,0,0,1,785.51,281.23Z"/><path class="cls-11" d="M789.26,278.76a.46.46,0,0,1-.47.48.49.49,0,1,1,.47-.48Zm-.87,4.79v-3.73h.8v3.73Z"/><path class="cls-11" d="M794,281.23v2.32h-.81v-2.1a.83.83,0,0,0-.9-.9,1,1,0,0,0-1,1v2h-.81v-3.73h.81v.72a1.4,1.4,0,0,1,1.37-.75A1.31,1.31,0,0,1,794,281.23Z"/><path class="cls-11" d="M796,279.52V280h1v.6h-1v3h-.79v-3h-.49V280h.49v-.36a1.21,1.21,0,0,1,1.28-1.28,1.39,1.39,0,0,1,.84.26l-.31.61a.89.89,0,0,0-.51-.17A.47.47,0,0,0,796,279.52Z"/><path class="cls-11" d="M800.89,281.69a1.95,1.95,0,1,1-1.94-1.9A1.82,1.82,0,0,1,800.89,281.69Zm-3.08,0a1.14,1.14,0,1,0,1.14-1.2A1.12,1.12,0,0,0,797.81,281.69Z"/><path class="cls-11" d="M802.53,280.56a1.37,1.37,0,0,1,1.29-.77v.77a1.14,1.14,0,0,0-1.29,1v1.95h-.8v-3.73h.8Z"/><path class="cls-11" d="M810.71,281.23v2.32h-.8v-2.1a.84.84,0,0,0-.89-.91,1.07,1.07,0,0,0-1,1.17v1.84h-.8v-2.1a.83.83,0,0,0-.88-.91,1.08,1.08,0,0,0-1,1.17v1.84h-.79v-3.73h.79v.72a1.39,1.39,0,0,1,1.36-.75,1.24,1.24,0,0,1,1.29.9,1.38,1.38,0,0,1,1.42-.9A1.29,1.29,0,0,1,810.71,281.23Z"/><path class="cls-11" d="M814,283.09a1.49,1.49,0,0,1-1.23.49,1.17,1.17,0,0,1-1.31-1.15c0-.68.51-1.12,1.41-1.12H814v-.12c0-.46-.3-.74-.89-.74a2,2,0,0,0-1.09.37l-.33-.56a2.75,2.75,0,0,1,1.6-.47c1,0,1.5.49,1.51,1.31v2.45H814Zm0-.85v-.34h-1c-.53,0-.77.14-.77.49s.27.56.72.56S814,282.65,814,282.24Z"/><path class="cls-11" d="M818,283.31a1.88,1.88,0,0,1-.92.27,1,1,0,0,1-1-1.08v-1.94h-.53V280H816v-1h.79v1h1.1v.6h-1.1v1.79c0,.39.15.5.4.5a1.2,1.2,0,0,0,.56-.16Z"/><path class="cls-11" d="M819.61,278.76a.47.47,0,0,1-.47.48.49.49,0,0,1,0-1A.47.47,0,0,1,819.61,278.76Zm-.87,4.79v-3.73h.8v3.73Z"/><path class="cls-11" d="M824.26,281.69a1.94,1.94,0,1,1-1.94-1.9A1.82,1.82,0,0,1,824.26,281.69Zm-3.08,0a1.14,1.14,0,1,0,1.14-1.2A1.12,1.12,0,0,0,821.18,281.69Z"/><path class="cls-11" d="M828.67,281.23v2.32h-.81v-2.1a.83.83,0,0,0-.9-.9,1,1,0,0,0-1.05,1v2h-.81v-3.73h.81v.72a1.4,1.4,0,0,1,1.37-.75A1.31,1.31,0,0,1,828.67,281.23Z"/><path class="cls-12" d="M761.87,289.49l-.21.43a1.5,1.5,0,0,0-.76-.24c-.23,0-.39.08-.39.27,0,.49,1.41.22,1.41,1.19,0,.55-.49.79-1,.79a1.64,1.64,0,0,1-1.07-.37l.2-.41a1.48,1.48,0,0,0,.89.33c.25,0,.44-.08.44-.29,0-.54-1.4-.24-1.4-1.2,0-.54.47-.77,1-.77A1.67,1.67,0,0,1,761.87,289.49Z"/><path class="cls-12" d="M764.84,290.8h-2a.81.81,0,0,0,.82.67,1.07,1.07,0,0,0,.76-.32l.3.33a1.43,1.43,0,0,1-1.1.45,1.35,1.35,0,0,1,0-2.7C764.53,289.23,764.91,289.84,764.84,290.8Zm-.5-.42a.69.69,0,0,0-.74-.69.75.75,0,0,0-.78.69Z"/><path class="cls-12" d="M766,289.78a1,1,0,0,1,.92-.55v.55a.81.81,0,0,0-.92.74v1.39h-.57v-2.66H766Z"/><path class="cls-12" d="M768.15,291.91l-1-2.66h.6l.74,2.1.73-2.1h.57l-1,2.66Z"/><path class="cls-12" d="M772.41,290.8h-2a.82.82,0,0,0,.83.67,1.05,1.05,0,0,0,.75-.32l.31.33a1.45,1.45,0,0,1-1.11.45,1.28,1.28,0,0,1-1.36-1.35,1.29,1.29,0,0,1,1.35-1.35C772.1,289.23,772.48,289.84,772.41,290.8Zm-.51-.42a.68.68,0,0,0-.74-.69.76.76,0,0,0-.78.69Z"/><path class="cls-12" d="M774.73,289.49l-.21.43a1.54,1.54,0,0,0-.77-.24c-.22,0-.39.08-.39.27,0,.49,1.42.22,1.41,1.19,0,.55-.48.79-1,.79a1.66,1.66,0,0,1-1.07-.37l.21-.41a1.48,1.48,0,0,0,.89.33c.24,0,.43-.08.43-.29,0-.54-1.4-.24-1.39-1.2,0-.54.47-.77,1-.77A1.69,1.69,0,0,1,774.73,289.49Z"/><path class="cls-12" d="M775.79,290.13a.32.32,0,0,1-.32.34.31.31,0,0,1-.31-.34.3.3,0,0,1,.31-.32A.31.31,0,0,1,775.79,290.13Zm0,1.49a.32.32,0,0,1-.32.34.31.31,0,0,1-.31-.34.3.3,0,0,1,.31-.32A.31.31,0,0,1,775.79,291.62Z"/><polyline class="cls-12" points="778.81 291.76 785.51 291.76 785.51 289.42 778.81 289.42"/><path class="cls-12" d="M761.87,297.12l-.21.43a1.5,1.5,0,0,0-.76-.24c-.23,0-.39.08-.39.27,0,.49,1.41.22,1.41,1.19,0,.54-.49.79-1,.79a1.64,1.64,0,0,1-1.07-.37l.2-.41a1.48,1.48,0,0,0,.89.33c.25,0,.44-.09.44-.29,0-.54-1.4-.24-1.4-1.2,0-.54.47-.77,1-.77A1.67,1.67,0,0,1,761.87,297.12Z"/><path class="cls-12" d="M764.84,298.43h-2a.8.8,0,0,0,.82.66,1,1,0,0,0,.75-.31l.31.33a1.47,1.47,0,0,1-1.1.45,1.35,1.35,0,0,1,0-2.7C764.53,296.86,764.91,297.47,764.84,298.43Zm-.5-.42a.69.69,0,0,0-.74-.69.75.75,0,0,0-.78.69Z"/><path class="cls-12" d="M766,297.41a1,1,0,0,1,.92-.55v.55a.81.81,0,0,0-.92.74v1.39h-.57v-2.66H766Z"/><path class="cls-12" d="M768.15,299.54l-1-2.66h.6l.74,2.09.73-2.09h.58l-1,2.66Z"/><path class="cls-12" d="M770.78,296.12a.32.32,0,0,1-.33.34.35.35,0,0,1,0-.69A.33.33,0,0,1,770.78,296.12Zm-.62,3.42v-2.66h.57v2.66Z"/><path class="cls-12" d="M774.13,297.88v1.66h-.58V298a.59.59,0,0,0-.64-.64.74.74,0,0,0-.75.72v1.42h-.58v-2.66h.58v.51a1,1,0,0,1,1-.53A.93.93,0,0,1,774.13,297.88Z"/><path class="cls-12" d="M777.3,299.28a1.24,1.24,0,0,1-1.38,1.25,2,2,0,0,1-1.11-.35l.25-.42a1.37,1.37,0,0,0,.83.29.75.75,0,0,0,.84-.76V299a1,1,0,0,1-.88.45,1.18,1.18,0,0,1-1.2-1.29,1.16,1.16,0,0,1,1.18-1.26,1,1,0,0,1,.9.45v-.43h.57Zm-.57-1.14a.77.77,0,1,0-.77.82A.77.77,0,0,0,776.73,298.14Z"/><path class="cls-12" d="M781.11,297.12l-.21.43a1.5,1.5,0,0,0-.76-.24c-.23,0-.39.08-.39.27,0,.49,1.41.22,1.41,1.19,0,.54-.49.79-1,.79a1.64,1.64,0,0,1-1.07-.37l.2-.41a1.48,1.48,0,0,0,.89.33c.25,0,.44-.09.44-.29,0-.54-1.4-.24-1.4-1.2,0-.54.47-.77,1-.77A1.67,1.67,0,0,1,781.11,297.12Z"/><path class="cls-12" d="M782.36,296.12a.33.33,0,0,1-.34.34.35.35,0,0,1,0-.69A.33.33,0,0,1,782.36,296.12Zm-.62,3.42v-2.66h.57v2.66Z"/><path class="cls-12" d="M783.67,299.07h1.56v.47H783v-.39l1.52-1.8H783v-.47h2.19v.39Z"/><path class="cls-12" d="M788.15,298.43h-2a.81.81,0,0,0,.83.66,1,1,0,0,0,.75-.31l.3.33a1.47,1.47,0,0,1-1.1.45,1.35,1.35,0,1,1,0-2.7C787.84,296.86,788.22,297.47,788.15,298.43Zm-.5-.42a.68.68,0,0,0-.74-.69.76.76,0,0,0-.78.69Z"/><path class="cls-12" d="M789.19,297.76a.32.32,0,0,1-.32.34.31.31,0,0,1-.31-.34.3.3,0,0,1,.31-.32A.31.31,0,0,1,789.19,297.76Zm0,1.49a.32.32,0,0,1-.32.33.33.33,0,0,1,0-.66A.32.32,0,0,1,789.19,299.25Z"/><rect class="cls-12" x="792.41" y="296.98" width="6.7" height="2.33"/><rect class="cls-12" x="801.74" y="296.98" width="11.4" height="2.33"/><path class="cls-12" d="M762.61,305.71a1.24,1.24,0,0,1-1.27,1.34,1.06,1.06,0,0,1-.94-.48V308h-.57v-3.63h.57v.46a1.05,1.05,0,0,1,.93-.48A1.26,1.26,0,0,1,762.61,305.71Zm-.59,0a.81.81,0,1,0-.81.87A.81.81,0,0,0,762,305.69Z"/><path class="cls-12" d="M765.54,305.92h-2a.82.82,0,0,0,.83.67,1,1,0,0,0,.75-.31l.3.32a1.43,1.43,0,0,1-1.1.45,1.28,1.28,0,0,1-1.36-1.34,1.3,1.3,0,0,1,1.35-1.36C765.23,304.35,765.62,305,765.54,305.92Zm-.5-.42a.68.68,0,0,0-.74-.69.76.76,0,0,0-.78.69Z"/><path class="cls-12" d="M766.72,304.9a1,1,0,0,1,.92-.55v.55a.8.8,0,0,0-.92.74V307h-.58v-2.66h.58Z"/><path class="cls-12" d="M771.13,304.62l-.21.42a1.63,1.63,0,0,0-.77-.23c-.22,0-.39.07-.39.26,0,.49,1.42.23,1.41,1.19,0,.55-.48.79-1,.79a1.66,1.66,0,0,1-1.07-.37l.21-.41a1.42,1.42,0,0,0,.89.33c.24,0,.43-.08.43-.28,0-.55-1.4-.24-1.39-1.2,0-.54.47-.77,1-.77A1.69,1.69,0,0,1,771.13,304.62Z"/><path class="cls-12" d="M774.09,305.92h-2a.82.82,0,0,0,.83.67,1,1,0,0,0,.75-.31l.3.32a1.43,1.43,0,0,1-1.1.45,1.28,1.28,0,0,1-1.36-1.34,1.3,1.3,0,0,1,1.35-1.36C773.78,304.35,774.16,305,774.09,305.92Zm-.5-.42a.68.68,0,0,0-.74-.69.76.76,0,0,0-.78.69Z"/><path class="cls-12" d="M775.27,304.9a1,1,0,0,1,.92-.55v.55a.8.8,0,0,0-.92.74V307h-.58v-2.66h.58Z"/><path class="cls-12" d="M777.4,307l-1-2.66h.6l.74,2.1.73-2.1H779L778,307Z"/><path class="cls-12" d="M780,303.61a.34.34,0,0,1-.34.35.33.33,0,0,1-.33-.35.33.33,0,0,1,.33-.35A.33.33,0,0,1,780,303.61Zm-.62,3.42v-2.66H780V307Z"/><path class="cls-12" d="M783.39,305.38V307h-.58v-1.49a.6.6,0,0,0-.64-.65.75.75,0,0,0-.76.73V307h-.57v-2.66h.57v.51a1,1,0,0,1,1-.53A.94.94,0,0,1,783.39,305.38Z"/><path class="cls-12" d="M786.55,306.77a1.23,1.23,0,0,1-1.38,1.25,1.92,1.92,0,0,1-1.1-.35l.24-.42a1.32,1.32,0,0,0,.84.29.74.74,0,0,0,.83-.75v-.34a1,1,0,0,1-.88.45,1.28,1.28,0,0,1,0-2.55,1,1,0,0,1,.9.45v-.43h.57Zm-.57-1.14a.75.75,0,0,0-.76-.81.82.82,0,0,0,0,1.63A.76.76,0,0,0,786,305.63Z"/><path class="cls-12" d="M787.79,305.26a.32.32,0,0,1-.32.33.33.33,0,0,1,0-.66A.32.32,0,0,1,787.79,305.26Zm0,1.48a.32.32,0,0,1-.32.34.31.31,0,0,1-.31-.34.3.3,0,0,1,.31-.32A.31.31,0,0,1,787.79,306.74Z"/><circle class="cls-12" cx="792.87" cy="305.62" r="1.29"/><rect class="cls-12" x="798.9" y="304.46" width="11.3" height="2.33"/><circle class="cls-12" cx="792.87" cy="312.01" r="1.29"/><rect class="cls-12" x="798.9" y="310.84" width="8.7" height="2.33"/><rect class="cls-12" x="810.13" y="310.84" width="6.7" height="2.33"/><path class="cls-1" d="M788,75.77l-2.68-6.92h1.56l1.92,5.45,1.9-5.45h1.49l-2.65,6.92Z"/><path class="cls-1" d="M794.87,66.88A.88.88,0,1,1,794,66,.86.86,0,0,1,794.87,66.88Zm-1.62,8.89V68.85h1.49v6.92Z"/><path class="cls-1" d="M803,72.88H797.8A2.11,2.11,0,0,0,800,74.61a2.7,2.7,0,0,0,1.95-.8l.79.84a3.75,3.75,0,0,1-2.86,1.17,3.51,3.51,0,0,1,0-7C802.22,68.8,803.21,70.39,803,72.88Zm-1.3-1.09A1.77,1.77,0,0,0,799.81,70a2,2,0,0,0-2,1.79Z"/><path class="cls-1" d="M810.83,75.77l-1.75-5.12-1.76,5.12h-1.53l-2.55-6.92h1.53l1.8,5.44,1.74-5.44h1.55l1.75,5.44,1.77-5.44h1.52l-2.52,6.92Z"/><path class="cls-1" d="M814.56,77.29l4.12-12.13H820l-4.12,12.13Z"/><path class="cls-1" d="M825.94,69.93l-.82,1a2.65,2.65,0,0,0-2-.78,2.22,2.22,0,0,0,0,4.42,2.57,2.57,0,0,0,2-.83l.83.83a3.5,3.5,0,0,1-2.93,1.29,3.51,3.51,0,0,1,0-7A3.66,3.66,0,0,1,825.94,69.93Z"/><path class="cls-1" d="M829.07,70.23a2.53,2.53,0,0,1,2.39-1.43v1.43a2.09,2.09,0,0,0-2.39,1.92v3.62h-1.5V68.85h1.5Z"/><path class="cls-1" d="M838.78,72.88h-5.23a2.11,2.11,0,0,0,2.15,1.73,2.7,2.7,0,0,0,1.95-.8l.79.84a3.75,3.75,0,0,1-2.86,1.17,3.51,3.51,0,0,1,0-7C838,68.8,839,70.39,838.78,72.88Zm-1.3-1.09A1.77,1.77,0,0,0,835.56,70a2,2,0,0,0-2,1.79Z"/><path class="cls-1" d="M844.49,74.92a2.79,2.79,0,0,1-2.29.91,2.18,2.18,0,0,1-2.43-2.14c0-1.26,1-2.07,2.61-2.08h2.09V71.4c0-.87-.55-1.39-1.65-1.39a3.63,3.63,0,0,0-2,.7l-.61-1a5.09,5.09,0,0,1,3-.87c1.78,0,2.78.91,2.79,2.43l0,4.54h-1.47Zm0-1.58V72.7H842.6c-1,0-1.43.26-1.43.92s.51,1,1.34,1C843.58,74.65,844.4,74.09,844.47,73.34Z"/><path class="cls-1" d="M851.87,75.33a3.35,3.35,0,0,1-1.7.5,1.82,1.82,0,0,1-1.94-2V70.23h-1V69.11h1V67.22h1.48v1.89h2v1.12h-2v3.32c0,.71.28.93.74.93a2.31,2.31,0,0,0,1-.3Z"/><path class="cls-1" d="M859.26,72.88H854a2.1,2.1,0,0,0,2.14,1.73,2.66,2.66,0,0,0,2-.8l.8.84a3.78,3.78,0,0,1-2.86,1.17,3.51,3.51,0,1,1,0-7C858.45,68.8,859.44,70.39,859.26,72.88ZM858,71.79A1.78,1.78,0,0,0,856,70a2,2,0,0,0-2,1.79Z"/><path class="cls-1" d="M865.66,70.23a2.53,2.53,0,0,1,2.4-1.43v1.43a2.1,2.1,0,0,0-2.4,1.92v3.62h-1.49V68.85h1.49Z"/><path class="cls-1" d="M875.38,72.88h-5.23a2.1,2.1,0,0,0,2.14,1.73,2.66,2.66,0,0,0,2-.8l.8.84a3.78,3.78,0,0,1-2.86,1.17,3.51,3.51,0,1,1,0-7C874.57,68.8,875.56,70.39,875.38,72.88Zm-1.31-1.09A1.77,1.77,0,0,0,872.15,70a2,2,0,0,0-2,1.79Z"/><path class="cls-1" d="M882.63,69.93l-.82,1a2.63,2.63,0,0,0-2-.78,2.22,2.22,0,0,0,0,4.42,2.59,2.59,0,0,0,2-.83l.83.83a3.53,3.53,0,0,1-2.94,1.29,3.51,3.51,0,0,1,0-7A3.64,3.64,0,0,1,882.63,69.93Z"/><path class="cls-1" d="M885.88,66.88A.87.87,0,1,1,885,66,.86.86,0,0,1,885.88,66.88Zm-1.61,8.89V68.85h1.48v6.92Z"/><path class="cls-1" d="M895.24,72.34A3.21,3.21,0,0,1,892,75.82a2.71,2.71,0,0,1-2.44-1.25v3.72H888V68.85h1.5v1.2a2.7,2.7,0,0,1,2.42-1.25A3.25,3.25,0,0,1,895.24,72.34Zm-1.51-.06a2.11,2.11,0,1,0-2.11,2.27A2.1,2.1,0,0,0,893.73,72.28Z"/><path class="cls-1" d="M902.88,72.88h-5.22a2.1,2.1,0,0,0,2.14,1.73,2.68,2.68,0,0,0,2-.8l.79.84a3.75,3.75,0,0,1-2.86,1.17,3.51,3.51,0,1,1,0-7C902.08,68.8,903.06,70.39,902.88,72.88Zm-1.3-1.09A1.77,1.77,0,0,0,899.66,70a2,2,0,0,0-2,1.79Z"/><rect class="cls-1" x="503.07" y="31.82" width="176.97" height="321"/><line class="cls-23" x1="512.77" y1="108.94" x2="670.33" y2="108.94"/><line class="cls-23" x1="512.77" y1="146.04" x2="670.33" y2="146.04"/><line class="cls-23" x1="512.77" y1="183.14" x2="670.33" y2="183.14"/><line class="cls-23" x1="512.77" y1="220.24" x2="670.33" y2="220.24"/><line class="cls-23" x1="512.77" y1="257.34" x2="670.33" y2="257.34"/><line class="cls-23" x1="512.77" y1="294.44" x2="670.33" y2="294.44"/><circle class="cls-25" cx="591.55" cy="312.57" r="1"/><circle class="cls-25" cx="596.55" cy="312.57" r="1"/><circle class="cls-25" cx="586.55" cy="312.57" r="1"/><path class="cls-16" d="M668.74,347.94H514.36a9.34,9.34,0,0,1-9.33-9.33V46a9.34,9.34,0,0,1,9.33-9.33H668.74A9.35,9.35,0,0,1,678.07,46V338.61A9.35,9.35,0,0,1,668.74,347.94ZM514.36,38.69A7.34,7.34,0,0,0,507,46V338.61a7.34,7.34,0,0,0,7.33,7.33H668.74a7.34,7.34,0,0,0,7.33-7.33V46a7.34,7.34,0,0,0-7.33-7.33Z"/><rect class="cls-16" x="511.77" y="61.81" width="159.55" height="2"/><path class="cls-16" d="M666.14,334.17H517a6.2,6.2,0,0,1-6.19-6.19V56.65A6.2,6.2,0,0,1,517,50.46H666.14a6.2,6.2,0,0,1,6.19,6.19V328A6.2,6.2,0,0,1,666.14,334.17ZM517,52.46a4.2,4.2,0,0,0-4.19,4.19V328a4.2,4.2,0,0,0,4.19,4.19H666.14a4.2,4.2,0,0,0,4.19-4.19V56.65a4.2,4.2,0,0,0-4.19-4.19Z"/><circle class="cls-11" cx="649.58" cy="311.42" r="11.75"/><path class="cls-1" d="M650.14,306.73v4.14h4v1.06h-4v4.18H649v-4.18h-4v-1.06h4v-4.14Z"/><rect class="cls-11" x="512.77" y="63.81" width="157.55" height="17.13"/><line class="cls-22" x1="517.49" y1="68.88" x2="527.24" y2="68.88"/><line class="cls-22" x1="517.49" y1="72.38" x2="527.24" y2="72.38"/><line class="cls-22" x1="517.49" y1="75.88" x2="527.24" y2="75.88"/><path class="cls-1" d="M620.94,70.82a2.51,2.51,0,0,1,2.4-1.43v1.43a2.1,2.1,0,0,0-2.4,1.92v3.61h-1.49V69.44h1.49Z"/><path class="cls-1" d="M630.66,73.47h-5.23a2.11,2.11,0,0,0,2.14,1.73,2.71,2.71,0,0,0,2-.81l.79.85a3.78,3.78,0,0,1-2.86,1.17,3.51,3.51,0,1,1,0-7C629.85,69.39,630.84,71,630.66,73.47Zm-1.3-1.09a1.79,1.79,0,0,0-1.93-1.8,2,2,0,0,0-2,1.8Z"/><path class="cls-1" d="M637.91,70.52l-.82,1a2.6,2.6,0,0,0-2-.78,2.22,2.22,0,0,0,0,4.42,2.61,2.61,0,0,0,2-.83l.83.83a3.53,3.53,0,0,1-2.94,1.29,3.51,3.51,0,0,1,0-7A3.64,3.64,0,0,1,637.91,70.52Z"/><path class="cls-1" d="M641.16,67.46a.87.87,0,1,1-.87-.91A.87.87,0,0,1,641.16,67.46Zm-1.61,8.89V69.44H641v6.91Z"/><path class="cls-1" d="M650.52,72.92a3.21,3.21,0,0,1-3.28,3.49,2.73,2.73,0,0,1-2.44-1.25v3.72h-1.5V69.44h1.5v1.19a2.71,2.71,0,0,1,2.42-1.24A3.25,3.25,0,0,1,650.52,72.92Zm-1.51,0a2.11,2.11,0,1,0-2.1,2.26A2.1,2.1,0,0,0,649,72.87Z"/><path class="cls-1" d="M658.16,73.47h-5.22a2.11,2.11,0,0,0,2.14,1.73,2.67,2.67,0,0,0,1.95-.81l.8.85A3.78,3.78,0,0,1,655,76.41a3.51,3.51,0,1,1,0-7C657.36,69.39,658.35,71,658.16,73.47Zm-1.3-1.09a1.78,1.78,0,0,0-1.92-1.8,2,2,0,0,0-2,1.8Z"/><path class="cls-1" d="M664.21,70.07l-.55,1.11a4,4,0,0,0-2-.61c-.58,0-1,.19-1,.69,0,1.27,3.68.58,3.67,3.09,0,1.42-1.26,2.06-2.66,2.06a4.26,4.26,0,0,1-2.78-1l.53-1.06a3.82,3.82,0,0,0,2.32.86c.64,0,1.13-.23,1.13-.75,0-1.41-3.64-.62-3.63-3.12,0-1.4,1.23-2,2.55-2A4.39,4.39,0,0,1,664.21,70.07Z"/><line class="cls-26" x1="517.8" y1="91.12" x2="527.55" y2="91.12"/><line class="cls-26" x1="517.8" y1="94.62" x2="527.55" y2="94.62"/><line class="cls-26" x1="517.8" y1="98.12" x2="527.55" y2="98.12"/><circle class="cls-27" cx="519.8" cy="91.12" r="1"/><circle class="cls-27" cx="525.67" cy="94.62" r="1"/><circle class="cls-27" cx="522.67" cy="98.12" r="1"/><circle class="cls-23" cx="655.22" cy="92.55" r="2.6"/><line class="cls-28" x1="657.06" y1="94.39" x2="659.92" y2="97.25"/><line class="cls-28" x1="532.8" y1="101.46" x2="665.3" y2="101.46"/><rect class="cls-11" x="517.49" y="117.17" width="75.06" height="6"/><rect class="cls-12" x="517.49" y="126.83" width="42.88" height="2.33"/><rect class="cls-12" x="562.92" y="126.83" width="26" height="2.33"/><rect class="cls-12" x="517.49" y="130.99" width="50" height="2.34"/><rect class="cls-12" x="570.3" y="131" width="6.69" height="2.33"/><rect class="cls-12" x="579.61" y="131" width="11.38" height="2.33"/><rect class="cls-12" x="517.45" y="135.3" width="11.28" height="2.33"/><rect class="cls-12" x="531.11" y="135.3" width="18.38" height="2.33"/><rect class="cls-12" x="603.96" y="114.46" width="28.75" height="25.88" rx="1.63"/><path class="cls-16" d="M613.94,122.89l-8.48,14.69a.93.93,0,0,0,.8,1.39h17a.93.93,0,0,0,.8-1.39l-8.48-14.69A.93.93,0,0,0,613.94,122.89Z"/><path class="cls-16" d="M623.34,126.74l-6.26,10.84a.93.93,0,0,0,.8,1.39h12.53a.93.93,0,0,0,.8-1.39L625,126.74A.93.93,0,0,0,623.34,126.74Z"/><path class="cls-11" d="M643.83,128.48a4.75,4.75,0,0,0,1,0,3.3,3.3,0,0,0,1.84-.85,3.93,3.93,0,0,0,1.17-2.34h0a2.64,2.64,0,0,1-4.67-1.74,3,3,0,0,1,3-3.12c1.8,0,2.91,1.46,2.91,3.7a5.55,5.55,0,0,1-1.51,4.12,4.38,4.38,0,0,1-2.56,1.18,5.67,5.67,0,0,1-1.1.07Zm.44-5a1.69,1.69,0,0,0,1.69,1.86,2,2,0,0,0,1.73-.92.74.74,0,0,0,.11-.43c0-1.5-.56-2.65-1.8-2.65C645,121.29,644.27,122.18,644.27,123.43Z"/><path class="cls-11" d="M655.1,121.37a4.14,4.14,0,0,0-.89.06,3.56,3.56,0,0,0-3.06,3.12h0a2.63,2.63,0,0,1,2.12-1,2.6,2.6,0,0,1,2.65,2.83,2.94,2.94,0,0,1-2.92,3.1c-1.88,0-3.11-1.46-3.11-3.74a5.58,5.58,0,0,1,1.49-4,4.77,4.77,0,0,1,2.81-1.29,5.08,5.08,0,0,1,.87-.07Zm-.34,5.07a1.79,1.79,0,0,0-1.81-2,1.93,1.93,0,0,0-1.7,1.08.92.92,0,0,0-.14.53c0,1.44.69,2.51,1.93,2.51C654.07,128.55,654.76,127.7,654.76,126.44Z"/><path class="cls-11" d="M657.3,128a4.09,4.09,0,0,0,2,.55c1.53,0,2-1,2-1.7,0-1.23-1.12-1.76-2.27-1.76h-.66v-.89H659c.86,0,2-.45,2-1.49,0-.7-.45-1.32-1.54-1.32a3.22,3.22,0,0,0-1.76.58l-.31-.87a4.16,4.16,0,0,1,2.3-.67c1.73,0,2.51,1,2.51,2.09a2.18,2.18,0,0,1-1.62,2.07v0a2.28,2.28,0,0,1,2,2.25c0,1.41-1.1,2.64-3.2,2.64a4.52,4.52,0,0,1-2.29-.59Z"/><path class="cls-12" d="M646.28,135.27a1.81,1.81,0,0,1-.79.16,1.32,1.32,0,0,1-1.38-1.41,1.41,1.41,0,0,1,1.48-1.46,1.68,1.68,0,0,1,.7.14l-.11.39a1.17,1.17,0,0,0-.59-.13,1,1,0,0,0,0,2.07,1.3,1.3,0,0,0,.61-.14Z"/><path class="cls-12" d="M648.39,135.37l0-.34h0a1,1,0,0,1-.84.4.78.78,0,0,1-.84-.79c0-.66.59-1,1.66-1v-.06a.57.57,0,0,0-.63-.63,1.34,1.34,0,0,0-.72.2l-.11-.33a1.7,1.7,0,0,1,.9-.24c.85,0,1,.57,1,1.12v1a3.34,3.34,0,0,0,.05.66Zm-.07-1.4c-.55,0-1.17.08-1.17.62a.45.45,0,0,0,.47.48.69.69,0,0,0,.67-.47.41.41,0,0,0,0-.16Z"/><path class="cls-12" d="M649.61,131.33h.5v4h-.5Z"/><path class="cls-12" d="M653.45,134a1.35,1.35,0,0,1-1.38,1.46,1.31,1.31,0,0,1-1.32-1.41,1.35,1.35,0,0,1,1.37-1.46A1.3,1.3,0,0,1,653.45,134Zm-2.19,0c0,.6.35,1.06.84,1.06s.83-.45.83-1.07c0-.47-.23-1.06-.82-1.06S651.26,133.48,651.26,134Z"/><path class="cls-12" d="M654.08,133.48c0-.33,0-.61,0-.86h.44v.54h0a.83.83,0,0,1,.77-.6h.14V133h-.17a.7.7,0,0,0-.67.64,1.6,1.6,0,0,0,0,.23v1.47h-.49Z"/><path class="cls-12" d="M656.52,131.84a.3.3,0,0,1-.32.31.31.31,0,0,1,0-.62A.3.3,0,0,1,656.52,131.84Zm-.56,3.53v-2.75h.51v2.75Z"/><path class="cls-12" d="M657.58,134.09a.88.88,0,0,0,.94.95,1.77,1.77,0,0,0,.76-.14l.09.36a2.26,2.26,0,0,1-.92.17A1.28,1.28,0,0,1,657.1,134a1.33,1.33,0,0,1,1.29-1.48,1.16,1.16,0,0,1,1.14,1.29,1.34,1.34,0,0,1,0,.24Zm1.46-.36a.71.71,0,0,0-.69-.82.83.83,0,0,0-.77.82Z"/><path class="cls-12" d="M660.08,134.86a1.29,1.29,0,0,0,.66.2c.37,0,.54-.18.54-.41s-.15-.37-.52-.51-.72-.45-.72-.78a.84.84,0,0,1,1-.8,1.25,1.25,0,0,1,.67.17l-.12.36a1.07,1.07,0,0,0-.56-.16c-.3,0-.47.17-.47.38s.17.33.53.46.72.42.72.83-.38.83-1,.83a1.49,1.49,0,0,1-.77-.19Z"/><rect class="cls-11" x="517.18" y="154.45" width="75.06" height="6"/><rect class="cls-12" x="517.18" y="164.12" width="42.88" height="2.33"/><rect class="cls-12" x="562.61" y="164.12" width="26" height="2.33"/><rect class="cls-12" x="517.18" y="168.28" width="50" height="2.34"/><rect class="cls-12" x="569.99" y="168.28" width="6.69" height="2.33"/><rect class="cls-12" x="579.3" y="168.28" width="11.38" height="2.33"/><rect class="cls-12" x="517.14" y="172.58" width="11.28" height="2.33"/><rect class="cls-12" x="530.8" y="172.58" width="18.38" height="2.33"/><rect class="cls-12" x="603.96" y="151.75" width="28.75" height="25.88" rx="1.63"/><path class="cls-16" d="M613.94,160.17l-8.48,14.7a.93.93,0,0,0,.8,1.39h17a.93.93,0,0,0,.8-1.39l-8.48-14.7A.93.93,0,0,0,613.94,160.17Z"/><path class="cls-16" d="M623.34,164l-6.26,10.85a.93.93,0,0,0,.8,1.39h12.53a.93.93,0,0,0,.8-1.39L625,164A.93.93,0,0,0,623.34,164Z"/><path class="cls-11" d="M648.85,157.82v.78l-3.83,8h-1.23l3.82-7.78v0h-4.3v-1Z"/><path class="cls-11" d="M652.66,158.93h0l-1.53.82-.23-.9,1.92-1h1v8.79h-1.15Z"/><path class="cls-11" d="M657.3,165.24a4,4,0,0,0,2,.55c1.53,0,2-1,2-1.7,0-1.23-1.12-1.76-2.27-1.76h-.66v-.89H659c.86,0,2-.44,2-1.49,0-.7-.45-1.32-1.54-1.32a3.22,3.22,0,0,0-1.76.58l-.31-.86a4.16,4.16,0,0,1,2.3-.68c1.73,0,2.51,1,2.51,2.09a2.18,2.18,0,0,1-1.62,2.07v0a2.3,2.3,0,0,1,2,2.26c0,1.4-1.1,2.63-3.2,2.63a4.52,4.52,0,0,1-2.29-.59Z"/><path class="cls-12" d="M646.28,172.55a1.81,1.81,0,0,1-.79.16,1.31,1.31,0,0,1-1.38-1.4,1.41,1.41,0,0,1,1.48-1.47,1.66,1.66,0,0,1,.7.15l-.11.38a1.29,1.29,0,0,0-.59-.13,1,1,0,0,0,0,2.07,1.46,1.46,0,0,0,.61-.13Z"/><path class="cls-12" d="M648.39,172.66l0-.35h0a1,1,0,0,1-.84.41.78.78,0,0,1-.84-.79c0-.67.59-1,1.66-1v-.05a.57.57,0,0,0-.63-.64,1.44,1.44,0,0,0-.72.2l-.11-.33a1.79,1.79,0,0,1,.9-.24c.85,0,1,.57,1,1.13v1a3.41,3.41,0,0,0,.05.66Zm-.07-1.41c-.55,0-1.17.09-1.17.62a.44.44,0,0,0,.47.48.69.69,0,0,0,.67-.46.45.45,0,0,0,0-.16Z"/><path class="cls-12" d="M649.61,168.62h.5v4h-.5Z"/><path class="cls-12" d="M653.45,171.26a1.35,1.35,0,0,1-1.38,1.46,1.32,1.32,0,0,1-1.32-1.42,1.35,1.35,0,0,1,1.37-1.46A1.31,1.31,0,0,1,653.45,171.26Zm-2.19,0c0,.61.35,1.06.84,1.06s.83-.45.83-1.07c0-.46-.23-1.06-.82-1.06S651.26,170.76,651.26,171.28Z"/><path class="cls-12" d="M654.08,170.76c0-.32,0-.6,0-.86h.44v.54h0a.83.83,0,0,1,.77-.6.34.34,0,0,1,.14,0v.47l-.17,0a.71.71,0,0,0-.67.64,1.57,1.57,0,0,0,0,.24v1.47h-.49Z"/><path class="cls-12" d="M656.52,169.13a.29.29,0,0,1-.32.3.29.29,0,0,1-.3-.3.31.31,0,0,1,.31-.32A.3.3,0,0,1,656.52,169.13Zm-.56,3.53V169.9h.51v2.76Z"/><path class="cls-12" d="M657.58,171.37a.88.88,0,0,0,.94,1,1.74,1.74,0,0,0,.76-.15l.09.36a2.26,2.26,0,0,1-.92.17,1.27,1.27,0,0,1-1.35-1.39,1.33,1.33,0,0,1,1.29-1.48,1.17,1.17,0,0,1,1.14,1.3,1.21,1.21,0,0,1,0,.23ZM659,171a.71.71,0,0,0-.69-.81.82.82,0,0,0-.77.81Z"/><path class="cls-12" d="M660.08,172.14a1.29,1.29,0,0,0,.66.2c.37,0,.54-.18.54-.41s-.15-.37-.52-.5-.72-.45-.72-.78a.84.84,0,0,1,1-.81,1.34,1.34,0,0,1,.67.17l-.12.36a1.17,1.17,0,0,0-.56-.16c-.3,0-.47.18-.47.38s.17.33.53.47.72.42.72.83-.38.82-1,.82a1.59,1.59,0,0,1-.77-.18Z"/><rect class="cls-11" x="516.87" y="191.7" width="75.06" height="6"/><rect class="cls-12" x="516.87" y="201.37" width="42.88" height="2.33"/><rect class="cls-12" x="562.3" y="201.37" width="26" height="2.33"/><rect class="cls-12" x="516.87" y="205.53" width="50" height="2.34"/><rect class="cls-12" x="569.68" y="205.53" width="6.69" height="2.33"/><rect class="cls-12" x="578.99" y="205.53" width="11.38" height="2.33"/><rect class="cls-12" x="516.83" y="209.83" width="11.28" height="2.33"/><rect class="cls-12" x="530.49" y="209.83" width="18.38" height="2.33"/><rect class="cls-12" x="603.96" y="189" width="28.75" height="25.88" rx="1.63"/><path class="cls-16" d="M613.94,197.42l-8.48,14.7a.93.93,0,0,0,.8,1.39h17a.93.93,0,0,0,.8-1.39l-8.48-14.7A.93.93,0,0,0,613.94,197.42Z"/><path class="cls-16" d="M623.34,201.27l-6.26,10.85a.93.93,0,0,0,.8,1.39h12.53a.93.93,0,0,0,.8-1.39L625,201.27A.93.93,0,0,0,623.34,201.27Z"/><path class="cls-11" d="M643.15,203.86v-.73l.93-.91c2.24-2.14,3.26-3.27,3.27-4.6a1.56,1.56,0,0,0-1.74-1.71,3,3,0,0,0-1.87.74l-.38-.84a3.89,3.89,0,0,1,2.49-.89,2.48,2.48,0,0,1,2.69,2.56c0,1.62-1.18,2.93-3,4.71l-.7.65v0h4v1Z"/><path class="cls-11" d="M650.37,202.49a3.93,3.93,0,0,0,1.94.56c1.53,0,2-1,2-1.71,0-1.23-1.12-1.76-2.27-1.76h-.66v-.89H652c.87,0,2-.44,2-1.49,0-.7-.45-1.32-1.54-1.32a3.25,3.25,0,0,0-1.76.58l-.31-.86a4.16,4.16,0,0,1,2.3-.68c1.73,0,2.51,1,2.51,2.1a2.18,2.18,0,0,1-1.62,2.06v0a2.3,2.3,0,0,1,2,2.26c0,1.4-1.09,2.64-3.2,2.64a4.54,4.54,0,0,1-2.29-.6Z"/><path class="cls-11" d="M660.7,203.86v-2.4h-4.08v-.78l3.92-5.61h1.28v5.46h1.23v.93h-1.23v2.4Zm0-3.33V197.6c0-.46,0-.92,0-1.38h0c-.27.51-.49.89-.73,1.3l-2.15,3v0Z"/><path class="cls-12" d="M646.28,209.8a1.81,1.81,0,0,1-.79.16,1.3,1.3,0,0,1-1.37-1.4,1.4,1.4,0,0,1,1.48-1.46,1.66,1.66,0,0,1,.69.14l-.11.38a1.27,1.27,0,0,0-.58-.13,1,1,0,0,0,0,2.08,1.44,1.44,0,0,0,.61-.14Z"/><path class="cls-12" d="M648.39,209.91l0-.35h0a1,1,0,0,1-.84.41.78.78,0,0,1-.84-.79c0-.67.59-1,1.66-1v-.05a.57.57,0,0,0-.63-.64,1.44,1.44,0,0,0-.72.2l-.11-.33a1.79,1.79,0,0,1,.9-.24c.85,0,1,.57,1,1.13v1a3.34,3.34,0,0,0,.05.66Zm-.07-1.41c-.55,0-1.17.09-1.17.62a.44.44,0,0,0,.47.48.69.69,0,0,0,.67-.46.45.45,0,0,0,0-.16Z"/><path class="cls-12" d="M649.61,205.87h.5v4h-.5Z"/><path class="cls-12" d="M653.45,208.51a1.35,1.35,0,0,1-1.37,1.46,1.32,1.32,0,0,1-1.33-1.42,1.35,1.35,0,0,1,1.37-1.46A1.31,1.31,0,0,1,653.45,208.51Zm-2.19,0c0,.61.35,1.06.84,1.06s.83-.45.83-1.07c0-.46-.23-1.06-.82-1.06S651.26,208,651.26,208.53Z"/><path class="cls-12" d="M654.08,208c0-.32,0-.6,0-.86h.44v.54h0a.81.81,0,0,1,.76-.6l.14,0v.47l-.17,0a.71.71,0,0,0-.67.64,1.66,1.66,0,0,0,0,.24v1.47h-.5Z"/><path class="cls-12" d="M656.52,206.38a.3.3,0,0,1-.32.31.3.3,0,0,1-.3-.31.31.31,0,0,1,.32-.32A.3.3,0,0,1,656.52,206.38Zm-.56,3.53v-2.76h.51v2.76Z"/><path class="cls-12" d="M657.58,208.62a.88.88,0,0,0,.94,1,1.74,1.74,0,0,0,.76-.15l.09.36a2.26,2.26,0,0,1-.92.17,1.27,1.27,0,0,1-1.35-1.39,1.33,1.33,0,0,1,1.29-1.48,1.17,1.17,0,0,1,1.14,1.3,1.21,1.21,0,0,1,0,.23Zm1.46-.36a.71.71,0,0,0-.69-.81.82.82,0,0,0-.77.81Z"/><path class="cls-12" d="M660.08,209.39a1.29,1.29,0,0,0,.66.2c.37,0,.54-.18.54-.41s-.15-.37-.51-.5-.73-.45-.73-.78a.84.84,0,0,1,1-.81,1.34,1.34,0,0,1,.67.17l-.12.36a1.17,1.17,0,0,0-.56-.16c-.3,0-.47.18-.47.38s.17.33.53.47.72.42.72.83-.37.82-1,.82a1.59,1.59,0,0,1-.77-.18Z"/><rect class="cls-11" x="516.87" y="228.92" width="75.06" height="6"/><rect class="cls-12" x="516.87" y="238.59" width="42.88" height="2.33"/><rect class="cls-12" x="562.3" y="238.59" width="26" height="2.33"/><rect class="cls-12" x="516.87" y="242.75" width="50" height="2.34"/><rect class="cls-12" x="569.68" y="242.75" width="6.69" height="2.33"/><rect class="cls-12" x="578.99" y="242.75" width="11.38" height="2.33"/><rect class="cls-12" x="516.83" y="247.06" width="11.28" height="2.33"/><rect class="cls-12" x="530.49" y="247.06" width="18.38" height="2.33"/><rect class="cls-12" x="603.96" y="226.22" width="28.75" height="25.88" rx="1.63"/><path class="cls-16" d="M613.94,234.64l-8.48,14.7a.93.93,0,0,0,.8,1.39h17a.93.93,0,0,0,.8-1.39l-8.48-14.7A.94.94,0,0,0,613.94,234.64Z"/><path class="cls-16" d="M623.34,238.49l-6.26,10.85a.93.93,0,0,0,.8,1.39h12.53a.93.93,0,0,0,.8-1.39L625,238.49A.94.94,0,0,0,623.34,238.49Z"/><path class="cls-11" d="M648.39,233.29H645l-.34,2.26a4.39,4.39,0,0,1,.72-.05,3.66,3.66,0,0,1,1.89.47,2.51,2.51,0,0,1,1.26,2.26,3.06,3.06,0,0,1-3.28,3,4.31,4.31,0,0,1-2.19-.54l.3-.91a3.9,3.9,0,0,0,1.88.49,1.94,1.94,0,0,0,2.08-1.91c0-1.13-.77-2-2.52-2a8.91,8.91,0,0,0-1.22.1l.57-4.22h4.2Z"/><path class="cls-11" d="M655.1,233.13a4.81,4.81,0,0,0-.89.05,3.57,3.57,0,0,0-3.06,3.13h0a2.67,2.67,0,0,1,4.77,1.82,2.94,2.94,0,0,1-2.92,3.1c-1.88,0-3.11-1.46-3.11-3.75a5.55,5.55,0,0,1,1.49-4,4.84,4.84,0,0,1,2.81-1.3,6.12,6.12,0,0,1,.87-.06Zm-.34,5.07a1.79,1.79,0,0,0-1.81-2,1.94,1.94,0,0,0-1.7,1.09.91.91,0,0,0-.14.52c0,1.45.69,2.52,1.93,2.52C654.07,240.31,654.76,239.46,654.76,238.2Z"/><path class="cls-11" d="M657.71,240.24a4.77,4.77,0,0,0,1,0,3.3,3.3,0,0,0,1.84-.85,3.86,3.86,0,0,0,1.16-2.34h0a2.6,2.6,0,0,1-2.07,1,2.54,2.54,0,0,1-2.59-2.69,3,3,0,0,1,3-3.13c1.8,0,2.9,1.46,2.9,3.71a5.53,5.53,0,0,1-1.51,4.12,4.44,4.44,0,0,1-2.55,1.18,5.63,5.63,0,0,1-1.1.06Zm.43-5.06a1.7,1.7,0,0,0,1.69,1.87,2,2,0,0,0,1.73-.92.76.76,0,0,0,.11-.43c0-1.5-.55-2.65-1.8-2.65C658.86,233.05,658.14,233.94,658.14,235.18Z"/><path class="cls-12" d="M646.28,247a1.81,1.81,0,0,1-.79.16,1.31,1.31,0,0,1-1.38-1.41,1.4,1.4,0,0,1,1.48-1.46,1.68,1.68,0,0,1,.7.14l-.12.39a1.1,1.1,0,0,0-.58-.13,1,1,0,0,0,0,2.07,1.44,1.44,0,0,0,.61-.14Z"/><path class="cls-12" d="M648.39,247.13l0-.35h0a1,1,0,0,1-.84.41.78.78,0,0,1-.84-.79c0-.67.59-1,1.65-1v-.06a.57.57,0,0,0-.62-.64,1.32,1.32,0,0,0-.72.21l-.11-.33a1.7,1.7,0,0,1,.9-.25c.84,0,1,.58,1,1.13v1a3.34,3.34,0,0,0,.05.66Zm-.07-1.41c-.55,0-1.17.09-1.17.62a.44.44,0,0,0,.47.48.69.69,0,0,0,.67-.46.9.9,0,0,0,0-.16Z"/><path class="cls-12" d="M649.61,243.09h.5v4h-.5Z"/><path class="cls-12" d="M653.45,245.73a1.35,1.35,0,0,1-1.38,1.46,1.31,1.31,0,0,1-1.32-1.42,1.35,1.35,0,0,1,1.37-1.46A1.31,1.31,0,0,1,653.45,245.73Zm-2.19,0c0,.6.35,1.06.84,1.06s.83-.45.83-1.07c0-.47-.23-1.06-.82-1.06S651.26,245.23,651.26,245.76Z"/><path class="cls-12" d="M654.08,245.23c0-.32,0-.6,0-.86h.43l0,.55h0a.84.84,0,0,1,.77-.61l.14,0v.47l-.17,0a.7.7,0,0,0-.67.65,1.6,1.6,0,0,0,0,.23v1.47h-.49Z"/><path class="cls-12" d="M656.52,243.6a.3.3,0,0,1-.32.31.3.3,0,0,1-.3-.31.3.3,0,0,1,.31-.31A.29.29,0,0,1,656.52,243.6Zm-.56,3.53v-2.76h.5v2.76Z"/><path class="cls-12" d="M657.58,245.84a.88.88,0,0,0,.94,1,1.8,1.8,0,0,0,.76-.14l.09.36a2.26,2.26,0,0,1-.92.17,1.28,1.28,0,0,1-1.35-1.39,1.34,1.34,0,0,1,1.29-1.49,1.17,1.17,0,0,1,1.14,1.3,1.21,1.21,0,0,1,0,.23Zm1.46-.36a.71.71,0,0,0-.69-.81.83.83,0,0,0-.77.81Z"/><path class="cls-12" d="M660.08,246.62a1.39,1.39,0,0,0,.66.2c.37,0,.54-.19.54-.41s-.15-.37-.52-.51-.72-.45-.72-.78a.85.85,0,0,1,1-.81,1.34,1.34,0,0,1,.67.17l-.12.37a1.08,1.08,0,0,0-.57-.16c-.29,0-.46.17-.46.37s.17.33.53.47.72.42.72.83-.38.83-1,.83A1.59,1.59,0,0,1,660,247Z"/><rect class="cls-11" x="516.87" y="265.6" width="75.06" height="6"/><rect class="cls-12" x="516.87" y="275.26" width="42.88" height="2.33"/><rect class="cls-12" x="562.3" y="275.26" width="26" height="2.33"/><rect class="cls-12" x="516.87" y="279.42" width="50" height="2.34"/><rect class="cls-12" x="569.68" y="279.43" width="6.69" height="2.33"/><rect class="cls-12" x="578.99" y="279.43" width="11.38" height="2.33"/><rect class="cls-12" x="516.83" y="283.73" width="11.28" height="2.33"/><rect class="cls-12" x="530.49" y="283.73" width="18.38" height="2.33"/><rect class="cls-12" x="603.96" y="262.89" width="28.75" height="25.88" rx="1.63"/><path class="cls-16" d="M613.94,271.32,605.46,286a.93.93,0,0,0,.8,1.39h17A.93.93,0,0,0,624,286l-8.48-14.69A.93.93,0,0,0,613.94,271.32Z"/><path class="cls-16" d="M623.34,275.17,617.08,286a.93.93,0,0,0,.8,1.39h12.53a.93.93,0,0,0,.8-1.39L625,275.17A.93.93,0,0,0,623.34,275.17Z"/><path class="cls-11" d="M648.16,269.8a4.18,4.18,0,0,0-.89.06,3.57,3.57,0,0,0-3.06,3.12h0a2.69,2.69,0,0,1,4.78,1.83,2.94,2.94,0,0,1-2.92,3.09c-1.88,0-3.11-1.46-3.11-3.74a5.53,5.53,0,0,1,1.48-4,4.75,4.75,0,0,1,2.82-1.3,5,5,0,0,1,.86-.07Zm-.34,5.07a1.78,1.78,0,0,0-1.81-2,2,2,0,0,0-1.7,1.08,1,1,0,0,0-.14.53c0,1.44.69,2.51,1.94,2.51C647.13,277,647.82,276.13,647.82,274.87Z"/><path class="cls-11" d="M655.79,269v.78l-3.83,8h-1.23l3.81-7.77v0h-4.29v-1Z"/><path class="cls-11" d="M659.6,270.07h0l-1.53.83-.23-.91,1.92-1h1v8.78H659.6Z"/><path class="cls-12" d="M646.28,283.7a1.81,1.81,0,0,1-.79.16,1.32,1.32,0,0,1-1.38-1.41,1.41,1.41,0,0,1,1.48-1.46,1.86,1.86,0,0,1,.7.14l-.11.39a1.17,1.17,0,0,0-.59-.13,1,1,0,0,0,0,2.07,1.46,1.46,0,0,0,.61-.13Z"/><path class="cls-12" d="M648.39,283.8l0-.34h0a1,1,0,0,1-.84.41.79.79,0,0,1-.84-.8c0-.66.59-1,1.66-1V282a.57.57,0,0,0-.63-.63,1.44,1.44,0,0,0-.72.2l-.11-.33a1.7,1.7,0,0,1,.9-.24c.85,0,1,.57,1,1.12v1a3.28,3.28,0,0,0,.05.66Zm-.07-1.4c-.55,0-1.17.08-1.17.62a.45.45,0,0,0,.47.48.69.69,0,0,0,.67-.47.4.4,0,0,0,0-.15Z"/><path class="cls-12" d="M649.61,279.76h.5v4h-.5Z"/><path class="cls-12" d="M653.45,282.4a1.36,1.36,0,0,1-1.38,1.47,1.32,1.32,0,0,1-1.32-1.42,1.35,1.35,0,0,1,1.37-1.46A1.3,1.3,0,0,1,653.45,282.4Zm-2.19,0c0,.6.35,1.06.84,1.06s.83-.45.83-1.07-.23-1.06-.82-1.06S651.26,281.91,651.26,282.43Z"/><path class="cls-12" d="M654.08,281.91c0-.33,0-.61,0-.86h.44v.54h0a.83.83,0,0,1,.77-.6h.14v.48a.44.44,0,0,0-.17,0,.71.71,0,0,0-.67.64,1.6,1.6,0,0,0,0,.23v1.47h-.49Z"/><path class="cls-12" d="M656.52,280.27a.29.29,0,0,1-.32.31.3.3,0,0,1-.3-.31.31.31,0,0,1,.31-.31A.3.3,0,0,1,656.52,280.27ZM656,283.8v-2.75h.51v2.75Z"/><path class="cls-12" d="M657.58,282.52a.88.88,0,0,0,.94,1,1.77,1.77,0,0,0,.76-.14l.09.36a2.26,2.26,0,0,1-.92.17,1.28,1.28,0,0,1-1.35-1.39,1.33,1.33,0,0,1,1.29-1.48,1.16,1.16,0,0,1,1.14,1.29,1.25,1.25,0,0,1,0,.24Zm1.46-.36a.71.71,0,0,0-.69-.82.83.83,0,0,0-.77.82Z"/><path class="cls-12" d="M660.08,283.29a1.29,1.29,0,0,0,.66.2c.37,0,.54-.18.54-.41s-.15-.37-.52-.51-.72-.45-.72-.78a.84.84,0,0,1,1-.8,1.34,1.34,0,0,1,.67.17l-.12.36a1.07,1.07,0,0,0-.56-.16c-.3,0-.47.17-.47.38s.17.33.53.46.72.42.72.83-.38.83-1,.83a1.49,1.49,0,0,1-.77-.19Z"/></g></g></svg>