<?xml version="1.0" encoding="utf-8"?>
<!-- Generator: Adobe Illustrator 23.0.1, SVG Export Plug-In . SVG Version: 6.00 Build 0)  -->
<svg version="1.1" id="Layer_1" xmlns="http://www.w3.org/2000/svg" xmlns:xlink="http://www.w3.org/1999/xlink" x="0px" y="0px"
	 viewBox="0 0 600 600" style="enable-background:new 0 0 600 600;" xml:space="preserve">
<style type="text/css">
	.st0{fill:#36A9E1;}
	.st1{fill:#1D1D1B;}
	.st2{fill:#2E5227;}
	.st3{fill:#231F20;}
	.st4{fill:#977E63;}
	.st5{fill:#771914;}
	.st6{fill:#DF4336;}
	.st7{fill:#FFFFFF;}
	.st8{fill:#DE4435;}
	.st9{fill:url(#SVGID_1_);}
	.st10{fill:url(#SVGID_2_);}
	.st11{fill:url(#SVGID_3_);}
	.st12{fill:#404041;}
	.st13{fill:url(#SVGID_4_);}
	.st14{fill:url(#SVGID_5_);}
	.st15{fill:url(#SVGID_6_);}
	.st16{fill:url(#SVGID_7_);}
	.st17{fill:url(#SVGID_8_);}
	.st18{fill:url(#SVGID_9_);}
	.st19{fill:url(#SVGID_10_);}
	.st20{fill:url(#SVGID_11_);}
	.st21{fill:url(#SVGID_12_);}
	.st22{fill:#EC1C24;}
	.st23{fill:none;stroke:#1D1D1B;stroke-width:4.0818;stroke-miterlimit:10;}
	.st24{fill:#C99D66;}
	.st25{fill:#35A8E0;}
	.st26{fill:#2DAB66;}
	.st27{fill:none;stroke:#1D1D1B;stroke-width:3.4123;stroke-linejoin:round;stroke-miterlimit:10;}
	.st28{fill:#E20613;}
	.st29{fill:#FCEA0D;}
	.st30{fill:#F094BD;}
	.st31{fill:#E5332A;}
	.st32{fill:#E84E1B;}
	.st33{fill:#F29100;}
	.st34{fill:#F8B133;}
	.st35{fill:#008D36;}
	.st36{fill:#006633;}
	.st37{fill:#39A935;}
	.st38{fill:#1D3763;}
	.st39{fill:url(#SVGID_13_);}
	.st40{fill:url(#SVGID_14_);}
	.st41{fill:url(#SVGID_15_);}
	.st42{fill:url(#SVGID_16_);}
	.st43{fill:url(#SVGID_17_);}
	.st44{fill:url(#SVGID_18_);}
	.st45{fill:url(#SVGID_19_);}
	.st46{fill:url(#SVGID_20_);}
	.st47{fill:url(#SVGID_21_);}
	.st48{fill:none;}
	.st49{fill:#93C01F;}
	.st50{fill:#81358A;}
	.st51{fill:#4B2C15;}
	.st52{fill:#79A242;}
	.st53{fill:#613917;stroke:#613917;stroke-width:0.3451;stroke-miterlimit:10;}
	.st54{fill:#8D8C8C;stroke:#8D8C8C;stroke-width:0.3451;stroke-miterlimit:10;}
	.st55{fill:#273577;}
	.st56{fill:#6C1510;}
	.st57{fill:#185126;}
</style>
<g>
	<g>
		<g>
			<polygon class="st24" points="344.3,290 333.7,300.1 315.9,317.1 300.7,331.6 265,365.6 265,365.6 227.7,401.2 227.5,401.3 
				227.5,401.3 214.1,414.1 163.2,462.6 154.2,471.1 111,512.3 122.5,454.2 133.8,397.6 142.4,354.3 145.1,341 156.3,284.3 
				167.6,227.7 171,210.6 173.9,196.2 			"/>
			<path class="st1" d="M111,519c-1.1,0-2.2-0.3-3.2-0.8c-2.6-1.4-3.9-4.3-3.3-7.2l62.9-316.1c0.4-2.1,1.8-3.9,3.7-4.8
				c1.9-0.9,4.2-0.8,6,0.2l170.5,93.8c1.9,1,3.1,2.9,3.4,5c0.3,2.1-0.5,4.2-2,5.7l-79.3,75.6c-0.1,0.1-0.2,0.2-0.3,0.3L232.3,406
				c-0.1,0.1-0.1,0.1-0.2,0.2c0,0,0,0,0,0l-116.5,111C114.3,518.4,112.7,519,111,519z M178.6,206.5l-57,286.4l101-96.2
				c0.1-0.1,0.2-0.2,0.3-0.3l0.1-0.1l37.3-35.5c0.1-0.1,0.2-0.2,0.3-0.3l72.4-69L178.6,206.5z"/>
		</g>
		<g>
			<path class="st25" d="M370.2,291.5c-6.7,12.2-22,16.6-34.2,9.9c-8.2-4.5-12.9-12.9-13-21.6c0-1.6,0.1-3.2,0.4-4.8
				c-7.8,7.1-19.4,8.8-29.1,3.5c-9.7-5.3-14.5-16.1-12.7-26.5c-7.7,7.1-19.4,8.8-29.1,3.4c-9.7-5.3-14.5-16.1-12.7-26.5
				c-7.8,7.1-19.4,8.8-29.1,3.5c-9.7-5.3-14.5-16.1-12.7-26.5c-1.2,1.1-2.5,2.1-3.9,2.9c-7.5,4.5-17,5-25.2,0.5
				c-12.2-6.7-16.6-22-9.9-34.2c6.7-12.2,22-16.6,34.2-9.9c0.8,0.5,1.6,1,2.4,1.5c1.9-7.4,4.8-14.7,8.7-21.7
				c25.4-46.2,83.4-63,129.6-37.6c46.2,25.4,63,83.4,37.6,129.6c-3.8,7-8.4,13.3-13.6,18.9c0.9,0.4,1.7,0.8,2.6,1.2
				C372.4,264,376.9,279.3,370.2,291.5z"/>
			<path class="st1" d="M287.8,95.7c15.6,0,31.3,3.8,45.9,11.8c46.2,25.4,63,83.4,37.6,129.6c-3.8,7-8.4,13.3-13.6,18.9
				c0.9,0.4,1.7,0.8,2.6,1.2c12.2,6.7,16.6,22,9.9,34.2c-4.6,8.3-13.2,13.1-22.1,13.1c-4.1,0-8.3-1-12.1-3.1
				c-8.2-4.5-12.9-12.9-13-21.6c0-1.6,0.1-3.2,0.4-4.8c-4.7,4.3-10.8,6.6-17,6.6c-4.1,0-8.3-1-12.1-3.1
				c-9.7-5.3-14.5-16.1-12.7-26.5c-4.7,4.3-10.8,6.6-17,6.6c-4.1,0-8.3-1-12.1-3.1c-9.7-5.3-14.5-16.1-12.7-26.5
				c-4.7,4.3-10.8,6.6-17,6.6c-4.1,0-8.3-1-12.1-3.1c-9.7-5.3-14.5-16.1-12.7-26.5c-1.2,1.1-2.5,2.1-3.9,2.9
				c-3.9,2.4-8.5,3.7-13.1,3.7c-4.1,0-8.3-1-12.1-3.1c-12.2-6.7-16.6-22-9.9-34.2c4.6-8.3,13.2-13.1,22.1-13.1c4.1,0,8.3,1,12.1,3.1
				c0.8,0.5,1.6,1,2.4,1.5c1.9-7.4,4.8-14.7,8.7-21.7C221.5,113.6,254.1,95.7,287.8,95.7 M287.8,81v14.7V81
				c-40.2,0-77.2,21.9-96.6,57.1c-1.8,3.2-3.4,6.5-4.8,9.8c-1.8-0.3-3.7-0.4-5.5-0.4c-14.6,0-28,7.9-35,20.7
				c-10.6,19.3-3.6,43.6,15.7,54.2c5.9,3.2,12.5,5,19.2,5c1.8,0,3.7-0.1,5.5-0.4c3.5,7.6,9.4,14.2,17.1,18.4
				c5.9,3.2,12.5,4.9,19.2,4.9c1.9,0,3.7-0.1,5.5-0.4c3.5,7.6,9.4,14.2,17.1,18.4c5.9,3.2,12.5,4.9,19.2,4.9c1.9,0,3.7-0.1,5.5-0.4
				c3.5,7.6,9.4,14.2,17.1,18.4c5.9,3.2,12.5,4.9,19.2,4.9c1.9,0,3.7-0.1,5.5-0.4c3.5,7.7,9.4,14.2,17.1,18.4
				c5.9,3.2,12.5,4.9,19.2,4.9c14.6,0,28-7.9,35-20.7c5.1-9.3,6.3-20.1,3.4-30.4c-1.6-5.5-4.3-10.5-7.9-14.8c2-3,3.9-6.1,5.7-9.3
				c29.3-53.2,9.8-120.3-43.4-149.6C324.5,85.7,306.2,81,287.8,81L287.8,81z"/>
		</g>
		<g>
			<path class="st26" d="M274.2,91.3c0,0,35.4,23.7,14.1,40.4c-21.3,16.7-6.5,29.1-6.5,29.1s19.8,16.7,3.4,18.7
				c-15.6,1.9-28.7-2.1-36-4.5c-9.2-3-26.2-11.5-34.3-23.6c-7.2-10.7-1.1-27.5-1.1-27.5S238.4,88.4,274.2,91.3z"/>
			<path class="st1" d="M277,183.3c-13.1,0-23.8-3.5-28.9-5.2c-9.2-3-27.2-11.7-36.1-25c-8-12-1.8-29.7-1.5-30.5
				c0.1-0.3,0.2-0.5,0.4-0.8c0.3-0.4,6.6-9.3,17.5-18c14.6-11.6,30.5-17.1,46-15.9c0.6,0,1.1,0.2,1.6,0.6
				c0.9,0.6,21.8,14.8,22.4,30.2c0.2,6-2.5,11.2-8.1,15.6c-6.6,5.2-10.2,10.5-10.2,15.3c-0.1,5.2,3.8,8.5,3.8,8.5
				c3.1,2.6,12.9,11.6,10.8,18.6c-1,3.3-4.1,5.3-9.1,6C282.6,183.1,279.7,183.3,277,183.3z M216.7,125.3c-0.8,2.5-4.7,15.8,0.9,24.1
				c7.9,11.8,24.8,19.8,32.6,22.3c6.2,2,19.1,6.3,34.6,4.4c2.7-0.3,3.5-1.1,3.5-1.2c0.5-1.7-3.8-7.5-8.7-11.6
				c-0.2-0.2-6.3-5.4-6.2-13.8c0.1-7,4.4-13.9,12.8-20.5c3.9-3,5.7-6.3,5.5-10.1c-0.4-9.6-13-20.4-18.7-24.4
				C241.9,92.6,219.4,121.7,216.7,125.3z"/>
		</g>
		<g>
			<path class="st26" d="M357.3,206.7c-6.3,10.8-20.3,14.9-31.1,8.6c-8.7-5.1-13.9-14.6-7.2-24.4c3.1-4.5,7.8-4.2,11.3-7.4
				c11.6-10.5-3.5-16.4-6.6-26.6c-5.3-17.7,22.4-8.1,29.4-3C373.1,168.5,367.9,188.4,357.3,206.7z"/>
			<path class="st1" d="M337.2,221.6c-4.4,0-8.8-1.2-12.7-3.4c-6-3.5-10.2-8.8-11.5-14.4c-1.1-5,0-10.1,3.2-14.8
				c2.3-3.4,5.4-4.7,7.9-5.8c1.5-0.7,2.9-1.2,3.9-2.2c5.1-4.6,3.7-6.7-1.2-12.8c-2.4-2.9-5.1-6.3-6.3-10.3
				c-2.1-7.1,0.4-10.7,2.8-12.4c8.3-5.9,27.1,2.4,31.7,5.8c18.1,13.2,19.8,31.9,5.1,57.2l0,0c-3.5,6-9.1,10.4-15.8,12.2
				C342,221.3,339.6,221.6,337.2,221.6z M331,150c-1.6,0-2.9,0.3-3.8,0.9c-1.2,0.9-0.8,3.2-0.3,5.1c0.8,2.8,3,5.5,5.1,8
				c4.4,5.4,10.5,12.9,0.5,22c-1.9,1.7-3.9,2.6-5.8,3.4c-2.1,0.9-3.8,1.6-5,3.4c-2.2,3.2-2.9,6.4-2.2,9.5c0.9,3.8,3.9,7.5,8.3,10.1
				c4.4,2.6,9.6,3.2,14.6,1.8c5-1.4,9.2-4.7,11.9-9.2l0,0c12.8-22.1,11.8-37.5-3.2-48.4C347.3,153.7,337.1,150,331,150z"/>
		</g>
		<g>
			<path class="st26" d="M310.2,281.3c7-1.1,11.5-8,10.2-15c-0.9-4.5-1.9-9.5-3.3-14.4c-3.7-13.6-19.4-14.1-23.9-13.9
				c-0.7,0-1.4,0.1-2.1,0.3c-3.9,0.8-8.9,9.2-17.7-1.2c-5.1-6-1.4-9.6-5.8-21.8c-4.4-12.2-13.5-5.6-16.6-2.1
				c-2.8,3.2-6.9,5-11.1,4.4c-2.7-0.4-6.1-1.5-10.3-3.8c-9.5-5.2-7.8,10.5-5.6,21.9c5.8-0.3,11.4-2.6,15.7-6.6
				c-1.8,10.3,3,21.1,12.7,26.5c9.7,5.3,21.4,3.6,29.1-3.4c-1.8,10.3,3,21.1,12.7,26.5C299.2,281.3,304.9,282.1,310.2,281.3z"/>
			<path class="st1" d="M260,208.2c2.8,0,5.6,1.8,7.5,7c4.4,12.3,0.8,15.9,5.8,21.8c3.3,3.9,6.1,5.2,8.5,5.2c4,0,6.8-3.5,9.2-4
				c0.7-0.1,1.4-0.2,2.1-0.3c0.3,0,0.7,0,1.1,0c5.5,0,19.4,1.3,22.8,13.9c1.3,4.9,2.4,9.9,3.3,14.4c1.3,7-3.2,13.8-10.2,15
				c-1.3,0.2-2.6,0.3-4,0.3c-4.1,0-8.3-1-12.1-3.1c-9.7-5.3-14.5-16.1-12.7-26.5c-4.7,4.3-10.8,6.6-17,6.6c-4.1,0-8.3-1-12.1-3.1
				c-9.7-5.3-14.5-16.1-12.7-26.5c-4.3,4-9.9,6.3-15.7,6.6c-1.9-9.8-3.5-22.9,2.3-22.9c0.9,0,2,0.3,3.3,1c4.1,2.3,7.5,3.4,10.3,3.8
				c0.6,0.1,1.1,0.1,1.7,0.1c3.6,0,7.1-1.7,9.5-4.5C252.7,211.1,256.3,208.2,260,208.2 M260,201.5L260,201.5c-7.4,0-13,6.1-14.1,7.3
				c-1.2,1.4-2.8,2.2-4.4,2.2c-0.2,0-0.5,0-0.7-0.1c-2.3-0.3-5-1.4-8-3c-2.3-1.3-4.4-1.9-6.5-1.9c-3,0-5.7,1.3-7.6,3.6
				c-2.5,3.1-4.9,8.9-1.3,27.3c0.6,3.1,3.4,5.4,6.6,5.4c0.1,0,0.2,0,0.4,0c3.1-0.2,6.2-0.8,9.1-1.8c2,8.7,7.6,16.4,15.7,20.9
				c4.7,2.6,10,4,15.4,4c3.7,0,7.3-0.6,10.7-1.8c2,8.7,7.6,16.4,15.7,20.9c4.7,2.6,10,3.9,15.3,3.9c1.7,0,3.4-0.1,5-0.4
				c5.1-0.8,9.5-3.6,12.5-7.9c3-4.3,4.2-9.8,3.2-15c-1-5.3-2.2-10.3-3.4-14.9c-3.2-11.8-14.2-18.9-29.3-18.9c-0.5,0-0.9,0-1.3,0
				c-1.1,0-2.1,0.2-3.2,0.4c-2.2,0.4-3.9,1.5-5.3,2.5c-0.7,0.5-2.1,1.3-2.5,1.3c-0.2,0-1.4-0.5-3.4-2.8c-1.3-1.5-1.4-2.2-1.6-5.5
				c-0.3-3.3-0.6-7.8-3-14.3C270.2,203,263.6,201.5,260,201.5L260,201.5L260,201.5z"/>
		</g>
		<polygon class="st1" points="374.9,273.1 369.1,269.9 374.9,273.1 		"/>
		
			<rect x="281.5" y="304.6" transform="matrix(0.201 -0.9796 0.9796 0.201 -57.5163 545.4078)" class="st1" width="48.2" height="6.7"/>
		<path class="st1" d="M230.5,402.8l-3-1.5l-3.2-0.7l28.7-139.9l6.6,1.3L230.8,402C230.7,402.3,230.6,402.6,230.5,402.8z"/>
		
			<rect x="57.9" y="349.7" transform="matrix(0.201 -0.9796 0.9796 0.201 -203.2322 456.8916)" class="st1" width="241.1" height="6.7"/>
		
			<rect x="170.6" y="364.8" transform="matrix(0.2011 -0.9796 0.9796 0.2011 -258.5567 494.6449)" class="st1" width="6.7" height="82"/>
		<path class="st1" d="M264.3,368.9l-119.9-24.6l1.3-6.6l119.9,24.6c0.3,0.1,0.7,0.2,1,0.4l-1.6,2.9L264.3,368.9z"/>
		
			<rect x="232.8" y="219.3" transform="matrix(0.201 -0.9796 0.9796 0.201 -105.9278 471.5615)" class="st1" width="6.7" height="162.9"/>
		<path class="st1" d="M287.8,95.7c15.6,0,31.3,3.8,45.9,11.8c46.2,25.4,63,83.4,37.6,129.6c-3.8,7-8.4,13.3-13.6,18.9
			c0.9,0.4,1.7,0.8,2.6,1.2c12.2,6.7,16.6,22,9.9,34.2c-4.6,8.3-13.2,13.1-22.1,13.1c-4.1,0-8.3-1-12.1-3.1
			c-8.2-4.5-12.9-12.9-13-21.6c0-1.6,0.1-3.2,0.4-4.8c-4.7,4.3-10.8,6.6-17,6.6c-4.1,0-8.3-1-12.1-3.1c-9.7-5.3-14.5-16.1-12.7-26.5
			c-4.7,4.3-10.8,6.6-17,6.6c-4.1,0-8.3-1-12.1-3.1c-9.7-5.3-14.5-16.1-12.7-26.5c-4.7,4.3-10.8,6.6-17,6.6c-4.1,0-8.3-1-12.1-3.1
			c-9.7-5.3-14.5-16.1-12.7-26.5c-1.2,1.1-2.5,2.1-3.9,2.9c-3.9,2.4-8.5,3.7-13.1,3.7c-4.1,0-8.3-1-12.1-3.1
			c-12.2-6.7-16.6-22-9.9-34.2c4.6-8.3,13.2-13.1,22.1-13.1c4.1,0,8.3,1,12.1,3.1c0.8,0.5,1.6,1,2.4,1.5c1.9-7.4,4.8-14.7,8.7-21.7
			C221.5,113.6,254.1,95.7,287.8,95.7 M287.8,81v14.7V81c-40.2,0-77.2,21.9-96.6,57.1c-1.8,3.2-3.4,6.5-4.8,9.8
			c-1.8-0.3-3.7-0.4-5.5-0.4c-14.6,0-28,7.9-35,20.7c-10.6,19.3-3.6,43.6,15.7,54.2c5.9,3.2,12.5,5,19.2,5c1.8,0,3.7-0.1,5.5-0.4
			c3.5,7.6,9.4,14.2,17.1,18.4c5.9,3.2,12.5,4.9,19.2,4.9c1.9,0,3.7-0.1,5.5-0.4c3.5,7.6,9.4,14.2,17.1,18.4
			c5.9,3.2,12.5,4.9,19.2,4.9c1.9,0,3.7-0.1,5.5-0.4c3.5,7.6,9.4,14.2,17.1,18.4c5.9,3.2,12.5,4.9,19.2,4.9c1.9,0,3.7-0.1,5.5-0.4
			c3.5,7.7,9.4,14.2,17.1,18.4c5.9,3.2,12.5,4.9,19.2,4.9c14.6,0,28-7.9,35-20.7c5.1-9.3,6.3-20.1,3.4-30.4
			c-1.6-5.5-4.3-10.5-7.9-14.8c2-3,3.9-6.1,5.7-9.3c29.3-53.2,9.8-120.3-43.4-149.6C324.5,85.7,306.2,81,287.8,81L287.8,81z"/>
	</g>
	<g>
		<g>
			<g>
				<path class="st1" d="M88.5,420c-3.9,0-7.6-0.4-11-1.3c-3.3-0.9-6.4-2-8.9-3.3c-2.9-1.5-5.2-3.2-7-5.2c-2.6-2.8-3.9-5.8-3.9-8.9
					c0-5.1,0.3-8.7,1-11.3c1.2-4.8,4.2-7.3,7.2-8.3c-1.2-1.5-2.2-3.1-3.1-4.8c-1.8-3.5-2.7-7.9-2.7-12.9c0-5.6,1.1-10.5,3.4-14.6
					c2.1-3.9,5-7.2,8.4-9.8c3.3-2.5,7.1-4.3,11.3-5.3c3.8-1,7.6-1.5,11.4-1.5c8.1,0,14.5,2,19,6.1c4.6,4.2,7.1,9.9,7.1,16.4
					c0,7.4-3,11.8-5.5,14.2c-1.2,1.1-2.5,2-3.9,2.8c1.9,1.9,3.5,4,4.9,6.4c2,3.6,3,7.9,3,13c0,3.8-0.6,7.5-1.9,10.9
					c-1.3,3.6-3.4,6.7-6,9.4c-2.7,2.7-6,4.8-9.9,6.2C97.5,419.4,93.2,420,88.5,420z"/>
			</g>
			<g>
				<path class="st1" d="M130.6,419.1c-5.9,0-10.3-1.4-13.4-4.4c-2.2-2.1-4.8-5.9-4.8-12.3c0-1,0.1-2.5,0.2-4.5
					c0.1-1.9,0.3-4.2,0.5-6.8l0.6-8.3c0.2-3,0.5-6.1,0.7-9.2c0.3-3.8,0.6-7.1,0.8-9.9c0.2-2.7,0.4-5,0.5-7c0.1-2,0.2-3.7,0.3-5
					c0.1-1.2,0.1-2.3,0.2-3.2c0-1,0.1-2,0.1-2.8c0-0.7,0-1.5,0-2.4c0-3.1,1.4-5.9,3.9-7.7c1.7-1.2,3.6-1.8,5.6-1.8
					c1.6,0,3.3,0,5.2-0.1c2-0.1,3.9-0.2,5.9-0.3c2.1-0.1,4-0.2,6-0.3c2-0.1,3.8-0.2,5.4-0.2c5,0,9.5,0.7,13.3,1.9
					c4.2,1.4,7.7,3.6,10.5,6.4c2.7,2.8,4.7,6.2,6,10.1c1.1,3.5,1.7,7.5,1.7,11.8c0,4.6-0.6,9-1.8,13.3c-1.3,4.5-3.4,8.6-6.1,12.2
					c-2.9,3.7-6.6,6.7-11.1,8.8c-4.4,2.1-9.6,3.2-15.3,3.2l-0.7,9.7c0,0.1,0,0.3,0,0.4c-0.3,2.1-1,3.9-2.3,5.4
					c-1,1.2-3.3,3.1-7.3,3.1H130.6z"/>
			</g>
			<g>
				<path class="st1" d="M217,420c-4.1,0-7.8-1.4-10.8-4.1c-1.4-1.3-2.8-2.8-4-4.5c-0.3,1.8-1.1,3.3-2.1,4.5c-1,1.2-3.3,3.1-7.3,3.1
					H188c-5.9,0-10.3-1.4-13.4-4.4c-2.2-2.1-4.8-5.9-4.8-12.3c0-0.9,0.1-2.4,0.2-4.4c0.1-1.9,0.3-4.2,0.5-6.8l0.6-8.3
					c0.2-3,0.5-6.1,0.7-9.3c0.5-6.4,0.9-11.8,1.1-15.8l0.5-9.7c0.3-4.5,0.6-6.1,0.8-7c1.1-4.4,4.7-7.4,9.1-7.4c1.9,0,3.8,0,5.8-0.1
					c2.1-0.1,4-0.2,5.9-0.3c2-0.1,3.8-0.2,5.6-0.3c1.9-0.1,3.6-0.2,5.1-0.2c5,0,9.5,0.7,13.4,2c4.2,1.4,7.6,3.6,10.4,6.3
					c2.7,2.8,4.7,6.1,6,9.9c1.1,3.5,1.7,7.3,1.7,11.5c0,6.3-1.3,12.1-3.9,17.2c-1.4,2.8-3.3,5.3-5.6,7.5l3.6,5.1
					c1.6,2.4,2.8,4.1,3.6,5.4c1.1,1.8,2.5,4.2,2.5,7.1c0,2.1-0.7,4.2-2.2,6.4c-1.1,1.6-2.4,3-4.2,4.3c-1.7,1.3-3.6,2.3-5.9,3.2
					C222.6,419.6,219.9,420,217,420z"/>
			</g>
			<g>
				<path class="st1" d="M248.3,419.1c-5.8,0-10.1-1.4-13.2-4.3c-2.3-2.1-4.9-5.8-4.9-12.1c0-1.5,0.1-3.8,0.3-7.2
					c0.2-3.2,0.5-6.9,0.8-10.9c0.3-4,0.6-8.3,1-12.7c0.3-4.5,0.7-8.8,1-12.8c0.3-3.9,0.6-7.4,0.8-10.3c0.2-3.7,0.3-5.1,0.3-5.6
					c0-5.4,4.1-9.5,9.6-9.5h5.4c6.5,0,11.3,1.9,14.2,5.5c2.5,3.2,3.8,7.4,3.8,12.6c0,0.4,0,0.9-0.2,3.6c-0.1,1.8-0.2,4.1-0.4,6.8
					c-0.2,2.7-0.4,5.6-0.6,8.9c-0.2,3.3-0.5,6.6-0.7,10.1c-0.2,3.5-0.5,6.8-0.7,10.1c-0.2,3.3-0.4,6.3-0.6,9l-0.5,6.7
					c-0.2,2.5-0.3,3.4-0.4,3.8c-0.3,2-1,3.8-2.2,5.2c-1,1.2-3.3,3.1-7.3,3.1H248.3z"/>
			</g>
			<g>
				<path class="st1" d="M312.5,419.1c-4.2,0-7.5-0.8-10.1-2.3c-2.6-1.6-4.6-3.7-5.9-6.2c-0.9-1.9-1.9-3.8-2.8-5.7
					c0,0,0.1,4.7,0.1,4.7c0,5.4-4.1,9.5-9.6,9.5h-5.4c-5.9,0-10.3-1.4-13.4-4.4c-2.2-2.1-4.8-5.9-4.8-12.3c0-0.9,0.1-2.4,0.2-4.4
					c0.1-1.9,0.3-4.2,0.5-6.8l0.6-8.3c0.2-3,0.5-6.1,0.7-9.3c0.4-4.9,0.7-9,1-12.3c0.3-3.2,0.5-6,0.6-8.2c0.2-2.1,0.3-4,0.3-5.5
					l0.2-4.6c0.1-5.3,4.2-9.3,9.6-9.3h7.8c3.1,0,5.7,0.4,8,1.2c2.4,0.9,4.5,2.1,6.2,3.8c1.6,1.5,2.8,3.2,3.8,5.2
					c0.4,0.8,0.8,1.7,1.2,2.6c0-1.3,0-2.6,0-3.8c0-4.4,3.3-8.9,9.7-8.9h5.4c3,0,5.5,0.3,7.7,1c2.6,0.9,4.8,2.3,6.5,4.2
					c1.7,1.9,2.8,4.2,3.3,6.7c0.3,1.7,0.5,3.5,0.5,5.5c0,1.8-0.1,4.4-0.3,7.9c-0.2,3.4-0.4,7.1-0.7,11.3c-0.3,4.2-0.6,8.5-0.9,13
					c-0.3,4.5-0.6,8.6-0.9,12.4c-0.3,3.8-0.6,7-0.8,9.7c-0.3,2.9-0.4,4-0.4,4.6c-0.2,2.8-1.6,5.3-3.8,7c-1.7,1.3-3.8,1.9-5.9,1.9
					H312.5z"/>
			</g>
			<g>
				<path class="st1" d="M377.7,420c-4.3,0-8.3-1.4-11.5-4.2c-1.9-1.6-3.6-3.6-5.2-5.9c0,0,0,0.5-0.1,0.6c-0.3,2.1-1,3.9-2.3,5.3
					c-1,1.2-3.3,3.1-7.3,3.1h-5.4c-5.9,0-10.3-1.4-13.4-4.4c-2.2-2.1-4.8-5.9-4.8-12.3c0-1.1,0.1-2.6,0.2-4.6
					c0.1-1.9,0.3-4.2,0.5-6.7l0.6-8.2c0.2-3,0.5-6.1,0.7-9.2c0.4-6.2,0.8-11.2,1.1-14.8c0.3-3.6,0.5-6.4,0.6-8.5
					c0.1-2.1,0.2-3.7,0.3-4.7c0.1-0.8,0.1-1.6,0.1-2.4c0-5.4,4.1-9.5,9.6-9.5h5.4c3,0,5.4,0.3,7.6,1c2.6,0.9,4.7,2.2,6.4,4
					c1.7,1.8,2.8,4,3.4,6.5c0,0.1,0,0.1,0,0.2c1.4-1.8,2.8-3.8,4.4-5.8c0.3-0.4,0.6-0.8,1.1-1.4c0.6-0.7,1.2-1.3,1.9-1.9
					c0.8-0.8,1.7-1.4,2.7-2c1.7-1,3.6-1.6,5.5-1.6c2.7,0,5.4,1,7.9,3.1c1.6,1.3,3.1,2.8,4.5,4.6c1.3,1.6,2.4,3.4,3.3,5.1
					c1.3,2.5,1.9,4.8,1.9,7c0,4.1-2.2,8.4-7.1,13.8c-2.6,2.9-5.9,6-9.9,9.4c1.4,2.2,2.9,4.4,4.3,6.6c1.4,2.2,2.8,4.4,4.2,6.5
					l3.7,5.7c1.1,1.7,2,3.1,2.7,4.2c1.1,1.8,2.2,3.5,2.2,6c0,2.3-0.8,4.6-2.6,6.9c-1.1,1.4-2.5,2.8-4.2,4c-1.6,1.1-3.4,2.1-5.3,3
					C382.9,419.5,380.3,420,377.7,420z"/>
			</g>
			<g>
				<path class="st1" d="M406.9,419.1c-5.8,0-10.1-1.4-13.2-4.3c-2.3-2.1-4.9-5.8-4.9-12.1c0-1.5,0.1-3.8,0.3-7.2
					c0.2-3.2,0.5-6.9,0.8-10.9c0.3-4,0.6-8.3,1-12.7c0.3-4.5,0.7-8.8,1-12.8c0.3-3.9,0.6-7.4,0.8-10.3c0.2-3.7,0.3-5.1,0.3-5.6
					c0-5.4,4.1-9.5,9.6-9.5h5.4c5.9,0,10.2,1.5,13.2,4.4c2,2,4.5,5.7,4.5,11.9c0,0.6,0,1.2-0.1,1.8c0,0.2,0,0.4,0,0.6l-2.6,37h9
					c2,0,4,0.6,5.7,1.8c2.5,1.8,3.9,4.5,3.9,7.6c0,0.2,0,0.4,0,0.5l-0.4,5.8c-0.2,3.6-1.4,6.7-3.3,9.1c-2.5,3.2-6.6,4.9-12.1,4.9
					H406.9z"/>
			</g>
			<g>
				<path class="st1" d="M450.6,419.1c-5.8,0-10.1-1.4-13.2-4.3c-2.3-2.1-4.9-5.8-4.9-12.1c0-1.5,0.1-3.8,0.3-7.2
					c0.2-3.2,0.5-6.9,0.8-10.9c0.3-4,0.6-8.3,1-12.7c0.3-4.5,0.7-8.8,1-12.8c0.3-3.9,0.6-7.4,0.8-10.3c0.2-3.7,0.3-5.1,0.3-5.6
					c0-5.4,4.1-9.5,9.6-9.5h34.4c1.8,0,3.6,0.5,5.2,1.4c2.8,1.7,4.4,4.6,4.4,8c0,0.2,0,0.4,0,0.5l-0.4,5.8c-0.2,3.6-1.4,6.7-3.3,9.1
					c-1.7,2.2-4,3.6-7.1,4.3c2.5,1.7,3.9,4.5,3.9,7.7c0,0.2,0,0.4,0,0.5l-0.4,5.8c-0.2,3.6-1.4,6.7-3.3,9.1
					c-1.1,1.4-2.6,2.6-4.3,3.4h4.1c2,0,4,0.6,5.7,1.8c2.5,1.8,3.9,4.5,3.9,7.6c0,0.2,0,0.4,0,0.5l-0.4,5.8c-0.2,3.6-1.4,6.7-3.3,9.1
					c-2.5,3.2-6.6,4.9-12.1,4.9H450.6z"/>
			</g>
			<g>
				<path class="st1" d="M510.3,420c-3.9,0-7.6-0.4-11-1.3c-3.3-0.9-6.4-2-8.9-3.3c-2.9-1.5-5.2-3.2-7-5.2c-2.6-2.8-3.9-5.8-3.9-8.9
					c0-5.1,0.3-8.7,1-11.3c1.2-4.8,4.2-7.3,7.2-8.3c-1.2-1.5-2.2-3.1-3.1-4.8c-1.8-3.5-2.7-7.9-2.7-12.9c0-5.6,1.1-10.5,3.4-14.6
					c2.1-3.9,5-7.2,8.4-9.8c3.3-2.5,7.1-4.3,11.3-5.3c3.8-1,7.6-1.5,11.4-1.5c8.1,0,14.5,2,19,6.1c4.6,4.2,7.1,9.9,7.1,16.4
					c0,7.4-3,11.8-5.5,14.2c-1.2,1.1-2.5,2-3.9,2.8c1.9,1.9,3.5,4,4.9,6.4c2,3.6,3,7.9,3,13c0,3.8-0.6,7.5-1.9,10.9
					c-1.3,3.6-3.4,6.7-6,9.4c-2.7,2.7-6,4.8-9.9,6.2C519.3,419.4,515,420,510.3,420z"/>
			</g>
		</g>
		<g>
			<path class="st7" d="M94.5,340.8c6.1,0,10.7,1.3,13.6,4c3,2.7,4.4,6.2,4.4,10.4c0,3.6-1,6.4-3,8.3c-2,1.9-4.9,2.9-8.7,2.9
				c-1.2,0-1.9-0.1-2.2-0.3c-0.3-0.2-0.5-0.7-0.5-1.4c0-0.7,0-1.5-0.1-2.5c-0.1-1-0.3-2-0.7-3s-1-1.8-1.9-2.5c-0.8-0.7-2-1-3.5-1
				c-2.1,0-3.9,0.6-5.6,1.9c-1.6,1.3-2.4,2.9-2.4,4.9c0,1.8,0.7,3.2,2,4.3c1.3,1.1,3,2.1,5,3.1c2,0.9,4.2,1.9,6.6,2.9
				c2.4,1,4.6,2.3,6.6,3.9c2,1.6,3.7,3.6,5,6c1.3,2.4,2,5.4,2,9c0,2.9-0.5,5.6-1.4,8.1c-0.9,2.5-2.3,4.7-4.2,6.5
				c-1.9,1.9-4.2,3.3-7,4.3c-2.8,1-6.1,1.6-9.9,1.6c-3.3,0-6.3-0.4-9-1.1c-2.8-0.7-5.2-1.6-7.2-2.7c-2-1.1-3.7-2.2-4.8-3.5
				c-1.2-1.3-1.8-2.4-1.8-3.5c0-4.3,0.2-7.4,0.7-9.3c0.5-1.9,1.4-2.8,2.7-2.8c0.9,0,1.9,0.4,2.9,1.2c1,0.8,2.2,1.7,3.5,2.6
				c1.3,1,2.8,1.9,4.5,2.6c1.7,0.8,3.7,1.2,6,1.2c0.9,0,1.8-0.1,2.7-0.2c0.9-0.2,1.7-0.4,2.3-0.8c0.7-0.4,1.2-0.9,1.7-1.6
				c0.4-0.6,0.6-1.4,0.6-2.3c0-1.6-0.6-2.9-1.9-3.9c-1.2-1-2.8-1.9-4.7-2.7c-1.9-0.8-3.9-1.7-6.1-2.5c-2.2-0.9-4.2-2.1-6.1-3.6
				c-1.9-1.5-3.5-3.5-4.7-5.9c-1.2-2.4-1.9-5.5-1.9-9.3c0-4.2,0.8-7.8,2.4-10.7c1.6-2.9,3.6-5.3,6.2-7.2c2.5-1.9,5.3-3.2,8.5-4
				C88.2,341.2,91.4,340.8,94.5,340.8z"/>
			<path class="st7" d="M130.6,411c-3.7,0-6.3-0.7-7.9-2.2c-1.5-1.5-2.3-3.6-2.3-6.5c0-0.8,0-2.2,0.1-4.1c0.1-1.9,0.2-4.1,0.4-6.6
				c0.2-2.5,0.4-5.3,0.6-8.3c0.2-3,0.5-6.1,0.7-9.2c0.3-3.8,0.6-7.1,0.8-9.9c0.2-2.8,0.4-5.1,0.5-7.1c0.1-2,0.2-3.6,0.3-5
				c0.1-1.3,0.2-2.5,0.2-3.5c0-1,0.1-1.9,0.1-2.8c0-0.8,0-1.8,0-2.7c0-0.5,0.2-0.9,0.5-1.1c0.3-0.2,0.6-0.3,1-0.3
				c1.7,0,3.5,0,5.6-0.1c2-0.1,4-0.2,6.1-0.3c2-0.1,4-0.2,5.9-0.3c1.9-0.1,3.5-0.1,5-0.1c4.2,0,7.7,0.5,10.7,1.5
				c3,1,5.4,2.5,7.3,4.4c1.9,1.9,3.2,4.2,4.1,7c0.9,2.7,1.3,5.9,1.3,9.4c0,3.8-0.5,7.5-1.5,11.1c-1,3.5-2.6,6.7-4.7,9.4
				c-2.1,2.7-4.9,4.9-8.3,6.5c-3.4,1.6-7.4,2.4-12.1,2.4c-2.8,0-5.2-0.3-7.1-0.9l-1.4,18c-0.1,0.5-0.2,0.9-0.4,1.1
				c-0.2,0.2-0.6,0.3-1.2,0.3H130.6z M146.4,355.4c-0.8,0-1.8,0-2.8,0.1c-1,0.1-2.1,0.2-3.3,0.3c-0.1,2.7-0.3,6.1-0.5,10
				c-0.2,3.9-0.5,8-0.8,12.3c1,0.3,1.9,0.4,2.9,0.5c0.9,0.1,1.8,0.1,2.6,0.1c2.3,0,4.1-0.5,5.5-1.6c1.4-1.1,2.5-2.4,3.3-4
				c0.8-1.6,1.3-3.2,1.6-4.9c0.3-1.7,0.4-3.2,0.4-4.4c0-2.8-0.6-4.9-1.9-6.4C152,356.1,149.7,355.4,146.4,355.4z"/>
			<path class="st7" d="M188,411c-3.7,0-6.3-0.7-7.9-2.2c-1.5-1.5-2.3-3.6-2.3-6.5c0-0.8,0-2.1,0.1-4c0.1-1.9,0.2-4.1,0.4-6.6
				c0.2-2.5,0.4-5.3,0.6-8.3c0.2-3,0.5-6.1,0.7-9.2c0.5-6.6,0.9-11.9,1.1-16c0.2-4.1,0.4-7.3,0.5-9.7c0.2-2.9,0.4-4.8,0.6-5.6
				c0.2-0.8,0.6-1.2,1.3-1.2c2,0,4.1,0,6.2-0.1c2.1-0.1,4.1-0.2,6.1-0.3c2-0.1,3.8-0.2,5.5-0.3c1.7-0.1,3.3-0.1,4.6-0.1
				c4.2,0,7.7,0.5,10.7,1.6c3,1,5.4,2.5,7.3,4.4c1.9,1.9,3.2,4.2,4.1,6.8c0.9,2.7,1.3,5.7,1.3,9c0,5.1-1,9.6-3,13.6
				c-2,4-5.2,7-9.7,9.1l8.2,11.7c1.5,2.2,2.6,3.9,3.4,5.1c0.8,1.2,1.2,2.1,1.2,2.7c0,0.5-0.3,1.1-0.8,1.9c-0.6,0.8-1.4,1.6-2.4,2.4
				c-1.1,0.8-2.4,1.5-3.9,2.1c-1.5,0.6-3.2,0.9-5.1,0.9c-2.1,0-3.9-0.7-5.4-2.1c-1.5-1.4-2.9-3.2-4.1-5.4c-1.2-2.2-2.2-4.8-3.1-7.8
				c-0.9-2.9-1.7-6-2.5-9.2c-2.3-0.1-4.3-0.4-5.8-0.7c-0.2,2.9-0.4,5.6-0.6,8.2c-0.2,2.6-0.4,4.9-0.5,7c-0.1,2.1-0.3,3.7-0.4,5.1
				c-0.1,1.3-0.2,2.1-0.2,2.4c-0.1,0.5-0.2,0.9-0.4,1.1c-0.2,0.2-0.6,0.3-1.2,0.3H188z M203.8,355.4c-0.8,0-1.7,0-2.6,0.1
				c-1,0.1-2,0.2-3.1,0.3c-0.1,2.3-0.3,5-0.4,8.2c-0.2,3.2-0.4,6.5-0.6,10.1c2.3,0.5,4.3,0.8,6,0.8c2,0,3.7-0.4,4.9-1.2
				c1.3-0.8,2.3-1.7,3-2.9c0.7-1.1,1.2-2.4,1.4-3.7c0.2-1.3,0.3-2.5,0.3-3.5c0-2.7-0.7-4.7-2-6.2
				C209.4,356.1,207.1,355.4,203.8,355.4z"/>
			<path class="st7" d="M248.3,411c-3.6,0-6.2-0.7-7.8-2.1c-1.6-1.4-2.3-3.5-2.3-6.2c0-1.3,0.1-3.5,0.3-6.7
				c0.2-3.2,0.5-6.8,0.8-10.8c0.3-4,0.6-8.3,1-12.8c0.3-4.5,0.6-8.7,1-12.7c0.3-4,0.6-7.5,0.8-10.4c0.2-3,0.3-5,0.3-6.2
				c0-1,0.5-1.5,1.6-1.5h5.4c4,0,6.6,0.8,8,2.5c1.4,1.7,2.1,4.2,2.1,7.5c0,0.3,0,1.4-0.1,3.1c-0.1,1.8-0.2,4-0.4,6.6
				c-0.2,2.7-0.4,5.6-0.6,8.9c-0.2,3.3-0.5,6.7-0.7,10.1c-0.2,3.5-0.5,6.8-0.7,10.1c-0.2,3.3-0.4,6.3-0.6,8.9
				c-0.2,2.7-0.4,4.9-0.5,6.7c-0.1,1.8-0.2,2.9-0.3,3.3c-0.1,0.5-0.2,0.9-0.4,1.1c-0.2,0.2-0.6,0.3-1.2,0.3H248.3z"/>
			<path class="st7" d="M312.5,411c-2.7,0-4.7-0.4-6-1.2c-1.3-0.8-2.2-1.8-2.8-2.9c-3.4-7-6.6-13.6-9.5-20c-3-6.4-6-12.8-9-19.3
				c0.1,7,0.2,14,0.3,21c0.1,7,0.3,14,0.4,21c0,1-0.5,1.5-1.6,1.5h-5.4c-3.7,0-6.3-0.7-7.9-2.2c-1.5-1.5-2.3-3.6-2.3-6.5
				c0-0.8,0-2.1,0.1-4c0.1-1.9,0.2-4.1,0.4-6.6c0.2-2.5,0.4-5.3,0.6-8.3c0.2-3,0.5-6.1,0.7-9.2c0.4-4.9,0.7-9,1-12.3
				c0.3-3.3,0.5-6,0.6-8.3c0.2-2.2,0.3-4.2,0.3-5.8c0.1-1.6,0.1-3.2,0.2-4.7c0-1,0.5-1.5,1.6-1.5h7.8c2.1,0,3.9,0.2,5.3,0.7
				c1.4,0.5,2.5,1.2,3.4,2c0.9,0.8,1.6,1.8,2.1,2.9c0.5,1.1,1,2.2,1.5,3.4c1.6,4,2.9,7.5,4.1,10.4c1.2,2.9,2.3,5.5,3.2,7.7
				c0.9,2.2,1.7,4.1,2.4,5.8c0.7,1.6,1.3,3.1,1.9,4.5c0.6,1.4,1.2,2.7,1.8,4c0.6,1.3,1.2,2.7,1.9,4.1c0-3.8,0-7.8,0-11.9
				c0-4.1-0.1-8-0.1-11.9c0-3.9-0.1-7.6-0.1-11.2c0-3.6,0-6.8,0-9.7c0-0.6,0.6-0.9,1.7-0.9h5.4c2.1,0,3.9,0.2,5.1,0.6
				c1.3,0.4,2.3,1,3,1.9c0.7,0.8,1.2,1.8,1.4,3c0.2,1.2,0.3,2.5,0.3,4c0,1.6-0.1,4.1-0.3,7.5c-0.2,3.4-0.4,7.1-0.7,11.3
				c-0.3,4.2-0.6,8.5-0.9,12.9c-0.3,4.5-0.6,8.6-0.9,12.4c-0.3,3.8-0.6,7-0.8,9.6c-0.2,2.6-0.4,4.2-0.4,4.6c0,0.5-0.2,0.9-0.5,1.2
				c-0.4,0.3-0.8,0.4-1.2,0.4H312.5z"/>
			<path class="st7" d="M389.3,404.7c0,0.5-0.3,1.2-0.9,2c-0.6,0.8-1.5,1.6-2.5,2.4c-1.1,0.8-2.3,1.5-3.7,2.1
				c-1.4,0.6-2.9,0.9-4.4,0.9c-2.4,0-4.5-0.8-6.3-2.3c-1.8-1.5-3.5-3.6-4.9-6.3c-1.5-2.7-2.8-5.8-4.1-9.5c-1.2-3.7-2.5-7.7-3.8-12
				l-3.7,2.4l-1.9,25.2c-0.1,0.5-0.2,0.9-0.4,1.1c-0.2,0.2-0.6,0.3-1.2,0.3h-5.4c-3.7,0-6.3-0.7-7.9-2.2c-1.5-1.5-2.3-3.6-2.3-6.5
				c0-0.9,0-2.3,0.1-4.1c0.1-1.9,0.2-4,0.4-6.5c0.2-2.5,0.4-5.3,0.6-8.3c0.2-3,0.5-6.1,0.7-9.2c0.5-6.2,0.8-11.2,1.1-14.8
				c0.3-3.6,0.5-6.5,0.6-8.6c0.1-2.1,0.2-3.7,0.3-4.7c0.1-1,0.1-2,0.1-2.9c0-1,0.5-1.5,1.6-1.5h5.4c2.1,0,3.8,0.2,5,0.6
				c1.3,0.4,2.3,1,3,1.8c0.7,0.8,1.2,1.7,1.5,2.9c0.3,1.1,0.4,2.5,0.4,4c0,1.5-0.1,3.9-0.2,7.3c-0.2,3.4-0.4,7.1-0.7,11.3
				c2.2-2.7,4.9-6.1,8-10.2c3.1-4,6.8-9,11.3-14.9c0.2-0.3,0.5-0.6,0.8-1c0.4-0.4,0.7-0.8,1.2-1.2c0.4-0.4,0.9-0.7,1.4-1
				c0.5-0.3,1-0.4,1.4-0.4c0.8,0,1.8,0.4,2.9,1.3c1.1,0.9,2.1,2,3.1,3.2c1,1.3,1.8,2.6,2.5,3.9c0.7,1.3,1,2.5,1,3.4
				c0,1.9-1.7,4.7-5.1,8.4c-3.4,3.7-8.2,8.1-14.5,12.9c1.1,1.9,2.4,3.9,3.8,6.1c1.4,2.2,2.9,4.4,4.3,6.6c1.4,2.2,2.8,4.4,4.2,6.5
				c1.4,2.1,2.6,4,3.7,5.7c1.1,1.7,1.9,3,2.6,4.1C389,404,389.3,404.6,389.3,404.7z"/>
			<path class="st7" d="M406.9,411c-3.6,0-6.2-0.7-7.8-2.1c-1.6-1.4-2.3-3.5-2.3-6.2c0-1.3,0.1-3.5,0.3-6.7
				c0.2-3.2,0.5-6.8,0.8-10.8c0.3-4,0.6-8.3,1-12.8c0.3-4.5,0.6-8.7,1-12.7c0.3-4,0.6-7.5,0.8-10.4c0.2-3,0.3-5,0.3-6.2
				c0-1,0.5-1.5,1.6-1.5h5.4c3.6,0,6.2,0.7,7.6,2.1c1.4,1.4,2.1,3.5,2.1,6.2c0,0.3,0,0.6,0,0.9c0,0.3,0,0.6,0,0.9l-3.2,45.6h17.6
				c0.4,0,0.7,0.1,1.1,0.3c0.3,0.2,0.5,0.6,0.5,1l-0.4,5.8c-0.1,2-0.7,3.5-1.6,4.7c-0.9,1.2-2.9,1.8-5.8,1.8H406.9z"/>
			<path class="st7" d="M450.6,411c-3.6,0-6.2-0.7-7.8-2.1c-1.6-1.4-2.3-3.5-2.3-6.2c0-1.3,0.1-3.5,0.3-6.7
				c0.2-3.2,0.5-6.8,0.8-10.8c0.3-4,0.6-8.3,1-12.8c0.3-4.5,0.6-8.7,1-12.7c0.3-4,0.6-7.5,0.8-10.4c0.2-3,0.3-5,0.3-6.2
				c0-1,0.5-1.5,1.6-1.5h34.4c0.4,0,0.7,0.1,1.1,0.3c0.3,0.2,0.5,0.6,0.5,1.1l-0.4,5.8c-0.1,2-0.7,3.5-1.6,4.7
				c-0.9,1.2-2.9,1.8-5.8,1.8h-13.5l-1,13.8h13.9c0.4,0,0.7,0.1,1.1,0.3c0.3,0.2,0.5,0.6,0.5,1.1l-0.4,5.8c-0.1,2-0.7,3.5-1.6,4.7
				c-0.9,1.2-2.9,1.8-5.8,1.8h-8.5l-1.1,14.5h21.5c0.4,0,0.7,0.1,1.1,0.3c0.3,0.2,0.5,0.6,0.5,1l-0.4,5.8c-0.1,2-0.7,3.5-1.6,4.7
				c-0.9,1.2-2.9,1.8-5.8,1.8H450.6z"/>
			<path class="st7" d="M516.3,340.8c6.1,0,10.7,1.3,13.6,4c3,2.7,4.4,6.2,4.4,10.4c0,3.6-1,6.4-3,8.3c-2,1.9-4.9,2.9-8.7,2.9
				c-1.2,0-1.9-0.1-2.2-0.3c-0.3-0.2-0.5-0.7-0.5-1.4c0-0.7,0-1.5-0.1-2.5c-0.1-1-0.3-2-0.7-3c-0.4-1-1-1.8-1.9-2.5
				c-0.8-0.7-2-1-3.5-1c-2.1,0-3.9,0.6-5.6,1.9c-1.6,1.3-2.4,2.9-2.4,4.9c0,1.8,0.7,3.2,2,4.3c1.3,1.1,3,2.1,5,3.1
				c2,0.9,4.2,1.9,6.6,2.9c2.4,1,4.6,2.3,6.6,3.9c2,1.6,3.7,3.6,5,6c1.3,2.4,2,5.4,2,9c0,2.9-0.5,5.6-1.4,8.1
				c-0.9,2.5-2.3,4.7-4.2,6.5c-1.9,1.9-4.2,3.3-7,4.3c-2.8,1-6.1,1.6-9.9,1.6c-3.3,0-6.3-0.4-9-1.1c-2.8-0.7-5.2-1.6-7.2-2.7
				c-2-1.1-3.7-2.2-4.8-3.5c-1.2-1.3-1.8-2.4-1.8-3.5c0-4.3,0.2-7.4,0.7-9.3c0.5-1.9,1.4-2.8,2.7-2.8c0.9,0,1.9,0.4,2.9,1.2
				c1,0.8,2.2,1.7,3.5,2.6c1.3,1,2.8,1.9,4.5,2.6c1.7,0.8,3.7,1.2,6,1.2c0.9,0,1.8-0.1,2.7-0.2c0.9-0.2,1.7-0.4,2.3-0.8
				c0.7-0.4,1.2-0.9,1.7-1.6c0.4-0.6,0.6-1.4,0.6-2.3c0-1.6-0.6-2.9-1.9-3.9c-1.2-1-2.8-1.9-4.7-2.7c-1.9-0.8-3.9-1.7-6.1-2.5
				c-2.2-0.9-4.2-2.1-6.1-3.6c-1.9-1.5-3.5-3.5-4.7-5.9c-1.2-2.4-1.9-5.5-1.9-9.3c0-4.2,0.8-7.8,2.4-10.7c1.6-2.9,3.6-5.3,6.2-7.2
				c2.5-1.9,5.3-3.2,8.5-4C510,341.2,513.1,340.8,516.3,340.8z"/>
		</g>
	</g>
	<g>
		<g>
			<g>
				<path class="st1" d="M223.2,447.7c-2.1,0-3.8-0.6-5.1-1.8c-0.9-0.9-2-2.4-2-5.1c0-0.3,0-0.6,0-1c0-0.3,0.1-0.7,0.1-1.2l0.1-1.2
					c-0.3-0.3-0.6-0.7-0.8-1.2c-0.2-0.6-0.4-1.2-0.4-1.8c0-0.1,0-0.2,0-0.2l0.1-1.1c0-0.4,0.1-0.8,0.1-1.1c0.2-0.8,0.5-1.5,0.9-2.1
					c0.4-0.5,0.8-0.9,1.4-1.2c0-0.1,0.1-0.1,0.1-0.2c0.2-0.5,0.4-0.9,0.6-1.3c1.2-2.2,3.1-2.5,3.9-2.5h0.6c2,0,3.7,0.9,4.7,2.5
					c0.2,0.3,0.3,0.6,0.4,0.9c1.8,0.5,3,2.2,3,4.1c0,0.1,0,0.2,0,0.3l-0.1,1.2c-0.1,1.2-0.5,2.3-1.2,3.2c-0.2,0.3-0.5,0.6-0.9,0.9
					c0.1,0.1,0.2,0.2,0.3,0.3c0.8,1.1,0.9,2.4,0.9,3.2c0,2.3-0.9,3.8-1.7,4.6C227.1,447.1,225.4,447.7,223.2,447.7z"/>
			</g>
			<g>
				<path class="st1" d="M237.4,447.5c-0.9,0-1.6-0.1-2.3-0.3c-0.5-0.1-0.9-0.3-1.3-0.6c-0.6,0.4-1.5,0.9-2.8,0.9h-0.8
					c-0.9,0-1.7-0.1-2.3-0.3c-0.9-0.3-1.7-0.8-2.3-1.4c-0.6-0.7-1.1-1.5-1.3-2.4c-0.1-0.6-0.2-1.2-0.2-1.9c0-0.4,0-1,0.1-1.7
					l0.2-2.3c0.1-1,0.2-2.2,0.3-3.7c0.1-1.5,0.2-3.4,0.4-5.6c0-0.5,0.1-2,1.3-3.2c0.8-0.8,1.9-1.3,3.2-1.3h0.8
					c0.9,0,1.7,0.1,2.4,0.4c0.9,0.3,1.6,0.8,2.2,1.4c0.6,0.6,1.1,1.3,1.3,2.1c0.8,0,1.5,0.1,2.1,0.3c1.1,0.3,2.1,0.9,2.9,1.7
					c0.7,0.8,1.3,1.7,1.6,2.9c0.3,0.9,0.4,1.8,0.4,2.9c0,0.3,0,0.8-0.1,1.5c0,0.6-0.1,1.2-0.2,2c-0.1,0.7-0.1,1.4-0.2,2.2
					c-0.1,0.8-0.1,1.4-0.2,2.1c0,0.4-0.1,0.6-0.1,0.7c-0.1,0.8-0.5,1.5-1,2.1c-0.6,0.7-1.5,1.3-2.5,1.5c-0.3,0.1-0.6,0.1-1,0.1
					H237.4z"/>
			</g>
			<g>
				<path class="st1" d="M246.1,447.7c-1,0-1.9-0.1-2.9-0.4c-1.2-0.3-2.2-0.8-3.2-1.5c-1-0.8-1.8-1.7-2.3-2.9
					c-0.6-1.2-0.9-2.6-0.9-4.2c0-0.5,0-1.1,0.1-1.7c0.1-0.7,0.2-1.5,0.5-2.3c0.2-0.8,0.6-1.6,1-2.3c0.5-0.9,1.2-1.7,2-2.4
					c0.8-0.7,1.8-1.3,2.9-1.7c1.1-0.4,2.4-0.6,3.8-0.6c1.2,0,2.2,0.2,3.1,0.5c1.1,0.4,2,0.9,2.7,1.6c0.8,0.7,1.4,1.6,1.7,2.6
					c0.3,0.8,0.5,1.7,0.5,2.6c0,1.4-0.3,2.6-0.9,3.7c-0.1,0.3-0.3,0.5-0.5,0.7c0.3,0.7,0.5,1.4,0.5,2.2c0,1.4-0.5,2.6-1.3,3.7
					c-0.6,0.7-1.4,1.3-2.4,1.8c-0.7,0.3-1.5,0.6-2.4,0.7C247.5,447.7,246.8,447.7,246.1,447.7z"/>
			</g>
			<g>
				<path class="st1" d="M262,447.7c-1.7,0-3.2-0.3-4.4-0.9c-1.3-0.6-2.3-1.5-3-2.5c-0.7-1-1.1-2.1-1.3-3.2
					c-0.1-0.8-0.2-1.5-0.2-2.2c0-0.2,0-0.7,0.1-1.4c0-0.6,0.1-1.2,0.1-1.9c0.1-0.7,0.3-3.8,0.3-4.6c0.1-0.7,0.1-1.3,0.1-1.9
					c0-0.4,0-0.7,0-0.9c0-0.6,0-2,1-3.2c0.6-0.7,1.7-1.5,3.4-1.5h0.8c0.9,0,1.7,0.1,2.4,0.4c0.9,0.3,1.6,0.8,2.2,1.4
					c0.6,0.6,1.1,1.3,1.3,2.1c2.7,0.2,4.3,1.6,5.3,2.7c1.3,1.6,1.9,3.7,1.9,6.3c0,0.6,0,1.3-0.1,1.9c-0.1,0.8-0.3,1.5-0.5,2.3
					c-0.3,0.8-0.6,1.6-1.1,2.4c-0.5,0.9-1.3,1.7-2.1,2.4c-0.8,0.6-1.8,1.2-2.9,1.5C264.6,447.5,263.3,447.7,262,447.7z"/>
			</g>
			<g>
				<path class="st1" d="M274.9,447.7c-1,0-1.9-0.1-2.9-0.4c-1.2-0.3-2.2-0.8-3.2-1.5c-1-0.8-1.8-1.7-2.3-2.9
					c-0.6-1.2-0.9-2.6-0.9-4.2c0-0.5,0-1.1,0.1-1.7c0.1-0.7,0.2-1.5,0.5-2.3c0.2-0.8,0.6-1.6,1-2.3c0.5-0.9,1.2-1.7,2-2.4
					c0.8-0.7,1.8-1.3,2.9-1.7c1.1-0.4,2.4-0.6,3.8-0.6c1.2,0,2.2,0.2,3.1,0.5c1.1,0.4,2,0.9,2.7,1.6c0.8,0.7,1.4,1.6,1.7,2.6
					c0.3,0.8,0.5,1.7,0.5,2.6c0,1.4-0.3,2.6-0.9,3.7c-0.1,0.3-0.3,0.5-0.5,0.7c0.3,0.7,0.5,1.4,0.5,2.2c0,1.4-0.5,2.6-1.3,3.7
					c-0.6,0.7-1.4,1.3-2.4,1.8c-0.7,0.3-1.5,0.6-2.4,0.7C276.3,447.7,275.6,447.7,274.9,447.7z"/>
			</g>
			<g>
				<path class="st1" d="M285.1,447.7c-0.6,0-1.2,0-1.9-0.1c-0.7-0.1-1.4-0.2-2.1-0.4c-0.9-0.3-1.7-0.6-2.4-1.1
					c-1.4-1-2.2-2.5-2.2-4.1c0-0.5,0.1-1,0.2-1.5c0.2-0.6,0.4-1.1,0.7-1.6c0.1-0.2,0.2-0.3,0.3-0.5c-0.3-0.8-0.5-1.8-0.5-2.8
					c0-1.4,0.3-2.7,1-3.9c0.6-1,1.4-1.9,2.4-2.5c0.9-0.6,1.8-1,2.9-1.3c0.9-0.2,1.8-0.3,2.7-0.3c2.2,0,3.9,0.6,5.2,1.7
					c1.5,1.2,2.3,3,2.3,4.9c0,1.2-0.3,2.3-0.9,3.2c0.4,0.9,0.6,1.9,0.6,3c0,2.2-0.8,4.1-2.4,5.5C289.6,447,287.6,447.7,285.1,447.7z
					"/>
			</g>
			<g>
				<path class="st1" d="M294.9,447.7c-2.1,0-3.8-0.6-5.1-1.8c-0.9-0.9-2-2.4-2-5.1c0-0.3,0-0.6,0-1c0-0.3,0.1-0.7,0.1-1.2l0.1-1.2
					c-0.3-0.3-0.6-0.7-0.8-1.2c-0.2-0.6-0.4-1.2-0.4-1.8c0-0.1,0-0.2,0-0.2l0.1-1.1c0-0.4,0.1-0.8,0.1-1.1c0.2-0.8,0.5-1.5,0.9-2.1
					c0.4-0.5,0.8-0.9,1.4-1.2c0-0.1,0.1-0.1,0.1-0.2c0.2-0.5,0.4-0.9,0.6-1.3c1.2-2.2,3.1-2.5,3.9-2.5h0.6c2,0,3.7,0.9,4.7,2.5
					c0.2,0.3,0.3,0.6,0.4,0.9c1.8,0.5,3,2.2,3,4.1c0,0.1,0,0.2,0,0.3l-0.1,1.2c-0.1,1.2-0.5,2.3-1.2,3.2c-0.2,0.3-0.5,0.6-0.9,0.9
					c0.1,0.1,0.2,0.2,0.3,0.3c0.8,1.1,0.9,2.4,0.9,3.2c0,2.3-0.9,3.8-1.7,4.6C298.8,447.1,297.1,447.7,294.9,447.7z"/>
			</g>
			<g>
				<path class="st1" d="M306.6,447.5c-0.9,0-1.7-0.1-2.3-0.3c-0.9-0.3-1.7-0.8-2.3-1.4c-0.6-0.7-1.1-1.5-1.3-2.4
					c-0.1-0.6-0.2-1.2-0.2-1.9c0-0.3,0-0.6,0-1.1c0-0.4,0.1-1,0.1-1.7c0.1-0.7,0.1-1.5,0.2-2.6l0.3-3.9c0-0.2,0-0.7,0.2-1.3
					c-0.1-0.5-0.2-1-0.2-1.5c0-1.8,0.8-3.4,2.1-4.5c0.8-0.6,2.1-1.4,4.2-1.4c1.6,0,3,0.5,4,1.4c1.1,1,1.8,2.4,1.8,4
					c0,1.1-0.3,2.1-0.8,3c0,0,0,0.1,0,0.1c0.2,0.6,0.2,1.2,0.2,1.8c0,0.3,0,0.7-0.1,1.2l-0.1,1.7c-0.1,0.7-0.1,1.7-0.2,2.8
					c-0.1,1.1-0.2,2.4-0.3,4c-0.1,1.4-0.8,2.3-1.3,2.9c-0.6,0.6-1.6,1.2-3.2,1.2H306.6z"/>
			</g>
			<g>
				<path class="st1" d="M315,447.7c-0.9,0-1.8-0.1-2.8-0.4c-1.1-0.3-2.2-0.9-3.1-1.7c-0.9-0.8-1.7-1.8-2.2-3.1
					c-0.5-1.2-0.8-2.6-0.8-4.2c0-0.5,0-1.1,0.1-1.7c0.1-0.7,0.2-1.5,0.5-2.2c0.2-0.7,0.5-1.5,0.9-2.2c0.5-0.9,1.1-1.7,2-2.4
					c0.8-0.7,1.7-1.3,2.8-1.7c1.1-0.4,2.3-0.6,3.6-0.6c1.1,0,2.1,0.1,3,0.4c1,0.3,1.9,0.8,2.6,1.4c0.8,0.7,1.4,1.5,1.8,2.4
					c0.4,0.9,0.6,1.8,0.6,2.8c0,1.5-0.4,2.8-1.3,3.9c0.2,0.6,0.4,1.2,0.4,1.9c0,0.4-0.1,0.8-0.2,1.3c-0.1,0.3-0.2,0.7-0.3,1
					c-0.1,0.3-0.2,0.6-0.3,0.8c-0.2,0.5-0.5,0.9-0.8,1.3c-0.1,0.1-0.2,0.2-0.2,0.3c-0.1,0.1-0.3,0.3-0.6,0.5c-0.4,0.4-0.9,0.7-1.5,1
					c-0.5,0.3-1.1,0.5-1.8,0.7C316.7,447.6,315.9,447.7,315,447.7z"/>
			</g>
			<g>
				<path class="st1" d="M326.2,447.7c-1,0-1.9-0.1-2.9-0.4c-1.2-0.3-2.2-0.8-3.2-1.5c-1-0.8-1.8-1.7-2.3-2.9
					c-0.6-1.2-0.9-2.6-0.9-4.2c0-0.5,0-1.1,0.1-1.7c0.1-0.7,0.2-1.5,0.5-2.3c0.2-0.8,0.6-1.6,1-2.3c0.5-0.9,1.2-1.7,2-2.4
					c0.8-0.7,1.8-1.3,2.9-1.7c1.1-0.4,2.4-0.6,3.8-0.6c1.2,0,2.2,0.2,3.1,0.5c1.1,0.4,2,0.9,2.7,1.6c0.8,0.7,1.4,1.6,1.7,2.6
					c0.3,0.8,0.5,1.7,0.5,2.6c0,1.4-0.3,2.6-0.9,3.7c-0.1,0.3-0.3,0.5-0.5,0.7c0.3,0.7,0.5,1.4,0.5,2.2c0,1.4-0.5,2.6-1.3,3.7
					c-0.6,0.7-1.4,1.3-2.4,1.8c-0.7,0.3-1.5,0.6-2.4,0.7C327.6,447.7,326.9,447.7,326.2,447.7z"/>
			</g>
			<g>
				<path class="st1" d="M341.8,447.7c-0.9,0-1.8-0.1-2.8-0.4c-1.1-0.3-2.2-0.9-3.1-1.7c-0.9-0.8-1.7-1.8-2.2-3.1
					c-0.5-1.2-0.8-2.6-0.8-4.2c0-0.5,0-1.1,0.1-1.7c0.1-0.7,0.2-1.5,0.5-2.2c0.2-0.7,0.5-1.5,0.9-2.2c0.5-0.9,1.1-1.7,2-2.4
					c0.8-0.7,1.7-1.3,2.8-1.7c1.1-0.4,2.3-0.6,3.6-0.6c1.1,0,2.1,0.1,3,0.4c1,0.3,1.9,0.8,2.6,1.4c0.8,0.7,1.4,1.5,1.8,2.4
					c0.4,0.9,0.6,1.8,0.6,2.8c0,1.5-0.4,2.8-1.3,3.9c0.2,0.6,0.4,1.2,0.4,1.9c0,0.4-0.1,0.8-0.2,1.3c-0.1,0.3-0.2,0.7-0.3,1
					c-0.1,0.3-0.2,0.6-0.3,0.8c-0.2,0.5-0.5,0.9-0.8,1.3c-0.1,0.1-0.2,0.2-0.2,0.3c-0.1,0.1-0.3,0.3-0.6,0.5c-0.4,0.4-0.9,0.7-1.5,1
					c-0.5,0.3-1.1,0.5-1.8,0.7C343.5,447.6,342.7,447.7,341.8,447.7z"/>
			</g>
			<g>
				<path class="st1" d="M350.2,447.5c-0.9,0-1.7-0.1-2.3-0.3c-0.9-0.3-1.7-0.8-2.3-1.4c-0.6-0.7-1.1-1.5-1.3-2.4
					c-0.1-0.6-0.2-1.2-0.2-1.9c0-0.3,0-0.6,0-1.1c0-0.4,0.1-1,0.1-1.7c0.1-0.7,0.1-1.5,0.2-2.6l0.3-3.9c0.2-2.8,2.4-4.3,4.4-4.3h0.8
					c0.8,0,1.5,0.1,2.2,0.3c0,0,0.1,0,0.1,0c0.4-0.2,0.7-0.3,1.1-0.4c0.6-0.1,1.1-0.2,1.7-0.2c0.7,0,1.5,0.1,2.2,0.4
					c0.8,0.3,1.4,0.7,2,1.2c0.7,0.6,1.2,1.3,1.6,2.2c0.4,0.8,0.5,1.7,0.5,2.7c0,0.8-0.1,1.6-0.4,2.4c-0.3,0.8-0.7,1.5-1.2,2.2
					c-0.6,0.7-1.3,1.3-2.1,1.7c-0.6,0.3-1.3,0.5-2.1,0.6c0,0-0.1,1.3-0.1,1.7c0,0.3,0,0.5,0,0.6c0,1.4-0.7,2.7-1.8,3.6
					c-0.7,0.5-1.7,0.8-2.6,0.8H350.2z"/>
			</g>
			<g>
				<path class="st1" d="M363.2,447.7c-1,0-1.9-0.1-2.9-0.4c-1.2-0.3-2.2-0.8-3.2-1.5c-1-0.8-1.8-1.7-2.3-2.9
					c-0.6-1.2-0.9-2.6-0.9-4.2c0-0.5,0-1.1,0.1-1.7c0.1-0.7,0.2-1.5,0.5-2.3c0.2-0.8,0.6-1.6,1-2.3c0.5-0.9,1.2-1.7,2-2.4
					c0.8-0.7,1.8-1.3,2.9-1.7c1.1-0.4,2.4-0.6,3.8-0.6c1.2,0,2.2,0.2,3.1,0.5c1.1,0.4,2,0.9,2.7,1.6c0.8,0.7,1.4,1.6,1.7,2.6
					c0.3,0.8,0.5,1.7,0.5,2.6c0,1.4-0.3,2.6-0.9,3.7c-0.1,0.3-0.3,0.5-0.5,0.7c0.3,0.7,0.5,1.4,0.5,2.2c0,1.4-0.5,2.6-1.3,3.7
					c-0.6,0.7-1.4,1.3-2.4,1.8c-0.7,0.3-1.5,0.6-2.4,0.7C364.6,447.7,363.9,447.7,363.2,447.7z"/>
			</g>
			<g>
				<path class="st1" d="M377.8,447.7c-1.1,0-2-0.2-2.7-0.5c-0.9,0.4-1.9,0.5-3,0.5c-0.8,0-1.5-0.1-2.2-0.3
					c-0.9-0.2-1.8-0.7-2.5-1.3c-0.8-0.6-1.4-1.4-1.8-2.3c-0.4-0.9-0.6-1.9-0.6-3c0-1.6,0.5-3.1,1.3-4.3c-0.2-0.6-0.3-1.2-0.3-1.8
					c0-1.1,0.3-2.1,0.8-3.1c0.5-1,1.2-1.8,2.1-2.4c0.8-0.6,1.7-1,2.8-1.3c1-0.3,2-0.4,3.2-0.4c2.6,0,4.7,0.7,6.2,2
					c1.1,1,2.4,2.8,2.4,5.7c0,0.2,0,0.6-0.1,1.2c0,0.4-0.1,0.9-0.1,1.4c0,0.1,0,0.1,0,0.2c0.7,0.8,1.1,1.8,1.1,2.9
					c0,0.7-0.1,1.3-0.3,2c-0.2,0.8-0.6,1.5-1,2.2c-0.6,0.8-1.3,1.4-2.2,1.9C379.9,447.5,378.9,447.7,377.8,447.7z"/>
			</g>
			<g>
				<path class="st1" d="M397.2,447.5c-0.9,0-1.6-0.1-2.3-0.3c-0.4-0.1-0.8-0.3-1.1-0.4c-0.5,0.3-1,0.5-1.6,0.7
					c-0.3,0.1-0.6,0.1-1,0.1h-0.7c-0.9,0-1.6-0.1-2.3-0.3c-0.4-0.1-0.7-0.3-1.1-0.4c-0.6,0.4-1.4,0.7-2.6,0.7h-0.8
					c-0.9,0-1.7-0.1-2.3-0.3c-0.9-0.3-1.7-0.8-2.3-1.4c-0.6-0.7-1.1-1.5-1.3-2.4c-0.1-0.6-0.2-1.2-0.2-1.9c0-0.3,0-0.6,0-1.1
					c0-0.4,0.1-1,0.1-1.7c0.1-0.7,0.1-1.5,0.2-2.6l0.3-3.9c0-0.4,0.1-1.9,1.3-3.1c0.9-0.9,1.9-1.3,3.2-1.3h0.8
					c0.9,0,1.6,0.1,2.4,0.4c1-0.4,2-0.6,3.1-0.6c0.6,0,1.3,0.1,1.9,0.2c0.5,0.1,1,0.3,1.5,0.5c1-0.4,2.1-0.7,3.3-0.7
					c0.7,0,1.5,0.1,2.2,0.2c1,0.2,1.8,0.6,2.6,1.2c0.8,0.6,1.5,1.5,1.9,2.5c0.4,0.9,0.6,2,0.6,3.1c0,0.5,0,1.1-0.1,1.9
					c0,0.6-0.1,1.4-0.2,2.1c-0.1,0.8-0.1,1.6-0.2,2.4c-0.1,0.7-0.1,1.5-0.2,2.1c0,0.4-0.1,0.6-0.1,0.8c-0.1,0.8-0.4,1.5-0.9,2.1
					c-0.7,0.8-1.6,1.3-2.5,1.5c-0.3,0.1-0.6,0.1-1,0.1H397.2z"/>
			</g>
			<g>
				<path class="st1" d="M407.7,447.5c-0.9,0-1.7-0.1-2.3-0.3c-0.9-0.3-1.7-0.8-2.3-1.4c-0.6-0.7-1.1-1.5-1.3-2.4
					c-0.1-0.6-0.2-1.2-0.2-1.9c0-0.3,0-0.6,0-1.1c0-0.4,0.1-1,0.1-1.7c0.1-0.7,0.1-1.5,0.2-2.6l0.3-3.9c0-0.2,0-0.7,0.2-1.3
					c-0.1-0.5-0.2-1-0.2-1.5c0-1.8,0.8-3.4,2.1-4.5c0.8-0.6,2.1-1.4,4.2-1.4c1.6,0,3,0.5,4,1.4c1.1,1,1.8,2.4,1.8,4
					c0,1.1-0.3,2.1-0.8,3c0,0,0,0.1,0,0.1c0.2,0.6,0.2,1.2,0.2,1.8c0,0.3,0,0.7-0.1,1.2l-0.1,1.7c-0.1,0.7-0.1,1.7-0.2,2.8
					c-0.1,1.1-0.2,2.4-0.3,4c-0.1,1.4-0.8,2.3-1.3,2.9c-0.6,0.6-1.6,1.2-3.2,1.2H407.7z"/>
			</g>
			<g>
				<path class="st1" d="M421,447.5c-0.9,0-1.6-0.1-2.3-0.3c-0.5-0.2-1-0.4-1.4-0.6c-0.6,0.5-1.5,0.9-2.8,0.9h-0.8
					c-0.9,0-1.7-0.1-2.3-0.3c-0.9-0.3-1.7-0.8-2.3-1.4c-0.6-0.7-1.1-1.5-1.3-2.4c-0.1-0.6-0.2-1.2-0.2-1.9c0-0.3,0-0.6,0-1.1
					c0-0.4,0.1-1,0.1-1.7c0.1-0.7,0.1-1.5,0.2-2.6l0.3-3.9c0-0.4,0.1-1.9,1.3-3.1c0.9-0.9,1.9-1.3,3.2-1.3h0.8
					c0.9,0,1.7,0.1,2.4,0.4c0,0,0,0,0.1,0c1-0.4,2.1-0.6,3.4-0.6c1,0,1.9,0.1,2.7,0.4c1.1,0.3,2.1,0.9,2.9,1.7
					c0.7,0.8,1.3,1.7,1.6,2.8c0.3,0.9,0.4,1.8,0.4,2.9c0,0.3,0,0.7-0.1,1.2c0,0.5-0.1,0.9-0.1,1.5c0,0-0.4,4-0.4,4.3
					c0,0.2,0,0.3,0,0.4c0,1.4-0.5,2.6-1.4,3.5c-0.8,0.7-1.9,1.1-3.2,1.1H421z"/>
			</g>
			<g>
				<path class="st1" d="M432.9,447.7c-2.1,0-3.8-0.6-5.1-1.8c-0.9-0.9-2-2.4-2-5.1c0-0.3,0-0.6,0-1c0-0.3,0.1-0.7,0.1-1.2l0.1-1.2
					c-0.3-0.3-0.6-0.7-0.8-1.2c-0.2-0.6-0.4-1.2-0.4-1.8c0-0.1,0-0.2,0-0.2l0.1-1.1c0-0.4,0.1-0.8,0.1-1.1c0.2-0.8,0.5-1.5,0.9-2.1
					c0.4-0.5,0.8-0.9,1.4-1.2c0-0.1,0.1-0.1,0.1-0.2c0.2-0.5,0.4-0.9,0.6-1.3c1.2-2.2,3.1-2.5,3.9-2.5h0.6c2,0,3.7,0.9,4.7,2.5
					c0.2,0.3,0.3,0.6,0.4,0.9c1.8,0.5,3,2.2,3,4.1c0,0.1,0,0.2,0,0.3l-0.1,1.2c-0.1,1.2-0.5,2.3-1.2,3.2c-0.2,0.3-0.5,0.6-0.9,0.9
					c0.1,0.1,0.2,0.2,0.3,0.3c0.8,1.1,0.9,2.4,0.9,3.2c0,2.3-0.9,3.8-1.7,4.6C436.8,447.1,435.1,447.7,432.9,447.7z"/>
			</g>
			<g>
				<path class="st1" d="M447.1,447.5c-0.9,0-1.6-0.1-2.3-0.3c-0.5-0.1-0.9-0.3-1.3-0.6c-0.6,0.4-1.5,0.9-2.8,0.9H440
					c-0.9,0-1.7-0.1-2.3-0.3c-0.9-0.3-1.7-0.8-2.3-1.4c-0.6-0.7-1.1-1.5-1.3-2.4c-0.1-0.6-0.2-1.2-0.2-1.9c0-0.4,0-1,0.1-1.7
					l0.2-2.3c0.1-1,0.2-2.2,0.3-3.7c0.1-1.5,0.2-3.4,0.4-5.6c0-0.5,0.1-2,1.3-3.2c0.8-0.8,1.9-1.3,3.2-1.3h0.8
					c0.9,0,1.7,0.1,2.4,0.4c0.9,0.3,1.6,0.8,2.2,1.4c0.6,0.6,1.1,1.3,1.3,2.1c0.8,0,1.5,0.1,2.1,0.3c1.1,0.3,2.1,0.9,2.9,1.7
					c0.7,0.8,1.3,1.7,1.6,2.9c0.3,0.9,0.4,1.8,0.4,2.9c0,0.3,0,0.8-0.1,1.5c0,0.6-0.1,1.2-0.2,2c-0.1,0.7-0.1,1.4-0.2,2.2
					c-0.1,0.8-0.1,1.4-0.2,2.1c0,0.4-0.1,0.6-0.1,0.7c-0.1,0.8-0.5,1.5-1,2.1c-0.6,0.7-1.5,1.3-2.5,1.5c-0.3,0.1-0.6,0.1-1,0.1
					H447.1z"/>
			</g>
			<g>
				<path class="st1" d="M455.7,447.7c-1,0-1.9-0.1-2.9-0.4c-1.2-0.3-2.2-0.8-3.2-1.5c-1-0.8-1.8-1.7-2.3-2.9
					c-0.6-1.2-0.9-2.6-0.9-4.2c0-0.5,0-1.1,0.1-1.7c0.1-0.7,0.2-1.5,0.5-2.3c0.2-0.8,0.6-1.6,1-2.3c0.5-0.9,1.2-1.7,2-2.4
					c0.8-0.7,1.8-1.3,2.9-1.7c1.1-0.4,2.4-0.6,3.8-0.6c1.2,0,2.2,0.2,3.1,0.5c1.1,0.4,2,0.9,2.7,1.6c0.8,0.7,1.4,1.6,1.7,2.6
					c0.3,0.8,0.5,1.7,0.5,2.6c0,1.4-0.3,2.6-0.9,3.7c-0.1,0.3-0.3,0.5-0.5,0.7c0.3,0.7,0.5,1.4,0.5,2.2c0,1.4-0.5,2.6-1.3,3.7
					c-0.6,0.7-1.4,1.3-2.4,1.8c-0.7,0.3-1.5,0.6-2.4,0.7C457.1,447.7,456.4,447.7,455.7,447.7z"/>
			</g>
			<g>
				<path class="st1" d="M477.4,447.5c-0.9,0-1.7-0.1-2.4-0.4c-0.2-0.1-0.3-0.1-0.5-0.2c-0.3,0.2-0.5,0.3-0.8,0.4
					c-0.5,0.2-1.1,0.3-1.7,0.3h-1.5c-0.9,0-1.7-0.2-2.5-0.5c-0.7-0.3-1.3-0.7-1.8-1.1c-0.5-0.5-1-1-1.3-1.7
					c-0.3-0.5-0.5-1.1-0.7-1.7c-0.8-3-1.4-5.3-1.7-6.8c-0.7-2.6-0.7-2.9-0.7-3.5c0-1.4,0.6-2.7,1.7-3.5c0.8-0.6,1.9-1,2.9-1
					c0.8,0,1.4,0,2,0.1c0.8,0.1,1.5,0.3,2.2,0.5c0.7-0.4,1.7-0.6,2.8-0.6c0.5,0,1.1,0,1.5,0.1c0.7,0.1,1.4,0.2,2.1,0.4
					c0.2,0.1,0.3,0.1,0.4,0.2c1.1-0.6,2.2-0.6,2.7-0.6c0.2,0,0.6,0,1,0c0.6,0,1.2,0.1,1.8,0.3c0.8,0.2,1.6,0.6,2.2,1.1
					c1.2,0.9,1.9,2.4,1.9,3.9c0,0.6-0.1,1.3-0.3,2.1c-0.1,0.5-0.3,1.1-0.6,1.7c-0.2,0.6-0.5,1.3-0.7,2c-0.3,0.7-0.5,1.4-0.8,2
					c0,0-1.4,3.4-1.4,3.5c-0.4,0.9-0.9,1.5-1.5,2c-0.8,0.7-1.9,1-3.1,1H477.4z"/>
			</g>
			<g>
				<path class="st1" d="M488.9,447.7c-1.5,0-2.9-0.2-4-0.7c-1.3-0.5-2.3-1.3-3.1-2.3c-0.7-0.9-1.3-2-1.6-3.2c-0.2-0.9-0.3-2-0.3-3
					c0-1.2,0.1-2.4,0.4-3.5c0.3-1.4,0.9-2.6,1.8-3.7c0.9-1.1,2-2,3.4-2.7c1.4-0.7,3-1,4.8-1c3,0,5.3,0.9,6.9,2.7
					c1.4,1.6,2.2,3.8,2.2,6.3c0,0.6,0,1.3-0.1,1.9c-0.1,0.8-0.3,1.6-0.5,2.4c-0.3,0.8-0.6,1.6-1.1,2.4c-0.5,0.9-1.2,1.7-2,2.3
					c-0.8,0.7-1.8,1.2-2.9,1.6C491.4,447.5,490.2,447.7,488.9,447.7z"/>
			</g>
			<g>
				<path class="st1" d="M499.1,447.5c-0.9,0-1.7-0.1-2.3-0.3c-0.9-0.3-1.7-0.8-2.3-1.4c-0.6-0.7-1.1-1.5-1.3-2.4
					c-0.1-0.6-0.2-1.2-0.2-1.9c0-0.3,0-0.6,0-1.1c0-0.4,0.1-1,0.1-1.7c0.1-0.7,0.1-1.5,0.2-2.6l0.3-3.9c0.2-2.8,2.4-4.3,4.4-4.3h0.8
					c0.8,0,1.5,0.1,2.2,0.3c0,0,0.1,0,0.1,0c0.4-0.2,0.7-0.3,1.1-0.4c0.6-0.1,1.1-0.2,1.7-0.2c0.7,0,1.5,0.1,2.2,0.4
					c0.8,0.3,1.4,0.7,2,1.2c0.7,0.6,1.2,1.3,1.6,2.2c0.4,0.8,0.5,1.7,0.5,2.7c0,0.8-0.1,1.6-0.4,2.4c-0.3,0.8-0.7,1.5-1.2,2.2
					c-0.6,0.7-1.3,1.3-2.1,1.7c-0.6,0.3-1.3,0.5-2.1,0.6c0,0-0.1,1.3-0.1,1.7c0,0.3,0,0.5,0,0.6c0,1.4-0.7,2.7-1.8,3.6
					c-0.7,0.5-1.7,0.8-2.6,0.8H499.1z"/>
			</g>
			<g>
				<path class="st1" d="M509.6,447.7c-2.7,0-4.2-1.2-5-2.2c-1-1.2-1.5-2.8-1.5-4.9c0-0.3,0-0.6,0-1c0,0,0.2-1.9,0.2-2.6
					c0.1-0.6,0.1-1.3,0.2-2.1c0.1-0.8,0.1-1.8,0.2-3c0.1-1.1,0.2-2.5,0.2-4c0-0.5,0.1-2,1.3-3.2c0.5-0.6,1.6-1.2,3.2-1.2h0.8
					c0.9,0,1.7,0.1,2.4,0.4c0.9,0.3,1.6,0.8,2.2,1.4c0.6,0.6,1.1,1.3,1.3,2.2c0.2,0.6,0.3,1.3,0.3,1.9c0,0.3,0,0.8-0.1,1.5
					c0,0.6-0.1,1.2-0.1,1.9c-0.1,0.7-0.4,5-0.4,5.3c0.7,0.8,1.2,1.8,1.2,2.9c0,0.6-0.1,1.2-0.2,1.8c-0.2,0.9-0.6,1.6-1.1,2.3
					c-0.6,0.8-1.4,1.4-2.3,1.8C511.6,447.5,510.7,447.7,509.6,447.7z"/>
			</g>
			<g>
				<path class="st1" d="M517.4,447.7c-1.1,0-2.1-0.2-3.1-0.6c-1.1-0.4-2.1-1.1-2.9-2c-0.7-0.8-1.3-1.8-1.7-3
					c-0.4-1.1-0.5-2.3-0.5-3.7c0-0.6,0-1.2,0.1-1.8c0.1-0.7,0.2-1.4,0.4-2.2c0.2-0.8,0.5-1.6,0.9-2.3c0.5-0.9,1-1.6,1.7-2.3
					c0.7-0.7,1.6-1.3,2.6-1.7c0.7-0.3,1.5-0.5,2.4-0.6c0.1-0.7,0.3-1.7,1.2-2.6c0.6-0.6,1.4-1,2.2-1.2c0.3,0,0.5-0.1,1-0.1h0.8
					c0.9,0,1.7,0.1,2.4,0.4c0.9,0.3,1.6,0.8,2.2,1.4c0.6,0.6,1.1,1.4,1.3,2.2c0.2,0.6,0.3,1.3,0.3,1.9c0,0.1,0,0.2,0,0.3
					c-0.1,0.7-0.6,8.7-0.6,8.7c-0.1,0.8-0.1,1.6-0.2,2.2c-0.1,0.6-0.2,2.5-0.2,2.7c0,0.1,0,0.2,0,0.3c-0.1,0.8-0.4,1.5-0.9,2.1
					c-0.4,0.6-1.5,1.7-3.5,1.7h-0.8c-0.5,0-1.1,0-1.6-0.1c-0.2,0-0.5-0.1-0.7-0.2C519.5,447.5,518.5,447.7,517.4,447.7z"/>
			</g>
		</g>
		<g>
			<path class="st7" d="M224.3,434.6c0,0.5-0.1,1.1-0.1,1.6c-0.1,0.5-0.1,1-0.1,1.5c0,0.5-0.1,0.9-0.1,1.3c0,0.4,0,0.7,0,0.9
				c0,0.4,0,0.6,0.1,0.7c0.1,0.1,0.2,0.2,0.4,0.2c0.2,0,0.3,0,0.4-0.1s0.2-0.1,0.3-0.2c0.1-0.1,0.2-0.1,0.3-0.2
				c0.1-0.1,0.2-0.1,0.3-0.1c0.1,0,0.2,0.1,0.3,0.2c0.1,0.1,0.1,0.4,0.1,0.8c0,0.8-0.2,1.4-0.6,1.9c-0.4,0.5-1.2,0.7-2.2,0.7
				c-1,0-1.8-0.2-2.3-0.7c-0.5-0.5-0.7-1.2-0.7-2.2c0-0.2,0-0.5,0-0.8c0-0.3,0.1-0.7,0.1-1.1c0-0.5,0.1-1,0.2-1.7
				c0.1-0.7,0.1-1.5,0.2-2.5h-1.1c-0.1,0-0.2,0-0.2-0.1c0,0,0-0.1,0-0.2l0.1-1.1c0-0.2,0-0.4,0.1-0.5c0-0.2,0.1-0.3,0.2-0.5
				c0.1-0.1,0.3-0.3,0.5-0.3c0.2-0.1,0.5-0.1,0.8-0.1c0.1-0.3,0.2-0.6,0.3-0.9c0.1-0.4,0.3-0.7,0.4-1c0.1-0.3,0.3-0.6,0.4-0.8
				s0.2-0.3,0.3-0.3h0.6c0.6,0,1,0.2,1.2,0.6c0.2,0.4,0.3,0.8,0.3,1.3c0,0.3,0,0.7-0.1,1.3h2.2c0.2,0,0.3,0.1,0.3,0.3l-0.1,1.2
				c0,0.4-0.1,0.8-0.4,1c-0.2,0.3-0.6,0.4-1.3,0.4H224.3z"/>
			<path class="st7" d="M235.3,440.9c0-0.5,0.1-1,0.1-1.5c0.1-0.5,0.1-1,0.1-1.5c0-0.5,0.1-0.9,0.1-1.3c0-0.4,0-0.6,0-0.8
				c0-0.4-0.1-0.7-0.3-1c-0.2-0.3-0.5-0.4-1-0.4c-0.7,0-1.2,0.3-1.7,1c-0.4,0.6-0.7,1.5-0.7,2.6c0,0.3-0.1,0.7-0.1,1.2
				c0,0.5-0.1,1.1-0.1,1.6c0,0.5-0.1,1-0.1,1.5c0,0.4-0.1,0.7-0.1,0.8c0,0.2,0,0.3-0.1,0.3c-0.1,0.1-0.2,0.1-0.4,0.1h-0.8
				c-0.4,0-0.8,0-1.1-0.1c-0.3-0.1-0.5-0.2-0.7-0.4c-0.2-0.2-0.3-0.4-0.3-0.6c-0.1-0.2-0.1-0.5-0.1-0.9c0-0.3,0-0.8,0.1-1.3
				c0-0.6,0.1-1.3,0.2-2.3c0.1-1,0.2-2.3,0.3-3.8c0.1-1.5,0.2-3.4,0.4-5.7c0-0.3,0-0.5,0.1-0.6c0,0,0.2-0.1,0.3-0.1h0.8
				c0.4,0,0.8,0.1,1.1,0.1c0.3,0.1,0.5,0.2,0.7,0.4c0.2,0.2,0.3,0.4,0.4,0.6s0.1,0.5,0.1,0.7c0,0.3,0,0.7-0.1,1.4
				c0,0.7-0.1,1.5-0.2,2.5c0.4-0.7,0.9-1.2,1.4-1.5c0.5-0.3,1.2-0.4,2-0.4c0.6,0,1.1,0.1,1.6,0.2c0.4,0.1,0.8,0.3,1.1,0.7
				c0.3,0.3,0.5,0.7,0.7,1.2s0.2,1.1,0.2,1.8c0,0.2,0,0.6-0.1,1.2c0,0.6-0.1,1.2-0.2,1.9c-0.1,0.7-0.1,1.5-0.2,2.2
				c-0.1,0.8-0.1,1.5-0.2,2.1c0,0.2,0,0.3,0,0.4c0,0.1,0,0.1-0.1,0.2c0,0-0.1,0.1-0.2,0.1c-0.1,0-0.2,0-0.3,0h-0.7
				c-0.5,0-0.8,0-1.1-0.1c-0.3-0.1-0.5-0.2-0.7-0.4c-0.2-0.2-0.3-0.4-0.3-0.6c-0.1-0.2-0.1-0.5-0.1-0.8c0-0.1,0-0.3,0-0.4
				C235.2,441.1,235.3,441,235.3,440.9z"/>
			<path class="st7" d="M246.1,443.7c-0.6,0-1.2-0.1-1.9-0.2c-0.6-0.2-1.2-0.4-1.7-0.8c-0.5-0.4-0.9-0.9-1.2-1.5
				c-0.3-0.6-0.5-1.4-0.5-2.4c0-0.4,0-0.8,0.1-1.3c0.1-0.5,0.2-1,0.3-1.5c0.2-0.5,0.4-1,0.7-1.6c0.3-0.5,0.7-1,1.1-1.4
				c0.5-0.4,1-0.7,1.7-1c0.7-0.3,1.5-0.4,2.4-0.4c0.7,0,1.4,0.1,1.9,0.3c0.5,0.2,0.9,0.4,1.2,0.7c0.3,0.3,0.5,0.6,0.7,1
				c0.1,0.4,0.2,0.8,0.2,1.2c0,0.7-0.1,1.2-0.4,1.7c-0.3,0.5-0.6,0.8-1,1.1c-0.4,0.3-0.9,0.5-1.4,0.7c-0.5,0.2-1,0.3-1.5,0.4
				c-0.5,0.1-1,0.1-1.4,0.2c-0.4,0-0.7,0-1,0c0,0.3,0,0.5,0.1,0.8c0.1,0.3,0.2,0.5,0.4,0.7c0.2,0.2,0.4,0.4,0.6,0.5
				c0.3,0.1,0.6,0.2,0.9,0.2c0.4,0,0.7-0.1,0.9-0.2s0.4-0.3,0.5-0.4c0.1-0.1,0.2-0.3,0.3-0.4c0.1-0.1,0.2-0.2,0.4-0.2
				c0.1,0,0.2,0,0.4,0.1c0.2,0,0.4,0.1,0.5,0.2c0.2,0.1,0.3,0.3,0.5,0.5c0.1,0.2,0.2,0.5,0.2,0.8c0,0.4-0.1,0.8-0.4,1.1
				c-0.3,0.3-0.6,0.5-1,0.7s-0.9,0.3-1.4,0.4C247,443.7,246.6,443.7,246.1,443.7z M246.5,434.4c-0.3,0-0.6,0.1-0.8,0.3
				c-0.2,0.2-0.4,0.4-0.6,0.7c-0.1,0.3-0.3,0.6-0.3,0.9c-0.1,0.3-0.1,0.6-0.2,0.9c0.9,0,1.6-0.2,2.1-0.4s0.8-0.7,0.8-1.2
				c0-0.3-0.1-0.5-0.3-0.8C247.1,434.5,246.9,434.4,246.5,434.4z"/>
			<path class="st7" d="M262,443.7c-1.1,0-2-0.2-2.6-0.5c-0.6-0.3-1.1-0.7-1.5-1.2c-0.3-0.5-0.5-1-0.6-1.6c-0.1-0.6-0.1-1.1-0.1-1.5
				c0-0.2,0-0.5,0.1-1.1c0-0.5,0.1-1.2,0.1-1.9c0.1-0.7,0.1-1.5,0.2-2.3c0.1-0.8,0.1-1.6,0.2-2.3c0.1-0.7,0.1-1.4,0.1-1.9
				c0-0.6,0.1-0.9,0.1-1.2c0-0.3,0-0.5,0.1-0.5c0-0.1,0.2-0.1,0.4-0.1h0.8c0.4,0,0.8,0.1,1.1,0.1c0.3,0.1,0.5,0.2,0.7,0.4
				c0.2,0.2,0.3,0.4,0.4,0.6c0.1,0.2,0.1,0.5,0.1,0.7c0,0.2,0,0.7-0.1,1.4c-0.1,0.7-0.1,1.5-0.2,2.5c0.4-0.6,0.8-1.1,1.3-1.4
				c0.5-0.3,1.1-0.5,1.9-0.5c1.3,0,2.3,0.4,3,1.3c0.7,0.9,1,2.1,1,3.8c0,0.4,0,0.9-0.1,1.5s-0.2,1-0.3,1.6c-0.2,0.5-0.4,1-0.7,1.5
				c-0.3,0.5-0.7,0.9-1.1,1.3c-0.5,0.4-1,0.7-1.7,0.9C263.7,443.6,262.9,443.7,262,443.7z M263,434.4c-0.5,0-0.9,0.1-1.2,0.4
				c-0.3,0.3-0.5,0.6-0.7,1c-0.2,0.4-0.3,0.8-0.3,1.2c0,0.4-0.1,0.8-0.1,1.1c0,1,0.1,1.7,0.4,2.1c0.3,0.4,0.7,0.6,1.2,0.6
				c0.5,0,0.9-0.2,1.2-0.5c0.3-0.3,0.5-0.7,0.7-1.1c0.1-0.4,0.2-0.9,0.3-1.3c0-0.5,0.1-0.8,0.1-1.1c0-0.8-0.1-1.4-0.4-1.8
				C264,434.6,263.5,434.4,263,434.4z"/>
			<path class="st7" d="M274.9,443.7c-0.6,0-1.2-0.1-1.9-0.2c-0.6-0.2-1.2-0.4-1.7-0.8c-0.5-0.4-0.9-0.9-1.2-1.5
				c-0.3-0.6-0.5-1.4-0.5-2.4c0-0.4,0-0.8,0.1-1.3c0.1-0.5,0.2-1,0.3-1.5c0.2-0.5,0.4-1,0.7-1.6c0.3-0.5,0.7-1,1.1-1.4
				c0.5-0.4,1-0.7,1.7-1c0.7-0.3,1.5-0.4,2.4-0.4c0.7,0,1.4,0.1,1.9,0.3c0.5,0.2,0.9,0.4,1.2,0.7c0.3,0.3,0.5,0.6,0.7,1
				c0.1,0.4,0.2,0.8,0.2,1.2c0,0.7-0.1,1.2-0.4,1.7c-0.3,0.5-0.6,0.8-1,1.1c-0.4,0.3-0.9,0.5-1.4,0.7c-0.5,0.2-1,0.3-1.5,0.4
				c-0.5,0.1-1,0.1-1.4,0.2c-0.4,0-0.7,0-1,0c0,0.3,0,0.5,0.1,0.8c0.1,0.3,0.2,0.5,0.4,0.7c0.2,0.2,0.4,0.4,0.6,0.5
				c0.3,0.1,0.6,0.2,0.9,0.2c0.4,0,0.7-0.1,0.9-0.2s0.4-0.3,0.5-0.4c0.1-0.1,0.2-0.3,0.3-0.4s0.2-0.2,0.4-0.2c0.1,0,0.2,0,0.4,0.1
				c0.2,0,0.4,0.1,0.5,0.2c0.2,0.1,0.3,0.3,0.5,0.5c0.1,0.2,0.2,0.5,0.2,0.8c0,0.4-0.1,0.8-0.4,1.1c-0.3,0.3-0.6,0.5-1,0.7
				s-0.9,0.3-1.4,0.4C275.8,443.7,275.3,443.7,274.9,443.7z M275.3,434.4c-0.3,0-0.6,0.1-0.8,0.3c-0.2,0.2-0.4,0.4-0.6,0.7
				c-0.1,0.3-0.3,0.6-0.3,0.9c-0.1,0.3-0.1,0.6-0.2,0.9c0.9,0,1.6-0.2,2.1-0.4s0.8-0.7,0.8-1.2c0-0.3-0.1-0.5-0.3-0.8
				C275.9,434.5,275.6,434.4,275.3,434.4z"/>
			<path class="st7" d="M286.3,431.5c1.2,0,2.1,0.2,2.7,0.7c0.6,0.5,0.9,1.1,0.9,1.8c0,0.6-0.2,1.1-0.6,1.4c-0.4,0.3-1,0.5-1.7,0.5
				c-0.2,0-0.3,0-0.4-0.1c-0.1,0-0.1-0.1-0.1-0.2c0-0.1,0-0.3,0-0.4c0-0.2-0.1-0.3-0.1-0.5c-0.1-0.1-0.2-0.3-0.4-0.4
				c-0.2-0.1-0.4-0.1-0.7-0.1c-0.4,0-0.7,0.1-1,0.3c-0.2,0.2-0.4,0.4-0.4,0.7c0,0.3,0.1,0.5,0.4,0.7c0.2,0.2,0.6,0.3,0.9,0.5
				c0.4,0.2,0.8,0.3,1.2,0.5c0.4,0.2,0.8,0.4,1.2,0.7c0.4,0.3,0.7,0.6,0.9,1s0.4,0.9,0.4,1.6c0,1-0.4,1.9-1.1,2.5
				c-0.7,0.7-1.8,1-3.3,1c-0.4,0-0.9,0-1.4-0.1c-0.5-0.1-1-0.2-1.5-0.3c-0.5-0.1-0.9-0.3-1.2-0.5c-0.3-0.2-0.5-0.5-0.5-0.9
				c0-0.1,0-0.3,0.1-0.5c0-0.2,0.1-0.4,0.2-0.5c0.1-0.2,0.2-0.3,0.4-0.4c0.1-0.1,0.3-0.2,0.5-0.2c0.2,0,0.3,0,0.5,0.1
				c0.1,0.1,0.3,0.2,0.5,0.3c0.2,0.1,0.4,0.2,0.7,0.3s0.7,0.1,1.1,0.1c0.4,0,0.7,0,0.9-0.1c0.3-0.1,0.4-0.3,0.4-0.6
				c0-0.3-0.1-0.5-0.3-0.7c-0.2-0.2-0.5-0.3-0.9-0.5c-0.3-0.1-0.7-0.3-1.1-0.5c-0.4-0.2-0.8-0.4-1.1-0.7s-0.6-0.6-0.9-1
				c-0.2-0.4-0.3-1-0.3-1.6c0-0.7,0.1-1.3,0.4-1.8c0.3-0.5,0.7-0.9,1.1-1.2c0.5-0.3,1-0.5,1.6-0.7
				C285.1,431.6,285.7,431.5,286.3,431.5z"/>
			<path class="st7" d="M295.9,434.6c0,0.5-0.1,1.1-0.1,1.6c-0.1,0.5-0.1,1-0.1,1.5c0,0.5-0.1,0.9-0.1,1.3c0,0.4,0,0.7,0,0.9
				c0,0.4,0,0.6,0.1,0.7c0.1,0.1,0.2,0.2,0.4,0.2c0.2,0,0.3,0,0.4-0.1c0.1-0.1,0.2-0.1,0.3-0.2c0.1-0.1,0.2-0.1,0.3-0.2
				c0.1-0.1,0.2-0.1,0.3-0.1c0.1,0,0.2,0.1,0.3,0.2c0.1,0.1,0.1,0.4,0.1,0.8c0,0.8-0.2,1.4-0.6,1.9c-0.4,0.5-1.2,0.7-2.2,0.7
				c-1,0-1.8-0.2-2.3-0.7c-0.5-0.5-0.7-1.2-0.7-2.2c0-0.2,0-0.5,0-0.8c0-0.3,0.1-0.7,0.1-1.1c0-0.5,0.1-1,0.2-1.7
				c0.1-0.7,0.1-1.5,0.2-2.5h-1.1c-0.1,0-0.2,0-0.2-0.1c0,0,0-0.1,0-0.2l0.1-1.1c0-0.2,0-0.4,0.1-0.5c0-0.2,0.1-0.3,0.2-0.5
				c0.1-0.1,0.3-0.3,0.5-0.3s0.5-0.1,0.8-0.1c0.1-0.3,0.2-0.6,0.3-0.9c0.1-0.4,0.3-0.7,0.4-1c0.1-0.3,0.3-0.6,0.4-0.8
				c0.1-0.2,0.2-0.3,0.3-0.3h0.6c0.6,0,1,0.2,1.2,0.6c0.2,0.4,0.3,0.8,0.3,1.3c0,0.3,0,0.7-0.1,1.3h2.2c0.2,0,0.3,0.1,0.3,0.3
				l-0.1,1.2c0,0.4-0.1,0.8-0.4,1c-0.2,0.3-0.6,0.4-1.3,0.4H295.9z"/>
			<path class="st7" d="M306.6,443.5c-0.4,0-0.8,0-1.1-0.1c-0.3-0.1-0.5-0.2-0.7-0.4c-0.2-0.2-0.3-0.4-0.3-0.6
				c-0.1-0.2-0.1-0.5-0.1-0.9c0-0.2,0-0.5,0-0.9c0-0.4,0.1-0.9,0.1-1.6c0.1-0.7,0.1-1.6,0.2-2.6c0.1-1.1,0.2-2.4,0.3-3.9
				c0-0.3,0-0.5,0.1-0.6c0,0,0.2-0.1,0.3-0.1h0.8c0.4,0,0.8,0,1.1,0.1s0.5,0.2,0.7,0.4c0.2,0.2,0.3,0.4,0.3,0.6
				c0.1,0.2,0.1,0.5,0.1,0.8c0,0.2,0,0.5,0,1c0,0.4-0.1,1-0.1,1.7c-0.1,0.7-0.1,1.6-0.2,2.7c-0.1,1.1-0.2,2.4-0.3,3.9
				c0,0.2,0,0.3-0.1,0.3c-0.1,0.1-0.2,0.1-0.4,0.1H306.6z M305.1,429.2c0-0.6,0.2-1,0.6-1.3c0.4-0.3,1-0.5,1.7-0.5
				c0.6,0,1.1,0.1,1.3,0.4c0.3,0.2,0.4,0.6,0.4,1c0,0.5-0.2,1-0.6,1.3c-0.4,0.3-1,0.5-1.7,0.5C305.7,430.6,305.1,430.1,305.1,429.2z
				"/>
			<path class="st7" d="M315.8,440.9c0.4,0,0.8-0.1,1.1-0.2c0.3-0.1,0.6-0.2,0.8-0.4c0.2-0.1,0.4-0.3,0.6-0.4
				c0.2-0.1,0.3-0.2,0.4-0.2c0.3,0,0.5,0.2,0.5,0.6c0,0.1,0,0.2-0.1,0.4c0,0.2-0.1,0.4-0.2,0.6c-0.1,0.2-0.1,0.4-0.2,0.5
				c-0.1,0.2-0.2,0.3-0.2,0.4c-0.1,0.1-0.2,0.2-0.4,0.3c-0.2,0.2-0.4,0.3-0.7,0.5c-0.3,0.2-0.6,0.3-1,0.4c-0.4,0.1-0.8,0.2-1.3,0.2
				c-0.5,0-1.1-0.1-1.7-0.2c-0.6-0.2-1.1-0.4-1.6-0.9c-0.5-0.4-0.9-1-1.2-1.6c-0.3-0.7-0.5-1.6-0.5-2.6c0-0.4,0-0.8,0.1-1.3
				c0-0.5,0.2-1,0.3-1.5c0.2-0.5,0.4-1,0.6-1.5c0.3-0.5,0.6-0.9,1.1-1.3c0.4-0.4,1-0.7,1.6-0.9c0.6-0.2,1.4-0.4,2.2-0.4
				c0.7,0,1.3,0.1,1.8,0.2c0.5,0.2,0.9,0.4,1.2,0.7c0.3,0.3,0.6,0.6,0.7,1c0.2,0.4,0.2,0.8,0.2,1.2c0,0.8-0.2,1.3-0.7,1.7
				s-1.2,0.5-2,0.5c-0.2,0-0.4,0-0.4-0.1c-0.1,0-0.1-0.1-0.1-0.2c0-0.3,0-0.6,0-0.9c0-0.3-0.1-0.5-0.1-0.7c-0.1-0.2-0.2-0.3-0.3-0.4
				c-0.1-0.1-0.3-0.1-0.6-0.1c-0.4,0-0.8,0.1-1.1,0.4c-0.3,0.3-0.5,0.6-0.6,1c-0.1,0.4-0.2,0.8-0.3,1.2c0,0.4-0.1,0.8-0.1,1.1
				c0,1,0.2,1.7,0.5,2.1C314.6,440.7,315.1,440.9,315.8,440.9z"/>
			<path class="st7" d="M326.2,443.7c-0.6,0-1.2-0.1-1.9-0.2c-0.6-0.2-1.2-0.4-1.7-0.8c-0.5-0.4-0.9-0.9-1.2-1.5
				c-0.3-0.6-0.5-1.4-0.5-2.4c0-0.4,0-0.8,0.1-1.3c0.1-0.5,0.2-1,0.3-1.5c0.2-0.5,0.4-1,0.7-1.6c0.3-0.5,0.7-1,1.1-1.4
				c0.5-0.4,1-0.7,1.7-1c0.7-0.3,1.5-0.4,2.4-0.4c0.7,0,1.4,0.1,1.9,0.3c0.5,0.2,0.9,0.4,1.2,0.7c0.3,0.3,0.5,0.6,0.7,1
				c0.1,0.4,0.2,0.8,0.2,1.2c0,0.7-0.1,1.2-0.4,1.7c-0.3,0.5-0.6,0.8-1,1.1c-0.4,0.3-0.9,0.5-1.4,0.7c-0.5,0.2-1,0.3-1.5,0.4
				c-0.5,0.1-1,0.1-1.4,0.2c-0.4,0-0.7,0-1,0c0,0.3,0,0.5,0.1,0.8c0.1,0.3,0.2,0.5,0.4,0.7c0.2,0.2,0.4,0.4,0.6,0.5
				c0.3,0.1,0.6,0.2,0.9,0.2s0.7-0.1,0.9-0.2s0.4-0.3,0.5-0.4c0.1-0.1,0.2-0.3,0.3-0.4s0.2-0.2,0.4-0.2c0.1,0,0.2,0,0.4,0.1
				c0.2,0,0.4,0.1,0.5,0.2c0.2,0.1,0.3,0.3,0.5,0.5c0.1,0.2,0.2,0.5,0.2,0.8c0,0.4-0.1,0.8-0.4,1.1c-0.3,0.3-0.6,0.5-1,0.7
				s-0.9,0.3-1.4,0.4C327.1,443.7,326.7,443.7,326.2,443.7z M326.6,434.4c-0.3,0-0.6,0.1-0.8,0.3c-0.2,0.2-0.4,0.4-0.6,0.7
				c-0.1,0.3-0.3,0.6-0.3,0.9c-0.1,0.3-0.1,0.6-0.2,0.9c0.9,0,1.6-0.2,2.1-0.4s0.8-0.7,0.8-1.2c0-0.3-0.1-0.5-0.3-0.8
				C327.2,434.5,327,434.4,326.6,434.4z"/>
			<path class="st7" d="M342.6,440.9c0.4,0,0.8-0.1,1.1-0.2c0.3-0.1,0.6-0.2,0.8-0.4c0.2-0.1,0.4-0.3,0.6-0.4
				c0.2-0.1,0.3-0.2,0.4-0.2c0.3,0,0.5,0.2,0.5,0.6c0,0.1,0,0.2-0.1,0.4c0,0.2-0.1,0.4-0.2,0.6c-0.1,0.2-0.1,0.4-0.2,0.5
				c-0.1,0.2-0.2,0.3-0.2,0.4c-0.1,0.1-0.2,0.2-0.4,0.3c-0.2,0.2-0.4,0.3-0.7,0.5c-0.3,0.2-0.6,0.3-1,0.4c-0.4,0.1-0.8,0.2-1.3,0.2
				c-0.5,0-1.1-0.1-1.7-0.2c-0.6-0.2-1.1-0.4-1.6-0.9c-0.5-0.4-0.9-1-1.2-1.6c-0.3-0.7-0.5-1.6-0.5-2.6c0-0.4,0-0.8,0.1-1.3
				c0-0.5,0.2-1,0.3-1.5c0.2-0.5,0.4-1,0.6-1.5c0.3-0.5,0.6-0.9,1.1-1.3c0.4-0.4,1-0.7,1.6-0.9c0.6-0.2,1.4-0.4,2.2-0.4
				c0.7,0,1.3,0.1,1.8,0.2c0.5,0.2,0.9,0.4,1.2,0.7c0.3,0.3,0.6,0.6,0.7,1c0.2,0.4,0.2,0.8,0.2,1.2c0,0.8-0.2,1.3-0.7,1.7
				s-1.2,0.5-2,0.5c-0.2,0-0.4,0-0.4-0.1c-0.1,0-0.1-0.1-0.1-0.2c0-0.3,0-0.6,0-0.9c0-0.3-0.1-0.5-0.1-0.7c-0.1-0.2-0.2-0.3-0.3-0.4
				c-0.1-0.1-0.3-0.1-0.6-0.1c-0.4,0-0.8,0.1-1.1,0.4s-0.5,0.6-0.6,1c-0.1,0.4-0.2,0.8-0.3,1.2c0,0.4-0.1,0.8-0.1,1.1
				c0,1,0.2,1.7,0.5,2.1C341.4,440.7,341.9,440.9,342.6,440.9z"/>
			<path class="st7" d="M354.9,436.9c-0.1,0-0.2,0-0.3,0c-0.1,0-0.2,0-0.3,0c-0.1,0-0.2,0-0.3-0.1c-0.1,0-0.1-0.1-0.1-0.1
				c0-0.2,0-0.4,0-0.5c0-0.2,0-0.3,0-0.5c0-0.3,0-0.6-0.1-0.8c-0.1-0.2-0.3-0.3-0.5-0.3c-0.4,0-0.7,0.3-1,0.8
				c-0.3,0.5-0.4,1.3-0.5,2.3c0,0.5-0.1,1-0.1,1.5c0,0.6-0.1,1.1-0.1,1.7s-0.1,1-0.1,1.4c0,0.4,0,0.7,0,0.8c0,0.1,0,0.2-0.1,0.3
				c-0.1,0.1-0.2,0.1-0.3,0.1h-0.8c-0.4,0-0.8,0-1.1-0.1c-0.3-0.1-0.5-0.2-0.7-0.4c-0.2-0.2-0.3-0.4-0.3-0.6
				c-0.1-0.2-0.1-0.5-0.1-0.9c0-0.2,0-0.5,0-0.9c0-0.4,0.1-0.9,0.1-1.6c0.1-0.7,0.1-1.6,0.2-2.6c0.1-1.1,0.2-2.4,0.3-3.9
				c0-0.4,0.2-0.6,0.4-0.6h0.8c0.4,0,0.7,0,1,0.1c0.3,0.1,0.5,0.2,0.7,0.4c0.2,0.1,0.3,0.3,0.4,0.5c0.1,0.2,0.1,0.4,0.2,0.6
				c0.2-0.3,0.4-0.6,0.6-0.8c0.2-0.2,0.5-0.4,0.7-0.6c0.3-0.1,0.5-0.3,0.8-0.3s0.5-0.1,0.7-0.1c0.3,0,0.5,0.1,0.8,0.1
				c0.3,0.1,0.5,0.2,0.8,0.4c0.2,0.2,0.4,0.5,0.5,0.8c0.1,0.3,0.2,0.7,0.2,1.1c0,0.4-0.1,0.7-0.2,1.1c-0.1,0.3-0.3,0.6-0.5,0.9
				c-0.2,0.3-0.5,0.5-0.8,0.6C355.7,436.8,355.3,436.9,354.9,436.9z"/>
			<path class="st7" d="M363.2,443.7c-0.6,0-1.2-0.1-1.9-0.2c-0.6-0.2-1.2-0.4-1.7-0.8c-0.5-0.4-0.9-0.9-1.2-1.5
				c-0.3-0.6-0.5-1.4-0.5-2.4c0-0.4,0-0.8,0.1-1.3c0.1-0.5,0.2-1,0.3-1.5c0.2-0.5,0.4-1,0.7-1.6c0.3-0.5,0.7-1,1.1-1.4
				c0.5-0.4,1-0.7,1.7-1c0.7-0.3,1.5-0.4,2.4-0.4c0.7,0,1.4,0.1,1.9,0.3c0.5,0.2,0.9,0.4,1.2,0.7c0.3,0.3,0.5,0.6,0.7,1
				c0.1,0.4,0.2,0.8,0.2,1.2c0,0.7-0.1,1.2-0.4,1.7c-0.3,0.5-0.6,0.8-1,1.1c-0.4,0.3-0.9,0.5-1.4,0.7c-0.5,0.2-1,0.3-1.5,0.4
				c-0.5,0.1-1,0.1-1.4,0.2c-0.4,0-0.7,0-1,0c0,0.3,0,0.5,0.1,0.8c0.1,0.3,0.2,0.5,0.4,0.7c0.2,0.2,0.4,0.4,0.6,0.5
				c0.3,0.1,0.6,0.2,0.9,0.2c0.4,0,0.7-0.1,0.9-0.2s0.4-0.3,0.5-0.4c0.1-0.1,0.2-0.3,0.3-0.4s0.2-0.2,0.4-0.2c0.1,0,0.2,0,0.4,0.1
				c0.2,0,0.4,0.1,0.5,0.2c0.2,0.1,0.3,0.3,0.5,0.5c0.1,0.2,0.2,0.5,0.2,0.8c0,0.4-0.1,0.8-0.4,1.1c-0.3,0.3-0.6,0.5-1,0.7
				s-0.9,0.3-1.4,0.4C364.2,443.7,363.7,443.7,363.2,443.7z M363.6,434.4c-0.3,0-0.6,0.1-0.8,0.3c-0.2,0.2-0.4,0.4-0.6,0.7
				c-0.1,0.3-0.3,0.6-0.3,0.9c-0.1,0.3-0.1,0.6-0.2,0.9c0.9,0,1.6-0.2,2.1-0.4s0.8-0.7,0.8-1.2c0-0.3-0.1-0.5-0.3-0.8
				C364.3,434.5,364,434.4,363.6,434.4z"/>
			<path class="st7" d="M369,440.9c0-1.3,0.6-2.3,1.7-3c1.2-0.7,2.9-1.1,5.1-1.2c0-0.2,0-0.3,0-0.4c0-0.1,0-0.2,0-0.4
				c0-0.5-0.1-0.8-0.3-1.1c-0.2-0.3-0.5-0.4-1.1-0.4c-0.3,0-0.5,0-0.7,0.1c-0.2,0.1-0.3,0.2-0.4,0.4c-0.1,0.1-0.2,0.3-0.3,0.5
				c-0.1,0.2-0.1,0.4-0.2,0.7c0,0.1-0.1,0.2-0.2,0.2c-0.1,0-0.3,0.1-0.5,0.1c-1.5,0-2.2-0.5-2.2-1.6c0-0.4,0.1-0.9,0.3-1.3
				c0.2-0.4,0.5-0.7,0.9-1c0.4-0.3,0.9-0.5,1.5-0.7c0.6-0.2,1.3-0.3,2.1-0.3c1.6,0,2.7,0.3,3.4,1c0.7,0.7,1.1,1.6,1.1,2.8
				c0,0.2,0,0.4-0.1,0.8c0,0.4-0.1,0.8-0.1,1.3c0,0.4-0.1,0.9-0.1,1.3c0,0.4-0.1,0.7-0.1,0.8c0,0.4,0.1,0.6,0.2,0.8
				c0.1,0.1,0.3,0.3,0.4,0.3c0.2,0.1,0.3,0.1,0.4,0.1c0.1,0,0.2,0.1,0.2,0.2c0,0.3,0,0.6-0.1,1c-0.1,0.3-0.2,0.6-0.4,0.9
				c-0.2,0.3-0.5,0.5-0.8,0.7c-0.3,0.2-0.7,0.3-1.2,0.3c-0.7,0-1.2-0.2-1.5-0.5c-0.3-0.3-0.6-0.8-0.7-1.4c-0.3,0.5-0.8,0.9-1.3,1.3
				c-0.5,0.4-1.3,0.6-2.1,0.6c-0.4,0-0.8-0.1-1.2-0.1c-0.4-0.1-0.7-0.3-1-0.5c-0.3-0.2-0.5-0.5-0.7-0.9
				C369.1,441.8,369,441.4,369,440.9z M375.6,438.4c-0.4,0-0.7,0-1.1,0.1c-0.4,0.1-0.7,0.1-1,0.3c-0.3,0.1-0.5,0.3-0.7,0.5
				c-0.2,0.2-0.3,0.4-0.3,0.7c0,0.3,0.1,0.6,0.3,0.7s0.4,0.2,0.7,0.2c0.2,0,0.5,0,0.7-0.1c0.2-0.1,0.4-0.3,0.6-0.5
				c0.2-0.2,0.3-0.5,0.5-0.8C375.5,439.2,375.6,438.9,375.6,438.4z"/>
			<path class="st7" d="M385.3,439.7c0,0.7-0.1,1.3-0.1,1.9c-0.1,0.6-0.1,1.1-0.1,1.5c0,0.2,0,0.3-0.1,0.3c-0.1,0.1-0.2,0.1-0.4,0.1
				h-0.8c-0.4,0-0.8,0-1.1-0.1c-0.3-0.1-0.5-0.2-0.7-0.4c-0.2-0.2-0.3-0.4-0.3-0.6c-0.1-0.2-0.1-0.5-0.1-0.9c0-0.2,0-0.5,0-0.9
				c0-0.4,0.1-0.9,0.1-1.6c0.1-0.7,0.1-1.6,0.2-2.6c0.1-1.1,0.2-2.4,0.3-3.9c0-0.3,0-0.5,0.1-0.6c0,0,0.2-0.1,0.3-0.1h0.8
				c0.4,0,0.8,0.1,1,0.1c0.3,0.1,0.5,0.2,0.7,0.4c0.2,0.2,0.3,0.3,0.4,0.6c0.1,0.2,0.1,0.4,0.1,0.7c0.4-0.8,0.9-1.3,1.4-1.6
				c0.5-0.3,1.1-0.4,1.9-0.4c0.4,0,0.8,0,1.1,0.1c0.4,0.1,0.7,0.2,1,0.4c0.3,0.2,0.5,0.4,0.7,0.7c0.2,0.3,0.3,0.6,0.4,1.1
				c0.4-0.8,0.9-1.4,1.5-1.7c0.5-0.3,1.2-0.5,2-0.5c0.4,0,0.9,0,1.3,0.1c0.4,0.1,0.8,0.3,1.1,0.5c0.3,0.2,0.5,0.5,0.7,0.9
				c0.2,0.4,0.3,0.9,0.3,1.5c0,0.4,0,1-0.1,1.6c0,0.6-0.1,1.3-0.1,2.1c-0.1,0.7-0.1,1.5-0.2,2.3c-0.1,0.8-0.1,1.5-0.2,2.3
				c0,0.2,0,0.3,0,0.4c0,0.1,0,0.1-0.1,0.2c0,0-0.1,0.1-0.2,0.1c-0.1,0-0.2,0-0.3,0h-0.7c-0.5,0-0.8,0-1.1-0.1s-0.5-0.2-0.7-0.4
				c-0.2-0.2-0.3-0.4-0.3-0.6c-0.1-0.2-0.1-0.5-0.1-0.8c0-0.2,0-0.4,0-0.8c0-0.3,0-0.7,0.1-1.1c0-0.4,0.1-0.8,0.1-1.2
				c0-0.4,0.1-0.8,0.1-1.2c0-0.4,0.1-0.7,0.1-1c0-0.3,0-0.4,0-0.5c0-0.4-0.1-0.7-0.2-1c-0.1-0.3-0.4-0.4-0.9-0.4
				c-0.4,0-0.7,0.1-1,0.4c-0.3,0.2-0.5,0.6-0.7,1c-0.2,0.4-0.3,0.9-0.4,1.5c-0.1,0.6-0.2,1.2-0.2,1.9c0,0.4-0.1,0.9-0.1,1.5
				c0,0.6-0.1,1.3-0.1,2.1c0,0.2,0,0.3,0,0.4c0,0.1,0,0.1-0.1,0.2c0,0-0.1,0.1-0.2,0.1c-0.1,0-0.2,0-0.3,0h-0.7
				c-0.5,0-0.8,0-1.1-0.1c-0.3-0.1-0.5-0.2-0.7-0.4c-0.2-0.2-0.3-0.4-0.3-0.6c-0.1-0.2-0.1-0.5-0.1-0.8c0-0.3,0-0.7,0.1-1.2
				c0-0.5,0.1-1.1,0.1-1.7c0-0.6,0.1-1.2,0.1-1.7c0-0.5,0.1-0.9,0.1-1.2c0-0.4-0.1-0.7-0.2-1c-0.1-0.3-0.4-0.4-0.9-0.4
				c-0.4,0-0.7,0.1-1,0.4c-0.3,0.3-0.5,0.7-0.7,1.1c-0.2,0.5-0.3,1-0.4,1.7C385.5,438.3,385.4,439,385.3,439.7z"/>
			<path class="st7" d="M407.7,443.5c-0.4,0-0.8,0-1.1-0.1c-0.3-0.1-0.5-0.2-0.7-0.4c-0.2-0.2-0.3-0.4-0.3-0.6
				c-0.1-0.2-0.1-0.5-0.1-0.9c0-0.2,0-0.5,0-0.9c0-0.4,0.1-0.9,0.1-1.6c0.1-0.7,0.1-1.6,0.2-2.6c0.1-1.1,0.2-2.4,0.3-3.9
				c0-0.3,0-0.5,0.1-0.6c0,0,0.2-0.1,0.3-0.1h0.8c0.4,0,0.8,0,1.1,0.1c0.3,0.1,0.5,0.2,0.7,0.4c0.2,0.2,0.3,0.4,0.3,0.6
				c0.1,0.2,0.1,0.5,0.1,0.8c0,0.2,0,0.5,0,1c0,0.4-0.1,1-0.1,1.7c-0.1,0.7-0.1,1.6-0.2,2.7c-0.1,1.1-0.2,2.4-0.3,3.9
				c0,0.2,0,0.3-0.1,0.3c-0.1,0.1-0.2,0.1-0.4,0.1H407.7z M406.2,429.2c0-0.6,0.2-1,0.6-1.3c0.4-0.3,1-0.5,1.7-0.5
				c0.6,0,1.1,0.1,1.3,0.4c0.3,0.2,0.4,0.6,0.4,1c0,0.5-0.2,1-0.6,1.3c-0.4,0.3-1,0.5-1.7,0.5C406.8,430.6,406.2,430.1,406.2,429.2z
				"/>
			<path class="st7" d="M418.8,441.6c0-0.3,0-0.7,0.1-1.2c0-0.5,0.1-1,0.1-1.6c0.1-0.6,0.1-1.1,0.1-1.6c0-0.5,0.1-1,0.1-1.3
				c0-0.4-0.1-0.7-0.3-1c-0.2-0.3-0.5-0.4-1-0.4c-0.5,0-0.9,0.1-1.2,0.4c-0.3,0.2-0.6,0.7-0.8,1.3c-0.2,0.6-0.4,1.5-0.5,2.6
				c-0.1,1.1-0.3,2.6-0.4,4.3c0,0.2,0,0.3-0.1,0.3c-0.1,0.1-0.2,0.1-0.4,0.1h-0.8c-0.4,0-0.8,0-1.1-0.1c-0.3-0.1-0.5-0.2-0.7-0.4
				c-0.2-0.2-0.3-0.4-0.3-0.6c-0.1-0.2-0.1-0.5-0.1-0.9c0-0.2,0-0.5,0-0.9c0-0.4,0.1-0.9,0.1-1.6c0.1-0.7,0.1-1.6,0.2-2.6
				c0.1-1.1,0.2-2.4,0.3-3.9c0-0.3,0-0.5,0.1-0.6c0,0,0.2-0.1,0.3-0.1h0.8c0.4,0,0.8,0.1,1.1,0.1c0.3,0.1,0.5,0.2,0.7,0.4
				c0.2,0.2,0.3,0.4,0.4,0.6c0.1,0.2,0.1,0.4,0.1,0.7c0.4-0.8,0.9-1.3,1.5-1.6c0.6-0.3,1.3-0.4,2.1-0.4c0.6,0,1.1,0.1,1.6,0.2
				c0.4,0.1,0.8,0.3,1.1,0.7c0.3,0.3,0.5,0.7,0.7,1.2c0.1,0.5,0.2,1.1,0.2,1.8c0,0.2,0,0.6,0,1c0,0.4-0.1,0.9-0.1,1.4
				c0,0.5-0.1,1-0.1,1.6c0,0.5-0.1,1.1-0.1,1.5c0,0.5-0.1,0.9-0.1,1.2c0,0.4,0,0.6,0,0.7c0,0.3,0,0.5-0.1,0.6
				c-0.1,0.1-0.2,0.1-0.5,0.1H421c-0.5,0-0.8,0-1.1-0.1s-0.5-0.2-0.7-0.4c-0.2-0.2-0.3-0.4-0.3-0.6
				C418.8,442.2,418.8,441.9,418.8,441.6z"/>
			<path class="st7" d="M433.9,434.6c0,0.5-0.1,1.1-0.1,1.6c-0.1,0.5-0.1,1-0.1,1.5c0,0.5-0.1,0.9-0.1,1.3c0,0.4,0,0.7,0,0.9
				c0,0.4,0,0.6,0.1,0.7c0.1,0.1,0.2,0.2,0.4,0.2c0.2,0,0.3,0,0.4-0.1c0.1-0.1,0.2-0.1,0.3-0.2c0.1-0.1,0.2-0.1,0.3-0.2
				c0.1-0.1,0.2-0.1,0.3-0.1c0.1,0,0.2,0.1,0.3,0.2c0.1,0.1,0.1,0.4,0.1,0.8c0,0.8-0.2,1.4-0.6,1.9c-0.4,0.5-1.2,0.7-2.2,0.7
				c-1,0-1.8-0.2-2.3-0.7c-0.5-0.5-0.7-1.2-0.7-2.2c0-0.2,0-0.5,0-0.8c0-0.3,0.1-0.7,0.1-1.1c0-0.5,0.1-1,0.2-1.7
				c0.1-0.7,0.1-1.5,0.2-2.5h-1.1c-0.1,0-0.2,0-0.2-0.1c0,0,0-0.1,0-0.2l0.1-1.1c0-0.2,0-0.4,0.1-0.5c0-0.2,0.1-0.3,0.2-0.5
				c0.1-0.1,0.3-0.3,0.5-0.3c0.2-0.1,0.5-0.1,0.8-0.1c0.1-0.3,0.2-0.6,0.3-0.9c0.1-0.4,0.3-0.7,0.4-1c0.1-0.3,0.3-0.6,0.4-0.8
				s0.2-0.3,0.3-0.3h0.6c0.6,0,1,0.2,1.2,0.6c0.2,0.4,0.3,0.8,0.3,1.3c0,0.3,0,0.7-0.1,1.3h2.2c0.2,0,0.3,0.1,0.3,0.3l-0.1,1.2
				c0,0.4-0.1,0.8-0.4,1c-0.2,0.3-0.6,0.4-1.3,0.4H433.9z"/>
			<path class="st7" d="M444.9,440.9c0-0.5,0.1-1,0.1-1.5c0.1-0.5,0.1-1,0.1-1.5c0-0.5,0.1-0.9,0.1-1.3c0-0.4,0-0.6,0-0.8
				c0-0.4-0.1-0.7-0.3-1c-0.2-0.3-0.5-0.4-1-0.4c-0.7,0-1.2,0.3-1.7,1c-0.4,0.6-0.7,1.5-0.7,2.6c0,0.3-0.1,0.7-0.1,1.2
				c0,0.5-0.1,1.1-0.1,1.6c0,0.5-0.1,1-0.1,1.5c0,0.4-0.1,0.7-0.1,0.8c0,0.2,0,0.3-0.1,0.3c-0.1,0.1-0.2,0.1-0.4,0.1H440
				c-0.4,0-0.8,0-1.1-0.1c-0.3-0.1-0.5-0.2-0.7-0.4c-0.2-0.2-0.3-0.4-0.3-0.6c-0.1-0.2-0.1-0.5-0.1-0.9c0-0.3,0-0.8,0.1-1.3
				c0-0.6,0.1-1.3,0.2-2.3c0.1-1,0.2-2.3,0.3-3.8c0.1-1.5,0.2-3.4,0.4-5.7c0-0.3,0-0.5,0.1-0.6c0,0,0.2-0.1,0.3-0.1h0.8
				c0.4,0,0.8,0.1,1.1,0.1c0.3,0.1,0.5,0.2,0.7,0.4c0.2,0.2,0.3,0.4,0.4,0.6c0.1,0.2,0.1,0.5,0.1,0.7c0,0.3,0,0.7-0.1,1.4
				c0,0.7-0.1,1.5-0.2,2.5c0.4-0.7,0.9-1.2,1.4-1.5c0.5-0.3,1.2-0.4,2-0.4c0.6,0,1.1,0.1,1.6,0.2c0.4,0.1,0.8,0.3,1.1,0.7
				c0.3,0.3,0.5,0.7,0.7,1.2s0.2,1.1,0.2,1.8c0,0.2,0,0.6-0.1,1.2c0,0.6-0.1,1.2-0.2,1.9c-0.1,0.7-0.1,1.5-0.2,2.2
				c-0.1,0.8-0.1,1.5-0.2,2.1c0,0.2,0,0.3,0,0.4c0,0.1,0,0.1-0.1,0.2c0,0-0.1,0.1-0.2,0.1c-0.1,0-0.2,0-0.3,0h-0.7
				c-0.5,0-0.8,0-1.1-0.1c-0.3-0.1-0.5-0.2-0.7-0.4c-0.2-0.2-0.3-0.4-0.3-0.6c-0.1-0.2-0.1-0.5-0.1-0.8c0-0.1,0-0.3,0-0.4
				C444.9,441.1,444.9,441,444.9,440.9z"/>
			<path class="st7" d="M455.7,443.7c-0.6,0-1.2-0.1-1.9-0.2c-0.6-0.2-1.2-0.4-1.7-0.8c-0.5-0.4-0.9-0.9-1.2-1.5
				c-0.3-0.6-0.5-1.4-0.5-2.4c0-0.4,0-0.8,0.1-1.3c0.1-0.5,0.2-1,0.3-1.5c0.2-0.5,0.4-1,0.7-1.6c0.3-0.5,0.7-1,1.1-1.4
				c0.5-0.4,1-0.7,1.7-1c0.7-0.3,1.5-0.4,2.4-0.4c0.7,0,1.4,0.1,1.9,0.3c0.5,0.2,0.9,0.4,1.2,0.7c0.3,0.3,0.5,0.6,0.7,1
				c0.1,0.4,0.2,0.8,0.2,1.2c0,0.7-0.1,1.2-0.4,1.7c-0.3,0.5-0.6,0.8-1,1.1c-0.4,0.3-0.9,0.5-1.4,0.7c-0.5,0.2-1,0.3-1.5,0.4
				c-0.5,0.1-1,0.1-1.4,0.2c-0.4,0-0.7,0-1,0c0,0.3,0,0.5,0.1,0.8c0.1,0.3,0.2,0.5,0.4,0.7c0.2,0.2,0.4,0.4,0.6,0.5
				c0.3,0.1,0.6,0.2,0.9,0.2c0.4,0,0.7-0.1,0.9-0.2s0.4-0.3,0.5-0.4c0.1-0.1,0.2-0.3,0.3-0.4s0.2-0.2,0.4-0.2c0.1,0,0.2,0,0.4,0.1
				c0.2,0,0.4,0.1,0.5,0.2c0.2,0.1,0.3,0.3,0.5,0.5c0.1,0.2,0.2,0.5,0.2,0.8c0,0.4-0.1,0.8-0.4,1.1c-0.3,0.3-0.6,0.5-1,0.7
				c-0.4,0.2-0.9,0.3-1.4,0.4C456.7,443.7,456.2,443.7,455.7,443.7z M456.1,434.4c-0.3,0-0.6,0.1-0.8,0.3c-0.2,0.2-0.4,0.4-0.6,0.7
				c-0.1,0.3-0.3,0.6-0.3,0.9c-0.1,0.3-0.1,0.6-0.2,0.9c0.9,0,1.6-0.2,2.1-0.4s0.8-0.7,0.8-1.2c0-0.3-0.1-0.5-0.3-0.8
				C456.8,434.5,456.5,434.4,456.1,434.4z"/>
			<path class="st7" d="M477.7,441.2c0.2-1,0.3-1.9,0.5-2.7c0.1-0.8,0.2-1.4,0.3-2c0.1-0.6,0.2-1.1,0.2-1.5c0.1-0.4,0.1-0.8,0.2-1.1
				c0-0.3,0.1-0.6,0.1-0.9c0-0.2,0.1-0.5,0.1-0.8c0-0.2,0.1-0.3,0.2-0.4c0.1-0.1,0.4-0.1,0.7-0.1c0.2,0,0.4,0,0.8,0
				c0.3,0,0.7,0.1,1,0.2c0.3,0.1,0.6,0.2,0.8,0.4c0.2,0.2,0.4,0.4,0.4,0.7c0,0.2-0.1,0.6-0.2,1c-0.1,0.4-0.3,1-0.5,1.5
				c-0.2,0.6-0.4,1.2-0.7,1.9c-0.3,0.7-0.5,1.3-0.8,2s-0.5,1.3-0.8,1.8c-0.2,0.6-0.4,1.1-0.6,1.5c-0.1,0.3-0.2,0.4-0.3,0.5
				c-0.1,0.1-0.3,0.1-0.6,0.1h-1.3c-0.4,0-0.7,0-1-0.1c-0.3-0.1-0.5-0.2-0.6-0.4c-0.2-0.2-0.3-0.4-0.4-0.6c-0.1-0.2-0.1-0.5-0.2-0.7
				c-0.1-0.7-0.3-1.7-0.4-2.9c-0.2-1.2-0.3-2.7-0.4-4.3c-0.1,0.3-0.2,0.7-0.2,1.3c-0.1,0.5-0.2,1.1-0.3,1.7
				c-0.1,0.6-0.2,1.2-0.3,1.9c-0.1,0.6-0.2,1.2-0.3,1.8c-0.1,0.5-0.2,1-0.3,1.4c-0.1,0.4-0.2,0.6-0.2,0.8c-0.1,0.1-0.2,0.2-0.3,0.3
				c-0.1,0-0.3,0.1-0.5,0.1h-1.5c-0.4,0-0.7-0.1-0.9-0.2c-0.3-0.1-0.5-0.2-0.7-0.4c-0.2-0.2-0.3-0.4-0.5-0.6
				c-0.1-0.2-0.2-0.5-0.3-0.7c-0.8-3-1.4-5.3-1.8-6.9c-0.4-1.6-0.6-2.4-0.6-2.5c0-0.1,0.1-0.2,0.2-0.3c0.1-0.1,0.3-0.1,0.5-0.1
				c0.6,0,1.1,0,1.6,0.1c0.4,0.1,0.8,0.1,1.1,0.3c0.3,0.1,0.5,0.3,0.7,0.5c0.2,0.2,0.3,0.5,0.3,0.9c0,0.2,0,0.6,0.1,1.2
				c0,0.6,0.1,1.3,0.1,2.1c0,0.8,0.1,1.6,0.1,2.4c0,0.8,0.1,1.5,0.1,2c0.2-0.9,0.3-1.6,0.4-2.1c0.1-0.5,0.2-1,0.3-1.3
				c0.1-0.4,0.1-0.7,0.2-0.9c0-0.3,0.1-0.6,0.2-1c0.1-0.4,0.2-0.8,0.2-1.4c0.1-0.6,0.2-1.3,0.4-2.2c0.1-0.3,0.4-0.5,1.1-0.5
				c0.4,0,0.9,0,1.2,0c0.4,0,0.7,0.1,1,0.2c0.3,0.1,0.6,0.3,0.8,0.5s0.4,0.5,0.4,0.8c0,0.1,0.1,0.2,0.1,0.3c0,0.1,0,0.2,0.1,0.4
				c0,0.2,0.1,0.4,0.1,0.8c0,0.3,0.1,0.8,0.1,1.3c0,0.6,0.1,1.2,0.2,2.1C477.5,439,477.6,440,477.7,441.2z"/>
			<path class="st7" d="M488.9,443.7c-1,0-1.8-0.1-2.4-0.4c-0.6-0.3-1.2-0.7-1.5-1.1c-0.4-0.5-0.7-1-0.8-1.7
				c-0.2-0.6-0.2-1.3-0.2-2.1c0-0.9,0.1-1.7,0.3-2.5c0.2-0.8,0.6-1.5,1.1-2.2c0.5-0.6,1.2-1.2,2-1.5c0.8-0.4,1.8-0.6,3.1-0.6
				c1.8,0,3.1,0.4,3.9,1.3c0.8,0.9,1.2,2.1,1.2,3.7c0,0.4,0,0.9-0.1,1.5c-0.1,0.5-0.2,1.1-0.4,1.6c-0.2,0.5-0.4,1-0.7,1.5
				c-0.3,0.5-0.7,0.9-1.2,1.3c-0.5,0.4-1,0.7-1.7,0.9C490.6,443.6,489.8,443.7,488.9,443.7z M489.9,434.4c-0.5,0-1,0.1-1.3,0.4
				c-0.3,0.3-0.6,0.6-0.7,1c-0.2,0.4-0.3,0.8-0.3,1.2c-0.1,0.4-0.1,0.8-0.1,1.1c0,0.9,0.1,1.6,0.4,2.1c0.3,0.4,0.7,0.7,1.3,0.7
				c0.5,0,0.9-0.2,1.2-0.5c0.3-0.3,0.6-0.7,0.7-1.1c0.2-0.4,0.3-0.9,0.4-1.4s0.1-0.9,0.1-1.2c0-0.7-0.1-1.3-0.4-1.7
				C491,434.6,490.5,434.4,489.9,434.4z"/>
			<path class="st7" d="M503.8,436.9c-0.1,0-0.2,0-0.3,0c-0.1,0-0.2,0-0.3,0c-0.1,0-0.2,0-0.3-0.1c-0.1,0-0.1-0.1-0.1-0.1
				c0-0.2,0-0.4,0-0.5c0-0.2,0-0.3,0-0.5c0-0.3,0-0.6-0.1-0.8c-0.1-0.2-0.3-0.3-0.5-0.3c-0.4,0-0.7,0.3-1,0.8
				c-0.3,0.5-0.4,1.3-0.5,2.3c0,0.5-0.1,1-0.1,1.5c0,0.6-0.1,1.1-0.1,1.7s-0.1,1-0.1,1.4c0,0.4,0,0.7,0,0.8c0,0.1,0,0.2-0.1,0.3
				c-0.1,0.1-0.2,0.1-0.3,0.1h-0.8c-0.4,0-0.8,0-1.1-0.1c-0.3-0.1-0.5-0.2-0.7-0.4c-0.2-0.2-0.3-0.4-0.3-0.6
				c-0.1-0.2-0.1-0.5-0.1-0.9c0-0.2,0-0.5,0-0.9c0-0.4,0.1-0.9,0.1-1.6c0.1-0.7,0.1-1.6,0.2-2.6c0.1-1.1,0.2-2.4,0.3-3.9
				c0-0.4,0.2-0.6,0.4-0.6h0.8c0.4,0,0.7,0,1,0.1s0.5,0.2,0.7,0.4c0.2,0.1,0.3,0.3,0.4,0.5c0.1,0.2,0.1,0.4,0.2,0.6
				c0.2-0.3,0.4-0.6,0.6-0.8c0.2-0.2,0.5-0.4,0.7-0.6c0.3-0.1,0.5-0.3,0.8-0.3c0.3-0.1,0.5-0.1,0.7-0.1c0.3,0,0.5,0.1,0.8,0.1
				c0.3,0.1,0.5,0.2,0.8,0.4c0.2,0.2,0.4,0.5,0.5,0.8c0.1,0.3,0.2,0.7,0.2,1.1c0,0.4-0.1,0.7-0.2,1.1c-0.1,0.3-0.3,0.6-0.5,0.9
				c-0.2,0.3-0.5,0.5-0.8,0.6C504.5,436.8,504.1,436.9,503.8,436.9z"/>
			<path class="st7" d="M509.6,443.7c-0.9,0-1.5-0.2-1.9-0.7c-0.4-0.5-0.6-1.2-0.6-2.3c0-0.2,0-0.4,0-0.6c0-0.3,0-0.6,0.1-1
				c0-0.4,0.1-0.9,0.1-1.5c0.1-0.6,0.1-1.3,0.2-2.2c0.1-0.9,0.1-1.9,0.2-3c0.1-1.2,0.2-2.5,0.2-4c0-0.3,0-0.5,0.1-0.6
				c0,0,0.2-0.1,0.3-0.1h0.8c0.4,0,0.8,0.1,1.1,0.1c0.3,0.1,0.5,0.2,0.7,0.4c0.2,0.2,0.3,0.4,0.4,0.6c0.1,0.2,0.1,0.5,0.1,0.7
				c0,0.3,0,0.7-0.1,1.2c0,0.5-0.1,1.1-0.1,1.8c-0.1,0.7-0.1,1.4-0.2,2.1c-0.1,0.7-0.1,1.4-0.2,2.1c-0.1,0.7-0.1,1.3-0.1,1.8
				c0,0.5-0.1,0.9-0.1,1.2c0,0.4,0.1,0.6,0.2,0.8c0.1,0.2,0.3,0.3,0.4,0.3s0.3,0.1,0.4,0.1c0.1,0,0.2,0.1,0.2,0.1
				c0,0.3,0,0.6-0.1,0.9c-0.1,0.3-0.2,0.6-0.4,0.8s-0.4,0.4-0.8,0.6C510.5,443.6,510.1,443.7,509.6,443.7z"/>
			<path class="st7" d="M517.4,443.7c-0.6,0-1.1-0.1-1.6-0.3c-0.5-0.2-0.9-0.5-1.3-0.9c-0.4-0.4-0.7-1-0.9-1.6
				c-0.2-0.7-0.3-1.4-0.3-2.4c0-0.4,0-0.9,0.1-1.4c0.1-0.5,0.2-1,0.3-1.5c0.1-0.5,0.3-1,0.6-1.5c0.3-0.5,0.6-0.9,1-1.3
				c0.4-0.4,0.9-0.7,1.4-0.9c0.5-0.2,1.2-0.3,1.9-0.3c0.7,0,1.3,0.1,1.7,0.4c0.4,0.2,0.7,0.7,0.8,1.3c0-0.6,0.1-1,0.1-1.5
				c0-0.4,0.1-0.8,0.1-1.2c0-0.4,0-0.7,0.1-1.1c0-0.4,0.1-0.8,0.1-1.2c0-0.3,0-0.5,0.1-0.6c0,0,0.1,0,0.1-0.1c0,0,0.1,0,0.2,0h0.8
				c0.4,0,0.8,0.1,1.1,0.1c0.3,0.1,0.5,0.2,0.7,0.4c0.2,0.2,0.3,0.4,0.4,0.6c0.1,0.2,0.1,0.5,0.1,0.7c-0.1,0.7-0.1,1.4-0.1,2
				c0,0.6-0.1,1.3-0.1,2c-0.1,0.8-0.1,1.5-0.2,2.3c-0.1,0.8-0.1,1.6-0.2,2.4c-0.1,0.8-0.1,1.5-0.2,2.2c-0.1,0.7-0.1,1.2-0.1,1.7
				c0,0.5-0.1,0.8-0.1,0.9c0,0.2-0.1,0.3-0.1,0.3c0,0.1-0.2,0.1-0.4,0.1h-0.8c-0.3,0-0.6,0-0.8-0.1c-0.3-0.1-0.5-0.1-0.7-0.3
				c-0.2-0.1-0.3-0.3-0.4-0.5c-0.1-0.2-0.2-0.5-0.2-0.8c-0.3,0.5-0.6,1-1.2,1.3C518.9,443.5,518.2,443.7,517.4,443.7z M519.3,434.4
				c-0.7,0-1.3,0.3-1.6,0.9c-0.3,0.6-0.5,1.5-0.5,2.6c0,0.4,0,0.7,0.1,1.1c0,0.4,0.1,0.7,0.3,1c0.1,0.3,0.3,0.5,0.5,0.7
				c0.2,0.2,0.5,0.3,0.8,0.3c0.6,0,1.1-0.3,1.5-0.9c0.4-0.6,0.6-1.5,0.6-2.8c0-0.4,0-0.7-0.1-1c0-0.3-0.1-0.6-0.3-0.9
				c-0.1-0.3-0.3-0.5-0.5-0.6C519.9,434.5,519.7,434.4,519.3,434.4z"/>
		</g>
	</g>
	<g>
		<path class="st28" d="M262.1,145.5l-17,2.3c-1.5,0.2-2.9-0.9-3.2-2.4l0,0c-0.2-1.5,0.9-2.9,2.4-3.2l17-2.3
			c1.5-0.2,2.9,0.9,3.2,2.4l0,0C264.7,143.9,263.6,145.3,262.1,145.5z"/>
		<path class="st1" d="M261.7,140c1.4,0,2.6,1,2.8,2.4c0.2,1.5-0.9,2.9-2.4,3.2l-17,2.3c-0.1,0-0.2,0-0.4,0c-1.4,0-2.6-1-2.8-2.4
			c-0.2-1.5,0.9-2.9,2.4-3.2l17-2.3C261.5,140,261.6,140,261.7,140 M261.7,137.3c-0.2,0-0.5,0-0.7,0l-17,2.3c-3,0.4-5.1,3.2-4.7,6.2
			c0.4,2.7,2.7,4.8,5.4,4.8c0.2,0,0.5,0,0.7,0l17-2.3c1.4-0.2,2.7-0.9,3.6-2.1s1.3-2.6,1.1-4.1C266.8,139.3,264.5,137.3,261.7,137.3
			L261.7,137.3z"/>
	</g>
	<g>
		<path class="st28" d="M351.1,184.3l-8.6,14.8c-0.8,1.3-2.5,1.8-3.8,1h0c-1.3-0.8-1.8-2.5-1-3.8l8.6-14.8c0.8-1.3,2.5-1.8,3.8-1
			l0,0C351.4,181.2,351.8,182.9,351.1,184.3z"/>
		<path class="st1" d="M348.6,180.1c0.5,0,1,0.1,1.4,0.4c1.3,0.8,1.8,2.5,1,3.8l-8.6,14.8c-0.5,0.9-1.5,1.4-2.4,1.4
			c-0.5,0-1-0.1-1.4-0.4c-1.3-0.8-1.8-2.5-1-3.8l8.6-14.8C346.7,180.6,347.7,180.1,348.6,180.1 M348.6,177.4L348.6,177.4
			c-2,0-3.8,1-4.8,2.7l-8.6,14.8c-0.7,1.3-0.9,2.7-0.5,4.2c0.4,1.4,1.3,2.6,2.6,3.3c0.8,0.5,1.8,0.7,2.7,0.7c2,0,3.8-1,4.8-2.7
			l8.6-14.8c1.5-2.6,0.6-6-2-7.5C350.5,177.7,349.6,177.4,348.6,177.4L348.6,177.4z"/>
	</g>
	<g>
		<path class="st29" d="M314.1,113.4l8.6,14.8c0.8,1.3,0.3,3.1-1,3.8l0,0c-1.3,0.8-3.1,0.3-3.8-1l-8.6-14.8c-0.8-1.3-0.3-3.1,1-3.8
			v0C311.6,111.6,313.3,112.1,314.1,113.4z"/>
		<path class="st1" d="M311.7,112c1,0,1.9,0.5,2.4,1.4l8.6,14.8c0.8,1.3,0.3,3.1-1,3.8c-0.4,0.3-0.9,0.4-1.4,0.4
			c-1,0-1.9-0.5-2.4-1.4l-8.6-14.8c-0.8-1.3-0.3-3.1,1-3.8C310.7,112.1,311.2,112,311.7,112 M311.7,109.4c-1,0-1.9,0.3-2.7,0.7
			c-2.6,1.5-3.5,4.9-2,7.5l8.6,14.8c1,1.7,2.8,2.7,4.8,2.7c1,0,1.9-0.3,2.7-0.7c1.3-0.7,2.2-1.9,2.6-3.3c0.4-1.4,0.2-2.9-0.5-4.2
			l-8.6-14.8C315.4,110.4,313.6,109.4,311.7,109.4L311.7,109.4z"/>
	</g>
	<g>
		<path class="st30" d="M297.2,179.1l17.1,1.2c1.5,0.1,2.7,1.5,2.6,3v0c-0.1,1.5-1.5,2.7-3,2.6l-17.1-1.2c-1.5-0.1-2.7-1.5-2.6-3v0
			C294.3,180.2,295.7,179,297.2,179.1z"/>
		<path class="st1" d="M297,179.1c0.1,0,0.1,0,0.2,0l17.1,1.2c1.5,0.1,2.7,1.5,2.6,3c-0.1,1.5-1.3,2.6-2.8,2.6c-0.1,0-0.1,0-0.2,0
			l-17.1-1.2c-1.5-0.1-2.7-1.5-2.6-3C294.3,180.2,295.6,179.1,297,179.1 M297,176.4L297,176.4c-2.9,0-5.3,2.2-5.5,5.1
			c-0.1,1.5,0.4,2.9,1.3,4c1,1.1,2.3,1.8,3.8,1.9l17.1,1.2c0.1,0,0.3,0,0.4,0c2.9,0,5.3-2.2,5.5-5.1c0.2-3-2.1-5.6-5.1-5.8
			l-17.1-1.2C297.3,176.4,297.2,176.4,297,176.4L297,176.4z"/>
	</g>
	<g>
		<path class="st28" d="M303.2,247L320,244c1.5-0.3,3,0.8,3.2,2.3l0,0c0.3,1.5-0.8,3-2.3,3.2l-16.9,2.9c-1.5,0.3-3-0.8-3.2-2.3l0,0
			C300.6,248.7,301.7,247.2,303.2,247z"/>
		<path class="st1" d="M320.5,244c1.3,0,2.5,1,2.8,2.3c0.3,1.5-0.8,3-2.3,3.2l-16.9,2.9c-0.2,0-0.3,0-0.5,0c-1.3,0-2.5-1-2.8-2.3
			c-0.3-1.5,0.8-3,2.3-3.2L320,244C320.2,244,320.4,244,320.5,244 M320.5,241.3L320.5,241.3c-0.3,0-0.6,0-0.9,0.1l-16.9,2.9
			c-3,0.5-5,3.4-4.5,6.3c0.5,2.6,2.7,4.5,5.4,4.5c0.3,0,0.6,0,0.9-0.1l16.9-2.9c1.4-0.2,2.7-1,3.5-2.2c0.8-1.2,1.2-2.7,0.9-4.1
			C325.5,243.2,323.2,241.3,320.5,241.3L320.5,241.3z"/>
	</g>
	<g>
		<path class="st30" d="M217.8,177.5l14.8,8.6c1.3,0.8,1.8,2.5,1,3.8l0,0c-0.8,1.3-2.5,1.8-3.8,1l-14.8-8.6c-1.3-0.8-1.8-2.5-1-3.8
			l0,0C214.8,177.2,216.5,176.7,217.8,177.5z"/>
		<path class="st1" d="M216.5,177.1c0.5,0,1,0.1,1.4,0.4l14.8,8.6c1.3,0.8,1.8,2.5,1,3.8c-0.5,0.9-1.5,1.4-2.4,1.4
			c-0.5,0-1-0.1-1.4-0.4l-14.8-8.6c-1.3-0.8-1.8-2.5-1-3.8C214.5,177.6,215.5,177.1,216.5,177.1 M216.5,174.5L216.5,174.5
			c-2,0-3.8,1-4.8,2.7c-1.5,2.6-0.6,6,2,7.5l14.8,8.6c0.8,0.5,1.8,0.7,2.7,0.7c2,0,3.8-1,4.8-2.7c0.7-1.3,0.9-2.7,0.5-4.2
			c-0.4-1.4-1.3-2.6-2.6-3.3l-14.8-8.6C218.4,174.7,217.4,174.5,216.5,174.5L216.5,174.5z"/>
	</g>
	<g>
		<path class="st29" d="M274,207l-16.6,4.2c-1.5,0.4-3-0.5-3.4-2v0c-0.4-1.5,0.5-3,2-3.4l16.6-4.2c1.5-0.4,3,0.5,3.4,2l0,0
			C276.4,205.1,275.5,206.7,274,207z"/>
		<path class="st1" d="M273.3,201.5c1.3,0,2.4,0.8,2.7,2.1c0.4,1.5-0.5,3-2,3.4l-16.6,4.2c-0.2,0.1-0.5,0.1-0.7,0.1
			c-1.3,0-2.4-0.8-2.7-2.1c-0.4-1.5,0.5-3,2-3.4l16.6-4.2C272.9,201.5,273.1,201.5,273.3,201.5 M273.3,198.8c-0.5,0-0.9,0.1-1.3,0.2
			l-16.6,4.2c-2.9,0.7-4.7,3.7-4,6.7c0.6,2.4,2.8,4.1,5.3,4.1c0.5,0,0.9-0.1,1.3-0.2l16.6-4.2c2.9-0.7,4.7-3.7,4-6.7
			C278,200.5,275.8,198.8,273.3,198.8L273.3,198.8z"/>
	</g>
	<g>
		<path class="st29" d="M187.5,178.7l0.7,17.1c0.1,1.5-1.1,2.9-2.7,2.9h0c-1.5,0.1-2.9-1.1-2.9-2.7l-0.7-17.1
			c-0.1-1.5,1.1-2.9,2.7-2.9l0,0C186.1,176,187.4,177.2,187.5,178.7z"/>
		<path class="st1" d="M184.7,176c1.5,0,2.7,1.2,2.8,2.7l0.7,17.1c0.1,1.5-1.1,2.9-2.7,2.9c0,0-0.1,0-0.1,0c-1.5,0-2.7-1.2-2.8-2.7
			l-0.7-17.1c-0.1-1.5,1.1-2.9,2.7-2.9C184.6,176,184.7,176,184.7,176 M184.7,173.4c-0.1,0-0.2,0-0.2,0c-3,0.1-5.4,2.7-5.2,5.7
			l0.7,17.1c0.1,2.9,2.5,5.2,5.5,5.2c0.1,0,0.2,0,0.2,0c3-0.1,5.4-2.7,5.2-5.7l-0.7-17.1C190.1,175.7,187.7,173.4,184.7,173.4
			L184.7,173.4z"/>
	</g>
	<g>
		<path class="st30" d="M350.1,266l9.9,14c0.9,1.3,0.6,3-0.7,3.9v0c-1.3,0.9-3,0.6-3.9-0.7l-9.9-14c-0.9-1.3-0.6-3,0.7-3.9l0,0
			C347.4,264.4,349.2,264.7,350.1,266z"/>
		<path class="st1" d="M347.8,264.8c0.9,0,1.8,0.4,2.3,1.2l9.9,14c0.9,1.3,0.6,3-0.7,3.9c-0.5,0.3-1.1,0.5-1.6,0.5
			c-0.9,0-1.8-0.4-2.3-1.2l-9.9-14c-0.9-1.3-0.6-3,0.7-3.9C346.7,264.9,347.2,264.8,347.8,264.8 M347.8,262.1L347.8,262.1
			c-1.1,0-2.2,0.3-3.2,1c-1.2,0.8-2,2.1-2.2,3.5c-0.2,1.4,0.1,2.9,0.9,4.1l9.9,14c1,1.5,2.7,2.3,4.5,2.3c1.1,0,2.2-0.3,3.2-1
			c1.2-0.8,2-2.1,2.2-3.5c0.2-1.4-0.1-2.9-0.9-4.1l-9.9-14C351.3,263,349.6,262.1,347.8,262.1L347.8,262.1z"/>
	</g>
</g>
</svg>
