<?xml version="1.0" encoding="utf-8"?>
<!-- Generator: Adobe Illustrator 23.0.1, SVG Export Plug-In . SVG Version: 6.00 Build 0)  -->
<svg version="1.1" id="Layer_1" xmlns="http://www.w3.org/2000/svg" xmlns:xlink="http://www.w3.org/1999/xlink" x="0px" y="0px"
	 viewBox="0 0 600 600" style="enable-background:new 0 0 600 600;" xml:space="preserve">
<style type="text/css">
	.st0{fill:#36A9E1;}
	.st1{fill:#1D1D1B;}
	.st2{fill:#2E5227;}
	.st3{fill:#231F20;}
	.st4{fill:#977E63;}
	.st5{fill:#771914;}
	.st6{fill:#DF4336;}
	.st7{fill:#FFFFFF;}
	.st8{fill:#DE4435;}
	.st9{fill:url(#SVGID_1_);}
	.st10{fill:url(#SVGID_2_);}
	.st11{fill:url(#SVGID_3_);}
	.st12{fill:#404041;}
	.st13{fill:url(#SVGID_4_);}
	.st14{fill:url(#SVGID_5_);}
	.st15{fill:url(#SVGID_6_);}
	.st16{fill:url(#SVGID_7_);}
	.st17{fill:url(#SVGID_8_);}
	.st18{fill:url(#SVGID_9_);}
	.st19{fill:url(#SVGID_10_);}
	.st20{fill:url(#SVGID_11_);}
	.st21{fill:url(#SVGID_12_);}
	.st22{fill:#EC1C24;}
	.st23{fill:none;stroke:#1D1D1B;stroke-width:4.0818;stroke-miterlimit:10;}
	.st24{fill:#C99D66;}
	.st25{fill:#35A8E0;}
	.st26{fill:#2DAB66;}
	.st27{fill:none;stroke:#1D1D1B;stroke-width:3.4123;stroke-linejoin:round;stroke-miterlimit:10;}
	.st28{fill:#E20613;}
	.st29{fill:#FCEA0D;}
	.st30{fill:#F094BD;}
	.st31{fill:#E5332A;}
	.st32{fill:#E84E1B;}
	.st33{fill:#F29100;}
	.st34{fill:#F8B133;}
	.st35{fill:#008D36;}
	.st36{fill:#006633;}
	.st37{fill:#39A935;}
	.st38{fill:#1D3763;}
	.st39{fill:url(#SVGID_13_);}
	.st40{fill:url(#SVGID_14_);}
	.st41{fill:url(#SVGID_15_);}
	.st42{fill:url(#SVGID_16_);}
	.st43{fill:url(#SVGID_17_);}
	.st44{fill:url(#SVGID_18_);}
	.st45{fill:url(#SVGID_19_);}
	.st46{fill:url(#SVGID_20_);}
	.st47{fill:url(#SVGID_21_);}
	.st48{fill:none;}
	.st49{fill:#93C01F;}
	.st50{fill:#81358A;}
	.st51{fill:#4B2C15;}
	.st52{fill:#79A242;}
	.st53{fill:#613917;stroke:#613917;stroke-width:0.3451;stroke-miterlimit:10;}
	.st54{fill:#8D8C8C;stroke:#8D8C8C;stroke-width:0.3451;stroke-miterlimit:10;}
	.st55{fill:#273577;}
	.st56{fill:#6C1510;}
	.st57{fill:#185126;}
</style>
<g>
	<g>
		<path class="st4" d="M341.7,215.4c0.1,4.1,3.5,7.5,7.7,7.5h3.4c4.3,0,7.7-3.5,7.7-7.7V194c0-4.3-3.5-7.7-7.7-7.7h-3.4
			c-3.8,0-7,2.8-7.6,6.5c-0.4,0-0.8-0.1-1.1-0.1c-2.8,0-5.4,0.9-7.6,2.7c-0.6-0.5-1.2-0.9-1.9-1.2v5.6c0.1,0.1,0.3,0.2,0.4,0.4
			l9.6,10.5c-3.1,2-7.2,1.7-10-1.1v5.6c1.8,1,3.7,1.4,5.7,1.4C338.5,216.5,340.1,216.1,341.7,215.4z M346.3,194
			c0-1.7,1.4-3.1,3.1-3.1h3.4c1.7,0,3.1,1.4,3.1,3.1v21.1c0,1.7-1.4,3.1-3.1,3.1h-3.4c-1.7,0-3.1-1.4-3.1-3.1V194z M336.3,198.6
			c1.3-0.8,2.8-1.3,4.3-1.3c0.3,0,0.7,0.1,1,0.1v7L336.3,198.6z"/>
		<path class="st4" d="M395.6,272.2l-19-9.2c-1.9-0.9-4-1-5.9-0.4c-2,0.7-3.5,2.1-4.4,3.9l-1.5,3.1c-0.9,1.9-1,4-0.3,5.9
			c0.7,1.9,2,3.5,3.9,4.4c-0.1,0.2-0.3,0.4-0.4,0.7c-1.4,2.2-1.9,4.8-1.8,7.6c-0.7,0.2-1.4,0.4-2.1,0.7l0,0
			c-1.7,0.8-3.2,1.9-4.5,3.3c-0.9,1-1.5,2.1-2,3.3c-0.5,1.2-0.9,2.4-1,3.8c-0.8,0.1-1.4,0.2-2.2,0.4l0.7,0.8l-0.7-0.8
			c-1.9,0.4-3.6,1.2-5,2.4c-2.1,1.5-3.5,3.8-4.4,6.4c-0.8-0.1-1.5-0.1-2.2-0.1l2.3,3.8l-2.3-3.8c-1.9,0.2-3.8,0.5-5.4,1.4
			c-1.1,0.7-2.2,1.3-3.1,2.3c-0.9,0.9-1.7,2.1-2.4,3.2c-0.7-0.2-1.5-0.4-2.2-0.5l0,0c-1-0.1-1.9-0.2-2.8-0.1c-0.9,0-1.9,0.2-2.8,0.4
			c-2.5,0.8-4.7,2.2-6.4,4.4c-0.7-0.3-1.3-0.7-2-0.9v0c-1.3-0.5-2.6-0.7-3.9-0.7c0,0,0,0,0,0c0.8-1.9,1.3-4,1.3-6.1
			c0-3.1-0.9-6.1-2.7-8.6c0.5-0.7,0.9-1.4,1.2-2.1h0c0.9-2,1.4-4.2,1.4-6.4c0-3.1-0.9-6.1-2.7-8.6c0.5-0.7,0.9-1.4,1.2-2.1h0
			c0.9-2,1.4-4.2,1.4-6.4c0-3.1-0.9-6.1-2.7-8.6c0.5-0.7,0.9-1.4,1.2-2.1h0c0.9-2,1.4-4.2,1.4-6.4c0-3.1-0.9-6.1-2.7-8.6
			c0.5-0.7,0.9-1.4,1.2-2.1h0c0.9-2,1.4-4.2,1.4-6.4c0-3.1-0.9-6.1-2.7-8.6c0.5-0.7,0.9-1.4,1.2-2.1h0c0.9-2,1.4-4.2,1.4-6.4
			c0-3.1-0.9-6.1-2.7-8.6c0.5-0.7,0.9-1.4,1.2-2.1h0v0c1-0.4,1.9-1,2.8-1.7c0.6,0.5,1.2,0.9,1.9,1.3c1.8,1,3.7,1.4,5.7,1.4
			c2.7,0,5.3-0.9,7.6-2.7c0.6,0.5,1.2,0.9,1.9,1.3v-5.6c-0.1-0.1-0.3-0.3-0.4-0.4l-9.6-10.5c1.3-0.8,2.8-1.3,4.4-1.3
			c2.1,0,4.1,0.8,5.7,2.4v-5.6c-1.7-0.9-3.7-1.4-5.7-1.4c-2.8,0-5.4,0.9-7.6,2.7c-0.6-0.5-1.2-0.9-1.9-1.2v0c-1-0.6-2.1-1-3.3-1.1
			c0-0.3,0-0.7,0-1c0-3.1-1-6.1-2.7-8.6c0.5-0.7,0.9-1.4,1.3-2.1c0.8-1.7,1.3-3.7,1.4-5.6c1.3-1,2.3-2.1,3-3.4
			c1.1-0.1,2.2-0.4,3.3-0.9h0l0,0c2.9-1.2,5.8-3.5,7.7-6.6c2.7-4.3,3.2-9.5,1.9-13.2c0.6-0.9,1-2,1.4-3.1h0c0.9-3,0.9-6.7-0.3-10.2
			c-1.7-4.8-5.4-8.4-9.2-9.7c-0.4-1-0.9-2.1-1.6-3.1l0,0c-1.8-2.6-4.7-4.9-8.1-6.1c-4.8-1.7-9.9-1-13.3,1.1c-1-0.3-2.2-0.6-3.4-0.7
			l0,0c-3.2-0.3-6.8,0.6-9.9,2.6c-4.3,2.6-7,7.1-7.4,11.1c-0.9,0.6-1.9,1.3-2.6,2.2l0,0c-2.2,2.3-3.8,5.7-4.2,9.3
			c-0.6,5,1.2,9.9,4.1,12.7c-0.1,1.1-0.1,2.3,0.1,3.4l0,0c0.5,3.1,2.1,6.4,4.7,9c3,3,7,4.7,10.6,4.8c0.4,1.4,1.1,2.8,2,4
			c-0.5,0.7-0.9,1.4-1.3,2.1h0c-1,2-1.4,4.2-1.4,6.4c0,2.1,0.4,4.2,1.3,6.1c-0.9,0.4-1.8,1-2.6,1.6c-0.6-0.5-1.2-0.9-1.9-1.2v0
			c-1.7-0.9-3.7-1.4-5.7-1.4c-2.7,0-5.4,0.9-7.6,2.7c-0.6-0.5-1.2-0.9-1.9-1.2v5.6c0.1,0.1,0.3,0.2,0.4,0.4l9.6,10.5
			c-3.1,2-7.2,1.7-10-1v5.6c1.8,1,3.7,1.4,5.7,1.4c2.7,0,5.3-0.9,7.6-2.7c0.6,0.5,1.2,0.9,1.9,1.3c1.3,0.7,2.8,1.2,4.3,1.3
			c-0.7,1.8-1.1,3.6-1.1,5.5c0,3,0.9,6,2.7,8.6c-0.5,0.7-0.9,1.4-1.2,2.1h0c-1,2-1.4,4.2-1.4,6.4c0,3,0.9,6,2.7,8.6
			c-0.5,0.7-0.9,1.4-1.2,2.1h0c-1,2-1.4,4.2-1.4,6.4c0,3,0.9,6,2.7,8.6c-0.5,0.7-0.9,1.4-1.2,2.1h0c-1,2-1.4,4.2-1.4,6.4
			c0,3,0.9,6,2.7,8.6c-0.5,0.7-0.9,1.4-1.2,2.1h0c-1,2-1.4,4.2-1.4,6.4c0,3,0.9,6,2.7,8.6c-0.5,0.7-0.9,1.4-1.2,2.1h0
			c-1,2-1.4,4.2-1.4,6.4c0,3,0.9,6,2.7,8.6c-0.5,0.7-0.9,1.4-1.2,2.1h5.6c0.1-0.1,0.2-0.3,0.4-0.4l10.5-10.9
			c0.8,1.5,1.3,3.2,1.3,4.9c0,2.4-0.8,4.6-2.4,6.4h2.5c0,0,0,0,0,0h-2.5c-0.1,0.1-0.2,0.3-0.4,0.4l-1.5,1.6c0,0,0,0,0,0
			c-0.4,0.3-0.7,0.5-1.1,0.8c-0.6-0.5-1.2-0.9-1.9-1.2c-1.6-0.9-3.3-1.5-5-1.6c0,0,0.1-0.1,0.1-0.1h-5.5c-0.1,0.3-0.3,0.6-0.4,0.9
			c-0.7,0.3-1.4,0.6-2.1,1c-0.5-0.6-1-1.1-1.6-1.5v0c-1.5-1.1-3.1-2.2-5-2.5c-1.3-0.2-2.5-0.5-3.8-0.4c-1.3,0.1-2.6,0.4-3.9,0.8
			c-0.4-0.6-0.8-1.3-1.3-1.8l0,0c-0.6-0.7-1.3-1.4-2.1-1.9c-0.7-0.6-1.5-1.1-2.4-1.5c-2.4-1-4.9-1.5-7.7-0.9c-0.3-0.7-0.6-1.4-0.9-2
			l0,0c-0.9-1.7-2.2-3-3.7-4.2c-1-0.8-2.2-1.3-3.5-1.7c-1.2-0.4-2.5-0.7-3.9-0.7c-0.1-0.7-0.3-1.4-0.6-2.1l0,0
			c-0.6-1.8-1.5-3.5-2.9-4.8c-1.7-1.9-4.1-3.1-6.8-3.7c0-0.8,0-1.5-0.1-2.2l0,0c-0.1-1-0.4-1.9-0.7-2.7c-0.3-0.9-0.7-1.8-1.2-2.5
			c-1.1-1.5-2.4-2.9-4.1-3.9c1.7-0.9,3-2.4,3.6-4.2c0.7-2,0.6-4.1-0.4-5.9l-1.5-3.1c-0.9-1.9-2.5-3.3-4.4-3.9
			c-2-0.7-4.1-0.6-5.9,0.4l-19,9.2c-3.8,1.9-5.4,6.5-3.6,10.3l1.5,3.1c1.3,2.8,4.1,4.4,7,4.4c1,0,2-0.2,2.9-0.6
			c0.4,1.2,0.8,2.3,1.4,3.4c1.7,2.8,4.3,5.1,7.3,6.2c0,0.9,0.2,1.7,0.4,2.6l0,0c0.5,2.3,1.6,4.5,3.3,6.3c1.1,1.2,2.3,2.4,3.7,3.2
			c1.4,0.8,3,1.4,4.6,1.7c0.2,0.8,0.4,1.7,0.8,2.5l3.7-4.1c0-0.2-0.1-0.4-0.1-0.6c-0.1-2.6-0.2-5.1-0.2-7.5c0-2.4,0.3-4.9,0.5-7.3
			c1.5,0.4,2.8,1.3,3.9,2.4c1.5,1.5,2.3,3.5,2.5,5.7l0,0c0,0.2,0,0.3,0,0.5c0.1,2.4,0.3,4.8,0.5,7.3c0.3,2.4,0.7,4.9,1.2,7.4
			c-2-0.3-4.1-1.2-5.6-2.6c-1.5-1.5-2.5-3.4-2.8-5.4l-3.7,4.1c1,2.1,2.5,4.1,4.4,5.6c2.7,1.9,5.8,3.3,9.1,3.1
			c0.4,0.8,0.8,1.5,1.3,2.3l0,0c1.3,2,3.3,3.5,5.4,4.7c1.4,0.8,3.1,1.3,4.7,1.5c1.6,0.2,3.2,0.3,4.8-0.1c0.5,0.7,1.1,1.4,1.7,2l0,0
			c0.9,0.8,1.8,1.6,2.8,2.2c1,0.6,2.2,1,3.3,1.4c3.1,1,6.6,0.8,9.6-0.3c0.6,0.7,1.3,1.2,2,1.6c2,1.3,4.3,2.3,6.7,2.4
			c1.6,0.2,3.3,0.1,4.9-0.2c1.6-0.4,3.1-1,4.5-1.9c0.7,0.5,1.5,0.9,2.3,1.3c2.2,0.9,4.6,1.3,7,1.2c3.3-0.3,6.5-1.5,8.8-3.7
			c0.8,0.3,1.6,0.6,2.5,0.8c2.3,0.7,4.7,0.5,7.1,0c1.6-0.3,3.1-1.1,4.5-2c1.4-0.9,2.6-1.9,3.6-3.3c0.8,0.2,1.7,0.3,2.6,0.4h0
			c1.2,0.1,2.4,0,3.6-0.2c1.2-0.3,2.3-0.6,3.4-1.1c3-1.3,5.5-3.8,7-6.6c0.9,0.1,1.7,0,2.6-0.1l-2.9-4.7c-0.2,0-0.4-0.1-0.6-0.1
			c-5-1.1-9.7-2.5-14.1-4.4c0.9-1.3,2.1-2.3,3.4-3.1c1.8-1,4-1.1,6.2-0.8h0c0.2,0,0.3,0.1,0.5,0.1c4.7,1.3,9.5,2,14.7,2.5
			c-0.8,1.9-2.3,3.5-4.1,4.6c-1.8,1.1-4,1.4-6,1.2l2.9,4.7c2.3-0.4,4.7-1.2,6.6-2.6c1.3-1,2.5-2.1,3.5-3.4c0.9-1.3,1.6-2.9,2.1-4.4
			c0.9-0.1,1.7-0.3,2.6-0.6l0,0c2.2-0.8,4.3-2.1,6-3.8c2.2-2.4,3.8-5.5,4-8.7c0.8-0.3,1.6-0.6,2.4-1.1l0,0c1-0.6,2-1.3,2.9-2.1
			c0.8-0.8,1.6-1.8,2.3-2.8c1.5-2.1,2.3-4.7,2.4-7.2c0.8,0.3,1.7,0.5,2.5,0.5c2.9,0,5.6-1.6,7-4.4l1.5-3.1h0
			C401.1,278.7,399.5,274.1,395.6,272.2z M210.6,285c-1.5,0.7-3.4,0.1-4.1-1.4l-1.5-3.1c-0.7-1.5-0.1-3.4,1.4-4.1l19-9.2
			c0.7-0.4,1.6-0.4,2.4-0.1c0.8,0.3,1.4,0.8,1.8,1.6l1.5,3.1c0.4,0.7,0.4,1.6,0.1,2.4c-0.3,0.8-0.8,1.4-1.6,1.8L210.6,285z
			 M221.5,294c-2.6-1.3-4.4-3.9-4.9-6.7l7.3-3.5C222.8,287.1,222,290.5,221.5,294z M233.6,292.3L233.6,292.3c0,0.2,0,0.4-0.1,0.5
			c-0.4,2.4-0.7,4.9-0.8,7.3c-0.1,2.4-0.3,5.1-0.2,7.6c-4-1.2-7-5.2-6.7-9.5h0c0-0.2,0-0.4,0-0.6l0.5-3.7l0.7-3.7
			c0.5-2.4,1-4.7,1.8-7.1c1.3,0.8,2.6,1.7,3.4,3.1c0.6,0.9,1,1.9,1.2,2.9C233.6,290.1,233.7,291.2,233.6,292.3z M310.4,197.3
			c0.5,0,0.9,0,1.4,0.1c1.6,0.3,3,1,4.3,2.2c0.1,0.1,0.3,0.2,0.4,0.4l9.6,10.5c-3.1,2-7.2,1.7-10-1c-0.1-0.1-0.3-0.3-0.4-0.4
			l-3.2-3.5l-6.4-7c0.2-0.1,0.3-0.2,0.5-0.3C307.7,197.7,309.1,197.3,310.4,197.3z M300.4,193.8l6.6-6.8c0.8,1.5,1.3,3.2,1.3,4.9
			c0,0.3,0,0.7-0.1,1c-1.9,0.4-3.7,1.2-5.3,2.5c-0.6-0.5-1.2-0.9-1.9-1.2v0C300.8,194,300.6,193.9,300.4,193.8z M295,192.6
			c-2-3.6-1.7-8.2,1-11.3c0.1-0.2,0.3-0.3,0.4-0.4l2-2.1c1.9,0.5,3.9,0.6,5.9,0.4c1.1-0.1,2.2-0.3,3.2-0.7c-0.4,1-1,2-1.7,2.9h0
			c-0.1,0.1-0.2,0.3-0.4,0.4L295,192.6z M323.1,162.4c-1.7,2.8-4.6,4.5-7.3,4.7l1.7,2.1l-1.7-2.1h-0.7c-1.7,0-3.3-0.2-4.8-0.6
			c-1.7-0.4-3.4-1.1-4.7-2c-1.4-0.9-2.7-1.9-3.6-3.1c2.2-2.2,4.1-2.6,7.7-2l0,0c0.2,0,0.3,0.1,0.5,0.1c2.2,0.5,4.6,0.4,7.1-0.1
			c2.5-0.6,5-1.7,7.4-3.5C324.8,158,324.4,160.4,323.1,162.4z M293.4,152.1L293.4,152.1c0.5-1.2,0.7-2,0.7-2.8
			c-0.1-1.1-0.9-2.2-2.2-4c0.6-0.2,1.1-0.3,1.5-0.4l0,0c1.2-0.4,2.1-0.7,2.6-1.3c0.8-0.8,1.1-2,1.7-4.2c0.5,0.3,0.9,0.6,1.3,0.9l0,0
			c1.1,0.8,1.9,1.2,2.7,1.3c1.1,0.1,2.3-0.4,4.3-1.2c0,0.6,0.1,1.1,0.1,1.6l0,0c0.1,1.3,0.2,2.2,0.7,2.9c0.6,0.9,1.8,1.5,3.7,2.6
			c-0.4,0.4-0.9,0.8-1.2,1.1h0c-1,0.9-1.6,1.5-1.9,2.3c-0.4,1-0.1,2.3,0.3,4.5c-0.6-0.1-1.1-0.2-1.6-0.3l0,0h0
			c-1.3-0.2-2.2-0.3-2.9,0c-1,0.4-1.9,1.4-3.4,3c-0.3-0.5-0.6-1-0.8-1.4c-0.7-1.1-1.1-1.9-1.8-2.3c-0.9-0.6-2.3-0.7-4.5-0.8
			C293,153,293.2,152.5,293.4,152.1L293.4,152.1z M321.5,134.6c1.7,1.1,3.3,3,4.1,5.3c1.1,3.1,0.6,6.4-0.9,8.6h0
			c-0.1,0.2-0.3,0.3-0.4,0.5c-1.8,2.2-3.9,3.9-6.1,5c-2.2,1.1-4.5,1.7-6.6,1.7c-0.4-3.2,0.5-4.8,3.3-7.2h0c0.1-0.1,0.2-0.2,0.4-0.3
			C318.7,145.4,321.3,140.5,321.5,134.6z M309.6,123.8c3.1,1.1,5.4,3.5,6.2,6.1l0,0c0.1,0.2,0.1,0.4,0.2,0.6
			c0.6,2.8,0.6,5.5,0.1,7.9c-0.5,2.4-1.5,4.5-2.8,6.2c-2.7-1.7-3.5-3.4-3.6-7.1c0-0.2,0-0.3,0-0.5c0-4.4-2.3-9.5-6.7-13.3
			C304.9,123,307.3,123,309.6,123.8z M287.1,126.4c2.8-1.8,6.1-2.1,8.6-1.1l-0.7-3.1l0.7,3.1c0.2,0.1,0.4,0.2,0.6,0.2
			c5.1,2.6,8.4,6.7,9.3,10.9c-2.9,1-4.9,0.6-7.8-1.6c-0.1-0.1-0.3-0.2-0.4-0.3c-3.5-2.8-8.8-4.1-14.6-3.1
			C283.5,129.6,285,127.7,287.1,126.4z M275,145.6c0.3-3.3,2.2-6.1,4.6-7.4h0c0.2-0.1,0.4-0.2,0.6-0.3c5.1-2.4,10.5-2.3,14.3-0.5
			c-1,3-2.6,4.1-6.1,5.1c-0.2,0-0.3,0.1-0.5,0.1c-4.3,1-8.8,4.3-11.5,9.5C275.3,150.3,274.8,148,275,145.6z M288.5,169.9
			c-2.1-0.2-4.2-1.3-6-3c-2.4-2.3-3.4-5.5-2.9-8.1l-2.9,1.4l2.9-1.4c0-0.2,0.1-0.4,0.1-0.6c1.3-5.5,4.7-9.6,8.5-11.5
			c0.8,1.3,1.2,2.5,1.3,3.7c0,1.2-0.4,2.6-1.1,4.2l4.3-2.1l-4.3,2.1c-0.1,0.1-0.1,0.3-0.2,0.4C286.3,159,286.1,164.5,288.5,169.9z
			 M291.6,157.3c3.1,0.4,4.6,1.6,6.3,4.8c0.1,0.1,0.1,0.3,0.2,0.4c1,1.9,2.4,3.7,4.3,5.2c1.2,1,2.6,1.9,4.1,2.6
			c0.3,0.1,0.6,0.3,0.9,0.4c0.8,0.3,1.7,0.6,2.6,0.9c-0.5,0.5-1.2,1-1.9,1.4c-1.2,0.7-2.7,1.2-4.2,1.4c-0.5,0-0.9,0.1-1.4,0.1
			c-1.9,0-3.7-0.6-5.1-1.5c-0.7-0.4-1.2-0.8-1.7-1.3c-0.1-0.2-0.3-0.3-0.4-0.5c-0.5-0.7-1-1.4-1.4-2.1c-1-1.6-1.7-3.3-2.1-5
			C291.2,161.7,291.1,159.4,291.6,157.3z M290.8,211.8c-1.8-0.1-3.5-0.9-5-2.3c-0.1-0.1-0.3-0.3-0.4-0.4l-9.6-10.5
			c1.3-0.8,2.8-1.3,4.4-1.3c2.1,0,4.1,0.8,5.7,2.4c0.1,0.1,0.2,0.2,0.4,0.4l2.9,3.2l5.7,6.2l0.1,0.2l0.8,0.9
			C294.3,211.5,292.5,212,290.8,211.8z M296,215.6c1.1-0.4,2.2-1,3.1-1.8c0.6,0.5,1.2,0.9,1.9,1.3c1.3,0.7,2.7,1.1,4,1.3
			c0,0,0,0,0,0l-10,10.4C293,223.3,293.4,218.8,296,215.6z M305.9,301.1L305.9,301.1c-0.1,0.1-0.2,0.3-0.4,0.4L295,312.4
			c-2-3.6-1.7-8.2,1.1-11.3h0c0.1-0.1,0.2-0.3,0.4-0.4l10.5-10.9c0.8,1.5,1.3,3.2,1.3,4.9C308.2,297.1,307.4,299.3,305.9,301.1z
			 M305.9,284L305.9,284c-0.1,0.1-0.2,0.3-0.4,0.4L295,295.3c-2-3.6-1.7-8.2,1.1-11.3h0c0.1-0.1,0.2-0.3,0.4-0.4l10.5-10.9
			c0.8,1.5,1.3,3.2,1.3,4.9C308.2,280,307.4,282.2,305.9,284z M305.9,266.9L305.9,266.9c-0.1,0.1-0.2,0.3-0.4,0.4L295,278.2
			c-2-3.6-1.7-8.2,1.1-11.3h0c0.1-0.1,0.2-0.3,0.4-0.4l10.5-10.9c0.8,1.5,1.3,3.2,1.3,4.9C308.2,262.8,307.4,265.1,305.9,266.9z
			 M305.9,249.7L305.9,249.7c-0.1,0.1-0.2,0.3-0.4,0.4L295,261.1c-2-3.6-1.7-8.2,1.1-11.3h0c0.1-0.1,0.2-0.3,0.4-0.4l10.5-10.9
			c0.8,1.5,1.3,3.2,1.3,4.9C308.2,245.7,307.4,247.9,305.9,249.7z M305.9,232.6L305.9,232.6c-0.1,0.1-0.2,0.3-0.4,0.4L295,243.9
			c-2-3.6-1.7-8.2,1.1-11.3h0c0.1-0.1,0.2-0.3,0.4-0.4l10.5-10.9c0.8,1.5,1.3,3.2,1.3,4.9C308.2,228.6,307.4,230.8,305.9,232.6z
			 M307.9,211.7c-2.2,0.3-4.6-0.3-6.4-1.8c-0.2-0.1-0.3-0.3-0.4-0.4l-0.4-0.4l-2.5-2.7l-4-4.4l-3.1-3.4c0.2-0.1,0.3-0.2,0.5-0.3
			c1.2-0.7,2.5-1,3.8-1c0.5,0,1.1,0,1.6,0.1c1.5,0.3,2.9,1.1,4.1,2.2c0.1,0.1,0.3,0.2,0.4,0.4l1.4,1.6l3.2,3.5l2.1,2.3l2.9,3.2
			C310,211.2,309,211.6,307.9,211.7z M255.2,326.3c-1.7-1.2-3.2-2.7-3.8-4.8c-0.1-0.2-0.1-0.4-0.2-0.6c-1.3-4.9-2.1-9.8-2.5-14.5
			c1.6,0.2,3.1,0.7,4.3,1.6c1.7,1.3,3,2.9,3.5,5.1h0c0,0.2,0.1,0.3,0.1,0.5c1.1,4.7,2.5,9.5,4.5,14.2
			C259,328,256.9,327.5,255.2,326.3z M271.6,333.1c-2-0.7-3.6-2.2-4.6-4l-1.4,3.7l1.4-3.7c-0.1-0.2-0.2-0.3-0.3-0.5
			c-1.1-2.2-2.1-4.6-2.9-6.9c-0.9-2.3-1.6-4.6-2.2-6.9c1.5-0.1,3.1,0.2,4.5,0.8c1,0.4,1.8,1.1,2.5,1.8c0.7,0.7,1.4,1.6,1.9,2.6
			l1-2.8l-1,2.8c0.1,0.2,0.1,0.3,0.2,0.5l1.5,3.4c0.5,1.1,1.1,2.2,1.7,3.3c1.2,2.2,2.4,4.4,3.9,6.5
			C275.7,334.1,273.5,333.9,271.6,333.1z M289,336.9c-2-0.4-3.9-1.6-5.3-3.1c-0.1-0.1-0.2-0.3-0.3-0.4c-3-4.1-5.5-8.3-7.6-12.7
			c1.5-0.5,3-0.3,4.6,0c2.1,0.4,3.8,1.8,5.1,3.5c0.1,0.1,0.2,0.3,0.3,0.4c1.4,2.1,3,4.2,4.6,6.3c1.2,1.5,2.5,3,3.9,4.6
			c0.2,0.3,0.5,0.5,0.7,0.8C293.2,337.1,291,337.2,289,336.9z M306.7,337.4c-2.1-0.1-4.1-0.8-5.7-2.1c-0.1-0.1-0.3-0.2-0.4-0.4
			c-0.7-0.7-1.4-1.4-2.1-2.1c-1.1-1.1-2.1-2.2-3.1-3.3c0,0-0.1-0.1-0.1-0.2l-0.8-0.9v0c-1.3-1.5-2.5-3.1-3.7-4.6
			c1-0.5,2-0.8,3.1-0.9c0.5,0,0.9,0,1.4,0c1.7,0.1,3.2,0.6,4.6,1.6c0.4,0.3,0.8,0.6,1.1,1c0.1,0.1,0.3,0.3,0.4,0.4
			c0.6,0.7,1.3,1.3,2,1.9c1.1,1.1,2.2,2.1,3.4,3.2c0.4,0.3,0.7,0.6,1.1,0.9c1.2,1,2.5,2.1,3.8,3.1c0.3,0.2,0.6,0.5,1,0.7
			C310.9,336.8,308.8,337.5,306.7,337.4z M318.2,333.7c-0.2-0.1-0.3-0.2-0.5-0.3c-1.7-1.1-3.3-2.3-4.9-3.5v0
			c-1.8-1.4-3.6-2.8-5.3-4.4v0c-0.4-0.3-0.8-0.7-1.1-1c-0.1-0.1-0.2-0.1-0.3-0.2c1.3-0.9,2.7-1.5,4.3-1.7c0.3,0,0.7,0,1,0
			c1.8,0,3.4,0.4,5,1.5c0.1,0.1,0.3,0.2,0.4,0.3c3.9,2.8,8.2,5.4,12.8,7.6C326.8,335.1,321.9,335.8,318.2,333.7z M338.8,323
			c2.3,0.9,4.8,1.7,7.2,2.3c-1.1,1.8-2.9,3.1-4.9,3.7c-1.9,0.7-4.1,0.8-6.1,0l1.7,4.4l-1.7-4.4c-0.2-0.1-0.3-0.1-0.5-0.2l-3.4-1.5
			c-1.1-0.6-2.3-1.1-3.3-1.7c-2.2-1.2-4.3-2.3-6.3-3.7c1.1-1.1,2.4-2,3.9-2.4c1-0.3,2-0.4,3.1-0.3c1,0,2.1,0.3,3.1,0.7l-1.3-3.4
			l1.3,3.4c0.2,0.1,0.3,0.1,0.5,0.2C334.2,321.2,336.4,322.1,338.8,323z M364.5,311.1L364.5,311.1c-0.2,0-0.4,0-0.6,0
			c-2.6-0.1-5.1-0.3-7.5-0.5c-2.5-0.3-4.9-0.7-7.2-1.2c0.6-1.5,1.5-2.7,2.8-3.6c1.6-1.3,3.7-2,5.9-1.9h0c0.2,0,0.4,0,0.5,0
			c2.4,0.1,4.8,0.2,7.3,0.2c2.5,0,4.9-0.3,7.5-0.5C372.5,307.6,368.7,310.9,364.5,311.1z M381.4,294.9c-1.2,1.7-3.1,2.8-5.2,3.3h0
			c-0.2,0-0.4,0.1-0.6,0.1c-2.5,0.4-4.9,0.7-7.4,0.9c-2.5,0.1-4.8,0.3-7.3,0.2c0.4-1.5,1-3,2-4.1c1.4-1.5,3.3-2.6,5.5-3l-2-1.5
			l2,1.5c0.2,0,0.3-0.1,0.5-0.1l3.7-0.5l3.6-0.7c2.4-0.5,5-1.1,7.3-1.8C383.5,291.3,382.6,293.3,381.4,294.9z M370.5,287.4
			c0-1.6,0.5-3,1.3-4.4c0.2-0.4,0.4-0.7,0.7-1l7,3.4C376.5,286.2,373.5,286.9,370.5,287.4z M395,280.5l-1.5,3.1
			c-0.7,1.5-2.6,2.2-4.1,1.4l-19-9.2c-0.7-0.4-1.3-1-1.6-1.8c-0.3-0.8-0.2-1.6,0.1-2.4l1.5-3.1c0.4-0.7,1-1.3,1.8-1.6
			c0.3-0.1,0.7-0.2,1-0.2c0.5,0,0.9,0.1,1.3,0.3l19,9.2C395.1,277.1,395.8,279,395,280.5z"/>
		<path class="st4" d="M249.1,222.9h3.4c3.8,0,7-2.8,7.6-6.5c0.4,0,0.8,0.1,1.1,0.1c2.7,0,5.3-0.9,7.6-2.7c0.6,0.5,1.2,0.9,1.9,1.2
			v-5.6c-0.1-0.1-0.3-0.2-0.4-0.4l-9.6-10.5c1.3-0.8,2.8-1.3,4.3-1.3c2.1,0,4.1,0.8,5.7,2.4v-5.6c-1.7-0.9-3.7-1.4-5.7-1.4
			c-1.7,0-3.3,0.4-4.8,1.1c-0.2-4.1-3.5-7.5-7.7-7.5h-3.4c-4.3,0-7.7,3.5-7.7,7.7v21.1C241.3,219.4,244.8,222.9,249.1,222.9z
			 M260.3,204.7l5.4,5.8c-1.6,1.1-3.5,1.4-5.4,1.2V204.7z M246,194c0-1.7,1.4-3.1,3.1-3.1h3.4c1.7,0,3.1,1.4,3.1,3.1v0.1l0,0v5.6h0
			v9.8h0v5.6h0v0.1c0,1.7-1.4,3.1-3.1,3.1h-3.4c-1.7,0-3.1-1.4-3.1-3.1V194z"/>
	</g>
	<g>
		<path class="st5" d="M117.2,444.8v-2.5l3.2-0.3c3.3-0.3,4.6-1.1,4.6-3.3s-1.2-5.6-4.6-13.5H98.1l-1.3,3.4
			c-1.2,3.1-3.1,7.2-3.1,9.6c0,2.6,2.2,3.7,8,4.1v2.5h-20v-2.5c4.6-0.8,6-2.6,9.8-11.9l21.9-53.9h2.8l22,51.7
			c5,12,6.8,14.2,10.9,14.2v2.5H117.2z M108.8,397.4l-9.3,24.1h19.3L108.8,397.4z"/>
		<path class="st5" d="M221.7,380.3c-6.4,1-7.7,2-7.7,8.2v58h-2.8l-44.2-53.9v39.2c0,7.6,1.7,9.6,9.3,10.5v2.5h-22.4v-2.5
			c7.2-0.9,8.7-2.3,8.7-8.3v-46.5c-4.2-5.7-6.4-7.1-8.4-7.1v-2.5h20.9l34.5,42.6v-29.6c0-7.9-1.8-9.8-9.1-10.5v-2.5h21.2V380.3z"/>
		<path class="st5" d="M290.2,432.2c-9.2,11.4-17.1,14.4-28.5,14.4c-21.3,0-34.6-14.5-34.6-33.9c0-21,14.2-36.4,34.3-36.4
			c4.8,0,9.7,1.1,15.4,3.5c2.3,1,3.6,1.4,4.6,1.4c1.9,0,2.9-1,4.4-4.6h2.7v23.3h-2.5c-1.9-5.3-4.3-8.6-6.6-11.4
			c-4.6-5.4-9.9-8.9-16.5-8.9c-10.4,0-18.2,11.2-18.2,31c0,10,1.2,17.2,5.3,23.8c2.9,4.6,8.7,7.5,14.6,7.5c4.4,0,8.5-1.2,12.5-3.4
			c3.2-1.8,5.9-4.3,10.3-8.8L290.2,432.2z"/>
		<path class="st5" d="M335,444.8v-2.5c7.2-0.8,8.8-2.2,8.8-7.2v-22.6h-23.9v22.6c0,5.2,1.6,6.4,8.8,7.2v2.5h-33.3v-2.5
			c6.9-0.9,8.4-2,8.4-7.2v-47.4c0-5.4-1.8-6.7-8.4-7.3v-2.5h33.3v2.5c-6.9,0.5-8.8,1.8-8.8,7.3v20.2h23.9v-20.2
			c0-5.5-1.9-6.8-8.8-7.3v-2.5h33.6v2.5c-6.7,0.5-8.7,2-8.7,7.3v47.4c0,5.2,1.6,6.3,8.7,7.2v2.5H335z"/>
		<path class="st5" d="M408.8,446.6c-20.5,0-34.9-14.4-34.9-34.9c0-21.1,14.9-35.3,35.5-35.3c19.9,0,34.5,14.7,34.5,35.2
			C443.9,432.2,429.3,446.6,408.8,446.6z M408.5,379.6c-10.9,0-17.1,11.7-17.1,32.5c0,20.9,6.3,31.3,17.6,31.3
			c11.4,0,17.4-10.7,17.4-31.1C426.4,391.2,420.1,379.6,408.5,379.6z"/>
		<path class="st5" d="M498,444.8l-20.5-31h-2.8v19.4c0,7.2,1,8.1,8.7,9.1v2.5H450v-2.5c7.7-0.9,8.7-1.6,8.7-9.4v-42.7
			c0-7.7-1.4-9.4-8.7-9.9v-2.5h30.5c19.3,0,29.3,5.6,29.3,17c0,4.5-1.6,9-4.5,11.7c-2.8,2.5-5.3,4.1-11.1,5.6l19.7,27.9
			c0.9,1.3,2.6,2.2,4.4,2.2v2.5H498z M474.7,410.6c13-0.1,18.1-2.7,18.1-14.7c0-10.5-3.7-14.6-12.9-14.6c-3.9,0-5.2,1.2-5.2,4.5
			V410.6z"/>
	</g>
	<g>
		<path class="st4" d="M83.4,475.5h-1.7v-14.8h1.7v2.8h0.1c0.5-1.2,1.1-2,1.8-2.5c0.7-0.5,1.7-0.7,2.9-0.7v1.9c-1,0-1.7,0.1-2.4,0.5
			c-0.6,0.3-1.1,0.8-1.5,1.3c-0.4,0.6-0.6,1.2-0.8,2c-0.1,0.8-0.2,1.5-0.2,2.4V475.5z"/>
		<path class="st4" d="M96.7,468.5c0,0.8,0.1,1.6,0.3,2.3c0.2,0.7,0.5,1.3,0.9,1.9c0.4,0.5,0.9,0.9,1.5,1.3c0.6,0.3,1.3,0.5,2.1,0.5
			c1.1,0,2.1-0.3,2.8-0.9c0.8-0.6,1.3-1.4,1.6-2.5h1.9c-0.2,0.7-0.5,1.4-0.8,2c-0.3,0.6-0.8,1.1-1.3,1.6c-0.5,0.4-1.1,0.8-1.8,1
			c-0.7,0.2-1.5,0.4-2.4,0.4c-1.2,0-2.2-0.2-3-0.6c-0.8-0.4-1.5-0.9-2.1-1.6c-0.5-0.7-0.9-1.5-1.2-2.4c-0.3-0.9-0.4-2-0.4-3
			s0.2-2.1,0.5-3.1c0.3-0.9,0.8-1.8,1.3-2.5c0.6-0.7,1.3-1.3,2.1-1.7c0.8-0.4,1.8-0.6,2.8-0.6c2,0,3.6,0.7,4.7,2.1
			c1.1,1.4,1.7,3.4,1.7,6.1H96.7z M106.3,467.1c0-0.7-0.1-1.4-0.3-2c-0.2-0.6-0.5-1.2-0.9-1.7c-0.4-0.5-0.9-0.8-1.4-1.1
			c-0.6-0.3-1.2-0.4-2-0.4c-0.8,0-1.4,0.1-2,0.4s-1.1,0.7-1.5,1.1c-0.4,0.5-0.7,1-1,1.7c-0.2,0.6-0.4,1.3-0.5,2H106.3z"/>
		<path class="st4" d="M126.4,465.4c-0.3-1.1-0.8-2-1.5-2.6c-0.7-0.6-1.7-0.9-2.8-0.9c-0.9,0-1.6,0.2-2.2,0.5
			c-0.6,0.4-1.1,0.8-1.5,1.4c-0.4,0.6-0.7,1.3-0.9,2c-0.2,0.8-0.3,1.5-0.3,2.3c0,0.8,0.1,1.5,0.3,2.3c0.2,0.7,0.5,1.4,0.9,2
			c0.4,0.6,0.9,1.1,1.5,1.4c0.6,0.4,1.4,0.5,2.3,0.5c1.3,0,2.3-0.4,3-1.1c0.8-0.7,1.2-1.7,1.4-2.9h1.8c-0.2,0.8-0.4,1.6-0.7,2.2
			c-0.3,0.7-0.8,1.3-1.3,1.7c-0.5,0.5-1.1,0.9-1.8,1.1s-1.5,0.4-2.4,0.4c-1.2,0-2.2-0.2-3-0.6c-0.8-0.4-1.5-0.9-2.1-1.6
			c-0.5-0.7-0.9-1.5-1.2-2.5c-0.3-1-0.4-2-0.4-3.1c0-1,0.1-2,0.4-3c0.3-0.9,0.7-1.8,1.3-2.5c0.6-0.7,1.3-1.3,2.1-1.7
			c0.8-0.4,1.8-0.6,2.9-0.6c1.7,0,3.1,0.4,4.1,1.2c1,0.8,1.7,2.1,2,3.8H126.4z"/>
		<path class="st4" d="M136.3,479.5c0.2,0,0.5,0.1,0.7,0.1c0.2,0,0.5,0.1,0.7,0.1c0.5,0,0.9-0.2,1.2-0.5c0.3-0.3,0.5-0.7,0.7-1.1
			c0.2-0.4,0.4-0.9,0.5-1.3c0.1-0.5,0.3-0.9,0.5-1.2l-5.7-14.9h1.9l4.7,12.7l4.7-12.7h1.8l-5.4,14.6c-0.3,0.9-0.7,1.8-1,2.5
			c-0.3,0.7-0.6,1.4-1,1.9c-0.3,0.5-0.7,0.9-1.2,1.2c-0.4,0.3-0.9,0.4-1.5,0.4c-0.3,0-0.6,0-0.9-0.1c-0.3,0-0.5-0.1-0.7-0.1V479.5z"
			/>
		<path class="st4" d="M165.5,465.4c-0.3-1.1-0.8-2-1.5-2.6c-0.7-0.6-1.7-0.9-2.8-0.9c-0.9,0-1.6,0.2-2.2,0.5
			c-0.6,0.4-1.1,0.8-1.5,1.4c-0.4,0.6-0.7,1.3-0.9,2c-0.2,0.8-0.3,1.5-0.3,2.3c0,0.8,0.1,1.5,0.3,2.3c0.2,0.7,0.5,1.4,0.9,2
			c0.4,0.6,0.9,1.1,1.5,1.4c0.6,0.4,1.4,0.5,2.3,0.5c1.3,0,2.3-0.4,3-1.1c0.8-0.7,1.2-1.7,1.4-2.9h1.8c-0.2,0.8-0.4,1.6-0.7,2.2
			c-0.3,0.7-0.8,1.3-1.3,1.7c-0.5,0.5-1.1,0.9-1.8,1.1s-1.5,0.4-2.4,0.4c-1.2,0-2.2-0.2-3-0.6c-0.8-0.4-1.5-0.9-2.1-1.6
			c-0.5-0.7-0.9-1.5-1.2-2.5c-0.3-1-0.4-2-0.4-3.1c0-1,0.1-2,0.4-3c0.3-0.9,0.7-1.8,1.3-2.5c0.6-0.7,1.3-1.3,2.1-1.7
			c0.8-0.4,1.8-0.6,2.9-0.6c1.7,0,3.1,0.4,4.1,1.2c1,0.8,1.7,2.1,2,3.8H165.5z"/>
		<path class="st4" d="M175.7,475.5V455h1.7v20.5H175.7z"/>
		<path class="st4" d="M187.4,468.5c0,0.8,0.1,1.6,0.3,2.3c0.2,0.7,0.5,1.3,0.9,1.9c0.4,0.5,0.9,0.9,1.5,1.3
			c0.6,0.3,1.3,0.5,2.1,0.5c1.1,0,2.1-0.3,2.8-0.9c0.8-0.6,1.3-1.4,1.6-2.5h1.9c-0.2,0.7-0.5,1.4-0.8,2c-0.3,0.6-0.8,1.1-1.3,1.6
			c-0.5,0.4-1.1,0.8-1.8,1c-0.7,0.2-1.5,0.4-2.4,0.4c-1.2,0-2.2-0.2-3-0.6c-0.8-0.4-1.5-0.9-2.1-1.6c-0.5-0.7-0.9-1.5-1.2-2.4
			c-0.3-0.9-0.4-2-0.4-3s0.2-2.1,0.5-3.1c0.3-0.9,0.8-1.8,1.3-2.5c0.6-0.7,1.3-1.3,2.1-1.7c0.8-0.4,1.8-0.6,2.8-0.6
			c2,0,3.6,0.7,4.7,2.1c1.1,1.4,1.7,3.4,1.7,6.1H187.4z M196.9,467.1c0-0.7-0.1-1.4-0.3-2c-0.2-0.6-0.5-1.2-0.9-1.7
			c-0.4-0.5-0.9-0.8-1.4-1.1c-0.6-0.3-1.2-0.4-2-0.4c-0.8,0-1.4,0.1-2,0.4s-1.1,0.7-1.5,1.1c-0.4,0.5-0.7,1-1,1.7
			c-0.2,0.6-0.4,1.3-0.5,2H196.9z"/>
		<path class="st4" d="M218,455h1.7v20.5H218v-2.6h-0.1c-0.2,0.5-0.6,0.9-0.9,1.3c-0.4,0.4-0.8,0.7-1.3,0.9
			c-0.5,0.2-0.9,0.4-1.4,0.6c-0.5,0.1-1,0.2-1.4,0.2c-1.2,0-2.2-0.2-3-0.6s-1.5-0.9-2-1.6c-0.5-0.7-0.9-1.5-1.2-2.5
			c-0.2-1-0.4-2-0.4-3.1c0-1,0.1-2,0.4-3c0.3-1,0.7-1.8,1.2-2.5c0.5-0.7,1.2-1.3,2-1.7c0.8-0.4,1.8-0.6,2.9-0.6c1,0,2,0.2,3,0.7
			c0.9,0.5,1.7,1.2,2.2,2.1V455z M218,468c0-0.8-0.1-1.6-0.3-2.4c-0.2-0.8-0.5-1.4-1-2c-0.4-0.6-0.9-1-1.5-1.3
			c-0.6-0.3-1.3-0.5-2.1-0.5c-0.9,0-1.6,0.2-2.3,0.5c-0.6,0.4-1.2,0.8-1.6,1.4c-0.4,0.6-0.7,1.3-0.9,2.1c-0.2,0.8-0.3,1.7-0.2,2.6
			c0,0.9,0.1,1.8,0.4,2.5c0.3,0.7,0.6,1.3,1.1,1.8c0.5,0.5,1,0.9,1.6,1.1c0.6,0.3,1.3,0.4,2,0.4c0.8,0,1.5-0.2,2.1-0.5
			c0.6-0.3,1.1-0.8,1.5-1.3c0.4-0.6,0.7-1.2,0.9-2C217.9,469.8,218,468.9,218,468z"/>
		<path class="st4" d="M242.8,475.5h-1.7v-14.8h1.7v2.1c0.7-0.7,1.4-1.3,2.1-1.8c0.7-0.5,1.6-0.7,2.6-0.7c0.9,0,1.7,0.2,2.5,0.5
			c0.8,0.3,1.4,0.9,1.9,1.6c0.4,0.5,0.6,1.1,0.6,1.6c0.1,0.6,0.1,1.1,0.1,1.8v9.7H251v-9.6c0-1.3-0.3-2.3-0.9-3
			c-0.6-0.7-1.5-1-2.9-1c-0.5,0-1,0.1-1.4,0.2c-0.4,0.2-0.8,0.4-1.2,0.6c-0.3,0.3-0.6,0.6-0.9,0.9c-0.2,0.3-0.4,0.7-0.6,1.1
			c-0.2,0.5-0.3,0.9-0.3,1.4c0,0.4-0.1,0.9-0.1,1.4V475.5z"/>
		<path class="st4" d="M268.1,466.9c0.3,0,0.7-0.1,1.1-0.2c0.4-0.1,0.8-0.2,1.1-0.3c0.3-0.1,0.5-0.4,0.5-0.7
			c0.1-0.3,0.1-0.6,0.1-0.9c0-0.9-0.3-1.6-0.8-2.2c-0.6-0.6-1.5-0.8-2.8-0.8c-0.6,0-1.1,0.1-1.6,0.2c-0.5,0.1-0.9,0.3-1.3,0.5
			c-0.4,0.3-0.7,0.6-0.9,1c-0.2,0.4-0.4,1-0.5,1.6h-1.7c0.1-0.9,0.3-1.6,0.6-2.2c0.3-0.6,0.8-1.1,1.3-1.5c0.5-0.4,1.2-0.7,1.9-0.9
			c0.7-0.2,1.4-0.3,2.2-0.3c0.7,0,1.4,0.1,2.1,0.2c0.6,0.2,1.2,0.4,1.7,0.8c0.5,0.4,0.9,0.8,1.1,1.4c0.3,0.6,0.4,1.3,0.4,2.2v8
			c0,0.7,0.1,1.1,0.4,1.3c0.2,0.2,0.7,0.1,1.4-0.1v1.3c-0.1,0-0.3,0.1-0.6,0.2c-0.3,0.1-0.5,0.1-0.7,0.1c-0.3,0-0.5,0-0.8-0.1
			c-0.3,0-0.5-0.1-0.7-0.3c-0.2-0.1-0.3-0.3-0.4-0.5c-0.1-0.2-0.2-0.4-0.2-0.7c0-0.2-0.1-0.5-0.1-0.8c-0.7,0.8-1.5,1.4-2.4,1.8
			s-1.9,0.6-3,0.6c-0.6,0-1.3-0.1-1.8-0.3c-0.6-0.2-1.1-0.4-1.6-0.8c-0.5-0.4-0.8-0.8-1.1-1.3c-0.3-0.5-0.4-1.1-0.4-1.9
			c0-2.5,1.7-4,5.1-4.4L268.1,466.9z M271,467.7c-0.7,0.3-1.4,0.5-2.2,0.6c-0.7,0.1-1.5,0.2-2.2,0.2c-1.3,0.1-2.3,0.4-3,0.9
			c-0.7,0.5-1.1,1.2-1.1,2.3c0,0.5,0.1,0.8,0.3,1.2c0.2,0.3,0.4,0.6,0.7,0.8c0.3,0.2,0.6,0.4,1,0.5s0.8,0.2,1.2,0.2
			c0.7,0,1.3-0.1,2-0.3c0.6-0.2,1.2-0.4,1.7-0.8c0.5-0.4,0.9-0.8,1.2-1.3c0.3-0.5,0.5-1.2,0.5-1.9V467.7z"/>
		<path class="st4" d="M291.7,460.7h1.7v14.8h-1.7v-2.1c-0.2,0.3-0.5,0.5-0.8,0.8c-0.3,0.3-0.6,0.5-1,0.8c-0.4,0.2-0.8,0.4-1.3,0.6
			c-0.5,0.2-1.1,0.2-1.7,0.2c-1,0-1.8-0.1-2.4-0.4s-1.2-0.7-1.6-1.2s-0.7-1.1-0.9-1.7c-0.2-0.7-0.3-1.4-0.3-2.2v-9.7h1.7v9.7
			c0,1.3,0.3,2.2,0.9,2.9c0.6,0.7,1.5,1,2.9,1c0.7,0,1.3-0.1,1.9-0.4c0.6-0.3,1-0.7,1.4-1.2c0.4-0.5,0.7-1.1,0.9-1.8
			s0.3-1.4,0.3-2.3V460.7z"/>
		<path class="st4" d="M307.2,475.5c-0.2,0-0.5,0.1-0.8,0.2c-0.3,0.1-0.7,0.1-1.1,0.1c-0.8,0-1.5-0.2-1.9-0.6
			c-0.4-0.4-0.7-1.2-0.7-2.3v-10.8h-2.1v-1.4h2.1v-4.1h1.7v4.1h2.7v1.4h-2.7v10.1c0,0.4,0,0.7,0,0.9s0.1,0.5,0.2,0.7
			c0.1,0.2,0.2,0.3,0.4,0.4c0.2,0.1,0.5,0.1,0.8,0.1c0.2,0,0.5,0,0.7-0.1s0.5-0.1,0.7-0.1V475.5z"/>
		<path class="st4" d="M314.8,457.5V455h1.9v2.5H314.8z M314.9,475.5v-14.8h1.7v14.8H314.9z"/>
		<path class="st4" d="M335.9,465.4c-0.3-1.1-0.8-2-1.5-2.6c-0.7-0.6-1.7-0.9-2.8-0.9c-0.9,0-1.6,0.2-2.2,0.5
			c-0.6,0.4-1.1,0.8-1.5,1.4c-0.4,0.6-0.7,1.3-0.9,2c-0.2,0.8-0.3,1.5-0.3,2.3c0,0.8,0.1,1.5,0.3,2.3c0.2,0.7,0.5,1.4,0.9,2
			c0.4,0.6,0.9,1.1,1.5,1.4c0.6,0.4,1.4,0.5,2.3,0.5c1.3,0,2.3-0.4,3-1.1c0.8-0.7,1.2-1.7,1.4-2.9h1.8c-0.2,0.8-0.4,1.6-0.7,2.2
			c-0.3,0.7-0.8,1.3-1.3,1.7c-0.5,0.5-1.1,0.9-1.8,1.1s-1.5,0.4-2.4,0.4c-1.2,0-2.2-0.2-3-0.6c-0.8-0.4-1.5-0.9-2.1-1.6
			c-0.5-0.7-0.9-1.5-1.2-2.5c-0.3-1-0.4-2-0.4-3.1c0-1,0.1-2,0.4-3c0.3-0.9,0.7-1.8,1.3-2.5c0.6-0.7,1.3-1.3,2.1-1.7
			c0.8-0.4,1.8-0.6,2.9-0.6c1.7,0,3.1,0.4,4.1,1.2c1,0.8,1.7,2.1,2,3.8H335.9z"/>
		<path class="st4" d="M352.6,466.9c0.3,0,0.7-0.1,1.1-0.2c0.4-0.1,0.8-0.2,1.1-0.3c0.3-0.1,0.5-0.4,0.5-0.7
			c0.1-0.3,0.1-0.6,0.1-0.9c0-0.9-0.3-1.6-0.8-2.2c-0.6-0.6-1.5-0.8-2.8-0.8c-0.6,0-1.1,0.1-1.6,0.2c-0.5,0.1-0.9,0.3-1.3,0.5
			c-0.4,0.3-0.7,0.6-0.9,1c-0.2,0.4-0.4,1-0.5,1.6h-1.7c0.1-0.9,0.3-1.6,0.6-2.2c0.3-0.6,0.8-1.1,1.3-1.5c0.5-0.4,1.2-0.7,1.9-0.9
			c0.7-0.2,1.4-0.3,2.2-0.3c0.7,0,1.4,0.1,2.1,0.2c0.6,0.2,1.2,0.4,1.7,0.8c0.5,0.4,0.9,0.8,1.1,1.4c0.3,0.6,0.4,1.3,0.4,2.2v8
			c0,0.7,0.1,1.1,0.4,1.3c0.2,0.2,0.7,0.1,1.4-0.1v1.3c-0.1,0-0.3,0.1-0.6,0.2c-0.3,0.1-0.5,0.1-0.7,0.1c-0.3,0-0.5,0-0.8-0.1
			c-0.3,0-0.5-0.1-0.7-0.3c-0.2-0.1-0.3-0.3-0.4-0.5c-0.1-0.2-0.2-0.4-0.2-0.7c0-0.2-0.1-0.5-0.1-0.8c-0.7,0.8-1.5,1.4-2.4,1.8
			s-1.9,0.6-3,0.6c-0.6,0-1.3-0.1-1.8-0.3c-0.6-0.2-1.1-0.4-1.6-0.8c-0.5-0.4-0.8-0.8-1.1-1.3c-0.3-0.5-0.4-1.1-0.4-1.9
			c0-2.5,1.7-4,5.1-4.4L352.6,466.9z M355.4,467.7c-0.7,0.3-1.4,0.5-2.2,0.6c-0.7,0.1-1.5,0.2-2.2,0.2c-1.3,0.1-2.3,0.4-3,0.9
			c-0.7,0.5-1.1,1.2-1.1,2.3c0,0.5,0.1,0.8,0.3,1.2c0.2,0.3,0.4,0.6,0.7,0.8c0.3,0.2,0.6,0.4,1,0.5s0.8,0.2,1.2,0.2
			c0.7,0,1.3-0.1,2-0.3c0.6-0.2,1.2-0.4,1.7-0.8c0.5-0.4,0.9-0.8,1.2-1.3c0.3-0.5,0.5-1.2,0.5-1.9V467.7z"/>
		<path class="st4" d="M366.4,475.5V455h1.7v20.5H366.4z"/>
		<path class="st4" d="M400,465.4c-0.3-1.1-0.8-2-1.5-2.6c-0.7-0.6-1.7-0.9-2.8-0.9c-0.9,0-1.6,0.2-2.2,0.5
			c-0.6,0.4-1.1,0.8-1.5,1.4c-0.4,0.6-0.7,1.3-0.9,2c-0.2,0.8-0.3,1.5-0.3,2.3c0,0.8,0.1,1.5,0.3,2.3c0.2,0.7,0.5,1.4,0.9,2
			c0.4,0.6,0.9,1.1,1.5,1.4c0.6,0.4,1.4,0.5,2.3,0.5c1.3,0,2.3-0.4,3-1.1c0.8-0.7,1.2-1.7,1.4-2.9h1.8c-0.2,0.8-0.4,1.6-0.7,2.2
			c-0.3,0.7-0.8,1.3-1.3,1.7c-0.5,0.5-1.1,0.9-1.8,1.1c-0.7,0.3-1.5,0.4-2.4,0.4c-1.2,0-2.2-0.2-3-0.6c-0.8-0.4-1.5-0.9-2.1-1.6
			c-0.5-0.7-0.9-1.5-1.2-2.5c-0.3-1-0.4-2-0.4-3.1c0-1,0.1-2,0.4-3c0.3-0.9,0.7-1.8,1.3-2.5c0.6-0.7,1.3-1.3,2.1-1.7
			c0.8-0.4,1.8-0.6,2.9-0.6c1.7,0,3.1,0.4,4.1,1.2c1,0.8,1.7,2.1,2,3.8H400z"/>
		<path class="st4" d="M410.2,475.5V455h1.7v20.5H410.2z"/>
		<path class="st4" d="M426.7,475.9c-0.9,0-1.8-0.2-2.6-0.5c-0.8-0.3-1.5-0.8-2.1-1.5c-0.6-0.6-1.1-1.5-1.4-2.4
			c-0.4-1-0.5-2.1-0.5-3.4c0-1.1,0.1-2.1,0.4-3c0.3-0.9,0.7-1.8,1.3-2.5c0.6-0.7,1.3-1.3,2.1-1.7c0.8-0.4,1.8-0.6,3-0.6
			c1.1,0,2.1,0.2,3,0.6c0.8,0.4,1.5,1,2.1,1.7c0.6,0.7,1,1.5,1.3,2.5c0.3,0.9,0.4,2,0.4,3c0,1.2-0.2,2.2-0.5,3.2
			c-0.3,0.9-0.8,1.8-1.4,2.4c-0.6,0.7-1.3,1.2-2.1,1.6C428.6,475.7,427.7,475.9,426.7,475.9z M431.6,468.1c0-0.9-0.1-1.7-0.3-2.4
			c-0.2-0.8-0.5-1.4-0.9-2c-0.4-0.6-0.9-1-1.5-1.3c-0.6-0.3-1.4-0.5-2.3-0.5c-0.9,0-1.6,0.2-2.3,0.5c-0.6,0.4-1.1,0.8-1.5,1.4
			s-0.7,1.2-0.9,2c-0.2,0.8-0.3,1.5-0.3,2.3c0,0.9,0.1,1.8,0.3,2.5c0.2,0.8,0.5,1.4,0.9,2s0.9,1,1.5,1.3c0.6,0.3,1.3,0.5,2.1,0.5
			c0.9,0,1.6-0.2,2.3-0.5c0.6-0.4,1.1-0.8,1.5-1.4c0.4-0.6,0.7-1.3,0.9-2C431.5,469.7,431.6,468.9,431.6,468.1z"/>
		<path class="st4" d="M446.3,475.5c-0.2,0-0.5,0.1-0.8,0.2c-0.3,0.1-0.7,0.1-1.1,0.1c-0.8,0-1.5-0.2-1.9-0.6
			c-0.4-0.4-0.7-1.2-0.7-2.3v-10.8h-2.1v-1.4h2.1v-4.1h1.7v4.1h2.7v1.4h-2.7v10.1c0,0.4,0,0.7,0,0.9s0.1,0.5,0.2,0.7
			c0.1,0.2,0.2,0.3,0.4,0.4c0.2,0.1,0.5,0.1,0.8,0.1c0.2,0,0.5,0,0.7-0.1s0.5-0.1,0.7-0.1V475.5z"/>
		<path class="st4" d="M453.7,475.5V455h1.7v7.8c0.7-0.7,1.4-1.3,2.1-1.8c0.7-0.5,1.6-0.7,2.6-0.7c0.9,0,1.7,0.2,2.5,0.5
			c0.8,0.3,1.4,0.9,1.9,1.6c0.4,0.5,0.6,1.1,0.6,1.6c0.1,0.6,0.1,1.1,0.1,1.8v9.7h-1.7v-9.6c0-1.3-0.3-2.3-0.9-3
			c-0.6-0.7-1.5-1-2.9-1c-0.5,0-1,0.1-1.4,0.2c-0.4,0.2-0.8,0.4-1.2,0.6c-0.3,0.3-0.6,0.6-0.9,0.9c-0.2,0.3-0.4,0.7-0.6,1.1
			c-0.2,0.5-0.3,0.9-0.3,1.4c0,0.4-0.1,0.9-0.1,1.4v8H453.7z"/>
		<path class="st4" d="M474.2,457.5V455h1.9v2.5H474.2z M474.3,475.5v-14.8h1.7v14.8H474.3z"/>
		<path class="st4" d="M486.7,475.5H485v-14.8h1.7v2.1c0.7-0.7,1.4-1.3,2.1-1.8c0.7-0.5,1.6-0.7,2.6-0.7c0.9,0,1.7,0.2,2.5,0.5
			c0.8,0.3,1.4,0.9,1.9,1.6c0.4,0.5,0.6,1.1,0.6,1.6c0.1,0.6,0.1,1.1,0.1,1.8v9.7h-1.7v-9.6c0-1.3-0.3-2.3-0.9-3
			c-0.6-0.7-1.5-1-2.9-1c-0.5,0-1,0.1-1.4,0.2c-0.4,0.2-0.8,0.4-1.2,0.6c-0.3,0.3-0.6,0.6-0.9,0.9c-0.2,0.3-0.4,0.7-0.6,1.1
			c-0.2,0.5-0.3,0.9-0.3,1.4c0,0.4-0.1,0.9-0.1,1.4V475.5z"/>
		<path class="st4" d="M516.6,460.7h1.7v13.3c0,1-0.1,1.9-0.3,2.8c-0.2,0.9-0.5,1.7-1.1,2.4s-1.2,1.2-2.1,1.6
			c-0.9,0.4-2,0.6-3.4,0.6c-1.1,0-2-0.1-2.8-0.4s-1.4-0.6-1.9-1c-0.5-0.4-0.9-0.9-1.1-1.4c-0.3-0.5-0.4-1-0.4-1.4h1.8
			c0.1,0.6,0.3,1,0.6,1.4c0.3,0.4,0.6,0.6,1,0.8c0.4,0.2,0.8,0.3,1.3,0.4c0.5,0.1,1,0.1,1.5,0.1c1.1,0,2.1-0.2,2.8-0.6
			c0.7-0.4,1.2-0.9,1.6-1.6c0.4-0.6,0.6-1.4,0.7-2.2c0.1-0.8,0.1-1.7,0.1-2.5c-0.5,0.9-1.3,1.6-2.2,2.1c-0.9,0.5-1.9,0.7-3,0.7
			c-1.1,0-2.1-0.2-2.9-0.6c-0.8-0.4-1.5-1-2-1.7c-0.5-0.7-0.9-1.5-1.2-2.5c-0.3-0.9-0.4-1.9-0.4-3c0-1.1,0.1-2.1,0.4-3.1
			c0.2-0.9,0.6-1.8,1.2-2.5c0.5-0.7,1.2-1.2,2-1.6s1.8-0.6,3-0.6c0.5,0,0.9,0.1,1.4,0.2s1,0.3,1.4,0.6c0.5,0.2,0.9,0.6,1.3,0.9
			c0.4,0.4,0.7,0.8,0.9,1.3h0.1V460.7z M516.6,468.2c0-0.9-0.1-1.7-0.3-2.5c-0.2-0.8-0.5-1.4-0.9-2c-0.4-0.6-0.9-1-1.5-1.3
			c-0.6-0.3-1.3-0.5-2.1-0.5c-0.7,0-1.4,0.1-2,0.4c-0.6,0.3-1.1,0.6-1.6,1.1c-0.5,0.5-0.8,1.1-1.1,1.8c-0.3,0.7-0.4,1.5-0.4,2.5
			c0,0.9,0,1.8,0.2,2.6c0.2,0.8,0.5,1.5,0.9,2.1c0.4,0.6,0.9,1.1,1.6,1.4c0.6,0.4,1.4,0.5,2.3,0.5c0.8,0,1.5-0.2,2.1-0.5
			c0.6-0.3,1.1-0.8,1.5-1.3c0.4-0.6,0.7-1.2,1-2C516.5,469.8,516.6,469,516.6,468.2z"/>
	</g>
</g>
</svg>
