<?xml version="1.0" encoding="utf-8"?>
<!-- Generator: Adobe Illustrator 23.0.1, SVG Export Plug-In . SVG Version: 6.00 Build 0)  -->
<svg version="1.1" id="Layer_1" xmlns="http://www.w3.org/2000/svg" xmlns:xlink="http://www.w3.org/1999/xlink" x="0px" y="0px"
	 viewBox="0 0 600 600" style="enable-background:new 0 0 600 600;" xml:space="preserve">
<style type="text/css">
	.st0{fill:#36A9E1;}
	.st1{fill:#1D1D1B;}
	.st2{fill:#2E5227;}
	.st3{fill:#231F20;}
	.st4{fill:#977E63;}
	.st5{fill:#771914;}
	.st6{fill:#DF4336;}
	.st7{fill:#FFFFFF;}
	.st8{fill:#DE4435;}
	.st9{fill:url(#SVGID_1_);}
	.st10{fill:url(#SVGID_2_);}
	.st11{fill:url(#SVGID_3_);}
	.st12{fill:#404041;}
	.st13{fill:url(#SVGID_4_);}
	.st14{fill:url(#SVGID_5_);}
	.st15{fill:url(#SVGID_6_);}
	.st16{fill:url(#SVGID_7_);}
	.st17{fill:url(#SVGID_8_);}
	.st18{fill:url(#SVGID_9_);}
	.st19{fill:url(#SVGID_10_);}
	.st20{fill:url(#SVGID_11_);}
	.st21{fill:url(#SVGID_12_);}
	.st22{fill:#EC1C24;}
	.st23{fill:none;stroke:#1D1D1B;stroke-width:4.0818;stroke-miterlimit:10;}
	.st24{fill:#C99D66;}
	.st25{fill:#35A8E0;}
	.st26{fill:#2DAB66;}
	.st27{fill:none;stroke:#1D1D1B;stroke-width:3.4123;stroke-linejoin:round;stroke-miterlimit:10;}
	.st28{fill:#E20613;}
	.st29{fill:#FCEA0D;}
	.st30{fill:#F094BD;}
	.st31{fill:#E5332A;}
	.st32{fill:#E84E1B;}
	.st33{fill:#F29100;}
	.st34{fill:#F8B133;}
	.st35{fill:#008D36;}
	.st36{fill:#006633;}
	.st37{fill:#39A935;}
	.st38{fill:#1D3763;}
	.st39{fill:url(#SVGID_13_);}
	.st40{fill:url(#SVGID_14_);}
	.st41{fill:url(#SVGID_15_);}
	.st42{fill:url(#SVGID_16_);}
	.st43{fill:url(#SVGID_17_);}
	.st44{fill:url(#SVGID_18_);}
	.st45{fill:url(#SVGID_19_);}
	.st46{fill:url(#SVGID_20_);}
	.st47{fill:url(#SVGID_21_);}
	.st48{fill:none;}
	.st49{fill:#93C01F;}
	.st50{fill:#81358A;}
	.st51{fill:#4B2C15;}
	.st52{fill:#79A242;}
	.st53{fill:#613917;stroke:#613917;stroke-width:0.3451;stroke-miterlimit:10;}
	.st54{fill:#8D8C8C;stroke:#8D8C8C;stroke-width:0.3451;stroke-miterlimit:10;}
	.st55{fill:#273577;}
	.st56{fill:#6C1510;}
	.st57{fill:#185126;}
</style>
<g>
	<g>
		<g>
			<g>
				<path class="st6" d="M263.7,261.2l-75.6-75.6l-4,4c-25.8,25.8-40,60-40,96.4v5.7h123.7l4.6-21.8L263.7,261.2z M155.7,280.4
					c1.3-29.4,12.7-56.9,32.6-78.7l9.9,9.9l8,8l40.5,40.6l7.7,7.7l6.5,6.5l6,6H155.7z"/>
				<path class="st6" d="M263.7,261.2L263.7,261.2L206,203.5l0,0l-4,4c-1.4,1.4-2.7,2.7-3.9,4.1c-17.2,19.1-27.2,43.1-28.5,68.8
					c-0.1,1.9-0.1,3.8-0.1,5.7v5.7h98.4l4.6-21.8v0L263.7,261.2z M181,280.4c1.3-22.6,10.1-43.9,25.2-60.8l0,0l40.5,40.6
					c0,0,0,0,0,0l7.7,7.7c0,0,0,0,0,0l6.5,6.5l6,6H181z"/>
			</g>
			<circle class="st6" cx="208.2" cy="245.1" r="9.8"/>
			<circle class="st6" cx="215.2" cy="274" r="10.9"/>
			<circle class="st6" cx="247" cy="267.7" r="7.5"/>
		</g>
		<g>
			<g>
				<path class="st6" d="M284.2,113.5c-36.4,0-70.7,14.2-96.4,39.9l-4,4l92.9,92.9l8-37.7h5.3v-99.1H284.2z M278.6,236.2l-7.9-7.9
					L259.3,217c0,0,0,0,0,0l-8.1-8.1v0l-33.3-33.3l-8.1-8l-9.9-9.8c21.7-19.9,49.3-31.3,78.7-32.6V236.2z"/>
				<path class="st6" d="M284.2,138.8c-1.9,0-3.8,0.1-5.7,0.1c-25.7,1.3-49.7,11.3-68.8,28.5c-1.4,1.3-2.8,2.6-4.1,3.9l-4,4l0,0
					l66.2,66.2l8.8,8.8l8-37.7h5.3v-73.8H284.2z M278.6,236.2l-7.9-7.9L259.3,217c0,0,0,0,0,0l-8.1-8.1v0l-33.3-33.3l0,0
					c16.9-15.1,38.1-23.9,60.8-25.2V236.2z"/>
			</g>
			<circle class="st6" cx="272.6" cy="175.8" r="11.6"/>
			<circle class="st6" cx="261" cy="207.2" r="9.9"/>
			<circle class="st6" cx="239.9" cy="177.5" r="7.1"/>
		</g>
		<g>
			<g>
				<path class="st6" d="M193.9,369.5c-0.7-0.9-1.3-1.9-1.8-2.9l-7.6,7.6h0l-1.5,1.5h0L169.8,389v0l-8,8l-9.9,9.9
					c-19.9-21.7-31.3-49.3-32.6-78.7l13.9,0h45l10.5,0c0.4-2.9,1-5.8,1.6-8.9l0.5-2.4h-10.6l-47.1,0l-25.3,0v5.7
					c0,36.4,14.2,70.7,39.9,96.5l4,4l17.9-17.9l22.6-22.6v0l7.4-7.4v0C197.4,373.5,195.5,371.7,193.9,369.5z M234.2,316.9l-10.6,0
					l-0.5,2.4c-0.6,3.2-1.1,6.2-1.4,8.9h9l-9.8,9.8c-0.1,3.4,0.2,6.2,0.8,8.3c0.5,1.8,1.3,3.2,2.6,4.4h0l7.5-7.5c0,0,0,0,0,0
					l18.6-18.6l7.7-7.7H234.2z"/>
				<path class="st6" d="M193.9,369.5c-0.7-0.9-1.3-1.9-1.8-2.9l-7.6,7.6h0l-1.5,1.5h0L169.8,389c-15.1-16.9-23.9-38.1-25.2-60.8
					h33.6l10.5,0c0.4-2.9,1-5.8,1.6-8.9l0.5-2.4h-10.6l-47.1,0v5.7c0,1.9,0,3.8,0.1,5.7c1.3,25.7,11.2,49.8,28.5,68.8
					c1.3,1.4,2.6,2.8,3.9,4.1l4,4l22.6-22.6v0l7.4-7.4v0C197.4,373.5,195.5,371.7,193.9,369.5z M234.2,316.9l-10.6,0l-0.5,2.4
					c-0.6,3.2-1.1,6.2-1.4,8.9h9l-9.8,9.8c-0.1,3.4,0.2,6.2,0.8,8.3c0.5,1.8,1.3,3.2,2.6,4.4h0l7.5-7.5c0,0,0,0,0,0l18.6-18.6
					l7.7-7.7H234.2z"/>
			</g>
			<path class="st6" d="M193.9,369.5c-0.5,1.1-1.2,2.2-2.2,3.1c-1.7,1.8-3.9,2.8-6.2,3.1c-0.8,0.1-1.7,0.1-2.5,0h0
				c-2.4-0.2-4.8-1.3-6.7-3.1c-4.3-4.3-4.3-11.2,0-15.5c0.5-0.6,1.1-1,1.8-1.4c3.1-2,7.1-2.3,10.4-0.8c0.7,3.8,1.7,7.4,3.1,10.5
				c0.2,0.4,0.4,0.8,0.6,1.2C192.7,367.6,193.3,368.6,193.9,369.5z"/>
			<circle class="st6" cx="165.9" cy="341.4" r="7.5"/>
		</g>
		<g>
			<g>
				<path class="st6" d="M329.4,305.5l13.8,13.8l8.8,8.8l4.8-22.6H329.4z M454.2,305.5h-62.8v0l-1,4.9l-1.4,6.5h11.2l42.6,0h11.4
					l13.9,0c-1.3,29.4-12.7,56.9-32.6,78.7l-9.9-9.9l-8-8l-26.4-26.4l-8.2-8.2c-1.3,4.2-2.8,8-4.5,11.6l7.7,7.7v0l31.5,31.5
					l17.9,17.9l4-4c25.8-25.8,39.9-60,39.9-96.4v-5.7L454.2,305.5z"/>
				<path class="st6" d="M329.4,305.5l13.8,13.8l8.8,8.8l4.8-22.6H329.4z M402,305.5l-10.6,0l-1,4.9l-1.4,6.5h10.6l0.5,0h42.6
					c-1.3,22.6-10,43.9-25.2,60.8l-26.4-26.4l-8.2-8.2c-1.3,4.2-2.8,8-4.5,11.6l7.7,7.7v0l31.5,31.5l4-4c1.4-1.3,2.7-2.7,3.9-4.1
					c17.2-19.1,27.2-43.1,28.5-68.8c0.1-1.9,0.1-3.8,0.1-5.7v-5.7H402z"/>
			</g>
			<path class="st6" d="M401.5,322.6c0,4.2-2.1,7.9-5.3,10.1v0c-2,1.4-4.3,2.1-6.9,2.1c-1.4,0-2.8-0.2-4-0.7
				c0.1-0.4,0.2-0.8,0.2-1.1l3.4-16.1l1.4-6.5c4,0.3,7.4,2.6,9.4,5.8c0.1,0.2,0.3,0.4,0.4,0.7l0,0
				C401,318.6,401.5,320.5,401.5,322.6z"/>
			<circle class="st6" cx="426.6" cy="330" r="8.9"/>
			<circle class="st6" cx="411.6" cy="352.6" r="6.4"/>
		</g>
		<g>
			<g>
				<path class="st6" d="M407.2,424.6l-40.1-40.1l-7.5-7.5c-3.2,2.2-6.7,4.1-10.5,5.6l7.9,7.9l9.2,9.2l9.8,9.8l23,23l9.9,9.9
					c-21.7,19.9-49.3,31.3-78.6,32.6l0-13.9l0-5.5l0-47.2V387c-2.7,0.2-5.4,0.4-8.3,0.4c-1.1,0-2.1,0-3.1-0.1v10.4l0,63.5l0,25.3
					h5.7c36.4,0,70.7-14.2,96.5-40l4-4L407.2,424.6z M330.9,348.3l-8.8-8.8l-3.2-3.2v21.7c2.1,0.7,4.7,1.1,7.8,1.1
					c4.8,0,8.8-1,12.1-2.9L330.9,348.3z"/>
				<path class="st6" d="M367.1,384.5l-7.5-7.5c-3.2,2.2-6.7,4.1-10.5,5.6l7.9,7.9l9.2,9.2l9.8,9.8l15,14.9
					c-16.9,15.1-38.1,23.9-60.8,25.2v-41.3l0-10.9V387c0,0,0,0,0,0c-2.7,0.2-5.4,0.4-8.3,0.4c-1.1,0-2.1,0-3.1-0.1v10.4l0,63.5h5.7
					c1.9,0,3.8-0.1,5.7-0.1c25.7-1.3,49.7-11.2,68.8-28.5c1.4-1.3,2.8-2.6,4.1-3.9l4-4L367.1,384.5z M330.9,348.3l-8.8-8.8l-3.2-3.2
					v21.7c2.1,0.7,4.7,1.1,7.8,1.1c4.8,0,8.8-1,12.1-2.9L330.9,348.3z"/>
			</g>
			<circle class="st6" cx="348.5" cy="429.8" r="11.6"/>
			<circle class="st6" cx="334.6" cy="399.4" r="9.9"/>
			<circle class="st6" cx="370.4" cy="405.4" r="7.1"/>
		</g>
		<g>
			<g>
				<path class="st6" d="M342,280.2h20.1l5.4-25.5L342,280.2z M452.2,178.1l-4-4L430.3,192L415,207.3l-10.4,10.4h5.5l-2.9,13.4l0,0
					l23-23l8-8l9.9-9.8c19.9,21.7,31.3,49.3,32.6,78.6h-81.5l-2.4,11.4h95.4v-5.7C492.1,238.1,477.9,203.8,452.2,178.1z"/>
				<path class="st6" d="M342,280.2h20.1l5.4-25.5L342,280.2z M466.7,268.9c-1.3-25.7-11.2-49.7-28.5-68.8c-1.3-1.4-2.6-2.8-3.9-4.1
					l-4-4l-15.3,15.3l-10.4,10.4h5.5l-2.9,13.4l13.5-13.5l9.5-9.5l0,0c15.1,16.9,23.9,38.1,25.2,60.8h-56.2l-2.4,11.4h70.1v-5.7
					C466.8,272.6,466.8,270.7,466.7,268.9z"/>
			</g>
			<circle class="st6" cx="439.3" cy="262.6" r="9.3"/>
			<path class="st6" d="M409.1,248.6c0,4.7-3.3,8.7-7.8,9.7l3.8-17.7C407.6,242.4,409.1,245.3,409.1,248.6z"/>
			<circle class="st6" cx="430.2" cy="231.6" r="7.1"/>
		</g>
		<g>
			<g>
				<path class="st6" d="M408.6,176.4c-25.8-25.8-60-39.9-96.5-39.9h-5.7l0,25.3v50.9h11.4v-50.8l0-13.9
					c29.4,1.3,56.9,12.7,78.6,32.6l-9.9,9.9l-8,8l-4,4l-8.3,8.3v0l-5.8,5.7l-39.9,39.9v0l-2.8,2.8v-39.7l-11.4,53.4v13.7l9.8-9.8v0
					l45.7-45.7v0l23.8-23.8h0l9-9l17.9-17.9L408.6,176.4z"/>
				<path class="st6" d="M390.7,194.2c-1.3-1.3-2.7-2.6-4.1-3.9c-19.1-17.2-43.1-27.2-68.8-28.5c-1.9-0.1-3.8-0.1-5.7-0.1h-5.7v50.9
					h11.4v-39.4c22.6,1.3,43.9,10.1,60.8,25.2l-4,4l-8.3,8.3v0l-5.8,5.7l-39.9,39.9v0l-2.8,2.8v-39.7l-11.4,53.4v13.7l9.8-9.8v0
					l45.7-45.7v0l23.8-23.8h0l9-9L390.7,194.2z"/>
			</g>
			<circle class="st6" cx="335.8" cy="197.4" r="11.6"/>
			<circle class="st6" cx="367.2" cy="209.1" r="9.9"/>
			<circle class="st6" cx="331.7" cy="230.1" r="7.1"/>
		</g>
		<g>
			<g>
				<path class="st6" d="M283.8,373.1c-0.5-0.9-1-1.7-1.4-2.7c-0.3-0.6-0.5-1.2-0.7-1.8v89.8c-29.4-1.3-56.9-12.7-78.7-32.6
					l38.5-38.5l6.7-6.7c-2.5,0.5-5.1,0.9-7.8,1.2c-2.9,0.3-5.9,0.4-9.1,0.4c-0.3,0-0.6,0-0.8,0l0,0l-9.9,9.9l-33.7,33.7l4,4
					c25.8,25.8,60,40,96.5,40h5.7v-88.2C289,379.5,285.9,376.6,283.8,373.1z M292.3,320.5h0.7v-0.7L292.3,320.5z M279.5,333.2
					L268,344.8c-0.2,5.5,0.1,10.6,0.8,15.3l9.6-9.6C278.2,345.2,278.6,339.5,279.5,333.2z"/>
				<path class="st6" d="M283.8,373.1c-0.5-0.9-1-1.7-1.4-2.7c-0.3-0.6-0.5-1.2-0.7-1.8v64.5c-22.6-1.3-43.8-10.1-60.8-25.2
					l15.3-15.3h0l5.2-5.2h0l6.7-6.7c-2.5,0.5-5.1,0.9-7.8,1.2c-2.9,0.3-5.9,0.4-9.1,0.4c-0.3,0-0.6,0-0.8,0l0,0l0,0L204.7,408l4,4
					c1.4,1.4,2.7,2.7,4.1,3.9c19.1,17.2,43.1,27.2,68.8,28.5c1.9,0.1,3.8,0.1,5.7,0.1h5.7v-62.9C289,379.5,285.9,376.6,283.8,373.1z
					 M292.3,320.5h0.7v-0.7L292.3,320.5z M279.5,333.2L268,344.8v0c-0.2,5.5,0.1,10.6,0.8,15.3l9.6-9.6
					C278.2,345.2,278.6,339.5,279.5,333.2z"/>
			</g>
			<circle class="st6" cx="264.2" cy="413.2" r="11.6"/>
			<path class="st6" d="M258.2,388.7c-0.3,0.4-0.6,0.7-0.9,1.1c-3.1,3.1-7.8,3.7-11.5,1.8h0c-0.9-0.5-1.8-1.1-2.5-1.8
				c-0.7-0.7-1.3-1.6-1.8-2.4h0c-0.9-1.7-1.2-3.6-1.1-5.5c2.7-0.3,5.3-0.7,7.8-1.2c0,0,0,0,0,0c3.7-0.8,7.2-1.8,10.5-3.2
				C260.8,381,260.7,385.5,258.2,388.7z"/>
			<circle class="st6" cx="281.8" cy="386.2" r="7.1"/>
		</g>
	</g>
	<g>
		<g>
			<g>
				<path class="st7" d="M273.4,310.1l-1.7,8.3l-0.8,3.8c-1.7,8.1-2.7,15.7-3,22.6v0c-0.2,5.5,0.1,10.6,0.8,15.3
					c0.6,3.6,1.4,7.1,2.5,10.3c3.1-2.4,5.9-5.1,8.5-8.2c-0.8-3.6-1.2-7.5-1.3-11.7c-0.1-5.3,0.2-11,1.2-17.2v0
					c0.4-2.9,1-5.8,1.6-8.9l0.8-3.8h14.4l2.2-10.4H273.4z"/>
				<path class="st8" d="M279.7,362.1c-2.6,3.1-5.4,5.9-8.5,8.2c-3.8,2.9-8,5.3-12.5,7.1c-3.3,1.3-6.8,2.4-10.5,3.2c0,0,0,0,0,0
					l-6.7,6.7l-5.2,5.2c3.3-0.2,6.5-0.5,9.6-0.9h0c4.4-0.7,8.5-1.6,12.4-2.9c6.4-2.1,12.3-5,17.6-8.8c2-1.5,4-3,5.8-4.8v-6.6
					C280.8,366.6,280.2,364.4,279.7,362.1z M221.6,328.2c-0.5,3.7-0.8,7-0.8,9.8l9.8-9.8H221.6z M191.6,365.4
					c-1.4-3.2-2.4-6.7-3.1-10.5c-1.3-7.6-1.2-16.5,0.3-26.7l-10.5,0c-1.4,10.3-1.5,19.4-0.2,27.5c0.8,5,2.1,9.6,4,13.9
					c0.7,1.6,1.5,3.2,2.5,4.6h0l7.6-7.6C192,366.2,191.8,365.8,191.6,365.4z M279.7,362.1c-2.6,3.1-5.4,5.9-8.5,8.2
					c-3.8,2.9-8,5.3-12.5,7.1c-3.3,1.3-6.8,2.4-10.5,3.2c0,0,0,0,0,0l-6.7,6.7l-5.2,5.2c3.3-0.2,6.5-0.5,9.6-0.9h0
					c4.4-0.7,8.5-1.6,12.4-2.9c6.4-2.1,12.3-5,17.6-8.8c2-1.5,4-3,5.8-4.8v-6.6C280.8,366.6,280.2,364.4,279.7,362.1z M221.6,328.2
					c-0.5,3.7-0.8,7-0.8,9.8l9.8-9.8H221.6z M191.6,365.4c-1.4-3.2-2.4-6.7-3.1-10.5c-1.3-7.6-1.2-16.5,0.3-26.7l-10.5,0
					c-1.4,10.3-1.5,19.4-0.2,27.5c0.8,5,2.1,9.6,4,13.9c0.7,1.6,1.5,3.2,2.5,4.6h0l7.6-7.6C192,366.2,191.8,365.8,191.6,365.4z
					 M317.8,202.2v10.4h1.4l-1.4,6.8v39.7l2.8-2.8v0l4.9-22.9v0l1.9-8.9l2.1-9.8l1.5-6.8l1.2-5.7H317.8z M279.7,362.1
					c-2.6,3.1-5.4,5.9-8.5,8.2c-3.8,2.9-8,5.3-12.5,7.1c-3.3,1.3-6.8,2.4-10.5,3.2c0,0,0,0,0,0l-6.7,6.7l-5.2,5.2
					c3.3-0.2,6.5-0.5,9.6-0.9h0c4.4-0.7,8.5-1.6,12.4-2.9c6.4-2.1,12.3-5,17.6-8.8c2-1.5,4-3,5.8-4.8v-6.6
					C280.8,366.6,280.2,364.4,279.7,362.1z M221.6,328.2c-0.5,3.7-0.8,7-0.8,9.8l9.8-9.8H221.6z M191.6,365.4
					c-1.4-3.2-2.4-6.7-3.1-10.5c-1.3-7.6-1.2-16.5,0.3-26.7l-10.5,0c-1.4,10.3-1.5,19.4-0.2,27.5c0.8,5,2.1,9.6,4,13.9
					c0.7,1.6,1.5,3.2,2.5,4.6h0l7.6-7.6C192,366.2,191.8,365.8,191.6,365.4z M276.2,202.2l-1.8,8.2l-3.8,17.9l-2.8,13.2l-4.2,19.6v0
					l-2.8,13.2l-1.3,6l-2.4,11.3l-5.3,25.1l-1.6,7.7l-0.4,1.7c-1.9,9-3.8,12.3-4.5,13.4l0,0.1l0,0c-1.2,1.8-3.4,3.9-9.3,3.9
					c-2.4,0-3.7-0.3-4.4-0.5c0,0,0,0,0,0c0,0-0.1,0-0.1-0.1c-0.4-2.1-0.8-7.9,1.8-21.9l0.8-3.7l0.1-0.7l2.4-11.8h-53.9l-1.7,8.3
					l-0.7,3.5l-0.1,0.3c-0.8,3.8-1.4,7.5-1.9,11c-1.4,10.3-1.5,19.4-0.2,27.5c0.8,5,2.1,9.6,4,13.9c0.7,1.6,1.5,3.2,2.5,4.6h0
					c0.3,0.5,0.6,1,1,1.5c1.8,2.6,4.1,4.9,6.7,6.9v0c6.9,5.3,16.3,8.5,28.2,9.7l0,0c3.4,0.3,7,0.5,10.8,0.5c1.7,0,3.3,0,4.9-0.1h0
					c3.3-0.2,6.5-0.5,9.6-0.9h0c4.4-0.7,8.5-1.6,12.4-2.9c6.4-2.1,12.3-5,17.6-8.8c2-1.5,4-3,5.8-4.8c0.7-0.7,1.4-1.4,2.1-2.1
					c-0.5-0.9-1-1.7-1.4-2.7c-0.3-0.6-0.5-1.2-0.7-1.8c-0.8-2-1.4-4.2-1.9-6.5c-2.6,3.1-5.4,5.9-8.5,8.2c-3.8,2.9-8,5.3-12.5,7.1
					c-3.3,1.3-6.8,2.4-10.5,3.2c0,0,0,0,0,0c-2.5,0.5-5.1,0.9-7.8,1.2c-2.9,0.3-5.9,0.4-9.1,0.4c-0.3,0-0.6,0-0.8,0l0,0l0,0
					c-13.6-0.1-23.8-2.5-30.7-7.2v0c-2.3-1.6-4.2-3.5-5.8-5.6c-0.7-0.9-1.3-1.9-1.8-2.9c-0.2-0.4-0.4-0.8-0.6-1.2
					c-1.4-3.2-2.4-6.7-3.1-10.5c-1.3-7.6-1.2-16.5,0.3-26.7c0.4-2.9,1-5.8,1.6-8.9l0.5-2.4l0.3-1.4h32.7l-0.3,1.4l-0.5,2.4
					c-0.6,3.2-1.1,6.2-1.4,8.9c-0.5,3.7-0.8,7-0.8,9.8c-0.1,3.4,0.2,6.2,0.8,8.3c0.5,1.8,1.3,3.2,2.6,4.4h0
					c2.4,2.3,6.4,3.4,11.8,3.4c8.2,0,14.2-2.8,18-8.5c2.3-3.4,4.3-9.1,6.1-17.1l7.8-36.8l4.6-21.8v0l4.2-19.6v0l8-37.7h34.6
					l-1.4,6.8l-11.4,53.4l-7.9,37.3l-2.2,10.4H307l2.2-10.4l7.1-33.4v0l4.3-20.4v0l4.9-22.9v0l1.9-8.9l2.1-9.8l1.5-6.8l1.2-5.7
					H276.2z M191.6,365.4c-1.4-3.2-2.4-6.7-3.1-10.5c-1.3-7.6-1.2-16.5,0.3-26.7l-10.5,0c-1.4,10.3-1.5,19.4-0.2,27.5
					c0.8,5,2.1,9.6,4,13.9c0.7,1.6,1.5,3.2,2.5,4.6h0l7.6-7.6C192,366.2,191.8,365.8,191.6,365.4z M221.6,328.2
					c-0.5,3.7-0.8,7-0.8,9.8l9.8-9.8H221.6z M279.7,362.1c-2.6,3.1-5.4,5.9-8.5,8.2c-3.8,2.9-8,5.3-12.5,7.1
					c-3.3,1.3-6.8,2.4-10.5,3.2c0,0,0,0,0,0l-6.7,6.7l-5.2,5.2c3.3-0.2,6.5-0.5,9.6-0.9h0c4.4-0.7,8.5-1.6,12.4-2.9
					c6.4-2.1,12.3-5,17.6-8.8c2-1.5,4-3,5.8-4.8v-6.6C280.8,366.6,280.2,364.4,279.7,362.1z M317.8,202.2v10.4h1.4l-1.4,6.8v39.7
					l2.8-2.8v0l4.9-22.9v0l1.9-8.9l2.1-9.8l1.5-6.8l1.2-5.7H317.8z M191.6,365.4c-1.4-3.2-2.4-6.7-3.1-10.5
					c-1.3-7.6-1.2-16.5,0.3-26.7l-10.5,0c-1.4,10.3-1.5,19.4-0.2,27.5c0.8,5,2.1,9.6,4,13.9c0.7,1.6,1.5,3.2,2.5,4.6h0l7.6-7.6
					C192,366.2,191.8,365.8,191.6,365.4z M221.6,328.2c-0.5,3.7-0.8,7-0.8,9.8l9.8-9.8H221.6z M279.7,362.1
					c-2.6,3.1-5.4,5.9-8.5,8.2c-3.8,2.9-8,5.3-12.5,7.1c-3.3,1.3-6.8,2.4-10.5,3.2c0,0,0,0,0,0l-6.7,6.7l-5.2,5.2
					c3.3-0.2,6.5-0.5,9.6-0.9h0c4.4-0.7,8.5-1.6,12.4-2.9c6.4-2.1,12.3-5,17.6-8.8c2-1.5,4-3,5.8-4.8v-6.6
					C280.8,366.6,280.2,364.4,279.7,362.1z"/>
			</g>
		</g>
		<g>
			<g>
				<path class="st8" d="M407.2,231.1l-2,9.5v0l-3.8,17.7l-2.2,10.6h10.6l10.4-49l0.5-2.2L407.2,231.1z M388.9,316.9l-3.4,16.1
					c-0.1,0.4-0.2,0.8-0.2,1.1c-0.7,3.1-1.5,6.1-2.4,8.9l8.2,8.2c1.8-5,3.4-10.3,4.6-16.1l0.5-2.5v0l3.4-15.8H388.9z M351.5,280.2
					l-5.4,25.3l-2.9,13.8l8.8,8.8l4.8-22.6l5.4-25.3H351.5z M407.2,231.1l-2,9.5v0l-3.8,17.7l-2.2,10.6h10.6l10.4-49l0.5-2.2
					L407.2,231.1z M385.5,333c-0.1,0.4-0.2,0.8-0.2,1.1c-0.7,3.1-1.5,6.1-2.4,8.9l8.2,8.2c1.8-5,3.4-10.3,4.6-16.1l0.5-2.5v0
					l3.4-15.8h-10.6L385.5,333z M346.1,305.5l-2.9,13.8l-2.6,12.1c-1.9,9-3.8,12.3-4.5,13.3l0,0l0,0.1c-0.9,1.3-2.3,2.8-5.2,3.5
					c-1.1,0.3-2.5,0.4-4.2,0.4c-2.6,0-3.9-0.3-4.5-0.6c-0.3-1.3-0.5-3.8-0.1-8.7c0.3-3.3,0.8-7.6,1.9-13.2l0.8-3.7l2.6-12.5h-53.9
					l-1.7,8.3l-0.8,3.8c-1.7,8.1-2.7,15.7-3,22.6v0c-0.2,5.5,0.1,10.6,0.8,15.3c0.6,3.6,1.4,7.1,2.5,10.3c0.5,1.5,1,2.9,1.7,4.3
					c0.8,1.9,1.8,3.6,2.9,5.3c2-1.5,4-3,5.8-4.8v-6.6c-0.8-2-1.4-4.2-1.9-6.5c-0.8-3.6-1.2-7.5-1.3-11.7c-0.1-5.3,0.2-11,1.2-17.2v0
					c0.4-2.9,1-5.8,1.6-8.9l0.8-3.8h32.7l-0.8,3.8c-2.4,12.8-2.9,21.8-1.5,27c0.9,3.3,3.1,5.5,6.6,6.7c2.1,0.7,4.7,1.1,7.8,1.1
					c4.8,0,8.8-1,12.1-2.9c2.3-1.4,4.3-3.2,5.9-5.6c2.3-3.4,4.4-9.1,6.1-17.1l1.2-5.4l4.8-22.6l5.4-25.3h-10.6L346.1,305.5z
					 M330.3,387C330.3,387,330.3,387,330.3,387l0,10.4c0,0,0,0,0,0c4.7-0.4,9.1-1.1,13.3-2.1c4.8-1.2,9.3-2.8,13.5-4.8l-7.9-7.9
					C343.5,384.9,337.2,386.4,330.3,387z M367,207.3l-0.7,3.4v0l-1,4.8l-0.7,3.2l-2.6,12.4v0l-7.9,37.1l-2.6,12l-5.4,25.3l-2.9,13.8
					l-2.6,12.1c-1.9,9-3.8,12.3-4.5,13.3l0,0l0,0.1c-0.9,1.3-2.3,2.8-5.2,3.5c-1.1,0.3-2.5,0.4-4.2,0.4c-2.6,0-3.9-0.3-4.5-0.6
					c-0.3-1.3-0.5-3.8-0.1-8.7c0.3-3.3,0.8-7.6,1.9-13.2l0.8-3.7l2.6-12.5h-53.9l-1.7,8.3l-0.8,3.8c-1.7,8.1-2.7,15.7-3,22.6v0
					c-0.2,5.5,0.1,10.6,0.8,15.3c0.6,3.6,1.4,7.1,2.5,10.3c0.5,1.5,1,2.9,1.7,4.3c0.8,1.9,1.8,3.6,2.9,5.3c0.3,0.5,0.6,0.9,1,1.3
					c1.4,1.9,3.1,3.6,4.9,5.2c1.7,1.5,3.7,2.8,5.8,4c1.7,1,3.6,1.9,5.6,2.6c7.1,2.8,15.8,4.4,26,4.6c1,0,2,0,3.1,0
					c0.9,0,1.8,0,2.7,0c1.9,0,3.7-0.1,5.6-0.3c0,0,0,0,0,0c4.7-0.4,9.1-1.1,13.3-2.1c4.8-1.2,9.3-2.8,13.5-4.8c3.6-1.7,6.9-3.7,10-6
					c4.4-3.3,8.5-7.1,12-11.6c2.6-3.2,4.9-6.7,7-10.7v0c1.8-3.4,3.5-7.1,5-11.1c1.8-5,3.4-10.3,4.6-16.1l0.5-2.5v0l3.4-15.8h0
					l0.1-0.7l2.3-10.7l5.4-25.3l2.4-11.4l10.4-49l0.5-2.2v0l2.2-10.3H367z M407.2,231.1l-2,9.5v0l-3.8,17.7l-2.2,10.6l-2.4,11.4
					l-5.4,25.3v0l-1,4.9l-1.4,6.5l-3.4,16.1c-0.1,0.4-0.2,0.8-0.2,1.1c-0.7,3.1-1.5,6.1-2.4,8.9c-1.3,4.2-2.8,8-4.5,11.6
					c-2.1,4.5-4.6,8.4-7.4,11.9c-3.3,4.2-7.1,7.7-11.4,10.6c-3.2,2.2-6.7,4.1-10.5,5.6c-5.7,2.3-12,3.7-18.9,4.4c0,0,0,0,0,0
					c-2.7,0.2-5.4,0.4-8.3,0.4c-1.1,0-2.1,0-3.1-0.1c-11-0.3-19.7-2.2-26-5.6c-4-2.2-7.1-5.1-9.2-8.6c-0.5-0.9-1-1.7-1.4-2.7
					c-0.3-0.6-0.5-1.2-0.7-1.8c-0.8-2-1.4-4.2-1.9-6.5c-0.8-3.6-1.2-7.5-1.3-11.7c-0.1-5.3,0.2-11,1.2-17.2v0c0.4-2.9,1-5.8,1.6-8.9
					l0.8-3.8h32.7l-0.8,3.8c-2.4,12.8-2.9,21.8-1.5,27c0.9,3.3,3.1,5.5,6.6,6.7c2.1,0.7,4.7,1.1,7.8,1.1c4.8,0,8.8-1,12.1-2.9
					c2.3-1.4,4.3-3.2,5.9-5.6c2.3-3.4,4.4-9.1,6.1-17.1l1.2-5.4l4.8-22.6l5.4-25.3l5.4-25.5l7.9-37H410L407.2,231.1L407.2,231.1z
					 M349.2,382.6c-5.7,2.3-12,3.7-18.9,4.4c0,0,0,0,0,0v10.4c0,0,0,0,0,0c4.7-0.4,9.1-1.1,13.3-2.1c4.8-1.2,9.3-2.8,13.5-4.8
					L349.2,382.6z M351.5,280.2l-5.4,25.3l-2.9,13.8l-2.6,12.1c-1.9,9-3.8,12.3-4.5,13.3l0,0l0,0.1c-0.9,1.3-2.3,2.8-5.2,3.5
					c-1.1,0.3-2.5,0.4-4.2,0.4c-2.6,0-3.9-0.3-4.5-0.6c-0.3-1.3-0.5-3.8-0.1-8.7c0.3-3.3,0.8-7.6,1.9-13.2l0.8-3.7l2.6-12.5h-53.9
					l-1.7,8.3l-0.8,3.8c-1.7,8.1-2.7,15.7-3,22.6v0c-0.2,5.5,0.1,10.6,0.8,15.3c0.6,3.6,1.4,7.1,2.5,10.3c0.5,1.5,1,2.9,1.7,4.3
					c0.8,1.9,1.8,3.6,2.9,5.3c2-1.5,4-3,5.8-4.8v-6.6c-0.8-2-1.4-4.2-1.9-6.5c-0.8-3.6-1.2-7.5-1.3-11.7c-0.1-5.3,0.2-11,1.2-17.2v0
					c0.4-2.9,1-5.8,1.6-8.9l0.8-3.8h32.7l-0.8,3.8c-2.4,12.8-2.9,21.8-1.5,27c0.9,3.3,3.1,5.5,6.6,6.7c2.1,0.7,4.7,1.1,7.8,1.1
					c4.8,0,8.8-1,12.1-2.9c2.3-1.4,4.3-3.2,5.9-5.6c2.3-3.4,4.4-9.1,6.1-17.1l1.2-5.4l4.8-22.6l5.4-25.3H351.5z M388.9,316.9
					l-3.4,16.1c-0.1,0.4-0.2,0.8-0.2,1.1c-0.7,3.1-1.5,6.1-2.4,8.9l8.2,8.2c1.8-5,3.4-10.3,4.6-16.1l0.5-2.5v0l3.4-15.8H388.9z
					 M407.2,231.1l-2,9.5v0l-3.8,17.7l-2.2,10.6h10.6l10.4-49l0.5-2.2L407.2,231.1z"/>
			</g>
		</g>
	</g>
</g>
</svg>
