<?xml version="1.0" encoding="utf-8"?>
<!-- Generator: Adobe Illustrator 23.0.1, SVG Export Plug-In . SVG Version: 6.00 Build 0)  -->
<svg version="1.1" id="Layer_1" xmlns="http://www.w3.org/2000/svg" xmlns:xlink="http://www.w3.org/1999/xlink" x="0px" y="0px"
	 viewBox="0 0 600 600" style="enable-background:new 0 0 600 600;" xml:space="preserve">
<style type="text/css">
	.st0{fill:#36A9E1;}
	.st1{fill:#1D1D1B;}
	.st2{fill:#2E5227;}
	.st3{fill:#231F20;}
	.st4{fill:#977E63;}
	.st5{fill:#771914;}
	.st6{fill:#DF4336;}
	.st7{fill:#FFFFFF;}
	.st8{fill:#DE4435;}
	.st9{fill:url(#SVGID_1_);}
	.st10{fill:url(#SVGID_2_);}
	.st11{fill:url(#SVGID_3_);}
	.st12{fill:#404041;}
	.st13{fill:url(#SVGID_4_);}
	.st14{fill:url(#SVGID_5_);}
	.st15{fill:url(#SVGID_6_);}
	.st16{fill:url(#SVGID_7_);}
	.st17{fill:url(#SVGID_8_);}
	.st18{fill:url(#SVGID_9_);}
	.st19{fill:url(#SVGID_10_);}
	.st20{fill:url(#SVGID_11_);}
	.st21{fill:url(#SVGID_12_);}
	.st22{fill:#EC1C24;}
	.st23{fill:none;stroke:#1D1D1B;stroke-width:4.0818;stroke-miterlimit:10;}
	.st24{fill:#C99D66;}
	.st25{fill:#35A8E0;}
	.st26{fill:#2DAB66;}
	.st27{fill:none;stroke:#1D1D1B;stroke-width:3.4123;stroke-linejoin:round;stroke-miterlimit:10;}
	.st28{fill:#E20613;}
	.st29{fill:#FCEA0D;}
	.st30{fill:#F094BD;}
	.st31{fill:#E5332A;}
	.st32{fill:#E84E1B;}
	.st33{fill:#F29100;}
	.st34{fill:#F8B133;}
	.st35{fill:#008D36;}
	.st36{fill:#006633;}
	.st37{fill:#39A935;}
	.st38{fill:#1D3763;}
	.st39{fill:url(#SVGID_13_);}
	.st40{fill:url(#SVGID_14_);}
	.st41{fill:url(#SVGID_15_);}
	.st42{fill:url(#SVGID_16_);}
	.st43{fill:url(#SVGID_17_);}
	.st44{fill:url(#SVGID_18_);}
	.st45{fill:url(#SVGID_19_);}
	.st46{fill:url(#SVGID_20_);}
	.st47{fill:url(#SVGID_21_);}
	.st48{fill:none;}
	.st49{fill:#93C01F;}
	.st50{fill:#81358A;}
	.st51{fill:#4B2C15;}
	.st52{fill:#79A242;}
	.st53{fill:#613917;stroke:#613917;stroke-width:0.3451;stroke-miterlimit:10;}
	.st54{fill:#8D8C8C;stroke:#8D8C8C;stroke-width:0.3451;stroke-miterlimit:10;}
	.st55{fill:#273577;}
	.st56{fill:#6C1510;}
	.st57{fill:#185126;}
</style>
<g>
	<path class="st1" d="M300,108c-63.4,0-115,51.6-115,115c0,33.3,15.3,66.8,39.9,87.4c22.4,18.8,49,24.4,72.1,27.5
		c19.2,2.5,26.3,6.7,31.6,12.5c6.5,7.2,10.4,17.1,10.4,26.6c0,21.5-17.5,39-39,39s-39-17.5-39-39h0v-15.4l-27.3,6
		c-4.4,1-7.5,4.9-7.5,9.3c0,40.7,33.1,73.7,73.7,73.7s73.7-33.1,73.7-73.7c0-18.2-7.1-36.4-19.5-50c-15-16.5-34.2-21-52.7-23.5
		c-18.1-2.4-38.8-6.6-54.4-19.7c-16.9-14.2-27.5-37.5-27.5-60.8c0-44.2,36-80.2,80.2-80.2s80.2,36,80.2,80.2h0
		c0,4.5,3.1,8.4,7.5,9.3l27.3,6V223C415,159.6,363.4,108,300,108z"/>
	<path class="st1" d="M307,262.6c-12.3-1.6-25.8-4.1-33.3-10.4c-7.5-6.3-12.7-18.2-12.7-29.1c0-21.5,17.5-39,39-39s39,17.5,39,39h0
		v15.4l27.3-6c4.4-1,7.5-4.9,7.5-9.3c0-40.7-33.1-73.7-73.7-73.7s-73.7,33.1-73.7,73.7c0,21.1,9.9,43,25.1,55.8
		c14.3,12,33.8,15.9,51,18.2c33.4,4.4,47.4,15.4,56.6,25.6c13.5,14.8,21.2,34.6,21.2,54.4c0,44.2-36,80.2-80.2,80.2
		s-80.2-36-80.2-80.2h0c0-4.5-3.1-8.4-7.5-9.3l-27.3-6V377c0,63.4,51.6,115,115,115s115-51.6,115-115c0-28.3-11-56.7-30.2-77.8
		C360.6,272.7,330.5,265.7,307,262.6z"/>
</g>
</svg>
