<?xml version="1.0" encoding="utf-8"?>
<!-- Generator: Adobe Illustrator 23.0.1, SVG Export Plug-In . SVG Version: 6.00 Build 0)  -->
<svg version="1.1" id="Layer_1" xmlns="http://www.w3.org/2000/svg" xmlns:xlink="http://www.w3.org/1999/xlink" x="0px" y="0px"
	 viewBox="0 0 600 600" style="enable-background:new 0 0 600 600;" xml:space="preserve">
<style type="text/css">
	.st0{fill:#36A9E1;}
	.st1{fill:#1D1D1B;}
	.st2{fill:#2E5227;}
	.st3{fill:#231F20;}
	.st4{fill:#977E63;}
	.st5{fill:#771914;}
	.st6{fill:#DF4336;}
	.st7{fill:#FFFFFF;}
	.st8{fill:#DE4435;}
	.st9{fill:url(#SVGID_1_);}
	.st10{fill:url(#SVGID_2_);}
	.st11{fill:url(#SVGID_3_);}
	.st12{fill:#404041;}
	.st13{fill:url(#SVGID_4_);}
	.st14{fill:url(#SVGID_5_);}
	.st15{fill:url(#SVGID_6_);}
	.st16{fill:url(#SVGID_7_);}
	.st17{fill:url(#SVGID_8_);}
	.st18{fill:url(#SVGID_9_);}
	.st19{fill:url(#SVGID_10_);}
	.st20{fill:url(#SVGID_11_);}
	.st21{fill:url(#SVGID_12_);}
	.st22{fill:#EC1C24;}
	.st23{fill:none;stroke:#1D1D1B;stroke-width:4.0818;stroke-miterlimit:10;}
	.st24{fill:#C99D66;}
	.st25{fill:#35A8E0;}
	.st26{fill:#2DAB66;}
	.st27{fill:none;stroke:#1D1D1B;stroke-width:3.4123;stroke-linejoin:round;stroke-miterlimit:10;}
	.st28{fill:#E20613;}
	.st29{fill:#FCEA0D;}
	.st30{fill:#F094BD;}
	.st31{fill:#E5332A;}
	.st32{fill:#E84E1B;}
	.st33{fill:#F29100;}
	.st34{fill:#F8B133;}
	.st35{fill:#008D36;}
	.st36{fill:#006633;}
	.st37{fill:#39A935;}
	.st38{fill:#1D3763;}
	.st39{fill:url(#SVGID_13_);}
	.st40{fill:url(#SVGID_14_);}
	.st41{fill:url(#SVGID_15_);}
	.st42{fill:url(#SVGID_16_);}
	.st43{fill:url(#SVGID_17_);}
	.st44{fill:url(#SVGID_18_);}
	.st45{fill:url(#SVGID_19_);}
	.st46{fill:url(#SVGID_20_);}
	.st47{fill:url(#SVGID_21_);}
	.st48{fill:none;}
	.st49{fill:#93C01F;}
	.st50{fill:#81358A;}
	.st51{fill:#4B2C15;}
	.st52{fill:#79A242;}
	.st53{fill:#613917;stroke:#613917;stroke-width:0.3451;stroke-miterlimit:10;}
	.st54{fill:#8D8C8C;stroke:#8D8C8C;stroke-width:0.3451;stroke-miterlimit:10;}
	.st55{fill:#273577;}
	.st56{fill:#6C1510;}
	.st57{fill:#185126;}
</style>
<g>
	<g>
		<g>
			<path class="st3" d="M217.4,314c0-3-1.2-5.5-3.7-7.3c-2.5-1.9-6.7-3.8-12.7-5.7c-6-1.8-10.4-3.8-13.2-5.8c-2.8-2-4.2-5.1-4.2-9.1
				c0-4,1.7-7.2,5-9.7c3.3-2.5,7.5-3.7,12.6-3.7c5.3,0,9.6,1.4,12.8,4.1c3.2,2.7,4.8,6.5,4.7,11.4l-0.1,0.2h-1.7
				c0-4-1.5-7.2-4.4-9.8c-2.9-2.6-6.7-3.9-11.3-3.9c-4.8,0-8.6,1.1-11.4,3.4c-2.8,2.2-4.2,4.9-4.2,8c0,3.1,1.1,5.5,3.4,7.5
				c2.3,1.9,6.5,3.8,12.7,5.6c6,1.9,10.5,3.9,13.4,5.9c2.9,2,4.4,5,4.4,9c0,4-1.7,7.3-5.2,9.7c-3.5,2.4-7.8,3.6-12.9,3.6
				c-5.3,0-9.9-1.2-13.7-3.7c-3.8-2.5-5.7-6.4-5.6-11.8l0.1-0.2h1.6c0,4.8,1.8,8.3,5.3,10.5c3.5,2.2,7.6,3.3,12.3,3.3
				c4.6,0,8.5-1.1,11.5-3.2C215.9,319.9,217.4,317.3,217.4,314z"/>
			<path class="st3" d="M273.5,310.7h-25.9l-5.9,15.9h-2.1l19.8-53.1h2.4l19.9,53.1h-2.1L273.5,310.7z M248.4,308.7h24.4L261.7,279
				l-1-3.1h-0.2l-1,3.1L248.4,308.7z"/>
			<path class="st3" d="M313.7,300.3H307v26.3h-2v-53.1h2v24.9h7.2l21.8-24.9h2.3l0.1,0.2l-22.6,25.9l25.3,26.7l-0.1,0.2h-2.3
				L313.7,300.3z"/>
			<path class="st3" d="M400.4,273.5v35.2c0,5.8-1.7,10.4-5.1,13.7c-3.4,3.3-7.7,4.9-13,4.9c-5.3,0-9.7-1.6-13.1-4.9
				c-3.4-3.3-5.1-7.8-5.1-13.6v-35.2h2v35.2c0,5,1.5,9.1,4.6,12.1c3,3,6.9,4.5,11.6,4.5c4.7,0,8.5-1.5,11.6-4.5
				c3-3,4.6-7.1,4.6-12.1v-35.2H400.4z"/>
			<path class="st3" d="M431.2,301.6v24.9h-2v-53.1h17.3c5.6,0,9.9,1.2,12.9,3.6c3,2.4,4.5,5.9,4.5,10.6c0,3-1,5.7-2.9,8.1
				c-1.9,2.4-4.5,4-7.8,4.8c3.8,0.7,6.5,2.1,8.2,4.2c1.7,2.1,2.5,4.9,2.5,8.2v5c0,1.7,0.2,3.1,0.6,4.4c0.4,1.3,1.1,2.4,2,3.2v0.9
				h-1.9c-0.9-1-1.5-2.2-2-3.7c-0.4-1.5-0.7-3.1-0.7-4.9v-4.8c0-3.6-1.2-6.4-3.7-8.4c-2.5-2-6-3-10.5-3H431.2z M431.2,299.7h14.9
				c5.4,0,9.4-1.1,12-3.4c2.6-2.3,3.8-5.1,3.8-8.5c0-4-1.3-7-3.9-9.1c-2.6-2.1-6.4-3.2-11.6-3.2h-15.3V299.7z"/>
			<path class="st3" d="M521.9,310.7H496l-5.9,15.9h-2.1l19.8-53.1h2.4l19.9,53.1h-2.1L521.9,310.7z M496.8,308.7h24.4L510.1,279
				l-1-3.1h-0.2l-1,3.1L496.8,308.7z"/>
		</g>
		<path class="st3" d="M555,351h-398V249h398V351z M159.1,348.9h393.8v-97.9H159.1V348.9z"/>
	</g>
	<g>
		<path class="st3" d="M147,351H45V249h102V351z M47.1,348.9h97.9v-97.9H47.1V348.9z"/>
		<g>
			<path class="st22" d="M102.6,304.6l-4.4,9.5c3.9,1.7,8.1,3.7,12.3,5.9c4-3.9,6.7-9,8.3-15.4H102.6z M109.6,314.8
				c-1.9-1-3.8-1.9-5.8-2.8l1.5-3.3h7.8C112.2,311,111,313.1,109.6,314.8z"/>
			<path class="st22" d="M121.3,321.2c2.5-3.5,4.4-7.7,5.8-12.5h7.7v-12.9H123l0.8-1.4c3.1-5.7,6.6-13.8,8.8-19.8
				c0.9-0.5,1.7-1.3,2.2-2.2l2-4l-14.4-5.7L121,267c-1.4,5-3.8,11.2-6,16.5c-0.4-4.9-1.8-12-3.7-17.8l-1-3.3L97.5,264l1.4,4.7
				c1.5,5.3,2.8,12.3,3,16.6l0,0l-0.1-0.6c-1-4.5-4-11.6-7.2-17.5l-1.6-3l-8.9,2.8c0,0,0.8-4.6,0.8-4.6l-15.1-1.1V278H58.2v13h9.5
				c-2.5,8.8-6.5,17.7-10.1,22.5l-1.9,2.6l2,2.5c0.8,1,1.7,2.5,2,3.3l2.8,7.1l4.5-6.1c0.9-1.2,1.7-2.5,2.6-4v19.9h13v-5.1
				c0.5,0.7,1,1.7,1.2,2.4l1.1,3.6l3.7-0.7c9.7-1.8,17.2-4.5,23.1-8.3c4.6,2.7,8.5,5.3,11.1,7.5l2.8,2.3l10.2-9.2l-3.9-3
				C129,326,125.4,323.7,121.3,321.2z M125,268.2l6,2.4c-0.2,0.4-0.8,0.7-1.6,0.7c-2.2,6.4-6.1,15.5-9.3,21.2l-3.9-1.7
				C119.2,284.8,123,275.1,125,268.2z M111.1,295.4c0.8-0.4,1.4-0.9,1.8-1.5l4.6,2h-6.6L111.1,295.4z M107.4,266.9
				c1.9,5.8,3.3,13.2,3.6,17.8l-5,0.8c-0.1-4.5-1.5-12.1-3.2-18L107.4,266.9z M90.8,269.3c2.9,5.2,5.8,12.1,6.8,16.4l-4.5,1.6
				c-0.9-4.3-3.7-11.3-6.5-16.7L90.8,269.3z M99.2,289.5c-0.8,2-1.7,4.1-2.6,6.4H85.8c-1-1.4-2.2-3.1-3.2-4.4V291h7.1l0.4,1.8
				L99.2,289.5z M82.5,271.8l0.4,0.8c0.9,1.7,1.8,3.6,2.6,5.5h-3V271.8z M84.6,326.3l-2.1,0.3v-12.4l2.2,4.4l4.2-5.7
				c-0.7,1.5-1.4,2.8-2,4l-2.1,4l8.7,3.5C90.8,325.2,87.9,325.8,84.6,326.3z M125.3,334.9c-3.3-2.7-8.4-6-14-9.2
				c-5.6,4.3-13.3,7.3-23.6,9.2c-0.4-1.5-1.5-3.3-2.4-4.4c9.3-1.4,16.2-3.7,21.5-7.3c-3.4-1.9-7-3.6-10.3-5.2l-1.4,2.8l-4.5-1.9
				c2-3.8,4.4-9,6.8-14.3H86.8l1.5,2.1l-2.9,3.9c-1.3-2.6-4.5-7.8-7-11.8v35.7h-4.7v-36.6c-2.7,8.7-6.3,17.2-10.1,22.4
				c-0.5-1.3-1.8-3.3-2.7-4.4c4.8-6.4,9.8-18.6,12.1-29.2H62.4v-4.7h11.3v-16.3l6.1,0.4c-0.1,0.4-0.5,0.8-1.5,1v14.9h9.4v4.7h-9.4
				v6.1c1.1,1.4,3.3,4.3,5.3,7.1h15.8c1.5-3.6,3-7,4.1-10.1l6.2,1.3c-0.1,0.5-0.7,0.8-1.6,0.8l-3.5,8.1h26v4.6h-6.7
				c-1.7,7.3-4.5,13.2-8.9,17.8c5.6,3.1,10.6,6.3,14.1,9L125.3,334.9z"/>
		</g>
	</g>
</g>
</svg>
