<?xml version="1.0" encoding="utf-8"?>
<!-- Generator: Adobe Illustrator 23.0.1, SVG Export Plug-In . SVG Version: 6.00 Build 0)  -->
<svg version="1.1" id="Layer_1" xmlns="http://www.w3.org/2000/svg" xmlns:xlink="http://www.w3.org/1999/xlink" x="0px" y="0px"
	 viewBox="0 0 600 600" style="enable-background:new 0 0 600 600;" xml:space="preserve">
<style type="text/css">
	.st0{fill:#36A9E1;}
	.st1{fill:#1D1D1B;}
	.st2{fill:#2E5227;}
	.st3{fill:#231F20;}
	.st4{fill:#977E63;}
	.st5{fill:#771914;}
	.st6{fill:#DF4336;}
	.st7{fill:#FFFFFF;}
	.st8{fill:#DE4435;}
	.st9{fill:url(#SVGID_1_);}
	.st10{fill:url(#SVGID_2_);}
	.st11{fill:url(#SVGID_3_);}
	.st12{fill:#404041;}
	.st13{fill:url(#SVGID_4_);}
	.st14{fill:url(#SVGID_5_);}
	.st15{fill:url(#SVGID_6_);}
	.st16{fill:url(#SVGID_7_);}
	.st17{fill:url(#SVGID_8_);}
	.st18{fill:url(#SVGID_9_);}
	.st19{fill:url(#SVGID_10_);}
	.st20{fill:url(#SVGID_11_);}
	.st21{fill:url(#SVGID_12_);}
	.st22{fill:#EC1C24;}
	.st23{fill:none;stroke:#1D1D1B;stroke-width:4.0818;stroke-miterlimit:10;}
	.st24{fill:#C99D66;}
	.st25{fill:#35A8E0;}
	.st26{fill:#2DAB66;}
	.st27{fill:none;stroke:#1D1D1B;stroke-width:3.4123;stroke-linejoin:round;stroke-miterlimit:10;}
	.st28{fill:#E20613;}
	.st29{fill:#FCEA0D;}
	.st30{fill:#F094BD;}
	.st31{fill:#E5332A;}
	.st32{fill:#E84E1B;}
	.st33{fill:#F29100;}
	.st34{fill:#F8B133;}
	.st35{fill:#008D36;}
	.st36{fill:#006633;}
	.st37{fill:#39A935;}
	.st38{fill:#1D3763;}
	.st39{fill:url(#SVGID_13_);}
	.st40{fill:url(#SVGID_14_);}
	.st41{fill:url(#SVGID_15_);}
	.st42{fill:url(#SVGID_16_);}
	.st43{fill:url(#SVGID_17_);}
	.st44{fill:url(#SVGID_18_);}
	.st45{fill:url(#SVGID_19_);}
	.st46{fill:url(#SVGID_20_);}
	.st47{fill:url(#SVGID_21_);}
	.st48{fill:none;}
	.st49{fill:#93C01F;}
	.st50{fill:#81358A;}
	.st51{fill:#4B2C15;}
	.st52{fill:#79A242;}
	.st53{fill:#613917;stroke:#613917;stroke-width:0.3451;stroke-miterlimit:10;}
	.st54{fill:#8D8C8C;stroke:#8D8C8C;stroke-width:0.3451;stroke-miterlimit:10;}
	.st55{fill:#273577;}
	.st56{fill:#6C1510;}
	.st57{fill:#185126;}
</style>
<g>
	<g>
		<g>
			<g>
				<path class="st1" d="M109.4,413.7l-29.1-24.6l6.6,29.6L76.8,421l-10.3-46.5l9.4-2.1l28.2,23.8l-6.4-28.6l10.1-2.2l10.3,46.5
					L109.4,413.7z"/>
			</g>
			<g>
				<path class="st1" d="M155.1,420l4.5-47.4l10.4,1l-4.5,47.4L155.1,420z"/>
			</g>
			<g>
				<path class="st1" d="M250.5,416.4c-1.1,1.4-2.6,2.5-4.3,3.3c-1.7,0.8-3.8,1.2-6,1.3c-2.3,0.1-4.7-0.1-7.3-0.6l-22.2-4.5
					l9.4-46.7l21.6,4.4c4.8,1,8.3,2.8,10.6,5.5c2.3,2.7,3.1,5.9,2.3,9.6l0,0.1c-0.3,1.3-0.7,2.5-1.2,3.4c-0.5,1-1.2,1.8-1.9,2.5
					c-0.7,0.7-1.5,1.3-2.4,1.8c-0.9,0.5-1.7,0.9-2.7,1.1c2.5,1.6,4.3,3.4,5.5,5.5s1.5,4.7,0.9,7.8l0,0.1
					C252.4,413.2,251.7,415,250.5,416.4z M244.2,388.4c0.3-1.6,0-2.9-1-3.9c-1-1.1-2.6-1.8-4.8-2.2l-10.1-2l-2,9.9l9.5,1.9
					c2.3,0.5,4.1,0.4,5.6-0.1c1.5-0.5,2.4-1.6,2.8-3.4L244.2,388.4z M243,407.6c0.3-1.6,0-2.9-1.1-4.1c-1-1.2-2.9-2-5.5-2.5
					l-11.9-2.4l-2.1,10.3l12.2,2.5c2.3,0.5,4.1,0.4,5.6-0.2c1.5-0.6,2.4-1.7,2.7-3.4L243,407.6z"/>
			</g>
			<g>
				<path class="st1" d="M326.4,405.3c-0.5,1.8-1.3,3.4-2.6,4.8c-1.3,1.4-2.9,2.6-5,3.6c-2,1-4.3,1.8-7,2.4l-22.1,4.9l-10.3-46.5
					l21.6-4.8c4.8-1.1,8.8-0.8,12,0.8c3.2,1.6,5.2,4.2,6,7.9l0,0.1c0.3,1.3,0.4,2.5,0.3,3.6c-0.1,1.1-0.3,2.1-0.7,3.1
					c-0.4,0.9-0.8,1.8-1.4,2.6c-0.6,0.8-1.3,1.5-2,2.1c2.9,0.4,5.3,1.3,7.3,2.7s3.2,3.7,3.9,6.8l0,0.1
					C326.8,401.6,326.8,403.6,326.4,405.3z M309.2,382.3c-0.3-1.6-1.2-2.6-2.5-3.2c-1.3-0.6-3.1-0.6-5.3-0.1l-10.1,2.2l2.2,9.8
					l9.4-2.1c2.3-0.5,4-1.3,5.1-2.4s1.5-2.5,1.2-4.2L309.2,382.3z M315.9,400.3c-0.3-1.6-1.2-2.6-2.6-3.3c-1.4-0.6-3.4-0.7-6.1-0.1
					l-11.8,2.6l2.3,10.2l12.2-2.7c2.3-0.5,3.9-1.3,5-2.4c1.1-1.1,1.5-2.5,1.1-4.2L315.9,400.3z"/>
			</g>
			<g>
				<path class="st1" d="M355.6,414.3l9.3-46.7l10.3,2.1l-7.5,37.4l23.3,4.7l-1.9,9.3L355.6,414.3z"/>
			</g>
			<g>
				<path class="st1" d="M430.7,421l-9.8-46.6L456,367l1.9,9.1l-25,5.3l2,9.5l22-4.6l1.9,9.1l-22,4.6l2.1,9.8l25.3-5.3l1.9,9.1
					L430.7,421z"/>
			</g>
			<g>
				<path class="st1" d="M530.3,414c-1,1.7-2.4,3.2-4,4.2c-1.7,1.1-3.6,1.9-5.7,2.3c-2.2,0.4-4.6,0.5-7.1,0.3
					c-3.6-0.4-7.1-1.3-10.4-2.9c-3.4-1.6-6.3-3.8-8.9-6.7l6.9-6.8c2,2,4.1,3.6,6.2,4.9c2.2,1.3,4.6,2,7.3,2.3c2.2,0.2,3.9,0,5.2-0.7
					c1.3-0.7,2-1.7,2.1-3.1l0-0.1c0.1-0.7,0-1.3-0.2-1.8c-0.2-0.5-0.6-1.1-1.3-1.6c-0.7-0.5-1.6-1.1-2.8-1.6
					c-1.2-0.6-2.8-1.2-4.7-1.9c-2.3-0.8-4.4-1.7-6.3-2.6c-1.9-0.9-3.4-2-4.7-3.2c-1.3-1.2-2.2-2.6-2.8-4.3c-0.6-1.7-0.8-3.7-0.5-6
					l0-0.1c0.2-2.2,0.8-4.1,1.8-5.7c1-1.7,2.3-3,3.9-4.2c1.6-1.1,3.4-1.9,5.5-2.4c2.1-0.5,4.4-0.6,6.8-0.3c3.5,0.3,6.6,1.2,9.4,2.5
					c2.8,1.3,5.3,3.1,7.6,5.3l-6.2,7.3c-2-1.7-3.9-3-5.9-4c-1.9-1-3.9-1.7-6-1.9c-2-0.2-3.6,0-4.7,0.7c-1.1,0.7-1.7,1.6-1.8,2.8
					l0,0.1c-0.1,0.8,0,1.4,0.2,2c0.2,0.6,0.7,1.2,1.4,1.7c0.7,0.5,1.7,1.1,3,1.6s2.9,1.2,4.9,1.9c2.3,0.9,4.4,1.8,6.2,2.8
					c1.8,1,3.3,2.1,4.5,3.3c1.2,1.2,2,2.6,2.5,4.2c0.5,1.6,0.7,3.4,0.4,5.4l0,0.1C532,410.2,531.3,412.3,530.3,414z"/>
			</g>
		</g>
		<g>
			<g>
				<path class="st1" d="M148.4,279.1v-75.2h27.3v138.5l-81.7-77.8v75.2H66.8V201.4L148.4,279.1z"/>
				<path class="st1" d="M249.2,201.5l61.8,138.2h-29.5l-9.2-20.6H226l-9.2,20.6h-29.4L249.2,201.5z M261.7,295.1l-12.3-28.6
					l-12.5,28.6H261.7z"/>
				<path class="st1" d="M390.7,204.3v27h-33.3v108.5h-27.3V231.2h-33.4v-27H390.7z"/>
				<path class="st1" d="M490,313c7.5,0,15.8-6.2,15.8-13.8c0-12.4-16.6-14.1-26-17.3c-16.5-5.6-31.1-19.2-31.1-37.6
					c0-22.8,18.5-41.2,41.4-41.2c20.8,0,38.1,15.4,40.9,35.5l-27,5.7c0-7.4-6.2-13.7-13.7-13.7c-7.6,0-13.8,6.2-13.8,13.8
					c0,12.2,15.4,15.4,24.8,18.2c17.1,4.9,32.2,18,32.2,36.8c0,22.8-20.5,41.3-43.3,41.3c-21,0-39.9-15.4-43-35.5l27-5.7
					c0,7.6,8.2,13.7,15.9,13.7L490,313z"/>
			</g>
			<polygon class="st1" points="437.8,210.3 411.1,204.3 406.5,241.8 425.8,246.2 			"/>
		</g>
	</g>
	<path class="st49" d="M437.2,97c0.3,0.8,0.5,1.3,0.7,1.8c0.2,0.6,0.4,1.1,0.6,1.7c0.4,1.1,0.7,2.2,1,3.3c0.6,2.2,1.1,4.4,1.5,6.5
		c0.4,2.2,0.8,4.4,1,6.5l0.4,3.3l0.2,3.3c0.6,8.7,0.2,17.4-1,25.9c-0.8,4.2-1.3,8.4-2.5,12.6c-0.5,2.1-1,4.1-1.6,6.2l-1.9,6
		c-0.3,1-0.6,2-1,3l-1.2,2.9l-2.3,5.8c-1.7,3.8-3.6,7.6-5.4,11.3c1.3-4,2.7-7.9,3.8-11.9l1.5-6l0.8-3c0.2-1,0.4-2,0.6-3l1.1-6.1
		c0.3-2,0.5-4.1,0.7-6.1c0.6-4.1,0.5-8.2,0.8-12.2c0-8.1-0.7-16.2-2.3-24l-0.6-2.9l-0.8-2.9c-0.5-1.9-1.1-3.8-1.7-5.6
		c-0.6-1.8-1.3-3.7-2.1-5.4c-0.4-0.9-0.7-1.8-1.2-2.6c-0.2-0.4-0.4-0.9-0.6-1.2c-0.2-0.4-0.4-0.8-0.6-1L437.2,97z"/>
	<path class="st49" d="M401.3,119.4c0.6,0.4,0.9,0.7,1.2,1.1c0.4,0.3,0.7,0.7,1,1c0.7,0.7,1.3,1.3,1.9,2c1.2,1.3,2.3,2.7,3.4,4.1
		c2.1,2.9,4,5.8,5.6,8.9c3.2,6.2,5.4,12.7,6.6,19.4c0.3,1.7,0.4,3.3,0.7,5c0.1,0.8,0.2,1.7,0.3,2.5l0.1,2.5c0,1.7,0.2,3.3,0.1,5
		l-0.3,4.9c-0.1,0.8-0.1,1.6-0.2,2.4l-0.4,2.4l-0.8,4.8c-0.7,3.2-1.6,6.3-2.4,9.4c0.2-3.2,0.6-6.4,0.7-9.6l-0.1-4.8l0-2.4
		c0-0.8-0.2-1.6-0.2-2.4l-0.5-4.7c-0.2-1.5-0.6-3.1-0.9-4.6l-0.5-2.3c-0.2-0.8-0.4-1.5-0.7-2.2c-0.5-1.5-0.9-2.9-1.4-4.4
		c-2.1-5.7-5.1-11-8.7-15.7c-1.8-2.4-3.8-4.5-5.9-6.5c-1.1-0.9-2.1-1.9-3.3-2.8c-0.5-0.4-1.1-0.9-1.7-1.2c-0.3-0.2-0.6-0.4-0.8-0.5
		c-0.3-0.2-0.6-0.4-0.7-0.4L401.3,119.4z"/>
	<path class="st49" d="M481.7,160.1c0.2,0-0.2,0-0.4-0.1c-0.2,0-0.5,0-0.7,0c-0.5,0-1.1,0.1-1.6,0.1c-1.1,0.2-2.3,0.3-3.4,0.6
		c-2.3,0.5-4.7,1.5-7,2.5c-4.6,2.2-9,5.3-13,8.9c-4.1,3.5-7.6,7.8-11.1,12.2c-1.6,2.3-3.2,4.6-4.8,6.9l-4.3,7.3l2.8-8
		c1.1-2.6,2.2-5.3,3.4-7.9c2.6-5.1,5.4-10.3,9-15c3.5-4.7,7.7-9.2,12.7-13c2.5-1.8,5.2-3.6,8.2-4.9c1.5-0.7,3-1.3,4.6-1.9
		c0.8-0.2,1.6-0.5,2.5-0.7c0.5-0.1,0.9-0.2,1.4-0.3c0.6-0.1,0.8-0.2,1.7-0.2V160.1z"/>
	<path class="st50" d="M449.2,131.5c0.2-0.6,0.5-1.3,1-1.8c0.5-0.5,1.2-0.9,1.9-1.2c1.3-0.5,2.6-0.8,3.2-1.3
		c0.3-0.2,0.5-0.5,0.8-0.8c0.2-0.3,0.4-0.7,0.5-1c0.1-0.3,0.1-0.6,0.1-1c0-0.4-0.1-0.9-0.2-1.5c-0.1-0.6-0.2-1.4-0.2-2.2
		c0-0.9,0.2-1.8,0.6-2.7c0.2-0.4,0.4-0.8,0.7-1.2c0.2-0.4,0.6-0.7,0.9-1c0.6-0.6,1.4-1.1,2.3-1.4c0.8-0.3,1.6-0.3,2.3-0.3
		c0.7,0,1.3,0.1,1.9,0.1c1.1,0.1,2.2-0.1,3.4-0.9c-0.2,0.6-0.5,1.3-1,1.8c-0.5,0.5-1.2,0.9-1.9,1.2c-1.3,0.5-2.6,0.8-3.2,1.3
		c-0.3,0.2-0.5,0.5-0.8,0.8c-0.2,0.3-0.4,0.7-0.5,1c-0.1,0.3-0.1,0.6-0.1,1c0,0.4,0.1,0.9,0.2,1.5c0.1,0.6,0.2,1.4,0.2,2.2
		c0,0.9-0.2,1.8-0.6,2.7c-0.4,0.9-0.9,1.5-1.5,2.1c-0.6,0.6-1.4,1.1-2.3,1.4c-0.8,0.3-1.6,0.3-2.3,0.3c-0.7,0-1.3-0.1-1.9-0.1
		C451.4,130.5,450.4,130.7,449.2,131.5z"/>
	<path class="st50" d="M430.6,147.5c0-0.5-0.1-1-0.4-1.4c-0.3-0.5-0.6-0.8-1-1.2c-0.8-0.6-1.6-1-1.9-1.5c-0.2-0.2-0.3-0.4-0.4-0.7
		c-0.1-0.3-0.2-0.6-0.1-0.8c0-0.2,0-0.4,0.1-0.7c0.1-0.3,0.2-0.6,0.4-1c0.2-0.4,0.4-0.9,0.6-1.5c0.2-0.6,0.2-1.3,0.1-1.9
		c-0.1-0.3-0.1-0.6-0.3-0.9c-0.1-0.3-0.3-0.6-0.4-0.8c-0.3-0.5-0.8-1-1.3-1.3c-0.5-0.3-1-0.5-1.5-0.6c-0.5-0.1-0.9-0.2-1.3-0.3
		c-0.8-0.1-1.5-0.5-2.1-1.2c0,0.5,0.1,1,0.4,1.4c0.3,0.5,0.6,0.9,1,1.2c0.8,0.6,1.6,1,1.9,1.5c0.2,0.2,0.3,0.4,0.4,0.7
		c0.1,0.3,0.2,0.6,0.1,0.8c0,0.2,0,0.4-0.1,0.7c-0.1,0.3-0.2,0.6-0.4,1c-0.2,0.4-0.4,0.9-0.6,1.5c-0.2,0.6-0.2,1.3-0.1,1.9
		c0.1,0.7,0.3,1.2,0.7,1.7c0.3,0.5,0.8,1,1.3,1.3c0.5,0.3,1,0.5,1.5,0.6c0.5,0.1,0.9,0.2,1.3,0.3C429.3,146.4,430,146.7,430.6,147.5
		z"/>
	<polygon class="st50" points="474.8,135.7 472.7,138 473.5,141.1 470.6,139.8 468,141.5 468.3,138.4 465.8,136.4 468.9,135.7 
		470.1,132.8 471.7,135.5 	"/>
	<polygon class="st50" points="421.5,116.9 423.5,119.4 426.6,119.1 424.8,121.7 426,124.7 423,123.8 420.6,125.8 420.5,122.7 
		417.8,121 420.8,119.9 	"/>
	<polygon class="st50" points="466.6,175.9 465.4,178.1 466.6,180.3 464.2,179.8 462.4,181.6 462.1,179.2 459.8,178.1 462.1,177 
		462.4,174.5 464.2,176.3 	"/>
	<polygon class="st50" points="388.8,139.4 392.3,140.1 394.9,137.5 395.3,141.1 398.5,142.8 395.2,144.3 394.7,147.9 392.2,145.2 
		388.6,145.8 390.4,142.6 	"/>
	<polygon class="st50" points="447.8,158.1 448.8,151.6 454.9,149.3 454,155.8 	"/>
	<polygon class="st50" points="411.4,116.7 405.4,112.2 406.5,104.7 412.5,109.3 	"/>
	<polygon class="st50" points="407,159.8 400.3,159.2 397.5,153.1 404.3,153.7 	"/>
	<polygon class="st50" points="481.7,170.9 475.9,173.6 470.7,169.9 476.5,167.2 	"/>
	<polygon class="st50" points="456.4,98.7 456.5,107.8 448.7,112.3 448.5,103.2 	"/>
	
		<rect x="453.3" y="138.5" transform="matrix(0.7836 -0.6212 0.6212 0.7836 11.5536 313.9798)" class="st50" width="6.4" height="3.8"/>
	
		<rect x="451.7" y="183.6" transform="matrix(0.9496 -0.3135 0.3135 0.9496 -35.2184 151.9702)" class="st50" width="6.4" height="3.8"/>
	
		<rect x="425.3" y="152.8" transform="matrix(0.9603 -0.2791 0.2791 0.9603 -26.5685 125.4194)" class="st50" width="3.8" height="6.4"/>
	
		<rect x="415.7" y="100.5" transform="matrix(0.2775 -0.9607 0.9607 0.2775 204.3043 476.4489)" class="st50" width="6.4" height="3.8"/>
</g>
</svg>
