<?xml version="1.0" encoding="utf-8"?>
<!-- Generator: Adobe Illustrator 23.0.1, SVG Export Plug-In . SVG Version: 6.00 Build 0)  -->
<svg version="1.1" id="Layer_1" xmlns="http://www.w3.org/2000/svg" xmlns:xlink="http://www.w3.org/1999/xlink" x="0px" y="0px"
	 viewBox="0 0 600 600" style="enable-background:new 0 0 600 600;" xml:space="preserve">
<style type="text/css">
	.st0{fill:#36A9E1;}
	.st1{fill:#1D1D1B;}
	.st2{fill:#2E5227;}
	.st3{fill:#231F20;}
	.st4{fill:#977E63;}
	.st5{fill:#771914;}
	.st6{fill:#DF4336;}
	.st7{fill:#FFFFFF;}
	.st8{fill:#DE4435;}
	.st9{fill:url(#SVGID_1_);}
	.st10{fill:url(#SVGID_2_);}
	.st11{fill:url(#SVGID_3_);}
	.st12{fill:#404041;}
	.st13{fill:url(#SVGID_4_);}
	.st14{fill:url(#SVGID_5_);}
	.st15{fill:url(#SVGID_6_);}
	.st16{fill:url(#SVGID_7_);}
	.st17{fill:url(#SVGID_8_);}
	.st18{fill:url(#SVGID_9_);}
	.st19{fill:url(#SVGID_10_);}
	.st20{fill:url(#SVGID_11_);}
	.st21{fill:url(#SVGID_12_);}
	.st22{fill:#EC1C24;}
	.st23{fill:none;stroke:#1D1D1B;stroke-width:4.0818;stroke-miterlimit:10;}
	.st24{fill:#C99D66;}
	.st25{fill:#35A8E0;}
	.st26{fill:#2DAB66;}
	.st27{fill:none;stroke:#1D1D1B;stroke-width:3.4123;stroke-linejoin:round;stroke-miterlimit:10;}
	.st28{fill:#E20613;}
	.st29{fill:#FCEA0D;}
	.st30{fill:#F094BD;}
	.st31{fill:#E5332A;}
	.st32{fill:#E84E1B;}
	.st33{fill:#F29100;}
	.st34{fill:#F8B133;}
	.st35{fill:#008D36;}
	.st36{fill:#006633;}
	.st37{fill:#39A935;}
	.st38{fill:#1D3763;}
	.st39{fill:url(#SVGID_13_);}
	.st40{fill:url(#SVGID_14_);}
	.st41{fill:url(#SVGID_15_);}
	.st42{fill:url(#SVGID_16_);}
	.st43{fill:url(#SVGID_17_);}
	.st44{fill:url(#SVGID_18_);}
	.st45{fill:url(#SVGID_19_);}
	.st46{fill:url(#SVGID_20_);}
	.st47{fill:url(#SVGID_21_);}
	.st48{fill:none;}
	.st49{fill:#93C01F;}
	.st50{fill:#81358A;}
	.st51{fill:#4B2C15;}
	.st52{fill:#79A242;}
	.st53{fill:#613917;stroke:#613917;stroke-width:0.3451;stroke-miterlimit:10;}
	.st54{fill:#8D8C8C;stroke:#8D8C8C;stroke-width:0.3451;stroke-miterlimit:10;}
	.st55{fill:#273577;}
	.st56{fill:#6C1510;}
	.st57{fill:#185126;}
</style>
<g>
	<g>
		<g>
			<path d="M64,212.7c0,11.2,9.1,20.3,20.3,20.3h61.2v61.8h22.3V233h24v-20.3H64z"/>
			<path d="M264,252c1.9-3.5,2.9-7.3,2.9-11.4c0-2.5-0.4-5.1-1.1-7.8c-0.7-2.7-1.8-5.1-3.2-7.1c-1.1-1.6-2.5-3.2-4.1-4.8
				c-1.6-1.6-3.4-2.9-5.3-4.2c-1.9-1.2-3.9-2.2-5.9-3c-2-0.7-4.1-1.1-6-1.1H200v82.1h22.6l-0.1-25.4h13.9l14.3,25.4h24.7l-19.3-33.9
				C259.5,258.5,262.1,255.5,264,252z M243.3,243.3c-0.5,1.1-1.2,2-2,2.8c-0.8,0.8-1.8,1.4-3,1.9c-1.1,0.5-2.3,0.7-3.6,0.7h-12.8
				V231h12.8c1.3,0,2.5,0.2,3.6,0.7c1.1,0.5,2.1,1.1,3,1.9c0.8,0.8,1.5,1.7,2,2.8c0.5,1.1,0.7,2.2,0.7,3.5
				C244.1,241.1,243.8,242.2,243.3,243.3z"/>
			<rect x="283.2" y="212.7" width="22.1" height="82.1"/>
			<path d="M377.1,220.3c-2.8-2.4-6-4.3-9.6-5.6c-3.6-1.3-7.4-2-11.4-2h-36.9v82.1h22v-25.5h14.9c3.9,0,7.7-0.8,11.4-2.3
				c3.6-1.5,6.8-3.6,9.6-6.2c2.8-2.6,5-5.7,6.7-9.3c1.7-3.5,2.5-7.3,2.5-11.4c0-4-0.8-7.7-2.5-11.1
				C382.1,225.6,379.9,222.7,377.1,220.3z M363.1,243.3c-0.5,1.1-1.2,2-2,2.8c-0.8,0.8-1.8,1.4-3,1.9c-1.1,0.5-2.3,0.7-3.6,0.7
				h-12.8V231h12.8c1.3,0,2.5,0.2,3.6,0.7c1.1,0.5,2.1,1.1,3,1.9c0.8,0.8,1.5,1.7,2,2.8c0.5,1.1,0.7,2.2,0.7,3.5
				C363.8,241.1,363.6,242.2,363.1,243.3z"/>
			<polygon points="418.1,212.7 395.3,212.7 395.3,294.8 461.2,294.8 461.2,274.4 418.1,274.4 			"/>
			<polygon points="470.5,294.8 536,294.8 536,275.3 491.9,275.3 491.9,263.5 529.4,263.5 529.4,244 491.9,244 491.9,232.2 
				536,232.2 536,212.7 470.5,212.7 			"/>
		</g>
		<path class="st0" d="M126.8,294.8h10v-20.3h-30.3l0,0C106.6,285.7,115.7,294.8,126.8,294.8z"/>
		<path class="st0" d="M104.8,263.8h32.1v-20.3H84.5v0C84.5,254.8,93.6,263.8,104.8,263.8z"/>
	</g>
	<polygon class="st0" points="266.3,346.9 250.9,305.5 237.9,305.5 222.6,346.9 207.2,305.5 183.5,305.5 213.8,387.3 231.3,387.3 
		244.4,351.9 257.5,387.3 275,387.3 305.3,305.5 281.6,305.5 	"/>
	<path class="st0" d="M383.7,321.5c-1.7-3.4-3.9-6.3-6.7-8.7c-2.8-2.4-6-4.3-9.6-5.6c-3.6-1.3-7.4-2-11.4-2h-36.9v82.1h22v-25.5
		h14.9c3.9,0,7.7-0.8,11.4-2.3c3.6-1.5,6.8-3.6,9.6-6.2c2.8-2.6,5-5.7,6.7-9.3c1.7-3.5,2.5-7.3,2.5-11.4
		C386.2,328.6,385.4,324.9,383.7,321.5z M363.1,335.8c-0.5,1.1-1.2,2-2,2.8c-0.8,0.8-1.8,1.4-3,1.9c-1.1,0.5-2.3,0.7-3.6,0.7h-12.8
		v-17.7h12.8c1.3,0,2.5,0.2,3.6,0.7c1.1,0.5,2.1,1.1,3,1.9c0.8,0.8,1.5,1.7,2,2.8c0.5,1.1,0.7,2.2,0.7,3.5
		C363.8,333.6,363.6,334.8,363.1,335.8z"/>
</g>
</svg>
