<?xml version="1.0" encoding="utf-8"?>
<!-- Generator: Adobe Illustrator 23.0.1, SVG Export Plug-In . SVG Version: 6.00 Build 0)  -->
<svg version="1.1" id="Layer_1" xmlns="http://www.w3.org/2000/svg" xmlns:xlink="http://www.w3.org/1999/xlink" x="0px" y="0px"
	 viewBox="0 0 600 600" style="enable-background:new 0 0 600 600;" xml:space="preserve">
<style type="text/css">
	.st0{fill:#36A9E1;}
	.st1{fill:#1D1D1B;}
	.st2{fill:#2E5227;}
	.st3{fill:#231F20;}
	.st4{fill:#977E63;}
	.st5{fill:#771914;}
	.st6{fill:#DF4336;}
	.st7{fill:#FFFFFF;}
	.st8{fill:#DE4435;}
	.st9{fill:url(#SVGID_1_);}
	.st10{fill:url(#SVGID_2_);}
	.st11{fill:url(#SVGID_3_);}
	.st12{fill:#404041;}
	.st13{fill:url(#SVGID_4_);}
	.st14{fill:url(#SVGID_5_);}
	.st15{fill:url(#SVGID_6_);}
	.st16{fill:url(#SVGID_7_);}
	.st17{fill:url(#SVGID_8_);}
	.st18{fill:url(#SVGID_9_);}
	.st19{fill:url(#SVGID_10_);}
	.st20{fill:url(#SVGID_11_);}
	.st21{fill:url(#SVGID_12_);}
	.st22{fill:#EC1C24;}
	.st23{fill:none;stroke:#1D1D1B;stroke-width:4.0818;stroke-miterlimit:10;}
	.st24{fill:#C99D66;}
	.st25{fill:#35A8E0;}
	.st26{fill:#2DAB66;}
	.st27{fill:none;stroke:#1D1D1B;stroke-width:3.4123;stroke-linejoin:round;stroke-miterlimit:10;}
	.st28{fill:#E20613;}
	.st29{fill:#FCEA0D;}
	.st30{fill:#F094BD;}
	.st31{fill:#E5332A;}
	.st32{fill:#E84E1B;}
	.st33{fill:#F29100;}
	.st34{fill:#F8B133;}
	.st35{fill:#008D36;}
	.st36{fill:#006633;}
	.st37{fill:#39A935;}
	.st38{fill:#1D3763;}
	.st39{fill:url(#SVGID_13_);}
	.st40{fill:url(#SVGID_14_);}
	.st41{fill:url(#SVGID_15_);}
	.st42{fill:url(#SVGID_16_);}
	.st43{fill:url(#SVGID_17_);}
	.st44{fill:url(#SVGID_18_);}
	.st45{fill:url(#SVGID_19_);}
	.st46{fill:url(#SVGID_20_);}
	.st47{fill:url(#SVGID_21_);}
	.st48{fill:none;}
	.st49{fill:#93C01F;}
	.st50{fill:#81358A;}
	.st51{fill:#4B2C15;}
	.st52{fill:#79A242;}
	.st53{fill:#613917;stroke:#613917;stroke-width:0.3451;stroke-miterlimit:10;}
	.st54{fill:#8D8C8C;stroke:#8D8C8C;stroke-width:0.3451;stroke-miterlimit:10;}
	.st55{fill:#273577;}
	.st56{fill:#6C1510;}
	.st57{fill:#185126;}
</style>
<g>
	<path class="st3" d="M457.2,284.7c0,1.3-1.1,2.3-2.3,2.3c-1.3,0-2.3-1.1-2.3-2.3c0-1.3,1-2.3,2.3-2.3
		C456.2,282.3,457.2,283.4,457.2,284.7z"/>
	<path class="st3" d="M457.2,230.7c0,1.3-1.1,2.3-2.3,2.3c-1.3,0-2.3-1-2.3-2.3c0-1.3,1-2.3,2.3-2.3
		C456.2,228.3,457.2,229.4,457.2,230.7z"/>
	<g>
		<path class="st3" d="M51.1,223.3v59.9l53.2,21.6l-0.1,57.2v0.2h-0.3c-1.7,0.9-4.7,1.4-9,1.4c-4.4,0-7.4-0.5-9-1.4h-0.5l0.1-54.1
			H51.1v68.4c13,4.3,27.6,6.5,43.7,6.5c16.1,0,30.6-2.2,43.7-6.5v-85.1l-0.8-0.1L85.4,270v-30.3h0.3c1.7-0.9,4.7-1.4,9-1.4
			c4.4,0,7.5,0.5,9.1,1.4h0.3V258h34.2v-34.8c-13-4.2-27.6-6.3-43.7-6.3C78.6,217,64.1,219.1,51.1,223.3z"/>
		<polygon class="st3" points="205.4,270 186.5,270 186.5,218.1 152.2,218.1 152.2,381.9 186.5,381.9 186.5,292.5 205.4,292.5 
			205.4,381.9 239.7,381.9 239.7,218.1 205.4,218.1 		"/>
		<path class="st3" d="M281,218.1l-32.2,163.7h34.9l4.6-30.3h24.6l4.6,30.3h34.9l-32.4-163.7H281z M291.6,329.2l8.8-58.2l8.9,58.2
			H291.6z"/>
		<path class="st3" d="M505.3,217h-43.8v76.5h-12.9c2.5-15.7,3.7-34.2,1.6-54.6c-0.5-5-1.2-9.8-2-14.4c-13-4.2-27.6-6.3-43.7-6.3
			h-43.8v163.7h34.3v-71.5h9.5c4.3,0,7.4,0.5,9,1.4h0.3v70.1h47.7c-27.6-22.5-25.3-66.4-25.3-66.4v-15.2c2.6-0.5,4.3-0.9,5.7-1.4
			c2.4-0.9,4.5-1.7,6.2-2.6h13.4v85.6h34.3v-79.3h9.5c16.1,0,30.6-2.2,43.7-6.5v-72.7C535.9,219.1,521.3,217,505.3,217z
			 M413.8,287.1h-0.3c-1.7,0.9-4.7,1.4-9.1,1.4c-2.9,0-6,0-9.4,0.1v-49h9.5c4.3,0,7.4,0.5,9,1.4h0.3V287.1z M514.6,281.7h-0.3
			c-1.7,0.9-4.7,1.4-9.1,1.4c-2.8,0-5.9,0-9.4,0.1v-44.8h9.5c4.3,0,7.4,0.5,9,1.4h0.3V281.7z"/>
	</g>
</g>
</svg>
