<?xml version="1.0" encoding="utf-8"?>
<!-- Generator: Adobe Illustrator 23.0.1, SVG Export Plug-In . SVG Version: 6.00 Build 0)  -->
<svg version="1.1" id="Layer_1" xmlns="http://www.w3.org/2000/svg" xmlns:xlink="http://www.w3.org/1999/xlink" x="0px" y="0px"
	 viewBox="0 0 600 600" style="enable-background:new 0 0 600 600;" xml:space="preserve">
<style type="text/css">
	.st0{fill:#36A9E1;}
	.st1{fill:#1D1D1B;}
	.st2{fill:#2E5227;}
	.st3{fill:#231F20;}
	.st4{fill:#977E63;}
	.st5{fill:#771914;}
	.st6{fill:#DF4336;}
	.st7{fill:#FFFFFF;}
	.st8{fill:#DE4435;}
	.st9{fill:url(#SVGID_1_);}
	.st10{fill:url(#SVGID_2_);}
	.st11{fill:url(#SVGID_3_);}
	.st12{fill:#404041;}
	.st13{fill:url(#SVGID_4_);}
	.st14{fill:url(#SVGID_5_);}
	.st15{fill:url(#SVGID_6_);}
	.st16{fill:url(#SVGID_7_);}
	.st17{fill:url(#SVGID_8_);}
	.st18{fill:url(#SVGID_9_);}
	.st19{fill:url(#SVGID_10_);}
	.st20{fill:url(#SVGID_11_);}
	.st21{fill:url(#SVGID_12_);}
	.st22{fill:#EC1C24;}
	.st23{fill:none;stroke:#1D1D1B;stroke-width:4.0818;stroke-miterlimit:10;}
	.st24{fill:#C99D66;}
	.st25{fill:#35A8E0;}
	.st26{fill:#2DAB66;}
	.st27{fill:none;stroke:#1D1D1B;stroke-width:3.4123;stroke-linejoin:round;stroke-miterlimit:10;}
	.st28{fill:#E20613;}
	.st29{fill:#FCEA0D;}
	.st30{fill:#F094BD;}
	.st31{fill:#E5332A;}
	.st32{fill:#E84E1B;}
	.st33{fill:#F29100;}
	.st34{fill:#F8B133;}
	.st35{fill:#008D36;}
	.st36{fill:#006633;}
	.st37{fill:#39A935;}
	.st38{fill:#1D3763;}
	.st39{fill:url(#SVGID_13_);}
	.st40{fill:url(#SVGID_14_);}
	.st41{fill:url(#SVGID_15_);}
	.st42{fill:url(#SVGID_16_);}
	.st43{fill:url(#SVGID_17_);}
	.st44{fill:url(#SVGID_18_);}
	.st45{fill:url(#SVGID_19_);}
	.st46{fill:url(#SVGID_20_);}
	.st47{fill:url(#SVGID_21_);}
	.st48{fill:none;}
	.st49{fill:#93C01F;}
	.st50{fill:#81358A;}
	.st51{fill:#4B2C15;}
	.st52{fill:#79A242;}
	.st53{fill:#613917;stroke:#613917;stroke-width:0.3451;stroke-miterlimit:10;}
	.st54{fill:#8D8C8C;stroke:#8D8C8C;stroke-width:0.3451;stroke-miterlimit:10;}
	.st55{fill:#273577;}
	.st56{fill:#6C1510;}
	.st57{fill:#185126;}
</style>
<g>
	<g>
		<path d="M102.5,291.1c11.8,0,21.2,4.6,28.2,13.9c0.6,0.8,1.5,1.2,2.5,1.2h9.8c2.5,0,4-2.7,2.8-4.8c-3.8-6.7-9.1-12.2-15.7-16.6
			c-8.3-5.5-17.5-8.2-27.5-8.2c-13.7,0-25.5,4.9-35.2,14.6c-9.8,9.8-14.6,21.5-14.6,35.3c0,13.8,4.9,25.5,14.6,35.2
			c9.8,9.8,21.5,14.6,35.2,14.6c10,0,19.2-2.7,27.5-8.2c8-5.3,13.9-12.2,17.8-20.8c0.2-0.4,0.3-0.9,0.3-1.3v-23.3
			c0-1.8-1.4-3.2-3.2-3.2h-39.6c-1.8,0-3.2,1.4-3.2,3.2v8.2c0,1.8,1.4,3.2,3.2,3.2h24.9c1.8,0,3.2,1.4,3.2,3.2v5.5
			c0,0.6-0.2,1.3-0.6,1.8l-1.4,2.1c-7.1,10.1-16.7,15.2-29.1,15.2c-9.8,0-18.1-3.5-25-10.4c-6.9-6.9-10.4-15.2-10.4-25
			s3.5-18.1,10.4-25C84.4,294.6,92.7,291.1,102.5,291.1z"/>
		<path d="M253.8,305.3c0-6.2-1.9-11.7-5.6-16.6c-3.6-4.9-8.3-8.2-14.1-10c-2.6-0.8-6.4-1.2-11.5-1.2l-32.9,0.1h-11.3
			c-1.8,0-3.2,1.4-3.2,3.2v91.8c0,1.8,1.4,3.2,3.2,3.2h8.1c1.8,0,3.2-1.4,3.2-3.2v-35.5c0-1.8,1.4-3.2,3.2-3.2l20.6-0.1
			c7.1,0.3,13.1,3,18.1,8.1c4.9,5.1,7.5,11.3,7.6,18.4v12.3c0,1.8,1.4,3.2,3.2,3.2h8.1c1.8,0,3.2-1.4,3.2-3.2v-12.3
			c-0.1-11-3.8-20.3-11.3-28c-1.3-1.4-1.1-3.6,0.4-4.8C250.2,322,253.8,314.6,253.8,305.3z M235.1,314.9c-3,2.9-7.2,4.3-12.6,4.3
			l-29.6,0.1c-1.8,0-3.2-1.4-3.2-3.2v-20.9c0-1.8,1.4-3.2,3.2-3.2l29.9-0.1c3.9,0,6.8,0.4,8.6,1.2c5.2,2.3,7.8,6.4,7.8,12.1
			C239.2,309.1,237.8,312.3,235.1,314.9z"/>
		<path d="M284.4,375.8h8.1c1.8,0,3.2-1.4,3.2-3.2v-91.8c0-1.8-1.4-3.2-3.2-3.2h-8.1c-1.8,0-3.2,1.4-3.2,3.2v91.8
			C281.2,374.4,282.7,375.8,284.4,375.8z"/>
		<path d="M367,276.7c-11.5,0-21.3,4-29.4,12.1c-8.2,8.1-12.3,17.8-12.4,29.3v54.6c0,1.8,1.4,3.2,3.2,3.2h8.2c1.8,0,3.2-1.4,3.2-3.2
			V317c0-0.1,0-0.2,0-0.2c0.4-7.1,3.3-13.2,8.4-18.1c5.2-5,11.4-7.5,18.7-7.5c7.4,0,13.8,2.6,19.1,7.8c5.3,5.2,7.9,11.6,8,19v54.6
			c0,1.8,1.4,3.2,3.2,3.2h8.2c1.8,0,3.2-1.4,3.2-3.2v-54.6c-0.1-11.5-4.2-21.3-12.4-29.3C388.3,280.7,378.5,276.7,367,276.7z"/>
		<path d="M529.7,269c-5.2-1.1-10.2-0.4-14.9,2c-1.1,0.5-2.3,1.3-3.7,2.5l0,0c-1.4,1.1-3.4,0.8-4.5-0.5l-0.2-0.3
			c-1.1-1.4-3.1-1.6-4.5-0.5l-72.3,56.7c-1.4,1.1-1.6,3.1-0.5,4.5l18.9,24.1c5.6,7.2,12.2,12.3,19.8,15.4c8.1,3.3,16.4,4.3,25.1,3.2
			c8.9-1.2,16.9-4.6,24-10.2c9.4-7.4,15.3-16.9,17.8-28.6c1.7-7.9,1.5-15.6-0.5-23c-0.3-1.2,0.1-2.6,1.1-3.3l3.5-2.8
			c3.2-2.5,5.5-5.5,6.9-9c1.5-3.6,2-7.4,1.5-11.3c-0.5-4-2.1-7.6-4.6-10.8C539.3,272.8,535,270.1,529.7,269z M513.7,305.5
			c2.2,2.8,3.7,5.1,4.5,7c3.3,7.2,4,14.8,2.2,22.6c-1.9,7.9-6,14.4-12.4,19.4c-4.9,3.9-10.5,6.2-16.6,7.1
			c-5.9,0.9-11.7,0.2-17.4-1.9c-5.5-2.1-10.3-5.8-14.5-11.1l-10.1-12.8c-1.1-1.4-0.8-3.4,0.5-4.5l49.5-38.8c1.4-1.1,3.4-0.8,4.5,0.5
			L513.7,305.5z M524.7,295.9l-7.7-9.8c-1.1-1.4-0.8-3.4,0.5-4.5l0.2-0.2c1.2-1,2-1.4,2.4-1.6c2.5-1.1,5-1.4,7.7-0.7
			c2.7,0.6,4.9,2,6.6,4.2c1.3,1.7,2.1,3.6,2.4,5.7c0.3,2,0.1,4-0.7,5.9c-0.7,1.8-2,3.5-3.8,4.9l-0.5,0.4c-1.4,1.1-3.5,0.8-4.6-0.7
			C526.6,298.5,525.7,297.3,524.7,295.9z"/>
	</g>
	<path d="M441.7,311.1c-1.5,0-3-0.7-3.9-2c-6.5-9-5.7-18.9-5-27.6c0.6-8.2,1.2-15.2-3.5-21.2c-1.7-2.1-1.3-5.2,0.8-6.8
		c2.1-1.7,5.2-1.3,6.8,0.8c7.1,8.9,6.3,19.1,5.6,28c-0.6,8.1-1.2,15,3.2,21.1c1.6,2.2,1.1,5.2-1.1,6.8
		C443.7,310.8,442.7,311.1,441.7,311.1z"/>
	<path d="M460,296.9c-1.5,0-3-0.7-3.9-2c-6.5-9-5.7-18.9-5-27.6c0.6-8.2,1.2-15.2-3.5-21.2c-1.7-2.1-1.3-5.2,0.8-6.8
		c2.1-1.7,5.2-1.3,6.8,0.8c7.1,8.9,6.3,19.1,5.6,28c-0.6,8.1-1.2,15,3.2,21.1c1.6,2.2,1.1,5.2-1.1,6.8
		C462,296.6,461,296.9,460,296.9z"/>
	<path d="M478.6,282.3c-1.5,0-3-0.7-3.9-2c-6.5-9-5.7-18.9-5-27.6c0.6-8.2,1.2-15.2-3.5-21.2c-1.7-2.1-1.3-5.2,0.8-6.8
		c2.1-1.7,5.2-1.3,6.8,0.8c7.1,8.9,6.3,19.1,5.6,28c-0.6,8.1-1.2,15,3.2,21.1c1.6,2.2,1.1,5.2-1.1,6.8
		C480.6,282,479.6,282.3,478.6,282.3z"/>
	<g>
		<path d="M52.6,230.6v-1.8c0-0.8,0.6-1.4,1.4-1.4h21.4c0.8,0,1.4,0.6,1.4,1.4v1.8c0,0.8-0.6,1.4-1.4,1.4h-6.9
			c-0.8,0-1.4,0.6-1.4,1.4v23.9c0,0.8-0.6,1.4-1.4,1.4h-1.9c-0.8,0-1.4-0.6-1.4-1.4v-23.9c0-0.8-0.6-1.4-1.4-1.4H54
			C53.2,232.1,52.6,231.4,52.6,230.6z"/>
		<path d="M90.1,228.8v10.6c0,0.8,0.6,1.4,1.4,1.4H106c0.8,0,1.4-0.6,1.4-1.4v-10.6c0-0.8,0.6-1.4,1.4-1.4h1.9
			c0.8,0,1.4,0.6,1.4,1.4v28.5c0,0.8-0.6,1.4-1.4,1.4h-1.9c-0.8,0-1.4-0.6-1.4-1.4v-10.6c0-0.8-0.6-1.4-1.4-1.4H91.5
			c-0.8,0-1.4,0.6-1.4,1.4v10.6c0,0.8-0.6,1.4-1.4,1.4h-1.9c-0.8,0-1.4-0.6-1.4-1.4v-28.5c0-0.8,0.6-1.4,1.4-1.4h1.9
			C89.5,227.4,90.1,228.1,90.1,228.8z"/>
		<path d="M144.3,228.8v1.8c0,0.8-0.6,1.4-1.4,1.4h-15c-0.8,0-1.4,0.6-1.4,1.4v5.9c0,0.8,0.6,1.4,1.4,1.4h15c0.8,0,1.4,0.6,1.4,1.4
			v1.8c0,0.8-0.6,1.4-1.4,1.4h-15c-0.8,0-1.4,0.6-1.4,1.4v5.9c0,0.8,0.6,1.4,1.4,1.4h15c0.8,0,1.4,0.6,1.4,1.4v1.8
			c0,0.8-0.6,1.4-1.4,1.4h-19.7c-0.8,0-1.4-0.6-1.4-1.4v-28.5c0-0.8,0.6-1.4,1.4-1.4h19.7C143.7,227.4,144.3,228.1,144.3,228.8z"/>
	</g>
</g>
</svg>
