<?xml version="1.0" encoding="utf-8"?>
<!-- Generator: Adobe Illustrator 23.0.1, SVG Export Plug-In . SVG Version: 6.00 Build 0)  -->
<svg version="1.1" id="Layer_1" xmlns="http://www.w3.org/2000/svg" xmlns:xlink="http://www.w3.org/1999/xlink" x="0px" y="0px"
	 viewBox="0 0 600 600" style="enable-background:new 0 0 600 600;" xml:space="preserve">
<style type="text/css">
	.st0{fill:#36A9E1;}
	.st1{fill:#1D1D1B;}
	.st2{fill:#2E5227;}
	.st3{fill:#231F20;}
	.st4{fill:#977E63;}
	.st5{fill:#771914;}
	.st6{fill:#DF4336;}
	.st7{fill:#FFFFFF;}
	.st8{fill:#DE4435;}
	.st9{fill:url(#SVGID_1_);}
	.st10{fill:url(#SVGID_2_);}
	.st11{fill:url(#SVGID_3_);}
	.st12{fill:#404041;}
	.st13{fill:url(#SVGID_4_);}
	.st14{fill:url(#SVGID_5_);}
	.st15{fill:url(#SVGID_6_);}
	.st16{fill:url(#SVGID_7_);}
	.st17{fill:url(#SVGID_8_);}
	.st18{fill:url(#SVGID_9_);}
	.st19{fill:url(#SVGID_10_);}
	.st20{fill:url(#SVGID_11_);}
	.st21{fill:url(#SVGID_12_);}
	.st22{fill:#EC1C24;}
	.st23{fill:none;stroke:#1D1D1B;stroke-width:4.0818;stroke-miterlimit:10;}
	.st24{fill:#C99D66;}
	.st25{fill:#35A8E0;}
	.st26{fill:#2DAB66;}
	.st27{fill:none;stroke:#1D1D1B;stroke-width:3.4123;stroke-linejoin:round;stroke-miterlimit:10;}
	.st28{fill:#E20613;}
	.st29{fill:#FCEA0D;}
	.st30{fill:#F094BD;}
	.st31{fill:#E5332A;}
	.st32{fill:#E84E1B;}
	.st33{fill:#F29100;}
	.st34{fill:#F8B133;}
	.st35{fill:#008D36;}
	.st36{fill:#006633;}
	.st37{fill:#39A935;}
	.st38{fill:#1D3763;}
	.st39{fill:url(#SVGID_13_);}
	.st40{fill:url(#SVGID_14_);}
	.st41{fill:url(#SVGID_15_);}
	.st42{fill:url(#SVGID_16_);}
	.st43{fill:url(#SVGID_17_);}
	.st44{fill:url(#SVGID_18_);}
	.st45{fill:url(#SVGID_19_);}
	.st46{fill:url(#SVGID_20_);}
	.st47{fill:url(#SVGID_21_);}
	.st48{fill:none;}
	.st49{fill:#93C01F;}
	.st50{fill:#81358A;}
	.st51{fill:#4B2C15;}
	.st52{fill:#79A242;}
	.st53{fill:#613917;stroke:#613917;stroke-width:0.3451;stroke-miterlimit:10;}
	.st54{fill:#8D8C8C;stroke:#8D8C8C;stroke-width:0.3451;stroke-miterlimit:10;}
	.st55{fill:#273577;}
	.st56{fill:#6C1510;}
	.st57{fill:#185126;}
</style>
<g>
	<g>
		<g>
			<path class="st3" d="M155.5,245.8c-8.2-8-20-12.1-35.1-12.1H69.1c-2.5,0-4.6,2.1-4.6,4.6v124.5c0,2.5,2.1,4.6,4.6,4.6h30.6
				c2.5,0,4.6-2.1,4.6-4.6V330c0-2.5,2.1-4.6,4.6-4.6h11.6c15.1,0,26.9-4.1,35.1-12.1c8.2-8,12.4-19.4,12.4-33.7
				C167.9,265.2,163.8,253.9,155.5,245.8z M111.8,292h-3c-2.5,0-4.6-2.1-4.6-4.6v-15.7c0-2.5,2.1-4.6,4.6-4.6h3
				c13.1,0,14.8,6.6,14.8,12.4C126.6,285.4,125,292,111.8,292z"/>
		</g>
		<g>
			<path class="st3" d="M291.4,233.8c2.5,0,4.6,2.1,4.6,4.6v72.4c0,20.6-4.9,35.9-14.5,45.6c-9.6,9.7-24.5,14.6-44.1,14.6
				s-34.4-4.9-44.1-14.6c-9.7-9.7-14.6-25.1-14.6-45.6v-72.4c0-2.5,2.1-4.6,4.6-4.6h30.6c2.5,0,4.6,2.1,4.6,4.6v67.8
				c0,3.6,0.1,7.3,0.4,11.1c0.3,3.5,1,6.6,2.2,9.4c1.1,2.6,2.9,4.6,5.4,6.2c2.5,1.6,6.1,2.4,11,2.4c4.8,0,8.4-0.8,10.8-2.4
				c2.5-1.6,4.2-3.7,5.5-6.3c1.3-2.8,2-5.9,2.3-9.3c0.3-3.8,0.4-7.6,0.4-11.1v-67.8c0-2.5,2.1-4.6,4.6-4.6H291.4z"/>
		</g>
		<g>
			<path class="st3" d="M406.9,245.8c-8.2-8-20-12.1-35.1-12.1h-51.3c-2.5,0-4.6,2.1-4.6,4.6v124.5c0,2.5,2.1,4.6,4.6,4.6H351
				c2.5,0,4.6-2.1,4.6-4.6V330c0-2.5,2.1-4.6,4.6-4.6h11.6c15.1,0,26.9-4.1,35.1-12.1c8.2-8,12.4-19.4,12.4-33.7
				C419.3,265.2,415.1,253.9,406.9,245.8z M355.6,271.7c0-2.5,2.1-4.6,4.6-4.6h3c13.1,0,14.8,6.6,14.8,12.4
				c0,5.8-1.7,12.5-14.8,12.5h-3c-2.5,0-4.6-2.1-4.6-4.6V271.7z"/>
		</g>
	</g>
	<path class="st3" d="M529.8,252.8l-10.5-6.2c-0.1-0.3-0.2-0.5-0.3-0.8c-1.5-3.3-4-5.9-7-7.7l-7.9-6.8c-1.4-1.2-3.1-2.1-4.9-2.3
		c-1.8-0.2-3.6,0.3-4.4,1.9l-0.7,1.3c-13.6-2.9-26.4-2.6-36.7,1.3c-5.9,2.2-10.9,5.3-15,9.2c-4.1,4-7.3,8.8-9.5,14.3
		c-2.2,5.5-3.4,11.7-3.4,18.4c0,6.8,1.1,12.5,3.3,17c2.2,4.5,5.1,8.3,8.6,11.3c3.5,2.9,7.4,5.3,11.9,7c4.1,1.6,8.4,3.2,12.7,4.5
		c3.6,1.2,6.6,2.3,9,3.3c2.2,0.9,4.1,1.9,5.4,2.9c1.1,0.8,1.9,1.7,2.3,2.6c0.5,0.9,0.7,2.1,0.7,3.5c0,2.2-0.9,4.1-2.9,5.9
		c-2,1.9-5.3,2.8-9.7,2.8c-4.2,0-8.5-1.3-12.9-2.9c-3.5-1.3-6.5-2.3-10.2-3.7c-0.8-0.4-1.6-0.7-2.5-0.9c-1.5-0.4-3-0.6-4.6-0.6
		c-1.1,0-2.3,0.1-3.4,0.3c-3.2,0.6-6,2.1-8.3,4.2l0,0c-2.3,1.7-8.3-3-10.5-12.5c-0.4-1.5-1.7-0.2-1.7,1.3
		c0.6,14.1,7.1,20.3,7.1,20.3l0,0c-0.2,1.1-0.4,2.3-0.4,3.5c0,2.3,0.5,4.5,1.3,6.5c1.4,3.3,3.8,6.1,6.8,8c0.4,0.2,0.8,0.5,1.2,0.7
		c12.3,7,25.6,10.6,39.7,10.6c8.1,0,15.4-1.1,21.9-3.3c6.5-2.2,12.1-5.4,16.7-9.4c4.6-4.1,8.1-9.1,10.5-14.8c2.3-5.7,3.5-12,3.5-19
		c0-10.4-2.8-19-8.3-25.6c-5.4-6.5-13.9-11.7-25.2-15.4c-2.7-0.9-5.5-1.8-8.3-2.6c-2.5-0.7-4.8-1.6-6.8-2.6c-1.8-0.9-3.3-1.9-4.3-3
		c-0.8-0.8-1.1-1.9-1.1-3.3c0-2.2,0.8-3.8,2.7-5.2c2.1-1.6,4.9-2.3,8.4-2.3c1,0,2,0.1,3.1,0.3l-0.1,0.8c-0.2,1.8,0.9,3.1,2.6,4
		c1.6,0.9,3.5,1.1,5.3,0.9l10.8-1.2c0.1,0,0.1,0,0.2,0c1.1,0,2.2-0.1,3.2-0.3c3.2-0.6,6-2.1,8.2-4.3l10.4,0.9c4.2,0.5,8,0.4,9.4-4.1
		C536.5,257.1,533.6,255.1,529.8,252.8z"/>
</g>
</svg>
