<?xml version="1.0" encoding="utf-8"?>
<!-- Generator: Adobe Illustrator 23.0.1, SVG Export Plug-In . SVG Version: 6.00 Build 0)  -->
<svg version="1.1" id="Layer_1" xmlns="http://www.w3.org/2000/svg" xmlns:xlink="http://www.w3.org/1999/xlink" x="0px" y="0px"
	 viewBox="0 0 600 600" style="enable-background:new 0 0 600 600;" xml:space="preserve">
<style type="text/css">
	.st0{fill:#36A9E1;}
	.st1{fill:#1D1D1B;}
	.st2{fill:#2E5227;}
	.st3{fill:#231F20;}
	.st4{fill:#977E63;}
	.st5{fill:#771914;}
	.st6{fill:#DF4336;}
	.st7{fill:#FFFFFF;}
	.st8{fill:#DE4435;}
	.st9{fill:url(#SVGID_1_);}
	.st10{fill:url(#SVGID_2_);}
	.st11{fill:url(#SVGID_3_);}
	.st12{fill:#404041;}
	.st13{fill:url(#SVGID_4_);}
	.st14{fill:url(#SVGID_5_);}
	.st15{fill:url(#SVGID_6_);}
	.st16{fill:url(#SVGID_7_);}
	.st17{fill:url(#SVGID_8_);}
	.st18{fill:url(#SVGID_9_);}
	.st19{fill:url(#SVGID_10_);}
	.st20{fill:url(#SVGID_11_);}
	.st21{fill:url(#SVGID_12_);}
	.st22{fill:#EC1C24;}
	.st23{fill:none;stroke:#1D1D1B;stroke-width:4.0818;stroke-miterlimit:10;}
	.st24{fill:#C99D66;}
	.st25{fill:#35A8E0;}
	.st26{fill:#2DAB66;}
	.st27{fill:none;stroke:#1D1D1B;stroke-width:3.4123;stroke-linejoin:round;stroke-miterlimit:10;}
	.st28{fill:#E20613;}
	.st29{fill:#FCEA0D;}
	.st30{fill:#F094BD;}
	.st31{fill:#E5332A;}
	.st32{fill:#E84E1B;}
	.st33{fill:#F29100;}
	.st34{fill:#F8B133;}
	.st35{fill:#008D36;}
	.st36{fill:#006633;}
	.st37{fill:#39A935;}
	.st38{fill:#1D3763;}
	.st39{fill:url(#SVGID_13_);}
	.st40{fill:url(#SVGID_14_);}
	.st41{fill:url(#SVGID_15_);}
	.st42{fill:url(#SVGID_16_);}
	.st43{fill:url(#SVGID_17_);}
	.st44{fill:url(#SVGID_18_);}
	.st45{fill:url(#SVGID_19_);}
	.st46{fill:url(#SVGID_20_);}
	.st47{fill:url(#SVGID_21_);}
	.st48{fill:none;}
	.st49{fill:#93C01F;}
	.st50{fill:#81358A;}
	.st51{fill:#4B2C15;}
	.st52{fill:#79A242;}
	.st53{fill:#613917;stroke:#613917;stroke-width:0.3451;stroke-miterlimit:10;}
	.st54{fill:#8D8C8C;stroke:#8D8C8C;stroke-width:0.3451;stroke-miterlimit:10;}
	.st55{fill:#273577;}
	.st56{fill:#6C1510;}
	.st57{fill:#185126;}
</style>
<g>
	<g>
		<g id="Layer_2_13_">
			<g id="Layer_1-2_12_">
				<path class="st51" d="M82.9,305.9h31.9c0.8-0.4,1.6-0.8,2.5-1.2c5.2-2.6,10.7-4.6,16.4-6c2.5-0.7,5-1.2,7.6-1.6
					c1-0.1,2.1-0.5,3.2-0.6H82.9c-1.2-0.3-2.2,0.6-2.2,1.8v5.3C80.7,304.9,81.7,305.9,82.9,305.9z"/>
				<path class="st51" d="M82.9,260.3h81.8c1.2,0,2.2,1,2.2,2.2v5.3c0,1.2-1,2.2-2.2,2.2H82.9c-1.2,0-2.2-1-2.2-2.2v-5.3
					C80.7,261.2,81.7,260.3,82.9,260.3z"/>
				<path class="st52" d="M58.7,308.9c-0.7-4-1.4-9.1-1.4-12.8c0-37.2,30.2-67.4,67.4-67.4s67.4,30.2,67.4,67.4
					c0,1.8-0.1,3.9-0.3,5.9c1.4,0.6,2.7,1.2,4,1.8c0.3-2.6,0.5-5.1,0.5-7.7c0-39.5-32.1-71.5-71.6-71.5S53.1,256.6,53.1,296
					c0,3.2,0.5,7.4,1.1,11.1C55.6,307.7,57.1,308.3,58.7,308.9z"/>
				<path class="st52" d="M59.9,315.1c0,0.1,0.1,0.2,0.1,0.3C60,315.3,60,315.2,59.9,315.1L59.9,315.1z"/>
				<path class="st53" d="M87.3,313c7.7-0.2,13.5-1.4,18.3-3v-50.9c0-5.7-4.5-10.4-9.9-10.4l0,0c-5.5,0-9.9,4.7-9.9,10.4V313
					C86.3,313,86.8,313,87.3,313z"/>
				<path class="st53" d="M117.2,305c4.8-2.3,9.7-4.7,16.2-6.5v-40.3c0-5.2-4.5-9.5-9.9-9.5l0,0c-5.5,0-9.9,4.3-9.9,9.5v48.5
					C114.8,306.2,116,305.6,117.2,305z"/>
				<path class="st53" d="M160.2,296l1,0v-37.8c0-5.2-4.5-9.5-9.9-9.5l0,0c-5.5,0-9.9,4.3-9.9,9.5v38.7
					C146.5,296.2,152.7,295.8,160.2,296z"/>
				<path class="st52" d="M206.5,319.1c-1.2-1.6-2.6-3-4.1-4.3c-0.7-0.6-1.5-1.2-2.2-1.8c-0.5-0.4-1.1-0.7-1.7-1.1
					c-6.7-4.2-18.7-9.4-38.3-10c-21.8-0.6-30.8,3.8-40.4,8.4c-8.1,3.9-16.4,8-32.2,8.5c-19.3,0.6-33.4-4.6-42.3-9.7
					c-1.1-0.6-2.3-1.2-3.4-1.8c-1.7-0.9-3.3-2-4.9-3.1c1.3,1.5,2.6,2.9,4.1,4.2c1.5,1.3,3,2.5,4.6,3.7c1.6,1.2,3.3,2.2,5,3.3
					s3.5,1.9,5.3,2.8s3.6,1.6,5.5,2.4s3.8,1.3,5.7,1.9l1.4,0.4l1.5,0.4c1,0.3,2,0.5,2.9,0.7c2,0.4,4,0.7,6,1s4,0.4,6,0.5
					c2,0.1,4,0.1,6,0.1c4.1-0.1,8.2-0.5,12.2-1.3c4.1-0.8,8-2.1,11.8-3.7c1.9-0.8,3.7-1.6,5.5-2.5l5.2-2.5c1.7-0.8,3.4-1.5,5-2.2
					s3.4-1.2,5.1-1.7c3.5-1,7-1.8,10.6-2.2c1.8-0.3,3.7-0.4,5.5-0.6c0.9-0.1,1.9-0.1,2.8-0.2l2.8-0.1c3.8-0.1,7.5-0.1,11.2,0.1
					c7.5,0.3,14.9,1.4,22,3.7l0.7,0.2l0.7,0.2l1.3,0.5c0.9,0.3,1.7,0.7,2.6,1.1c1.7,0.8,3.4,1.6,5,2.6c1.6,1,3.2,2.1,4.6,3.3
					c0.7,0.6,1.4,1.3,2.1,1.9c0.7,0.7,1.3,1.4,1.8,2.2c-0.3-0.9-0.8-1.8-1.3-2.6C207.6,320.7,207.1,319.9,206.5,319.1z"/>
			</g>
		</g>
		<g id="Layer_2_12_">
			<g id="Layer_1-2_11_">
				<rect x="305.5" y="259.6" class="st54" width="29.4" height="3.1"/>
				<rect x="265.1" y="277.3" class="st54" width="29.4" height="3.1"/>
				<path class="st55" d="M235.5,308.9c-0.7-4-1.4-9.1-1.4-12.8c0-37.2,30.2-67.4,67.4-67.4s67.4,30.2,67.4,67.4
					c0,1.8-0.1,3.9-0.3,5.9c1.4,0.6,2.7,1.2,4,1.8c0.3-2.6,0.5-5.1,0.5-7.7c0-39.5-32.1-71.5-71.6-71.5s-71.5,32.1-71.5,71.5
					c0,3.2,0.5,7.4,1.1,11.1C232.4,307.7,233.9,308.3,235.5,308.9z"/>
				<path class="st55" d="M236.7,315.1c0,0.1,0.1,0.2,0.1,0.3C236.8,315.3,236.8,315.2,236.7,315.1L236.7,315.1z"/>
				<path class="st53" d="M264.2,313.2l0.9,0V274c0-2.3-1.9-4.1-4.1-4.1h-2.8c-2.3,0-4.1,1.9-4.1,4.1v38.9
					C257.4,313.2,260.8,313.3,264.2,313.2z"/>
				<path class="st53" d="M305.5,300.3v-43c0-2.3-1.9-4.1-4.1-4.1h-2.8c-2.3,0-4.1,1.9-4.1,4.1v47.8
					C297.9,303.4,301.4,301.7,305.5,300.3z"/>
				<path class="st53" d="M337.2,296.2c3.1,0.1,6,0.3,8.8,0.6v-39.3c0-2.3-1.9-4.1-4.1-4.1H339c-2.3,0-4.1,1.9-4.1,4.1v38.6
					C335.6,296.2,336.4,296.2,337.2,296.2z"/>
				<path class="st55" d="M383.3,319.1c-1.2-1.6-2.6-3-4.1-4.3c-1.5-1.3-3.1-2.5-4.8-3.6l-0.1-0.1c-6.9-4.1-18.7-8.8-37.2-9.3
					c-21.8-0.6-30.8,3.8-40.4,8.4c-8.1,3.9-16.4,8-32.2,8.5c-17.9,0.6-31.2-3.9-40.2-8.6l-0.4-0.2c-1.7-0.8-3.4-1.7-5.1-2.6
					c-1.7-0.9-3.3-2-4.9-3.1c1.3,1.5,2.6,2.9,4.1,4.2c1.5,1.3,3,2.5,4.6,3.7c1.6,1.2,3.3,2.2,5,3.3s3.5,1.9,5.3,2.8s3.6,1.6,5.5,2.4
					s3.8,1.3,5.7,1.9l1.4,0.4l1.5,0.4c1,0.3,2,0.5,2.9,0.7c2,0.4,4,0.7,6,1s4,0.4,6,0.5c2,0.1,4,0.1,6,0.1c4.1-0.1,8.2-0.5,12.2-1.3
					c4.1-0.8,8-2.1,11.8-3.7c1.9-0.8,3.7-1.6,5.5-2.5l5.2-2.5c1.7-0.8,3.4-1.5,5-2.2s3.4-1.2,5.1-1.7c3.5-1,7-1.8,10.6-2.2
					c1.8-0.3,3.7-0.4,5.5-0.6c0.9-0.1,1.9-0.1,2.8-0.2l2.8-0.1c3.8-0.1,7.5-0.1,11.2,0.1c7.5,0.3,14.9,1.4,22,3.7l0.7,0.2l0.7,0.2
					l1.3,0.5c0.9,0.3,1.7,0.7,2.6,1.1c1.7,0.8,3.4,1.6,5,2.6c1.6,1,3.2,2.1,4.6,3.3c0.7,0.6,1.4,1.3,2.1,1.9
					c0.7,0.7,1.3,1.4,1.8,2.2c-0.3-0.9-0.8-1.8-1.3-2.6C384.4,320.7,383.9,319.9,383.3,319.1z"/>
			</g>
		</g>
		<g id="Layer_2_11_">
			<g id="Layer_1-2_10_">
				<path class="st51" d="M514.4,296.2c2.4,0.1,4.6,0.2,6.8,0.4v-10.4c0-0.1-0.1-0.2-0.2-0.2h-6.9c-0.1,0-0.2,0.1-0.2,0.2v10
					L514.4,296.2z"/>
				<path class="st56" d="M412.3,308.9c-0.7-4-1.4-9.1-1.4-12.8c0-37.2,30.2-67.4,67.4-67.4s67.4,30.2,67.4,67.4
					c0,1.8-0.1,3.9-0.3,5.9c1.4,0.6,2.7,1.2,4,1.8c0.3-2.6,0.5-5.1,0.5-7.7c0-39.5-32.1-71.5-71.6-71.5s-71.5,32.1-71.5,71.5
					c0,3.2,0.5,7.4,1.1,11.1C409.2,307.7,410.7,308.3,412.3,308.9z"/>
				<path class="st56" d="M413.5,315.1c0,0.1,0.1,0.2,0.1,0.3C413.6,315.3,413.6,315.2,413.5,315.1L413.5,315.1z"/>
				<path class="st56" d="M560.1,319.1c-1.2-1.6-2.6-3-4.1-4.3c-1.5-1.3-3.1-2.5-4.8-3.6l-0.1-0.1c-6.9-4.1-18.7-8.8-37.2-9.3
					c-21.8-0.6-30.8,3.8-40.4,8.4c-8.1,3.9-16.4,8-32.2,8.5c-17.9,0.6-31.2-3.9-40.2-8.6l-0.4-0.2c-1.7-0.8-3.4-1.7-5.1-2.6
					c-1.7-0.9-3.3-2-4.9-3.1c1.3,1.5,2.6,2.9,4.1,4.2c1.5,1.3,3,2.5,4.6,3.7c1.6,1.2,3.3,2.2,5,3.3s3.5,1.9,5.3,2.8
					c1.8,0.9,3.6,1.6,5.5,2.4s3.8,1.3,5.7,1.9l1.4,0.4l1.5,0.4c1,0.3,2,0.5,2.9,0.7c2,0.4,4,0.7,6,1c2,0.2,4,0.4,6,0.5
					c2,0.1,4,0.1,6,0.1c4.1-0.1,8.2-0.5,12.2-1.3c4.1-0.8,8-2.1,11.8-3.7c1.9-0.8,3.7-1.6,5.5-2.5l5.2-2.5c1.7-0.8,3.4-1.5,5-2.2
					c1.7-0.7,3.4-1.2,5.1-1.7c3.5-1,7-1.8,10.6-2.2c1.8-0.3,3.7-0.4,5.5-0.6c0.9-0.1,1.9-0.1,2.8-0.2l2.8-0.1
					c3.8-0.1,7.5-0.1,11.2,0.1c7.5,0.3,14.9,1.4,22,3.7l0.7,0.2l0.7,0.2l1.3,0.5c0.9,0.3,1.7,0.7,2.6,1.1c1.7,0.8,3.4,1.6,5,2.6
					c1.6,1,3.2,2.1,4.6,3.3c0.7,0.6,1.4,1.3,2.1,1.9c0.7,0.7,1.3,1.4,1.8,2.2c-0.3-0.9-0.8-1.8-1.3-2.6
					C561.2,320.7,560.7,319.9,560.1,319.1z"/>
				<path class="st51" d="M516.7,257.4h1.7c1,0,1.8,0.8,1.8,1.8v25.7c0,1-0.8,1.8-1.8,1.8h-1.7c-1,0-1.8-0.8-1.8-1.8v-25.7
					C514.9,258.2,515.7,257.4,516.7,257.4z"/>
				<path class="st51" d="M438.1,257.4h1.7c1,0,1.8,0.8,1.8,1.8v25.7c0,1-0.8,1.8-1.8,1.8h-1.7c-1,0-1.8-0.8-1.8-1.8v-25.7
					C436.3,258.2,437.1,257.4,438.1,257.4z"/>
				<path class="st51" d="M436.4,286h4.7c0.7,0,1.3,0.6,1.3,1.3v12.9c0,0.7-0.6,1.3-1.3,1.3h-4.7c-0.7,0-1.3-0.6-1.3-1.3v-12.9
					C435.1,286.6,435.6,286,436.4,286z"/>
				<path class="st53" d="M432.2,283.1h92.1c0.8,0,1.4,0.6,1.4,1.4v4.4c0,0.8-0.6,1.4-1.4,1.4h-92.1c-0.8,0-1.4-0.6-1.4-1.4v-4.4
					C430.8,283.7,431.4,283.1,432.2,283.1z"/>
				<path class="st53" d="M432.2,267.5h92c0.8,0,1.4,0.6,1.4,1.4c0,0,0,0,0,0v2.7c0,0.8-0.6,1.4-1.4,1.4l0,0h-92
					c-0.8,0-1.4-0.6-1.4-1.4l0,0v-2.7C430.8,268.1,431.4,267.5,432.2,267.5C432.2,267.5,432.2,267.5,432.2,267.5z"/>
				<path class="st53" d="M433.1,260.6h90.3c1.3,0,2.3,1,2.3,2.3l0,0v1.8c0,0.8-0.6,1.4-1.4,1.4h-92c-0.8,0-1.4-0.6-1.4-1.4v-1.8
					C430.8,261.6,431.8,260.6,433.1,260.6L433.1,260.6z"/>
				<path class="st53" d="M432.2,274.4h92c0.8,0,1.4,0.6,1.4,1.4v1.8c0,1.3-1,2.3-2.3,2.3l0,0h-90.3c-1.3,0-2.3-1-2.3-2.3l0,0v-1.8
					C430.8,275,431.4,274.4,432.2,274.4L432.2,274.4L432.2,274.4z"/>
			</g>
		</g>
	</g>
	<g>
		<path class="st57" d="M70.3,366.1v-27.3h5.7c2.7,0,4.9,0.3,6.5,0.8c1.7,0.5,3.3,1.4,4.6,2.7c2.8,2.6,4.2,5.9,4.2,10.1
			c0,4.2-1.5,7.6-4.4,10.2c-1.5,1.3-3,2.2-4.6,2.7c-1.5,0.5-3.6,0.8-6.4,0.8H70.3z M74.4,362.3h1.9c1.9,0,3.4-0.2,4.6-0.6
			c1.2-0.4,2.3-1.1,3.3-2c2-1.9,3-4.3,3-7.2c0-3-1-5.4-3-7.3c-1.8-1.7-4.5-2.5-8-2.5h-1.9V362.3z"/>
		<path class="st57" d="M99.8,348.9v9.9c0,2.9,1.1,4.3,3.4,4.3c2.3,0,3.4-1.4,3.4-4.3v-9.9h4v10c0,1.4-0.2,2.6-0.5,3.6
			c-0.3,0.9-0.9,1.7-1.7,2.4c-1.3,1.2-3.1,1.8-5.1,1.8c-2.1,0-3.8-0.6-5.1-1.8c-0.8-0.7-1.4-1.5-1.8-2.4c-0.3-0.8-0.5-2-0.5-3.6v-10
			H99.8z"/>
		<path class="st57" d="M115.6,348.9h4v1.5c0.7-0.8,1.4-1.3,1.9-1.6c0.6-0.3,1.3-0.4,2.1-0.4c1,0,2.1,0.3,3.3,1l-1.8,3.6
			c-0.8-0.5-1.5-0.8-2.2-0.8c-2.2,0-3.3,1.6-3.3,4.9v8.9h-4V348.9z"/>
		<path class="st57" d="M141.6,348.9h4v17.2h-4v-1.8c-1.6,1.5-3.4,2.3-5.3,2.3c-2.4,0-4.3-0.9-5.9-2.6c-1.5-1.8-2.3-3.9-2.3-6.6
			c0-2.6,0.8-4.7,2.3-6.5c1.5-1.7,3.5-2.6,5.8-2.6c2,0,3.8,0.8,5.4,2.5V348.9z M132.1,357.5c0,1.7,0.4,3,1.3,4
			c0.9,1,2.1,1.6,3.4,1.6c1.5,0,2.7-0.5,3.6-1.5c0.9-1,1.4-2.4,1.4-4c0-1.6-0.5-2.9-1.4-4c-0.9-1-2.1-1.5-3.5-1.5
			c-1.4,0-2.5,0.5-3.4,1.6C132.6,354.6,132.1,355.9,132.1,357.5z"/>
		<path class="st57" d="M154.6,336.3v14.6c1.6-1.7,3.4-2.5,5.4-2.5c2.3,0,4.3,0.9,5.8,2.6c1.5,1.7,2.3,3.9,2.3,6.4
			c0,2.7-0.8,4.8-2.3,6.6c-1.5,1.7-3.5,2.6-5.9,2.6c-2,0-3.8-0.8-5.3-2.3v1.8h-4v-29.9H154.6z M164,357.7c0-1.6-0.4-3-1.3-4
			c-0.9-1.1-2-1.6-3.4-1.6c-1.5,0-2.7,0.5-3.6,1.5c-0.9,1-1.4,2.3-1.4,4c0,1.7,0.4,3,1.3,4c0.9,1,2.1,1.5,3.5,1.5
			c1.4,0,2.5-0.5,3.4-1.5C163.6,360.5,164,359.2,164,357.7z"/>
		<path class="st57" d="M176.3,336.3v29.9h-4v-29.9H176.3z"/>
		<path class="st57" d="M197,358.5h-12.3c0.1,1.4,0.6,2.5,1.4,3.4c0.8,0.8,1.9,1.2,3.1,1.2c1,0,1.8-0.2,2.5-0.7
			c0.6-0.5,1.4-1.3,2.2-2.6l3.4,1.9c-0.5,0.9-1.1,1.6-1.6,2.3c-0.6,0.6-1.2,1.1-1.9,1.6c-0.7,0.4-1.4,0.7-2.1,0.9
			c-0.8,0.2-1.6,0.3-2.5,0.3c-2.6,0-4.6-0.8-6.2-2.5c-1.6-1.7-2.3-3.9-2.3-6.6c0-2.7,0.8-4.9,2.3-6.6c1.5-1.7,3.5-2.5,6-2.5
			c2.5,0,4.5,0.8,6,2.4c1.5,1.6,2.2,3.8,2.2,6.7L197,358.5z M192.9,355.2c-0.6-2.1-1.9-3.2-4-3.2c-0.5,0-0.9,0.1-1.4,0.2
			c-0.4,0.1-0.8,0.4-1.2,0.6c-0.3,0.3-0.6,0.6-0.9,1c-0.2,0.4-0.4,0.8-0.6,1.3H192.9z"/>
		<path class="st57" d="M217.4,338.9v23.4h8v3.9h-12.1v-27.3H217.4z"/>
		<path class="st57" d="M241.3,348.9h4v17.2h-4v-1.8c-1.6,1.5-3.4,2.3-5.3,2.3c-2.4,0-4.3-0.9-5.9-2.6c-1.5-1.8-2.3-3.9-2.3-6.6
			c0-2.6,0.8-4.7,2.3-6.5c1.5-1.7,3.5-2.6,5.8-2.6c2,0,3.8,0.8,5.4,2.5V348.9z M231.8,357.5c0,1.7,0.4,3,1.3,4
			c0.9,1,2.1,1.6,3.4,1.6c1.5,0,2.7-0.5,3.6-1.5c0.9-1,1.4-2.4,1.4-4c0-1.6-0.5-2.9-1.4-4c-0.9-1-2.1-1.5-3.5-1.5
			c-1.4,0-2.5,0.5-3.4,1.6C232.3,354.6,231.8,355.9,231.8,357.5z"/>
		<path class="st57" d="M250.3,348.9h4v1.6c1.4-1.4,3-2.1,4.7-2.1c2,0,3.6,0.6,4.7,1.9c1,1.1,1.4,2.8,1.4,5.3v10.6h-4v-9.6
			c0-1.7-0.2-2.9-0.7-3.5c-0.5-0.7-1.3-1-2.5-1c-1.3,0-2.3,0.4-2.8,1.3c-0.5,0.9-0.8,2.4-0.8,4.5v8.3h-4V348.9z"/>
		<path class="st57" d="M282.8,336.3h4v29.9h-4v-1.8c-1.6,1.5-3.3,2.3-5.3,2.3c-2.4,0-4.3-0.9-5.9-2.6c-1.5-1.8-2.3-3.9-2.3-6.6
			c0-2.6,0.8-4.7,2.3-6.4c1.5-1.7,3.5-2.6,5.8-2.6c2,0,3.8,0.8,5.4,2.5V336.3z M273.4,357.5c0,1.7,0.4,3,1.3,4
			c0.9,1,2.1,1.6,3.4,1.6c1.5,0,2.7-0.5,3.6-1.5c0.9-1,1.4-2.4,1.4-4c0-1.6-0.5-2.9-1.4-4c-0.9-1-2.1-1.5-3.5-1.5
			c-1.4,0-2.5,0.5-3.4,1.6C273.9,354.6,273.4,355.9,273.4,357.5z"/>
		<path class="st57" d="M301.9,351.9l-3.3,1.8c-0.5-1.1-1.2-1.6-1.9-1.6c-0.4,0-0.7,0.1-0.9,0.4c-0.3,0.2-0.4,0.6-0.4,0.9
			c0,0.7,0.8,1.3,2.3,2c2.1,0.9,3.5,1.7,4.3,2.5c0.7,0.8,1.1,1.8,1.1,3.1c0,1.7-0.6,3.1-1.8,4.2c-1.2,1.1-2.6,1.6-4.3,1.6
			c-2.9,0-4.9-1.4-6.1-4.2l3.4-1.6c0.5,0.8,0.8,1.3,1.1,1.6c0.5,0.4,1.1,0.7,1.7,0.7c1.3,0,2-0.6,2-1.8c0-0.7-0.5-1.4-1.6-2
			c-0.4-0.2-0.8-0.4-1.2-0.6c-0.4-0.2-0.8-0.4-1.2-0.6c-1.2-0.6-2-1.1-2.4-1.7c-0.6-0.7-0.9-1.6-0.9-2.8c0-1.5,0.5-2.7,1.5-3.7
			c1-1,2.3-1.5,3.8-1.5C299.2,348.5,300.8,349.6,301.9,351.9z"/>
		<path class="st57" d="M320,349.7v5.3c-0.9-1.1-1.7-1.9-2.4-2.3c-0.7-0.4-1.5-0.6-2.5-0.6c-1.5,0-2.7,0.5-3.7,1.6
			c-1,1-1.5,2.4-1.5,3.9c0,1.6,0.5,2.9,1.4,4c1,1,2.2,1.6,3.7,1.6c1,0,1.8-0.2,2.5-0.6c0.7-0.4,1.5-1.2,2.5-2.3v5.3
			c-1.6,0.8-3.2,1.3-4.8,1.3c-2.7,0-4.9-0.9-6.7-2.6c-1.8-1.7-2.7-3.9-2.7-6.5c0-2.6,0.9-4.7,2.7-6.5c1.8-1.8,4-2.7,6.7-2.7
			C316.8,348.5,318.4,348.9,320,349.7z"/>
		<path class="st57" d="M336.5,348.9h4v17.2h-4v-1.8c-1.6,1.5-3.4,2.3-5.3,2.3c-2.4,0-4.3-0.9-5.9-2.6c-1.5-1.8-2.3-3.9-2.3-6.6
			c0-2.6,0.8-4.7,2.3-6.5c1.5-1.7,3.5-2.6,5.8-2.6c2,0,3.8,0.8,5.4,2.5V348.9z M327.1,357.5c0,1.7,0.4,3,1.3,4
			c0.9,1,2.1,1.6,3.4,1.6c1.5,0,2.7-0.5,3.6-1.5c0.9-1,1.4-2.4,1.4-4c0-1.6-0.5-2.9-1.4-4c-0.9-1-2.1-1.5-3.5-1.5
			c-1.4,0-2.5,0.5-3.4,1.6C327.5,354.6,327.1,355.9,327.1,357.5z"/>
		<path class="st57" d="M349.5,375.5h-4v-26.6h4v1.9c1.6-1.6,3.3-2.4,5.3-2.4c2.4,0,4.3,0.9,5.9,2.6c1.6,1.7,2.3,3.9,2.3,6.6
			c0,2.6-0.8,4.7-2.3,6.5c-1.5,1.7-3.5,2.6-5.8,2.6c-2,0-3.8-0.8-5.4-2.4V375.5z M359,357.6c0-1.6-0.4-3-1.3-4
			c-0.9-1-2.1-1.6-3.4-1.6c-1.5,0-2.6,0.5-3.6,1.5c-0.9,1-1.4,2.3-1.4,4c0,1.6,0.5,2.9,1.4,4c0.9,1,2.1,1.5,3.5,1.5
			c1.4,0,2.5-0.5,3.4-1.6C358.5,360.5,359,359.2,359,357.6z"/>
		<path class="st57" d="M382.9,358.5h-12.3c0.1,1.4,0.6,2.5,1.4,3.4c0.8,0.8,1.9,1.2,3.1,1.2c1,0,1.8-0.2,2.5-0.7
			c0.6-0.5,1.4-1.3,2.2-2.6l3.4,1.9c-0.5,0.9-1.1,1.6-1.6,2.3c-0.6,0.6-1.2,1.1-1.9,1.6c-0.7,0.4-1.4,0.7-2.1,0.9
			c-0.8,0.2-1.6,0.3-2.5,0.3c-2.6,0-4.6-0.8-6.2-2.5c-1.6-1.7-2.3-3.9-2.3-6.6c0-2.7,0.8-4.9,2.3-6.6c1.5-1.7,3.5-2.5,6-2.5
			c2.5,0,4.5,0.8,6,2.4c1.5,1.6,2.2,3.8,2.2,6.7L382.9,358.5z M378.8,355.2c-0.6-2.1-1.9-3.2-4-3.2c-0.5,0-0.9,0.1-1.4,0.2
			c-0.4,0.1-0.8,0.4-1.2,0.6c-0.3,0.3-0.6,0.6-0.9,1c-0.2,0.4-0.4,0.8-0.6,1.3H378.8z"/>
		<path class="st57" d="M414.6,342.9l-3.3,2c-0.6-1.1-1.2-1.8-1.8-2.1c-0.6-0.4-1.3-0.6-2.3-0.6c-1.1,0-2.1,0.3-2.8,1
			c-0.8,0.6-1.1,1.4-1.1,2.4c0,1.3,1,2.4,3,3.2l2.7,1.1c2.2,0.9,3.8,2,4.9,3.3c1,1.3,1.5,2.9,1.5,4.7c0,2.5-0.8,4.6-2.5,6.2
			c-1.7,1.7-3.8,2.5-6.3,2.5c-2.4,0-4.3-0.7-5.9-2.1c-1.5-1.4-2.5-3.4-2.8-5.9l4.2-0.9c0.2,1.6,0.5,2.7,1,3.3
			c0.8,1.2,2.1,1.8,3.7,1.8c1.3,0,2.4-0.4,3.2-1.3c0.8-0.9,1.3-2,1.3-3.3c0-0.5-0.1-1-0.2-1.5c-0.1-0.4-0.4-0.8-0.7-1.2
			c-0.3-0.4-0.7-0.7-1.2-1c-0.5-0.3-1.1-0.6-1.8-0.9l-2.6-1.1c-3.7-1.6-5.6-3.9-5.6-6.9c0-2.1,0.8-3.8,2.4-5.1
			c1.6-1.4,3.5-2.1,5.9-2.1C410.4,338.3,412.9,339.9,414.6,342.9z"/>
		<path class="st57" d="M423.5,348.9v9.9c0,2.9,1.1,4.3,3.4,4.3c2.3,0,3.4-1.4,3.4-4.3v-9.9h4v10c0,1.4-0.2,2.6-0.5,3.6
			c-0.3,0.9-0.9,1.7-1.7,2.4c-1.3,1.2-3.1,1.8-5.1,1.8c-2.1,0-3.8-0.6-5.1-1.8c-0.8-0.7-1.4-1.5-1.8-2.4c-0.3-0.8-0.5-2-0.5-3.6v-10
			H423.5z"/>
		<path class="st57" d="M443.3,375.5h-4v-26.6h4v1.9c1.6-1.6,3.3-2.4,5.3-2.4c2.4,0,4.3,0.9,5.9,2.6c1.6,1.7,2.3,3.9,2.3,6.6
			c0,2.6-0.8,4.7-2.3,6.5c-1.5,1.7-3.5,2.6-5.8,2.6c-2,0-3.8-0.8-5.4-2.4V375.5z M452.7,357.6c0-1.6-0.4-3-1.3-4
			c-0.9-1-2.1-1.6-3.4-1.6c-1.5,0-2.6,0.5-3.6,1.5c-0.9,1-1.4,2.3-1.4,4c0,1.6,0.5,2.9,1.4,4c0.9,1,2.1,1.5,3.5,1.5
			c1.4,0,2.5-0.5,3.4-1.6C452.3,360.5,452.7,359.2,452.7,357.6z"/>
		<path class="st57" d="M465,375.5h-4v-26.6h4v1.9c1.6-1.6,3.3-2.4,5.3-2.4c2.4,0,4.3,0.9,5.9,2.6c1.6,1.7,2.3,3.9,2.3,6.6
			c0,2.6-0.8,4.7-2.3,6.5c-1.5,1.7-3.5,2.6-5.8,2.6c-2,0-3.8-0.8-5.4-2.4V375.5z M474.4,357.6c0-1.6-0.4-3-1.3-4
			c-0.9-1-2.1-1.6-3.4-1.6c-1.5,0-2.6,0.5-3.6,1.5c-0.9,1-1.4,2.3-1.4,4c0,1.6,0.5,2.9,1.4,4c0.9,1,2.1,1.5,3.5,1.5
			c1.4,0,2.5-0.5,3.4-1.6C474,360.5,474.4,359.2,474.4,357.6z"/>
		<path class="st57" d="M486.7,336.3v29.9h-4v-29.9H486.7z"/>
		<path class="st57" d="M491.1,341.8c0-0.7,0.3-1.3,0.8-1.8c0.5-0.5,1.1-0.8,1.8-0.8c0.7,0,1.3,0.3,1.8,0.8c0.5,0.5,0.8,1.1,0.8,1.8
			c0,0.7-0.3,1.3-0.8,1.8c-0.5,0.5-1.1,0.8-1.8,0.8c-0.7,0-1.3-0.3-1.8-0.8C491.4,343.1,491.1,342.5,491.1,341.8z M495.7,348.9v17.2
			h-4v-17.2H495.7z"/>
		<path class="st57" d="M516.4,358.5h-12.3c0.1,1.4,0.6,2.5,1.4,3.4c0.8,0.8,1.9,1.2,3.1,1.2c1,0,1.8-0.2,2.5-0.7
			c0.6-0.5,1.4-1.3,2.2-2.6l3.4,1.9c-0.5,0.9-1.1,1.6-1.6,2.3c-0.6,0.6-1.2,1.1-1.9,1.6c-0.7,0.4-1.4,0.7-2.1,0.9
			c-0.8,0.2-1.6,0.3-2.5,0.3c-2.6,0-4.6-0.8-6.2-2.5c-1.6-1.7-2.3-3.9-2.3-6.6c0-2.7,0.8-4.9,2.3-6.6c1.5-1.7,3.5-2.5,6-2.5
			c2.5,0,4.5,0.8,6,2.4c1.5,1.6,2.2,3.8,2.2,6.7L516.4,358.5z M512.3,355.2c-0.6-2.1-1.9-3.2-4-3.2c-0.5,0-0.9,0.1-1.4,0.2
			c-0.4,0.1-0.8,0.4-1.2,0.6c-0.3,0.3-0.6,0.6-0.9,1c-0.2,0.4-0.4,0.8-0.6,1.3H512.3z"/>
		<path class="st57" d="M530.8,351.9l-3.3,1.8c-0.5-1.1-1.2-1.6-1.9-1.6c-0.4,0-0.7,0.1-0.9,0.4c-0.3,0.2-0.4,0.6-0.4,0.9
			c0,0.7,0.8,1.3,2.3,2c2.1,0.9,3.5,1.7,4.3,2.5c0.7,0.8,1.1,1.8,1.1,3.1c0,1.7-0.6,3.1-1.8,4.2c-1.2,1.1-2.6,1.6-4.3,1.6
			c-2.9,0-4.9-1.4-6.1-4.2l3.4-1.6c0.5,0.8,0.8,1.3,1.1,1.6c0.5,0.4,1.1,0.7,1.7,0.7c1.3,0,2-0.6,2-1.8c0-0.7-0.5-1.4-1.6-2
			c-0.4-0.2-0.8-0.4-1.2-0.6c-0.4-0.2-0.8-0.4-1.2-0.6c-1.2-0.6-2-1.1-2.4-1.7c-0.6-0.7-0.9-1.6-0.9-2.8c0-1.5,0.5-2.7,1.5-3.7
			c1-1,2.3-1.5,3.8-1.5C528.1,348.5,529.7,349.6,530.8,351.9z"/>
	</g>
</g>
</svg>
