<?xml version="1.0" encoding="utf-8"?>
<!-- Generator: Adobe Illustrator 23.0.1, SVG Export Plug-In . SVG Version: 6.00 Build 0)  -->
<svg version="1.1" id="Layer_1" xmlns="http://www.w3.org/2000/svg" xmlns:xlink="http://www.w3.org/1999/xlink" x="0px" y="0px"
	 viewBox="0 0 600 600" style="enable-background:new 0 0 600 600;" xml:space="preserve">
<style type="text/css">
	.st0{fill:#36A9E1;}
	.st1{fill:#1D1D1B;}
	.st2{fill:#2E5227;}
	.st3{fill:#231F20;}
	.st4{fill:#977E63;}
	.st5{fill:#771914;}
	.st6{fill:#DF4336;}
	.st7{fill:#FFFFFF;}
	.st8{fill:#DE4435;}
	.st9{fill:url(#SVGID_1_);}
	.st10{fill:url(#SVGID_2_);}
	.st11{fill:url(#SVGID_3_);}
	.st12{fill:#404041;}
	.st13{fill:url(#SVGID_4_);}
	.st14{fill:url(#SVGID_5_);}
	.st15{fill:url(#SVGID_6_);}
	.st16{fill:url(#SVGID_7_);}
	.st17{fill:url(#SVGID_8_);}
	.st18{fill:url(#SVGID_9_);}
	.st19{fill:url(#SVGID_10_);}
	.st20{fill:url(#SVGID_11_);}
	.st21{fill:url(#SVGID_12_);}
	.st22{fill:#EC1C24;}
	.st23{fill:none;stroke:#1D1D1B;stroke-width:4.0818;stroke-miterlimit:10;}
	.st24{fill:#C99D66;}
	.st25{fill:#35A8E0;}
	.st26{fill:#2DAB66;}
	.st27{fill:none;stroke:#1D1D1B;stroke-width:3.4123;stroke-linejoin:round;stroke-miterlimit:10;}
	.st28{fill:#E20613;}
	.st29{fill:#FCEA0D;}
	.st30{fill:#F094BD;}
	.st31{fill:#E5332A;}
	.st32{fill:#E84E1B;}
	.st33{fill:#F29100;}
	.st34{fill:#F8B133;}
	.st35{fill:#008D36;}
	.st36{fill:#006633;}
	.st37{fill:#39A935;}
	.st38{fill:#1D3763;}
	.st39{fill:url(#SVGID_13_);}
	.st40{fill:url(#SVGID_14_);}
	.st41{fill:url(#SVGID_15_);}
	.st42{fill:url(#SVGID_16_);}
	.st43{fill:url(#SVGID_17_);}
	.st44{fill:url(#SVGID_18_);}
	.st45{fill:url(#SVGID_19_);}
	.st46{fill:url(#SVGID_20_);}
	.st47{fill:url(#SVGID_21_);}
	.st48{fill:none;}
	.st49{fill:#93C01F;}
	.st50{fill:#81358A;}
	.st51{fill:#4B2C15;}
	.st52{fill:#79A242;}
	.st53{fill:#613917;stroke:#613917;stroke-width:0.3451;stroke-miterlimit:10;}
	.st54{fill:#8D8C8C;stroke:#8D8C8C;stroke-width:0.3451;stroke-miterlimit:10;}
	.st55{fill:#273577;}
	.st56{fill:#6C1510;}
	.st57{fill:#185126;}
</style>
<g>
	<path class="st2" d="M375,296.7c-13.3,1-1-8.5,15.4-17.8c16.4-9.3,14.6-23.3,14.6-23.3s-5.9-60.1-17.2-57.9
		c-11.3,2.2-14.4,23.3-26.7,20.2c-12.3-3.1,4.5-14.4,10.8-20.1c6.3-5.7,8.5-10.8,6.9-16.3s-20.2-40.3-26.1-37.7s-4.7,19-11.5,24.9
		c-6.7,5.9-5.8-3.7-5.8-3.7s12.4-21.4,6.2-33.7c-5.5-10.7-30.8-24-37.1-27.2c-0.9-0.4-1.9-0.4-2.8,0.1c-5.9,3.4-29.8,17.2-36.7,23.1
		c-8,6.8-11.9,12.2-12,21.5c-0.1,9.3,26.8,35.3,17.7,39.4c-7.4,3.3-23.6-20.9-29.4-30c-1.1-1.7-3.5-1.8-4.7-0.3
		c-13.6,16.8-19.1,35.4-17.7,42.3c1.5,7.3,30.9,40.8,24.4,41.8c-5.4,0.8-30.1-22.6-38.5-30.7c-1.5-1.4-4-0.9-4.7,1
		c-5,12.8-5.3,41.1-5.2,50.4c0.1,10.4,3.2,12.5,8.7,19.4s36.5,7,27.9,15.5c-6.3,6.2-22.3-0.4-30.3-4.3c-2.1-1-4.5,0.7-4.1,3
		c2.6,16.3,12.8,27.2,17.1,36.7c4.7,10.6,9.3,14.1,22.9,24.7c7.9,6.2,18.2,6.8,25.5,6.2c4.5-0.4,8.9-2,12.6-4.6
		c0.9-0.6,1.8-1.1,2.7-1.6c3.2-1.7,5-5.3,4.6-8.9c-1.7-18.4-4.5-43.3-12.4-50.9c-6.1-5.8-11.9-9.9-16.9-12.6
		c-1.6-0.9-2.9-1.7-4.6-1.8l-0.1,0c-8.4-0.7-12.7-8-12-16.4c0.7-8.9,7.1-15.5,16.2-13.8c6.2,1.2,11.1,6.1,12.2,12.3
		c0.4,2.3,0.2,4.5-0.3,6.5c-0.4,1.4,0.6,2.6,1,3.4c0.9,1.6,2.3,3.8,4.6,5.9c2.4,2.3,5,3.5,6.6,4.3c1,0.5,1.8,0.7,2.6,0.3
		c0.8-0.4,1.1-1.3,1.2-2.3c0.5-5.6,0.3-12.8-1-20.8c-1.1-7.2-3.1-13.3-4.7-18.2c-0.3-1-0.7-1.7-1.4-2.1c-4.8-2.9-7.8-8.4-7.3-14.3
		c0.8-9,8.4-12,17.5-10.2c6.8,1.3,12.7,3.9,13,10.8c0.2,4.7-1.7,8.8-4.7,11.7c-1.4,1.3-1.1,3.4-1.3,4.4c0.1,4.6,0.6,10.3,2,16.5
		c2,8.8,5.1,15.9,7.9,20.9c0.6,1,1.1,1.6,2,1.7c0.9,0.1,1.7-0.6,2.2-1.3c2.9-3.8,7.8-9.3,10.9-17.6c2-5.1,2.9-9.8,3.2-13.5
		c0.1-1,0.4-2.1-0.1-3c-1.4-2.5-2.1-5.5-1.8-8.6c0.7-8.7,9.8-18.3,17.5-13.8c9.1,5.2,13.2,8.2,13,15.5c-0.2,6.9-4.8,12.5-11,14.3
		c-2.7,0.8-3.9,3.3-4.7,4.3c-1.7,2.2-4.2,5.2-6.1,9.4c-2.5,5.5-2.9,10.5-3.3,13.7c-0.2,1.1-0.1,2,0.6,2.6c0.7,0.6,1.8,0.4,2.6,0.2
		c1.8-0.5,5.1-0.7,8.6-2.8c2.9-1.7,4.7-3.8,5.9-5.4c0.4-0.6,0.9-1.1,1.4-1.7c0.5-0.6,1-1.5,1-2.4c-0.1-2,0.4-4.1,1.2-6.2
		c2.9-7.1,9-10,15.6-9.3c9.1,1,14.4,9.8,12.2,19.2c-1.3,5.4-5.4,9.8-10.8,10.9c-2.4,0.5-4.7,0.4-6.7-0.2c-1.1-0.3-2,0.3-2.6,0.6
		c-5.8,3.2-12.2,7.3-18.7,12.2c-7.9,6-12.1,30.4-14.6,48.6c-0.5,3.9,1.4,7.7,4.9,9.4c3,1.5,5.5,3.1,7.3,4.7
		c10.1,8.8,33.3-1.9,33.3-1.9c37.7-21.8,41.9-72.4,41.1-78.9C403.7,276.6,388.4,295.7,375,296.7z"/>
	<g>
		<path class="st3" d="M139.4,402.5h14.8l-14.7,93.9H126l-8-51.2l-7.5,51.2H96.9l-15.7-93.9h14.8l7.4,50.3l6.8-50.3h14.8l7.4,50.3
			L139.4,402.5z"/>
		<path class="st3" d="M188.2,496.3H174v-93.9h14.2V496.3z"/>
		<path class="st3" d="M247.3,496.3h-38.6v-93.9h14.2v79.8h24.4V496.3z"/>
		<path class="st3" d="M309.3,473.9c0,6.2-2.2,11.5-6.5,15.8c-4.4,4.4-9.6,6.6-15.7,6.6h-22.2v-93.9h22.2c6.2,0,11.4,2.2,15.7,6.6
			c4.3,4.4,6.5,9.7,6.5,15.8V473.9z M279,482.3h8.5c2.3,0,4.2-0.8,5.7-2.4c1.5-1.6,2.3-3.5,2.3-5.7v-49.1c0-2.2-0.8-4.1-2.4-5.7
			c-1.6-1.6-3.5-2.4-5.6-2.4H279V482.3z"/>
		<path class="st3" d="M368.2,496.3h-38.6v-93.9h14.2v79.8h24.4V496.3z"/>
		<path class="st3" d="M400,496.3h-14.2v-93.9H400V496.3z"/>
		<path class="st3" d="M434.7,496.3h-14.2v-93.9h40.3v14.2h-26.1v25.7h19.1v14.2h-19.1V496.3z"/>
		<path class="st3" d="M478.5,496.3v-93.9h40.3v14.2h-26.1v25.7h19.1v14.2h-19.1v25.7h26.1v14.2H478.5z"/>
	</g>
</g>
</svg>
