<?xml version="1.0" encoding="utf-8"?>
<!-- Generator: Adobe Illustrator 23.0.1, SVG Export Plug-In . SVG Version: 6.00 Build 0)  -->
<svg version="1.1" id="Layer_1" xmlns="http://www.w3.org/2000/svg" xmlns:xlink="http://www.w3.org/1999/xlink" x="0px" y="0px"
	 viewBox="0 0 600 600" style="enable-background:new 0 0 600 600;" xml:space="preserve">
<style type="text/css">
	.st0{fill:#36A9E1;}
	.st1{fill:#1D1D1B;}
	.st2{fill:#2E5227;}
	.st3{fill:#231F20;}
	.st4{fill:#977E63;}
	.st5{fill:#771914;}
	.st6{fill:#DF4336;}
	.st7{fill:#FFFFFF;}
	.st8{fill:#DE4435;}
	.st9{fill:url(#SVGID_1_);}
	.st10{fill:url(#SVGID_2_);}
	.st11{fill:url(#SVGID_3_);}
	.st12{fill:#404041;}
	.st13{fill:url(#SVGID_4_);}
	.st14{fill:url(#SVGID_5_);}
	.st15{fill:url(#SVGID_6_);}
	.st16{fill:url(#SVGID_7_);}
	.st17{fill:url(#SVGID_8_);}
	.st18{fill:url(#SVGID_9_);}
	.st19{fill:url(#SVGID_10_);}
	.st20{fill:url(#SVGID_11_);}
	.st21{fill:url(#SVGID_12_);}
	.st22{fill:#EC1C24;}
	.st23{fill:none;stroke:#1D1D1B;stroke-width:4.0818;stroke-miterlimit:10;}
	.st24{fill:#C99D66;}
	.st25{fill:#35A8E0;}
	.st26{fill:#2DAB66;}
	.st27{fill:none;stroke:#1D1D1B;stroke-width:3.4123;stroke-linejoin:round;stroke-miterlimit:10;}
	.st28{fill:#E20613;}
	.st29{fill:#FCEA0D;}
	.st30{fill:#F094BD;}
	.st31{fill:#E5332A;}
	.st32{fill:#E84E1B;}
	.st33{fill:#F29100;}
	.st34{fill:#F8B133;}
	.st35{fill:#008D36;}
	.st36{fill:#006633;}
	.st37{fill:#39A935;}
	.st38{fill:#1D3763;}
	.st39{fill:url(#SVGID_13_);}
	.st40{fill:url(#SVGID_14_);}
	.st41{fill:url(#SVGID_15_);}
	.st42{fill:url(#SVGID_16_);}
	.st43{fill:url(#SVGID_17_);}
	.st44{fill:url(#SVGID_18_);}
	.st45{fill:url(#SVGID_19_);}
	.st46{fill:url(#SVGID_20_);}
	.st47{fill:url(#SVGID_21_);}
	.st48{fill:none;}
	.st49{fill:#93C01F;}
	.st50{fill:#81358A;}
	.st51{fill:#4B2C15;}
	.st52{fill:#79A242;}
	.st53{fill:#613917;stroke:#613917;stroke-width:0.3451;stroke-miterlimit:10;}
	.st54{fill:#8D8C8C;stroke:#8D8C8C;stroke-width:0.3451;stroke-miterlimit:10;}
	.st55{fill:#273577;}
	.st56{fill:#6C1510;}
	.st57{fill:#185126;}
</style>
<g>
	<g>
		<path class="st1" d="M101.5,348.2c-0.7,0-1.3-0.6-1.3-1.3v-5.7c0-0.7,0.6-1.3,1.3-1.3h7.5v-55.4h-0.1L87.7,337
			c-0.9,2.2-2.6,3.3-5,3.3c-2.2,0-3.9-1.1-4.8-3.3l-21.1-52.5h-0.2v55.4H64c0.8,0,1.4,0.6,1.4,1.4v5.6c0,0.7-0.6,1.3-1.3,1.3H38.4
			c-0.8,0-1.4-0.6-1.4-1.4v-5.6c0-0.9,0.4-1.3,1.4-1.3h8.5v-63.2h-8.5c-0.8,0-1.4-0.6-1.4-1.4v-5.6c0-0.9,0.4-1.3,1.4-1.3h17.1
			c2.7,0,4.3,1.4,5.2,3.8l16.6,40c2,4.9,5.2,14,5.2,14h0.4c0,0,3.1-8.7,5.1-13.8l16.7-40.3c0.9-2.3,2.6-3.8,5.3-3.8h17
			c0.7,0,1.3,0.6,1.3,1.3v5.7c0,0.9-0.6,1.3-1.3,1.3h-8.6v63.2h8.6c0.7,0,1.3,0.6,1.3,1.3v5.7c0,0.9-0.6,1.3-1.3,1.3H101.5z"/>
		<path class="st1" d="M159.6,348.2c-0.8,0-1.3-0.4-1.3-1.3v-5.7c0-0.7,0.6-1.3,1.3-1.3h8.6v-23.8c-0.3-0.4-16.4-29.4-23-39.4h-7.6
			c-1,0-1.4-0.4-1.4-1.3v-5.7c0-0.7,0.6-1.3,1.3-1.3h25.1c0.7,0,1.3,0.6,1.3,1.3v5.7c0,0.7-0.6,1.3-1.3,1.3h-7.3l17.5,30.9h0.7
			l17.4-30.9h-7.3c-0.7,0-1.3-0.6-1.3-1.3v-5.7c0-0.7,0.6-1.3,1.3-1.3h25.1c0.8,0,1.3,0.4,1.3,1.3v5.7c0,0.7-0.6,1.3-1.3,1.3h-7.7
			c-6.9,10-22.7,38.9-23,39.3v23.9h8.6c0.7,0,1.3,0.6,1.3,1.3v5.7c0,0.7-0.6,1.3-1.3,1.3H159.6z"/>
		<path class="st1" d="M329,348.2c-2.9,0-4.5-1.3-5.2-4.5l-12.9-56.5h-0.3l-12.7,56.5c-0.8,3.1-2.3,4.5-5.3,4.5h-4.1
			c-3,0-4.3-1.4-5.3-4.5l-20.4-67.1h-7c-0.8,0-1.4-0.6-1.4-1.4v-5.6c0-0.7,0.6-1.3,1.3-1.3h25.1c0.8,0,1.4,0.6,1.4,1.4v5.6
			c0,0.7-0.6,1.3-1.3,1.3H273l17.2,59.7h0.7l15.5-68.1h8.9l15.6,68.1h0.7l17.2-59.7h-7.9c-0.7,0-1.3-0.6-1.3-1.3v-5.7
			c0-0.9,0.6-1.3,1.3-1.3H366c0.7,0,1.3,0.6,1.3,1.3v5.7c0,0.7-0.6,1.3-1.3,1.3h-7.1l-20.4,67.1c-0.9,3-2.3,4.5-5.2,4.5H329z"/>
		<path class="st1" d="M373.1,348.2c-0.8,0-1.4-0.6-1.4-1.4v-5.6c0-0.9,0.4-1.3,1.4-1.3h8.5v-63.2h-8.5c-0.8,0-1.4-0.6-1.4-1.4v-5.6
			c0-0.9,0.4-1.3,1.4-1.3h26.7c0.8,0,1.4,0.6,1.4,1.4v5.6c0,0.7-0.6,1.3-1.3,1.3h-8.7v63.2h8.6c0.8,0,1.4,0.6,1.4,1.4v5.6
			c0,0.7-0.6,1.3-1.3,1.3H373.1z"/>
		<path class="st1" d="M474.6,348.2c-3.1,0-4.3-1.3-5.7-3.4l-32.2-50.3c-3.2-4.9-5.6-9.3-5.6-9.3h-0.2v54.7h8.6
			c0.8,0,1.4,0.6,1.4,1.4v5.6c0,0.7-0.6,1.3-1.3,1.3h-26.8c-0.8,0-1.4-0.6-1.4-1.4v-5.6c0-0.9,0.4-1.3,1.4-1.3h8.5v-63.2h-8.5
			c-0.8,0-1.4-0.6-1.4-1.4v-5.6c0-0.9,0.4-1.3,1.4-1.3h15.6c3.1,0,4.4,1.9,5.7,3.8l31.7,49.6c3.6,5.6,6.3,10.8,6.3,10.8h0.2v-55.8
			h-8.6c-0.7,0-1.3-0.6-1.3-1.3v-5.7c0-0.7,0.6-1.3,1.3-1.3h26.8c0.7,0,1.3,0.6,1.3,1.3v17.9c0,0.7-0.6,1.3-1.3,1.3h-0.1
			c-4.7,0-8.5,3.8-8.5,8.5v50.9H474.6z"/>
		<path class="st1" d="M502.9,348.2c-0.8,0-1.4-0.6-1.4-1.4v-5.6c0-0.9,0.4-1.3,1.4-1.3h8v-42.6c0-4.7-3.8-8.5-8.5-8.5h0
			c-0.8,0-1.4-0.6-1.4-1.4v-17.7c0-0.9,0.4-1.3,1.4-1.3h59.1c0.8,0,1.4,0.6,1.4,1.4v17.8c0,0.8-0.6,1.4-1.4,1.4h-6
			c-0.7,0-1.3-0.6-1.3-1.3v-11h-33.6v27.6h28.1c0.8,0,1.4,0.6,1.4,1.4v5.6c0,0.7-0.6,1.3-1.3,1.3h-28.3v27.3h33.5V329
			c0-0.7,0.6-1.3,1.3-1.3h6.1c0.8,0,1.4,0.6,1.4,1.4v17.8c0,0.7-0.6,1.3-1.3,1.3H502.9z"/>
	</g>
	<path class="st1" d="M481.9,339.9L481.9,339.9h8.2c0.8,0,1.4,0.6,1.4,1.4v5.6c0,0.7-0.6,1.3-1.3,1.3h-8.3"/>
	<path class="st1" d="M498.9,264.7l-5.1,0c-0.3,0-0.6-0.4-0.6-0.8l-1.3-11.3c0-0.5,0.4-0.8,0.8-0.8h7.3c0.5,0,0.8,0.4,0.8,0.8
		l-1.3,11.3C499.6,264.4,499.3,264.7,498.9,264.7z"/>
</g>
</svg>
