<?xml version="1.0" encoding="utf-8"?>
<!-- Generator: Adobe Illustrator 23.0.1, SVG Export Plug-In . SVG Version: 6.00 Build 0)  -->
<svg version="1.1" id="Layer_1" xmlns="http://www.w3.org/2000/svg" xmlns:xlink="http://www.w3.org/1999/xlink" x="0px" y="0px"
	 viewBox="0 0 600 600" style="enable-background:new 0 0 600 600;" xml:space="preserve">
<style type="text/css">
	.st0{fill:#36A9E1;}
	.st1{fill:#1D1D1B;}
	.st2{fill:#2E5227;}
	.st3{fill:#231F20;}
	.st4{fill:#977E63;}
	.st5{fill:#771914;}
	.st6{fill:#DF4336;}
	.st7{fill:#FFFFFF;}
	.st8{fill:#DE4435;}
	.st9{fill:url(#SVGID_1_);}
	.st10{fill:url(#SVGID_2_);}
	.st11{fill:url(#SVGID_3_);}
	.st12{fill:#404041;}
	.st13{fill:url(#SVGID_4_);}
	.st14{fill:url(#SVGID_5_);}
	.st15{fill:url(#SVGID_6_);}
	.st16{fill:url(#SVGID_7_);}
	.st17{fill:url(#SVGID_8_);}
	.st18{fill:url(#SVGID_9_);}
	.st19{fill:url(#SVGID_10_);}
	.st20{fill:url(#SVGID_11_);}
	.st21{fill:url(#SVGID_12_);}
	.st22{fill:#EC1C24;}
	.st23{fill:none;stroke:#1D1D1B;stroke-width:4.0818;stroke-miterlimit:10;}
	.st24{fill:#C99D66;}
	.st25{fill:#35A8E0;}
	.st26{fill:#2DAB66;}
	.st27{fill:none;stroke:#1D1D1B;stroke-width:3.4123;stroke-linejoin:round;stroke-miterlimit:10;}
	.st28{fill:#E20613;}
	.st29{fill:#FCEA0D;}
	.st30{fill:#F094BD;}
	.st31{fill:#E5332A;}
	.st32{fill:#E84E1B;}
	.st33{fill:#F29100;}
	.st34{fill:#F8B133;}
	.st35{fill:#008D36;}
	.st36{fill:#006633;}
	.st37{fill:#39A935;}
	.st38{fill:#1D3763;}
	.st39{fill:url(#SVGID_13_);}
	.st40{fill:url(#SVGID_14_);}
	.st41{fill:url(#SVGID_15_);}
	.st42{fill:url(#SVGID_16_);}
	.st43{fill:url(#SVGID_17_);}
	.st44{fill:url(#SVGID_18_);}
	.st45{fill:url(#SVGID_19_);}
	.st46{fill:url(#SVGID_20_);}
	.st47{fill:url(#SVGID_21_);}
	.st48{fill:none;}
	.st49{fill:#93C01F;}
	.st50{fill:#81358A;}
	.st51{fill:#4B2C15;}
	.st52{fill:#79A242;}
	.st53{fill:#613917;stroke:#613917;stroke-width:0.3451;stroke-miterlimit:10;}
	.st54{fill:#8D8C8C;stroke:#8D8C8C;stroke-width:0.3451;stroke-miterlimit:10;}
	.st55{fill:#273577;}
	.st56{fill:#6C1510;}
	.st57{fill:#185126;}
</style>
<g>
	<g>
		<g>
			<path class="st1" d="M97.7,339.2l-12.9,5.4v28.8l-8-8.7H58.2l-11.1,12V429l11.1,12h18.6l8-8.7l12.5,8.7h3.6V339.2H97.7z
				 M84.8,424.4H63.2v-43.1h21.5V424.4z"/>
			<path class="st1" d="M158.7,411.4l11.1-12v-22.8l-11.1-12h-32.9l-11.1,12V429l11.1,12h32.9l11.1-12v-3.9h-39v-13.7H158.7z
				 M130.8,381.3h22.9v14.3h-22.9V381.3z"/>
			<path class="st1" d="M225.6,364.7H194l-11.1,12v4.6h37.7v13.5H194l-12.4,13.4V429l11.1,12h19.9l8-8.7L233,441h3.6v-64.3
				L225.6,364.7z M220.6,425.1h-23v-14.5h23V425.1z"/>
			<path class="st1" d="M288.2,352.8v20.5l-8.1-8.7h-18.5l-11.1,12V429l11.1,12h18.5l8.1-8.7l12.4,8.7h3.6v-88.2H288.2z
				 M288.2,424.4h-21.6v-43.1h21.6V424.4z"/>
			<path class="st1" d="M358.3,364.7h-18.5l-8,8.7v-20.5h-16.1l0.2,88.2h3.5l12.5-8.7l8,8.7h18.5l11.1-12v-52.3L358.3,364.7z
				 M353.3,424.4h-21.6v-43.1h21.6V424.4z"/>
			<path class="st1" d="M427.3,411.4l11.1-12v-22.8l-11.1-12h-32.9l-11.1,12V429l11.1,12h32.9l11.1-12v-3.9h-39v-13.7H427.3z
				 M399.3,381.3h22.9v14.3h-22.9V381.3z"/>
			<path class="st1" d="M494.2,364.7h-31.6l-11.1,12v4.6h37.6v13.5h-26.6l-12.4,13.4V429l11.1,12h19.9l8-8.7l12.5,8.7h3.6v-64.3
				L494.2,364.7z M489.1,425.1h-22.9v-14.5h22.9V425.1z"/>
			<path class="st1" d="M552.8,381.3v-16.6h-15.3v-25.7h-3.5l-12.5,6.8v18.9l-8.4,12.7v3.9h8.4V429l11.1,12h19.9v-16.6h-14.9v-43.1
				H552.8z"/>
		</g>
		<g>
			<rect x="127.2" y="300.3" class="st1" width="82.7" height="36.6"/>
			<rect x="127.2" y="253.2" class="st1" width="82.7" height="36.6"/>
			<path class="st1" d="M304.2,318.6V337h-82.7v-36.7h53l0,0.4c0.4,10.5,10.1,17.8,23.7,17.8H304.2z"/>
			<path class="st1" d="M260.8,289.9h-39.3v-36.7h29.4l2.2,22.1C253.3,281.1,256.2,286.2,260.8,289.9z"/>
			<path class="st1" d="M249.4,239l0.4,3.8h-28.4v-36.6h40.7C254.2,214.9,249.4,226.4,249.4,239z"/>
			<path class="st1" d="M304.2,159v28.9c-10.7,0-20.6,2.8-29.1,7.8h-53.7V159H304.2z"/>
			<rect x="409.9" y="300.3" class="st1" width="82.7" height="36.6"/>
			<rect x="409.9" y="253.2" class="st1" width="82.7" height="36.6"/>
			<path class="st1" d="M398.4,300.3V337h-82.7v-18.4h6c13.5,0,23.3-7.3,23.6-17.4l0.1-0.8H398.4z"/>
			<path class="st1" d="M398.4,253.2v36.7h-39.3c4.6-3.6,7.5-8.5,7.6-14l2.3-22.6H398.4z"/>
			<path class="st1" d="M398.4,206.1v36.6h-28.3l0.4-3.6c0-0.1,0-0.9,0-1c0-12.2-4.7-23.3-12.6-32H398.4z"/>
			<path class="st1" d="M398.4,159v36.6h-53.6c-8.4-4.9-18.4-7.7-29.1-7.8V159H398.4z"/>
			<g>
				<g>
					<path class="st1" d="M345.7,206.1c-8.1-6.2-18.7-10-30.1-10h-11.2c-11.5,0-22,3.7-30.1,10c-10.1,7.7-16.6,19.2-16.6,32l0.5,4.6
						l1,10.5l2.2,21.8c0.3,7.2,8.1,12.7,18.3,12.7l2,0.1l0.2,2.2l0.9,10.5v0.1c0.2,4.3,3.6,7.6,8.8,9c2,0.6,4.2,0.9,6.6,0.9h23.5
						c2.4,0,4.6-0.3,6.6-0.9c5.3-1.5,8.7-4.8,8.8-9v-0.1l0.9-10.5l0.2-2.2c0,0,0.1,0,0.1,0h1.9c10.3,0,18.1-5.4,18.4-12.7l2.2-21.8
						l1-10.5l0.4-4l0-0.6C362.2,225.3,355.8,213.8,345.7,206.1z M349.9,242.8l-1,10.5l-2.1,20.8c-0.7,0.6-2.9,1.8-6.5,1.8h-1.9
						c-5.6,0-10.3,3.5-11.5,8.5c-0.2,0.6-0.3,1.2-0.3,1.8l-0.3,3.8l-0.7,8.1c-0.8,0.3-2,0.5-3.7,0.5h-0.6v-6.7
						c0-0.7-0.2-1.3-0.5-1.9c-0.5-1-1.5-1.7-2.6-2c-0.3-0.1-0.6-0.1-0.8-0.1c-0.5,0-1,0.1-1.5,0.3c-0.4,0.2-0.8,0.4-1.2,0.7
						c-0.4,0.4-0.8,0.9-1,1.4c-0.2,0.5-0.3,1-0.3,1.6v6.7h-6.6v-6.7c0-0.6-0.1-1.1-0.3-1.6c-0.2-0.5-0.6-1-1-1.4
						c-0.3-0.3-0.7-0.6-1.2-0.7c-0.5-0.2-1-0.3-1.5-0.3c-0.3,0-0.6,0-0.8,0.1c-1.2,0.2-2.1,1-2.6,2c-0.3,0.6-0.5,1.2-0.5,1.9v6.7
						h-0.6c-1.7,0-2.9-0.3-3.7-0.5l-0.7-8.1l-0.3-3.8c-0.1-0.6-0.2-1.2-0.3-1.8v0c-1.3-4.9-6-8.5-11.5-8.5h-1.9
						c-3.6,0-5.8-1.2-6.5-1.8l-2.1-20.8l-1-10.5l-0.5-4.9c0.2-16.5,15.6-29.8,34.6-29.9h11.5c19,0.1,34.5,13.4,34.7,29.9
						L349.9,242.8z"/>
				</g>
				<g>
					<path class="st1" d="M300,253.2c1.1,1.5,0.9,3.7-0.5,5c-0.8,0.8-1.8,1.2-2.8,1.2c-1,0-2-0.4-2.8-1.2l-2.7-2.7l-2.7,2.7
						c-0.8,0.8-1.8,1.2-2.8,1.2c-1,0-2-0.4-2.8-1.2c-1.4-1.4-1.5-3.5-0.5-5c0.1-0.2,0.3-0.4,0.5-0.6l2.7-2.7l-2.7-2.7
						c-1.2-1.2-1.5-3.1-0.7-4.5c0.2-0.4,0.4-0.7,0.7-1c1.6-1.5,4.1-1.5,5.6,0l1.1,1l1.6,1.6l1.6-1.6l1-1c1.6-1.5,4-1.5,5.6,0
						c0.3,0.3,0.6,0.7,0.7,1c0.8,1.5,0.5,3.3-0.7,4.5l-2.7,2.7l2.7,2.7C299.8,252.8,299.9,253,300,253.2z"/>
				</g>
				<g>
					<path class="st1" d="M337.3,253.2c1.1,1.5,0.9,3.7-0.5,5c-0.8,0.8-1.8,1.2-2.8,1.2c-1,0-2-0.4-2.8-1.2l-2.7-2.7l-2.7,2.7
						c-0.8,0.8-1.8,1.2-2.8,1.2c-1,0-2-0.4-2.8-1.2c-1.3-1.4-1.5-3.5-0.5-5c0.1-0.2,0.3-0.4,0.5-0.6l2.7-2.7l-2.7-2.7
						c-1.2-1.2-1.5-3.1-0.7-4.5c0.2-0.4,0.4-0.7,0.7-1c1.6-1.5,4.1-1.5,5.6,0l2.7,2.7l2.7-2.7c1.6-1.5,4-1.5,5.6,0
						c0.3,0.3,0.6,0.7,0.7,1c0.8,1.5,0.5,3.3-0.7,4.5l-2.7,2.7l2.7,2.7C337,252.8,337.2,253,337.3,253.2z"/>
				</g>
				<path class="st1" d="M311.8,277.3h-3.8c-2.5,0-4.2-2.6-3.2-4.9l1.9-4.3c1.2-2.8,5.2-2.8,6.4,0l1.9,4.3
					C316,274.7,314.3,277.3,311.8,277.3z"/>
			</g>
		</g>
	</g>
	<path class="st1" d="M97.7,339.2l-12.9,5.4v28.8l-8-8.7H58.2l-11.1,12V429l11.1,12h18.6l8-8.7l12.5,8.7h3.6V339.2H97.7z
		 M84.8,424.4H63.2v-43.1h21.5V424.4z M158.7,411.4l11.1-12v-22.8l-11.1-12h-32.9l-11.1,12V429l11.1,12h32.9l11.1-12v-3.9h-39v-13.7
		H158.7z M130.8,381.3h22.9v14.3h-22.9V381.3z M127.2,253.2v36.6H210v-36.6H127.2z M127.2,300.3V337H210v-36.6H127.2z M225.6,364.7
		H194l-11.1,12v4.6h37.7v13.5H194l-12.4,13.4V429l11.1,12h19.9l8-8.7L233,441h3.6v-64.3L225.6,364.7z M220.6,425.1h-23v-14.5h23
		V425.1z M253.1,275.3l-2.2-22.1h-29.4v36.7h39.3C256.2,286.2,253.3,281.1,253.1,275.3z M262.2,206.1h-40.7v36.6h28.4l-0.4-3.8
		C249.4,226.4,254.2,214.9,262.2,206.1z M221.5,159v36.6h53.7c8.4-4.9,18.4-7.7,29.1-7.8V159H221.5z M298.2,318.6
		c-13.5,0-23.2-7.3-23.7-17.8l0-0.4h-53V337h82.7v-18.4H298.2z M288.2,352.8v20.5l-8.1-8.7h-18.5l-11.1,12V429l11.1,12h18.5l8.1-8.7
		l12.4,8.7h3.6v-88.2H288.2z M288.2,424.4h-21.6v-43.1h21.6V424.4z M345.7,206.1c-8.1-6.2-18.7-10-30.1-10h-11.2
		c-11.5,0-22,3.7-30.1,10c-10.1,7.7-16.6,19.2-16.6,32l0.5,4.6l1,10.5l2.2,21.8c0.3,7.2,8.1,12.7,18.3,12.7l2,0.1l0.2,2.2l0.9,10.5
		v0.1c0.2,4.3,3.6,7.6,8.8,9c2,0.6,4.2,0.9,6.6,0.9h23.5c2.4,0,4.6-0.3,6.6-0.9c5.3-1.5,8.7-4.8,8.8-9v-0.1l0.9-10.5l0.2-2.2
		c0,0,0.1,0,0.1,0h1.9c10.3,0,18.1-5.4,18.4-12.7l2.2-21.8l1-10.5l0.4-4l0-0.6C362.2,225.3,355.8,213.8,345.7,206.1z M349.9,242.8
		l-1,10.5l-2.1,20.8c-0.7,0.6-2.9,1.8-6.5,1.8h-1.9c-5.6,0-10.3,3.5-11.5,8.5c-0.2,0.6-0.3,1.2-0.3,1.8l-0.3,3.8l-0.7,8.1
		c-0.8,0.3-2,0.5-3.7,0.5h-0.6v-6.7c0-0.7-0.2-1.3-0.5-1.9c-0.5-1-1.5-1.7-2.6-2c-0.3-0.1-0.6-0.1-0.8-0.1c-0.5,0-1,0.1-1.5,0.3
		c-0.4,0.2-0.8,0.4-1.2,0.7c-0.4,0.4-0.8,0.9-1,1.4c-0.2,0.5-0.3,1-0.3,1.6v6.7h-6.6v-6.7c0-0.6-0.1-1.1-0.3-1.6
		c-0.2-0.5-0.6-1-1-1.4c-0.3-0.3-0.7-0.6-1.2-0.7c-0.5-0.2-1-0.3-1.5-0.3c-0.3,0-0.6,0-0.8,0.1c-1.2,0.2-2.1,1-2.6,2
		c-0.3,0.6-0.5,1.2-0.5,1.9v6.7h-0.6c-1.7,0-2.9-0.3-3.7-0.5l-0.7-8.1l-0.3-3.8c-0.1-0.6-0.2-1.2-0.3-1.8v0c-1.3-4.9-6-8.5-11.5-8.5
		h-1.9c-3.6,0-5.8-1.2-6.5-1.8l-2.1-20.8l-1-10.5l-0.5-4.9c0.2-16.5,15.6-29.8,34.6-29.9h11.5c19,0.1,34.5,13.4,34.7,29.9
		L349.9,242.8z M337.6,242.8c-0.2-0.4-0.4-0.7-0.7-1c-1.6-1.5-4-1.5-5.6,0l-2.7,2.7l-2.7-2.7c-1.5-1.5-4-1.5-5.6,0
		c-0.3,0.3-0.6,0.7-0.7,1c-0.8,1.5-0.5,3.3,0.7,4.5l2.7,2.7l-2.7,2.7c-0.2,0.2-0.3,0.4-0.5,0.6c-1.1,1.5-0.9,3.7,0.5,5
		c0.8,0.8,1.8,1.2,2.8,1.2c1,0,2-0.4,2.8-1.2l2.7-2.7l2.7,2.7c0.8,0.8,1.8,1.2,2.8,1.2c1,0,2-0.4,2.8-1.2c1.4-1.4,1.5-3.5,0.5-5
		c-0.1-0.2-0.3-0.4-0.5-0.6l-2.7-2.7l2.7-2.7C338.1,246.1,338.3,244.2,337.6,242.8z M313.1,268.1c-1.2-2.8-5.2-2.8-6.4,0l-1.9,4.3
		c-1,2.3,0.7,4.9,3.2,4.9h3.8c2.5,0,4.2-2.6,3.2-4.9L313.1,268.1z M300.3,242.8c-0.2-0.4-0.4-0.7-0.7-1c-1.5-1.5-4-1.5-5.6,0l-1,1
		l-1.6,1.6l-1.6-1.6l-1.1-1c-1.5-1.5-4-1.5-5.6,0c-0.3,0.3-0.6,0.7-0.7,1c-0.7,1.5-0.5,3.3,0.7,4.5l2.7,2.7l-2.7,2.7
		c-0.2,0.2-0.3,0.4-0.5,0.6c-1.1,1.5-0.9,3.7,0.5,5c0.8,0.8,1.8,1.2,2.8,1.2c1,0,2-0.4,2.8-1.2l2.7-2.7l2.7,2.7
		c0.8,0.8,1.8,1.2,2.8,1.2c1,0,2-0.4,2.8-1.2c1.4-1.4,1.5-3.5,0.5-5c-0.1-0.2-0.3-0.4-0.5-0.6l-2.7-2.7l2.7-2.7
		C300.8,246.1,301.1,244.2,300.3,242.8z M358.3,364.7h-18.5l-8,8.7v-20.5h-16.1l0.2,88.2h3.5l12.5-8.7l8,8.7h18.5l11.1-12v-52.3
		L358.3,364.7z M353.3,424.4h-21.6v-43.1h21.6V424.4z M315.7,159v28.9c10.7,0,20.7,2.9,29.1,7.8h53.6V159H315.7z M357.8,206.1
		c7.9,8.7,12.6,19.9,12.6,32c0,0.1,0,0.9,0,1l-0.4,3.6h28.3v-36.6H357.8z M369,253.2l-2.3,22.6c-0.2,5.5-3,10.4-7.6,14h39.3v-36.7
		H369z M345.4,300.3l-0.1,0.8c-0.4,10.1-10.1,17.4-23.6,17.4h-6V337h82.7v-36.7H345.4z M427.3,411.4l11.1-12v-22.8l-11.1-12h-32.9
		l-11.1,12V429l11.1,12h32.9l11.1-12v-3.9h-39v-13.7H427.3z M399.3,381.3h22.9v14.3h-22.9V381.3z M409.9,253.2v36.6h82.7v-36.6
		H409.9z M409.9,300.3V337h82.7v-36.6H409.9z M494.2,364.7h-31.6l-11.1,12v4.6h37.6v13.5h-26.6l-12.4,13.4V429l11.1,12h19.9l8-8.7
		l12.5,8.7h3.6v-64.3L494.2,364.7z M489.1,425.1h-22.9v-14.5h22.9V425.1z M552.8,381.3v-16.6h-15.3v-25.7h-3.5l-12.5,6.8v18.9
		l-8.4,12.7v3.9h8.4V429l11.1,12h19.9v-16.6h-14.9v-43.1H552.8z"/>
</g>
</svg>
