<?xml version="1.0" encoding="utf-8"?>
<!-- Generator: Adobe Illustrator 23.0.1, SVG Export Plug-In . SVG Version: 6.00 Build 0)  -->
<svg version="1.1" id="Layer_1" xmlns="http://www.w3.org/2000/svg" xmlns:xlink="http://www.w3.org/1999/xlink" x="0px" y="0px"
	 viewBox="0 0 600 600" style="enable-background:new 0 0 600 600;" xml:space="preserve">
<style type="text/css">
	.st0{fill:#36A9E1;}
	.st1{fill:#1D1D1B;}
	.st2{fill:#2E5227;}
	.st3{fill:#231F20;}
	.st4{fill:#977E63;}
	.st5{fill:#771914;}
	.st6{fill:#DF4336;}
	.st7{fill:#FFFFFF;}
	.st8{fill:#DE4435;}
	.st9{fill:url(#SVGID_1_);}
	.st10{fill:url(#SVGID_2_);}
	.st11{fill:url(#SVGID_3_);}
	.st12{fill:#404041;}
	.st13{fill:url(#SVGID_4_);}
	.st14{fill:url(#SVGID_5_);}
	.st15{fill:url(#SVGID_6_);}
	.st16{fill:url(#SVGID_7_);}
	.st17{fill:url(#SVGID_8_);}
	.st18{fill:url(#SVGID_9_);}
	.st19{fill:url(#SVGID_10_);}
	.st20{fill:url(#SVGID_11_);}
	.st21{fill:url(#SVGID_12_);}
	.st22{fill:#EC1C24;}
	.st23{fill:none;stroke:#1D1D1B;stroke-width:4.0818;stroke-miterlimit:10;}
	.st24{fill:#C99D66;}
	.st25{fill:#35A8E0;}
	.st26{fill:#2DAB66;}
	.st27{fill:none;stroke:#1D1D1B;stroke-width:3.4123;stroke-linejoin:round;stroke-miterlimit:10;}
	.st28{fill:#E20613;}
	.st29{fill:#FCEA0D;}
	.st30{fill:#F094BD;}
	.st31{fill:#E5332A;}
	.st32{fill:#E84E1B;}
	.st33{fill:#F29100;}
	.st34{fill:#F8B133;}
	.st35{fill:#008D36;}
	.st36{fill:#006633;}
	.st37{fill:#39A935;}
	.st38{fill:#1D3763;}
	.st39{fill:url(#SVGID_13_);}
	.st40{fill:url(#SVGID_14_);}
	.st41{fill:url(#SVGID_15_);}
	.st42{fill:url(#SVGID_16_);}
	.st43{fill:url(#SVGID_17_);}
	.st44{fill:url(#SVGID_18_);}
	.st45{fill:url(#SVGID_19_);}
	.st46{fill:url(#SVGID_20_);}
	.st47{fill:url(#SVGID_21_);}
	.st48{fill:none;}
	.st49{fill:#93C01F;}
	.st50{fill:#81358A;}
	.st51{fill:#4B2C15;}
	.st52{fill:#79A242;}
	.st53{fill:#613917;stroke:#613917;stroke-width:0.3451;stroke-miterlimit:10;}
	.st54{fill:#8D8C8C;stroke:#8D8C8C;stroke-width:0.3451;stroke-miterlimit:10;}
	.st55{fill:#273577;}
	.st56{fill:#6C1510;}
	.st57{fill:#185126;}
</style>
<g>
	<path class="st38" d="M448,140.3c-9.6-2-19.2-3.7-28.8-5.3c-6.7-1.1-13.3-2.1-20-3c-2.6-0.4-5.2-0.7-7.8-1
		c-3.1-0.4-6.1-0.7-9.2-1.1c-3.6-0.4-7.2-0.8-10.8-1.1c-3.1-0.3-6.1-0.6-9.2-0.8c-6.6-0.6-13.1-1-19.7-1.4c-6.7-0.4-13.3-0.7-20-0.9
		c-7.4-0.2-14.7-0.3-22.1-0.3c-6.6,0-13.2,0.1-19.8,0.3c-0.9,0-1.7,0-2.6,0.1c-6.7,0.2-13.3,0.5-20,0.9c-3.7,0.2-7.4,0.5-11.1,0.7
		c-2.7,0.2-5.4,0.4-8.2,0.6c-3.2,0.3-6.4,0.6-9.6,0.9c-3.5,0.3-6.9,0.7-10.4,1.1c-3.2,0.4-6.4,0.7-9.6,1.1c-2.5,0.3-4.9,0.6-7.4,1
		c-6.7,0.9-13.4,1.9-20,3c-9.6,1.6-19.2,3.4-28.8,5.3l-22.9,4.7v214.8c0,38.8,17.4,75.1,47.7,99.4c27.9,22.4,63,41.2,88.8,55
		c7.9,4.2,14.8,7.9,19.6,10.7l14.5,8.5l14.5-8.5c4.8-2.8,11.6-6.5,19.6-10.7c25.7-13.8,60.8-32.6,88.7-55
		c30.3-24.3,47.7-60.5,47.7-99.4V145L448,140.3z M300.4,139.5c5.1,0,10.3,0.1,15.4,0.2c2.2,0.1,4.5,0.1,6.7,0.2
		c6.7,0.2,13.3,0.5,20,0.9v14.4c-6.5-0.4-13.2-0.7-20-0.9c-2.2-0.1-4.4-0.1-6.7-0.2c-5.1-0.1-10.2-0.2-15.4-0.2c-1.5,0-3.1,0-4.6,0
		V147H278v-7.1C285.4,139.7,292.9,139.5,300.4,139.5z"/>
	<path class="st7" d="M456.6,156.6v203.1c0,34.5-15.4,66.6-42.3,88.2c-26.9,21.6-61.4,40.1-86.5,53.6c-8.1,4.3-15,8-20.1,11
		l-7.2,4.2l-7.2-4.2c-5.1-3-12-6.7-20.1-11c-25.2-13.5-59.6-32-86.5-53.5c-26.9-21.6-42.3-53.7-42.3-88.2V156.6l11.4-2.4
		c8.6-1.8,17.2-3.4,25.9-4.8c6.7-1.1,13.3-2.1,20-3.1c2.5-0.3,4.9-0.7,7.4-1c3.2-0.4,6.4-0.8,9.6-1.2c3.5-0.4,6.9-0.8,10.4-1.1
		c3.2-0.3,6.4-0.6,9.6-0.9c2.7-0.2,5.4-0.5,8.2-0.7c3.7-0.3,7.4-0.5,11.1-0.7c6.7-0.4,13.3-0.7,20-0.9v7.1h17.8v6.9
		c1.5,0,3.1,0,4.6,0c5.2,0,10.3,0.1,15.4,0.2c2.2,0,4.5,0.1,6.7,0.2c6.8,0.2,13.5,0.5,20,0.9v-14.4c6.6,0.4,13.1,0.9,19.7,1.4
		c3.1,0.3,6.1,0.5,9.2,0.9c3.6,0.4,7.2,0.7,10.8,1.2c3.1,0.4,6.1,0.7,9.2,1.1c2.6,0.3,5.2,0.7,7.8,1.1c6.7,0.9,13.4,1.9,20,3.1
		c8.7,1.5,17.3,3.1,25.9,4.8L456.6,156.6z"/>
	<path class="st38" d="M442.2,168.3v191.5c0,29.9-13.6,58.3-36.9,77c-34.5,27.7-83.8,51.1-104.9,63.4c-21-12.3-70.3-35.6-104.9-63.4
		c-23.4-18.8-36.9-47.1-36.9-77V168.3c7.3-1.5,15-3,23-4.3c6.5-1.1,13.1-2.2,20-3.1c2.4-0.3,4.9-0.7,7.4-1c3.2-0.4,6.4-0.8,9.6-1.2
		c3.4-0.4,6.9-0.8,10.4-1.1c3.2-0.3,6.4-0.6,9.6-0.9c2.7-0.2,5.4-0.5,8.2-0.7c3.7-0.3,7.4-0.5,11.1-0.8c2.9-0.2,5.9-0.3,8.9-0.5
		c3.7-0.2,7.4-0.3,11.1-0.4c5.8-0.2,11.8-0.3,17.8-0.3c1.5,0,3.1,0,4.6,0c5.2,0,10.3,0.1,15.4,0.2c2.2,0,4.5,0.1,6.7,0.2
		c6.8,0.2,13.5,0.5,20,0.9c6.7,0.4,13.3,0.9,19.7,1.5c3.1,0.3,6.2,0.6,9.2,0.9c3.7,0.4,7.3,0.8,10.8,1.2c3.1,0.4,6.2,0.7,9.2,1.1
		c2.6,0.3,5.3,0.7,7.8,1.1c6.9,1,13.6,2,20,3.1C427.2,165.4,434.9,166.8,442.2,168.3z"/>
	<g>
		<g>
			<polygon class="st38" points="271.9,331.6 271.9,287.2 181.6,287.2 181.6,66.6 238.7,66.6 238.7,230.5 362.2,230.5 362.2,66.6 
				419.2,66.6 419.2,287.2 328.9,287.2 328.9,331.6 			"/>
		</g>
		<g>
			<rect x="269" y="305" class="st38" width="62.9" height="166.5"/>
		</g>
		<g>
			<path class="st38" d="M391.4,104.9v155.1h-68.9V154.2c6.8,0.2,13.5,0.5,20,0.9v-14.4c-6.7-0.4-13.3-0.7-20-0.9v-35H391.4z"/>
		</g>
		<g>
			<rect x="284.6" y="162.5" class="st38" width="68.9" height="97.4"/>
		</g>
		<path class="st38" d="M328.4,136.3c-3.3-0.1-6.6-0.2-9.9-0.3c-0.9,0-1.8,0-2.7,0v-10.5h-68.9v134.4h68.9V159.5
			c0.9,0,1.8,0,2.7,0.1c3.3,0.1,6.6,0.2,9.9,0.3c10.1,0.3,20,0.8,29.7,1.5v-23.5C348.1,137.2,338.3,136.7,328.4,136.3z"/>
		<g>
			<rect x="209" y="94.1" class="st38" width="68.9" height="165.8"/>
		</g>
	</g>
	<g>
		<polygon class="st7" points="382.2,86.6 382.2,250.5 218.6,250.5 218.6,86.6 201.6,86.6 201.6,267.2 291.9,267.2 291.9,311.6 
			308.9,311.6 308.9,267.2 399.2,267.2 399.2,86.6 		"/>
		<rect x="289" y="325" class="st7" width="22.9" height="126.4"/>
		<linearGradient id="SVGID_1_" gradientUnits="userSpaceOnUse" x1="356.9073" y1="241.3778" x2="356.9073" y2="126.3605">
			<stop  offset="0" style="stop-color:#BD1622"/>
			<stop  offset="1" style="stop-color:#BD1622;stop-opacity:0.1"/>
		</linearGradient>
		<rect x="342.5" y="126.4" class="st9" width="28.9" height="115"/>
		<linearGradient id="SVGID_2_" gradientUnits="userSpaceOnUse" x1="319.1033" y1="241.3775" x2="319.1033" y2="184.0232">
			<stop  offset="0" style="stop-color:#BD1622"/>
			<stop  offset="1" style="stop-color:#BD1622;stop-opacity:0.1"/>
		</linearGradient>
		<rect x="304.7" y="184" class="st10" width="28.9" height="57.4"/>
		<linearGradient id="SVGID_3_" gradientUnits="userSpaceOnUse" x1="281.2959" y1="241.3778" x2="281.2959" y2="146.9753">
			<stop  offset="0" style="stop-color:#BD1622"/>
			<stop  offset="1" style="stop-color:#BD1622;stop-opacity:0.1"/>
		</linearGradient>
		<rect x="266.9" y="147" class="st11" width="28.9" height="94.4"/>
		<linearGradient id="SVGID_4_" gradientUnits="userSpaceOnUse" x1="243.4928" y1="241.3775" x2="243.4928" y2="115.5929">
			<stop  offset="0" style="stop-color:#BD1622"/>
			<stop  offset="1" style="stop-color:#BD1622;stop-opacity:0.1"/>
		</linearGradient>
		<rect x="229" y="115.6" class="st13" width="28.9" height="125.8"/>
	</g>
	<g>
		<g>
			<path class="st38" d="M107.2,352.8l5.2-0.6l0-12.4c-3.1,0.1-6.3,0.3-9.4,0.5L88,341v-53.8h101.2l-0.2,49.7l-13.8,0.4
				c-3.5,0.1-7,0.2-10.6,0.3l0,8.8l5.1-0.5l-0.2,46l-12.5,1.6c-11.1,1.4-22.4,3-33.4,4.7l-16.6,2.6L107.2,352.8z"/>
			<path class="st38" d="M164.7,346.4l5.1-0.4l0-13l-5.1,0.1l0.2-46h72.6l4,3.3c4.5,3.7,9,7.5,13.6,11.1l5.3,4.3l-0.1,26.8l0,8.1
				l5.2-0.2l-0.1,44.3l-13.7,0.6c-9.4,0.4-19,0.9-28.4,1.6l-4.6,0.3l-4.7,0.4c-11.1,0.8-22.4,1.9-33.5,3l-15.9,1.7L164.7,346.4z"/>
			<path class="st38" d="M242.4,341.4l10.4-0.3c3-6.1,6.3-12.6,9.9-20l0-33.9H337l0,35.2c2.9,5.8,6.1,12.2,9.3,18.7l10.4,0.3
				l0.1,44.5l-14.9-0.6c-10.8-0.4-21.8-0.7-32.7-0.7l-9.8-0.1l-9.8,0.1c-10.8,0.1-21.8,0.4-32.6,0.8l-14.9,0.6L242.4,341.4z"/>
			<path class="st38" d="M403.1,389.2c-14.3-1.3-28.9-2.4-43.2-3.1l-4.9-0.3l-3.7-3.2c-4.3-3.8-8.9-7.7-13.6-11.6l-5.1-4.3
				l-0.1-60.8l5.3-4.3c4.5-3.7,9-7.4,13.6-11.1l4-3.3h48.2l4,3.4c4.8,4.1,9.5,8.1,13.9,12.1l4.8,4.3l0.1,38l0.1,23.4l-2.6,3.7
				c-2.6,3.8-5.2,7.5-7.8,11.2l-4.8,6.8L403.1,389.2z"/>
			<path class="st38" d="M495.2,401.4c-13.3-2.3-26.7-4.4-40.1-6.3l-2.5-0.3l-2.3-0.3c-11.1-1.5-22.3-2.8-33.4-4l-12.8-1.3
				l-0.2-45.3l5.1,0.4l0-11.8l-5.1-0.1l-0.2-45.2H512v48.6l-16-0.6c-2.6,2.5-5.3,4.9-8,7.3c3.5,3.7,6.9,7.4,10.3,11.1
				c0.4,0.1,13.7,1.8,13.7,1.8v48.9L495.2,401.4z"/>
		</g>
		<g>
			<path class="st7" d="M102.3,301.5v24.4c6.4-0.3,12.8-0.6,19.2-0.9v-4.9c1.7-0.1,3.5-0.1,5.2-0.2c0,5.4,0,10.9,0,16.4
				c0,9.5,0,19,0,28.5c-1.7,0.2-3.5,0.4-5.2,0.6c0,2.9,0,5.7,0,8.6c0,3.4,0,6.7,0,10c11.3-1.8,22.5-3.4,33.8-4.8c0-2.5,0-5.1,0-7.6
				c0-3.3,0-6.6,0-9.9c-1.7,0.2-3.4,0.3-5.1,0.5c0-9.2,0.1-18.4,0.1-27.6c0-5.2,0-10.3,0.1-15.5c1.7,0,3.4-0.1,5.1-0.1
				c0,1.5,0,3.1,0,4.6c6.4-0.2,12.8-0.4,19.2-0.6c0-7.2,0.1-14.3,0.1-21.5H102.3z"/>
			<path class="st7" d="M245.8,355.7c0-5.3,0-10.6,0-15.9c-1.9-1.5-3.8-2.9-5.7-4.4c1.9-1.6,3.8-3.2,5.7-4.7v0c0-5.9,0-11.9,0-17.8
				c-4.6-3.7-9.1-7.5-13.7-11.2h-53.1c0,5.6,0,11.3-0.1,16.9c1.7,0,3.4-0.1,5.1-0.1c0,4.8,0,9.6-0.1,14.5c0,8.8-0.1,17.6-0.1,26.4
				c-1.7,0.1-3.4,0.3-5.1,0.4c0,3.6,0,7.2,0,10.7c0,2.1,0,4.1,0,6.2c11.3-1.2,22.6-2.2,33.9-3.1c0-1.5,0-3.1,0-4.6
				c0-3.9,0-7.7,0-11.6c-1.7,0.1-3.4,0.2-5.1,0.3c0-4.3,0-8.6,0-13c3.9-0.2,7.8-0.4,11.8-0.5c0.9,0.7,1.8,1.5,2.8,2.2
				c0,7.4-0.1,14.8-0.1,22.2c0,1.4,0,2.9,0,4.3c9.6-0.6,19.2-1.2,28.8-1.6c0-1.2,0-2.3,0-3.5c0-4.1,0-8.2,0-12.2
				C249.3,355.5,247.6,355.6,245.8,355.7z M207.8,317.9c3.9-0.1,7.8-0.1,11.7-0.2c0.9,0.7,1.8,1.5,2.8,2.2c0,1.9,0,3.8,0,5.7
				c-0.9,0.8-1.9,1.6-2.8,2.4c-3.9,0.1-7.8,0.2-11.8,0.3C207.8,324.8,207.8,321.3,207.8,317.9z"/>
			<path class="st7" d="M309.5,370.2c11,0.1,22.1,0.3,33.1,0.7c0-1.1,0-2.2,0-3.3c0-4.1,0-8.2,0-12.3c-1.7,0-3.4-0.1-5.2-0.1
				c-4.1-8.4-8.3-16.8-12.4-25.1c-2.2-4.4-4.3-8.7-6.5-13.1c1.4,0,2.9,0,4.3,0c0-5.2,0-10.4,0-15.5h-45.6c0,5.2,0,10.4,0,15.5
				c1.2,0,2.5,0,3.7,0c-2.2,4.3-4.3,8.7-6.5,13c-4.1,8.3-8.3,16.7-12.4,25.1c-1.7,0-3.4,0.1-5.2,0.1c0,4.1,0,8.2,0,12.3v3.4
				c11-0.4,22-0.7,33-0.8v-3c0-4.2,0-8.3,0-12.5c-0.9,0-1.9,0-2.8,0c0.5-1,0.9-2,1.3-3.1c7.6-0.1,15.2-0.1,22.8,0
				c0.4,1,0.8,2,1.2,3.1c-0.9,0-1.8,0-2.8,0V370.2z M294.1,338.4c1.4-2.8,2.9-5.7,4.3-8.5c0.4-0.8,0.8-1.6,1.2-2.4
				c0.4,0.8,0.8,1.6,1.2,2.4c1.4,2.8,2.9,5.7,4.3,8.5C301.4,338.4,297.7,338.4,294.1,338.4z"/>
			<path class="st7" d="M412.1,347.7c-7.9-0.5-15.7-0.9-23.6-1.3c0,2.9,0,5.8,0,8.6c-0.9,0.7-1.8,1.4-2.7,2.1
				c-4.2-0.2-8.4-0.5-12.6-0.7c-0.9-0.8-1.8-1.6-2.8-2.3c0-7.7-0.1-15.4-0.1-23.1c0-3.7,0-7.5,0-11.2c0.9-0.7,1.8-1.5,2.8-2.2
				c4.2,0.1,8.4,0.1,12.6,0.2c0.9,0.8,1.8,1.6,2.7,2.4c0,3,0,6.1,0,9.1c7.9,0.2,15.7,0.5,23.6,0.8c0-5.5,0-11.1-0.1-16.6
				c-4.6-4-9.2-8-13.7-11.9h-37.8c-4.6,3.8-9.1,7.5-13.7,11.2c0,5.9,0,11.8,0,17.7c0,9.9,0,19.7,0.1,29.6c3.1,2.6,6.2,5.2,9.3,7.9
				c1.5,1.3,3,2.6,4.5,3.9c12.6,0.7,25.3,1.5,37.9,2.6c2.1-1.6,4.1-3.2,6.2-4.8c2.5-1.9,5-3.8,7.5-5.8
				C412.1,358.4,412.1,353.1,412.1,347.7z"/>
			<path class="st7" d="M490.6,320.6c2.4,0.1,4.7,0.2,7.1,0.3v-19.4h-40.8c0,6,0,12,0.1,17.9c0.7,0,1.5,0,2.2,0.1
				c-4.1,3.6-8.1,7.2-12.2,10.7c0-3.7,0-7.4,0-11.1c1.7,0,3.4,0.1,5.1,0.2c0-5.9,0-11.9-0.1-17.8h-33.9c0,5.6,0,11.2,0.1,16.9
				c1.7,0,3.4,0.1,5.1,0.1c0,4.9,0,9.8,0.1,14.7c0,8.9,0.1,17.7,0.1,26.6c-1.7-0.1-3.4-0.3-5.2-0.4c0,3.6,0,7.3,0,10.9c0,2,0,4,0,6
				c11.3,1.2,22.6,2.5,33.8,4c0-2.7,0-5.4,0-8c0-3.3,0-6.5,0-9.7c-1.7-0.2-3.4-0.3-5.1-0.5v-3.8c1.3-1.1,2.7-2.3,4-3.4
				c2.8,2.8,5.6,5.6,8.4,8.4c-0.8-0.1-1.6-0.2-2.4-0.3c0,3.2,0,6.4,0,9.6c0,2.8,0,5.6,0,8.4c13.6,1.9,27.1,4,40.6,6.3v-19.4
				c-2.1-0.3-4.3-0.6-6.4-0.9c-7.9-8.9-15.9-17.3-23.8-25.4c2-1.7,4-3.5,6-5.3C479.1,331.3,484.8,326,490.6,320.6z"/>
		</g>
		<g>
			<linearGradient id="SVGID_5_" gradientUnits="userSpaceOnUse" x1="138.4297" y1="374.0834" x2="138.4297" y2="334.7032">
				<stop  offset="0" style="stop-color:#FFFFFF;stop-opacity:0.3"/>
				<stop  offset="0.3639" style="stop-color:#EDEDED;stop-opacity:0.5547"/>
				<stop  offset="1" style="stop-color:#C6C6C5"/>
			</linearGradient>
			<path class="st14" d="M150.2,362.3c1.7-0.2,3.4-0.3,5.1-0.5c0,3.3,0,6.6,0,9.9c-11.3,0.7-22.6,1.5-33.9,2.4c0-2.9,0-5.7,0-8.6
				c1.7-0.2,3.5-0.4,5.2-0.6c0-9.5,0-19,0-28.5c7.8-0.6,15.7-1.1,23.5-1.6C150.3,343.9,150.3,353.1,150.2,362.3z"/>
			<linearGradient id="SVGID_6_" gradientUnits="userSpaceOnUse" x1="214.9473" y1="370.3718" x2="214.9473" y2="330.5618">
				<stop  offset="0" style="stop-color:#FFFFFF;stop-opacity:0.3"/>
				<stop  offset="0.3639" style="stop-color:#EDEDED;stop-opacity:0.5547"/>
				<stop  offset="1" style="stop-color:#C6C6C5"/>
			</linearGradient>
			<path class="st15" d="M245.8,355.7c1.7-0.1,3.4-0.1,5.2-0.2c0,4.1,0,8.2,0,12.2c-9.6,0.2-19.2,0.5-28.8,0.8
				c0-7.4,0-14.8,0.1-22.2c-0.9-0.7-1.9-1.5-2.8-2.2c-3.9,0.2-7.8,0.3-11.8,0.5c0,4.3,0,8.6,0,13c1.7-0.1,3.4-0.2,5.1-0.3
				c0,3.9,0,7.7,0,11.6c-11.3,0.4-22.6,0.9-33.9,1.5c0-3.6,0-7.2,0-10.7c1.7-0.1,3.4-0.3,5.1-0.4c0-8.8,0.1-17.6,0.1-26.4
				c20.6-1,41.2-1.8,61.7-2.2v0c-1.9,1.6-3.8,3.2-5.7,4.7c1.9,1.5,3.8,2.9,5.7,4.4C245.9,345,245.9,350.4,245.8,355.7z"/>
			<linearGradient id="SVGID_7_" gradientUnits="userSpaceOnUse" x1="299.5828" y1="367.6203" x2="299.5828" y2="329.9313">
				<stop  offset="0" style="stop-color:#FFFFFF;stop-opacity:0.3"/>
				<stop  offset="0.3639" style="stop-color:#EDEDED;stop-opacity:0.5547"/>
				<stop  offset="1" style="stop-color:#C6C6C5"/>
			</linearGradient>
			<path class="st16" d="M342.5,355.3c0,4.1,0,8.2,0,12.3c-11-0.2-22.1-0.4-33.1-0.4v-12.5c0.9,0,1.8,0,2.8,0c-0.4-1-0.8-2-1.2-3.1
				c-7.6-0.1-15.2-0.1-22.8,0c-0.4,1-0.9,2-1.3,3.1c0.9,0,1.9,0,2.8,0c0,4.2,0,8.4,0,12.5c-11,0-22,0.2-33,0.4c0-4.1,0-8.2,0-12.3
				c1.7-0.1,3.4-0.1,5.2-0.1c4.2-8.4,8.3-16.8,12.4-25.1c8-0.1,16.1-0.2,24.1-0.2c-1.4,2.8-2.9,5.7-4.3,8.5c3.7,0,7.3,0,10.9,0
				c-1.4-2.8-2.9-5.7-4.3-8.5c8.1,0,16.1,0.1,24.2,0.2c4.1,8.3,8.3,16.7,12.4,25.1C339,355.2,340.8,355.2,342.5,355.3z"/>
			<linearGradient id="SVGID_8_" gradientUnits="userSpaceOnUse" x1="379.4535" y1="369.6123" x2="379.4535" y2="330.4185">
				<stop  offset="0" style="stop-color:#FFFFFF;stop-opacity:0.3"/>
				<stop  offset="0.3639" style="stop-color:#EDEDED;stop-opacity:0.5547"/>
				<stop  offset="1" style="stop-color:#C6C6C5"/>
			</linearGradient>
			<path class="st17" d="M412.1,347.7c0,5.4,0,10.7,0.1,16.1c-2.5,1.9-5,3.9-7.5,5.8c-16.2-0.7-32.4-1.3-48.6-1.7
				c-3.1-2.7-6.2-5.3-9.3-7.9c0-9.9,0-19.7-0.1-29.6c7.9,0.2,15.7,0.4,23.6,0.6c0,7.7,0,15.4,0.1,23.1c0.9,0.8,1.9,1.6,2.8,2.3
				c4.2,0.2,8.4,0.4,12.6,0.7c0.9-0.7,1.8-1.4,2.7-2.1c0-2.9,0-5.8,0-8.6C396.3,346.8,404.2,347.2,412.1,347.7z"/>
			<linearGradient id="SVGID_9_" gradientUnits="userSpaceOnUse" x1="458.0274" y1="375.7171" x2="458.0274" y2="333.2273">
				<stop  offset="0" style="stop-color:#FFFFFF;stop-opacity:0.3"/>
				<stop  offset="0.3639" style="stop-color:#EDEDED;stop-opacity:0.5547"/>
				<stop  offset="1" style="stop-color:#C6C6C5"/>
			</linearGradient>
			<path class="st18" d="M497.7,367.9v7.8c-13.5-1.2-27-2.2-40.6-3.1c0-3.2,0-6.4,0-9.6c0.8,0.1,1.6,0.2,2.4,0.3
				c-2.8-2.9-5.6-5.7-8.4-8.4c-1.3,1.1-2.7,2.3-4,3.4v3.8c1.7,0.2,3.4,0.3,5.1,0.5c0,3.3,0,6.5,0,9.7c-11.3-0.8-22.5-1.4-33.8-2
				c0-3.6,0-7.3,0-10.9c1.7,0.1,3.4,0.3,5.2,0.4c0-8.9-0.1-17.7-0.1-26.6c16.7,0.9,33.3,1.9,50,3.2c-2,1.8-4,3.6-6,5.3
				c8,8.1,15.9,16.5,23.8,25.4C493.4,367.4,495.5,367.6,497.7,367.9z"/>
		</g>
	</g>
	<polygon class="st7" points="398.7,396.2 401.8,405.9 411.9,405.8 403.7,411.7 406.9,421.3 398.7,415.3 390.6,421.3 393.7,411.7 
		385.5,405.8 395.6,405.9 	"/>
	<polygon class="st7" points="201.2,396.2 204.2,405.9 214.4,405.8 206.1,411.7 209.3,421.3 201.2,415.3 193,421.3 196.2,411.7 
		188,405.8 198.1,405.9 	"/>
	<polygon class="st38" points="320.4,457.1 329.4,484.4 322.9,487.9 300.6,471.5 278.2,488 271.8,484.5 280.9,457.1 248.2,433.7 
		288.4,433.9 300.6,395.5 312.8,433.9 353.1,433.7 	"/>
	<polygon class="st7" points="300.6,419.3 307.6,441.2 330.5,441 311.8,454.4 319.1,476.1 300.6,462.5 282.2,476.1 289.4,454.4 
		270.8,441 293.7,441.2 	"/>
	<polygon class="st7" points="362.2,413.2 366.6,427.1 381.2,427 369.4,435.5 373.9,449.3 362.2,440.7 350.5,449.3 355.1,435.5 
		343.3,427 357.8,427.1 	"/>
	<polygon class="st7" points="237.7,413.2 242.1,427.1 256.6,427 244.8,435.5 249.4,449.3 237.7,440.7 225.9,449.3 230.5,435.5 
		218.7,427 233.2,427.1 	"/>
	<line class="st48" x1="268.5" y1="482.8" x2="268.5" y2="482.8"/>
	<line class="st48" x1="280.7" y1="489.4" x2="280.7" y2="489.4"/>
</g>
</svg>
