<?xml version="1.0" encoding="utf-8"?>
<!-- Generator: Adobe Illustrator 23.0.1, SVG Export Plug-In . SVG Version: 6.00 Build 0)  -->
<svg version="1.1" id="Layer_1" xmlns="http://www.w3.org/2000/svg" xmlns:xlink="http://www.w3.org/1999/xlink" x="0px" y="0px"
	 viewBox="0 0 600 600" style="enable-background:new 0 0 600 600;" xml:space="preserve">
<style type="text/css">
	.st0{fill:#36A9E1;}
	.st1{fill:#1D1D1B;}
	.st2{fill:#2E5227;}
	.st3{fill:#231F20;}
	.st4{fill:#977E63;}
	.st5{fill:#771914;}
	.st6{fill:#DF4336;}
	.st7{fill:#FFFFFF;}
	.st8{fill:#DE4435;}
	.st9{fill:url(#SVGID_1_);}
	.st10{fill:url(#SVGID_2_);}
	.st11{fill:url(#SVGID_3_);}
	.st12{fill:#404041;}
	.st13{fill:url(#SVGID_4_);}
	.st14{fill:url(#SVGID_5_);}
	.st15{fill:url(#SVGID_6_);}
	.st16{fill:url(#SVGID_7_);}
	.st17{fill:url(#SVGID_8_);}
	.st18{fill:url(#SVGID_9_);}
	.st19{fill:url(#SVGID_10_);}
	.st20{fill:url(#SVGID_11_);}
	.st21{fill:url(#SVGID_12_);}
	.st22{fill:#EC1C24;}
	.st23{fill:none;stroke:#1D1D1B;stroke-width:4.0818;stroke-miterlimit:10;}
	.st24{fill:#C99D66;}
	.st25{fill:#35A8E0;}
	.st26{fill:#2DAB66;}
	.st27{fill:none;stroke:#1D1D1B;stroke-width:3.4123;stroke-linejoin:round;stroke-miterlimit:10;}
	.st28{fill:#E20613;}
	.st29{fill:#FCEA0D;}
	.st30{fill:#F094BD;}
	.st31{fill:#E5332A;}
	.st32{fill:#E84E1B;}
	.st33{fill:#F29100;}
	.st34{fill:#F8B133;}
	.st35{fill:#008D36;}
	.st36{fill:#006633;}
	.st37{fill:#39A935;}
	.st38{fill:#1D3763;}
	.st39{fill:url(#SVGID_13_);}
	.st40{fill:url(#SVGID_14_);}
	.st41{fill:url(#SVGID_15_);}
	.st42{fill:url(#SVGID_16_);}
	.st43{fill:url(#SVGID_17_);}
	.st44{fill:url(#SVGID_18_);}
	.st45{fill:url(#SVGID_19_);}
	.st46{fill:url(#SVGID_20_);}
	.st47{fill:url(#SVGID_21_);}
	.st48{fill:none;}
	.st49{fill:#93C01F;}
	.st50{fill:#81358A;}
	.st51{fill:#4B2C15;}
	.st52{fill:#79A242;}
	.st53{fill:#613917;stroke:#613917;stroke-width:0.3451;stroke-miterlimit:10;}
	.st54{fill:#8D8C8C;stroke:#8D8C8C;stroke-width:0.3451;stroke-miterlimit:10;}
	.st55{fill:#273577;}
	.st56{fill:#6C1510;}
	.st57{fill:#185126;}
	.st58{fill:#3C3C3B;}
</style>
<g>
	<g>
		<path class="st58" d="M30,267.7c0,8.8,7.1,15.9,15.9,15.9h48.1v48.6h17.5v-48.6h18.9v-16H30z"/>
		<path class="st58" d="M187.2,298.7c1.5-2.8,2.2-5.8,2.2-9c0-1.9-0.3-4-0.9-6.1c-0.6-2.1-1.4-4-2.5-5.6c-0.9-1.3-2-2.5-3.2-3.7
			c-1.3-1.2-2.7-2.3-4.2-3.3c-1.5-1-3-1.7-4.7-2.3c-1.6-0.6-3.2-0.9-4.7-0.9h-32.3v64.5h17.8l-0.1-20h10.9l11.2,20h19.4L181,305.7
			C183.7,303.8,185.7,301.4,187.2,298.7z M170.9,291.8c-0.4,0.8-0.9,1.6-1.6,2.2c-0.7,0.6-1.4,1.1-2.3,1.5c-0.9,0.4-1.8,0.5-2.8,0.5
			h-10.1v-13.9h10.1c1,0,1.9,0.2,2.8,0.5c0.9,0.4,1.7,0.9,2.3,1.5c0.7,0.6,1.2,1.4,1.6,2.2c0.4,0.8,0.6,1.7,0.6,2.7
			C171.5,290.1,171.3,291,170.9,291.8z"/>
		<rect x="202.3" y="267.7" class="st58" width="17.4" height="64.5"/>
		<path class="st58" d="M276.1,273.7c-2.2-1.9-4.7-3.4-7.6-4.4c-2.9-1.1-5.8-1.6-8.9-1.6h-29v64.5h17.3v-20h11.7
			c3.1,0,6.1-0.6,8.9-1.8c2.9-1.2,5.4-2.8,7.6-4.9c2.2-2.1,3.9-4.5,5.2-7.3c1.3-2.8,2-5.8,2-9c0-3.2-0.7-6.1-2-8.7
			C280,277.9,278.3,275.6,276.1,273.7z M265.1,291.8c-0.4,0.8-0.9,1.6-1.6,2.2c-0.7,0.6-1.4,1.1-2.3,1.5c-0.9,0.4-1.8,0.5-2.8,0.5
			h-10.1v-13.9h10.1c1,0,1.9,0.2,2.8,0.5c0.9,0.4,1.7,0.9,2.3,1.5c0.7,0.6,1.2,1.4,1.6,2.2c0.4,0.8,0.6,1.7,0.6,2.7
			C265.6,290.1,265.4,291,265.1,291.8z"/>
		<polygon class="st58" points="308.3,267.7 290.4,267.7 290.4,332.3 342.2,332.3 342.2,316.3 308.3,316.3 		"/>
		<polygon class="st58" points="349.5,332.3 401,332.3 401,317 366.3,317 366.3,307.7 395.8,307.7 395.8,292.4 366.3,292.4 
			366.3,283.1 401,283.1 401,267.7 349.5,267.7 		"/>
		<polygon class="st0" points="477.2,300.5 465.2,267.9 454.9,267.9 442.9,300.5 430.8,267.9 412.2,267.9 436,332.3 449.8,332.3 
			460,304.4 470.3,332.3 484.1,332.3 507.9,267.9 489.3,267.9 		"/>
		<path class="st0" d="M568,280.5c-1.3-2.7-3-4.9-5.2-6.8c-2.2-1.9-4.7-3.4-7.6-4.4c-2.9-1.1-5.8-1.6-8.9-1.6h-29v64.5h17.3v-20
			h11.7c3.1,0,6.1-0.6,8.9-1.8c2.9-1.2,5.4-2.8,7.6-4.9c2.2-2.1,3.9-4.5,5.2-7.3c1.3-2.8,2-5.8,2-9C570,286.1,569.3,283.2,568,280.5
			z M551.8,291.8c-0.4,0.8-0.9,1.6-1.6,2.2c-0.7,0.6-1.4,1.1-2.3,1.5c-0.9,0.4-1.8,0.5-2.8,0.5H535v-13.9h10.1c1,0,1.9,0.2,2.8,0.5
			c0.9,0.4,1.7,0.9,2.3,1.5c0.7,0.6,1.2,1.4,1.6,2.2c0.4,0.8,0.6,1.7,0.6,2.7C552.4,290.1,552.2,291,551.8,291.8z"/>
	</g>
	<path class="st0" d="M79.4,332.3h7.9v-15.9H63.5v0C63.5,325.1,70.6,332.3,79.4,332.3z"/>
	<path class="st0" d="M62.1,308h25.2V292H46.2l0,0C46.2,300.8,53.3,308,62.1,308z"/>
</g>
</svg>
