<?xml version="1.0" encoding="utf-8"?>
<!-- Generator: Adobe Illustrator 23.0.1, SVG Export Plug-In . SVG Version: 6.00 Build 0)  -->
<svg version="1.1" id="Layer_1" xmlns="http://www.w3.org/2000/svg" xmlns:xlink="http://www.w3.org/1999/xlink" x="0px" y="0px"
	 viewBox="0 0 600 600" style="enable-background:new 0 0 600 600;" xml:space="preserve">
<style type="text/css">
	.st0{fill:#36A9E1;}
	.st1{fill:#1D1D1B;}
	.st2{fill:#2E5227;}
	.st3{fill:#231F20;}
	.st4{fill:#977E63;}
	.st5{fill:#771914;}
	.st6{fill:#DF4336;}
	.st7{fill:#FFFFFF;}
	.st8{fill:#DE4435;}
	.st9{fill:url(#SVGID_1_);}
	.st10{fill:url(#SVGID_2_);}
	.st11{fill:url(#SVGID_3_);}
	.st12{fill:#404041;}
	.st13{fill:url(#SVGID_4_);}
	.st14{fill:url(#SVGID_5_);}
	.st15{fill:url(#SVGID_6_);}
	.st16{fill:url(#SVGID_7_);}
	.st17{fill:url(#SVGID_8_);}
	.st18{fill:url(#SVGID_9_);}
	.st19{fill:url(#SVGID_10_);}
	.st20{fill:url(#SVGID_11_);}
	.st21{fill:url(#SVGID_12_);}
	.st22{fill:#EC1C24;}
	.st23{fill:none;stroke:#1D1D1B;stroke-width:4.0818;stroke-miterlimit:10;}
	.st24{fill:#C99D66;}
	.st25{fill:#35A8E0;}
	.st26{fill:#2DAB66;}
	.st27{fill:none;stroke:#1D1D1B;stroke-width:3.4123;stroke-linejoin:round;stroke-miterlimit:10;}
	.st28{fill:#E20613;}
	.st29{fill:#FCEA0D;}
	.st30{fill:#F094BD;}
	.st31{fill:#E5332A;}
	.st32{fill:#E84E1B;}
	.st33{fill:#F29100;}
	.st34{fill:#F8B133;}
	.st35{fill:#008D36;}
	.st36{fill:#006633;}
	.st37{fill:#39A935;}
	.st38{fill:#1D3763;}
	.st39{fill:url(#SVGID_13_);}
	.st40{fill:url(#SVGID_14_);}
	.st41{fill:url(#SVGID_15_);}
	.st42{fill:url(#SVGID_16_);}
	.st43{fill:url(#SVGID_17_);}
	.st44{fill:url(#SVGID_18_);}
	.st45{fill:url(#SVGID_19_);}
	.st46{fill:url(#SVGID_20_);}
	.st47{fill:url(#SVGID_21_);}
	.st48{fill:none;}
	.st49{fill:#93C01F;}
	.st50{fill:#81358A;}
	.st51{fill:#4B2C15;}
	.st52{fill:#79A242;}
	.st53{fill:#613917;stroke:#613917;stroke-width:0.3451;stroke-miterlimit:10;}
	.st54{fill:#8D8C8C;stroke:#8D8C8C;stroke-width:0.3451;stroke-miterlimit:10;}
	.st55{fill:#273577;}
	.st56{fill:#6C1510;}
	.st57{fill:#185126;}
</style>
<g>
	<g>
		<path class="st1" d="M54.1,260.7h32c9.9,0,17.4,2.8,22.2,7.4c3.5,3.7,5.6,8.6,5.6,14.4v0.2c0,13.1-10.1,20.7-24.4,21.9l25.8,33.6
			h-4.8l-25.3-33.1H85H57.8v33.1h-3.8V260.7z M85.1,301.7c16,0,25-7.8,25-18.7v-0.2c0-11.6-9-18.6-24.3-18.6h-28v37.6H85.1z"/>
		<path class="st1" d="M133,304.8v-44.1h3.8v43.9c0,20.6,11.1,31.5,27.9,31.5c16.7,0,27.6-10.4,27.6-31.2v-44.1h3.8v43.8
			c0,23.2-12.7,35-31.5,35C146,339.5,133,327.7,133,304.8z"/>
		<path class="st1" d="M217.9,260.7h3.4l56.7,71.1v-71.1h3.7v77.5h-3l-57.2-71.7v71.7h-3.7V260.7z"/>
		<path class="st1" d="M298.3,260.7h4.1l24.4,72.1l23.3-72.3h2.9l23.4,72.4l24.4-72.2h3.9l-26.8,78.1h-3.1l-23.3-71.2l-23.2,71.2
			h-3.1L298.3,260.7z"/>
		<path class="st1" d="M509.3,306.5l-33-45.7h4.7l30.3,42.4l30.1-42.4h4.5L513,306.5v31.8h-3.8V306.5z"/>
	</g>
	<g>
		<path class="st1" d="M429.4,260.7L405,332.9l-2,5.9h0.3h3.1l26.8-78.1H429.4z"/>
	</g>
	<g>
		<path class="st1" d="M449.1,260.7l26.8,78.1h3.1h0.3l-2-5.9L453,260.7H449.1z"/>
	</g>
</g>
</svg>
