<?xml version="1.0" encoding="utf-8"?>
<!-- Generator: Adobe Illustrator 23.0.1, SVG Export Plug-In . SVG Version: 6.00 Build 0)  -->
<svg version="1.1" id="Layer_1" xmlns="http://www.w3.org/2000/svg" xmlns:xlink="http://www.w3.org/1999/xlink" x="0px" y="0px"
	 viewBox="0 0 600 600" style="enable-background:new 0 0 600 600;" xml:space="preserve">
<style type="text/css">
	.st0{fill:#36A9E1;}
	.st1{fill:#1D1D1B;}
	.st2{fill:#2E5227;}
	.st3{fill:#231F20;}
	.st4{fill:#977E63;}
	.st5{fill:#771914;}
	.st6{fill:#DF4336;}
	.st7{fill:#FFFFFF;}
	.st8{fill:#DE4435;}
	.st9{fill:url(#SVGID_1_);}
	.st10{fill:url(#SVGID_2_);}
	.st11{fill:url(#SVGID_3_);}
	.st12{fill:#404041;}
	.st13{fill:url(#SVGID_4_);}
	.st14{fill:url(#SVGID_5_);}
	.st15{fill:url(#SVGID_6_);}
	.st16{fill:url(#SVGID_7_);}
	.st17{fill:url(#SVGID_8_);}
	.st18{fill:url(#SVGID_9_);}
	.st19{fill:url(#SVGID_10_);}
	.st20{fill:url(#SVGID_11_);}
	.st21{fill:url(#SVGID_12_);}
	.st22{fill:#EC1C24;}
	.st23{fill:none;stroke:#1D1D1B;stroke-width:4.0818;stroke-miterlimit:10;}
	.st24{fill:#C99D66;}
	.st25{fill:#35A8E0;}
	.st26{fill:#2DAB66;}
	.st27{fill:none;stroke:#1D1D1B;stroke-width:3.4123;stroke-linejoin:round;stroke-miterlimit:10;}
	.st28{fill:#E20613;}
	.st29{fill:#FCEA0D;}
	.st30{fill:#F094BD;}
	.st31{fill:#E5332A;}
	.st32{fill:#E84E1B;}
	.st33{fill:#F29100;}
	.st34{fill:#F8B133;}
	.st35{fill:#008D36;}
	.st36{fill:#006633;}
	.st37{fill:#39A935;}
	.st38{fill:#1D3763;}
	.st39{fill:url(#SVGID_13_);}
	.st40{fill:url(#SVGID_14_);}
	.st41{fill:url(#SVGID_15_);}
	.st42{fill:url(#SVGID_16_);}
	.st43{fill:url(#SVGID_17_);}
	.st44{fill:url(#SVGID_18_);}
	.st45{fill:url(#SVGID_19_);}
	.st46{fill:url(#SVGID_20_);}
	.st47{fill:url(#SVGID_21_);}
	.st48{fill:none;}
	.st49{fill:#93C01F;}
	.st50{fill:#81358A;}
	.st51{fill:#4B2C15;}
	.st52{fill:#79A242;}
	.st53{fill:#613917;stroke:#613917;stroke-width:0.3451;stroke-miterlimit:10;}
	.st54{fill:#8D8C8C;stroke:#8D8C8C;stroke-width:0.3451;stroke-miterlimit:10;}
	.st55{fill:#273577;}
	.st56{fill:#6C1510;}
	.st57{fill:#185126;}
</style>
<g>
	<g>
		<path class="st3" d="M53,274.7h21.3c5.1,0,8.9,1.2,11.5,3.6c2.6,2.4,3.9,5.9,3.9,10.5c0,2.8-0.5,5.1-1.5,6.9
			c-1,1.8-2.5,3.4-4.6,4.6c2,0.4,3.8,1,5.2,1.8c1.4,0.8,2.6,1.8,3.5,3c0.9,1.2,1.5,2.5,1.9,3.9c0.4,1.5,0.6,3,0.6,4.7
			c0,2.6-0.4,4.9-1.3,6.9c-0.9,2-2.2,3.7-3.8,5c-1.6,1.4-3.6,2.4-5.9,3.1c-2.3,0.7-5,1-7.9,1H53V274.7z M67.3,296.3h2.6
			c4.5,0,6.7-1.8,6.7-5.3c0-3.5-2.2-5.3-6.7-5.3h-2.6V296.3z M67.3,318.6h3.1c3.6,0,6.2-0.5,7.7-1.4c1.6-0.9,2.3-2.4,2.3-4.4
			s-0.8-3.5-2.3-4.4c-1.6-0.9-4.1-1.4-7.7-1.4h-3.1V318.6z"/>
		<path class="st3" d="M233,297.4l17.4-22.7h17.6l-21.8,26l23.8,28.9h-18.5L233,305.8v23.8h-14.3v-55H233V297.4z"/>
		<path class="st3" d="M287.1,274.7l9.5,35.5l11.7-35.5h11.4l11.7,35.5l9.5-35.5h14.9l-16.4,55h-14.6l-10.8-31.9l-10.8,31.9h-14.6
			l-16.4-55H287.1z"/>
		<path class="st3" d="M359,302.2c0-4.1,0.8-7.9,2.3-11.4c1.5-3.5,3.6-6.6,6.3-9.2c2.7-2.6,5.9-4.7,9.6-6.2
			c3.7-1.5,7.8-2.2,12.3-2.2c4.4,0,8.5,0.7,12.2,2.2c3.7,1.5,7,3.5,9.7,6.2c2.7,2.6,4.8,5.7,6.3,9.2c1.5,3.5,2.3,7.3,2.3,11.4
			c0,4.1-0.8,7.9-2.3,11.4c-1.5,3.5-3.6,6.6-6.3,9.2c-2.7,2.6-5.9,4.7-9.7,6.2c-3.7,1.5-7.8,2.2-12.2,2.2c-4.5,0-8.6-0.7-12.3-2.2
			c-3.7-1.5-6.9-3.5-9.6-6.2c-2.7-2.6-4.8-5.7-6.3-9.2C359.7,310.1,359,306.3,359,302.2z M373.9,302.2c0,2.2,0.4,4.2,1.2,6.1
			c0.8,1.8,1.9,3.5,3.4,4.8c1.4,1.4,3,2.4,4.9,3.2c1.9,0.8,3.9,1.1,5.9,1.1c2.1,0,4.1-0.4,5.9-1.1c1.9-0.8,3.5-1.8,5-3.2
			c1.4-1.4,2.6-3,3.4-4.8c0.8-1.8,1.2-3.9,1.2-6.1c0-2.2-0.4-4.2-1.2-6.1c-0.8-1.8-2-3.5-3.4-4.8c-1.4-1.4-3.1-2.4-5-3.2
			c-1.9-0.8-3.9-1.1-5.9-1.1c-2.1,0-4.1,0.4-5.9,1.1c-1.9,0.8-3.5,1.8-4.9,3.2c-1.4,1.4-2.5,3-3.4,4.8
			C374.4,298,373.9,300,373.9,302.2z"/>
		<path class="st3" d="M474.6,329.7h-17.8l-13.6-21.1v21.1h-14.3v-55h22.2c3.1,0,5.7,0.4,8,1.3c2.3,0.9,4.2,2.1,5.6,3.7
			c1.5,1.6,2.6,3.4,3.4,5.4c0.8,2,1.1,4.2,1.1,6.6c0,4.2-1,7.6-3,10.2c-2,2.6-5,4.4-8.9,5.3L474.6,329.7z M443.2,299.3h2.7
			c2.8,0,5-0.6,6.5-1.7c1.5-1.2,2.3-2.8,2.3-5c0-2.2-0.8-3.9-2.3-5c-1.5-1.2-3.7-1.7-6.5-1.7h-2.7V299.3z"/>
		<path class="st3" d="M478.1,329.7l9.3-55h14.1l11,29.3l10.9-29.3h14.1l9.3,55h-14.2L528,298l-13,31.6h-5.7L497.1,298l-4.7,31.6
			H478.1z"/>
	</g>
	<g>
		<path class="st3" d="M153.4,338.7l-51.6-9.1v-61.1l51.6,9.1V338.7z M113.9,319.4l27.3,4.8v-36.4l-27.3-4.8V319.4z"/>
		<path class="st3" d="M157.7,338.7v-61.1l51.6-9.1v61.1L157.7,338.7z M169.9,287.8v36.4l27.3-4.8V283L169.9,287.8z"/>
		<polygon class="st3" points="203.6,266.7 157.7,274.8 157.7,272.7 203.2,264.7 		"/>
		<polygon class="st3" points="153.4,272.7 153.4,274.7 107.7,266.7 108,264.7 		"/>
		<polygon class="st3" points="153.4,268.7 153.4,270.7 111.4,263.3 111.7,261.3 		"/>
		<polygon class="st3" points="199.6,263.3 157.7,270.7 157.7,268.7 199.3,261.3 		"/>
	</g>
</g>
</svg>
