<?xml version="1.0" encoding="utf-8"?>
<!-- Generator: Adobe Illustrator 23.0.1, SVG Export Plug-In . SVG Version: 6.00 Build 0)  -->
<svg version="1.1" id="Layer_1" xmlns="http://www.w3.org/2000/svg" xmlns:xlink="http://www.w3.org/1999/xlink" x="0px" y="0px"
	 viewBox="0 0 600 600" style="enable-background:new 0 0 600 600;" xml:space="preserve">
<style type="text/css">
	.st0{fill:#36A9E1;}
	.st1{fill:#1D1D1B;}
	.st2{fill:#2E5227;}
	.st3{fill:#231F20;}
	.st4{fill:#977E63;}
	.st5{fill:#771914;}
	.st6{fill:#DF4336;}
	.st7{fill:#FFFFFF;}
	.st8{fill:#DE4435;}
	.st9{fill:url(#SVGID_1_);}
	.st10{fill:url(#SVGID_2_);}
	.st11{fill:url(#SVGID_3_);}
	.st12{fill:#404041;}
	.st13{fill:url(#SVGID_4_);}
	.st14{fill:url(#SVGID_5_);}
	.st15{fill:url(#SVGID_6_);}
	.st16{fill:url(#SVGID_7_);}
	.st17{fill:url(#SVGID_8_);}
	.st18{fill:url(#SVGID_9_);}
	.st19{fill:url(#SVGID_10_);}
	.st20{fill:url(#SVGID_11_);}
	.st21{fill:url(#SVGID_12_);}
	.st22{fill:#EC1C24;}
	.st23{fill:none;stroke:#1D1D1B;stroke-width:4.0818;stroke-miterlimit:10;}
	.st24{fill:#C99D66;}
	.st25{fill:#35A8E0;}
	.st26{fill:#2DAB66;}
	.st27{fill:none;stroke:#1D1D1B;stroke-width:3.4123;stroke-linejoin:round;stroke-miterlimit:10;}
	.st28{fill:#E20613;}
	.st29{fill:#FCEA0D;}
	.st30{fill:#F094BD;}
	.st31{fill:#E5332A;}
	.st32{fill:#E84E1B;}
	.st33{fill:#F29100;}
	.st34{fill:#F8B133;}
	.st35{fill:#008D36;}
	.st36{fill:#006633;}
	.st37{fill:#39A935;}
	.st38{fill:#1D3763;}
	.st39{fill:url(#SVGID_13_);}
	.st40{fill:url(#SVGID_14_);}
	.st41{fill:url(#SVGID_15_);}
	.st42{fill:url(#SVGID_16_);}
	.st43{fill:url(#SVGID_17_);}
	.st44{fill:url(#SVGID_18_);}
	.st45{fill:url(#SVGID_19_);}
	.st46{fill:url(#SVGID_20_);}
	.st47{fill:url(#SVGID_21_);}
	.st48{fill:none;}
	.st49{fill:#93C01F;}
	.st50{fill:#81358A;}
	.st51{fill:#4B2C15;}
	.st52{fill:#79A242;}
	.st53{fill:#613917;stroke:#613917;stroke-width:0.3451;stroke-miterlimit:10;}
	.st54{fill:#8D8C8C;stroke:#8D8C8C;stroke-width:0.3451;stroke-miterlimit:10;}
	.st55{fill:#273577;}
	.st56{fill:#6C1510;}
	.st57{fill:#185126;}
</style>
<g>
	<circle class="st31" cx="300" cy="207.3" r="134.8"/>
	<circle class="st32" cx="300" cy="207.3" r="108.8"/>
	<circle class="st33" cx="300" cy="207.3" r="82.7"/>
	<circle class="st34" cx="300" cy="207.3" r="56.6"/>
	<g>
		<path class="st35" d="M286.9,444.7L291,496H155.8V207.6l19.9-4.2h11.5l17.8,4.2l8.4,22l20.8,12.6l14.8,11.5l12.6,12.6l10.5,21
			l13.6,11.5l39.6,15.1c0,0-67.4-0.2-80.5,26.8c-11.4,23.3,0.9,39.4,3.6,42.8c0.6,0.7,8,10.9,8.5,11.6l29.1,39.9L286.9,444.7z"/>
		<path class="st1" d="M372.9,320.7l-32.6-12.4l-49.2-18.7l-10.6-9l-10.3-20.5L256,245.9l-15.8-12.3l-18.3-11l-9.1-23.8l-20.8-4.9
			l-3.6-0.8h-13.8l-7.8,1.6l-1.1,0.2l-20.1,4.2c-0.2,2.8-0.2,5.7-0.2,8.5v298.8h156.9l-1.7-20.9l-4.4-54.3l-30.8-42.3l-0.5-0.7
			c-7.7-10.5-8-10.9-8.3-11.2c-5-6.4-9.5-17-2.4-31.7c1.5-3.1,4.5-5.9,8.5-8.3c14.6-8.7,42.7-12.7,62.6-12.7l41.6,0.1l15.5,0
			L372.9,320.7z M240.7,328.4c-2.1,2.3-3.8,4.9-5.2,7.7c-9.2,18.8-7.4,38.4,4.7,53.8c0.3,0.3,1.6,2.1,7.8,10.7l27.8,38.2l3.8,46.8
			H166.3V216.1l10.6-2.2h9.2l5.4,1.3l5.8,1.4l7.7,20.2l23.4,14.1l13.8,10.8l10.9,10.9l10.7,21.4l16.6,14l1,0.4
			c-4.1,0.9-8.2,2-12.2,3.4C257.9,315.3,247.5,320.6,240.7,328.4z"/>
	</g>
	<g>
		<polygon class="st36" points="379.9,230.2 369,252.9 351.7,264.7 340.5,279.7 332.7,291.1 325.4,313.8 285.7,298.7 272.1,287.2 
			261.7,266.2 249.1,253.7 268,242 285,242 300,225 316.1,225 331.1,214 346.1,219 		"/>
		<path class="st1" d="M332,327.5l-51.6-19.6l-16.6-14l-10.7-21.4l-20.7-20.7l32.7-20.1h15.3l15-17h17.4l16.6-12.2l20.1,6.7
			l45.1,14.9l-17.3,35.9l-18.1,12.4L349,285.8l-6.9,9.9L332,327.5z M291.1,289.6l27.7,10.5l4.4-13.7l9-13l12.3-16.4l16.4-11.2
			l4.6-9.5l-32.5-10.8l-13.4,9.8h-14.8l-15,17H271l-5.2,3.2l4.4,4.4l10.3,20.5L291.1,289.6z"/>
	</g>
	<g>
		<path class="st25" d="M369,409.9h-33.3L316,422.6l-30,12.3L257,395c-0.5-0.7-8-10.9-8.5-11.6c-2.7-3.4-14.9-19.4-3.6-42.8
			c13.1-27,80.5-26.8,80.5-26.8s-19.9,19.6-20.6,45.9C304.3,379.5,369,409.9,369,409.9z"/>
		<path class="st1" d="M282.5,447.7l-34.4-47.2c-6.2-8.5-7.6-10.3-7.8-10.7c-12.1-15.3-13.9-35-4.7-53.8
			c15.5-31.9,82.3-32.7,89.9-32.7l25.3,0.1l-18,17.8c-0.1,0.1-16.9,17.1-17.5,38.6c0.1,0.5,2.1,8.1,28.1,24.3
			c15,9.3,29.9,16.3,30.1,16.4l42.3,19.9h-77l-17.8,11.5L282.5,447.7z M304.1,325.5c-21.7,2.5-44.6,8.9-49.8,19.7
			c-7.2,14.7-2.7,25.4,2.4,31.7c0.2,0.3,0.6,0.8,8.3,11.2l0.5,0.7l24.3,33.3l21.5-8.9l19.5-12.6c-25.4-16-36.6-28.8-36.3-41.4
			C294.7,346.2,299.2,334.5,304.1,325.5z"/>
	</g>
	<g>
		<path class="st35" d="M444.2,207.6v202.3H369c0,0-64.7-30.4-64.2-50.3c0.7-26.2,20.6-45.9,20.6-45.9l7.3-22.7l7.9-11.4l11.2-15
			l17.2-11.8l10.9-22.7l13.6-26.7l16.4-7.8h13.6L444.2,207.6z"/>
		<path class="st1" d="M454.5,201.5l-20.8-12.1l-1.2-0.7l-6-3.5h-18.8l-21.7,10.3l-15.2,29.9l-9.8,20.4l-16.4,11.2l-12.3,16.4l-9,13
			l-7,22c-4.2,4.7-14.1,17-19,33.7c-1.6,5.4-2.6,11.2-2.8,17.3c-0.3,12.7,11,25.6,36.8,41.7c16.4,10.3,32.7,18,33.4,18.3l2.1,1h87.9
			V207.6C454.6,205.6,454.6,203.6,454.5,201.5z M315.2,359.8c0.2-7,2.1-13.6,4.6-19.2c5.2-11.6,12.8-19.3,12.9-19.4l1.8-1.8
			l7.6-23.7l6.9-9.9l10.1-13.5l18.1-12.4l12.1-25.1l12-23.5l11-5.3h8.5l13,7.6v185.9h-62.4c-4.6-2.3-16.4-8.2-28.2-15.5
			C317.3,368,315.3,360.4,315.2,359.8z"/>
	</g>
	<g>
		<polygon class="st37" points="444.2,353.5 444.2,496 234.3,496 277.1,438.6 286.1,434.9 316,422.6 335.6,409.9 369,409.9 
			401.2,382.3 412.7,364.9 		"/>
		<path class="st1" d="M454.6,506.4H213.5l57-76.3l40.7-16.7l21.4-13.8h32.6l28.2-24.2l12.6-19.1l48.7-17.6V506.4z M255.1,485.5
			h178.6V368.4l-14.2,5.1l-10.4,15.7l-36.3,31.1h-34.1l-17.8,11.5l-37.2,15.3L255.1,485.5z"/>
	</g>
	<g>
		<polygon class="st37" points="155.8,364.9 182.3,384.9 198.1,384.9 211.8,395.4 224.4,401.8 245.5,421.8 277.1,438.6 294,449.2 
			327.7,455.5 363.5,469.2 388.8,476.5 444.2,480.8 444.2,496 155.8,496 		"/>
		<path class="st1" d="M454.6,506.4H145.4V344l40.4,30.5h15.9l15.7,12.1l13.1,6.6l21.2,20.1l31,16.5l15.2,9.5l32.7,6.1l36.3,13.9
			l23.8,6.9l64,4.9V506.4z M166.3,485.5h216.1l-22.5-6.6l-34.9-13.4l-34.7-6.5l-18.2-11.4l-32.5-17.4l-21-19.9l-12.1-6.1l-11.7-9
			h-15.7l-12.6-9.5V485.5z"/>
	</g>
	<path class="st1" d="M454.5,201.5C451.3,119.1,383.2,53,300,53c-82.4,0-149.9,64.8-154.4,146.1c-0.2,2.8-0.2,5.7-0.2,8.5v298.8
		h309.2V207.6C454.6,205.6,454.6,203.6,454.5,201.5z M433.7,485.5H166.3V207.6c0-0.7,0-1.5,0-2.2c0.1-3.6,0.3-7.2,0.6-10.8
		c6.5-67.7,63.7-120.8,133.1-120.8c67.3,0,123.2,50,132.4,114.8c0.6,4.2,1,8.5,1.2,12.8c0.1,2,0.1,4.1,0.1,6.2V485.5z"/>
	<g>
		<rect x="155.8" y="449.2" class="st1" width="288.3" height="87.4"/>
		<path class="st1" d="M454.6,547H145.4V438.7h309.2V547z M166.3,526.1h267.5v-66.6H166.3V526.1z"/>
	</g>
	<g>
		<path class="st7" d="M169.4,498.9c-1.3-0.3-2.1-1.2-2.4-2.7l-1.7-37.5c0.1-1.4,0.5-2.2,1.3-2.4h8.4c0.8,0.2,1.2,1,1.3,2.4l1,22.9
			h0.3l2.6-22.9c0.1-1.4,0.5-2.2,1.3-2.4h6.9c0.8,0.2,1.2,1,1.3,2.4l2.6,22.9h0.3l1-22.9c0.1-1.4,0.5-2.2,1.3-2.4h8.4
			c0.8,0.2,1.2,1,1.3,2.4l-1.7,37.5c-0.4,1.4-1.2,2.3-2.4,2.7h-11.9c-1,0-1.6-0.7-1.8-1.9l-1.7-14h-0.2l-1.7,14
			c-0.1,1.2-0.7,1.8-1.7,1.9H169.4z"/>
		<path class="st7" d="M208.1,458.7c0.1-1.4,0.5-2.2,1.3-2.4h21.9c1.1,0.1,1.7,0.7,1.9,1.7v8.8c-0.2,1-0.8,1.6-1.9,1.7H219v4h10.4
			c1.1,0.1,1.7,0.7,1.9,1.7v7.1c-0.2,1-0.8,1.6-1.9,1.7H219v4h12.3c1.1,0.1,1.7,0.7,1.9,1.7v8.8c-0.2,1-0.8,1.6-1.9,1.7h-21.9
			c-0.8-0.2-1.2-1-1.3-2.4V458.7z"/>
		<path class="st7" d="M238.2,498.9c-0.8-0.2-1.2-1-1.3-2.4v-37.7c0.1-1.4,0.5-2.2,1.3-2.4h8c0.8,0.2,1.3,0.8,1.6,1.9l3.2,10.7
			v-10.1c0.1-1.4,0.5-2.2,1.3-2.4h8.4c0.8,0.2,1.2,1,1.3,2.4v37.7c-0.1,1.4-0.5,2.2-1.3,2.4h-8c-0.8-0.2-1.3-0.8-1.6-1.9l-3.2-10.7
			v10.1c-0.1,1.4-0.5,2.2-1.3,2.4H238.2z"/>
		<path class="st7" d="M286.3,456.3c1.3,0.3,2.1,1.2,2.4,2.7l1.8,37.5c-0.1,1.4-0.5,2.2-1.3,2.4h-8.4c-0.8-0.2-1.2-1-1.3-2.4
			l-0.2-4.9h-2.7l-0.3,4.9c-0.1,1.4-0.5,2.2-1.3,2.4h-8.4c-0.8-0.2-1.2-1-1.3-2.4l1.8-37.5c0.4-1.4,1.2-2.3,2.4-2.7H286.3z
			 M278.4,468.1h-0.5l-0.7,14.5h1.7L278.4,468.1z"/>
		<path class="st7" d="M317.3,456.3c1.1,0.1,1.7,0.7,1.9,1.7v8.8c-0.2,1-0.8,1.6-1.9,1.7h-5.1v28.1c-0.1,1.4-0.5,2.2-1.3,2.4h-8.4
			c-0.8-0.2-1.2-1-1.3-2.4v-28.1H296c-1.1-0.1-1.7-0.7-1.9-1.7v-8.8c0.2-1,0.8-1.6,1.9-1.7H317.3z"/>
		<path class="st7" d="M322.8,464.8c0-4.9,0.9-7.8,2.8-8.5h19.6c1.9,0.8,2.8,3.6,2.8,8.5v6.8c-0.1,1.4-0.5,2.2-1.3,2.4h-8.4
			c-0.8-0.2-1.2-1-1.3-2.4v-3.2h-3.2v18.4h3.2v-3.2c0.1-1.4,0.5-2.2,1.3-2.4h8.4c0.8,0.2,1.2,1,1.3,2.4v6.8c0,4.9-0.9,7.8-2.8,8.5
			h-19.6c-1.9-0.8-2.8-3.6-2.8-8.5V464.8z"/>
		<path class="st7" d="M352.9,498.9c-0.8-0.2-1.2-1-1.3-2.4v-37.7c0.1-1.4,0.5-2.2,1.3-2.4h8.4c0.8,0.2,1.2,1,1.3,2.4v13.5h3.1
			v-13.5c0.1-1.4,0.5-2.2,1.3-2.4h8.4c0.8,0.2,1.2,1,1.3,2.4v37.7c-0.1,1.4-0.5,2.2-1.3,2.4H367c-0.8-0.2-1.2-1-1.3-2.4v-13.8h-3.1
			v13.8c-0.1,1.4-0.5,2.2-1.3,2.4H352.9z"/>
		<path class="st7" d="M380.3,458.7c0.1-1.4,0.5-2.2,1.3-2.4h21.9c1.1,0.1,1.7,0.7,1.9,1.7v8.8c-0.2,1-0.8,1.6-1.9,1.7h-12.3v4h10.4
			c1.1,0.1,1.7,0.7,1.9,1.7v7.1c-0.2,1-0.8,1.6-1.9,1.7h-10.4v4h12.3c1.1,0.1,1.7,0.7,1.9,1.7v8.8c-0.2,1-0.8,1.6-1.9,1.7h-21.9
			c-0.8-0.2-1.2-1-1.3-2.4V458.7z"/>
		<path class="st7" d="M409.1,458.7c0.1-1.4,0.5-2.2,1.3-2.4h21.9c1.1,0.1,1.7,0.7,1.9,1.7v8.8c-0.2,1-0.8,1.6-1.9,1.7h-12.3v4h10.4
			c1.1,0.1,1.7,0.7,1.9,1.7v7.1c-0.2,1-0.8,1.6-1.9,1.7h-10.4v4h12.3c1.1,0.1,1.7,0.7,1.9,1.7v8.8c-0.2,1-0.8,1.6-1.9,1.7h-21.9
			c-0.8-0.2-1.2-1-1.3-2.4V458.7z"/>
	</g>
	<g>
		<g>
			<g>
				<path class="st7" d="M214.2,530.9v-7.7c0-2.7-1.2-4.1-3.7-4.1c-1.2,0-2.1,0.4-2.8,1.1c-0.6,0.7-1,1.7-1,2.9v7.9h-1.3V518h1.3
					v1.6c0.6-1.1,1.8-1.7,3.7-1.7c1.6,0,2.8,0.5,3.7,1.4c0.9,0.9,1.3,2.2,1.3,3.9v7.9H214.2z"/>
			</g>
			<g>
				<path class="st7" d="M232.3,530.9v-2.2c-1.4,1.6-3.1,2.4-5.2,2.4c-1.9,0-3.5-0.6-4.7-1.9c-1.3-1.3-1.9-2.9-1.9-4.8
					c0-1.9,0.6-3.5,1.9-4.7c1.3-1.3,2.9-1.9,4.8-1.9c2.1,0,3.8,0.8,5.2,2.4V518h1.3v12.9H232.3z M231,520.6
					c-1.1-1.1-2.3-1.6-3.8-1.6c-1.5,0-2.8,0.5-3.8,1.6c-1.1,1.1-1.6,2.3-1.6,3.9c0,1.5,0.5,2.8,1.6,3.8c1.1,1.1,2.3,1.6,3.8,1.6
					c1.5,0,2.8-0.5,3.8-1.6c1.1-1.1,1.6-2.3,1.6-3.9C232.6,523,232,521.7,231,520.6z"/>
			</g>
			<g>
				<path class="st7" d="M241.2,519.3v11.6h-1.3v-11.6h-1.8V518h1.8v-5.7h1.3v5.7h3v1.3H241.2z"/>
			</g>
			<g>
				<path class="st7" d="M249.8,515.7c-0.2,0-0.5-0.1-0.7-0.3c-0.2-0.2-0.3-0.4-0.3-0.8c0-0.6,0.3-0.9,1-1c0.5,0,0.9,0.3,1,1
					C250.8,515.3,250.5,515.7,249.8,515.7z M249.1,530.9V518h1.3v12.9H249.1z"/>
			</g>
			<g>
				<path class="st7" d="M266.9,529.2c-1.3,1.3-2.9,1.9-4.8,1.9s-3.5-0.6-4.7-1.9c-1.3-1.3-1.9-2.9-1.9-4.8c0-1.9,0.6-3.4,1.9-4.7
					c1.3-1.3,2.8-2,4.7-2c1.9,0,3.4,0.6,4.7,1.9c1.3,1.3,1.9,2.9,1.9,4.8C268.8,526.3,268.2,527.9,266.9,529.2z M266,520.6
					c-1-1.1-2.3-1.6-3.9-1.6c-1.5,0-2.7,0.5-3.8,1.6c-1.1,1.1-1.6,2.4-1.6,3.8c0,1.5,0.5,2.8,1.6,3.8c1.1,1.1,2.3,1.6,3.8,1.6
					c1.5,0,2.8-0.5,3.8-1.6c1.1-1.1,1.6-2.3,1.6-3.9C267.6,522.9,267.1,521.6,266,520.6z"/>
			</g>
			<g>
				<path class="st7" d="M282.6,530.9v-7.7c0-2.7-1.2-4.1-3.7-4.1c-1.2,0-2.1,0.4-2.8,1.1c-0.6,0.7-1,1.7-1,2.9v7.9h-1.3V518h1.3
					v1.6c0.6-1.1,1.8-1.7,3.7-1.7c1.6,0,2.8,0.5,3.7,1.4c0.9,0.9,1.3,2.2,1.3,3.9v7.9H282.6z"/>
			</g>
			<g>
				<path class="st7" d="M300.7,530.9v-2.2c-1.4,1.6-3.1,2.4-5.2,2.4c-1.9,0-3.5-0.6-4.7-1.9c-1.3-1.3-1.9-2.9-1.9-4.8
					c0-1.9,0.6-3.5,1.9-4.7c1.3-1.3,2.9-1.9,4.8-1.9c2.1,0,3.8,0.8,5.2,2.4V518h1.3v12.9H300.7z M299.3,520.6
					c-1.1-1.1-2.3-1.6-3.8-1.6c-1.5,0-2.8,0.5-3.8,1.6c-1.1,1.1-1.6,2.3-1.6,3.9c0,1.5,0.5,2.8,1.6,3.8c1.1,1.1,2.3,1.6,3.8,1.6
					c1.5,0,2.8-0.5,3.8-1.6c1.1-1.1,1.6-2.3,1.6-3.9C300.9,523,300.4,521.7,299.3,520.6z"/>
			</g>
			<g>
				<path class="st7" d="M307.9,530.9v-23.2h1.3v23.2H307.9z"/>
			</g>
			<g>
				<path class="st7" d="M330.1,509l-0.8-0.1c-1.2,0-1.8,0.7-1.8,2.1v7h3.1v1.3h-3.1v11.6h-1.3v-11.6h-1.8V518h1.8v-7.4c0-2,1-3,3-3
					c0.5,0,0.8,0,0.9,0.1c0.3,0,0.5,0.1,0.8,0.2v1.3L330.1,509z"/>
			</g>
			<g>
				<path class="st7" d="M344.2,529.2c-1.3,1.3-2.9,1.9-4.8,1.9c-1.9,0-3.5-0.6-4.7-1.9c-1.3-1.3-1.9-2.9-1.9-4.8
					c0-1.9,0.6-3.4,1.9-4.7c1.3-1.3,2.8-2,4.7-2c1.9,0,3.4,0.6,4.7,1.9c1.3,1.3,1.9,2.9,1.9,4.8
					C346.1,526.3,345.5,527.9,344.2,529.2z M343.3,520.6c-1-1.1-2.3-1.6-3.9-1.6c-1.5,0-2.7,0.5-3.8,1.6c-1.1,1.1-1.6,2.4-1.6,3.8
					c0,1.5,0.5,2.8,1.6,3.8c1.1,1.1,2.3,1.6,3.8,1.6c1.5,0,2.8-0.5,3.8-1.6c1.1-1.1,1.6-2.3,1.6-3.9
					C344.9,522.9,344.4,521.6,343.3,520.6z"/>
			</g>
			<g>
				<path class="st7" d="M357.3,519.9c-0.3-0.3-0.7-0.4-1.1-0.6c-0.4-0.1-0.8-0.2-1.2-0.2c-0.4,0-0.7,0.1-1,0.3
					c-0.3,0.2-0.6,0.5-0.8,0.8c-0.2,0.3-0.4,0.7-0.5,1.1c-0.1,0.4-0.2,0.8-0.2,1.1v8.5h-1.3V518h1.3v1.8c0.3-0.5,0.6-0.9,1.1-1.3
					c0.4-0.4,0.9-0.6,1.4-0.6c0.6,0,1.2,0.1,1.6,0.2c0.4,0.1,0.9,0.4,1.4,0.8L357.3,519.9z"/>
			</g>
			<g>
				<path class="st7" d="M361.1,524.2c0,1.8,0.5,3.1,1.4,4.2c1,1,2.3,1.6,4,1.6c0.9,0,1.7-0.1,2.4-0.4c0.9-0.4,1.7-1.1,2.4-2.3
					l1.2,0.5c-0.8,1.5-2.1,2.6-3.8,3.1c-0.6,0.2-1.4,0.3-2.2,0.3c-1.9,0-3.5-0.6-4.8-1.9c-1.3-1.3-1.9-2.9-1.9-4.8
					c0-1.9,0.6-3.5,1.9-4.8c1.3-1.3,2.9-1.9,4.8-1.9c1.9,0,3.5,0.6,4.8,1.8c1.3,1.2,1.9,2.7,1.9,4.6H361.1z M369.9,520.1
					c-1-0.7-2.1-1.1-3.4-1.1c-2.7,0-4.4,1.3-5.3,3.9h10.5C371.6,521.8,371,520.8,369.9,520.1z"/>
			</g>
			<g>
				<path class="st7" d="M384.4,530.1c-0.8,0.7-1.8,1.1-3,1.1c-2,0-3.5-0.9-4.5-2.7l1.1-0.7c0.4,0.6,0.8,1.1,1.3,1.5
					c0.5,0.4,1.2,0.6,2.1,0.6c2,0,2.9-0.8,2.9-2.5c0-0.7-0.3-1.4-1-1.9c-0.2-0.1-0.5-0.3-0.9-0.4c-0.4-0.2-0.9-0.3-1.4-0.5
					c-1-0.4-1.8-0.8-2.3-1.1c-0.7-0.5-1-1.3-1-2.3c0-0.9,0.3-1.6,1-2.3c0.6-0.6,1.5-1,2.5-1c1.4,0,2.7,0.5,3.7,1.5l-0.9,0.8
					c-0.7-0.7-1.6-1.1-2.7-1.1c-1.5,0-2.3,0.7-2.3,2c0,0.6,0.2,1.1,0.7,1.4c0.4,0.3,1,0.6,1.8,0.8c0.7,0.3,1.3,0.5,1.8,0.7
					c0.5,0.2,0.8,0.4,1,0.6c0.9,0.7,1.3,1.6,1.3,2.8C385.6,528.5,385.2,529.4,384.4,530.1z"/>
			</g>
			<g>
				<path class="st7" d="M392.1,519.3v11.6h-1.3v-11.6h-1.8V518h1.8v-5.7h1.3v5.7h3v1.3H392.1z"/>
			</g>
		</g>
		<rect x="166.2" y="522" class="st7" width="33" height="1"/>
		<rect x="401.5" y="522" class="st7" width="33" height="1"/>
	</g>
</g>
</svg>
