<?xml version="1.0" encoding="utf-8"?>
<!-- Generator: Adobe Illustrator 23.0.1, SVG Export Plug-In . SVG Version: 6.00 Build 0)  -->
<svg version="1.1" id="Layer_1" xmlns="http://www.w3.org/2000/svg" xmlns:xlink="http://www.w3.org/1999/xlink" x="0px" y="0px"
	 viewBox="0 0 600 600" style="enable-background:new 0 0 600 600;" xml:space="preserve">
<style type="text/css">
	.st0{fill:#36A9E1;}
	.st1{fill:#1D1D1B;}
	.st2{fill:#2E5227;}
	.st3{fill:#231F20;}
	.st4{fill:#977E63;}
	.st5{fill:#771914;}
	.st6{fill:#DF4336;}
	.st7{fill:#FFFFFF;}
	.st8{fill:#DE4435;}
	.st9{fill:url(#SVGID_1_);}
	.st10{fill:url(#SVGID_2_);}
	.st11{fill:url(#SVGID_3_);}
	.st12{fill:#404041;}
	.st13{fill:url(#SVGID_4_);}
	.st14{fill:url(#SVGID_5_);}
	.st15{fill:url(#SVGID_6_);}
	.st16{fill:url(#SVGID_7_);}
	.st17{fill:url(#SVGID_8_);}
	.st18{fill:url(#SVGID_9_);}
	.st19{fill:url(#SVGID_10_);}
	.st20{fill:url(#SVGID_11_);}
	.st21{fill:url(#SVGID_12_);}
	.st22{fill:#EC1C24;}
	.st23{fill:none;stroke:#1D1D1B;stroke-width:4.0818;stroke-miterlimit:10;}
	.st24{fill:#C99D66;}
	.st25{fill:#35A8E0;}
	.st26{fill:#2DAB66;}
	.st27{fill:none;stroke:#1D1D1B;stroke-width:3.4123;stroke-linejoin:round;stroke-miterlimit:10;}
	.st28{fill:#E20613;}
	.st29{fill:#FCEA0D;}
	.st30{fill:#F094BD;}
	.st31{fill:#E5332A;}
	.st32{fill:#E84E1B;}
	.st33{fill:#F29100;}
	.st34{fill:#F8B133;}
	.st35{fill:#008D36;}
	.st36{fill:#006633;}
	.st37{fill:#39A935;}
	.st38{fill:#1D3763;}
	.st39{fill:url(#SVGID_13_);}
	.st40{fill:url(#SVGID_14_);}
	.st41{fill:url(#SVGID_15_);}
	.st42{fill:url(#SVGID_16_);}
	.st43{fill:url(#SVGID_17_);}
	.st44{fill:url(#SVGID_18_);}
	.st45{fill:url(#SVGID_19_);}
	.st46{fill:url(#SVGID_20_);}
	.st47{fill:url(#SVGID_21_);}
	.st48{fill:none;}
	.st49{fill:#93C01F;}
	.st50{fill:#81358A;}
	.st51{fill:#4B2C15;}
	.st52{fill:#79A242;}
	.st53{fill:#613917;stroke:#613917;stroke-width:0.3451;stroke-miterlimit:10;}
	.st54{fill:#8D8C8C;stroke:#8D8C8C;stroke-width:0.3451;stroke-miterlimit:10;}
	.st55{fill:#273577;}
	.st56{fill:#6C1510;}
	.st57{fill:#185126;}
</style>
<g>
	<g>
		<path class="st1" d="M174.5,273.3v19.1h42.3V310h-42.3v34.3H155v-88.6h67.5v17.6H174.5z"/>
		<path class="st1" d="M238.9,344.3v-51.9h19.5v51.9H238.9z"/>
		<path class="st1" d="M280.6,344.3v-88.6h19.5v71h44.2v17.6H280.6z"/>
		<path class="st1" d="M428.4,344.3v-57.9l-24.9,37.9h-0.5l-24.7-37.5v57.5H359v-88.6h21l23.3,37.5l23.3-37.5h21v88.6H428.4z"/>
	</g>
	<g>
		<path class="st1" d="M126.4,430.9c-12.5-5-23.3,0.3-23.3,0.4c-0.2,0,10.2,16.1,23.8,20.5c13.4,4.5,23-3.4,23-3.3
			C149.7,448.5,138.8,435.9,126.4,430.9z"/>
		<path class="st1" d="M151.9,446.8c0.1,0,8.6-8.5,8.8-20.9c0.1-12.3-6.9-24.6-6.9-24.7c0.1,0-10.5,6.5-11.5,19.2
			C141.2,433.4,151.9,446.9,151.9,446.8z"/>
		<path class="st1" d="M130.4,422c-0.1,0-9-13.8-20.4-20.3c-11.6-6.6-23-2.8-23.1-2.7c-0.2,0,7.7,17.1,20.4,23.3
			C119.8,428.4,130.4,421.9,130.4,422z"/>
		<path class="st1" d="M132.7,420.6c0.1,0,9.8-7.1,11.8-19.3c1.9-12.1-3.2-25-3.2-25.1c0.1,0.1-11.3,4.9-14.2,17.3
			C124.2,406.1,132.6,420.7,132.7,420.6z"/>
		<path class="st1" d="M115.2,393.5c-0.1,0-6.8-14.7-17.3-22.7c-10.5-8-22.4-5.9-22.4-5.8c-0.1-0.1,5.3,17.9,16.9,25.6
			C103.8,398.3,115.2,393.4,115.2,393.5z"/>
		<path class="st1" d="M117.6,392.4c0.1,0.1,10.7-5.7,14.4-17.4c3.7-11.6,0.4-25,0.4-25.1c0.1,0.1-11.9,3.3-16.4,15.1
			C111.4,377,117.5,392.5,117.6,392.4z"/>
		<path class="st1" d="M104.2,363.4c-0.1-0.1-4.7-15.4-13.9-24.7c-9.3-9.4-21.4-8.8-21.4-8.8c-0.1-0.1,2.8,18.4,13.2,27.5
			C92.3,366.6,104.2,363.3,104.2,363.4z"/>
		<path class="st1" d="M106.8,362.7c0.1,0.1,11.4-4.2,16.7-15.1c5.2-10.9,3.8-24.6,3.9-24.7c0.1,0.1-12.2,1.7-18.3,12.7
			C102.8,346.7,106.7,362.8,106.8,362.7z"/>
		<path class="st1" d="M97.5,332.3c-0.1-0.1-2.6-15.8-10.5-26.3c-8-10.5-20-11.7-20-11.6c-0.1-0.1,0.3,18.6,9.3,29
			C85.3,333.9,97.6,332.2,97.5,332.3z"/>
		<path class="st1" d="M100.2,331.9c0.1,0.1,11.8-2.6,18.6-12.7c6.7-10,7.1-23.8,7.2-23.9c0.1,0.1-12.3,0-19.9,10.1
			C98.4,315.6,100.1,332,100.2,331.9z"/>
		<path class="st1" d="M95.1,300.7c-0.1-0.1-0.4-16-6.8-27.5C81.8,261.7,70,259,70,259c-0.1-0.1-2.2,18.4,5.4,30
			C82.8,300.6,95.2,300.6,95.1,300.7z"/>
		<path class="st1" d="M97.8,300.7c0,0.1,12.1-0.9,20.1-10c7.9-9,10.2-22.6,10.3-22.7c0,0.1-12.2-1.7-21,7.3
			C98.2,284.3,97.7,300.8,97.8,300.7z"/>
		<path class="st1" d="M97,269.1c-0.1-0.1,1.7-15.9-3.1-28.2c-4.9-12.4-16.1-16.7-16.2-16.6c-0.1-0.1-4.7,18.1,1.2,30.6
			C84.7,267.2,97,269,97,269.1z"/>
		<path class="st1" d="M99.6,269.4c0,0.1,12.1,0.8,21.3-7.2c9.1-7.9,13.2-21.1,13.3-21.1c0,0.1-11.9-3.4-21.8,4.3
			C102.2,253.2,99.5,269.5,99.6,269.4z"/>
		<path class="st1" d="M103.1,237.9c-0.1-0.1,3.9-15.6,0.9-28.5c-3.1-13-13.6-18.9-13.7-18.8c-0.1-0.1-7.2,17.4-3.1,30.7
			C91.2,234.4,103.2,237.8,103.1,237.9z"/>
		<path class="st1" d="M105.7,238.6c0,0.1,11.9,2.4,22.1-4.2c10.1-6.6,16-19.2,16.1-19.3c0,0.1-11.3-5-22.3,1.4
			C110.5,222.8,105.5,238.6,105.7,238.6z"/>
		<path class="st1" d="M113.5,207.6c-0.1-0.1,6.1-15,4.9-28.3c-1.2-13.4-10.8-20.7-10.9-20.6c-0.1-0.1-9.7,16.4-7.5,30.2
			C102.2,202.6,113.6,207.6,113.5,207.6z"/>
		<path class="st1" d="M115.9,208.7c0,0.1,11.4,4,22.5-1.2c10.9-5.2,18.7-17,18.8-17c0,0.1-10.5-6.5-22.3-1.7
			C122.9,193.6,115.8,208.7,115.9,208.7z"/>
		<path class="st1" d="M128.1,178.9c-0.1-0.1,8.2-14.2,9.2-27.7c0.9-13.6-7.5-22.2-7.7-22.1c-0.1-0.1-12.3,15.1-12.1,29.2
			C117.6,172.3,128.2,178.8,128.1,178.9z"/>
		<path class="st1" d="M130.4,180.2c0,0.1,10.8,5.6,22.5,1.8c11.6-3.7,21.2-14.5,21.4-14.5c0,0.1-9.5-7.9-22-4.7
			C139.6,166.1,130.3,180.3,130.4,180.2z"/>
		<path class="st1" d="M147,152.1c0-0.1,10.4-13.1,13.5-26.5c3.1-13.5-4-23.2-4.1-23.2c-0.1-0.1-14.8,13.5-16.8,27.7
			C137.6,144,147.2,152,147,152.1z"/>
		<path class="st1" d="M187.5,125.7c11.8-9.5,18.7-23.3,18.8-23.4c0.1-0.1-16.2-0.1-29.3,10.3c-13.1,10.5-15.9,25.7-15.9,25.6
			C161.3,138.2,175.7,135.1,187.5,125.7z"/>
		<path class="st1" d="M171.3,158.6c12.2-2.2,23.6-11.7,23.8-11.7c0,0.1-8.3-9.2-21.4-7.6c-13.3,1.6-24.8,14.5-24.6,14.5
			C149.1,153.8,159,160.8,171.3,158.6z"/>
		<path class="st1" d="M204.6,497.7c1.2-1.9,2.3-3.8,3.5-5.7c-19-11.7-35.5-25.4-49.5-40.7c-1.7,1.5-3.3,3-5,4.5
			C168,471.5,185,485.7,204.6,497.7z"/>
	</g>
	<g>
		<path class="st1" d="M457.7,420.4c-1-12.8-11.6-19.2-11.5-19.2c0,0.1-7,12.4-6.9,24.7c0.1,12.4,8.7,20.9,8.8,20.9
			C448.1,446.9,458.8,433.4,457.7,420.4z"/>
		<path class="st1" d="M450.1,448.5c0-0.1,9.6,7.8,23,3.3c13.6-4.5,23.9-20.6,23.8-20.5c0-0.1-10.8-5.4-23.3-0.4
			C461.2,435.9,450.3,448.5,450.1,448.5z"/>
		<path class="st1" d="M467.3,420.6c0.1,0.1,8.5-14.5,5.5-27.1c-2.8-12.4-14.3-17.3-14.2-17.3c0.1,0.1-5.1,13.1-3.2,25.1
			C457.6,413.5,467.2,420.6,467.3,420.6z"/>
		<path class="st1" d="M469.6,422c0-0.1,10.6,6.4,23.1,0.2c12.6-6.2,20.5-23.3,20.4-23.3c0-0.1-11.5-3.9-23.1,2.7
			C478.6,408.2,469.8,422,469.6,422z"/>
		<path class="st1" d="M482.4,392.4c0.1,0.1,6.2-15.4,1.6-27.3c-4.6-11.8-16.5-15.1-16.4-15.1c0.1,0.1-3.2,13.5,0.4,25.1
			C471.7,386.7,482.3,392.4,482.4,392.4z"/>
		<path class="st1" d="M484.8,393.5c0-0.1,11.4,4.8,22.8-2.9c11.6-7.7,17-25.7,16.9-25.6c0-0.1-11.9-2.2-22.4,5.8
			C491.7,378.8,485,393.5,484.8,393.5z"/>
		<path class="st1" d="M493.2,362.7c0.1,0.1,4-16-2.2-27.1c-6.1-11-18.4-12.6-18.3-12.7c0.1,0.1-1.4,13.8,3.9,24.7
			C481.8,358.5,493.1,362.7,493.2,362.7z"/>
		<path class="st1" d="M495.8,363.4c0-0.1,11.9,3.2,22.2-5.9c10.4-9.2,13.3-27.6,13.2-27.5c0-0.1-12.1-0.6-21.4,8.8
			C500.5,348,495.9,363.4,495.8,363.4z"/>
		<path class="st1" d="M499.8,331.9c0.1,0.1,1.8-16.3-5.9-26.5c-7.5-10.1-19.9-10-19.9-10.1c0.1,0.1,0.5,13.8,7.2,23.9
			C488,329.4,499.8,332,499.8,331.9z"/>
		<path class="st1" d="M502.5,332.3c0-0.1,12.3,1.6,21.2-8.8c9-10.5,9.5-29.1,9.3-29c-0.1-0.1-12,1.1-20,11.6
			C505,316.5,502.6,332.3,502.5,332.3z"/>
		<path class="st1" d="M502.2,300.7c0.1,0.1-0.4-16.4-9.4-25.4c-8.8-9-21.1-7.2-21-7.3c0.1,0.1,2.4,13.7,10.3,22.7
			C490.1,299.8,502.2,300.8,502.2,300.7z"/>
		<path class="st1" d="M504.9,300.7c-0.1-0.1,12.4-0.1,19.8-11.6c7.6-11.6,5.5-30.1,5.4-30c-0.1-0.1-11.8,2.7-18.3,14.2
			C505.3,284.7,505,300.6,504.9,300.7z"/>
		<path class="st1" d="M500.4,269.4c0.1,0.1-2.6-16.2-12.7-24c-10-7.7-21.9-4.3-21.8-4.3c0.1,0.1,4.2,13.3,13.3,21.1
			C488.3,270.1,500.3,269.5,500.4,269.4z"/>
		<path class="st1" d="M503,269.1c-0.1-0.1,12.2-1.8,18-14.3c5.9-12.5,1.3-30.7,1.2-30.6c-0.1-0.1-11.3,4.3-16.2,16.6
			C501.3,253.1,503.1,269,503,269.1z"/>
		<path class="st1" d="M494.3,238.6c0.1,0.1-4.8-15.8-15.9-22.1c-11-6.3-22.3-1.3-22.3-1.4c0.1,0,6.1,12.7,16.1,19.3
			C482.5,241,494.3,238.7,494.3,238.6z"/>
		<path class="st1" d="M496.9,237.9c-0.1-0.1,11.9-3.5,15.9-16.6c4.2-13.3-3-30.8-3.1-30.7c-0.1-0.1-10.6,5.8-13.7,18.8
			C493,222.2,497,237.8,496.9,237.9z"/>
		<path class="st1" d="M484.1,208.7c0.1,0-7-15.1-19-19.9c-11.8-4.8-22.4,1.7-22.3,1.7c0.1,0,7.9,11.8,18.8,17
			C472.6,212.7,484,208.8,484.1,208.7z"/>
		<path class="st1" d="M486.5,207.6c-0.1-0.1,11.3-5.1,13.4-18.8c2.2-13.8-7.4-30.3-7.5-30.2c-0.1,0-9.7,7.3-10.9,20.6
			C480.5,192.6,486.6,207.5,486.5,207.6z"/>
		<path class="st1" d="M469.6,180.2c0.2,0-9.2-14.1-21.9-17.4c-12.5-3.3-22,4.7-22,4.7c0.1,0,9.7,10.8,21.4,14.5
			C458.8,185.8,469.6,180.3,469.6,180.2z"/>
		<path class="st1" d="M471.9,178.9c-0.1,0,10.5-6.6,10.6-20.6c0.2-14.1-12-29.4-12.1-29.2c-0.1,0-8.5,8.6-7.7,22.1
			C463.6,164.6,471.9,178.7,471.9,178.9z"/>
		<path class="st1" d="M450.9,153.8c0.2,0-11.3-12.9-24.6-14.5c-13.1-1.6-21.4,7.7-21.4,7.6c0.1,0,11.5,9.6,23.8,11.7
			C441,160.8,450.9,153.8,450.9,153.8z"/>
		<path class="st1" d="M422.9,112.7c-13.1-10.5-29.4-10.4-29.3-10.3c0.1,0.1,7,13.9,18.8,23.4c11.9,9.4,26.2,12.5,26.3,12.5
			C438.9,138.4,436.1,123.2,422.9,112.7z"/>
		<path class="st1" d="M460.3,130c-2-14.2-16.8-27.9-16.8-27.7c-0.1,0-7.1,9.7-4.1,23.2c3.1,13.4,13.6,26.4,13.5,26.5
			C452.8,152,462.4,144,460.3,130z"/>
		<path class="st1" d="M391.9,492c1.2,1.9,2.3,3.8,3.5,5.7c19.6-12,36.6-26.2,51-41.9c-1.7-1.5-3.3-3-5-4.5
			C427.4,466.6,410.9,480.3,391.9,492z"/>
	</g>
	<circle class="st28" cx="248.7" cy="266.4" r="11.5"/>
</g>
</svg>
