<?xml version="1.0" encoding="utf-8"?>
<!-- Generator: Adobe Illustrator 23.0.1, SVG Export Plug-In . SVG Version: 6.00 Build 0)  -->
<svg version="1.1" id="Layer_1" xmlns="http://www.w3.org/2000/svg" xmlns:xlink="http://www.w3.org/1999/xlink" x="0px" y="0px"
	 viewBox="0 0 600 600" style="enable-background:new 0 0 600 600;" xml:space="preserve">
<style type="text/css">
	.st0{fill:#36A9E1;}
	.st1{fill:#1D1D1B;}
	.st2{fill:#2E5227;}
	.st3{fill:#231F20;}
	.st4{fill:#977E63;}
	.st5{fill:#771914;}
	.st6{fill:#DF4336;}
	.st7{fill:#FFFFFF;}
	.st8{fill:#DE4435;}
	.st9{fill:url(#SVGID_1_);}
	.st10{fill:url(#SVGID_2_);}
	.st11{fill:url(#SVGID_3_);}
	.st12{fill:#404041;}
	.st13{fill:url(#SVGID_4_);}
	.st14{fill:url(#SVGID_5_);}
	.st15{fill:url(#SVGID_6_);}
	.st16{fill:url(#SVGID_7_);}
	.st17{fill:url(#SVGID_8_);}
	.st18{fill:url(#SVGID_9_);}
	.st19{fill:url(#SVGID_10_);}
	.st20{fill:url(#SVGID_11_);}
	.st21{fill:url(#SVGID_12_);}
	.st22{fill:#EC1C24;}
	.st23{fill:none;stroke:#1D1D1B;stroke-width:4.0818;stroke-miterlimit:10;}
	.st24{fill:#C99D66;}
	.st25{fill:#35A8E0;}
	.st26{fill:#2DAB66;}
	.st27{fill:none;stroke:#1D1D1B;stroke-width:3.4123;stroke-linejoin:round;stroke-miterlimit:10;}
	.st28{fill:#E20613;}
	.st29{fill:#FCEA0D;}
	.st30{fill:#F094BD;}
	.st31{fill:#E5332A;}
	.st32{fill:#E84E1B;}
	.st33{fill:#F29100;}
	.st34{fill:#F8B133;}
	.st35{fill:#008D36;}
	.st36{fill:#006633;}
	.st37{fill:#39A935;}
	.st38{fill:#1D3763;}
	.st39{fill:url(#SVGID_13_);}
	.st40{fill:url(#SVGID_14_);}
	.st41{fill:url(#SVGID_15_);}
	.st42{fill:url(#SVGID_16_);}
	.st43{fill:url(#SVGID_17_);}
	.st44{fill:url(#SVGID_18_);}
	.st45{fill:url(#SVGID_19_);}
	.st46{fill:url(#SVGID_20_);}
	.st47{fill:url(#SVGID_21_);}
	.st48{fill:none;}
	.st49{fill:#93C01F;}
	.st50{fill:#81358A;}
	.st51{fill:#4B2C15;}
	.st52{fill:#79A242;}
	.st53{fill:#613917;stroke:#613917;stroke-width:0.3451;stroke-miterlimit:10;}
	.st54{fill:#8D8C8C;stroke:#8D8C8C;stroke-width:0.3451;stroke-miterlimit:10;}
	.st55{fill:#273577;}
	.st56{fill:#6C1510;}
	.st57{fill:#185126;}
</style>
<g>
	
		<rect x="148" y="148" transform="matrix(0.7071 0.7071 -0.7071 0.7071 300 -124.2641)" class="st23" width="304.1" height="304.1"/>
	<g>
		<path class="st7" d="M176.3,238c-3.6,0-7-0.8-10.1-2.4c-5.5-2.8-9.7-7.9-11.4-13.8c-1.8-6.2-0.8-12.8,2.7-18.2
			c0.1-0.2,0.3-0.4,0.4-0.6l-4.8-16.8c-0.2-0.1-0.5-0.2-0.7-0.3c-5.7-2.8-10-7.9-11.8-14c-1.8-6.2-0.8-12.8,2.7-18.3
			c2.1-3.3,6.1-7.5,13.3-9.6l42.6-12.1c1.9-0.5,3.7-0.8,5.6-0.8c8.9,0,17.1,5.9,19.6,14.8l3.8,13.3c2.1,7.5,0.4,13.3-1.4,16.9
			c-1.9,3.8-4.8,6.9-8.4,9c0.7,4.1,0.3,7.6-0.5,10.5c1.6,2.1,2.8,4.6,3.5,7.2c1.7,6,0.8,12.5-2.4,17.8c-2.1,3.4-6.2,8-13.6,10.1
			l-22.3,6.3C180.8,237.6,178.5,238,176.3,238z"/>
	</g>
	<g>
		<path class="st7" d="M413.7,240.4c-0.7,0-1.4,0-2.1-0.1c-6.2-0.6-11.9-3.8-15.7-8.7c-3.9-5.1-5.4-11.6-4.2-17.8
			c0-0.2,0.1-0.5,0.2-0.7l-10.6-13.9c-0.3,0-0.5,0-0.8,0c-6.3-0.4-12.2-3.6-16.1-8.8c-3.9-5.1-5.4-11.6-4.2-17.9
			c0.8-3.8,2.9-9.4,9-14l33.6-25.6c3.7-2.8,8.1-4.2,12.4-4.2c6.1,0,12.2,2.8,16.2,8l8.4,11c2.9,3.8,4.3,7.6,4.8,10.9
			c3.7,0.9,8.7,3.2,12.9,8.7l9.6,12.6c6.8,9,5.1,21.8-3.8,28.6l-35.2,26.9C422.5,239.5,417.2,240.4,413.7,240.4z"/>
	</g>
	<g>
		<path class="st7" d="M179.4,471.9c-1.8,0-3.6-0.2-5.3-0.7c-6-1.5-11.2-5.5-14.2-11c-2.8-5-3.5-10.9-2-16.4l-9.3-17
			c-0.2,0-0.5-0.1-0.7-0.2c-6.2-1.4-11.5-5.5-14.6-11.1c-3.1-5.6-3.6-12.3-1.4-18.3c1.3-3.7,4.3-8.8,10.9-12.4l9.2-5
			c3.1-1.7,6.4-2.5,9.8-2.5c0.3,0,0.6,0,0.8,0c1.8-2.8,4.6-5.8,8.9-8.2l13-7.1c3.7-2,7.6-3,11.5-3c1.7,0,3.3,0.2,4.9,0.5
			c6.2,1.4,11.5,5.4,14.6,11.1c2.8,5,3.5,10.9,2,16.4l18.5,33.9c2.6,4.8,3.2,10.3,1.7,15.5c-1.5,5.2-5,9.6-9.8,12.2l-4.5,2.5
			c-3.1,1.7-6.4,2.5-9.8,2.5c-0.3,0-0.5,0-0.8,0c-1.8,2.8-4.6,5.8-8.9,8.2l-13,7.1C187.3,470.9,183.4,471.9,179.4,471.9z"/>
	</g>
	<g>
		<g>
			<g>
				<path class="st7" d="M402.8,469.2c-3.3,0-6.4-0.7-9.3-2c-5.7-2.6-10-7.5-11.9-13.4c-2-6.1-1.3-12.7,1.9-18.2
					c0.1-0.2,0.3-0.4,0.4-0.7l-5.4-16.6c-0.2-0.1-0.5-0.2-0.7-0.3c-5.9-2.6-10.4-7.5-12.3-13.6c-2-6.1-1.3-12.8,2-18.3
					c2-3.4,5.8-7.9,13.1-10.2l40.1-13.1c2.1-0.7,4.2-1,6.3-1c8.6,0,16.6,5.5,19.4,14.1l4.3,13.1c1.5,4.6,1.5,8.6,0.9,11.9
					c3.2,2.1,7.1,5.9,9.3,12.5l4.9,15.1c1.7,5.1,1.2,10.7-1.2,15.6s-6.7,8.5-11.9,10.2l-42.2,13.7
					C407.9,468.8,405.3,469.2,402.8,469.2z"/>
			</g>
		</g>
	</g>
	<path class="st1" d="M179.2,188.8l6.3,22.1l13.3-3.8c0.9-0.3,1.6-0.3,2.1,0c0.5,0.2,0.8,0.7,1,1.2c0.2,0.6,0.1,1.1-0.2,1.6
		s-0.9,0.9-1.8,1.1l-22.3,6.3c-0.9,0.3-1.6,0.3-2.1,0s-0.8-0.7-1-1.2c-0.2-0.6-0.1-1.1,0.2-1.6c0.3-0.5,0.9-0.8,1.8-1.1l5.2-1.5
		l-13.1-46.1l-5.2,1.5c-0.9,0.3-1.6,0.3-2.1,0c-0.5-0.2-0.8-0.7-1-1.2c-0.2-0.6-0.1-1.1,0.3-1.7c0.3-0.4,0.8-0.7,1.8-1l42.6-12.1
		l3.8,13.3c0.3,0.9,0.3,1.6,0,2.1c-0.3,0.5-0.7,0.8-1.2,1c-0.6,0.2-1.1,0.1-1.6-0.2s-0.9-0.9-1.1-1.8l-2.7-9.4l-29.6,8.4l5.7,20.1
		L192,181l-1.2-4.4c-0.3-0.9-0.3-1.6,0-2.1c0.3-0.5,0.7-0.8,1.3-1c0.6-0.2,1.1-0.1,1.6,0.2c0.5,0.3,0.9,0.9,1.1,1.8l3.6,12.6
		c0.3,0.9,0.3,1.6,0,2.1s-0.7,0.8-1.2,1c-0.6,0.2-1.1,0.1-1.6-0.2c-0.5-0.3-0.9-0.9-1.1-1.8l-1.2-4.4L179.2,188.8z"/>
	<path class="st1" d="M288.4,185.5l-2.8,20.8l7.3,1c1,0.1,1.7,0.4,2,0.8s0.5,0.9,0.4,1.5c-0.1,0.6-0.3,1-0.8,1.3
		c-0.5,0.3-1.2,0.4-2.2,0.3l-16.7-2.3c-0.9-0.1-1.6-0.4-2-0.8c-0.4-0.4-0.5-0.9-0.4-1.5c0.1-0.6,0.4-1.1,0.8-1.4
		c0.5-0.3,1.2-0.4,2.1-0.3l5.4,0.7l6.5-47.5l-5.4-0.7c-0.9-0.1-1.6-0.4-2-0.8s-0.5-0.9-0.4-1.5c0.1-0.6,0.4-1.1,0.8-1.4
		c0.5-0.3,1.2-0.4,2.1-0.3l24.1,3.3c5,0.7,8.9,2.8,11.9,6.4c3,3.6,4.2,7.4,3.6,11.3c-0.4,2.8-1.8,5.4-4.2,7.6s-6.2,3.8-11.4,4.8
		c2.6,2.3,4.7,4.9,6.4,7.6c1.7,2.7,4.2,8.2,7.7,16.5l3,0.4c0.9,0.1,1.6,0.4,2,0.8s0.5,0.9,0.4,1.5c-0.1,0.6-0.3,1-0.8,1.3
		c-0.5,0.3-1.2,0.4-2.1,0.3l-5.3-0.7c-3.7-9.5-6.7-15.9-9-19.3s-5.1-6.1-8.4-8.3L288.4,185.5z M288.9,181.5l10.9,1.5
		c3.5,0.5,6.7,0.3,9.7-0.6s5.3-2.1,6.8-3.6c1.5-1.5,2.4-3.2,2.6-5c0.4-2.7-0.6-5.4-3-8.1s-5.4-4.4-9.3-4.9l-14.6-2L288.9,181.5z"/>
	<path class="st1" d="M406.6,192l14,18.3l24.6-18.8l-7.2-9.4c-0.6-0.8-0.9-1.4-0.8-2c0-0.6,0.3-1,0.8-1.4c0.5-0.4,1-0.5,1.5-0.4
		c0.5,0.1,1.1,0.5,1.7,1.3l9.6,12.6l-35.2,26.9c-0.8,0.6-1.4,0.8-2,0.8c-0.6-0.1-1-0.3-1.4-0.8c-0.4-0.5-0.5-1-0.4-1.5
		c0.1-0.5,0.5-1.1,1.3-1.7l4.3-3.3l-29.1-38.1l-4.3,3.3c-0.8,0.6-1.4,0.9-2,0.8s-1-0.3-1.4-0.8c-0.4-0.5-0.5-1-0.4-1.5
		c0.1-0.5,0.5-1.1,1.3-1.7l33.6-25.6l8.4,11c0.6,0.8,0.9,1.4,0.8,2c0,0.6-0.3,1-0.8,1.4c-0.5,0.4-1,0.5-1.5,0.4
		c-0.5-0.1-1.1-0.5-1.7-1.3l-6-7.8l-22.9,17.5l12.7,16.6l11.4-8.7l-2.8-3.6c-0.6-0.8-0.8-1.4-0.8-2c0.1-0.6,0.3-1,0.8-1.4
		c0.5-0.3,1-0.5,1.5-0.4c0.6,0.1,1.1,0.5,1.7,1.3l8,10.4c0.6,0.8,0.8,1.4,0.8,2c-0.1,0.6-0.3,1-0.8,1.4c-0.5,0.4-1,0.5-1.6,0.4
		c-0.6-0.1-1.1-0.5-1.7-1.3l-2.8-3.6L406.6,192z"/>
	<path class="st1" d="M218.2,430.8l-4.5,2.5l-50-29.7l22.1,40.4l6.5-3.6c0.9-0.5,1.6-0.6,2.1-0.5c0.5,0.1,1,0.5,1.2,1
		c0.3,0.5,0.3,1,0.1,1.6s-0.7,1-1.6,1.5l-13,7.1c-0.9,0.5-1.6,0.6-2.1,0.5c-0.5-0.1-1-0.5-1.2-1c-0.3-0.5-0.3-1.1-0.2-1.6
		c0.2-0.5,0.7-1,1.6-1.5l2.9-1.6l-23-42.1l-4.7,2.6c-0.8,0.5-1.5,0.6-2.1,0.5s-1-0.5-1.2-1c-0.3-0.5-0.3-1.1-0.2-1.6s0.7-1,1.5-1.5
		l9.2-5l50.1,29.8l-22.1-40.5l-6.5,3.6c-0.8,0.5-1.5,0.6-2.1,0.5s-1-0.5-1.2-1c-0.3-0.5-0.3-1.1-0.2-1.6s0.7-1,1.6-1.5l13-7.1
		c0.8-0.5,1.5-0.6,2.1-0.5s1,0.5,1.2,1c0.3,0.5,0.3,1.1,0.2,1.6s-0.7,1-1.5,1.5l-3,1.6L218.2,430.8z"/>
	<path class="st1" d="M315.5,391.8l-0.2-2.8c-0.1-1,0.1-1.7,0.4-2.1c0.3-0.4,0.8-0.7,1.4-0.7c0.6,0,1.1,0.1,1.5,0.5
		c0.4,0.4,0.6,1.1,0.7,2l0.8,11.1c0.1,1-0.1,1.7-0.4,2.1c-0.3,0.4-0.8,0.7-1.4,0.7c-0.5,0-1-0.1-1.4-0.5c-0.4-0.4-0.7-1-0.8-1.8
		c-0.4-2.7-2-4.9-4.9-6.8c-3.9-2.6-8.2-3.6-12.9-3.3c-3.1,0.2-5.9,1.1-8.6,2.7c-2,1.1-3.5,2.5-4.6,4c-1.9,2.6-3.4,5.5-4.4,8.6
		c-0.7,2.3-1,4.8-0.8,7.6l0.5,7c0.5,6,3,11,7.7,15.1c4.7,4.1,9.8,5.9,15.6,5.5c3.4-0.3,6.5-1.2,9.1-2.9c2.6-1.7,5.1-4.2,7.4-7.4
		c0.5-0.7,1.1-1.1,1.7-1.1c0.6,0,1,0.1,1.4,0.4s0.6,0.8,0.6,1.3c0.1,0.7-0.5,1.9-1.8,3.5c-2.4,3.1-5.2,5.5-8.3,7.3
		c-3.1,1.7-6.4,2.7-9.7,3c-2.9,0.2-5.9-0.1-9-1c-2.4-0.7-4.3-1.5-5.9-2.6s-3.6-2.8-5.9-5.4c-2.4-2.6-4.1-5-5-7.2s-1.6-4.8-1.8-7.5
		L276,413c-0.3-3.9,0.5-8.1,2.3-12.3c1.8-4.3,4.5-7.7,8-10.1s7.4-3.9,11.7-4.2C304.5,385.8,310.4,387.6,315.5,391.8z"/>
	<g>
		<path class="st1" d="M404.7,419.9l7.1,21.9l29.4-9.6l-3.7-11.3c-0.3-0.9-0.3-1.6-0.1-2.1s0.6-0.9,1.2-1c0.6-0.2,1.1-0.1,1.6,0.1
			c0.5,0.3,0.9,0.9,1.2,1.8l4.9,15.1l-42.2,13.7c-0.9,0.3-1.6,0.3-2.1,0.1c-0.5-0.2-0.9-0.6-1-1.2c-0.2-0.6-0.1-1.1,0.1-1.6
			c0.3-0.5,0.9-0.9,1.8-1.2l5.1-1.7l-14.8-45.6l-5.1,1.7c-0.9,0.3-1.6,0.3-2.1,0.1c-0.5-0.2-0.9-0.6-1-1.2c-0.2-0.6-0.1-1.1,0.1-1.6
			c0.3-0.5,0.9-0.9,1.8-1.2l40.2-13.1l4.3,13.1c0.3,0.9,0.3,1.6,0.1,2.1c-0.2,0.5-0.6,0.9-1.2,1c-0.6,0.2-1.1,0.1-1.6-0.1
			c-0.5-0.3-0.9-0.9-1.2-1.8l-3-9.3l-27.4,8.9l6.5,19.9l13.7-4.5l-1.4-4.3c-0.3-0.9-0.3-1.6-0.1-2.1c0.2-0.5,0.6-0.9,1.2-1.1
			c0.5-0.2,1.1-0.1,1.6,0.1c0.5,0.3,0.9,0.9,1.2,1.8l4.1,12.5c0.3,0.9,0.3,1.6,0.1,2.1s-0.6,0.9-1.2,1c-0.6,0.2-1.1,0.1-1.6-0.1
			c-0.5-0.3-0.9-0.9-1.2-1.8l-1.4-4.3L404.7,419.9z"/>
	</g>
	<path class="st1" d="M174,298.6l-4.3,22.6L200,327l2.2-11.7c0.2-0.9,0.5-1.6,0.9-1.9s1-0.4,1.6-0.3c0.6,0.1,1,0.4,1.3,0.9
		s0.3,1.2,0.2,2.1l-3,15.6l-43.5-8.4c-0.9-0.2-1.6-0.5-1.9-1c-0.3-0.5-0.4-1-0.3-1.5c0.1-0.6,0.4-1,0.9-1.3c0.5-0.3,1.2-0.3,2.1-0.2
		l5.3,1l9-47.1l-5.3-1c-0.9-0.2-1.6-0.5-1.9-0.9c-0.3-0.4-0.4-1-0.3-1.6s0.4-1,0.9-1.3c0.5-0.3,1.2-0.3,2.1-0.2l41.5,8l-2.6,13.6
		c-0.2,0.9-0.5,1.6-0.9,1.9c-0.4,0.3-1,0.4-1.6,0.3s-1-0.4-1.3-0.9c-0.3-0.5-0.3-1.2-0.2-2.1l1.8-9.6l-28.3-5.4l-3.9,20.5l14.1,2.7
		l0.9-4.5c0.2-0.9,0.5-1.6,1-1.9c0.5-0.3,1-0.4,1.6-0.3c0.6,0.1,1,0.4,1.3,0.9s0.4,1.2,0.2,2.1l-2.5,12.9c-0.2,0.9-0.5,1.6-1,1.9
		c-0.5,0.3-1,0.4-1.5,0.3c-0.6-0.1-1-0.4-1.3-0.9s-0.4-1.2-0.2-2.1l0.9-4.5L174,298.6z"/>
	<path class="st1" d="M286.3,276.4l13,46.1l25.7-7.2l-4.3-15.4c-0.3-0.9-0.3-1.6,0-2.1s0.7-0.8,1.3-1c0.6-0.2,1.1-0.1,1.5,0.2
		c0.5,0.3,0.8,0.9,1.1,1.8L330,318l-42.7,12c-0.9,0.3-1.6,0.3-2.1,0c-0.5-0.3-0.8-0.7-1-1.2c-0.2-0.6-0.1-1.1,0.2-1.6
		c0.3-0.5,0.9-0.8,1.8-1.1l9.2-2.6l-13-46.1l-9.2,2.6c-0.9,0.3-1.6,0.3-2.1,0s-0.8-0.7-1-1.2c-0.2-0.6-0.1-1.1,0.2-1.6
		s0.9-0.8,1.8-1.1l22.3-6.3c0.9-0.3,1.6-0.3,2.1,0s0.8,0.7,1,1.2c0.2,0.6,0.1,1.1-0.2,1.6s-0.9,0.8-1.8,1.1L286.3,276.4z"/>
	<path class="st1" d="M427.7,312.3l-23.1-12.9l-11.9,10.2l6.7,3.8c0.8,0.5,1.3,1,1.5,1.5s0.1,1-0.2,1.6c-0.3,0.5-0.7,0.8-1.2,1
		c-0.5,0.1-1.2,0-2.1-0.5l-13.1-7.3c-0.8-0.5-1.3-1-1.5-1.5c-0.2-0.5-0.1-1.1,0.2-1.6c0.3-0.5,0.7-0.9,1.3-1
		c0.5-0.1,1.2,0.1,2.1,0.5l2.7,1.5l38.9-33.2l-10.4-5.8c-0.8-0.5-1.3-1-1.5-1.5c-0.2-0.5-0.1-1,0.2-1.6c0.3-0.5,0.7-0.9,1.3-1
		s1.2,0.1,2.1,0.5l17.7,9.9l-8.2,54.9l2.7,1.5c0.8,0.5,1.3,1,1.5,1.5c0.2,0.5,0.1,1-0.2,1.6c-0.3,0.5-0.7,0.8-1.2,1
		c-0.5,0.1-1.2,0-2.1-0.5l-13.1-7.3c-0.9-0.5-1.4-1-1.6-1.5c-0.2-0.5-0.1-1.1,0.2-1.6c0.3-0.5,0.7-0.9,1.3-1
		c0.5-0.1,1.2,0.1,2.1,0.5l6.7,3.7L427.7,312.3z M428.4,308.1l4.5-30.9l-1.3-0.7L408,296.7L428.4,308.1z"/>
</g>
</svg>
